M48
; DRILL file {KiCad (5.1.5-0-10_14)} date Friday, March 20, 2020 at 10:46:19 PM
; FORMAT={-:-/ absolute / inch / decimal}
; #@! TF.CreationDate,2020-03-20T22:46:19-04:00
; #@! TF.GenerationSoftware,Kicad,Pcbnew,(5.1.5-0-10_14)
FMAT,2
INCH
T1C0.0315
T2C0.0394
T3C0.0433
T4C0.0591
T5C0.0669
T6C0.1201
T7C0.1575
%
G90
G05
T1
X10.5Y-1.0125
X10.5Y-1.3125
X1.875Y-1.0125
X1.875Y-1.3125
X3.75Y-1.7812
X3.75Y-2.0812
X7.3125Y-3.2812
X7.3125Y-3.5812
X1.5Y-1.0125
X1.5Y-1.3125
X11.5125Y-1.5
X11.8125Y-1.5
X7.6875Y-4.0312
X7.6875Y-4.3312
X2.25Y-1.7812
X2.25Y-2.0812
X5.625Y-2.5312
X5.625Y-2.8312
X0.75Y-4.7812
X0.75Y-5.0812
X4.125Y-1.0125
X4.125Y-1.3125
X10.7812Y-5.0625
X10.7812Y-5.3625
X2.625Y-1.0125
X2.625Y-1.3125
X5.25Y-1.7812
X5.25Y-2.0812
X3.0Y-4.7812
X3.0Y-5.0812
X9.1875Y-4.0312
X9.1875Y-4.3312
X1.5Y-4.7812
X1.5Y-5.0812
X10.125Y-2.5312
X10.125Y-2.8312
X7.875Y-2.5312
X7.875Y-2.8312
X2.8125Y-3.2812
X2.8125Y-3.5812
X3.1875Y-4.0312
X3.1875Y-4.3312
X8.625Y-2.5312
X8.625Y-2.8312
X9.5625Y-3.2812
X9.5625Y-3.5812
X2.0625Y-3.2812
X2.0625Y-3.5812
X3.9375Y-4.0312
X3.9375Y-4.3312
X7.5Y-1.7812
X7.5Y-2.0812
X3.5625Y-3.2812
X3.5625Y-3.5812
X5.0625Y-3.2812
X5.0625Y-3.5812
X8.25Y-1.7812
X8.25Y-2.0812
X5.4375Y-4.7812
X5.4375Y-5.0812
X4.3125Y-3.2812
X4.3125Y-3.5812
X7.6875Y-1.0125
X7.6875Y-1.3125
X9.75Y-1.0125
X9.75Y-1.3125
X5.4375Y-4.0312
X5.4375Y-4.3312
X6.1875Y-4.0312
X6.1875Y-4.3312
X8.7188Y-4.7812
X8.7188Y-5.0812
X2.625Y-2.5312
X2.625Y-2.8312
X5.8125Y-3.2812
X5.8125Y-3.5812
X11.1375Y-1.7812
X11.4375Y-1.7812
X3.375Y-1.0125
X3.375Y-1.3125
X9.5625Y-4.7812
X9.5625Y-5.0812
X6.5625Y-3.2812
X6.5625Y-3.5812
X7.125Y-2.5312
X7.125Y-2.8312
X11.5312Y-5.0625
X11.5312Y-5.3625
X4.875Y-2.5312
X4.875Y-2.8312
X2.25Y-4.7812
X2.25Y-5.0812
X8.4375Y-4.0312
X8.4375Y-4.3312
X6.375Y-2.5312
X6.375Y-2.8312
X0.75Y-4.0312
X0.75Y-4.3312
X12.1875Y-1.2
X12.1875Y-1.5
X10.125Y-4.0
X10.125Y-4.3
X4.5Y-1.7812
X4.5Y-2.0812
X8.0625Y-3.2812
X8.0625Y-3.5812
X2.4375Y-4.0312
X2.4375Y-4.3312
X6.1875Y-1.0125
X6.1875Y-1.3125
X8.8125Y-3.2812
X8.8125Y-3.5812
X6.0Y-1.7812
X6.0Y-2.0812
X0.75Y-3.2812
X0.75Y-3.5812
X12.2812Y-5.0625
X12.2812Y-5.3625
X5.4375Y-1.0125
X5.4375Y-1.3125
X4.6875Y-4.0312
X4.6875Y-4.3312
X6.9375Y-1.0125
X6.9375Y-1.3125
X0.75Y-2.5312
X0.75Y-2.8312
X11.4375Y-4.2188
X11.4375Y-4.5187
X9.375Y-2.5312
X9.375Y-2.8312
X6.75Y-1.7812
X6.75Y-2.0812
X1.875Y-2.5312
X1.875Y-2.8312
X0.75Y-1.7812
X0.75Y-2.0812
X9.0Y-1.0125
X9.0Y-1.3125
X10.5Y-3.2812
X10.5Y-3.5812
X3.375Y-2.5312
X3.375Y-2.8312
X9.0Y-1.7812
X9.0Y-2.0812
X1.5Y-1.7812
X1.5Y-2.0812
X4.125Y-2.5312
X4.125Y-2.8312
X6.9375Y-4.0312
X6.9375Y-4.3312
X11.0625Y-2.5312
X11.0625Y-2.8312
X3.0Y-1.7812
X3.0Y-2.0812
X9.75Y-1.7812
X9.75Y-2.0812
T2
X12.3666Y-1.0219
X12.3666Y-1.2188
X12.9375Y-1.0219
X12.9375Y-1.1203
X12.9375Y-1.2188
T3
X12.3562Y-2.2563
X12.3562Y-2.3562
X12.3562Y-2.4562
X12.3562Y-2.5562
X12.3562Y-2.6562
X12.3562Y-2.7563
X12.3562Y-2.8562
X12.3562Y-2.9562
X12.3562Y-3.0562
X12.3562Y-3.1562
X12.3562Y-3.2563
X12.3562Y-3.3562
X12.3562Y-3.4562
X12.3562Y-3.5562
X12.4562Y-3.2563
X12.4562Y-3.3562
X12.4562Y-3.5562
X12.5563Y-3.2563
X12.5563Y-3.3562
X12.5563Y-3.5562
X12.6562Y-3.2563
X12.6562Y-3.3562
X12.6562Y-3.5562
X12.7562Y-3.2563
X12.7562Y-3.3562
X12.7562Y-3.5562
X12.8562Y-2.3562
X12.8562Y-3.2563
X12.8562Y-3.3562
X12.8562Y-3.5562
X12.9562Y-2.2563
X12.9562Y-2.3562
X12.9562Y-2.4562
X12.9562Y-2.5562
X12.9562Y-2.6562
X12.9562Y-2.7563
X12.9562Y-2.8562
X12.9562Y-2.9562
X12.9562Y-3.0562
X12.9562Y-3.1562
X12.9562Y-3.2563
X12.9562Y-3.3562
X12.9562Y-3.4562
X12.9562Y-3.5562
T4
X10.725Y-1.025
X10.975Y-0.925
X3.4125Y-4.3062
X3.6625Y-4.2062
X6.6Y-2.8062
X6.85Y-2.7062
X11.0062Y-5.3375
X11.2562Y-5.2375
X10.4437Y-4.3062
X10.6937Y-4.2062
X9.975Y-2.0562
X10.225Y-1.9563
X3.225Y-2.0562
X3.475Y-1.9563
X10.35Y-2.8062
X10.6Y-2.7062
X9.8812Y-5.0562
X10.1312Y-4.9562
X3.6Y-2.8062
X3.85Y-2.7062
X3.6Y-1.025
X3.85Y-0.925
X11.7562Y-5.3375
X12.0062Y-5.2375
X2.85Y-2.8062
X3.1Y-2.7062
X3.7875Y-3.5562
X4.0375Y-3.4562
X4.35Y-1.025
X4.6Y-0.925
X2.1Y-1.025
X2.35Y-0.925
X11.7562Y-4.5875
X12.0062Y-4.4875
X3.0375Y-3.5562
X3.2875Y-3.4562
X5.6625Y-1.025
X5.9125Y-0.925
X7.9125Y-1.025
X8.1625Y-0.925
X12.5062Y-5.3375
X12.7562Y-5.2375
X2.6625Y-4.3062
X2.9125Y-4.2062
X1.35Y-4.3062
X1.6Y-4.2062
X2.475Y-5.0562
X2.725Y-4.9562
X11.1Y-2.0562
X11.35Y-1.9563
X2.2875Y-3.5562
X2.5375Y-3.4562
X4.9125Y-4.3062
X5.1625Y-4.2062
X3.3188Y-5.0562
X3.5688Y-4.9562
X9.7875Y-3.5562
X10.0375Y-3.4562
X0.975Y-2.0562
X1.225Y-1.9563
X11.2875Y-2.8062
X11.5375Y-2.7062
X5.475Y-2.0562
X5.725Y-1.9563
X9.4125Y-4.3062
X9.6625Y-4.2062
X6.4125Y-1.025
X6.6625Y-0.925
X1.1625Y-2.8062
X1.4125Y-2.7062
X5.85Y-2.8062
X6.1Y-2.7062
X7.9125Y-4.3062
X8.1625Y-4.2062
X6.0375Y-3.5562
X6.2875Y-3.4562
X2.1Y-2.8062
X2.35Y-2.7062
X5.1Y-2.8062
X5.35Y-2.7062
X8.475Y-2.0562
X8.725Y-1.9563
X5.2875Y-3.5562
X5.5375Y-3.4562
X8.85Y-2.8062
X9.1Y-2.7062
X1.725Y-5.0562
X1.975Y-4.9562
X9.0375Y-3.5562
X9.2875Y-3.4562
X4.5375Y-3.5562
X4.7875Y-3.4562
X0.975Y-5.0562
X1.225Y-4.9562
X8.6625Y-4.3062
X8.9125Y-4.2062
X4.1625Y-4.3062
X4.4125Y-4.2062
X11.475Y-1.025
X11.725Y-0.925
X9.225Y-1.025
X9.475Y-0.925
X1.725Y-2.0562
X1.975Y-1.9563
X9.225Y-2.0562
X9.475Y-1.9563
X4.725Y-2.0562
X4.975Y-1.9563
X6.7875Y-3.5562
X7.0375Y-3.4562
X7.1625Y-4.3062
X7.4125Y-4.2062
X3.975Y-2.056
X4.225Y-1.956
X9.6Y-2.8062
X9.85Y-2.7062
X11.0062Y-3.5562
X11.2562Y-3.4562
X6.4125Y-4.3062
X6.6625Y-4.2062
X7.725Y-2.0562
X7.975Y-1.9563
X4.35Y-2.8062
X4.6Y-2.7062
X6.975Y-2.0562
X7.225Y-1.9563
X8.9437Y-5.0562
X9.1937Y-4.9562
X8.1Y-2.8062
X8.35Y-2.7062
X2.85Y-1.025
X3.1Y-0.925
X7.35Y-2.8062
X7.6Y-2.7062
X8.2875Y-3.5562
X8.5375Y-3.4562
X0.975Y-1.025
X1.225Y-0.925
X7.1625Y-1.025
X7.4125Y-0.925
X1.2562Y-3.5562
X1.5062Y-3.4562
X7.5375Y-3.5562
X7.7875Y-3.4562
X9.975Y-1.025
X10.225Y-0.925
X5.6625Y-4.3062
X5.9125Y-4.2062
X2.475Y-2.0562
X2.725Y-1.9563
X6.225Y-2.0562
X6.475Y-1.9563
X6.1312Y-5.0562
X6.3812Y-4.9562
T5
X12.4562Y-5.4375
X12.8562Y-5.4375
X2.6125Y-4.4062
X3.0125Y-4.4062
X1.3Y-4.4062
X1.7Y-4.4062
X2.425Y-5.1562
X2.825Y-5.1562
X11.05Y-2.1562
X11.45Y-2.1562
X2.2375Y-3.6562
X2.6375Y-3.6562
X4.8625Y-4.4062
X5.2625Y-4.4062
X3.2687Y-5.1562
X3.6687Y-5.1562
X9.7375Y-3.6562
X10.1375Y-3.6562
X0.925Y-2.1562
X1.325Y-2.1562
X11.2375Y-2.9062
X11.6375Y-2.9062
X5.425Y-2.1562
X5.825Y-2.1562
X9.3625Y-4.4062
X9.7625Y-4.4062
X6.3625Y-1.125
X6.7625Y-1.125
X1.1125Y-2.9062
X1.5125Y-2.9062
X5.8Y-2.9062
X6.2Y-2.9062
X7.8625Y-4.4062
X8.2625Y-4.4062
X5.9875Y-3.6562
X6.3875Y-3.6562
X2.05Y-2.9062
X2.45Y-2.9062
X5.05Y-2.9062
X5.45Y-2.9062
X8.425Y-2.1562
X8.825Y-2.1562
X5.2375Y-3.6562
X5.6375Y-3.6562
X8.8Y-2.9062
X9.2Y-2.9062
X1.675Y-5.1562
X2.075Y-5.1562
X8.9875Y-3.6562
X9.3875Y-3.6562
X4.4875Y-3.6562
X4.8875Y-3.6562
X0.925Y-5.1562
X1.325Y-5.1562
X8.6125Y-4.4062
X9.0125Y-4.4062
X4.1125Y-4.4062
X4.5125Y-4.4062
X11.425Y-1.125
X11.825Y-1.125
X9.175Y-1.125
X9.575Y-1.125
X1.675Y-2.1562
X2.075Y-2.1562
X9.175Y-2.1562
X9.575Y-2.1562
X4.675Y-2.1562
X5.075Y-2.1562
X6.7375Y-3.6562
X7.1375Y-3.6562
X7.1125Y-4.4062
X7.5125Y-4.4062
X3.925Y-2.156
X4.325Y-2.156
X9.55Y-2.9062
X9.95Y-2.9062
X10.9562Y-3.6562
X11.3562Y-3.6562
X6.3625Y-4.4062
X6.7625Y-4.4062
X7.675Y-2.1562
X8.075Y-2.1562
X4.3Y-2.9062
X4.7Y-2.9062
X6.925Y-2.1562
X7.325Y-2.1562
X8.8937Y-5.1562
X9.2937Y-5.1562
X8.05Y-2.9062
X8.45Y-2.9062
X2.8Y-1.125
X3.2Y-1.125
X7.3Y-2.9062
X7.7Y-2.9062
X8.2375Y-3.6562
X8.6375Y-3.6562
X0.925Y-1.125
X1.325Y-1.125
X7.1125Y-1.125
X7.5125Y-1.125
X1.2063Y-3.6562
X1.6062Y-3.6562
X7.4875Y-3.6562
X7.8875Y-3.6562
X9.925Y-1.125
X10.325Y-1.125
X5.6125Y-4.4062
X6.0125Y-4.4062
X2.425Y-2.1562
X2.825Y-2.1562
X6.175Y-2.1562
X6.575Y-2.1562
X6.0812Y-5.1562
X6.4813Y-5.1562
X10.675Y-1.125
X11.075Y-1.125
X3.3625Y-4.4062
X3.7625Y-4.4062
X6.55Y-2.9062
X6.95Y-2.9062
X10.9562Y-5.4375
X11.3562Y-5.4375
X10.3937Y-4.4062
X10.7937Y-4.4062
X9.925Y-2.1562
X10.325Y-2.1562
X3.175Y-2.1562
X3.575Y-2.1562
X10.3Y-2.9062
X10.7Y-2.9062
X9.8312Y-5.1562
X10.2312Y-5.1562
X3.55Y-2.9062
X3.95Y-2.9062
X3.55Y-1.125
X3.95Y-1.125
X11.7062Y-5.4375
X12.1062Y-5.4375
X2.8Y-2.9062
X3.2Y-2.9062
X3.7375Y-3.6562
X4.1375Y-3.6562
X4.3Y-1.125
X4.7Y-1.125
X2.05Y-1.125
X2.45Y-1.125
X11.7062Y-4.6875
X12.1062Y-4.6875
X2.9875Y-3.6562
X3.3875Y-3.6562
X5.6125Y-1.125
X6.0125Y-1.125
X7.8625Y-1.125
X8.2625Y-1.125
T6
X4.3127Y-4.8807
X8.2498Y-4.8807
X1.0315Y-4.1307
X1.9685Y-4.1307
X10.7815Y-1.8807
X11.7185Y-1.8807
X10.6877Y-3.3807
X11.6248Y-3.3807
T7
X10.5Y-2.9062
X10.0312Y-5.1562
X3.75Y-2.9062
X3.75Y-1.125
X11.9062Y-5.4375
X3.0Y-2.9062
X3.9375Y-3.6562
X4.5Y-1.125
X2.25Y-1.125
X11.9062Y-4.6875
X3.1875Y-3.6562
X5.8125Y-1.125
X8.0625Y-1.125
X12.6562Y-5.4375
X2.8125Y-4.4062
X1.0315Y-4.7307
X1.5Y-4.4062
X1.9685Y-4.7307
X2.625Y-5.1562
X10.7815Y-2.4807
X11.25Y-2.1562
X11.7185Y-2.4807
X2.4375Y-3.6562
X5.0625Y-4.4062
X3.4688Y-5.1562
X9.9375Y-3.6562
X1.125Y-2.1562
X11.4375Y-2.9062
X5.625Y-2.1562
X9.5625Y-4.4062
X6.5625Y-1.125
X1.3125Y-2.9062
X6.0Y-2.9062
X8.0625Y-4.4062
X6.1875Y-3.6562
X2.25Y-2.9062
X5.25Y-2.9062
X8.625Y-2.1562
X5.4375Y-3.6562
X9.0Y-2.9062
X1.875Y-5.1562
X9.1875Y-3.6562
X4.6875Y-3.6562
X1.125Y-5.1562
X8.8125Y-4.4062
X4.3125Y-4.4062
X11.625Y-1.125
X9.375Y-1.125
X1.875Y-2.1562
X9.375Y-2.1562
X4.875Y-2.1562
X6.9375Y-3.6562
X7.3125Y-4.4062
X4.125Y-2.156
X9.75Y-2.9062
X10.6877Y-3.9807
X11.1562Y-3.6562
X11.6248Y-3.9807
X6.5625Y-4.4062
X7.875Y-2.1562
X4.5Y-2.9062
X7.125Y-2.1562
X9.0938Y-5.1562
X8.25Y-2.9062
X3.0Y-1.125
X7.5Y-2.9062
X8.4375Y-3.6562
X1.125Y-1.125
X7.3125Y-1.125
X1.4062Y-3.6562
X7.6875Y-3.6562
X10.125Y-1.125
X5.8125Y-4.4062
X2.625Y-2.1562
X6.375Y-2.1562
X4.3127Y-5.4807
X6.2812Y-5.1562
X8.2498Y-5.4807
X10.875Y-1.125
X3.5625Y-4.4062
X6.75Y-2.9062
X11.1562Y-5.4375
X10.5938Y-4.4062
X10.125Y-2.1562
X3.375Y-2.1562
T4
G00X12.6678Y-0.8999
M15
G01X12.6166Y-0.8999
M16
G05
G00X12.6678Y-1.3408
M15
G01X12.6166Y-1.3408
M16
G05
T0
M30
