G04 #@! TF.GenerationSoftware,KiCad,Pcbnew,(5.1.5-0-10_14)*
G04 #@! TF.CreationDate,2020-03-20T22:46:17-04:00*
G04 #@! TF.ProjectId,KeyboardProject,4b657962-6f61-4726-9450-726f6a656374,rev?*
G04 #@! TF.SameCoordinates,Original*
G04 #@! TF.FileFunction,Copper,L2,Bot*
G04 #@! TF.FilePolarity,Positive*
%FSLAX46Y46*%
G04 Gerber Fmt 4.6, Leading zero omitted, Abs format (unit mm)*
G04 Created by KiCad (PCBNEW (5.1.5-0-10_14)) date 2020-03-20 22:46:17*
%MOMM*%
%LPD*%
G04 APERTURE LIST*
%ADD10C,0.100000*%
%ADD11C,0.150000*%
%ADD12C,0.300000*%
%ADD13C,0.400000*%
%ADD14C,2.200000*%
%ADD15R,1.600000X1.600000*%
%ADD16O,1.600000X1.600000*%
%ADD17C,2.000000*%
%ADD18R,3.200000X2.000000*%
%ADD19R,2.000000X2.000000*%
%ADD20C,1.600000*%
%ADD21C,0.250000*%
G04 APERTURE END LIST*
D10*
D11*
X743600000Y-514800000D02*
X743600000Y-546800000D01*
X851600000Y-546800000D01*
X851600000Y-514800000D01*
X743600000Y-514800000D01*
D10*
D11*
X10000000Y-10000000D02*
X10000000Y-548800000D01*
X853600000Y-548800000D01*
X853600000Y-10000000D01*
X10000000Y-10000000D01*
D10*
D11*
X12000000Y-12000000D02*
X12000000Y-546800000D01*
X851600000Y-546800000D01*
X851600000Y-12000000D01*
X12000000Y-12000000D01*
D10*
D11*
X60000000Y-12000000D02*
X60000000Y-10000000D01*
D10*
D11*
X110000000Y-12000000D02*
X110000000Y-10000000D01*
D10*
D11*
X160000000Y-12000000D02*
X160000000Y-10000000D01*
D10*
D11*
X210000000Y-12000000D02*
X210000000Y-10000000D01*
D10*
D11*
X260000000Y-12000000D02*
X260000000Y-10000000D01*
D10*
D11*
X310000000Y-12000000D02*
X310000000Y-10000000D01*
D10*
D11*
X360000000Y-12000000D02*
X360000000Y-10000000D01*
D10*
D11*
X410000000Y-12000000D02*
X410000000Y-10000000D01*
D10*
D11*
X460000000Y-12000000D02*
X460000000Y-10000000D01*
D10*
D11*
X510000000Y-12000000D02*
X510000000Y-10000000D01*
D10*
D11*
X560000000Y-12000000D02*
X560000000Y-10000000D01*
D10*
D11*
X610000000Y-12000000D02*
X610000000Y-10000000D01*
D10*
D11*
X660000000Y-12000000D02*
X660000000Y-10000000D01*
D10*
D11*
X710000000Y-12000000D02*
X710000000Y-10000000D01*
D10*
D11*
X760000000Y-12000000D02*
X760000000Y-10000000D01*
D10*
D11*
X810000000Y-12000000D02*
X810000000Y-10000000D01*
D10*
D11*
X36065476Y-11588095D02*
X35322619Y-11588095D01*
X35694047Y-11588095D02*
X35694047Y-10288095D01*
X35570238Y-10473809D01*
X35446428Y-10597619D01*
X35322619Y-10659523D01*
D10*
D11*
X85322619Y-10411904D02*
X85384523Y-10350000D01*
X85508333Y-10288095D01*
X85817857Y-10288095D01*
X85941666Y-10350000D01*
X86003571Y-10411904D01*
X86065476Y-10535714D01*
X86065476Y-10659523D01*
X86003571Y-10845238D01*
X85260714Y-11588095D01*
X86065476Y-11588095D01*
D10*
D11*
X135260714Y-10288095D02*
X136065476Y-10288095D01*
X135632142Y-10783333D01*
X135817857Y-10783333D01*
X135941666Y-10845238D01*
X136003571Y-10907142D01*
X136065476Y-11030952D01*
X136065476Y-11340476D01*
X136003571Y-11464285D01*
X135941666Y-11526190D01*
X135817857Y-11588095D01*
X135446428Y-11588095D01*
X135322619Y-11526190D01*
X135260714Y-11464285D01*
D10*
D11*
X185941666Y-10721428D02*
X185941666Y-11588095D01*
X185632142Y-10226190D02*
X185322619Y-11154761D01*
X186127380Y-11154761D01*
D10*
D11*
X236003571Y-10288095D02*
X235384523Y-10288095D01*
X235322619Y-10907142D01*
X235384523Y-10845238D01*
X235508333Y-10783333D01*
X235817857Y-10783333D01*
X235941666Y-10845238D01*
X236003571Y-10907142D01*
X236065476Y-11030952D01*
X236065476Y-11340476D01*
X236003571Y-11464285D01*
X235941666Y-11526190D01*
X235817857Y-11588095D01*
X235508333Y-11588095D01*
X235384523Y-11526190D01*
X235322619Y-11464285D01*
D10*
D11*
X285941666Y-10288095D02*
X285694047Y-10288095D01*
X285570238Y-10350000D01*
X285508333Y-10411904D01*
X285384523Y-10597619D01*
X285322619Y-10845238D01*
X285322619Y-11340476D01*
X285384523Y-11464285D01*
X285446428Y-11526190D01*
X285570238Y-11588095D01*
X285817857Y-11588095D01*
X285941666Y-11526190D01*
X286003571Y-11464285D01*
X286065476Y-11340476D01*
X286065476Y-11030952D01*
X286003571Y-10907142D01*
X285941666Y-10845238D01*
X285817857Y-10783333D01*
X285570238Y-10783333D01*
X285446428Y-10845238D01*
X285384523Y-10907142D01*
X285322619Y-11030952D01*
D10*
D11*
X335260714Y-10288095D02*
X336127380Y-10288095D01*
X335570238Y-11588095D01*
D10*
D11*
X385570238Y-10845238D02*
X385446428Y-10783333D01*
X385384523Y-10721428D01*
X385322619Y-10597619D01*
X385322619Y-10535714D01*
X385384523Y-10411904D01*
X385446428Y-10350000D01*
X385570238Y-10288095D01*
X385817857Y-10288095D01*
X385941666Y-10350000D01*
X386003571Y-10411904D01*
X386065476Y-10535714D01*
X386065476Y-10597619D01*
X386003571Y-10721428D01*
X385941666Y-10783333D01*
X385817857Y-10845238D01*
X385570238Y-10845238D01*
X385446428Y-10907142D01*
X385384523Y-10969047D01*
X385322619Y-11092857D01*
X385322619Y-11340476D01*
X385384523Y-11464285D01*
X385446428Y-11526190D01*
X385570238Y-11588095D01*
X385817857Y-11588095D01*
X385941666Y-11526190D01*
X386003571Y-11464285D01*
X386065476Y-11340476D01*
X386065476Y-11092857D01*
X386003571Y-10969047D01*
X385941666Y-10907142D01*
X385817857Y-10845238D01*
D10*
D11*
X435446428Y-11588095D02*
X435694047Y-11588095D01*
X435817857Y-11526190D01*
X435879761Y-11464285D01*
X436003571Y-11278571D01*
X436065476Y-11030952D01*
X436065476Y-10535714D01*
X436003571Y-10411904D01*
X435941666Y-10350000D01*
X435817857Y-10288095D01*
X435570238Y-10288095D01*
X435446428Y-10350000D01*
X435384523Y-10411904D01*
X435322619Y-10535714D01*
X435322619Y-10845238D01*
X435384523Y-10969047D01*
X435446428Y-11030952D01*
X435570238Y-11092857D01*
X435817857Y-11092857D01*
X435941666Y-11030952D01*
X436003571Y-10969047D01*
X436065476Y-10845238D01*
D10*
D11*
X486065476Y-11588095D02*
X485322619Y-11588095D01*
X485694047Y-11588095D02*
X485694047Y-10288095D01*
X485570238Y-10473809D01*
X485446428Y-10597619D01*
X485322619Y-10659523D01*
X486870238Y-10288095D02*
X486994047Y-10288095D01*
X487117857Y-10350000D01*
X487179761Y-10411904D01*
X487241666Y-10535714D01*
X487303571Y-10783333D01*
X487303571Y-11092857D01*
X487241666Y-11340476D01*
X487179761Y-11464285D01*
X487117857Y-11526190D01*
X486994047Y-11588095D01*
X486870238Y-11588095D01*
X486746428Y-11526190D01*
X486684523Y-11464285D01*
X486622619Y-11340476D01*
X486560714Y-11092857D01*
X486560714Y-10783333D01*
X486622619Y-10535714D01*
X486684523Y-10411904D01*
X486746428Y-10350000D01*
X486870238Y-10288095D01*
D10*
D11*
X536065476Y-11588095D02*
X535322619Y-11588095D01*
X535694047Y-11588095D02*
X535694047Y-10288095D01*
X535570238Y-10473809D01*
X535446428Y-10597619D01*
X535322619Y-10659523D01*
X537303571Y-11588095D02*
X536560714Y-11588095D01*
X536932142Y-11588095D02*
X536932142Y-10288095D01*
X536808333Y-10473809D01*
X536684523Y-10597619D01*
X536560714Y-10659523D01*
D10*
D11*
X586065476Y-11588095D02*
X585322619Y-11588095D01*
X585694047Y-11588095D02*
X585694047Y-10288095D01*
X585570238Y-10473809D01*
X585446428Y-10597619D01*
X585322619Y-10659523D01*
X586560714Y-10411904D02*
X586622619Y-10350000D01*
X586746428Y-10288095D01*
X587055952Y-10288095D01*
X587179761Y-10350000D01*
X587241666Y-10411904D01*
X587303571Y-10535714D01*
X587303571Y-10659523D01*
X587241666Y-10845238D01*
X586498809Y-11588095D01*
X587303571Y-11588095D01*
D10*
D11*
X636065476Y-11588095D02*
X635322619Y-11588095D01*
X635694047Y-11588095D02*
X635694047Y-10288095D01*
X635570238Y-10473809D01*
X635446428Y-10597619D01*
X635322619Y-10659523D01*
X636498809Y-10288095D02*
X637303571Y-10288095D01*
X636870238Y-10783333D01*
X637055952Y-10783333D01*
X637179761Y-10845238D01*
X637241666Y-10907142D01*
X637303571Y-11030952D01*
X637303571Y-11340476D01*
X637241666Y-11464285D01*
X637179761Y-11526190D01*
X637055952Y-11588095D01*
X636684523Y-11588095D01*
X636560714Y-11526190D01*
X636498809Y-11464285D01*
D10*
D11*
X686065476Y-11588095D02*
X685322619Y-11588095D01*
X685694047Y-11588095D02*
X685694047Y-10288095D01*
X685570238Y-10473809D01*
X685446428Y-10597619D01*
X685322619Y-10659523D01*
X687179761Y-10721428D02*
X687179761Y-11588095D01*
X686870238Y-10226190D02*
X686560714Y-11154761D01*
X687365476Y-11154761D01*
D10*
D11*
X736065476Y-11588095D02*
X735322619Y-11588095D01*
X735694047Y-11588095D02*
X735694047Y-10288095D01*
X735570238Y-10473809D01*
X735446428Y-10597619D01*
X735322619Y-10659523D01*
X737241666Y-10288095D02*
X736622619Y-10288095D01*
X736560714Y-10907142D01*
X736622619Y-10845238D01*
X736746428Y-10783333D01*
X737055952Y-10783333D01*
X737179761Y-10845238D01*
X737241666Y-10907142D01*
X737303571Y-11030952D01*
X737303571Y-11340476D01*
X737241666Y-11464285D01*
X737179761Y-11526190D01*
X737055952Y-11588095D01*
X736746428Y-11588095D01*
X736622619Y-11526190D01*
X736560714Y-11464285D01*
D10*
D11*
X786065476Y-11588095D02*
X785322619Y-11588095D01*
X785694047Y-11588095D02*
X785694047Y-10288095D01*
X785570238Y-10473809D01*
X785446428Y-10597619D01*
X785322619Y-10659523D01*
X787179761Y-10288095D02*
X786932142Y-10288095D01*
X786808333Y-10350000D01*
X786746428Y-10411904D01*
X786622619Y-10597619D01*
X786560714Y-10845238D01*
X786560714Y-11340476D01*
X786622619Y-11464285D01*
X786684523Y-11526190D01*
X786808333Y-11588095D01*
X787055952Y-11588095D01*
X787179761Y-11526190D01*
X787241666Y-11464285D01*
X787303571Y-11340476D01*
X787303571Y-11030952D01*
X787241666Y-10907142D01*
X787179761Y-10845238D01*
X787055952Y-10783333D01*
X786808333Y-10783333D01*
X786684523Y-10845238D01*
X786622619Y-10907142D01*
X786560714Y-11030952D01*
D10*
D11*
X836065476Y-11588095D02*
X835322619Y-11588095D01*
X835694047Y-11588095D02*
X835694047Y-10288095D01*
X835570238Y-10473809D01*
X835446428Y-10597619D01*
X835322619Y-10659523D01*
X836498809Y-10288095D02*
X837365476Y-10288095D01*
X836808333Y-11588095D01*
D10*
D11*
X60000000Y-546800000D02*
X60000000Y-548800000D01*
D10*
D11*
X110000000Y-546800000D02*
X110000000Y-548800000D01*
D10*
D11*
X160000000Y-546800000D02*
X160000000Y-548800000D01*
D10*
D11*
X210000000Y-546800000D02*
X210000000Y-548800000D01*
D10*
D11*
X260000000Y-546800000D02*
X260000000Y-548800000D01*
D10*
D11*
X310000000Y-546800000D02*
X310000000Y-548800000D01*
D10*
D11*
X360000000Y-546800000D02*
X360000000Y-548800000D01*
D10*
D11*
X410000000Y-546800000D02*
X410000000Y-548800000D01*
D10*
D11*
X460000000Y-546800000D02*
X460000000Y-548800000D01*
D10*
D11*
X510000000Y-546800000D02*
X510000000Y-548800000D01*
D10*
D11*
X560000000Y-546800000D02*
X560000000Y-548800000D01*
D10*
D11*
X610000000Y-546800000D02*
X610000000Y-548800000D01*
D10*
D11*
X660000000Y-546800000D02*
X660000000Y-548800000D01*
D10*
D11*
X710000000Y-546800000D02*
X710000000Y-548800000D01*
D10*
D11*
X760000000Y-546800000D02*
X760000000Y-548800000D01*
D10*
D11*
X810000000Y-546800000D02*
X810000000Y-548800000D01*
D10*
D11*
X36065476Y-548388095D02*
X35322619Y-548388095D01*
X35694047Y-548388095D02*
X35694047Y-547088095D01*
X35570238Y-547273809D01*
X35446428Y-547397619D01*
X35322619Y-547459523D01*
D10*
D11*
X85322619Y-547211904D02*
X85384523Y-547150000D01*
X85508333Y-547088095D01*
X85817857Y-547088095D01*
X85941666Y-547150000D01*
X86003571Y-547211904D01*
X86065476Y-547335714D01*
X86065476Y-547459523D01*
X86003571Y-547645238D01*
X85260714Y-548388095D01*
X86065476Y-548388095D01*
D10*
D11*
X135260714Y-547088095D02*
X136065476Y-547088095D01*
X135632142Y-547583333D01*
X135817857Y-547583333D01*
X135941666Y-547645238D01*
X136003571Y-547707142D01*
X136065476Y-547830952D01*
X136065476Y-548140476D01*
X136003571Y-548264285D01*
X135941666Y-548326190D01*
X135817857Y-548388095D01*
X135446428Y-548388095D01*
X135322619Y-548326190D01*
X135260714Y-548264285D01*
D10*
D11*
X185941666Y-547521428D02*
X185941666Y-548388095D01*
X185632142Y-547026190D02*
X185322619Y-547954761D01*
X186127380Y-547954761D01*
D10*
D11*
X236003571Y-547088095D02*
X235384523Y-547088095D01*
X235322619Y-547707142D01*
X235384523Y-547645238D01*
X235508333Y-547583333D01*
X235817857Y-547583333D01*
X235941666Y-547645238D01*
X236003571Y-547707142D01*
X236065476Y-547830952D01*
X236065476Y-548140476D01*
X236003571Y-548264285D01*
X235941666Y-548326190D01*
X235817857Y-548388095D01*
X235508333Y-548388095D01*
X235384523Y-548326190D01*
X235322619Y-548264285D01*
D10*
D11*
X285941666Y-547088095D02*
X285694047Y-547088095D01*
X285570238Y-547150000D01*
X285508333Y-547211904D01*
X285384523Y-547397619D01*
X285322619Y-547645238D01*
X285322619Y-548140476D01*
X285384523Y-548264285D01*
X285446428Y-548326190D01*
X285570238Y-548388095D01*
X285817857Y-548388095D01*
X285941666Y-548326190D01*
X286003571Y-548264285D01*
X286065476Y-548140476D01*
X286065476Y-547830952D01*
X286003571Y-547707142D01*
X285941666Y-547645238D01*
X285817857Y-547583333D01*
X285570238Y-547583333D01*
X285446428Y-547645238D01*
X285384523Y-547707142D01*
X285322619Y-547830952D01*
D10*
D11*
X335260714Y-547088095D02*
X336127380Y-547088095D01*
X335570238Y-548388095D01*
D10*
D11*
X385570238Y-547645238D02*
X385446428Y-547583333D01*
X385384523Y-547521428D01*
X385322619Y-547397619D01*
X385322619Y-547335714D01*
X385384523Y-547211904D01*
X385446428Y-547150000D01*
X385570238Y-547088095D01*
X385817857Y-547088095D01*
X385941666Y-547150000D01*
X386003571Y-547211904D01*
X386065476Y-547335714D01*
X386065476Y-547397619D01*
X386003571Y-547521428D01*
X385941666Y-547583333D01*
X385817857Y-547645238D01*
X385570238Y-547645238D01*
X385446428Y-547707142D01*
X385384523Y-547769047D01*
X385322619Y-547892857D01*
X385322619Y-548140476D01*
X385384523Y-548264285D01*
X385446428Y-548326190D01*
X385570238Y-548388095D01*
X385817857Y-548388095D01*
X385941666Y-548326190D01*
X386003571Y-548264285D01*
X386065476Y-548140476D01*
X386065476Y-547892857D01*
X386003571Y-547769047D01*
X385941666Y-547707142D01*
X385817857Y-547645238D01*
D10*
D11*
X435446428Y-548388095D02*
X435694047Y-548388095D01*
X435817857Y-548326190D01*
X435879761Y-548264285D01*
X436003571Y-548078571D01*
X436065476Y-547830952D01*
X436065476Y-547335714D01*
X436003571Y-547211904D01*
X435941666Y-547150000D01*
X435817857Y-547088095D01*
X435570238Y-547088095D01*
X435446428Y-547150000D01*
X435384523Y-547211904D01*
X435322619Y-547335714D01*
X435322619Y-547645238D01*
X435384523Y-547769047D01*
X435446428Y-547830952D01*
X435570238Y-547892857D01*
X435817857Y-547892857D01*
X435941666Y-547830952D01*
X436003571Y-547769047D01*
X436065476Y-547645238D01*
D10*
D11*
X486065476Y-548388095D02*
X485322619Y-548388095D01*
X485694047Y-548388095D02*
X485694047Y-547088095D01*
X485570238Y-547273809D01*
X485446428Y-547397619D01*
X485322619Y-547459523D01*
X486870238Y-547088095D02*
X486994047Y-547088095D01*
X487117857Y-547150000D01*
X487179761Y-547211904D01*
X487241666Y-547335714D01*
X487303571Y-547583333D01*
X487303571Y-547892857D01*
X487241666Y-548140476D01*
X487179761Y-548264285D01*
X487117857Y-548326190D01*
X486994047Y-548388095D01*
X486870238Y-548388095D01*
X486746428Y-548326190D01*
X486684523Y-548264285D01*
X486622619Y-548140476D01*
X486560714Y-547892857D01*
X486560714Y-547583333D01*
X486622619Y-547335714D01*
X486684523Y-547211904D01*
X486746428Y-547150000D01*
X486870238Y-547088095D01*
D10*
D11*
X536065476Y-548388095D02*
X535322619Y-548388095D01*
X535694047Y-548388095D02*
X535694047Y-547088095D01*
X535570238Y-547273809D01*
X535446428Y-547397619D01*
X535322619Y-547459523D01*
X537303571Y-548388095D02*
X536560714Y-548388095D01*
X536932142Y-548388095D02*
X536932142Y-547088095D01*
X536808333Y-547273809D01*
X536684523Y-547397619D01*
X536560714Y-547459523D01*
D10*
D11*
X586065476Y-548388095D02*
X585322619Y-548388095D01*
X585694047Y-548388095D02*
X585694047Y-547088095D01*
X585570238Y-547273809D01*
X585446428Y-547397619D01*
X585322619Y-547459523D01*
X586560714Y-547211904D02*
X586622619Y-547150000D01*
X586746428Y-547088095D01*
X587055952Y-547088095D01*
X587179761Y-547150000D01*
X587241666Y-547211904D01*
X587303571Y-547335714D01*
X587303571Y-547459523D01*
X587241666Y-547645238D01*
X586498809Y-548388095D01*
X587303571Y-548388095D01*
D10*
D11*
X636065476Y-548388095D02*
X635322619Y-548388095D01*
X635694047Y-548388095D02*
X635694047Y-547088095D01*
X635570238Y-547273809D01*
X635446428Y-547397619D01*
X635322619Y-547459523D01*
X636498809Y-547088095D02*
X637303571Y-547088095D01*
X636870238Y-547583333D01*
X637055952Y-547583333D01*
X637179761Y-547645238D01*
X637241666Y-547707142D01*
X637303571Y-547830952D01*
X637303571Y-548140476D01*
X637241666Y-548264285D01*
X637179761Y-548326190D01*
X637055952Y-548388095D01*
X636684523Y-548388095D01*
X636560714Y-548326190D01*
X636498809Y-548264285D01*
D10*
D11*
X686065476Y-548388095D02*
X685322619Y-548388095D01*
X685694047Y-548388095D02*
X685694047Y-547088095D01*
X685570238Y-547273809D01*
X685446428Y-547397619D01*
X685322619Y-547459523D01*
X687179761Y-547521428D02*
X687179761Y-548388095D01*
X686870238Y-547026190D02*
X686560714Y-547954761D01*
X687365476Y-547954761D01*
D10*
D11*
X736065476Y-548388095D02*
X735322619Y-548388095D01*
X735694047Y-548388095D02*
X735694047Y-547088095D01*
X735570238Y-547273809D01*
X735446428Y-547397619D01*
X735322619Y-547459523D01*
X737241666Y-547088095D02*
X736622619Y-547088095D01*
X736560714Y-547707142D01*
X736622619Y-547645238D01*
X736746428Y-547583333D01*
X737055952Y-547583333D01*
X737179761Y-547645238D01*
X737241666Y-547707142D01*
X737303571Y-547830952D01*
X737303571Y-548140476D01*
X737241666Y-548264285D01*
X737179761Y-548326190D01*
X737055952Y-548388095D01*
X736746428Y-548388095D01*
X736622619Y-548326190D01*
X736560714Y-548264285D01*
D10*
D11*
X786065476Y-548388095D02*
X785322619Y-548388095D01*
X785694047Y-548388095D02*
X785694047Y-547088095D01*
X785570238Y-547273809D01*
X785446428Y-547397619D01*
X785322619Y-547459523D01*
X787179761Y-547088095D02*
X786932142Y-547088095D01*
X786808333Y-547150000D01*
X786746428Y-547211904D01*
X786622619Y-547397619D01*
X786560714Y-547645238D01*
X786560714Y-548140476D01*
X786622619Y-548264285D01*
X786684523Y-548326190D01*
X786808333Y-548388095D01*
X787055952Y-548388095D01*
X787179761Y-548326190D01*
X787241666Y-548264285D01*
X787303571Y-548140476D01*
X787303571Y-547830952D01*
X787241666Y-547707142D01*
X787179761Y-547645238D01*
X787055952Y-547583333D01*
X786808333Y-547583333D01*
X786684523Y-547645238D01*
X786622619Y-547707142D01*
X786560714Y-547830952D01*
D10*
D11*
X836065476Y-548388095D02*
X835322619Y-548388095D01*
X835694047Y-548388095D02*
X835694047Y-547088095D01*
X835570238Y-547273809D01*
X835446428Y-547397619D01*
X835322619Y-547459523D01*
X836498809Y-547088095D02*
X837365476Y-547088095D01*
X836808333Y-548388095D01*
D10*
D11*
X10000000Y-60000000D02*
X12000000Y-60000000D01*
D10*
D11*
X10000000Y-110000000D02*
X12000000Y-110000000D01*
D10*
D11*
X10000000Y-160000000D02*
X12000000Y-160000000D01*
D10*
D11*
X10000000Y-210000000D02*
X12000000Y-210000000D01*
D10*
D11*
X10000000Y-260000000D02*
X12000000Y-260000000D01*
D10*
D11*
X10000000Y-310000000D02*
X12000000Y-310000000D01*
D10*
D11*
X10000000Y-360000000D02*
X12000000Y-360000000D01*
D10*
D11*
X10000000Y-410000000D02*
X12000000Y-410000000D01*
D10*
D11*
X10000000Y-460000000D02*
X12000000Y-460000000D01*
D10*
D11*
X10000000Y-510000000D02*
X12000000Y-510000000D01*
D10*
D11*
X10690476Y-35216666D02*
X11309523Y-35216666D01*
X10566666Y-35588095D02*
X11000000Y-34288095D01*
X11433333Y-35588095D01*
D10*
D11*
X11092857Y-84907142D02*
X11278571Y-84969047D01*
X11340476Y-85030952D01*
X11402380Y-85154761D01*
X11402380Y-85340476D01*
X11340476Y-85464285D01*
X11278571Y-85526190D01*
X11154761Y-85588095D01*
X10659523Y-85588095D01*
X10659523Y-84288095D01*
X11092857Y-84288095D01*
X11216666Y-84350000D01*
X11278571Y-84411904D01*
X11340476Y-84535714D01*
X11340476Y-84659523D01*
X11278571Y-84783333D01*
X11216666Y-84845238D01*
X11092857Y-84907142D01*
X10659523Y-84907142D01*
D10*
D11*
X11402380Y-135464285D02*
X11340476Y-135526190D01*
X11154761Y-135588095D01*
X11030952Y-135588095D01*
X10845238Y-135526190D01*
X10721428Y-135402380D01*
X10659523Y-135278571D01*
X10597619Y-135030952D01*
X10597619Y-134845238D01*
X10659523Y-134597619D01*
X10721428Y-134473809D01*
X10845238Y-134350000D01*
X11030952Y-134288095D01*
X11154761Y-134288095D01*
X11340476Y-134350000D01*
X11402380Y-134411904D01*
D10*
D11*
X10659523Y-185588095D02*
X10659523Y-184288095D01*
X10969047Y-184288095D01*
X11154761Y-184350000D01*
X11278571Y-184473809D01*
X11340476Y-184597619D01*
X11402380Y-184845238D01*
X11402380Y-185030952D01*
X11340476Y-185278571D01*
X11278571Y-185402380D01*
X11154761Y-185526190D01*
X10969047Y-185588095D01*
X10659523Y-185588095D01*
D10*
D11*
X10721428Y-234907142D02*
X11154761Y-234907142D01*
X11340476Y-235588095D02*
X10721428Y-235588095D01*
X10721428Y-234288095D01*
X11340476Y-234288095D01*
D10*
D11*
X11185714Y-284907142D02*
X10752380Y-284907142D01*
X10752380Y-285588095D02*
X10752380Y-284288095D01*
X11371428Y-284288095D01*
D10*
D11*
X11340476Y-334350000D02*
X11216666Y-334288095D01*
X11030952Y-334288095D01*
X10845238Y-334350000D01*
X10721428Y-334473809D01*
X10659523Y-334597619D01*
X10597619Y-334845238D01*
X10597619Y-335030952D01*
X10659523Y-335278571D01*
X10721428Y-335402380D01*
X10845238Y-335526190D01*
X11030952Y-335588095D01*
X11154761Y-335588095D01*
X11340476Y-335526190D01*
X11402380Y-335464285D01*
X11402380Y-335030952D01*
X11154761Y-335030952D01*
D10*
D11*
X10628571Y-385588095D02*
X10628571Y-384288095D01*
X10628571Y-384907142D02*
X11371428Y-384907142D01*
X11371428Y-385588095D02*
X11371428Y-384288095D01*
D10*
D11*
X11000000Y-435588095D02*
X11000000Y-434288095D01*
D10*
D11*
X11185714Y-484288095D02*
X11185714Y-485216666D01*
X11123809Y-485402380D01*
X11000000Y-485526190D01*
X10814285Y-485588095D01*
X10690476Y-485588095D01*
D10*
D11*
X10659523Y-535588095D02*
X10659523Y-534288095D01*
X11402380Y-535588095D02*
X10845238Y-534845238D01*
X11402380Y-534288095D02*
X10659523Y-535030952D01*
D10*
D11*
X853600000Y-60000000D02*
X851600000Y-60000000D01*
D10*
D11*
X853600000Y-110000000D02*
X851600000Y-110000000D01*
D10*
D11*
X853600000Y-160000000D02*
X851600000Y-160000000D01*
D10*
D11*
X853600000Y-210000000D02*
X851600000Y-210000000D01*
D10*
D11*
X853600000Y-260000000D02*
X851600000Y-260000000D01*
D10*
D11*
X853600000Y-310000000D02*
X851600000Y-310000000D01*
D10*
D11*
X853600000Y-360000000D02*
X851600000Y-360000000D01*
D10*
D11*
X853600000Y-410000000D02*
X851600000Y-410000000D01*
D10*
D11*
X853600000Y-460000000D02*
X851600000Y-460000000D01*
D10*
D11*
X853600000Y-510000000D02*
X851600000Y-510000000D01*
D10*
D11*
X852290476Y-35216666D02*
X852909523Y-35216666D01*
X852166666Y-35588095D02*
X852600000Y-34288095D01*
X853033333Y-35588095D01*
D10*
D11*
X852692857Y-84907142D02*
X852878571Y-84969047D01*
X852940476Y-85030952D01*
X853002380Y-85154761D01*
X853002380Y-85340476D01*
X852940476Y-85464285D01*
X852878571Y-85526190D01*
X852754761Y-85588095D01*
X852259523Y-85588095D01*
X852259523Y-84288095D01*
X852692857Y-84288095D01*
X852816666Y-84350000D01*
X852878571Y-84411904D01*
X852940476Y-84535714D01*
X852940476Y-84659523D01*
X852878571Y-84783333D01*
X852816666Y-84845238D01*
X852692857Y-84907142D01*
X852259523Y-84907142D01*
D10*
D11*
X853002380Y-135464285D02*
X852940476Y-135526190D01*
X852754761Y-135588095D01*
X852630952Y-135588095D01*
X852445238Y-135526190D01*
X852321428Y-135402380D01*
X852259523Y-135278571D01*
X852197619Y-135030952D01*
X852197619Y-134845238D01*
X852259523Y-134597619D01*
X852321428Y-134473809D01*
X852445238Y-134350000D01*
X852630952Y-134288095D01*
X852754761Y-134288095D01*
X852940476Y-134350000D01*
X853002380Y-134411904D01*
D10*
D11*
X852259523Y-185588095D02*
X852259523Y-184288095D01*
X852569047Y-184288095D01*
X852754761Y-184350000D01*
X852878571Y-184473809D01*
X852940476Y-184597619D01*
X853002380Y-184845238D01*
X853002380Y-185030952D01*
X852940476Y-185278571D01*
X852878571Y-185402380D01*
X852754761Y-185526190D01*
X852569047Y-185588095D01*
X852259523Y-185588095D01*
D10*
D11*
X852321428Y-234907142D02*
X852754761Y-234907142D01*
X852940476Y-235588095D02*
X852321428Y-235588095D01*
X852321428Y-234288095D01*
X852940476Y-234288095D01*
D10*
D11*
X852785714Y-284907142D02*
X852352380Y-284907142D01*
X852352380Y-285588095D02*
X852352380Y-284288095D01*
X852971428Y-284288095D01*
D10*
D11*
X852940476Y-334350000D02*
X852816666Y-334288095D01*
X852630952Y-334288095D01*
X852445238Y-334350000D01*
X852321428Y-334473809D01*
X852259523Y-334597619D01*
X852197619Y-334845238D01*
X852197619Y-335030952D01*
X852259523Y-335278571D01*
X852321428Y-335402380D01*
X852445238Y-335526190D01*
X852630952Y-335588095D01*
X852754761Y-335588095D01*
X852940476Y-335526190D01*
X853002380Y-335464285D01*
X853002380Y-335030952D01*
X852754761Y-335030952D01*
D10*
D11*
X852228571Y-385588095D02*
X852228571Y-384288095D01*
X852228571Y-384907142D02*
X852971428Y-384907142D01*
X852971428Y-385588095D02*
X852971428Y-384288095D01*
D10*
D11*
X852600000Y-435588095D02*
X852600000Y-434288095D01*
D10*
D11*
X852785714Y-484288095D02*
X852785714Y-485216666D01*
X852723809Y-485402380D01*
X852600000Y-485526190D01*
X852414285Y-485588095D01*
X852290476Y-485588095D01*
D10*
D11*
X852259523Y-535588095D02*
X852259523Y-534288095D01*
X853002380Y-535588095D02*
X852445238Y-534845238D01*
X853002380Y-534288095D02*
X852259523Y-535030952D01*
D10*
D11*
X767032142Y-542578571D02*
X767032142Y-541078571D01*
X767389285Y-541078571D01*
X767603571Y-541150000D01*
X767746428Y-541292857D01*
X767817857Y-541435714D01*
X767889285Y-541721428D01*
X767889285Y-541935714D01*
X767817857Y-542221428D01*
X767746428Y-542364285D01*
X767603571Y-542507142D01*
X767389285Y-542578571D01*
X767032142Y-542578571D01*
X769175000Y-542578571D02*
X769175000Y-541792857D01*
X769103571Y-541650000D01*
X768960714Y-541578571D01*
X768675000Y-541578571D01*
X768532142Y-541650000D01*
X769175000Y-542507142D02*
X769032142Y-542578571D01*
X768675000Y-542578571D01*
X768532142Y-542507142D01*
X768460714Y-542364285D01*
X768460714Y-542221428D01*
X768532142Y-542078571D01*
X768675000Y-542007142D01*
X769032142Y-542007142D01*
X769175000Y-541935714D01*
X769675000Y-541578571D02*
X770246428Y-541578571D01*
X769889285Y-541078571D02*
X769889285Y-542364285D01*
X769960714Y-542507142D01*
X770103571Y-542578571D01*
X770246428Y-542578571D01*
X771317857Y-542507142D02*
X771175000Y-542578571D01*
X770889285Y-542578571D01*
X770746428Y-542507142D01*
X770675000Y-542364285D01*
X770675000Y-541792857D01*
X770746428Y-541650000D01*
X770889285Y-541578571D01*
X771175000Y-541578571D01*
X771317857Y-541650000D01*
X771389285Y-541792857D01*
X771389285Y-541935714D01*
X770675000Y-542078571D01*
X772032142Y-542435714D02*
X772103571Y-542507142D01*
X772032142Y-542578571D01*
X771960714Y-542507142D01*
X772032142Y-542435714D01*
X772032142Y-542578571D01*
X772032142Y-541650000D02*
X772103571Y-541721428D01*
X772032142Y-541792857D01*
X771960714Y-541721428D01*
X772032142Y-541650000D01*
X772032142Y-541792857D01*
D10*
D11*
X743600000Y-543300000D02*
X851600000Y-543300000D01*
D10*
D11*
X745032142Y-545378571D02*
X745032142Y-543878571D01*
X745889285Y-545378571D02*
X745246428Y-544521428D01*
X745889285Y-543878571D02*
X745032142Y-544735714D01*
X746532142Y-545378571D02*
X746532142Y-544378571D01*
X746532142Y-543878571D02*
X746460714Y-543950000D01*
X746532142Y-544021428D01*
X746603571Y-543950000D01*
X746532142Y-543878571D01*
X746532142Y-544021428D01*
X748103571Y-545235714D02*
X748032142Y-545307142D01*
X747817857Y-545378571D01*
X747675000Y-545378571D01*
X747460714Y-545307142D01*
X747317857Y-545164285D01*
X747246428Y-545021428D01*
X747175000Y-544735714D01*
X747175000Y-544521428D01*
X747246428Y-544235714D01*
X747317857Y-544092857D01*
X747460714Y-543950000D01*
X747675000Y-543878571D01*
X747817857Y-543878571D01*
X748032142Y-543950000D01*
X748103571Y-544021428D01*
X749389285Y-545378571D02*
X749389285Y-544592857D01*
X749317857Y-544450000D01*
X749175000Y-544378571D01*
X748889285Y-544378571D01*
X748746428Y-544450000D01*
X749389285Y-545307142D02*
X749246428Y-545378571D01*
X748889285Y-545378571D01*
X748746428Y-545307142D01*
X748675000Y-545164285D01*
X748675000Y-545021428D01*
X748746428Y-544878571D01*
X748889285Y-544807142D01*
X749246428Y-544807142D01*
X749389285Y-544735714D01*
X750746428Y-545378571D02*
X750746428Y-543878571D01*
X750746428Y-545307142D02*
X750603571Y-545378571D01*
X750317857Y-545378571D01*
X750175000Y-545307142D01*
X750103571Y-545235714D01*
X750032142Y-545092857D01*
X750032142Y-544664285D01*
X750103571Y-544521428D01*
X750175000Y-544450000D01*
X750317857Y-544378571D01*
X750603571Y-544378571D01*
X750746428Y-544450000D01*
X752603571Y-544592857D02*
X753103571Y-544592857D01*
X753317857Y-545378571D02*
X752603571Y-545378571D01*
X752603571Y-543878571D01*
X753317857Y-543878571D01*
X753960714Y-545235714D02*
X754032142Y-545307142D01*
X753960714Y-545378571D01*
X753889285Y-545307142D01*
X753960714Y-545235714D01*
X753960714Y-545378571D01*
X754675000Y-545378571D02*
X754675000Y-543878571D01*
X755032142Y-543878571D01*
X755246428Y-543950000D01*
X755389285Y-544092857D01*
X755460714Y-544235714D01*
X755532142Y-544521428D01*
X755532142Y-544735714D01*
X755460714Y-545021428D01*
X755389285Y-545164285D01*
X755246428Y-545307142D01*
X755032142Y-545378571D01*
X754675000Y-545378571D01*
X756175000Y-545235714D02*
X756246428Y-545307142D01*
X756175000Y-545378571D01*
X756103571Y-545307142D01*
X756175000Y-545235714D01*
X756175000Y-545378571D01*
X756817857Y-544950000D02*
X757532142Y-544950000D01*
X756675000Y-545378571D02*
X757175000Y-543878571D01*
X757675000Y-545378571D01*
X758175000Y-545235714D02*
X758246428Y-545307142D01*
X758175000Y-545378571D01*
X758103571Y-545307142D01*
X758175000Y-545235714D01*
X758175000Y-545378571D01*
X761175000Y-545378571D02*
X761175000Y-543878571D01*
X761317857Y-544807142D02*
X761746428Y-545378571D01*
X761746428Y-544378571D02*
X761175000Y-544950000D01*
X762389285Y-545378571D02*
X762389285Y-544378571D01*
X762389285Y-543878571D02*
X762317857Y-543950000D01*
X762389285Y-544021428D01*
X762460714Y-543950000D01*
X762389285Y-543878571D01*
X762389285Y-544021428D01*
X763746428Y-545307142D02*
X763603571Y-545378571D01*
X763317857Y-545378571D01*
X763175000Y-545307142D01*
X763103571Y-545235714D01*
X763032142Y-545092857D01*
X763032142Y-544664285D01*
X763103571Y-544521428D01*
X763175000Y-544450000D01*
X763317857Y-544378571D01*
X763603571Y-544378571D01*
X763746428Y-544450000D01*
X765032142Y-545378571D02*
X765032142Y-544592857D01*
X764960714Y-544450000D01*
X764817857Y-544378571D01*
X764532142Y-544378571D01*
X764389285Y-544450000D01*
X765032142Y-545307142D02*
X764889285Y-545378571D01*
X764532142Y-545378571D01*
X764389285Y-545307142D01*
X764317857Y-545164285D01*
X764317857Y-545021428D01*
X764389285Y-544878571D01*
X764532142Y-544807142D01*
X764889285Y-544807142D01*
X765032142Y-544735714D01*
X766389285Y-545378571D02*
X766389285Y-543878571D01*
X766389285Y-545307142D02*
X766246428Y-545378571D01*
X765960714Y-545378571D01*
X765817857Y-545307142D01*
X765746428Y-545235714D01*
X765675000Y-545092857D01*
X765675000Y-544664285D01*
X765746428Y-544521428D01*
X765817857Y-544450000D01*
X765960714Y-544378571D01*
X766246428Y-544378571D01*
X766389285Y-544450000D01*
X768675000Y-545950000D02*
X768603571Y-545878571D01*
X768460714Y-545664285D01*
X768389285Y-545521428D01*
X768317857Y-545307142D01*
X768246428Y-544950000D01*
X768246428Y-544664285D01*
X768317857Y-544307142D01*
X768389285Y-544092857D01*
X768460714Y-543950000D01*
X768603571Y-543735714D01*
X768675000Y-543664285D01*
X769960714Y-543878571D02*
X769246428Y-543878571D01*
X769175000Y-544592857D01*
X769246428Y-544521428D01*
X769389285Y-544450000D01*
X769746428Y-544450000D01*
X769889285Y-544521428D01*
X769960714Y-544592857D01*
X770032142Y-544735714D01*
X770032142Y-545092857D01*
X769960714Y-545235714D01*
X769889285Y-545307142D01*
X769746428Y-545378571D01*
X769389285Y-545378571D01*
X769246428Y-545307142D01*
X769175000Y-545235714D01*
X770675000Y-545235714D02*
X770746428Y-545307142D01*
X770675000Y-545378571D01*
X770603571Y-545307142D01*
X770675000Y-545235714D01*
X770675000Y-545378571D01*
X772175000Y-545378571D02*
X771317857Y-545378571D01*
X771746428Y-545378571D02*
X771746428Y-543878571D01*
X771603571Y-544092857D01*
X771460714Y-544235714D01*
X771317857Y-544307142D01*
X772817857Y-545235714D02*
X772889285Y-545307142D01*
X772817857Y-545378571D01*
X772746428Y-545307142D01*
X772817857Y-545235714D01*
X772817857Y-545378571D01*
X774246428Y-543878571D02*
X773532142Y-543878571D01*
X773460714Y-544592857D01*
X773532142Y-544521428D01*
X773675000Y-544450000D01*
X774032142Y-544450000D01*
X774175000Y-544521428D01*
X774246428Y-544592857D01*
X774317857Y-544735714D01*
X774317857Y-545092857D01*
X774246428Y-545235714D01*
X774175000Y-545307142D01*
X774032142Y-545378571D01*
X773675000Y-545378571D01*
X773532142Y-545307142D01*
X773460714Y-545235714D01*
X774960714Y-544807142D02*
X776103571Y-544807142D01*
X777103571Y-543878571D02*
X777246428Y-543878571D01*
X777389285Y-543950000D01*
X777460714Y-544021428D01*
X777532142Y-544164285D01*
X777603571Y-544450000D01*
X777603571Y-544807142D01*
X777532142Y-545092857D01*
X777460714Y-545235714D01*
X777389285Y-545307142D01*
X777246428Y-545378571D01*
X777103571Y-545378571D01*
X776960714Y-545307142D01*
X776889285Y-545235714D01*
X776817857Y-545092857D01*
X776746428Y-544807142D01*
X776746428Y-544450000D01*
X776817857Y-544164285D01*
X776889285Y-544021428D01*
X776960714Y-543950000D01*
X777103571Y-543878571D01*
X778246428Y-544807142D02*
X779389285Y-544807142D01*
X780889285Y-545378571D02*
X780032142Y-545378571D01*
X780460714Y-545378571D02*
X780460714Y-543878571D01*
X780317857Y-544092857D01*
X780175000Y-544235714D01*
X780032142Y-544307142D01*
X781817857Y-543878571D02*
X781960714Y-543878571D01*
X782103571Y-543950000D01*
X782175000Y-544021428D01*
X782246428Y-544164285D01*
X782317857Y-544450000D01*
X782317857Y-544807142D01*
X782246428Y-545092857D01*
X782175000Y-545235714D01*
X782103571Y-545307142D01*
X781960714Y-545378571D01*
X781817857Y-545378571D01*
X781675000Y-545307142D01*
X781603571Y-545235714D01*
X781532142Y-545092857D01*
X781460714Y-544807142D01*
X781460714Y-544450000D01*
X781532142Y-544164285D01*
X781603571Y-544021428D01*
X781675000Y-543950000D01*
X781817857Y-543878571D01*
X782603571Y-545521428D02*
X783746428Y-545521428D01*
X784889285Y-545378571D02*
X784032142Y-545378571D01*
X784460714Y-545378571D02*
X784460714Y-543878571D01*
X784317857Y-544092857D01*
X784175000Y-544235714D01*
X784032142Y-544307142D01*
X786175000Y-544378571D02*
X786175000Y-545378571D01*
X785817857Y-543807142D02*
X785460714Y-544878571D01*
X786389285Y-544878571D01*
X786817857Y-545950000D02*
X786889285Y-545878571D01*
X787032142Y-545664285D01*
X787103571Y-545521428D01*
X787175000Y-545307142D01*
X787246428Y-544950000D01*
X787246428Y-544664285D01*
X787175000Y-544307142D01*
X787103571Y-544092857D01*
X787032142Y-543950000D01*
X786889285Y-543735714D01*
X786817857Y-543664285D01*
D10*
D11*
X743600000Y-540300000D02*
X851600000Y-540300000D01*
D10*
D12*
X831009285Y-542578571D02*
X830509285Y-541864285D01*
X830152142Y-542578571D02*
X830152142Y-541078571D01*
X830723571Y-541078571D01*
X830866428Y-541150000D01*
X830937857Y-541221428D01*
X831009285Y-541364285D01*
X831009285Y-541578571D01*
X830937857Y-541721428D01*
X830866428Y-541792857D01*
X830723571Y-541864285D01*
X830152142Y-541864285D01*
X832223571Y-542507142D02*
X832080714Y-542578571D01*
X831795000Y-542578571D01*
X831652142Y-542507142D01*
X831580714Y-542364285D01*
X831580714Y-541792857D01*
X831652142Y-541650000D01*
X831795000Y-541578571D01*
X832080714Y-541578571D01*
X832223571Y-541650000D01*
X832295000Y-541792857D01*
X832295000Y-541935714D01*
X831580714Y-542078571D01*
X832795000Y-541578571D02*
X833152142Y-542578571D01*
X833509285Y-541578571D01*
X834080714Y-542435714D02*
X834152142Y-542507142D01*
X834080714Y-542578571D01*
X834009285Y-542507142D01*
X834080714Y-542435714D01*
X834080714Y-542578571D01*
X834080714Y-541650000D02*
X834152142Y-541721428D01*
X834080714Y-541792857D01*
X834009285Y-541721428D01*
X834080714Y-541650000D01*
X834080714Y-541792857D01*
D10*
D11*
X744960714Y-542507142D02*
X745175000Y-542578571D01*
X745532142Y-542578571D01*
X745675000Y-542507142D01*
X745746428Y-542435714D01*
X745817857Y-542292857D01*
X745817857Y-542150000D01*
X745746428Y-542007142D01*
X745675000Y-541935714D01*
X745532142Y-541864285D01*
X745246428Y-541792857D01*
X745103571Y-541721428D01*
X745032142Y-541650000D01*
X744960714Y-541507142D01*
X744960714Y-541364285D01*
X745032142Y-541221428D01*
X745103571Y-541150000D01*
X745246428Y-541078571D01*
X745603571Y-541078571D01*
X745817857Y-541150000D01*
X746460714Y-542578571D02*
X746460714Y-541578571D01*
X746460714Y-541078571D02*
X746389285Y-541150000D01*
X746460714Y-541221428D01*
X746532142Y-541150000D01*
X746460714Y-541078571D01*
X746460714Y-541221428D01*
X747032142Y-541578571D02*
X747817857Y-541578571D01*
X747032142Y-542578571D01*
X747817857Y-542578571D01*
X748960714Y-542507142D02*
X748817857Y-542578571D01*
X748532142Y-542578571D01*
X748389285Y-542507142D01*
X748317857Y-542364285D01*
X748317857Y-541792857D01*
X748389285Y-541650000D01*
X748532142Y-541578571D01*
X748817857Y-541578571D01*
X748960714Y-541650000D01*
X749032142Y-541792857D01*
X749032142Y-541935714D01*
X748317857Y-542078571D01*
X749675000Y-542435714D02*
X749746428Y-542507142D01*
X749675000Y-542578571D01*
X749603571Y-542507142D01*
X749675000Y-542435714D01*
X749675000Y-542578571D01*
X749675000Y-541650000D02*
X749746428Y-541721428D01*
X749675000Y-541792857D01*
X749603571Y-541721428D01*
X749675000Y-541650000D01*
X749675000Y-541792857D01*
X751532142Y-542578571D02*
X751532142Y-541078571D01*
X751889285Y-541078571D01*
X752103571Y-541150000D01*
X752246428Y-541292857D01*
X752317857Y-541435714D01*
X752389285Y-541721428D01*
X752389285Y-541935714D01*
X752317857Y-542221428D01*
X752246428Y-542364285D01*
X752103571Y-542507142D01*
X751889285Y-542578571D01*
X751532142Y-542578571D01*
D10*
D11*
X830032142Y-545378571D02*
X830032142Y-543878571D01*
X831389285Y-545378571D02*
X831389285Y-543878571D01*
X831389285Y-545307142D02*
X831246428Y-545378571D01*
X830960714Y-545378571D01*
X830817857Y-545307142D01*
X830746428Y-545235714D01*
X830675000Y-545092857D01*
X830675000Y-544664285D01*
X830746428Y-544521428D01*
X830817857Y-544450000D01*
X830960714Y-544378571D01*
X831246428Y-544378571D01*
X831389285Y-544450000D01*
X832103571Y-545235714D02*
X832175000Y-545307142D01*
X832103571Y-545378571D01*
X832032142Y-545307142D01*
X832103571Y-545235714D01*
X832103571Y-545378571D01*
X832103571Y-544450000D02*
X832175000Y-544521428D01*
X832103571Y-544592857D01*
X832032142Y-544521428D01*
X832103571Y-544450000D01*
X832103571Y-544592857D01*
X834746428Y-545378571D02*
X833889285Y-545378571D01*
X834317857Y-545378571D02*
X834317857Y-543878571D01*
X834175000Y-544092857D01*
X834032142Y-544235714D01*
X833889285Y-544307142D01*
X836460714Y-543807142D02*
X835175000Y-545735714D01*
X837746428Y-545378571D02*
X836889285Y-545378571D01*
X837317857Y-545378571D02*
X837317857Y-543878571D01*
X837175000Y-544092857D01*
X837032142Y-544235714D01*
X836889285Y-544307142D01*
D10*
D11*
X743600000Y-536300000D02*
X851600000Y-536300000D01*
D10*
D13*
X745312380Y-537004761D02*
X746455238Y-537004761D01*
X745633809Y-539004761D02*
X745883809Y-537004761D01*
X746871904Y-539004761D02*
X747038571Y-537671428D01*
X747121904Y-537004761D02*
X747014761Y-537100000D01*
X747098095Y-537195238D01*
X747205238Y-537100000D01*
X747121904Y-537004761D01*
X747098095Y-537195238D01*
X747705238Y-537671428D02*
X748467142Y-537671428D01*
X748074285Y-537004761D02*
X747860000Y-538719047D01*
X747931428Y-538909523D01*
X748110000Y-539004761D01*
X748300476Y-539004761D01*
X749252857Y-539004761D02*
X749074285Y-538909523D01*
X749002857Y-538719047D01*
X749217142Y-537004761D01*
X750788571Y-538909523D02*
X750586190Y-539004761D01*
X750205238Y-539004761D01*
X750026666Y-538909523D01*
X749955238Y-538719047D01*
X750050476Y-537957142D01*
X750169523Y-537766666D01*
X750371904Y-537671428D01*
X750752857Y-537671428D01*
X750931428Y-537766666D01*
X751002857Y-537957142D01*
X750979047Y-538147619D01*
X750002857Y-538338095D01*
X751752857Y-538814285D02*
X751836190Y-538909523D01*
X751729047Y-539004761D01*
X751645714Y-538909523D01*
X751752857Y-538814285D01*
X751729047Y-539004761D01*
X751883809Y-537766666D02*
X751967142Y-537861904D01*
X751860000Y-537957142D01*
X751776666Y-537861904D01*
X751883809Y-537766666D01*
X751860000Y-537957142D01*
D10*
D11*
X745532142Y-534392857D02*
X745032142Y-534392857D01*
X745032142Y-535178571D02*
X745032142Y-533678571D01*
X745746428Y-533678571D01*
X746317857Y-535178571D02*
X746317857Y-534178571D01*
X746317857Y-533678571D02*
X746246428Y-533750000D01*
X746317857Y-533821428D01*
X746389285Y-533750000D01*
X746317857Y-533678571D01*
X746317857Y-533821428D01*
X747246428Y-535178571D02*
X747103571Y-535107142D01*
X747032142Y-534964285D01*
X747032142Y-533678571D01*
X748389285Y-535107142D02*
X748246428Y-535178571D01*
X747960714Y-535178571D01*
X747817857Y-535107142D01*
X747746428Y-534964285D01*
X747746428Y-534392857D01*
X747817857Y-534250000D01*
X747960714Y-534178571D01*
X748246428Y-534178571D01*
X748389285Y-534250000D01*
X748460714Y-534392857D01*
X748460714Y-534535714D01*
X747746428Y-534678571D01*
X749103571Y-535035714D02*
X749175000Y-535107142D01*
X749103571Y-535178571D01*
X749032142Y-535107142D01*
X749103571Y-535035714D01*
X749103571Y-535178571D01*
X749103571Y-534250000D02*
X749175000Y-534321428D01*
X749103571Y-534392857D01*
X749032142Y-534321428D01*
X749103571Y-534250000D01*
X749103571Y-534392857D01*
X750960714Y-535178571D02*
X750960714Y-533678571D01*
X751817857Y-535178571D02*
X751175000Y-534321428D01*
X751817857Y-533678571D02*
X750960714Y-534535714D01*
X753032142Y-535107142D02*
X752889285Y-535178571D01*
X752603571Y-535178571D01*
X752460714Y-535107142D01*
X752389285Y-534964285D01*
X752389285Y-534392857D01*
X752460714Y-534250000D01*
X752603571Y-534178571D01*
X752889285Y-534178571D01*
X753032142Y-534250000D01*
X753103571Y-534392857D01*
X753103571Y-534535714D01*
X752389285Y-534678571D01*
X753603571Y-534178571D02*
X753960714Y-535178571D01*
X754317857Y-534178571D02*
X753960714Y-535178571D01*
X753817857Y-535535714D01*
X753746428Y-535607142D01*
X753603571Y-535678571D01*
X754889285Y-535178571D02*
X754889285Y-533678571D01*
X754889285Y-534250000D02*
X755032142Y-534178571D01*
X755317857Y-534178571D01*
X755460714Y-534250000D01*
X755532142Y-534321428D01*
X755603571Y-534464285D01*
X755603571Y-534892857D01*
X755532142Y-535035714D01*
X755460714Y-535107142D01*
X755317857Y-535178571D01*
X755032142Y-535178571D01*
X754889285Y-535107142D01*
X756460714Y-535178571D02*
X756317857Y-535107142D01*
X756246428Y-535035714D01*
X756175000Y-534892857D01*
X756175000Y-534464285D01*
X756246428Y-534321428D01*
X756317857Y-534250000D01*
X756460714Y-534178571D01*
X756675000Y-534178571D01*
X756817857Y-534250000D01*
X756889285Y-534321428D01*
X756960714Y-534464285D01*
X756960714Y-534892857D01*
X756889285Y-535035714D01*
X756817857Y-535107142D01*
X756675000Y-535178571D01*
X756460714Y-535178571D01*
X758246428Y-535178571D02*
X758246428Y-534392857D01*
X758175000Y-534250000D01*
X758032142Y-534178571D01*
X757746428Y-534178571D01*
X757603571Y-534250000D01*
X758246428Y-535107142D02*
X758103571Y-535178571D01*
X757746428Y-535178571D01*
X757603571Y-535107142D01*
X757532142Y-534964285D01*
X757532142Y-534821428D01*
X757603571Y-534678571D01*
X757746428Y-534607142D01*
X758103571Y-534607142D01*
X758246428Y-534535714D01*
X758960714Y-535178571D02*
X758960714Y-534178571D01*
X758960714Y-534464285D02*
X759032142Y-534321428D01*
X759103571Y-534250000D01*
X759246428Y-534178571D01*
X759389285Y-534178571D01*
X760532142Y-535178571D02*
X760532142Y-533678571D01*
X760532142Y-535107142D02*
X760389285Y-535178571D01*
X760103571Y-535178571D01*
X759960714Y-535107142D01*
X759889285Y-535035714D01*
X759817857Y-534892857D01*
X759817857Y-534464285D01*
X759889285Y-534321428D01*
X759960714Y-534250000D01*
X760103571Y-534178571D01*
X760389285Y-534178571D01*
X760532142Y-534250000D01*
X761246428Y-535178571D02*
X761246428Y-533678571D01*
X761817857Y-533678571D01*
X761960714Y-533750000D01*
X762032142Y-533821428D01*
X762103571Y-533964285D01*
X762103571Y-534178571D01*
X762032142Y-534321428D01*
X761960714Y-534392857D01*
X761817857Y-534464285D01*
X761246428Y-534464285D01*
X762746428Y-535178571D02*
X762746428Y-534178571D01*
X762746428Y-534464285D02*
X762817857Y-534321428D01*
X762889285Y-534250000D01*
X763032142Y-534178571D01*
X763175000Y-534178571D01*
X763889285Y-535178571D02*
X763746428Y-535107142D01*
X763675000Y-535035714D01*
X763603571Y-534892857D01*
X763603571Y-534464285D01*
X763675000Y-534321428D01*
X763746428Y-534250000D01*
X763889285Y-534178571D01*
X764103571Y-534178571D01*
X764246428Y-534250000D01*
X764317857Y-534321428D01*
X764389285Y-534464285D01*
X764389285Y-534892857D01*
X764317857Y-535035714D01*
X764246428Y-535107142D01*
X764103571Y-535178571D01*
X763889285Y-535178571D01*
X765032142Y-534178571D02*
X765032142Y-535464285D01*
X764960714Y-535607142D01*
X764817857Y-535678571D01*
X764746428Y-535678571D01*
X765032142Y-533678571D02*
X764960714Y-533750000D01*
X765032142Y-533821428D01*
X765103571Y-533750000D01*
X765032142Y-533678571D01*
X765032142Y-533821428D01*
X766317857Y-535107142D02*
X766175000Y-535178571D01*
X765889285Y-535178571D01*
X765746428Y-535107142D01*
X765675000Y-534964285D01*
X765675000Y-534392857D01*
X765746428Y-534250000D01*
X765889285Y-534178571D01*
X766175000Y-534178571D01*
X766317857Y-534250000D01*
X766389285Y-534392857D01*
X766389285Y-534535714D01*
X765675000Y-534678571D01*
X767675000Y-535107142D02*
X767532142Y-535178571D01*
X767246428Y-535178571D01*
X767103571Y-535107142D01*
X767032142Y-535035714D01*
X766960714Y-534892857D01*
X766960714Y-534464285D01*
X767032142Y-534321428D01*
X767103571Y-534250000D01*
X767246428Y-534178571D01*
X767532142Y-534178571D01*
X767675000Y-534250000D01*
X768103571Y-534178571D02*
X768675000Y-534178571D01*
X768317857Y-533678571D02*
X768317857Y-534964285D01*
X768389285Y-535107142D01*
X768532142Y-535178571D01*
X768675000Y-535178571D01*
X769175000Y-535035714D02*
X769246428Y-535107142D01*
X769175000Y-535178571D01*
X769103571Y-535107142D01*
X769175000Y-535035714D01*
X769175000Y-535178571D01*
X769889285Y-535178571D02*
X769889285Y-533678571D01*
X770032142Y-534607142D02*
X770460714Y-535178571D01*
X770460714Y-534178571D02*
X769889285Y-534750000D01*
X771103571Y-535178571D02*
X771103571Y-534178571D01*
X771103571Y-533678571D02*
X771032142Y-533750000D01*
X771103571Y-533821428D01*
X771175000Y-533750000D01*
X771103571Y-533678571D01*
X771103571Y-533821428D01*
X772460714Y-535107142D02*
X772317857Y-535178571D01*
X772032142Y-535178571D01*
X771889285Y-535107142D01*
X771817857Y-535035714D01*
X771746428Y-534892857D01*
X771746428Y-534464285D01*
X771817857Y-534321428D01*
X771889285Y-534250000D01*
X772032142Y-534178571D01*
X772317857Y-534178571D01*
X772460714Y-534250000D01*
X773746428Y-535178571D02*
X773746428Y-534392857D01*
X773675000Y-534250000D01*
X773532142Y-534178571D01*
X773246428Y-534178571D01*
X773103571Y-534250000D01*
X773746428Y-535107142D02*
X773603571Y-535178571D01*
X773246428Y-535178571D01*
X773103571Y-535107142D01*
X773032142Y-534964285D01*
X773032142Y-534821428D01*
X773103571Y-534678571D01*
X773246428Y-534607142D01*
X773603571Y-534607142D01*
X773746428Y-534535714D01*
X775103571Y-535178571D02*
X775103571Y-533678571D01*
X775103571Y-535107142D02*
X774960714Y-535178571D01*
X774675000Y-535178571D01*
X774532142Y-535107142D01*
X774460714Y-535035714D01*
X774389285Y-534892857D01*
X774389285Y-534464285D01*
X774460714Y-534321428D01*
X774532142Y-534250000D01*
X774675000Y-534178571D01*
X774960714Y-534178571D01*
X775103571Y-534250000D01*
X775460714Y-535321428D02*
X776603571Y-535321428D01*
X776960714Y-534178571D02*
X776960714Y-535678571D01*
X776960714Y-534250000D02*
X777103571Y-534178571D01*
X777389285Y-534178571D01*
X777532142Y-534250000D01*
X777603571Y-534321428D01*
X777675000Y-534464285D01*
X777675000Y-534892857D01*
X777603571Y-535035714D01*
X777532142Y-535107142D01*
X777389285Y-535178571D01*
X777103571Y-535178571D01*
X776960714Y-535107142D01*
X778960714Y-535107142D02*
X778817857Y-535178571D01*
X778532142Y-535178571D01*
X778389285Y-535107142D01*
X778317857Y-535035714D01*
X778246428Y-534892857D01*
X778246428Y-534464285D01*
X778317857Y-534321428D01*
X778389285Y-534250000D01*
X778532142Y-534178571D01*
X778817857Y-534178571D01*
X778960714Y-534250000D01*
X779603571Y-535178571D02*
X779603571Y-533678571D01*
X779603571Y-534250000D02*
X779746428Y-534178571D01*
X780032142Y-534178571D01*
X780175000Y-534250000D01*
X780246428Y-534321428D01*
X780317857Y-534464285D01*
X780317857Y-534892857D01*
X780246428Y-535035714D01*
X780175000Y-535107142D01*
X780032142Y-535178571D01*
X779746428Y-535178571D01*
X779603571Y-535107142D01*
D10*
D11*
X743600000Y-530300000D02*
X851600000Y-530300000D01*
D10*
D11*
X744960714Y-532407142D02*
X745175000Y-532478571D01*
X745532142Y-532478571D01*
X745675000Y-532407142D01*
X745746428Y-532335714D01*
X745817857Y-532192857D01*
X745817857Y-532050000D01*
X745746428Y-531907142D01*
X745675000Y-531835714D01*
X745532142Y-531764285D01*
X745246428Y-531692857D01*
X745103571Y-531621428D01*
X745032142Y-531550000D01*
X744960714Y-531407142D01*
X744960714Y-531264285D01*
X745032142Y-531121428D01*
X745103571Y-531050000D01*
X745246428Y-530978571D01*
X745603571Y-530978571D01*
X745817857Y-531050000D01*
X746460714Y-532478571D02*
X746460714Y-530978571D01*
X747103571Y-532478571D02*
X747103571Y-531692857D01*
X747032142Y-531550000D01*
X746889285Y-531478571D01*
X746675000Y-531478571D01*
X746532142Y-531550000D01*
X746460714Y-531621428D01*
X748389285Y-532407142D02*
X748246428Y-532478571D01*
X747960714Y-532478571D01*
X747817857Y-532407142D01*
X747746428Y-532264285D01*
X747746428Y-531692857D01*
X747817857Y-531550000D01*
X747960714Y-531478571D01*
X748246428Y-531478571D01*
X748389285Y-531550000D01*
X748460714Y-531692857D01*
X748460714Y-531835714D01*
X747746428Y-531978571D01*
X749675000Y-532407142D02*
X749532142Y-532478571D01*
X749246428Y-532478571D01*
X749103571Y-532407142D01*
X749032142Y-532264285D01*
X749032142Y-531692857D01*
X749103571Y-531550000D01*
X749246428Y-531478571D01*
X749532142Y-531478571D01*
X749675000Y-531550000D01*
X749746428Y-531692857D01*
X749746428Y-531835714D01*
X749032142Y-531978571D01*
X750175000Y-531478571D02*
X750746428Y-531478571D01*
X750389285Y-530978571D02*
X750389285Y-532264285D01*
X750460714Y-532407142D01*
X750603571Y-532478571D01*
X750746428Y-532478571D01*
X751246428Y-532335714D02*
X751317857Y-532407142D01*
X751246428Y-532478571D01*
X751175000Y-532407142D01*
X751246428Y-532335714D01*
X751246428Y-532478571D01*
X751246428Y-531550000D02*
X751317857Y-531621428D01*
X751246428Y-531692857D01*
X751175000Y-531621428D01*
X751246428Y-531550000D01*
X751246428Y-531692857D01*
D10*
D11*
X763600000Y-540300000D02*
X763600000Y-543300000D01*
D10*
D11*
X827600000Y-540300000D02*
X827600000Y-546800000D01*
D14*
X50165000Y-125888750D03*
X43815000Y-128428750D03*
X69215000Y-49688750D03*
X62865000Y-52228750D03*
X24765000Y-52228750D03*
X31115000Y-49688750D03*
X31115000Y-23495000D03*
X24765000Y-26035000D03*
X59690000Y-23495000D03*
X53340000Y-26035000D03*
X78740000Y-23495000D03*
X72390000Y-26035000D03*
X97790000Y-23495000D03*
X91440000Y-26035000D03*
X116840000Y-23495000D03*
X110490000Y-26035000D03*
X150177500Y-23495000D03*
X143827500Y-26035000D03*
X169227500Y-23495000D03*
X162877500Y-26035000D03*
X188277500Y-23495000D03*
X181927500Y-26035000D03*
X200977500Y-26035000D03*
X207327500Y-23495000D03*
X234315000Y-26035000D03*
X240665000Y-23495000D03*
X253365000Y-26035000D03*
X259715000Y-23495000D03*
X272415000Y-26035000D03*
X278765000Y-23495000D03*
X291465000Y-26035000D03*
X297815000Y-23495000D03*
X34290000Y-109378750D03*
X40640000Y-106838750D03*
X265271250Y-109378750D03*
X271621250Y-106838750D03*
X279558750Y-90328750D03*
X285908750Y-87788750D03*
X286702500Y-71278750D03*
X293052500Y-68738750D03*
X281940000Y-52228750D03*
X288290000Y-49688750D03*
X250983750Y-128428750D03*
X257333750Y-125888750D03*
X227171250Y-128428750D03*
X233521250Y-125888750D03*
X84296250Y-128428750D03*
X90646250Y-125888750D03*
X155733750Y-128428750D03*
X162083750Y-125888750D03*
X31908750Y-90328750D03*
X38258750Y-87788750D03*
X29527500Y-71278750D03*
X35877500Y-68738750D03*
D15*
X38100000Y-33337500D03*
D16*
X38100000Y-25717500D03*
X19050000Y-52863750D03*
D15*
X19050000Y-45243750D03*
D16*
X19050000Y-71913750D03*
D15*
X19050000Y-64293750D03*
X19050000Y-83343750D03*
D16*
X19050000Y-90963750D03*
X19050000Y-110013750D03*
D15*
X19050000Y-102393750D03*
D16*
X19050000Y-129063750D03*
D15*
X19050000Y-121443750D03*
D16*
X47625000Y-25717500D03*
D15*
X47625000Y-33337500D03*
D16*
X38100000Y-52863750D03*
D15*
X38100000Y-45243750D03*
D16*
X47625000Y-71913750D03*
D15*
X47625000Y-64293750D03*
D16*
X52387500Y-90963750D03*
D15*
X52387500Y-83343750D03*
D16*
X38100000Y-129063750D03*
D15*
X38100000Y-121443750D03*
D16*
X66675000Y-25717500D03*
D15*
X66675000Y-33337500D03*
D16*
X57150000Y-52863750D03*
D15*
X57150000Y-45243750D03*
D16*
X66675000Y-71913750D03*
D15*
X66675000Y-64293750D03*
D16*
X71437500Y-90963750D03*
D15*
X71437500Y-83343750D03*
D16*
X61912500Y-110013750D03*
D15*
X61912500Y-102393750D03*
D16*
X57150000Y-129063750D03*
D15*
X57150000Y-121443750D03*
D16*
X85725000Y-25717500D03*
D15*
X85725000Y-33337500D03*
D16*
X76200000Y-52863750D03*
D15*
X76200000Y-45243750D03*
D16*
X85725000Y-71913750D03*
D15*
X85725000Y-64293750D03*
D16*
X90487500Y-90963750D03*
D15*
X90487500Y-83343750D03*
D16*
X80962500Y-110013750D03*
D15*
X80962500Y-102393750D03*
D16*
X76200000Y-129063750D03*
D15*
X76200000Y-121443750D03*
D16*
X104775000Y-25717500D03*
D15*
X104775000Y-33337500D03*
D16*
X95250000Y-52863750D03*
D15*
X95250000Y-45243750D03*
D16*
X104775000Y-71913750D03*
D15*
X104775000Y-64293750D03*
D16*
X109537500Y-90963750D03*
D15*
X109537500Y-83343750D03*
D16*
X100012500Y-110013750D03*
D15*
X100012500Y-102393750D03*
D16*
X138112500Y-25717500D03*
D15*
X138112500Y-33337500D03*
D16*
X114300000Y-52863750D03*
D15*
X114300000Y-45243750D03*
D16*
X123825000Y-71913750D03*
D15*
X123825000Y-64293750D03*
D16*
X128587500Y-90963750D03*
D15*
X128587500Y-83343750D03*
D16*
X119062500Y-110013750D03*
D15*
X119062500Y-102393750D03*
D16*
X157162500Y-25717500D03*
D15*
X157162500Y-33337500D03*
D16*
X133350000Y-52863750D03*
D15*
X133350000Y-45243750D03*
D16*
X142875000Y-71913750D03*
D15*
X142875000Y-64293750D03*
D16*
X147637500Y-90963750D03*
D15*
X147637500Y-83343750D03*
D16*
X138112500Y-110013750D03*
D15*
X138112500Y-102393750D03*
D16*
X138112500Y-129063750D03*
D15*
X138112500Y-121443750D03*
D16*
X176212500Y-25717500D03*
D15*
X176212500Y-33337500D03*
D16*
X152400000Y-52863750D03*
D15*
X152400000Y-45243750D03*
X161925000Y-64293750D03*
D16*
X161925000Y-71913750D03*
D15*
X166687500Y-83343750D03*
D16*
X166687500Y-90963750D03*
D15*
X157162500Y-102393750D03*
D16*
X157162500Y-110013750D03*
D15*
X195262500Y-33337500D03*
D16*
X195262500Y-25717500D03*
D15*
X171450000Y-45243750D03*
D16*
X171450000Y-52863750D03*
D15*
X180975000Y-64293750D03*
D16*
X180975000Y-71913750D03*
D15*
X185737500Y-83343750D03*
D16*
X185737500Y-90963750D03*
D15*
X176212500Y-102393750D03*
D16*
X176212500Y-110013750D03*
D15*
X228600000Y-33337500D03*
D16*
X228600000Y-25717500D03*
D15*
X190500000Y-45243750D03*
D16*
X190500000Y-52863750D03*
D15*
X200025000Y-64293750D03*
D16*
X200025000Y-71913750D03*
D15*
X204787500Y-83343750D03*
D16*
X204787500Y-90963750D03*
D15*
X195262500Y-102393750D03*
D16*
X195262500Y-110013750D03*
D15*
X221456250Y-121443750D03*
D16*
X221456250Y-129063750D03*
D15*
X247650000Y-33337500D03*
D16*
X247650000Y-25717500D03*
D15*
X209550000Y-45243750D03*
D16*
X209550000Y-52863750D03*
D15*
X219075000Y-64293750D03*
D16*
X219075000Y-71913750D03*
D15*
X223837500Y-83343750D03*
D16*
X223837500Y-90963750D03*
D15*
X214312500Y-102393750D03*
D16*
X214312500Y-110013750D03*
D15*
X242887500Y-121443750D03*
D16*
X242887500Y-129063750D03*
D15*
X266700000Y-33337500D03*
D16*
X266700000Y-25717500D03*
D15*
X228600000Y-45243750D03*
D16*
X228600000Y-52863750D03*
D15*
X238125000Y-64293750D03*
D16*
X238125000Y-71913750D03*
D15*
X242887500Y-83343750D03*
D16*
X242887500Y-90963750D03*
D15*
X233362500Y-102393750D03*
D16*
X233362500Y-110013750D03*
D15*
X273843750Y-128587500D03*
D16*
X273843750Y-136207500D03*
D15*
X300037500Y-38100000D03*
D16*
X292417500Y-38100000D03*
D15*
X247650000Y-45243750D03*
D16*
X247650000Y-52863750D03*
D15*
X257175000Y-64293750D03*
D16*
X257175000Y-71913750D03*
D15*
X257175000Y-101600000D03*
D16*
X257175000Y-109220000D03*
D15*
X292893750Y-128587500D03*
D16*
X292893750Y-136207500D03*
D15*
X290512500Y-45243750D03*
D16*
X282892500Y-45243750D03*
D15*
X280987500Y-64293750D03*
D16*
X280987500Y-71913750D03*
D15*
X266700000Y-83343750D03*
D16*
X266700000Y-90963750D03*
D15*
X290512500Y-107156250D03*
D16*
X290512500Y-114776250D03*
D15*
X311943750Y-128587500D03*
D16*
X311943750Y-136207500D03*
D15*
X309562500Y-38100000D03*
D16*
X309562500Y-30480000D03*
D14*
X31115000Y-125888750D03*
X24765000Y-128428750D03*
X50165000Y-49688750D03*
X43815000Y-52228750D03*
X59690000Y-68738750D03*
X53340000Y-71278750D03*
X64452500Y-87788750D03*
X58102500Y-90328750D03*
X78740000Y-68738750D03*
X72390000Y-71278750D03*
X83502500Y-87788750D03*
X77152500Y-90328750D03*
X73977500Y-106838750D03*
X67627500Y-109378750D03*
X69215000Y-125888750D03*
X62865000Y-128428750D03*
X88265000Y-49688750D03*
X81915000Y-52228750D03*
X97790000Y-68738750D03*
X91440000Y-71278750D03*
X102552500Y-87788750D03*
X96202500Y-90328750D03*
X93027500Y-106838750D03*
X86677500Y-109378750D03*
X107315000Y-49682501D03*
X100965000Y-52222501D03*
X116840000Y-68738750D03*
X110490000Y-71278750D03*
X121602500Y-87788750D03*
X115252500Y-90328750D03*
X112077500Y-106838750D03*
X105727500Y-109378750D03*
X126365000Y-49688750D03*
X120015000Y-52228750D03*
X135890000Y-68738750D03*
X129540000Y-71278750D03*
X140652500Y-87788750D03*
X134302500Y-90328750D03*
X131127500Y-106838750D03*
X124777500Y-109378750D03*
X145415000Y-49688750D03*
X139065000Y-52228750D03*
X154940000Y-68738750D03*
X148590000Y-71278750D03*
X159702500Y-87788750D03*
X153352500Y-90328750D03*
X150177500Y-106838750D03*
X143827500Y-109378750D03*
X164465000Y-49688750D03*
X158115000Y-52228750D03*
X173990000Y-68738750D03*
X167640000Y-71278750D03*
X172402500Y-90328750D03*
X178752500Y-87788750D03*
X162877500Y-109378750D03*
X169227500Y-106838750D03*
X177165000Y-52228750D03*
X183515000Y-49688750D03*
X186690000Y-71278750D03*
X193040000Y-68738750D03*
X191452500Y-90328750D03*
X197802500Y-87788750D03*
X181927500Y-109378750D03*
X188277500Y-106838750D03*
X196215000Y-52228750D03*
X202565000Y-49688750D03*
X205740000Y-71278750D03*
X212090000Y-68738750D03*
X210502500Y-90328750D03*
X216852500Y-87788750D03*
X200977500Y-109378750D03*
X207327500Y-106838750D03*
X215265000Y-52228750D03*
X221615000Y-49688750D03*
X224790000Y-71278750D03*
X231140000Y-68738750D03*
X229552500Y-90328750D03*
X235902500Y-87788750D03*
X220027500Y-109378750D03*
X226377500Y-106838750D03*
X234315000Y-52228750D03*
X240665000Y-49688750D03*
X243840000Y-71278750D03*
X250190000Y-68738750D03*
X248602500Y-90328750D03*
X254952500Y-87788750D03*
X239077500Y-109378750D03*
X245427500Y-106838750D03*
X279558750Y-135572500D03*
X285908750Y-133032500D03*
X253365000Y-52228750D03*
X259715000Y-49688750D03*
X262890000Y-71278750D03*
X269240000Y-68738750D03*
X298608750Y-135572500D03*
X304958750Y-133032500D03*
X298608750Y-116522500D03*
X304958750Y-113982500D03*
X317658750Y-135572500D03*
X324008750Y-133032500D03*
D17*
X314112500Y-25956250D03*
X314112500Y-30956250D03*
D18*
X321112500Y-22856250D03*
X321112500Y-34056250D03*
D17*
X328612500Y-25956250D03*
X328612500Y-28456250D03*
D19*
X328612500Y-30956250D03*
D20*
X313848750Y-57308750D03*
X313848750Y-59848750D03*
X313848750Y-62388750D03*
X313848750Y-64928750D03*
X313848750Y-67468750D03*
X313848750Y-70008750D03*
X313848750Y-72548750D03*
X313848750Y-75088750D03*
X313848750Y-77628750D03*
X313848750Y-80168750D03*
X313848750Y-82708750D03*
X313848750Y-85248750D03*
X313848750Y-87788750D03*
X313848750Y-90328750D03*
X316388750Y-90328750D03*
X318928750Y-90328750D03*
X321468750Y-90328750D03*
X324008750Y-90328750D03*
X326548750Y-90328750D03*
X329088750Y-90328750D03*
X329088750Y-87788750D03*
X329088750Y-85248750D03*
X329088750Y-82708750D03*
X329088750Y-80168750D03*
X329088750Y-77628750D03*
X329088750Y-75088750D03*
X329088750Y-72548750D03*
X329088750Y-70008750D03*
X329088750Y-67468750D03*
X329088750Y-64928750D03*
X329088750Y-62388750D03*
X329088750Y-59848750D03*
X329088750Y-57308750D03*
X326548750Y-59848750D03*
X326548750Y-85248750D03*
X326548750Y-82708750D03*
X324008750Y-85248750D03*
X324008750Y-82708750D03*
X321468750Y-85248750D03*
X321468750Y-82708750D03*
X318928750Y-85248750D03*
X318928750Y-82708750D03*
X316388750Y-85248750D03*
X316388750Y-82708750D03*
D21*
X38100000Y-40481250D02*
X38100000Y-45243750D01*
X38100000Y-40481250D02*
X47625000Y-30956250D01*
X290708748Y-30956250D02*
X309880000Y-50127502D01*
X47625000Y-30956250D02*
X290708748Y-30956250D01*
X309880000Y-73660000D02*
X313848750Y-77628750D01*
X309880000Y-50127502D02*
X309880000Y-73660000D01*
X57150000Y-40481250D02*
X57150000Y-45243750D01*
X291701252Y-35718750D02*
X307181250Y-51198748D01*
X307181250Y-51198748D02*
X307181250Y-73501250D01*
X57150000Y-40481250D02*
X61912500Y-35718750D01*
X61912500Y-35718750D02*
X291701252Y-35718750D01*
X307181250Y-73501250D02*
X313848750Y-80168750D01*
X304800000Y-59531250D02*
X304800000Y-73660000D01*
X76200000Y-40481250D02*
X76200000Y-45243750D01*
X292893750Y-47625000D02*
X304800000Y-59531250D01*
X292893750Y-42862500D02*
X292893750Y-47625000D01*
X288131250Y-38100000D02*
X292893750Y-42862500D01*
X78581250Y-38100000D02*
X288131250Y-38100000D01*
X76200000Y-40481250D02*
X78581250Y-38100000D01*
X304800000Y-73660000D02*
X313848750Y-82708750D01*
X95250000Y-42862500D02*
X95250000Y-45243750D01*
X95250000Y-42862500D02*
X97631250Y-40481250D01*
X97631250Y-40481250D02*
X281191502Y-40481250D01*
X281191502Y-40481250D02*
X302418750Y-61708498D01*
X302418750Y-61708498D02*
X302418750Y-73818750D01*
X302418750Y-73818750D02*
X313848750Y-85248750D01*
X123825000Y-61912500D02*
X123825000Y-64293750D01*
X288131250Y-57150000D02*
X300037500Y-69056250D01*
X123825000Y-61912500D02*
X128587500Y-57150000D01*
X128587500Y-57150000D02*
X288131250Y-57150000D01*
X300037500Y-73977500D02*
X313848750Y-87788750D01*
X300037500Y-69056250D02*
X300037500Y-73977500D01*
X285954002Y-59531250D02*
X297656250Y-71233498D01*
X142875000Y-61912500D02*
X142875000Y-64293750D01*
X145256250Y-59531250D02*
X285954002Y-59531250D01*
X297656250Y-71233498D02*
X297656250Y-74136250D01*
X297656250Y-74136250D02*
X313848750Y-90328750D01*
X142875000Y-61912500D02*
X145256250Y-59531250D01*
X278606250Y-76200000D02*
X171450000Y-76200000D01*
X171450000Y-76200000D02*
X166687500Y-80962500D01*
X295275000Y-92868750D02*
X278606250Y-76200000D01*
X166687500Y-80962500D02*
X166687500Y-83343750D01*
X326548750Y-92868750D02*
X295275000Y-92868750D01*
X328288751Y-73348749D02*
X329088750Y-72548750D01*
X327673751Y-73963749D02*
X328288751Y-73348749D01*
X327673751Y-91743749D02*
X327673751Y-73963749D01*
X326548750Y-92868750D02*
X327673751Y-91743749D01*
X188118750Y-95250000D02*
X328612500Y-95250000D01*
X180975000Y-102393750D02*
X188118750Y-95250000D01*
X180975000Y-102393750D02*
X176212500Y-102393750D01*
X330993750Y-92868750D02*
X330993750Y-89693750D01*
X330993750Y-89693750D02*
X329088750Y-87788750D01*
X328612500Y-95250000D02*
X330993750Y-92868750D01*
X200025000Y-102393750D02*
X195262500Y-102393750D01*
X204787500Y-97631250D02*
X200025000Y-102393750D01*
X333375000Y-85725000D02*
X333375000Y-95250000D01*
X333375000Y-95250000D02*
X330993750Y-97631250D01*
X330993750Y-97631250D02*
X204787500Y-97631250D01*
X329088750Y-85248750D02*
X332898750Y-85248750D01*
X332898750Y-85248750D02*
X333375000Y-85725000D01*
X247650000Y-121443750D02*
X242887500Y-121443750D01*
X247650000Y-121443750D02*
X328612500Y-121443750D01*
X328612500Y-121443750D02*
X335756250Y-114300000D01*
X332740000Y-82708750D02*
X329088750Y-82708750D01*
X335756250Y-85725000D02*
X332740000Y-82708750D01*
X335756250Y-114300000D02*
X335756250Y-85725000D01*
X329888749Y-76828751D02*
X329088750Y-77628750D01*
X330213751Y-76503749D02*
X329888749Y-76828751D01*
X330213751Y-72008749D02*
X330213751Y-76503749D01*
X329338753Y-71133751D02*
X330213751Y-72008749D01*
X321468750Y-64053752D02*
X328548749Y-71133751D01*
X328548749Y-71133751D02*
X329338753Y-71133751D01*
X321468750Y-59531250D02*
X321468750Y-64053752D01*
X300037500Y-38100000D02*
X321468750Y-59531250D01*
X31115000Y-49688750D02*
X288290000Y-49688750D01*
X35877500Y-68738750D02*
X293052500Y-68738750D01*
X38258750Y-87788750D02*
X285908750Y-87788750D01*
X40640000Y-106838750D02*
X271621250Y-106838750D01*
X284240002Y-106838750D02*
X271621250Y-106838750D01*
X291383752Y-113982500D02*
X284240002Y-106838750D01*
X304958750Y-113982500D02*
X291383752Y-113982500D01*
X31115000Y-125888750D02*
X257333750Y-125888750D01*
X257333750Y-125888750D02*
X261620000Y-125888750D01*
X268763750Y-133032500D02*
X324008750Y-133032500D01*
X261620000Y-125888750D02*
X268763750Y-133032500D01*
M02*
