0
SECTION
2
HEADER
9
$INSUNITS
70
4
9
$INSBASE
10
0.0
20
0.0
30
0.0
9
$EXTMIN
10
0
20
0
9
$EXTMAX
10
314.53749999999997
20
128.8
0
ENDSEC
0
SECTION
2
TABLES
0
TABLE
2
LTYPE
70
1
0
LTYPE
2
CONTINUOUS
70
64
3
Solid line
72
65
73
0
40
0.0
0
ENDTAB
0
TABLE
2
LAYER
70
1
0
LAYER
2
Layer1
70
64
62
7
6
CONTINUOUS
0
ENDTAB
0
TABLE
2
STYLE
70
0
0
ENDTAB
0
TABLE
2
VIEW
70
0
0
ENDTAB
0
ENDSEC
0
SECTION
2
BLOCKS
0
ENDSEC
0
SECTION
2
ENTITIES
0
POLYLINE
5
2bd
8
Layer1
66
1
10
0.0
20
0.0
30
0.0
70
1
0
VERTEX
5
2be
8
Layer1
10
0.0000
20
0.0000
30
0.0
0
VERTEX
5
2bf
8
Layer1
10
314.5375
20
0.0000
30
0.0
0
VERTEX
5
2c0
8
Layer1
10
314.5375
20
128.8000
30
0.0
0
VERTEX
5
2c1
8
Layer1
10
0.0000
20
128.8000
30
0.0
0
VERTEX
5
2c2
8
Layer1
10
0.0000
20
0.0000
30
0.0
0
SEQEND
5
2c3
8
Layer1
0
POLYLINE
5
2c4
8
Layer1
66
1
10
0.0
20
0.0
30
0.0
70
1
0
VERTEX
5
2c5
8
Layer1
10
19.0250
20
110.7750
30
0.0
0
VERTEX
5
2c6
8
Layer1
10
19.8250
20
110.7750
30
0.0
0
VERTEX
5
2c7
8
Layer1
10
19.8250
20
122.7750
30
0.0
0
VERTEX
5
2c8
8
Layer1
10
19.0250
20
122.7750
30
0.0
0
VERTEX
5
2c9
8
Layer1
10
19.0250
20
123.7750
30
0.0
0
VERTEX
5
2ca
8
Layer1
10
5.0250
20
123.7750
30
0.0
0
VERTEX
5
2cb
8
Layer1
10
5.0250
20
122.7750
30
0.0
0
VERTEX
5
2cc
8
Layer1
10
4.2250
20
122.7750
30
0.0
0
VERTEX
5
2cd
8
Layer1
10
4.2250
20
110.7750
30
0.0
0
VERTEX
5
2ce
8
Layer1
10
5.0250
20
110.7750
30
0.0
0
VERTEX
5
2cf
8
Layer1
10
5.0250
20
109.7750
30
0.0
0
VERTEX
5
2d0
8
Layer1
10
19.0250
20
109.7750
30
0.0
0
VERTEX
5
2d1
8
Layer1
10
19.0250
20
110.7750
30
0.0
0
SEQEND
5
2d2
8
Layer1
0
POLYLINE
5
2d3
8
Layer1
66
1
10
0.0
20
0.0
30
0.0
70
1
0
VERTEX
5
2d4
8
Layer1
10
47.6000
20
110.7750
30
0.0
0
VERTEX
5
2d5
8
Layer1
10
48.4000
20
110.7750
30
0.0
0
VERTEX
5
2d6
8
Layer1
10
48.4000
20
122.7750
30
0.0
0
VERTEX
5
2d7
8
Layer1
10
47.6000
20
122.7750
30
0.0
0
VERTEX
5
2d8
8
Layer1
10
47.6000
20
123.7750
30
0.0
0
VERTEX
5
2d9
8
Layer1
10
33.6000
20
123.7750
30
0.0
0
VERTEX
5
2da
8
Layer1
10
33.6000
20
122.7750
30
0.0
0
VERTEX
5
2db
8
Layer1
10
32.8000
20
122.7750
30
0.0
0
VERTEX
5
2dc
8
Layer1
10
32.8000
20
110.7750
30
0.0
0
VERTEX
5
2dd
8
Layer1
10
33.6000
20
110.7750
30
0.0
0
VERTEX
5
2de
8
Layer1
10
33.6000
20
109.7750
30
0.0
0
VERTEX
5
2df
8
Layer1
10
47.6000
20
109.7750
30
0.0
0
VERTEX
5
2e0
8
Layer1
10
47.6000
20
110.7750
30
0.0
0
SEQEND
5
2e1
8
Layer1
0
POLYLINE
5
2e2
8
Layer1
66
1
10
0.0
20
0.0
30
0.0
70
1
0
VERTEX
5
2e3
8
Layer1
10
66.6500
20
110.7750
30
0.0
0
VERTEX
5
2e4
8
Layer1
10
67.4500
20
110.7750
30
0.0
0
VERTEX
5
2e5
8
Layer1
10
67.4500
20
122.7750
30
0.0
0
VERTEX
5
2e6
8
Layer1
10
66.6500
20
122.7750
30
0.0
0
VERTEX
5
2e7
8
Layer1
10
66.6500
20
123.7750
30
0.0
0
VERTEX
5
2e8
8
Layer1
10
52.6500
20
123.7750
30
0.0
0
VERTEX
5
2e9
8
Layer1
10
52.6500
20
122.7750
30
0.0
0
VERTEX
5
2ea
8
Layer1
10
51.8500
20
122.7750
30
0.0
0
VERTEX
5
2eb
8
Layer1
10
51.8500
20
110.7750
30
0.0
0
VERTEX
5
2ec
8
Layer1
10
52.6500
20
110.7750
30
0.0
0
VERTEX
5
2ed
8
Layer1
10
52.6500
20
109.7750
30
0.0
0
VERTEX
5
2ee
8
Layer1
10
66.6500
20
109.7750
30
0.0
0
VERTEX
5
2ef
8
Layer1
10
66.6500
20
110.7750
30
0.0
0
SEQEND
5
2f0
8
Layer1
0
POLYLINE
5
2f1
8
Layer1
66
1
10
0.0
20
0.0
30
0.0
70
1
0
VERTEX
5
2f2
8
Layer1
10
85.7000
20
110.7750
30
0.0
0
VERTEX
5
2f3
8
Layer1
10
86.5000
20
110.7750
30
0.0
0
VERTEX
5
2f4
8
Layer1
10
86.5000
20
122.7750
30
0.0
0
VERTEX
5
2f5
8
Layer1
10
85.7000
20
122.7750
30
0.0
0
VERTEX
5
2f6
8
Layer1
10
85.7000
20
123.7750
30
0.0
0
VERTEX
5
2f7
8
Layer1
10
71.7000
20
123.7750
30
0.0
0
VERTEX
5
2f8
8
Layer1
10
71.7000
20
122.7750
30
0.0
0
VERTEX
5
2f9
8
Layer1
10
70.9000
20
122.7750
30
0.0
0
VERTEX
5
2fa
8
Layer1
10
70.9000
20
110.7750
30
0.0
0
VERTEX
5
2fb
8
Layer1
10
71.7000
20
110.7750
30
0.0
0
VERTEX
5
2fc
8
Layer1
10
71.7000
20
109.7750
30
0.0
0
VERTEX
5
2fd
8
Layer1
10
85.7000
20
109.7750
30
0.0
0
VERTEX
5
2fe
8
Layer1
10
85.7000
20
110.7750
30
0.0
0
SEQEND
5
2ff
8
Layer1
0
POLYLINE
5
300
8
Layer1
66
1
10
0.0
20
0.0
30
0.0
70
1
0
VERTEX
5
301
8
Layer1
10
104.7500
20
110.7750
30
0.0
0
VERTEX
5
302
8
Layer1
10
105.5500
20
110.7750
30
0.0
0
VERTEX
5
303
8
Layer1
10
105.5500
20
122.7750
30
0.0
0
VERTEX
5
304
8
Layer1
10
104.7500
20
122.7750
30
0.0
0
VERTEX
5
305
8
Layer1
10
104.7500
20
123.7750
30
0.0
0
VERTEX
5
306
8
Layer1
10
90.7500
20
123.7750
30
0.0
0
VERTEX
5
307
8
Layer1
10
90.7500
20
122.7750
30
0.0
0
VERTEX
5
308
8
Layer1
10
89.9500
20
122.7750
30
0.0
0
VERTEX
5
309
8
Layer1
10
89.9500
20
110.7750
30
0.0
0
VERTEX
5
30a
8
Layer1
10
90.7500
20
110.7750
30
0.0
0
VERTEX
5
30b
8
Layer1
10
90.7500
20
109.7750
30
0.0
0
VERTEX
5
30c
8
Layer1
10
104.7500
20
109.7750
30
0.0
0
VERTEX
5
30d
8
Layer1
10
104.7500
20
110.7750
30
0.0
0
SEQEND
5
30e
8
Layer1
0
POLYLINE
5
30f
8
Layer1
66
1
10
0.0
20
0.0
30
0.0
70
1
0
VERTEX
5
310
8
Layer1
10
138.0880
20
110.7750
30
0.0
0
VERTEX
5
311
8
Layer1
10
138.8880
20
110.7750
30
0.0
0
VERTEX
5
312
8
Layer1
10
138.8880
20
122.7750
30
0.0
0
VERTEX
5
313
8
Layer1
10
138.0880
20
122.7750
30
0.0
0
VERTEX
5
314
8
Layer1
10
138.0880
20
123.7750
30
0.0
0
VERTEX
5
315
8
Layer1
10
124.0880
20
123.7750
30
0.0
0
VERTEX
5
316
8
Layer1
10
124.0880
20
122.7750
30
0.0
0
VERTEX
5
317
8
Layer1
10
123.2880
20
122.7750
30
0.0
0
VERTEX
5
318
8
Layer1
10
123.2880
20
110.7750
30
0.0
0
VERTEX
5
319
8
Layer1
10
124.0880
20
110.7750
30
0.0
0
VERTEX
5
31a
8
Layer1
10
124.0880
20
109.7750
30
0.0
0
VERTEX
5
31b
8
Layer1
10
138.0880
20
109.7750
30
0.0
0
VERTEX
5
31c
8
Layer1
10
138.0880
20
110.7750
30
0.0
0
SEQEND
5
31d
8
Layer1
0
POLYLINE
5
31e
8
Layer1
66
1
10
0.0
20
0.0
30
0.0
70
1
0
VERTEX
5
31f
8
Layer1
10
157.1380
20
110.7750
30
0.0
0
VERTEX
5
320
8
Layer1
10
157.9380
20
110.7750
30
0.0
0
VERTEX
5
321
8
Layer1
10
157.9380
20
122.7750
30
0.0
0
VERTEX
5
322
8
Layer1
10
157.1380
20
122.7750
30
0.0
0
VERTEX
5
323
8
Layer1
10
157.1380
20
123.7750
30
0.0
0
VERTEX
5
324
8
Layer1
10
143.1380
20
123.7750
30
0.0
0
VERTEX
5
325
8
Layer1
10
143.1380
20
122.7750
30
0.0
0
VERTEX
5
326
8
Layer1
10
142.3380
20
122.7750
30
0.0
0
VERTEX
5
327
8
Layer1
10
142.3380
20
110.7750
30
0.0
0
VERTEX
5
328
8
Layer1
10
143.1380
20
110.7750
30
0.0
0
VERTEX
5
329
8
Layer1
10
143.1380
20
109.7750
30
0.0
0
VERTEX
5
32a
8
Layer1
10
157.1380
20
109.7750
30
0.0
0
VERTEX
5
32b
8
Layer1
10
157.1380
20
110.7750
30
0.0
0
SEQEND
5
32c
8
Layer1
0
POLYLINE
5
32d
8
Layer1
66
1
10
0.0
20
0.0
30
0.0
70
1
0
VERTEX
5
32e
8
Layer1
10
176.1880
20
110.7750
30
0.0
0
VERTEX
5
32f
8
Layer1
10
176.9880
20
110.7750
30
0.0
0
VERTEX
5
330
8
Layer1
10
176.9880
20
122.7750
30
0.0
0
VERTEX
5
331
8
Layer1
10
176.1880
20
122.7750
30
0.0
0
VERTEX
5
332
8
Layer1
10
176.1880
20
123.7750
30
0.0
0
VERTEX
5
333
8
Layer1
10
162.1880
20
123.7750
30
0.0
0
VERTEX
5
334
8
Layer1
10
162.1880
20
122.7750
30
0.0
0
VERTEX
5
335
8
Layer1
10
161.3880
20
122.7750
30
0.0
0
VERTEX
5
336
8
Layer1
10
161.3880
20
110.7750
30
0.0
0
VERTEX
5
337
8
Layer1
10
162.1880
20
110.7750
30
0.0
0
VERTEX
5
338
8
Layer1
10
162.1880
20
109.7750
30
0.0
0
VERTEX
5
339
8
Layer1
10
176.1880
20
109.7750
30
0.0
0
VERTEX
5
33a
8
Layer1
10
176.1880
20
110.7750
30
0.0
0
SEQEND
5
33b
8
Layer1
0
POLYLINE
5
33c
8
Layer1
66
1
10
0.0
20
0.0
30
0.0
70
1
0
VERTEX
5
33d
8
Layer1
10
195.2380
20
110.7750
30
0.0
0
VERTEX
5
33e
8
Layer1
10
196.0380
20
110.7750
30
0.0
0
VERTEX
5
33f
8
Layer1
10
196.0380
20
122.7750
30
0.0
0
VERTEX
5
340
8
Layer1
10
195.2380
20
122.7750
30
0.0
0
VERTEX
5
341
8
Layer1
10
195.2380
20
123.7750
30
0.0
0
VERTEX
5
342
8
Layer1
10
181.2380
20
123.7750
30
0.0
0
VERTEX
5
343
8
Layer1
10
181.2380
20
122.7750
30
0.0
0
VERTEX
5
344
8
Layer1
10
180.4380
20
122.7750
30
0.0
0
VERTEX
5
345
8
Layer1
10
180.4380
20
110.7750
30
0.0
0
VERTEX
5
346
8
Layer1
10
181.2380
20
110.7750
30
0.0
0
VERTEX
5
347
8
Layer1
10
181.2380
20
109.7750
30
0.0
0
VERTEX
5
348
8
Layer1
10
195.2380
20
109.7750
30
0.0
0
VERTEX
5
349
8
Layer1
10
195.2380
20
110.7750
30
0.0
0
SEQEND
5
34a
8
Layer1
0
POLYLINE
5
34b
8
Layer1
66
1
10
0.0
20
0.0
30
0.0
70
1
0
VERTEX
5
34c
8
Layer1
10
228.5750
20
110.7750
30
0.0
0
VERTEX
5
34d
8
Layer1
10
229.3750
20
110.7750
30
0.0
0
VERTEX
5
34e
8
Layer1
10
229.3750
20
122.7750
30
0.0
0
VERTEX
5
34f
8
Layer1
10
228.5750
20
122.7750
30
0.0
0
VERTEX
5
350
8
Layer1
10
228.5750
20
123.7750
30
0.0
0
VERTEX
5
351
8
Layer1
10
214.5750
20
123.7750
30
0.0
0
VERTEX
5
352
8
Layer1
10
214.5750
20
122.7750
30
0.0
0
VERTEX
5
353
8
Layer1
10
213.7750
20
122.7750
30
0.0
0
VERTEX
5
354
8
Layer1
10
213.7750
20
110.7750
30
0.0
0
VERTEX
5
355
8
Layer1
10
214.5750
20
110.7750
30
0.0
0
VERTEX
5
356
8
Layer1
10
214.5750
20
109.7750
30
0.0
0
VERTEX
5
357
8
Layer1
10
228.5750
20
109.7750
30
0.0
0
VERTEX
5
358
8
Layer1
10
228.5750
20
110.7750
30
0.0
0
SEQEND
5
359
8
Layer1
0
POLYLINE
5
35a
8
Layer1
66
1
10
0.0
20
0.0
30
0.0
70
1
0
VERTEX
5
35b
8
Layer1
10
247.6250
20
110.7750
30
0.0
0
VERTEX
5
35c
8
Layer1
10
248.4250
20
110.7750
30
0.0
0
VERTEX
5
35d
8
Layer1
10
248.4250
20
122.7750
30
0.0
0
VERTEX
5
35e
8
Layer1
10
247.6250
20
122.7750
30
0.0
0
VERTEX
5
35f
8
Layer1
10
247.6250
20
123.7750
30
0.0
0
VERTEX
5
360
8
Layer1
10
233.6250
20
123.7750
30
0.0
0
VERTEX
5
361
8
Layer1
10
233.6250
20
122.7750
30
0.0
0
VERTEX
5
362
8
Layer1
10
232.8250
20
122.7750
30
0.0
0
VERTEX
5
363
8
Layer1
10
232.8250
20
110.7750
30
0.0
0
VERTEX
5
364
8
Layer1
10
233.6250
20
110.7750
30
0.0
0
VERTEX
5
365
8
Layer1
10
233.6250
20
109.7750
30
0.0
0
VERTEX
5
366
8
Layer1
10
247.6250
20
109.7750
30
0.0
0
VERTEX
5
367
8
Layer1
10
247.6250
20
110.7750
30
0.0
0
SEQEND
5
368
8
Layer1
0
POLYLINE
5
369
8
Layer1
66
1
10
0.0
20
0.0
30
0.0
70
1
0
VERTEX
5
36a
8
Layer1
10
266.6750
20
110.7750
30
0.0
0
VERTEX
5
36b
8
Layer1
10
267.4750
20
110.7750
30
0.0
0
VERTEX
5
36c
8
Layer1
10
267.4750
20
122.7750
30
0.0
0
VERTEX
5
36d
8
Layer1
10
266.6750
20
122.7750
30
0.0
0
VERTEX
5
36e
8
Layer1
10
266.6750
20
123.7750
30
0.0
0
VERTEX
5
36f
8
Layer1
10
252.6750
20
123.7750
30
0.0
0
VERTEX
5
370
8
Layer1
10
252.6750
20
122.7750
30
0.0
0
VERTEX
5
371
8
Layer1
10
251.8750
20
122.7750
30
0.0
0
VERTEX
5
372
8
Layer1
10
251.8750
20
110.7750
30
0.0
0
VERTEX
5
373
8
Layer1
10
252.6750
20
110.7750
30
0.0
0
VERTEX
5
374
8
Layer1
10
252.6750
20
109.7750
30
0.0
0
VERTEX
5
375
8
Layer1
10
266.6750
20
109.7750
30
0.0
0
VERTEX
5
376
8
Layer1
10
266.6750
20
110.7750
30
0.0
0
SEQEND
5
377
8
Layer1
0
POLYLINE
5
378
8
Layer1
66
1
10
0.0
20
0.0
30
0.0
70
1
0
VERTEX
5
379
8
Layer1
10
285.7250
20
110.7750
30
0.0
0
VERTEX
5
37a
8
Layer1
10
286.5250
20
110.7750
30
0.0
0
VERTEX
5
37b
8
Layer1
10
286.5250
20
122.7750
30
0.0
0
VERTEX
5
37c
8
Layer1
10
285.7250
20
122.7750
30
0.0
0
VERTEX
5
37d
8
Layer1
10
285.7250
20
123.7750
30
0.0
0
VERTEX
5
37e
8
Layer1
10
271.7250
20
123.7750
30
0.0
0
VERTEX
5
37f
8
Layer1
10
271.7250
20
122.7750
30
0.0
0
VERTEX
5
380
8
Layer1
10
270.9250
20
122.7750
30
0.0
0
VERTEX
5
381
8
Layer1
10
270.9250
20
110.7750
30
0.0
0
VERTEX
5
382
8
Layer1
10
271.7250
20
110.7750
30
0.0
0
VERTEX
5
383
8
Layer1
10
271.7250
20
109.7750
30
0.0
0
VERTEX
5
384
8
Layer1
10
285.7250
20
109.7750
30
0.0
0
VERTEX
5
385
8
Layer1
10
285.7250
20
110.7750
30
0.0
0
SEQEND
5
386
8
Layer1
0
POLYLINE
5
387
8
Layer1
66
1
10
0.0
20
0.0
30
0.0
70
1
0
VERTEX
5
388
8
Layer1
10
309.5370
20
110.7750
30
0.0
0
VERTEX
5
389
8
Layer1
10
310.3380
20
110.7750
30
0.0
0
VERTEX
5
38a
8
Layer1
10
310.3380
20
122.7750
30
0.0
0
VERTEX
5
38b
8
Layer1
10
309.5370
20
122.7750
30
0.0
0
VERTEX
5
38c
8
Layer1
10
309.5370
20
123.7750
30
0.0
0
VERTEX
5
38d
8
Layer1
10
295.5370
20
123.7750
30
0.0
0
VERTEX
5
38e
8
Layer1
10
295.5370
20
122.7750
30
0.0
0
VERTEX
5
38f
8
Layer1
10
294.7370
20
122.7750
30
0.0
0
VERTEX
5
390
8
Layer1
10
294.7370
20
110.7750
30
0.0
0
VERTEX
5
391
8
Layer1
10
295.5370
20
110.7750
30
0.0
0
VERTEX
5
392
8
Layer1
10
295.5370
20
109.7750
30
0.0
0
VERTEX
5
393
8
Layer1
10
309.5370
20
109.7750
30
0.0
0
VERTEX
5
394
8
Layer1
10
309.5370
20
110.7750
30
0.0
0
SEQEND
5
395
8
Layer1
0
POLYLINE
5
396
8
Layer1
66
1
10
0.0
20
0.0
30
0.0
70
1
0
VERTEX
5
397
8
Layer1
10
19.0250
20
86.9630
30
0.0
0
VERTEX
5
398
8
Layer1
10
19.8250
20
86.9630
30
0.0
0
VERTEX
5
399
8
Layer1
10
19.8250
20
98.9630
30
0.0
0
VERTEX
5
39a
8
Layer1
10
19.0250
20
98.9630
30
0.0
0
VERTEX
5
39b
8
Layer1
10
19.0250
20
99.9630
30
0.0
0
VERTEX
5
39c
8
Layer1
10
5.0250
20
99.9630
30
0.0
0
VERTEX
5
39d
8
Layer1
10
5.0250
20
98.9630
30
0.0
0
VERTEX
5
39e
8
Layer1
10
4.2250
20
98.9630
30
0.0
0
VERTEX
5
39f
8
Layer1
10
4.2250
20
86.9630
30
0.0
0
VERTEX
5
3a0
8
Layer1
10
5.0250
20
86.9630
30
0.0
0
VERTEX
5
3a1
8
Layer1
10
5.0250
20
85.9630
30
0.0
0
VERTEX
5
3a2
8
Layer1
10
19.0250
20
85.9630
30
0.0
0
VERTEX
5
3a3
8
Layer1
10
19.0250
20
86.9630
30
0.0
0
SEQEND
5
3a4
8
Layer1
0
POLYLINE
5
3a5
8
Layer1
66
1
10
0.0
20
0.0
30
0.0
70
1
0
VERTEX
5
3a6
8
Layer1
10
38.0750
20
86.9630
30
0.0
0
VERTEX
5
3a7
8
Layer1
10
38.8750
20
86.9630
30
0.0
0
VERTEX
5
3a8
8
Layer1
10
38.8750
20
98.9630
30
0.0
0
VERTEX
5
3a9
8
Layer1
10
38.0750
20
98.9630
30
0.0
0
VERTEX
5
3aa
8
Layer1
10
38.0750
20
99.9630
30
0.0
0
VERTEX
5
3ab
8
Layer1
10
24.0750
20
99.9630
30
0.0
0
VERTEX
5
3ac
8
Layer1
10
24.0750
20
98.9630
30
0.0
0
VERTEX
5
3ad
8
Layer1
10
23.2750
20
98.9630
30
0.0
0
VERTEX
5
3ae
8
Layer1
10
23.2750
20
86.9630
30
0.0
0
VERTEX
5
3af
8
Layer1
10
24.0750
20
86.9630
30
0.0
0
VERTEX
5
3b0
8
Layer1
10
24.0750
20
85.9630
30
0.0
0
VERTEX
5
3b1
8
Layer1
10
38.0750
20
85.9630
30
0.0
0
VERTEX
5
3b2
8
Layer1
10
38.0750
20
86.9630
30
0.0
0
SEQEND
5
3b3
8
Layer1
0
POLYLINE
5
3b4
8
Layer1
66
1
10
0.0
20
0.0
30
0.0
70
1
0
VERTEX
5
3b5
8
Layer1
10
57.1250
20
86.9630
30
0.0
0
VERTEX
5
3b6
8
Layer1
10
57.9250
20
86.9630
30
0.0
0
VERTEX
5
3b7
8
Layer1
10
57.9250
20
98.9630
30
0.0
0
VERTEX
5
3b8
8
Layer1
10
57.1250
20
98.9630
30
0.0
0
VERTEX
5
3b9
8
Layer1
10
57.1250
20
99.9630
30
0.0
0
VERTEX
5
3ba
8
Layer1
10
43.1250
20
99.9630
30
0.0
0
VERTEX
5
3bb
8
Layer1
10
43.1250
20
98.9630
30
0.0
0
VERTEX
5
3bc
8
Layer1
10
42.3250
20
98.9630
30
0.0
0
VERTEX
5
3bd
8
Layer1
10
42.3250
20
86.9630
30
0.0
0
VERTEX
5
3be
8
Layer1
10
43.1250
20
86.9630
30
0.0
0
VERTEX
5
3bf
8
Layer1
10
43.1250
20
85.9630
30
0.0
0
VERTEX
5
3c0
8
Layer1
10
57.1250
20
85.9630
30
0.0
0
VERTEX
5
3c1
8
Layer1
10
57.1250
20
86.9630
30
0.0
0
SEQEND
5
3c2
8
Layer1
0
POLYLINE
5
3c3
8
Layer1
66
1
10
0.0
20
0.0
30
0.0
70
1
0
VERTEX
5
3c4
8
Layer1
10
76.1750
20
86.9630
30
0.0
0
VERTEX
5
3c5
8
Layer1
10
76.9750
20
86.9630
30
0.0
0
VERTEX
5
3c6
8
Layer1
10
76.9750
20
98.9630
30
0.0
0
VERTEX
5
3c7
8
Layer1
10
76.1750
20
98.9630
30
0.0
0
VERTEX
5
3c8
8
Layer1
10
76.1750
20
99.9630
30
0.0
0
VERTEX
5
3c9
8
Layer1
10
62.1750
20
99.9630
30
0.0
0
VERTEX
5
3ca
8
Layer1
10
62.1750
20
98.9630
30
0.0
0
VERTEX
5
3cb
8
Layer1
10
61.3750
20
98.9630
30
0.0
0
VERTEX
5
3cc
8
Layer1
10
61.3750
20
86.9630
30
0.0
0
VERTEX
5
3cd
8
Layer1
10
62.1750
20
86.9630
30
0.0
0
VERTEX
5
3ce
8
Layer1
10
62.1750
20
85.9630
30
0.0
0
VERTEX
5
3cf
8
Layer1
10
76.1750
20
85.9630
30
0.0
0
VERTEX
5
3d0
8
Layer1
10
76.1750
20
86.9630
30
0.0
0
SEQEND
5
3d1
8
Layer1
0
POLYLINE
5
3d2
8
Layer1
66
1
10
0.0
20
0.0
30
0.0
70
1
0
VERTEX
5
3d3
8
Layer1
10
95.2250
20
86.9630
30
0.0
0
VERTEX
5
3d4
8
Layer1
10
96.0250
20
86.9630
30
0.0
0
VERTEX
5
3d5
8
Layer1
10
96.0250
20
98.9630
30
0.0
0
VERTEX
5
3d6
8
Layer1
10
95.2250
20
98.9630
30
0.0
0
VERTEX
5
3d7
8
Layer1
10
95.2250
20
99.9630
30
0.0
0
VERTEX
5
3d8
8
Layer1
10
81.2250
20
99.9630
30
0.0
0
VERTEX
5
3d9
8
Layer1
10
81.2250
20
98.9630
30
0.0
0
VERTEX
5
3da
8
Layer1
10
80.4250
20
98.9630
30
0.0
0
VERTEX
5
3db
8
Layer1
10
80.4250
20
86.9630
30
0.0
0
VERTEX
5
3dc
8
Layer1
10
81.2250
20
86.9630
30
0.0
0
VERTEX
5
3dd
8
Layer1
10
81.2250
20
85.9630
30
0.0
0
VERTEX
5
3de
8
Layer1
10
95.2250
20
85.9630
30
0.0
0
VERTEX
5
3df
8
Layer1
10
95.2250
20
86.9630
30
0.0
0
SEQEND
5
3e0
8
Layer1
0
POLYLINE
5
3e1
8
Layer1
66
1
10
0.0
20
0.0
30
0.0
70
1
0
VERTEX
5
3e2
8
Layer1
10
114.2750
20
86.9630
30
0.0
0
VERTEX
5
3e3
8
Layer1
10
115.0750
20
86.9630
30
0.0
0
VERTEX
5
3e4
8
Layer1
10
115.0750
20
98.9630
30
0.0
0
VERTEX
5
3e5
8
Layer1
10
114.2750
20
98.9630
30
0.0
0
VERTEX
5
3e6
8
Layer1
10
114.2750
20
99.9630
30
0.0
0
VERTEX
5
3e7
8
Layer1
10
100.2750
20
99.9630
30
0.0
0
VERTEX
5
3e8
8
Layer1
10
100.2750
20
98.9630
30
0.0
0
VERTEX
5
3e9
8
Layer1
10
99.4750
20
98.9630
30
0.0
0
VERTEX
5
3ea
8
Layer1
10
99.4750
20
86.9630
30
0.0
0
VERTEX
5
3eb
8
Layer1
10
100.2750
20
86.9630
30
0.0
0
VERTEX
5
3ec
8
Layer1
10
100.2750
20
85.9630
30
0.0
0
VERTEX
5
3ed
8
Layer1
10
114.2750
20
85.9630
30
0.0
0
VERTEX
5
3ee
8
Layer1
10
114.2750
20
86.9630
30
0.0
0
SEQEND
5
3ef
8
Layer1
0
POLYLINE
5
3f0
8
Layer1
66
1
10
0.0
20
0.0
30
0.0
70
1
0
VERTEX
5
3f1
8
Layer1
10
133.3250
20
86.9630
30
0.0
0
VERTEX
5
3f2
8
Layer1
10
134.1250
20
86.9630
30
0.0
0
VERTEX
5
3f3
8
Layer1
10
134.1250
20
98.9630
30
0.0
0
VERTEX
5
3f4
8
Layer1
10
133.3250
20
98.9630
30
0.0
0
VERTEX
5
3f5
8
Layer1
10
133.3250
20
99.9630
30
0.0
0
VERTEX
5
3f6
8
Layer1
10
119.3250
20
99.9630
30
0.0
0
VERTEX
5
3f7
8
Layer1
10
119.3250
20
98.9630
30
0.0
0
VERTEX
5
3f8
8
Layer1
10
118.5250
20
98.9630
30
0.0
0
VERTEX
5
3f9
8
Layer1
10
118.5250
20
86.9630
30
0.0
0
VERTEX
5
3fa
8
Layer1
10
119.3250
20
86.9630
30
0.0
0
VERTEX
5
3fb
8
Layer1
10
119.3250
20
85.9630
30
0.0
0
VERTEX
5
3fc
8
Layer1
10
133.3250
20
85.9630
30
0.0
0
VERTEX
5
3fd
8
Layer1
10
133.3250
20
86.9630
30
0.0
0
SEQEND
5
3fe
8
Layer1
0
POLYLINE
5
3ff
8
Layer1
66
1
10
0.0
20
0.0
30
0.0
70
1
0
VERTEX
5
400
8
Layer1
10
152.3750
20
86.9630
30
0.0
0
VERTEX
5
401
8
Layer1
10
153.1750
20
86.9630
30
0.0
0
VERTEX
5
402
8
Layer1
10
153.1750
20
98.9630
30
0.0
0
VERTEX
5
403
8
Layer1
10
152.3750
20
98.9630
30
0.0
0
VERTEX
5
404
8
Layer1
10
152.3750
20
99.9630
30
0.0
0
VERTEX
5
405
8
Layer1
10
138.3750
20
99.9630
30
0.0
0
VERTEX
5
406
8
Layer1
10
138.3750
20
98.9630
30
0.0
0
VERTEX
5
407
8
Layer1
10
137.5750
20
98.9630
30
0.0
0
VERTEX
5
408
8
Layer1
10
137.5750
20
86.9630
30
0.0
0
VERTEX
5
409
8
Layer1
10
138.3750
20
86.9630
30
0.0
0
VERTEX
5
40a
8
Layer1
10
138.3750
20
85.9630
30
0.0
0
VERTEX
5
40b
8
Layer1
10
152.3750
20
85.9630
30
0.0
0
VERTEX
5
40c
8
Layer1
10
152.3750
20
86.9630
30
0.0
0
SEQEND
5
40d
8
Layer1
0
POLYLINE
5
40e
8
Layer1
66
1
10
0.0
20
0.0
30
0.0
70
1
0
VERTEX
5
40f
8
Layer1
10
171.4250
20
86.9630
30
0.0
0
VERTEX
5
410
8
Layer1
10
172.2250
20
86.9630
30
0.0
0
VERTEX
5
411
8
Layer1
10
172.2250
20
98.9630
30
0.0
0
VERTEX
5
412
8
Layer1
10
171.4250
20
98.9630
30
0.0
0
VERTEX
5
413
8
Layer1
10
171.4250
20
99.9630
30
0.0
0
VERTEX
5
414
8
Layer1
10
157.4250
20
99.9630
30
0.0
0
VERTEX
5
415
8
Layer1
10
157.4250
20
98.9630
30
0.0
0
VERTEX
5
416
8
Layer1
10
156.6250
20
98.9630
30
0.0
0
VERTEX
5
417
8
Layer1
10
156.6250
20
86.9630
30
0.0
0
VERTEX
5
418
8
Layer1
10
157.4250
20
86.9630
30
0.0
0
VERTEX
5
419
8
Layer1
10
157.4250
20
85.9630
30
0.0
0
VERTEX
5
41a
8
Layer1
10
171.4250
20
85.9630
30
0.0
0
VERTEX
5
41b
8
Layer1
10
171.4250
20
86.9630
30
0.0
0
SEQEND
5
41c
8
Layer1
0
POLYLINE
5
41d
8
Layer1
66
1
10
0.0
20
0.0
30
0.0
70
1
0
VERTEX
5
41e
8
Layer1
10
190.4750
20
86.9630
30
0.0
0
VERTEX
5
41f
8
Layer1
10
191.2750
20
86.9630
30
0.0
0
VERTEX
5
420
8
Layer1
10
191.2750
20
98.9630
30
0.0
0
VERTEX
5
421
8
Layer1
10
190.4750
20
98.9630
30
0.0
0
VERTEX
5
422
8
Layer1
10
190.4750
20
99.9630
30
0.0
0
VERTEX
5
423
8
Layer1
10
176.4750
20
99.9630
30
0.0
0
VERTEX
5
424
8
Layer1
10
176.4750
20
98.9630
30
0.0
0
VERTEX
5
425
8
Layer1
10
175.6750
20
98.9630
30
0.0
0
VERTEX
5
426
8
Layer1
10
175.6750
20
86.9630
30
0.0
0
VERTEX
5
427
8
Layer1
10
176.4750
20
86.9630
30
0.0
0
VERTEX
5
428
8
Layer1
10
176.4750
20
85.9630
30
0.0
0
VERTEX
5
429
8
Layer1
10
190.4750
20
85.9630
30
0.0
0
VERTEX
5
42a
8
Layer1
10
190.4750
20
86.9630
30
0.0
0
SEQEND
5
42b
8
Layer1
0
POLYLINE
5
42c
8
Layer1
66
1
10
0.0
20
0.0
30
0.0
70
1
0
VERTEX
5
42d
8
Layer1
10
209.5250
20
86.9630
30
0.0
0
VERTEX
5
42e
8
Layer1
10
210.3250
20
86.9630
30
0.0
0
VERTEX
5
42f
8
Layer1
10
210.3250
20
98.9630
30
0.0
0
VERTEX
5
430
8
Layer1
10
209.5250
20
98.9630
30
0.0
0
VERTEX
5
431
8
Layer1
10
209.5250
20
99.9630
30
0.0
0
VERTEX
5
432
8
Layer1
10
195.5250
20
99.9630
30
0.0
0
VERTEX
5
433
8
Layer1
10
195.5250
20
98.9630
30
0.0
0
VERTEX
5
434
8
Layer1
10
194.7250
20
98.9630
30
0.0
0
VERTEX
5
435
8
Layer1
10
194.7250
20
86.9630
30
0.0
0
VERTEX
5
436
8
Layer1
10
195.5250
20
86.9630
30
0.0
0
VERTEX
5
437
8
Layer1
10
195.5250
20
85.9630
30
0.0
0
VERTEX
5
438
8
Layer1
10
209.5250
20
85.9630
30
0.0
0
VERTEX
5
439
8
Layer1
10
209.5250
20
86.9630
30
0.0
0
SEQEND
5
43a
8
Layer1
0
POLYLINE
5
43b
8
Layer1
66
1
10
0.0
20
0.0
30
0.0
70
1
0
VERTEX
5
43c
8
Layer1
10
228.5750
20
86.9630
30
0.0
0
VERTEX
5
43d
8
Layer1
10
229.3750
20
86.9630
30
0.0
0
VERTEX
5
43e
8
Layer1
10
229.3750
20
98.9630
30
0.0
0
VERTEX
5
43f
8
Layer1
10
228.5750
20
98.9630
30
0.0
0
VERTEX
5
440
8
Layer1
10
228.5750
20
99.9630
30
0.0
0
VERTEX
5
441
8
Layer1
10
214.5750
20
99.9630
30
0.0
0
VERTEX
5
442
8
Layer1
10
214.5750
20
98.9630
30
0.0
0
VERTEX
5
443
8
Layer1
10
213.7750
20
98.9630
30
0.0
0
VERTEX
5
444
8
Layer1
10
213.7750
20
86.9630
30
0.0
0
VERTEX
5
445
8
Layer1
10
214.5750
20
86.9630
30
0.0
0
VERTEX
5
446
8
Layer1
10
214.5750
20
85.9630
30
0.0
0
VERTEX
5
447
8
Layer1
10
228.5750
20
85.9630
30
0.0
0
VERTEX
5
448
8
Layer1
10
228.5750
20
86.9630
30
0.0
0
SEQEND
5
449
8
Layer1
0
POLYLINE
5
44a
8
Layer1
66
1
10
0.0
20
0.0
30
0.0
70
1
0
VERTEX
5
44b
8
Layer1
10
247.6250
20
86.9630
30
0.0
0
VERTEX
5
44c
8
Layer1
10
248.4250
20
86.9630
30
0.0
0
VERTEX
5
44d
8
Layer1
10
248.4250
20
98.9630
30
0.0
0
VERTEX
5
44e
8
Layer1
10
247.6250
20
98.9630
30
0.0
0
VERTEX
5
44f
8
Layer1
10
247.6250
20
99.9630
30
0.0
0
VERTEX
5
450
8
Layer1
10
233.6250
20
99.9630
30
0.0
0
VERTEX
5
451
8
Layer1
10
233.6250
20
98.9630
30
0.0
0
VERTEX
5
452
8
Layer1
10
232.8250
20
98.9630
30
0.0
0
VERTEX
5
453
8
Layer1
10
232.8250
20
86.9630
30
0.0
0
VERTEX
5
454
8
Layer1
10
233.6250
20
86.9630
30
0.0
0
VERTEX
5
455
8
Layer1
10
233.6250
20
85.9630
30
0.0
0
VERTEX
5
456
8
Layer1
10
247.6250
20
85.9630
30
0.0
0
VERTEX
5
457
8
Layer1
10
247.6250
20
86.9630
30
0.0
0
SEQEND
5
458
8
Layer1
0
POLYLINE
5
459
8
Layer1
66
1
10
0.0
20
0.0
30
0.0
70
1
0
VERTEX
5
45a
8
Layer1
10
258.8000
20
86.1930
30
0.0
0
VERTEX
5
45b
8
Layer1
10
260.6250
20
86.1930
30
0.0
0
VERTEX
5
45c
8
Layer1
10
260.6250
20
86.9930
30
0.0
0
VERTEX
5
45d
8
Layer1
10
261.4000
20
86.9930
30
0.0
0
VERTEX
5
45e
8
Layer1
10
261.4000
20
86.9630
30
0.0
0
VERTEX
5
45f
8
Layer1
10
262.2000
20
86.9630
30
0.0
0
VERTEX
5
460
8
Layer1
10
262.2000
20
85.9630
30
0.0
0
VERTEX
5
461
8
Layer1
10
276.2000
20
85.9630
30
0.0
0
VERTEX
5
462
8
Layer1
10
276.2000
20
86.9630
30
0.0
0
VERTEX
5
463
8
Layer1
10
277.0000
20
86.9630
30
0.0
0
VERTEX
5
464
8
Layer1
10
277.0000
20
86.9930
30
0.0
0
VERTEX
5
465
8
Layer1
10
277.7750
20
86.9930
30
0.0
0
VERTEX
5
466
8
Layer1
10
277.7750
20
86.1930
30
0.0
0
VERTEX
5
467
8
Layer1
10
279.6000
20
86.1930
30
0.0
0
VERTEX
5
468
8
Layer1
10
279.6000
20
84.9920
30
0.0
0
VERTEX
5
469
8
Layer1
10
282.6000
20
84.9920
30
0.0
0
VERTEX
5
46a
8
Layer1
10
282.6000
20
86.1930
30
0.0
0
VERTEX
5
46b
8
Layer1
10
284.4250
20
86.1930
30
0.0
0
VERTEX
5
46c
8
Layer1
10
284.4250
20
92.4630
30
0.0
0
VERTEX
5
46d
8
Layer1
10
285.3000
20
92.4630
30
0.0
0
VERTEX
5
46e
8
Layer1
10
285.3000
20
95.2630
30
0.0
0
VERTEX
5
46f
8
Layer1
10
284.4250
20
95.2630
30
0.0
0
VERTEX
5
470
8
Layer1
10
284.4250
20
98.4930
30
0.0
0
VERTEX
5
471
8
Layer1
10
277.7750
20
98.4930
30
0.0
0
VERTEX
5
472
8
Layer1
10
277.7750
20
97.6930
30
0.0
0
VERTEX
5
473
8
Layer1
10
277.0000
20
97.6930
30
0.0
0
VERTEX
5
474
8
Layer1
10
277.0000
20
98.9630
30
0.0
0
VERTEX
5
475
8
Layer1
10
276.2000
20
98.9630
30
0.0
0
VERTEX
5
476
8
Layer1
10
276.2000
20
99.9630
30
0.0
0
VERTEX
5
477
8
Layer1
10
262.2000
20
99.9630
30
0.0
0
VERTEX
5
478
8
Layer1
10
262.2000
20
98.9630
30
0.0
0
VERTEX
5
479
8
Layer1
10
261.4000
20
98.9630
30
0.0
0
VERTEX
5
47a
8
Layer1
10
261.4000
20
97.6930
30
0.0
0
VERTEX
5
47b
8
Layer1
10
260.6250
20
97.6930
30
0.0
0
VERTEX
5
47c
8
Layer1
10
260.6250
20
98.4930
30
0.0
0
VERTEX
5
47d
8
Layer1
10
253.9750
20
98.4930
30
0.0
0
VERTEX
5
47e
8
Layer1
10
253.9750
20
95.2630
30
0.0
0
VERTEX
5
47f
8
Layer1
10
253.1000
20
95.2630
30
0.0
0
VERTEX
5
480
8
Layer1
10
253.1000
20
92.4630
30
0.0
0
VERTEX
5
481
8
Layer1
10
253.9750
20
92.4630
30
0.0
0
VERTEX
5
482
8
Layer1
10
253.9750
20
86.1930
30
0.0
0
VERTEX
5
483
8
Layer1
10
255.8000
20
86.1930
30
0.0
0
VERTEX
5
484
8
Layer1
10
255.8000
20
84.9920
30
0.0
0
VERTEX
5
485
8
Layer1
10
258.8000
20
84.9920
30
0.0
0
VERTEX
5
486
8
Layer1
10
258.8000
20
86.1930
30
0.0
0
SEQEND
5
487
8
Layer1
0
POLYLINE
5
488
8
Layer1
66
1
10
0.0
20
0.0
30
0.0
70
1
0
VERTEX
5
489
8
Layer1
10
23.7880
20
67.9130
30
0.0
0
VERTEX
5
48a
8
Layer1
10
24.5880
20
67.9130
30
0.0
0
VERTEX
5
48b
8
Layer1
10
24.5880
20
79.9130
30
0.0
0
VERTEX
5
48c
8
Layer1
10
23.7880
20
79.9130
30
0.0
0
VERTEX
5
48d
8
Layer1
10
23.7880
20
80.9130
30
0.0
0
VERTEX
5
48e
8
Layer1
10
9.7880
20
80.9130
30
0.0
0
VERTEX
5
48f
8
Layer1
10
9.7880
20
79.9130
30
0.0
0
VERTEX
5
490
8
Layer1
10
8.9880
20
79.9130
30
0.0
0
VERTEX
5
491
8
Layer1
10
8.9880
20
67.9130
30
0.0
0
VERTEX
5
492
8
Layer1
10
9.7880
20
67.9130
30
0.0
0
VERTEX
5
493
8
Layer1
10
9.7880
20
66.9130
30
0.0
0
VERTEX
5
494
8
Layer1
10
23.7880
20
66.9130
30
0.0
0
VERTEX
5
495
8
Layer1
10
23.7880
20
67.9130
30
0.0
0
SEQEND
5
496
8
Layer1
0
POLYLINE
5
497
8
Layer1
66
1
10
0.0
20
0.0
30
0.0
70
1
0
VERTEX
5
498
8
Layer1
10
47.6000
20
67.9130
30
0.0
0
VERTEX
5
499
8
Layer1
10
48.4000
20
67.9130
30
0.0
0
VERTEX
5
49a
8
Layer1
10
48.4000
20
79.9130
30
0.0
0
VERTEX
5
49b
8
Layer1
10
47.6000
20
79.9130
30
0.0
0
VERTEX
5
49c
8
Layer1
10
47.6000
20
80.9130
30
0.0
0
VERTEX
5
49d
8
Layer1
10
33.6000
20
80.9130
30
0.0
0
VERTEX
5
49e
8
Layer1
10
33.6000
20
79.9130
30
0.0
0
VERTEX
5
49f
8
Layer1
10
32.8000
20
79.9130
30
0.0
0
VERTEX
5
4a0
8
Layer1
10
32.8000
20
67.9130
30
0.0
0
VERTEX
5
4a1
8
Layer1
10
33.6000
20
67.9130
30
0.0
0
VERTEX
5
4a2
8
Layer1
10
33.6000
20
66.9130
30
0.0
0
VERTEX
5
4a3
8
Layer1
10
47.6000
20
66.9130
30
0.0
0
VERTEX
5
4a4
8
Layer1
10
47.6000
20
67.9130
30
0.0
0
SEQEND
5
4a5
8
Layer1
0
POLYLINE
5
4a6
8
Layer1
66
1
10
0.0
20
0.0
30
0.0
70
1
0
VERTEX
5
4a7
8
Layer1
10
66.6500
20
67.9130
30
0.0
0
VERTEX
5
4a8
8
Layer1
10
67.4500
20
67.9130
30
0.0
0
VERTEX
5
4a9
8
Layer1
10
67.4500
20
79.9130
30
0.0
0
VERTEX
5
4aa
8
Layer1
10
66.6500
20
79.9130
30
0.0
0
VERTEX
5
4ab
8
Layer1
10
66.6500
20
80.9130
30
0.0
0
VERTEX
5
4ac
8
Layer1
10
52.6500
20
80.9130
30
0.0
0
VERTEX
5
4ad
8
Layer1
10
52.6500
20
79.9130
30
0.0
0
VERTEX
5
4ae
8
Layer1
10
51.8500
20
79.9130
30
0.0
0
VERTEX
5
4af
8
Layer1
10
51.8500
20
67.9130
30
0.0
0
VERTEX
5
4b0
8
Layer1
10
52.6500
20
67.9130
30
0.0
0
VERTEX
5
4b1
8
Layer1
10
52.6500
20
66.9130
30
0.0
0
VERTEX
5
4b2
8
Layer1
10
66.6500
20
66.9130
30
0.0
0
VERTEX
5
4b3
8
Layer1
10
66.6500
20
67.9130
30
0.0
0
SEQEND
5
4b4
8
Layer1
0
POLYLINE
5
4b5
8
Layer1
66
1
10
0.0
20
0.0
30
0.0
70
1
0
VERTEX
5
4b6
8
Layer1
10
85.7000
20
67.9130
30
0.0
0
VERTEX
5
4b7
8
Layer1
10
86.5000
20
67.9130
30
0.0
0
VERTEX
5
4b8
8
Layer1
10
86.5000
20
79.9130
30
0.0
0
VERTEX
5
4b9
8
Layer1
10
85.7000
20
79.9130
30
0.0
0
VERTEX
5
4ba
8
Layer1
10
85.7000
20
80.9130
30
0.0
0
VERTEX
5
4bb
8
Layer1
10
71.7000
20
80.9130
30
0.0
0
VERTEX
5
4bc
8
Layer1
10
71.7000
20
79.9130
30
0.0
0
VERTEX
5
4bd
8
Layer1
10
70.9000
20
79.9130
30
0.0
0
VERTEX
5
4be
8
Layer1
10
70.9000
20
67.9130
30
0.0
0
VERTEX
5
4bf
8
Layer1
10
71.7000
20
67.9130
30
0.0
0
VERTEX
5
4c0
8
Layer1
10
71.7000
20
66.9130
30
0.0
0
VERTEX
5
4c1
8
Layer1
10
85.7000
20
66.9130
30
0.0
0
VERTEX
5
4c2
8
Layer1
10
85.7000
20
67.9130
30
0.0
0
SEQEND
5
4c3
8
Layer1
0
POLYLINE
5
4c4
8
Layer1
66
1
10
0.0
20
0.0
30
0.0
70
1
0
VERTEX
5
4c5
8
Layer1
10
104.7500
20
67.9130
30
0.0
0
VERTEX
5
4c6
8
Layer1
10
105.5500
20
67.9130
30
0.0
0
VERTEX
5
4c7
8
Layer1
10
105.5500
20
79.9130
30
0.0
0
VERTEX
5
4c8
8
Layer1
10
104.7500
20
79.9130
30
0.0
0
VERTEX
5
4c9
8
Layer1
10
104.7500
20
80.9130
30
0.0
0
VERTEX
5
4ca
8
Layer1
10
90.7500
20
80.9130
30
0.0
0
VERTEX
5
4cb
8
Layer1
10
90.7500
20
79.9130
30
0.0
0
VERTEX
5
4cc
8
Layer1
10
89.9500
20
79.9130
30
0.0
0
VERTEX
5
4cd
8
Layer1
10
89.9500
20
67.9130
30
0.0
0
VERTEX
5
4ce
8
Layer1
10
90.7500
20
67.9130
30
0.0
0
VERTEX
5
4cf
8
Layer1
10
90.7500
20
66.9130
30
0.0
0
VERTEX
5
4d0
8
Layer1
10
104.7500
20
66.9130
30
0.0
0
VERTEX
5
4d1
8
Layer1
10
104.7500
20
67.9130
30
0.0
0
SEQEND
5
4d2
8
Layer1
0
POLYLINE
5
4d3
8
Layer1
66
1
10
0.0
20
0.0
30
0.0
70
1
0
VERTEX
5
4d4
8
Layer1
10
123.8000
20
67.9130
30
0.0
0
VERTEX
5
4d5
8
Layer1
10
124.6000
20
67.9130
30
0.0
0
VERTEX
5
4d6
8
Layer1
10
124.6000
20
79.9130
30
0.0
0
VERTEX
5
4d7
8
Layer1
10
123.8000
20
79.9130
30
0.0
0
VERTEX
5
4d8
8
Layer1
10
123.8000
20
80.9130
30
0.0
0
VERTEX
5
4d9
8
Layer1
10
109.8000
20
80.9130
30
0.0
0
VERTEX
5
4da
8
Layer1
10
109.8000
20
79.9130
30
0.0
0
VERTEX
5
4db
8
Layer1
10
109.0000
20
79.9130
30
0.0
0
VERTEX
5
4dc
8
Layer1
10
109.0000
20
67.9130
30
0.0
0
VERTEX
5
4dd
8
Layer1
10
109.8000
20
67.9130
30
0.0
0
VERTEX
5
4de
8
Layer1
10
109.8000
20
66.9130
30
0.0
0
VERTEX
5
4df
8
Layer1
10
123.8000
20
66.9130
30
0.0
0
VERTEX
5
4e0
8
Layer1
10
123.8000
20
67.9130
30
0.0
0
SEQEND
5
4e1
8
Layer1
0
POLYLINE
5
4e2
8
Layer1
66
1
10
0.0
20
0.0
30
0.0
70
1
0
VERTEX
5
4e3
8
Layer1
10
142.8500
20
67.9130
30
0.0
0
VERTEX
5
4e4
8
Layer1
10
143.6500
20
67.9130
30
0.0
0
VERTEX
5
4e5
8
Layer1
10
143.6500
20
79.9130
30
0.0
0
VERTEX
5
4e6
8
Layer1
10
142.8500
20
79.9130
30
0.0
0
VERTEX
5
4e7
8
Layer1
10
142.8500
20
80.9130
30
0.0
0
VERTEX
5
4e8
8
Layer1
10
128.8500
20
80.9130
30
0.0
0
VERTEX
5
4e9
8
Layer1
10
128.8500
20
79.9130
30
0.0
0
VERTEX
5
4ea
8
Layer1
10
128.0500
20
79.9130
30
0.0
0
VERTEX
5
4eb
8
Layer1
10
128.0500
20
67.9130
30
0.0
0
VERTEX
5
4ec
8
Layer1
10
128.8500
20
67.9130
30
0.0
0
VERTEX
5
4ed
8
Layer1
10
128.8500
20
66.9130
30
0.0
0
VERTEX
5
4ee
8
Layer1
10
142.8500
20
66.9130
30
0.0
0
VERTEX
5
4ef
8
Layer1
10
142.8500
20
67.9130
30
0.0
0
SEQEND
5
4f0
8
Layer1
0
POLYLINE
5
4f1
8
Layer1
66
1
10
0.0
20
0.0
30
0.0
70
1
0
VERTEX
5
4f2
8
Layer1
10
161.9000
20
67.9130
30
0.0
0
VERTEX
5
4f3
8
Layer1
10
162.7000
20
67.9130
30
0.0
0
VERTEX
5
4f4
8
Layer1
10
162.7000
20
79.9130
30
0.0
0
VERTEX
5
4f5
8
Layer1
10
161.9000
20
79.9130
30
0.0
0
VERTEX
5
4f6
8
Layer1
10
161.9000
20
80.9130
30
0.0
0
VERTEX
5
4f7
8
Layer1
10
147.9000
20
80.9130
30
0.0
0
VERTEX
5
4f8
8
Layer1
10
147.9000
20
79.9130
30
0.0
0
VERTEX
5
4f9
8
Layer1
10
147.1000
20
79.9130
30
0.0
0
VERTEX
5
4fa
8
Layer1
10
147.1000
20
67.9130
30
0.0
0
VERTEX
5
4fb
8
Layer1
10
147.9000
20
67.9130
30
0.0
0
VERTEX
5
4fc
8
Layer1
10
147.9000
20
66.9130
30
0.0
0
VERTEX
5
4fd
8
Layer1
10
161.9000
20
66.9130
30
0.0
0
VERTEX
5
4fe
8
Layer1
10
161.9000
20
67.9130
30
0.0
0
SEQEND
5
4ff
8
Layer1
0
POLYLINE
5
500
8
Layer1
66
1
10
0.0
20
0.0
30
0.0
70
1
0
VERTEX
5
501
8
Layer1
10
180.9500
20
67.9130
30
0.0
0
VERTEX
5
502
8
Layer1
10
181.7500
20
67.9130
30
0.0
0
VERTEX
5
503
8
Layer1
10
181.7500
20
79.9130
30
0.0
0
VERTEX
5
504
8
Layer1
10
180.9500
20
79.9130
30
0.0
0
VERTEX
5
505
8
Layer1
10
180.9500
20
80.9130
30
0.0
0
VERTEX
5
506
8
Layer1
10
166.9500
20
80.9130
30
0.0
0
VERTEX
5
507
8
Layer1
10
166.9500
20
79.9130
30
0.0
0
VERTEX
5
508
8
Layer1
10
166.1500
20
79.9130
30
0.0
0
VERTEX
5
509
8
Layer1
10
166.1500
20
67.9130
30
0.0
0
VERTEX
5
50a
8
Layer1
10
166.9500
20
67.9130
30
0.0
0
VERTEX
5
50b
8
Layer1
10
166.9500
20
66.9130
30
0.0
0
VERTEX
5
50c
8
Layer1
10
180.9500
20
66.9130
30
0.0
0
VERTEX
5
50d
8
Layer1
10
180.9500
20
67.9130
30
0.0
0
SEQEND
5
50e
8
Layer1
0
POLYLINE
5
50f
8
Layer1
66
1
10
0.0
20
0.0
30
0.0
70
1
0
VERTEX
5
510
8
Layer1
10
200.0000
20
67.9130
30
0.0
0
VERTEX
5
511
8
Layer1
10
200.8000
20
67.9130
30
0.0
0
VERTEX
5
512
8
Layer1
10
200.8000
20
79.9130
30
0.0
0
VERTEX
5
513
8
Layer1
10
200.0000
20
79.9130
30
0.0
0
VERTEX
5
514
8
Layer1
10
200.0000
20
80.9130
30
0.0
0
VERTEX
5
515
8
Layer1
10
186.0000
20
80.9130
30
0.0
0
VERTEX
5
516
8
Layer1
10
186.0000
20
79.9130
30
0.0
0
VERTEX
5
517
8
Layer1
10
185.2000
20
79.9130
30
0.0
0
VERTEX
5
518
8
Layer1
10
185.2000
20
67.9130
30
0.0
0
VERTEX
5
519
8
Layer1
10
186.0000
20
67.9130
30
0.0
0
VERTEX
5
51a
8
Layer1
10
186.0000
20
66.9130
30
0.0
0
VERTEX
5
51b
8
Layer1
10
200.0000
20
66.9130
30
0.0
0
VERTEX
5
51c
8
Layer1
10
200.0000
20
67.9130
30
0.0
0
SEQEND
5
51d
8
Layer1
0
POLYLINE
5
51e
8
Layer1
66
1
10
0.0
20
0.0
30
0.0
70
1
0
VERTEX
5
51f
8
Layer1
10
219.0500
20
67.9130
30
0.0
0
VERTEX
5
520
8
Layer1
10
219.8500
20
67.9130
30
0.0
0
VERTEX
5
521
8
Layer1
10
219.8500
20
79.9130
30
0.0
0
VERTEX
5
522
8
Layer1
10
219.0500
20
79.9130
30
0.0
0
VERTEX
5
523
8
Layer1
10
219.0500
20
80.9130
30
0.0
0
VERTEX
5
524
8
Layer1
10
205.0500
20
80.9130
30
0.0
0
VERTEX
5
525
8
Layer1
10
205.0500
20
79.9130
30
0.0
0
VERTEX
5
526
8
Layer1
10
204.2500
20
79.9130
30
0.0
0
VERTEX
5
527
8
Layer1
10
204.2500
20
67.9130
30
0.0
0
VERTEX
5
528
8
Layer1
10
205.0500
20
67.9130
30
0.0
0
VERTEX
5
529
8
Layer1
10
205.0500
20
66.9130
30
0.0
0
VERTEX
5
52a
8
Layer1
10
219.0500
20
66.9130
30
0.0
0
VERTEX
5
52b
8
Layer1
10
219.0500
20
67.9130
30
0.0
0
SEQEND
5
52c
8
Layer1
0
POLYLINE
5
52d
8
Layer1
66
1
10
0.0
20
0.0
30
0.0
70
1
0
VERTEX
5
52e
8
Layer1
10
238.1000
20
67.9130
30
0.0
0
VERTEX
5
52f
8
Layer1
10
238.9000
20
67.9130
30
0.0
0
VERTEX
5
530
8
Layer1
10
238.9000
20
79.9130
30
0.0
0
VERTEX
5
531
8
Layer1
10
238.1000
20
79.9130
30
0.0
0
VERTEX
5
532
8
Layer1
10
238.1000
20
80.9130
30
0.0
0
VERTEX
5
533
8
Layer1
10
224.1000
20
80.9130
30
0.0
0
VERTEX
5
534
8
Layer1
10
224.1000
20
79.9130
30
0.0
0
VERTEX
5
535
8
Layer1
10
223.3000
20
79.9130
30
0.0
0
VERTEX
5
536
8
Layer1
10
223.3000
20
67.9130
30
0.0
0
VERTEX
5
537
8
Layer1
10
224.1000
20
67.9130
30
0.0
0
VERTEX
5
538
8
Layer1
10
224.1000
20
66.9130
30
0.0
0
VERTEX
5
539
8
Layer1
10
238.1000
20
66.9130
30
0.0
0
VERTEX
5
53a
8
Layer1
10
238.1000
20
67.9130
30
0.0
0
SEQEND
5
53b
8
Layer1
0
POLYLINE
5
53c
8
Layer1
66
1
10
0.0
20
0.0
30
0.0
70
1
0
VERTEX
5
53d
8
Layer1
10
257.1500
20
67.9130
30
0.0
0
VERTEX
5
53e
8
Layer1
10
257.9500
20
67.9130
30
0.0
0
VERTEX
5
53f
8
Layer1
10
257.9500
20
79.9130
30
0.0
0
VERTEX
5
540
8
Layer1
10
257.1500
20
79.9130
30
0.0
0
VERTEX
5
541
8
Layer1
10
257.1500
20
80.9130
30
0.0
0
VERTEX
5
542
8
Layer1
10
243.1500
20
80.9130
30
0.0
0
VERTEX
5
543
8
Layer1
10
243.1500
20
79.9130
30
0.0
0
VERTEX
5
544
8
Layer1
10
242.3500
20
79.9130
30
0.0
0
VERTEX
5
545
8
Layer1
10
242.3500
20
67.9130
30
0.0
0
VERTEX
5
546
8
Layer1
10
243.1500
20
67.9130
30
0.0
0
VERTEX
5
547
8
Layer1
10
243.1500
20
66.9130
30
0.0
0
VERTEX
5
548
8
Layer1
10
257.1500
20
66.9130
30
0.0
0
VERTEX
5
549
8
Layer1
10
257.1500
20
67.9130
30
0.0
0
SEQEND
5
54a
8
Layer1
0
POLYLINE
5
54b
8
Layer1
66
1
10
0.0
20
0.0
30
0.0
70
1
0
VERTEX
5
54c
8
Layer1
10
280.9630
20
67.9130
30
0.0
0
VERTEX
5
54d
8
Layer1
10
281.7630
20
67.9130
30
0.0
0
VERTEX
5
54e
8
Layer1
10
281.7630
20
79.9130
30
0.0
0
VERTEX
5
54f
8
Layer1
10
280.9630
20
79.9130
30
0.0
0
VERTEX
5
550
8
Layer1
10
280.9630
20
80.9130
30
0.0
0
VERTEX
5
551
8
Layer1
10
266.9630
20
80.9130
30
0.0
0
VERTEX
5
552
8
Layer1
10
266.9630
20
79.9130
30
0.0
0
VERTEX
5
553
8
Layer1
10
266.1630
20
79.9130
30
0.0
0
VERTEX
5
554
8
Layer1
10
266.1630
20
67.9130
30
0.0
0
VERTEX
5
555
8
Layer1
10
266.9630
20
67.9130
30
0.0
0
VERTEX
5
556
8
Layer1
10
266.9630
20
66.9130
30
0.0
0
VERTEX
5
557
8
Layer1
10
280.9630
20
66.9130
30
0.0
0
VERTEX
5
558
8
Layer1
10
280.9630
20
67.9130
30
0.0
0
SEQEND
5
559
8
Layer1
0
POLYLINE
5
55a
8
Layer1
66
1
10
0.0
20
0.0
30
0.0
70
1
0
VERTEX
5
55b
8
Layer1
10
26.1690
20
48.8630
30
0.0
0
VERTEX
5
55c
8
Layer1
10
26.9690
20
48.8630
30
0.0
0
VERTEX
5
55d
8
Layer1
10
26.9690
20
60.8630
30
0.0
0
VERTEX
5
55e
8
Layer1
10
26.1690
20
60.8630
30
0.0
0
VERTEX
5
55f
8
Layer1
10
26.1690
20
61.8630
30
0.0
0
VERTEX
5
560
8
Layer1
10
12.1690
20
61.8630
30
0.0
0
VERTEX
5
561
8
Layer1
10
12.1690
20
60.8630
30
0.0
0
VERTEX
5
562
8
Layer1
10
11.3690
20
60.8630
30
0.0
0
VERTEX
5
563
8
Layer1
10
11.3690
20
48.8630
30
0.0
0
VERTEX
5
564
8
Layer1
10
12.1690
20
48.8630
30
0.0
0
VERTEX
5
565
8
Layer1
10
12.1690
20
47.8630
30
0.0
0
VERTEX
5
566
8
Layer1
10
26.1690
20
47.8630
30
0.0
0
VERTEX
5
567
8
Layer1
10
26.1690
20
48.8630
30
0.0
0
SEQEND
5
568
8
Layer1
0
POLYLINE
5
569
8
Layer1
66
1
10
0.0
20
0.0
30
0.0
70
1
0
VERTEX
5
56a
8
Layer1
10
52.3630
20
48.8630
30
0.0
0
VERTEX
5
56b
8
Layer1
10
53.1620
20
48.8630
30
0.0
0
VERTEX
5
56c
8
Layer1
10
53.1620
20
60.8630
30
0.0
0
VERTEX
5
56d
8
Layer1
10
52.3630
20
60.8630
30
0.0
0
VERTEX
5
56e
8
Layer1
10
52.3630
20
61.8630
30
0.0
0
VERTEX
5
56f
8
Layer1
10
38.3630
20
61.8630
30
0.0
0
VERTEX
5
570
8
Layer1
10
38.3630
20
60.8630
30
0.0
0
VERTEX
5
571
8
Layer1
10
37.5630
20
60.8630
30
0.0
0
VERTEX
5
572
8
Layer1
10
37.5630
20
48.8630
30
0.0
0
VERTEX
5
573
8
Layer1
10
38.3630
20
48.8630
30
0.0
0
VERTEX
5
574
8
Layer1
10
38.3630
20
47.8630
30
0.0
0
VERTEX
5
575
8
Layer1
10
52.3630
20
47.8630
30
0.0
0
VERTEX
5
576
8
Layer1
10
52.3630
20
48.8630
30
0.0
0
SEQEND
5
577
8
Layer1
0
POLYLINE
5
578
8
Layer1
66
1
10
0.0
20
0.0
30
0.0
70
1
0
VERTEX
5
579
8
Layer1
10
71.4130
20
48.8630
30
0.0
0
VERTEX
5
57a
8
Layer1
10
72.2130
20
48.8630
30
0.0
0
VERTEX
5
57b
8
Layer1
10
72.2130
20
60.8630
30
0.0
0
VERTEX
5
57c
8
Layer1
10
71.4130
20
60.8630
30
0.0
0
VERTEX
5
57d
8
Layer1
10
71.4130
20
61.8630
30
0.0
0
VERTEX
5
57e
8
Layer1
10
57.4130
20
61.8630
30
0.0
0
VERTEX
5
57f
8
Layer1
10
57.4130
20
60.8630
30
0.0
0
VERTEX
5
580
8
Layer1
10
56.6130
20
60.8630
30
0.0
0
VERTEX
5
581
8
Layer1
10
56.6130
20
48.8630
30
0.0
0
VERTEX
5
582
8
Layer1
10
57.4130
20
48.8630
30
0.0
0
VERTEX
5
583
8
Layer1
10
57.4130
20
47.8630
30
0.0
0
VERTEX
5
584
8
Layer1
10
71.4130
20
47.8630
30
0.0
0
VERTEX
5
585
8
Layer1
10
71.4130
20
48.8630
30
0.0
0
SEQEND
5
586
8
Layer1
0
POLYLINE
5
587
8
Layer1
66
1
10
0.0
20
0.0
30
0.0
70
1
0
VERTEX
5
588
8
Layer1
10
90.4630
20
48.8630
30
0.0
0
VERTEX
5
589
8
Layer1
10
91.2630
20
48.8630
30
0.0
0
VERTEX
5
58a
8
Layer1
10
91.2630
20
60.8630
30
0.0
0
VERTEX
5
58b
8
Layer1
10
90.4630
20
60.8630
30
0.0
0
VERTEX
5
58c
8
Layer1
10
90.4630
20
61.8630
30
0.0
0
VERTEX
5
58d
8
Layer1
10
76.4630
20
61.8630
30
0.0
0
VERTEX
5
58e
8
Layer1
10
76.4630
20
60.8630
30
0.0
0
VERTEX
5
58f
8
Layer1
10
75.6630
20
60.8630
30
0.0
0
VERTEX
5
590
8
Layer1
10
75.6630
20
48.8630
30
0.0
0
VERTEX
5
591
8
Layer1
10
76.4630
20
48.8630
30
0.0
0
VERTEX
5
592
8
Layer1
10
76.4630
20
47.8630
30
0.0
0
VERTEX
5
593
8
Layer1
10
90.4630
20
47.8630
30
0.0
0
VERTEX
5
594
8
Layer1
10
90.4630
20
48.8630
30
0.0
0
SEQEND
5
595
8
Layer1
0
POLYLINE
5
596
8
Layer1
66
1
10
0.0
20
0.0
30
0.0
70
1
0
VERTEX
5
597
8
Layer1
10
109.5130
20
48.8630
30
0.0
0
VERTEX
5
598
8
Layer1
10
110.3130
20
48.8630
30
0.0
0
VERTEX
5
599
8
Layer1
10
110.3130
20
60.8630
30
0.0
0
VERTEX
5
59a
8
Layer1
10
109.5130
20
60.8630
30
0.0
0
VERTEX
5
59b
8
Layer1
10
109.5130
20
61.8630
30
0.0
0
VERTEX
5
59c
8
Layer1
10
95.5130
20
61.8630
30
0.0
0
VERTEX
5
59d
8
Layer1
10
95.5130
20
60.8630
30
0.0
0
VERTEX
5
59e
8
Layer1
10
94.7130
20
60.8630
30
0.0
0
VERTEX
5
59f
8
Layer1
10
94.7130
20
48.8630
30
0.0
0
VERTEX
5
5a0
8
Layer1
10
95.5130
20
48.8630
30
0.0
0
VERTEX
5
5a1
8
Layer1
10
95.5130
20
47.8630
30
0.0
0
VERTEX
5
5a2
8
Layer1
10
109.5130
20
47.8630
30
0.0
0
VERTEX
5
5a3
8
Layer1
10
109.5130
20
48.8630
30
0.0
0
SEQEND
5
5a4
8
Layer1
0
POLYLINE
5
5a5
8
Layer1
66
1
10
0.0
20
0.0
30
0.0
70
1
0
VERTEX
5
5a6
8
Layer1
10
128.5630
20
48.8630
30
0.0
0
VERTEX
5
5a7
8
Layer1
10
129.3630
20
48.8630
30
0.0
0
VERTEX
5
5a8
8
Layer1
10
129.3630
20
60.8630
30
0.0
0
VERTEX
5
5a9
8
Layer1
10
128.5630
20
60.8630
30
0.0
0
VERTEX
5
5aa
8
Layer1
10
128.5630
20
61.8630
30
0.0
0
VERTEX
5
5ab
8
Layer1
10
114.5630
20
61.8630
30
0.0
0
VERTEX
5
5ac
8
Layer1
10
114.5630
20
60.8630
30
0.0
0
VERTEX
5
5ad
8
Layer1
10
113.7630
20
60.8630
30
0.0
0
VERTEX
5
5ae
8
Layer1
10
113.7630
20
48.8630
30
0.0
0
VERTEX
5
5af
8
Layer1
10
114.5630
20
48.8630
30
0.0
0
VERTEX
5
5b0
8
Layer1
10
114.5630
20
47.8630
30
0.0
0
VERTEX
5
5b1
8
Layer1
10
128.5630
20
47.8630
30
0.0
0
VERTEX
5
5b2
8
Layer1
10
128.5630
20
48.8630
30
0.0
0
SEQEND
5
5b3
8
Layer1
0
POLYLINE
5
5b4
8
Layer1
66
1
10
0.0
20
0.0
30
0.0
70
1
0
VERTEX
5
5b5
8
Layer1
10
147.6130
20
48.8630
30
0.0
0
VERTEX
5
5b6
8
Layer1
10
148.4130
20
48.8630
30
0.0
0
VERTEX
5
5b7
8
Layer1
10
148.4130
20
60.8630
30
0.0
0
VERTEX
5
5b8
8
Layer1
10
147.6130
20
60.8630
30
0.0
0
VERTEX
5
5b9
8
Layer1
10
147.6130
20
61.8630
30
0.0
0
VERTEX
5
5ba
8
Layer1
10
133.6130
20
61.8630
30
0.0
0
VERTEX
5
5bb
8
Layer1
10
133.6130
20
60.8630
30
0.0
0
VERTEX
5
5bc
8
Layer1
10
132.8130
20
60.8630
30
0.0
0
VERTEX
5
5bd
8
Layer1
10
132.8130
20
48.8630
30
0.0
0
VERTEX
5
5be
8
Layer1
10
133.6130
20
48.8630
30
0.0
0
VERTEX
5
5bf
8
Layer1
10
133.6130
20
47.8630
30
0.0
0
VERTEX
5
5c0
8
Layer1
10
147.6130
20
47.8630
30
0.0
0
VERTEX
5
5c1
8
Layer1
10
147.6130
20
48.8630
30
0.0
0
SEQEND
5
5c2
8
Layer1
0
POLYLINE
5
5c3
8
Layer1
66
1
10
0.0
20
0.0
30
0.0
70
1
0
VERTEX
5
5c4
8
Layer1
10
166.6630
20
48.8630
30
0.0
0
VERTEX
5
5c5
8
Layer1
10
167.4630
20
48.8630
30
0.0
0
VERTEX
5
5c6
8
Layer1
10
167.4630
20
60.8630
30
0.0
0
VERTEX
5
5c7
8
Layer1
10
166.6630
20
60.8630
30
0.0
0
VERTEX
5
5c8
8
Layer1
10
166.6630
20
61.8630
30
0.0
0
VERTEX
5
5c9
8
Layer1
10
152.6630
20
61.8630
30
0.0
0
VERTEX
5
5ca
8
Layer1
10
152.6630
20
60.8630
30
0.0
0
VERTEX
5
5cb
8
Layer1
10
151.8630
20
60.8630
30
0.0
0
VERTEX
5
5cc
8
Layer1
10
151.8630
20
48.8630
30
0.0
0
VERTEX
5
5cd
8
Layer1
10
152.6630
20
48.8630
30
0.0
0
VERTEX
5
5ce
8
Layer1
10
152.6630
20
47.8630
30
0.0
0
VERTEX
5
5cf
8
Layer1
10
166.6630
20
47.8630
30
0.0
0
VERTEX
5
5d0
8
Layer1
10
166.6630
20
48.8630
30
0.0
0
SEQEND
5
5d1
8
Layer1
0
POLYLINE
5
5d2
8
Layer1
66
1
10
0.0
20
0.0
30
0.0
70
1
0
VERTEX
5
5d3
8
Layer1
10
185.7130
20
48.8630
30
0.0
0
VERTEX
5
5d4
8
Layer1
10
186.5130
20
48.8630
30
0.0
0
VERTEX
5
5d5
8
Layer1
10
186.5130
20
60.8630
30
0.0
0
VERTEX
5
5d6
8
Layer1
10
185.7130
20
60.8630
30
0.0
0
VERTEX
5
5d7
8
Layer1
10
185.7130
20
61.8630
30
0.0
0
VERTEX
5
5d8
8
Layer1
10
171.7130
20
61.8630
30
0.0
0
VERTEX
5
5d9
8
Layer1
10
171.7130
20
60.8630
30
0.0
0
VERTEX
5
5da
8
Layer1
10
170.9130
20
60.8630
30
0.0
0
VERTEX
5
5db
8
Layer1
10
170.9130
20
48.8630
30
0.0
0
VERTEX
5
5dc
8
Layer1
10
171.7130
20
48.8630
30
0.0
0
VERTEX
5
5dd
8
Layer1
10
171.7130
20
47.8630
30
0.0
0
VERTEX
5
5de
8
Layer1
10
185.7130
20
47.8630
30
0.0
0
VERTEX
5
5df
8
Layer1
10
185.7130
20
48.8630
30
0.0
0
SEQEND
5
5e0
8
Layer1
0
POLYLINE
5
5e1
8
Layer1
66
1
10
0.0
20
0.0
30
0.0
70
1
0
VERTEX
5
5e2
8
Layer1
10
204.7630
20
48.8630
30
0.0
0
VERTEX
5
5e3
8
Layer1
10
205.5630
20
48.8630
30
0.0
0
VERTEX
5
5e4
8
Layer1
10
205.5630
20
60.8630
30
0.0
0
VERTEX
5
5e5
8
Layer1
10
204.7630
20
60.8630
30
0.0
0
VERTEX
5
5e6
8
Layer1
10
204.7630
20
61.8630
30
0.0
0
VERTEX
5
5e7
8
Layer1
10
190.7630
20
61.8630
30
0.0
0
VERTEX
5
5e8
8
Layer1
10
190.7630
20
60.8630
30
0.0
0
VERTEX
5
5e9
8
Layer1
10
189.9630
20
60.8630
30
0.0
0
VERTEX
5
5ea
8
Layer1
10
189.9630
20
48.8630
30
0.0
0
VERTEX
5
5eb
8
Layer1
10
190.7630
20
48.8630
30
0.0
0
VERTEX
5
5ec
8
Layer1
10
190.7630
20
47.8630
30
0.0
0
VERTEX
5
5ed
8
Layer1
10
204.7630
20
47.8630
30
0.0
0
VERTEX
5
5ee
8
Layer1
10
204.7630
20
48.8630
30
0.0
0
SEQEND
5
5ef
8
Layer1
0
POLYLINE
5
5f0
8
Layer1
66
1
10
0.0
20
0.0
30
0.0
70
1
0
VERTEX
5
5f1
8
Layer1
10
223.8130
20
48.8630
30
0.0
0
VERTEX
5
5f2
8
Layer1
10
224.6130
20
48.8630
30
0.0
0
VERTEX
5
5f3
8
Layer1
10
224.6130
20
60.8630
30
0.0
0
VERTEX
5
5f4
8
Layer1
10
223.8130
20
60.8630
30
0.0
0
VERTEX
5
5f5
8
Layer1
10
223.8130
20
61.8630
30
0.0
0
VERTEX
5
5f6
8
Layer1
10
209.8130
20
61.8630
30
0.0
0
VERTEX
5
5f7
8
Layer1
10
209.8130
20
60.8630
30
0.0
0
VERTEX
5
5f8
8
Layer1
10
209.0130
20
60.8630
30
0.0
0
VERTEX
5
5f9
8
Layer1
10
209.0130
20
48.8630
30
0.0
0
VERTEX
5
5fa
8
Layer1
10
209.8130
20
48.8630
30
0.0
0
VERTEX
5
5fb
8
Layer1
10
209.8130
20
47.8630
30
0.0
0
VERTEX
5
5fc
8
Layer1
10
223.8130
20
47.8630
30
0.0
0
VERTEX
5
5fd
8
Layer1
10
223.8130
20
48.8630
30
0.0
0
SEQEND
5
5fe
8
Layer1
0
POLYLINE
5
5ff
8
Layer1
66
1
10
0.0
20
0.0
30
0.0
70
1
0
VERTEX
5
600
8
Layer1
10
242.8630
20
48.8630
30
0.0
0
VERTEX
5
601
8
Layer1
10
243.6630
20
48.8630
30
0.0
0
VERTEX
5
602
8
Layer1
10
243.6630
20
60.8630
30
0.0
0
VERTEX
5
603
8
Layer1
10
242.8630
20
60.8630
30
0.0
0
VERTEX
5
604
8
Layer1
10
242.8630
20
61.8630
30
0.0
0
VERTEX
5
605
8
Layer1
10
228.8630
20
61.8630
30
0.0
0
VERTEX
5
606
8
Layer1
10
228.8630
20
60.8630
30
0.0
0
VERTEX
5
607
8
Layer1
10
228.0630
20
60.8630
30
0.0
0
VERTEX
5
608
8
Layer1
10
228.0630
20
48.8630
30
0.0
0
VERTEX
5
609
8
Layer1
10
228.8630
20
48.8630
30
0.0
0
VERTEX
5
60a
8
Layer1
10
228.8630
20
47.8630
30
0.0
0
VERTEX
5
60b
8
Layer1
10
242.8630
20
47.8630
30
0.0
0
VERTEX
5
60c
8
Layer1
10
242.8630
20
48.8630
30
0.0
0
SEQEND
5
60d
8
Layer1
0
POLYLINE
5
60e
8
Layer1
66
1
10
0.0
20
0.0
30
0.0
70
1
0
VERTEX
5
60f
8
Layer1
10
256.4190
20
48.0920
30
0.0
0
VERTEX
5
610
8
Layer1
10
258.2440
20
48.0920
30
0.0
0
VERTEX
5
611
8
Layer1
10
258.2440
20
48.8930
30
0.0
0
VERTEX
5
612
8
Layer1
10
259.0190
20
48.8930
30
0.0
0
VERTEX
5
613
8
Layer1
10
259.0190
20
48.8630
30
0.0
0
VERTEX
5
614
8
Layer1
10
259.8190
20
48.8630
30
0.0
0
VERTEX
5
615
8
Layer1
10
259.8190
20
47.8630
30
0.0
0
VERTEX
5
616
8
Layer1
10
273.8190
20
47.8630
30
0.0
0
VERTEX
5
617
8
Layer1
10
273.8190
20
48.8630
30
0.0
0
VERTEX
5
618
8
Layer1
10
274.6190
20
48.8630
30
0.0
0
VERTEX
5
619
8
Layer1
10
274.6190
20
48.8930
30
0.0
0
VERTEX
5
61a
8
Layer1
10
275.3940
20
48.8930
30
0.0
0
VERTEX
5
61b
8
Layer1
10
275.3940
20
48.0920
30
0.0
0
VERTEX
5
61c
8
Layer1
10
277.2190
20
48.0920
30
0.0
0
VERTEX
5
61d
8
Layer1
10
277.2190
20
46.8930
30
0.0
0
VERTEX
5
61e
8
Layer1
10
280.2190
20
46.8930
30
0.0
0
VERTEX
5
61f
8
Layer1
10
280.2190
20
48.0920
30
0.0
0
VERTEX
5
620
8
Layer1
10
282.0440
20
48.0920
30
0.0
0
VERTEX
5
621
8
Layer1
10
282.0440
20
54.3630
30
0.0
0
VERTEX
5
622
8
Layer1
10
282.9190
20
54.3630
30
0.0
0
VERTEX
5
623
8
Layer1
10
282.9190
20
57.1630
30
0.0
0
VERTEX
5
624
8
Layer1
10
282.0440
20
57.1630
30
0.0
0
VERTEX
5
625
8
Layer1
10
282.0440
20
60.3930
30
0.0
0
VERTEX
5
626
8
Layer1
10
275.3940
20
60.3930
30
0.0
0
VERTEX
5
627
8
Layer1
10
275.3940
20
59.5920
30
0.0
0
VERTEX
5
628
8
Layer1
10
274.6190
20
59.5920
30
0.0
0
VERTEX
5
629
8
Layer1
10
274.6190
20
60.8630
30
0.0
0
VERTEX
5
62a
8
Layer1
10
273.8190
20
60.8630
30
0.0
0
VERTEX
5
62b
8
Layer1
10
273.8190
20
61.8630
30
0.0
0
VERTEX
5
62c
8
Layer1
10
259.8190
20
61.8630
30
0.0
0
VERTEX
5
62d
8
Layer1
10
259.8190
20
60.8630
30
0.0
0
VERTEX
5
62e
8
Layer1
10
259.0190
20
60.8630
30
0.0
0
VERTEX
5
62f
8
Layer1
10
259.0190
20
59.5920
30
0.0
0
VERTEX
5
630
8
Layer1
10
258.2440
20
59.5920
30
0.0
0
VERTEX
5
631
8
Layer1
10
258.2440
20
60.3930
30
0.0
0
VERTEX
5
632
8
Layer1
10
251.5940
20
60.3930
30
0.0
0
VERTEX
5
633
8
Layer1
10
251.5940
20
57.1630
30
0.0
0
VERTEX
5
634
8
Layer1
10
250.7190
20
57.1630
30
0.0
0
VERTEX
5
635
8
Layer1
10
250.7190
20
54.3630
30
0.0
0
VERTEX
5
636
8
Layer1
10
251.5940
20
54.3630
30
0.0
0
VERTEX
5
637
8
Layer1
10
251.5940
20
48.0920
30
0.0
0
VERTEX
5
638
8
Layer1
10
253.4190
20
48.0920
30
0.0
0
VERTEX
5
639
8
Layer1
10
253.4190
20
46.8930
30
0.0
0
VERTEX
5
63a
8
Layer1
10
256.4190
20
46.8930
30
0.0
0
VERTEX
5
63b
8
Layer1
10
256.4190
20
48.0920
30
0.0
0
SEQEND
5
63c
8
Layer1
0
POLYLINE
5
63d
8
Layer1
66
1
10
0.0
20
0.0
30
0.0
70
1
0
VERTEX
5
63e
8
Layer1
10
13.5310
20
29.0420
30
0.0
0
VERTEX
5
63f
8
Layer1
10
15.3560
20
29.0420
30
0.0
0
VERTEX
5
640
8
Layer1
10
15.3560
20
29.8420
30
0.0
0
VERTEX
5
641
8
Layer1
10
16.1310
20
29.8420
30
0.0
0
VERTEX
5
642
8
Layer1
10
16.1310
20
29.8120
30
0.0
0
VERTEX
5
643
8
Layer1
10
16.9310
20
29.8120
30
0.0
0
VERTEX
5
644
8
Layer1
10
16.9310
20
28.8120
30
0.0
0
VERTEX
5
645
8
Layer1
10
30.9310
20
28.8120
30
0.0
0
VERTEX
5
646
8
Layer1
10
30.9310
20
29.8120
30
0.0
0
VERTEX
5
647
8
Layer1
10
31.7310
20
29.8120
30
0.0
0
VERTEX
5
648
8
Layer1
10
31.7310
20
29.8420
30
0.0
0
VERTEX
5
649
8
Layer1
10
32.5060
20
29.8420
30
0.0
0
VERTEX
5
64a
8
Layer1
10
32.5060
20
29.0420
30
0.0
0
VERTEX
5
64b
8
Layer1
10
34.3310
20
29.0420
30
0.0
0
VERTEX
5
64c
8
Layer1
10
34.3310
20
27.8420
30
0.0
0
VERTEX
5
64d
8
Layer1
10
37.3310
20
27.8420
30
0.0
0
VERTEX
5
64e
8
Layer1
10
37.3310
20
29.0420
30
0.0
0
VERTEX
5
64f
8
Layer1
10
39.1560
20
29.0420
30
0.0
0
VERTEX
5
650
8
Layer1
10
39.1560
20
35.3120
30
0.0
0
VERTEX
5
651
8
Layer1
10
40.0310
20
35.3120
30
0.0
0
VERTEX
5
652
8
Layer1
10
40.0310
20
38.1130
30
0.0
0
VERTEX
5
653
8
Layer1
10
39.1560
20
38.1130
30
0.0
0
VERTEX
5
654
8
Layer1
10
39.1560
20
41.3420
30
0.0
0
VERTEX
5
655
8
Layer1
10
32.5060
20
41.3420
30
0.0
0
VERTEX
5
656
8
Layer1
10
32.5060
20
40.5420
30
0.0
0
VERTEX
5
657
8
Layer1
10
31.7310
20
40.5420
30
0.0
0
VERTEX
5
658
8
Layer1
10
31.7310
20
41.8120
30
0.0
0
VERTEX
5
659
8
Layer1
10
30.9310
20
41.8120
30
0.0
0
VERTEX
5
65a
8
Layer1
10
30.9310
20
42.8120
30
0.0
0
VERTEX
5
65b
8
Layer1
10
16.9310
20
42.8120
30
0.0
0
VERTEX
5
65c
8
Layer1
10
16.9310
20
41.8120
30
0.0
0
VERTEX
5
65d
8
Layer1
10
16.1310
20
41.8120
30
0.0
0
VERTEX
5
65e
8
Layer1
10
16.1310
20
40.5420
30
0.0
0
VERTEX
5
65f
8
Layer1
10
15.3560
20
40.5420
30
0.0
0
VERTEX
5
660
8
Layer1
10
15.3560
20
41.3420
30
0.0
0
VERTEX
5
661
8
Layer1
10
8.7060
20
41.3420
30
0.0
0
VERTEX
5
662
8
Layer1
10
8.7060
20
38.1130
30
0.0
0
VERTEX
5
663
8
Layer1
10
7.8310
20
38.1130
30
0.0
0
VERTEX
5
664
8
Layer1
10
7.8310
20
35.3120
30
0.0
0
VERTEX
5
665
8
Layer1
10
8.7060
20
35.3120
30
0.0
0
VERTEX
5
666
8
Layer1
10
8.7060
20
29.0420
30
0.0
0
VERTEX
5
667
8
Layer1
10
10.5310
20
29.0420
30
0.0
0
VERTEX
5
668
8
Layer1
10
10.5310
20
27.8420
30
0.0
0
VERTEX
5
669
8
Layer1
10
13.5310
20
27.8420
30
0.0
0
VERTEX
5
66a
8
Layer1
10
13.5310
20
29.0420
30
0.0
0
SEQEND
5
66b
8
Layer1
0
POLYLINE
5
66c
8
Layer1
66
1
10
0.0
20
0.0
30
0.0
70
1
0
VERTEX
5
66d
8
Layer1
10
61.8880
20
29.8120
30
0.0
0
VERTEX
5
66e
8
Layer1
10
62.6880
20
29.8120
30
0.0
0
VERTEX
5
66f
8
Layer1
10
62.6880
20
41.8120
30
0.0
0
VERTEX
5
670
8
Layer1
10
61.8880
20
41.8120
30
0.0
0
VERTEX
5
671
8
Layer1
10
61.8880
20
42.8120
30
0.0
0
VERTEX
5
672
8
Layer1
10
47.8880
20
42.8120
30
0.0
0
VERTEX
5
673
8
Layer1
10
47.8880
20
41.8120
30
0.0
0
VERTEX
5
674
8
Layer1
10
47.0880
20
41.8120
30
0.0
0
VERTEX
5
675
8
Layer1
10
47.0880
20
29.8120
30
0.0
0
VERTEX
5
676
8
Layer1
10
47.8880
20
29.8120
30
0.0
0
VERTEX
5
677
8
Layer1
10
47.8880
20
28.8120
30
0.0
0
VERTEX
5
678
8
Layer1
10
61.8880
20
28.8120
30
0.0
0
VERTEX
5
679
8
Layer1
10
61.8880
20
29.8120
30
0.0
0
SEQEND
5
67a
8
Layer1
0
POLYLINE
5
67b
8
Layer1
66
1
10
0.0
20
0.0
30
0.0
70
1
0
VERTEX
5
67c
8
Layer1
10
80.9380
20
29.8120
30
0.0
0
VERTEX
5
67d
8
Layer1
10
81.7380
20
29.8120
30
0.0
0
VERTEX
5
67e
8
Layer1
10
81.7380
20
41.8120
30
0.0
0
VERTEX
5
67f
8
Layer1
10
80.9380
20
41.8120
30
0.0
0
VERTEX
5
680
8
Layer1
10
80.9380
20
42.8120
30
0.0
0
VERTEX
5
681
8
Layer1
10
66.9380
20
42.8120
30
0.0
0
VERTEX
5
682
8
Layer1
10
66.9380
20
41.8120
30
0.0
0
VERTEX
5
683
8
Layer1
10
66.1380
20
41.8120
30
0.0
0
VERTEX
5
684
8
Layer1
10
66.1380
20
29.8120
30
0.0
0
VERTEX
5
685
8
Layer1
10
66.9380
20
29.8120
30
0.0
0
VERTEX
5
686
8
Layer1
10
66.9380
20
28.8120
30
0.0
0
VERTEX
5
687
8
Layer1
10
80.9380
20
28.8120
30
0.0
0
VERTEX
5
688
8
Layer1
10
80.9380
20
29.8120
30
0.0
0
SEQEND
5
689
8
Layer1
0
POLYLINE
5
68a
8
Layer1
66
1
10
0.0
20
0.0
30
0.0
70
1
0
VERTEX
5
68b
8
Layer1
10
99.9880
20
29.8120
30
0.0
0
VERTEX
5
68c
8
Layer1
10
100.7880
20
29.8120
30
0.0
0
VERTEX
5
68d
8
Layer1
10
100.7880
20
41.8120
30
0.0
0
VERTEX
5
68e
8
Layer1
10
99.9880
20
41.8120
30
0.0
0
VERTEX
5
68f
8
Layer1
10
99.9880
20
42.8120
30
0.0
0
VERTEX
5
690
8
Layer1
10
85.9880
20
42.8120
30
0.0
0
VERTEX
5
691
8
Layer1
10
85.9880
20
41.8120
30
0.0
0
VERTEX
5
692
8
Layer1
10
85.1880
20
41.8120
30
0.0
0
VERTEX
5
693
8
Layer1
10
85.1880
20
29.8120
30
0.0
0
VERTEX
5
694
8
Layer1
10
85.9880
20
29.8120
30
0.0
0
VERTEX
5
695
8
Layer1
10
85.9880
20
28.8120
30
0.0
0
VERTEX
5
696
8
Layer1
10
99.9880
20
28.8120
30
0.0
0
VERTEX
5
697
8
Layer1
10
99.9880
20
29.8120
30
0.0
0
SEQEND
5
698
8
Layer1
0
POLYLINE
5
699
8
Layer1
66
1
10
0.0
20
0.0
30
0.0
70
1
0
VERTEX
5
69a
8
Layer1
10
119.0380
20
29.8120
30
0.0
0
VERTEX
5
69b
8
Layer1
10
119.8380
20
29.8120
30
0.0
0
VERTEX
5
69c
8
Layer1
10
119.8380
20
41.8120
30
0.0
0
VERTEX
5
69d
8
Layer1
10
119.0380
20
41.8120
30
0.0
0
VERTEX
5
69e
8
Layer1
10
119.0380
20
42.8120
30
0.0
0
VERTEX
5
69f
8
Layer1
10
105.0380
20
42.8120
30
0.0
0
VERTEX
5
6a0
8
Layer1
10
105.0380
20
41.8120
30
0.0
0
VERTEX
5
6a1
8
Layer1
10
104.2380
20
41.8120
30
0.0
0
VERTEX
5
6a2
8
Layer1
10
104.2380
20
29.8120
30
0.0
0
VERTEX
5
6a3
8
Layer1
10
105.0380
20
29.8120
30
0.0
0
VERTEX
5
6a4
8
Layer1
10
105.0380
20
28.8120
30
0.0
0
VERTEX
5
6a5
8
Layer1
10
119.0380
20
28.8120
30
0.0
0
VERTEX
5
6a6
8
Layer1
10
119.0380
20
29.8120
30
0.0
0
SEQEND
5
6a7
8
Layer1
0
POLYLINE
5
6a8
8
Layer1
66
1
10
0.0
20
0.0
30
0.0
70
1
0
VERTEX
5
6a9
8
Layer1
10
138.0880
20
29.8120
30
0.0
0
VERTEX
5
6aa
8
Layer1
10
138.8880
20
29.8120
30
0.0
0
VERTEX
5
6ab
8
Layer1
10
138.8880
20
41.8120
30
0.0
0
VERTEX
5
6ac
8
Layer1
10
138.0880
20
41.8120
30
0.0
0
VERTEX
5
6ad
8
Layer1
10
138.0880
20
42.8120
30
0.0
0
VERTEX
5
6ae
8
Layer1
10
124.0880
20
42.8120
30
0.0
0
VERTEX
5
6af
8
Layer1
10
124.0880
20
41.8120
30
0.0
0
VERTEX
5
6b0
8
Layer1
10
123.2880
20
41.8120
30
0.0
0
VERTEX
5
6b1
8
Layer1
10
123.2880
20
29.8120
30
0.0
0
VERTEX
5
6b2
8
Layer1
10
124.0880
20
29.8120
30
0.0
0
VERTEX
5
6b3
8
Layer1
10
124.0880
20
28.8120
30
0.0
0
VERTEX
5
6b4
8
Layer1
10
138.0880
20
28.8120
30
0.0
0
VERTEX
5
6b5
8
Layer1
10
138.0880
20
29.8120
30
0.0
0
SEQEND
5
6b6
8
Layer1
0
POLYLINE
5
6b7
8
Layer1
66
1
10
0.0
20
0.0
30
0.0
70
1
0
VERTEX
5
6b8
8
Layer1
10
157.1380
20
29.8120
30
0.0
0
VERTEX
5
6b9
8
Layer1
10
157.9380
20
29.8120
30
0.0
0
VERTEX
5
6ba
8
Layer1
10
157.9380
20
41.8120
30
0.0
0
VERTEX
5
6bb
8
Layer1
10
157.1380
20
41.8120
30
0.0
0
VERTEX
5
6bc
8
Layer1
10
157.1380
20
42.8120
30
0.0
0
VERTEX
5
6bd
8
Layer1
10
143.1380
20
42.8120
30
0.0
0
VERTEX
5
6be
8
Layer1
10
143.1380
20
41.8120
30
0.0
0
VERTEX
5
6bf
8
Layer1
10
142.3380
20
41.8120
30
0.0
0
VERTEX
5
6c0
8
Layer1
10
142.3380
20
29.8120
30
0.0
0
VERTEX
5
6c1
8
Layer1
10
143.1380
20
29.8120
30
0.0
0
VERTEX
5
6c2
8
Layer1
10
143.1380
20
28.8120
30
0.0
0
VERTEX
5
6c3
8
Layer1
10
157.1380
20
28.8120
30
0.0
0
VERTEX
5
6c4
8
Layer1
10
157.1380
20
29.8120
30
0.0
0
SEQEND
5
6c5
8
Layer1
0
POLYLINE
5
6c6
8
Layer1
66
1
10
0.0
20
0.0
30
0.0
70
1
0
VERTEX
5
6c7
8
Layer1
10
176.1880
20
29.8120
30
0.0
0
VERTEX
5
6c8
8
Layer1
10
176.9880
20
29.8120
30
0.0
0
VERTEX
5
6c9
8
Layer1
10
176.9880
20
41.8120
30
0.0
0
VERTEX
5
6ca
8
Layer1
10
176.1880
20
41.8120
30
0.0
0
VERTEX
5
6cb
8
Layer1
10
176.1880
20
42.8120
30
0.0
0
VERTEX
5
6cc
8
Layer1
10
162.1880
20
42.8120
30
0.0
0
VERTEX
5
6cd
8
Layer1
10
162.1880
20
41.8120
30
0.0
0
VERTEX
5
6ce
8
Layer1
10
161.3880
20
41.8120
30
0.0
0
VERTEX
5
6cf
8
Layer1
10
161.3880
20
29.8120
30
0.0
0
VERTEX
5
6d0
8
Layer1
10
162.1880
20
29.8120
30
0.0
0
VERTEX
5
6d1
8
Layer1
10
162.1880
20
28.8120
30
0.0
0
VERTEX
5
6d2
8
Layer1
10
176.1880
20
28.8120
30
0.0
0
VERTEX
5
6d3
8
Layer1
10
176.1880
20
29.8120
30
0.0
0
SEQEND
5
6d4
8
Layer1
0
POLYLINE
5
6d5
8
Layer1
66
1
10
0.0
20
0.0
30
0.0
70
1
0
VERTEX
5
6d6
8
Layer1
10
195.2380
20
29.8120
30
0.0
0
VERTEX
5
6d7
8
Layer1
10
196.0380
20
29.8120
30
0.0
0
VERTEX
5
6d8
8
Layer1
10
196.0380
20
41.8120
30
0.0
0
VERTEX
5
6d9
8
Layer1
10
195.2380
20
41.8120
30
0.0
0
VERTEX
5
6da
8
Layer1
10
195.2380
20
42.8120
30
0.0
0
VERTEX
5
6db
8
Layer1
10
181.2380
20
42.8120
30
0.0
0
VERTEX
5
6dc
8
Layer1
10
181.2380
20
41.8120
30
0.0
0
VERTEX
5
6dd
8
Layer1
10
180.4380
20
41.8120
30
0.0
0
VERTEX
5
6de
8
Layer1
10
180.4380
20
29.8120
30
0.0
0
VERTEX
5
6df
8
Layer1
10
181.2380
20
29.8120
30
0.0
0
VERTEX
5
6e0
8
Layer1
10
181.2380
20
28.8120
30
0.0
0
VERTEX
5
6e1
8
Layer1
10
195.2380
20
28.8120
30
0.0
0
VERTEX
5
6e2
8
Layer1
10
195.2380
20
29.8120
30
0.0
0
SEQEND
5
6e3
8
Layer1
0
POLYLINE
5
6e4
8
Layer1
66
1
10
0.0
20
0.0
30
0.0
70
1
0
VERTEX
5
6e5
8
Layer1
10
214.2880
20
29.8120
30
0.0
0
VERTEX
5
6e6
8
Layer1
10
215.0880
20
29.8120
30
0.0
0
VERTEX
5
6e7
8
Layer1
10
215.0880
20
41.8120
30
0.0
0
VERTEX
5
6e8
8
Layer1
10
214.2880
20
41.8120
30
0.0
0
VERTEX
5
6e9
8
Layer1
10
214.2880
20
42.8120
30
0.0
0
VERTEX
5
6ea
8
Layer1
10
200.2880
20
42.8120
30
0.0
0
VERTEX
5
6eb
8
Layer1
10
200.2880
20
41.8120
30
0.0
0
VERTEX
5
6ec
8
Layer1
10
199.4880
20
41.8120
30
0.0
0
VERTEX
5
6ed
8
Layer1
10
199.4880
20
29.8120
30
0.0
0
VERTEX
5
6ee
8
Layer1
10
200.2880
20
29.8120
30
0.0
0
VERTEX
5
6ef
8
Layer1
10
200.2880
20
28.8120
30
0.0
0
VERTEX
5
6f0
8
Layer1
10
214.2880
20
28.8120
30
0.0
0
VERTEX
5
6f1
8
Layer1
10
214.2880
20
29.8120
30
0.0
0
SEQEND
5
6f2
8
Layer1
0
POLYLINE
5
6f3
8
Layer1
66
1
10
0.0
20
0.0
30
0.0
70
1
0
VERTEX
5
6f4
8
Layer1
10
233.3380
20
29.8120
30
0.0
0
VERTEX
5
6f5
8
Layer1
10
234.1380
20
29.8120
30
0.0
0
VERTEX
5
6f6
8
Layer1
10
234.1380
20
41.8120
30
0.0
0
VERTEX
5
6f7
8
Layer1
10
233.3380
20
41.8120
30
0.0
0
VERTEX
5
6f8
8
Layer1
10
233.3380
20
42.8120
30
0.0
0
VERTEX
5
6f9
8
Layer1
10
219.3380
20
42.8120
30
0.0
0
VERTEX
5
6fa
8
Layer1
10
219.3380
20
41.8120
30
0.0
0
VERTEX
5
6fb
8
Layer1
10
218.5380
20
41.8120
30
0.0
0
VERTEX
5
6fc
8
Layer1
10
218.5380
20
29.8120
30
0.0
0
VERTEX
5
6fd
8
Layer1
10
219.3380
20
29.8120
30
0.0
0
VERTEX
5
6fe
8
Layer1
10
219.3380
20
28.8120
30
0.0
0
VERTEX
5
6ff
8
Layer1
10
233.3380
20
28.8120
30
0.0
0
VERTEX
5
700
8
Layer1
10
233.3380
20
29.8120
30
0.0
0
SEQEND
5
701
8
Layer1
0
POLYLINE
5
702
8
Layer1
66
1
10
0.0
20
0.0
30
0.0
70
1
0
VERTEX
5
703
8
Layer1
10
259.5310
20
29.8120
30
0.0
0
VERTEX
5
704
8
Layer1
10
260.3310
20
29.8120
30
0.0
0
VERTEX
5
705
8
Layer1
10
260.3310
20
41.8120
30
0.0
0
VERTEX
5
706
8
Layer1
10
259.5310
20
41.8120
30
0.0
0
VERTEX
5
707
8
Layer1
10
259.5310
20
42.8120
30
0.0
0
VERTEX
5
708
8
Layer1
10
245.5310
20
42.8120
30
0.0
0
VERTEX
5
709
8
Layer1
10
245.5310
20
41.8120
30
0.0
0
VERTEX
5
70a
8
Layer1
10
244.7310
20
41.8120
30
0.0
0
VERTEX
5
70b
8
Layer1
10
244.7310
20
29.8120
30
0.0
0
VERTEX
5
70c
8
Layer1
10
245.5310
20
29.8120
30
0.0
0
VERTEX
5
70d
8
Layer1
10
245.5310
20
28.8120
30
0.0
0
VERTEX
5
70e
8
Layer1
10
259.5310
20
28.8120
30
0.0
0
VERTEX
5
70f
8
Layer1
10
259.5310
20
29.8120
30
0.0
0
SEQEND
5
710
8
Layer1
0
POLYLINE
5
711
8
Layer1
66
1
10
0.0
20
0.0
30
0.0
70
1
0
VERTEX
5
712
8
Layer1
10
290.4880
20
25.0500
30
0.0
0
VERTEX
5
713
8
Layer1
10
291.2880
20
25.0500
30
0.0
0
VERTEX
5
714
8
Layer1
10
291.2880
20
37.0500
30
0.0
0
VERTEX
5
715
8
Layer1
10
290.4880
20
37.0500
30
0.0
0
VERTEX
5
716
8
Layer1
10
290.4880
20
38.0500
30
0.0
0
VERTEX
5
717
8
Layer1
10
276.4880
20
38.0500
30
0.0
0
VERTEX
5
718
8
Layer1
10
276.4880
20
37.0500
30
0.0
0
VERTEX
5
719
8
Layer1
10
275.6880
20
37.0500
30
0.0
0
VERTEX
5
71a
8
Layer1
10
275.6880
20
25.0500
30
0.0
0
VERTEX
5
71b
8
Layer1
10
276.4880
20
25.0500
30
0.0
0
VERTEX
5
71c
8
Layer1
10
276.4880
20
24.0500
30
0.0
0
VERTEX
5
71d
8
Layer1
10
290.4880
20
24.0500
30
0.0
0
VERTEX
5
71e
8
Layer1
10
290.4880
20
25.0500
30
0.0
0
SEQEND
5
71f
8
Layer1
0
POLYLINE
5
720
8
Layer1
66
1
10
0.0
20
0.0
30
0.0
70
1
0
VERTEX
5
721
8
Layer1
10
19.0250
20
10.7620
30
0.0
0
VERTEX
5
722
8
Layer1
10
19.8250
20
10.7620
30
0.0
0
VERTEX
5
723
8
Layer1
10
19.8250
20
22.7620
30
0.0
0
VERTEX
5
724
8
Layer1
10
19.0250
20
22.7620
30
0.0
0
VERTEX
5
725
8
Layer1
10
19.0250
20
23.7620
30
0.0
0
VERTEX
5
726
8
Layer1
10
5.0250
20
23.7620
30
0.0
0
VERTEX
5
727
8
Layer1
10
5.0250
20
22.7620
30
0.0
0
VERTEX
5
728
8
Layer1
10
4.2250
20
22.7620
30
0.0
0
VERTEX
5
729
8
Layer1
10
4.2250
20
10.7620
30
0.0
0
VERTEX
5
72a
8
Layer1
10
5.0250
20
10.7620
30
0.0
0
VERTEX
5
72b
8
Layer1
10
5.0250
20
9.7620
30
0.0
0
VERTEX
5
72c
8
Layer1
10
19.0250
20
9.7620
30
0.0
0
VERTEX
5
72d
8
Layer1
10
19.0250
20
10.7620
30
0.0
0
SEQEND
5
72e
8
Layer1
0
POLYLINE
5
72f
8
Layer1
66
1
10
0.0
20
0.0
30
0.0
70
1
0
VERTEX
5
730
8
Layer1
10
38.0750
20
10.7620
30
0.0
0
VERTEX
5
731
8
Layer1
10
38.8750
20
10.7620
30
0.0
0
VERTEX
5
732
8
Layer1
10
38.8750
20
22.7620
30
0.0
0
VERTEX
5
733
8
Layer1
10
38.0750
20
22.7620
30
0.0
0
VERTEX
5
734
8
Layer1
10
38.0750
20
23.7620
30
0.0
0
VERTEX
5
735
8
Layer1
10
24.0750
20
23.7620
30
0.0
0
VERTEX
5
736
8
Layer1
10
24.0750
20
22.7620
30
0.0
0
VERTEX
5
737
8
Layer1
10
23.2750
20
22.7620
30
0.0
0
VERTEX
5
738
8
Layer1
10
23.2750
20
10.7620
30
0.0
0
VERTEX
5
739
8
Layer1
10
24.0750
20
10.7620
30
0.0
0
VERTEX
5
73a
8
Layer1
10
24.0750
20
9.7620
30
0.0
0
VERTEX
5
73b
8
Layer1
10
38.0750
20
9.7620
30
0.0
0
VERTEX
5
73c
8
Layer1
10
38.0750
20
10.7620
30
0.0
0
SEQEND
5
73d
8
Layer1
0
POLYLINE
5
73e
8
Layer1
66
1
10
0.0
20
0.0
30
0.0
70
1
0
VERTEX
5
73f
8
Layer1
10
57.1250
20
10.7620
30
0.0
0
VERTEX
5
740
8
Layer1
10
57.9250
20
10.7620
30
0.0
0
VERTEX
5
741
8
Layer1
10
57.9250
20
22.7620
30
0.0
0
VERTEX
5
742
8
Layer1
10
57.1250
20
22.7620
30
0.0
0
VERTEX
5
743
8
Layer1
10
57.1250
20
23.7620
30
0.0
0
VERTEX
5
744
8
Layer1
10
43.1250
20
23.7620
30
0.0
0
VERTEX
5
745
8
Layer1
10
43.1250
20
22.7620
30
0.0
0
VERTEX
5
746
8
Layer1
10
42.3250
20
22.7620
30
0.0
0
VERTEX
5
747
8
Layer1
10
42.3250
20
10.7620
30
0.0
0
VERTEX
5
748
8
Layer1
10
43.1250
20
10.7620
30
0.0
0
VERTEX
5
749
8
Layer1
10
43.1250
20
9.7620
30
0.0
0
VERTEX
5
74a
8
Layer1
10
57.1250
20
9.7620
30
0.0
0
VERTEX
5
74b
8
Layer1
10
57.1250
20
10.7620
30
0.0
0
SEQEND
5
74c
8
Layer1
0
POLYLINE
5
74d
8
Layer1
66
1
10
0.0
20
0.0
30
0.0
70
1
0
VERTEX
5
74e
8
Layer1
10
78.5560
20
10.7620
30
0.0
0
VERTEX
5
74f
8
Layer1
10
79.3560
20
10.7620
30
0.0
0
VERTEX
5
750
8
Layer1
10
79.3560
20
22.7620
30
0.0
0
VERTEX
5
751
8
Layer1
10
78.5560
20
22.7620
30
0.0
0
VERTEX
5
752
8
Layer1
10
78.5560
20
23.7620
30
0.0
0
VERTEX
5
753
8
Layer1
10
64.5560
20
23.7620
30
0.0
0
VERTEX
5
754
8
Layer1
10
64.5560
20
22.7620
30
0.0
0
VERTEX
5
755
8
Layer1
10
63.7560
20
22.7620
30
0.0
0
VERTEX
5
756
8
Layer1
10
63.7560
20
10.7620
30
0.0
0
VERTEX
5
757
8
Layer1
10
64.5560
20
10.7620
30
0.0
0
VERTEX
5
758
8
Layer1
10
64.5560
20
9.7620
30
0.0
0
VERTEX
5
759
8
Layer1
10
78.5560
20
9.7620
30
0.0
0
VERTEX
5
75a
8
Layer1
10
78.5560
20
10.7620
30
0.0
0
SEQEND
5
75b
8
Layer1
0
POLYLINE
5
75c
8
Layer1
66
1
10
0.0
20
0.0
30
0.0
70
1
0
VERTEX
5
75d
8
Layer1
10
94.4940
20
9.9920
30
0.0
0
VERTEX
5
75e
8
Layer1
10
96.3190
20
9.9920
30
0.0
0
VERTEX
5
75f
8
Layer1
10
96.3190
20
14.4630
30
0.0
0
VERTEX
5
760
8
Layer1
10
135.1940
20
14.4630
30
0.0
0
VERTEX
5
761
8
Layer1
10
135.1940
20
10.7620
30
0.0
0
VERTEX
5
762
8
Layer1
10
135.9940
20
10.7620
30
0.0
0
VERTEX
5
763
8
Layer1
10
135.9940
20
9.7620
30
0.0
0
VERTEX
5
764
8
Layer1
10
149.9940
20
9.7620
30
0.0
0
VERTEX
5
765
8
Layer1
10
149.9940
20
10.7620
30
0.0
0
VERTEX
5
766
8
Layer1
10
150.7940
20
10.7620
30
0.0
0
VERTEX
5
767
8
Layer1
10
150.7940
20
14.4630
30
0.0
0
VERTEX
5
768
8
Layer1
10
189.6690
20
14.4630
30
0.0
0
VERTEX
5
769
8
Layer1
10
189.6690
20
9.9920
30
0.0
0
VERTEX
5
76a
8
Layer1
10
191.4940
20
9.9920
30
0.0
0
VERTEX
5
76b
8
Layer1
10
191.4940
20
8.7920
30
0.0
0
VERTEX
5
76c
8
Layer1
10
194.4940
20
8.7920
30
0.0
0
VERTEX
5
76d
8
Layer1
10
194.4940
20
9.9920
30
0.0
0
VERTEX
5
76e
8
Layer1
10
196.3190
20
9.9920
30
0.0
0
VERTEX
5
76f
8
Layer1
10
196.3190
20
16.2620
30
0.0
0
VERTEX
5
770
8
Layer1
10
197.2190
20
16.2620
30
0.0
0
VERTEX
5
771
8
Layer1
10
197.2190
20
19.0630
30
0.0
0
VERTEX
5
772
8
Layer1
10
196.3190
20
19.0630
30
0.0
0
VERTEX
5
773
8
Layer1
10
196.3190
20
22.2920
30
0.0
0
VERTEX
5
774
8
Layer1
10
189.6690
20
22.2920
30
0.0
0
VERTEX
5
775
8
Layer1
10
189.6690
20
19.0630
30
0.0
0
VERTEX
5
776
8
Layer1
10
188.7690
20
19.0630
30
0.0
0
VERTEX
5
777
8
Layer1
10
188.7690
20
19.0620
30
0.0
0
VERTEX
5
778
8
Layer1
10
150.7940
20
19.0620
30
0.0
0
VERTEX
5
779
8
Layer1
10
150.7940
20
22.7620
30
0.0
0
VERTEX
5
77a
8
Layer1
10
149.9940
20
22.7620
30
0.0
0
VERTEX
5
77b
8
Layer1
10
149.9940
20
23.7620
30
0.0
0
VERTEX
5
77c
8
Layer1
10
135.9940
20
23.7620
30
0.0
0
VERTEX
5
77d
8
Layer1
10
135.9940
20
22.7620
30
0.0
0
VERTEX
5
77e
8
Layer1
10
135.1940
20
22.7620
30
0.0
0
VERTEX
5
77f
8
Layer1
10
135.1940
20
19.0620
30
0.0
0
VERTEX
5
780
8
Layer1
10
97.2190
20
19.0620
30
0.0
0
VERTEX
5
781
8
Layer1
10
97.2190
20
19.0630
30
0.0
0
VERTEX
5
782
8
Layer1
10
96.3190
20
19.0630
30
0.0
0
VERTEX
5
783
8
Layer1
10
96.3190
20
22.2920
30
0.0
0
VERTEX
5
784
8
Layer1
10
89.6690
20
22.2920
30
0.0
0
VERTEX
5
785
8
Layer1
10
89.6690
20
19.0630
30
0.0
0
VERTEX
5
786
8
Layer1
10
88.7690
20
19.0630
30
0.0
0
VERTEX
5
787
8
Layer1
10
88.7690
20
16.2620
30
0.0
0
VERTEX
5
788
8
Layer1
10
89.6690
20
16.2620
30
0.0
0
VERTEX
5
789
8
Layer1
10
89.6690
20
9.9920
30
0.0
0
VERTEX
5
78a
8
Layer1
10
91.4940
20
9.9920
30
0.0
0
VERTEX
5
78b
8
Layer1
10
91.4940
20
8.7920
30
0.0
0
VERTEX
5
78c
8
Layer1
10
94.4940
20
8.7920
30
0.0
0
VERTEX
5
78d
8
Layer1
10
94.4940
20
9.9920
30
0.0
0
SEQEND
5
78e
8
Layer1
0
POLYLINE
5
78f
8
Layer1
66
1
10
0.0
20
0.0
30
0.0
70
1
0
VERTEX
5
790
8
Layer1
10
221.4310
20
10.7620
30
0.0
0
VERTEX
5
791
8
Layer1
10
222.2310
20
10.7620
30
0.0
0
VERTEX
5
792
8
Layer1
10
222.2310
20
22.7620
30
0.0
0
VERTEX
5
793
8
Layer1
10
221.4310
20
22.7620
30
0.0
0
VERTEX
5
794
8
Layer1
10
221.4310
20
23.7620
30
0.0
0
VERTEX
5
795
8
Layer1
10
207.4310
20
23.7620
30
0.0
0
VERTEX
5
796
8
Layer1
10
207.4310
20
22.7620
30
0.0
0
VERTEX
5
797
8
Layer1
10
206.6310
20
22.7620
30
0.0
0
VERTEX
5
798
8
Layer1
10
206.6310
20
10.7620
30
0.0
0
VERTEX
5
799
8
Layer1
10
207.4310
20
10.7620
30
0.0
0
VERTEX
5
79a
8
Layer1
10
207.4310
20
9.7620
30
0.0
0
VERTEX
5
79b
8
Layer1
10
221.4310
20
9.7620
30
0.0
0
VERTEX
5
79c
8
Layer1
10
221.4310
20
10.7620
30
0.0
0
SEQEND
5
79d
8
Layer1
0
POLYLINE
5
79e
8
Layer1
66
1
10
0.0
20
0.0
30
0.0
70
1
0
VERTEX
5
79f
8
Layer1
10
245.2440
20
10.7620
30
0.0
0
VERTEX
5
7a0
8
Layer1
10
246.0440
20
10.7620
30
0.0
0
VERTEX
5
7a1
8
Layer1
10
246.0440
20
22.7620
30
0.0
0
VERTEX
5
7a2
8
Layer1
10
245.2440
20
22.7620
30
0.0
0
VERTEX
5
7a3
8
Layer1
10
245.2440
20
23.7620
30
0.0
0
VERTEX
5
7a4
8
Layer1
10
231.2440
20
23.7620
30
0.0
0
VERTEX
5
7a5
8
Layer1
10
231.2440
20
22.7620
30
0.0
0
VERTEX
5
7a6
8
Layer1
10
230.4440
20
22.7620
30
0.0
0
VERTEX
5
7a7
8
Layer1
10
230.4440
20
10.7620
30
0.0
0
VERTEX
5
7a8
8
Layer1
10
231.2440
20
10.7620
30
0.0
0
VERTEX
5
7a9
8
Layer1
10
231.2440
20
9.7620
30
0.0
0
VERTEX
5
7aa
8
Layer1
10
245.2440
20
9.7620
30
0.0
0
VERTEX
5
7ab
8
Layer1
10
245.2440
20
10.7620
30
0.0
0
SEQEND
5
7ac
8
Layer1
0
POLYLINE
5
7ad
8
Layer1
66
1
10
0.0
20
0.0
30
0.0
70
1
0
VERTEX
5
7ae
8
Layer1
10
271.4380
20
6.0000
30
0.0
0
VERTEX
5
7af
8
Layer1
10
272.2380
20
6.0000
30
0.0
0
VERTEX
5
7b0
8
Layer1
10
272.2380
20
18.0000
30
0.0
0
VERTEX
5
7b1
8
Layer1
10
271.4380
20
18.0000
30
0.0
0
VERTEX
5
7b2
8
Layer1
10
271.4380
20
19.0000
30
0.0
0
VERTEX
5
7b3
8
Layer1
10
257.4380
20
19.0000
30
0.0
0
VERTEX
5
7b4
8
Layer1
10
257.4380
20
18.0000
30
0.0
0
VERTEX
5
7b5
8
Layer1
10
256.6380
20
18.0000
30
0.0
0
VERTEX
5
7b6
8
Layer1
10
256.6380
20
6.0000
30
0.0
0
VERTEX
5
7b7
8
Layer1
10
257.4380
20
6.0000
30
0.0
0
VERTEX
5
7b8
8
Layer1
10
257.4380
20
5.0000
30
0.0
0
VERTEX
5
7b9
8
Layer1
10
271.4380
20
5.0000
30
0.0
0
VERTEX
5
7ba
8
Layer1
10
271.4380
20
6.0000
30
0.0
0
SEQEND
5
7bb
8
Layer1
0
POLYLINE
5
7bc
8
Layer1
66
1
10
0.0
20
0.0
30
0.0
70
1
0
VERTEX
5
7bd
8
Layer1
10
290.4880
20
6.0000
30
0.0
0
VERTEX
5
7be
8
Layer1
10
291.2880
20
6.0000
30
0.0
0
VERTEX
5
7bf
8
Layer1
10
291.2880
20
18.0000
30
0.0
0
VERTEX
5
7c0
8
Layer1
10
290.4880
20
18.0000
30
0.0
0
VERTEX
5
7c1
8
Layer1
10
290.4880
20
19.0000
30
0.0
0
VERTEX
5
7c2
8
Layer1
10
276.4880
20
19.0000
30
0.0
0
VERTEX
5
7c3
8
Layer1
10
276.4880
20
18.0000
30
0.0
0
VERTEX
5
7c4
8
Layer1
10
275.6880
20
18.0000
30
0.0
0
VERTEX
5
7c5
8
Layer1
10
275.6880
20
6.0000
30
0.0
0
VERTEX
5
7c6
8
Layer1
10
276.4880
20
6.0000
30
0.0
0
VERTEX
5
7c7
8
Layer1
10
276.4880
20
5.0000
30
0.0
0
VERTEX
5
7c8
8
Layer1
10
290.4880
20
5.0000
30
0.0
0
VERTEX
5
7c9
8
Layer1
10
290.4880
20
6.0000
30
0.0
0
SEQEND
5
7ca
8
Layer1
0
POLYLINE
5
7cb
8
Layer1
66
1
10
0.0
20
0.0
30
0.0
70
1
0
VERTEX
5
7cc
8
Layer1
10
309.5370
20
6.0000
30
0.0
0
VERTEX
5
7cd
8
Layer1
10
310.3380
20
6.0000
30
0.0
0
VERTEX
5
7ce
8
Layer1
10
310.3380
20
18.0000
30
0.0
0
VERTEX
5
7cf
8
Layer1
10
309.5370
20
18.0000
30
0.0
0
VERTEX
5
7d0
8
Layer1
10
309.5370
20
19.0000
30
0.0
0
VERTEX
5
7d1
8
Layer1
10
295.5370
20
19.0000
30
0.0
0
VERTEX
5
7d2
8
Layer1
10
295.5370
20
18.0000
30
0.0
0
VERTEX
5
7d3
8
Layer1
10
294.7370
20
18.0000
30
0.0
0
VERTEX
5
7d4
8
Layer1
10
294.7370
20
6.0000
30
0.0
0
VERTEX
5
7d5
8
Layer1
10
295.5370
20
6.0000
30
0.0
0
VERTEX
5
7d6
8
Layer1
10
295.5370
20
5.0000
30
0.0
0
VERTEX
5
7d7
8
Layer1
10
309.5370
20
5.0000
30
0.0
0
VERTEX
5
7d8
8
Layer1
10
309.5370
20
6.0000
30
0.0
0
SEQEND
5
7d9
8
Layer1
0
ENDSEC
0
EOF
