0
SECTION
2
HEADER
9
$INSUNITS
70
4
9
$INSBASE
10
0.0
20
0.0
30
0.0
9
$EXTMIN
10
0
20
0
9
$EXTMAX
10
314.53749999999997
20
128.8
0
ENDSEC
0
SECTION
2
TABLES
0
TABLE
2
LTYPE
70
1
0
LTYPE
2
CONTINUOUS
70
64
3
Solid line
72
65
73
0
40
0.0
0
ENDTAB
0
TABLE
2
LAYER
70
1
0
LAYER
2
Layer1
70
64
62
7
6
CONTINUOUS
0
ENDTAB
0
TABLE
2
STYLE
70
0
0
ENDTAB
0
TABLE
2
VIEW
70
0
0
ENDTAB
0
ENDSEC
0
SECTION
2
BLOCKS
0
ENDSEC
0
SECTION
2
ENTITIES
0
POLYLINE
5
7da
8
Layer1
66
1
10
0.0
20
0.0
30
0.0
70
1
0
VERTEX
5
7db
8
Layer1
10
0.0000
20
0.0000
30
0.0
0
VERTEX
5
7dc
8
Layer1
10
314.5375
20
0.0000
30
0.0
0
VERTEX
5
7dd
8
Layer1
10
314.5375
20
128.8000
30
0.0
0
VERTEX
5
7de
8
Layer1
10
0.0000
20
128.8000
30
0.0
0
VERTEX
5
7df
8
Layer1
10
0.0000
20
0.0000
30
0.0
0
SEQEND
5
7e0
8
Layer1
0
POLYLINE
5
7e1
8
Layer1
66
1
10
0.0
20
0.0
30
0.0
70
1
0
VERTEX
5
7e2
8
Layer1
10
19.0250
20
110.7750
30
0.0
0
VERTEX
5
7e3
8
Layer1
10
19.8250
20
110.7750
30
0.0
0
VERTEX
5
7e4
8
Layer1
10
19.8250
20
114.2750
30
0.0
0
VERTEX
5
7e5
8
Layer1
10
19.0250
20
114.2750
30
0.0
0
VERTEX
5
7e6
8
Layer1
10
19.0250
20
119.2750
30
0.0
0
VERTEX
5
7e7
8
Layer1
10
19.8250
20
119.2750
30
0.0
0
VERTEX
5
7e8
8
Layer1
10
19.8250
20
122.7750
30
0.0
0
VERTEX
5
7e9
8
Layer1
10
19.0250
20
122.7750
30
0.0
0
VERTEX
5
7ea
8
Layer1
10
19.0250
20
123.7750
30
0.0
0
VERTEX
5
7eb
8
Layer1
10
5.0250
20
123.7750
30
0.0
0
VERTEX
5
7ec
8
Layer1
10
5.0250
20
122.7750
30
0.0
0
VERTEX
5
7ed
8
Layer1
10
4.2250
20
122.7750
30
0.0
0
VERTEX
5
7ee
8
Layer1
10
4.2250
20
119.2750
30
0.0
0
VERTEX
5
7ef
8
Layer1
10
5.0250
20
119.2750
30
0.0
0
VERTEX
5
7f0
8
Layer1
10
5.0250
20
114.2750
30
0.0
0
VERTEX
5
7f1
8
Layer1
10
4.2250
20
114.2750
30
0.0
0
VERTEX
5
7f2
8
Layer1
10
4.2250
20
110.7750
30
0.0
0
VERTEX
5
7f3
8
Layer1
10
5.0250
20
110.7750
30
0.0
0
VERTEX
5
7f4
8
Layer1
10
5.0250
20
109.7750
30
0.0
0
VERTEX
5
7f5
8
Layer1
10
19.0250
20
109.7750
30
0.0
0
VERTEX
5
7f6
8
Layer1
10
19.0250
20
110.7750
30
0.0
0
SEQEND
5
7f7
8
Layer1
0
POLYLINE
5
7f8
8
Layer1
66
1
10
0.0
20
0.0
30
0.0
70
1
0
VERTEX
5
7f9
8
Layer1
10
47.6000
20
110.7750
30
0.0
0
VERTEX
5
7fa
8
Layer1
10
48.4000
20
110.7750
30
0.0
0
VERTEX
5
7fb
8
Layer1
10
48.4000
20
114.2750
30
0.0
0
VERTEX
5
7fc
8
Layer1
10
47.6000
20
114.2750
30
0.0
0
VERTEX
5
7fd
8
Layer1
10
47.6000
20
119.2750
30
0.0
0
VERTEX
5
7fe
8
Layer1
10
48.4000
20
119.2750
30
0.0
0
VERTEX
5
7ff
8
Layer1
10
48.4000
20
122.7750
30
0.0
0
VERTEX
5
800
8
Layer1
10
47.6000
20
122.7750
30
0.0
0
VERTEX
5
801
8
Layer1
10
47.6000
20
123.7750
30
0.0
0
VERTEX
5
802
8
Layer1
10
33.6000
20
123.7750
30
0.0
0
VERTEX
5
803
8
Layer1
10
33.6000
20
122.7750
30
0.0
0
VERTEX
5
804
8
Layer1
10
32.8000
20
122.7750
30
0.0
0
VERTEX
5
805
8
Layer1
10
32.8000
20
119.2750
30
0.0
0
VERTEX
5
806
8
Layer1
10
33.6000
20
119.2750
30
0.0
0
VERTEX
5
807
8
Layer1
10
33.6000
20
114.2750
30
0.0
0
VERTEX
5
808
8
Layer1
10
32.8000
20
114.2750
30
0.0
0
VERTEX
5
809
8
Layer1
10
32.8000
20
110.7750
30
0.0
0
VERTEX
5
80a
8
Layer1
10
33.6000
20
110.7750
30
0.0
0
VERTEX
5
80b
8
Layer1
10
33.6000
20
109.7750
30
0.0
0
VERTEX
5
80c
8
Layer1
10
47.6000
20
109.7750
30
0.0
0
VERTEX
5
80d
8
Layer1
10
47.6000
20
110.7750
30
0.0
0
SEQEND
5
80e
8
Layer1
0
POLYLINE
5
80f
8
Layer1
66
1
10
0.0
20
0.0
30
0.0
70
1
0
VERTEX
5
810
8
Layer1
10
66.6500
20
110.7750
30
0.0
0
VERTEX
5
811
8
Layer1
10
67.4500
20
110.7750
30
0.0
0
VERTEX
5
812
8
Layer1
10
67.4500
20
114.2750
30
0.0
0
VERTEX
5
813
8
Layer1
10
66.6500
20
114.2750
30
0.0
0
VERTEX
5
814
8
Layer1
10
66.6500
20
119.2750
30
0.0
0
VERTEX
5
815
8
Layer1
10
67.4500
20
119.2750
30
0.0
0
VERTEX
5
816
8
Layer1
10
67.4500
20
122.7750
30
0.0
0
VERTEX
5
817
8
Layer1
10
66.6500
20
122.7750
30
0.0
0
VERTEX
5
818
8
Layer1
10
66.6500
20
123.7750
30
0.0
0
VERTEX
5
819
8
Layer1
10
52.6500
20
123.7750
30
0.0
0
VERTEX
5
81a
8
Layer1
10
52.6500
20
122.7750
30
0.0
0
VERTEX
5
81b
8
Layer1
10
51.8500
20
122.7750
30
0.0
0
VERTEX
5
81c
8
Layer1
10
51.8500
20
119.2750
30
0.0
0
VERTEX
5
81d
8
Layer1
10
52.6500
20
119.2750
30
0.0
0
VERTEX
5
81e
8
Layer1
10
52.6500
20
114.2750
30
0.0
0
VERTEX
5
81f
8
Layer1
10
51.8500
20
114.2750
30
0.0
0
VERTEX
5
820
8
Layer1
10
51.8500
20
110.7750
30
0.0
0
VERTEX
5
821
8
Layer1
10
52.6500
20
110.7750
30
0.0
0
VERTEX
5
822
8
Layer1
10
52.6500
20
109.7750
30
0.0
0
VERTEX
5
823
8
Layer1
10
66.6500
20
109.7750
30
0.0
0
VERTEX
5
824
8
Layer1
10
66.6500
20
110.7750
30
0.0
0
SEQEND
5
825
8
Layer1
0
POLYLINE
5
826
8
Layer1
66
1
10
0.0
20
0.0
30
0.0
70
1
0
VERTEX
5
827
8
Layer1
10
85.7000
20
110.7750
30
0.0
0
VERTEX
5
828
8
Layer1
10
86.5000
20
110.7750
30
0.0
0
VERTEX
5
829
8
Layer1
10
86.5000
20
114.2750
30
0.0
0
VERTEX
5
82a
8
Layer1
10
85.7000
20
114.2750
30
0.0
0
VERTEX
5
82b
8
Layer1
10
85.7000
20
119.2750
30
0.0
0
VERTEX
5
82c
8
Layer1
10
86.5000
20
119.2750
30
0.0
0
VERTEX
5
82d
8
Layer1
10
86.5000
20
122.7750
30
0.0
0
VERTEX
5
82e
8
Layer1
10
85.7000
20
122.7750
30
0.0
0
VERTEX
5
82f
8
Layer1
10
85.7000
20
123.7750
30
0.0
0
VERTEX
5
830
8
Layer1
10
71.7000
20
123.7750
30
0.0
0
VERTEX
5
831
8
Layer1
10
71.7000
20
122.7750
30
0.0
0
VERTEX
5
832
8
Layer1
10
70.9000
20
122.7750
30
0.0
0
VERTEX
5
833
8
Layer1
10
70.9000
20
119.2750
30
0.0
0
VERTEX
5
834
8
Layer1
10
71.7000
20
119.2750
30
0.0
0
VERTEX
5
835
8
Layer1
10
71.7000
20
114.2750
30
0.0
0
VERTEX
5
836
8
Layer1
10
70.9000
20
114.2750
30
0.0
0
VERTEX
5
837
8
Layer1
10
70.9000
20
110.7750
30
0.0
0
VERTEX
5
838
8
Layer1
10
71.7000
20
110.7750
30
0.0
0
VERTEX
5
839
8
Layer1
10
71.7000
20
109.7750
30
0.0
0
VERTEX
5
83a
8
Layer1
10
85.7000
20
109.7750
30
0.0
0
VERTEX
5
83b
8
Layer1
10
85.7000
20
110.7750
30
0.0
0
SEQEND
5
83c
8
Layer1
0
POLYLINE
5
83d
8
Layer1
66
1
10
0.0
20
0.0
30
0.0
70
1
0
VERTEX
5
83e
8
Layer1
10
104.7500
20
110.7750
30
0.0
0
VERTEX
5
83f
8
Layer1
10
105.5500
20
110.7750
30
0.0
0
VERTEX
5
840
8
Layer1
10
105.5500
20
114.2750
30
0.0
0
VERTEX
5
841
8
Layer1
10
104.7500
20
114.2750
30
0.0
0
VERTEX
5
842
8
Layer1
10
104.7500
20
119.2750
30
0.0
0
VERTEX
5
843
8
Layer1
10
105.5500
20
119.2750
30
0.0
0
VERTEX
5
844
8
Layer1
10
105.5500
20
122.7750
30
0.0
0
VERTEX
5
845
8
Layer1
10
104.7500
20
122.7750
30
0.0
0
VERTEX
5
846
8
Layer1
10
104.7500
20
123.7750
30
0.0
0
VERTEX
5
847
8
Layer1
10
90.7500
20
123.7750
30
0.0
0
VERTEX
5
848
8
Layer1
10
90.7500
20
122.7750
30
0.0
0
VERTEX
5
849
8
Layer1
10
89.9500
20
122.7750
30
0.0
0
VERTEX
5
84a
8
Layer1
10
89.9500
20
119.2750
30
0.0
0
VERTEX
5
84b
8
Layer1
10
90.7500
20
119.2750
30
0.0
0
VERTEX
5
84c
8
Layer1
10
90.7500
20
114.2750
30
0.0
0
VERTEX
5
84d
8
Layer1
10
89.9500
20
114.2750
30
0.0
0
VERTEX
5
84e
8
Layer1
10
89.9500
20
110.7750
30
0.0
0
VERTEX
5
84f
8
Layer1
10
90.7500
20
110.7750
30
0.0
0
VERTEX
5
850
8
Layer1
10
90.7500
20
109.7750
30
0.0
0
VERTEX
5
851
8
Layer1
10
104.7500
20
109.7750
30
0.0
0
VERTEX
5
852
8
Layer1
10
104.7500
20
110.7750
30
0.0
0
SEQEND
5
853
8
Layer1
0
POLYLINE
5
854
8
Layer1
66
1
10
0.0
20
0.0
30
0.0
70
1
0
VERTEX
5
855
8
Layer1
10
138.0880
20
110.7750
30
0.0
0
VERTEX
5
856
8
Layer1
10
138.8880
20
110.7750
30
0.0
0
VERTEX
5
857
8
Layer1
10
138.8880
20
114.2750
30
0.0
0
VERTEX
5
858
8
Layer1
10
138.0880
20
114.2750
30
0.0
0
VERTEX
5
859
8
Layer1
10
138.0880
20
119.2750
30
0.0
0
VERTEX
5
85a
8
Layer1
10
138.8880
20
119.2750
30
0.0
0
VERTEX
5
85b
8
Layer1
10
138.8880
20
122.7750
30
0.0
0
VERTEX
5
85c
8
Layer1
10
138.0880
20
122.7750
30
0.0
0
VERTEX
5
85d
8
Layer1
10
138.0880
20
123.7750
30
0.0
0
VERTEX
5
85e
8
Layer1
10
124.0880
20
123.7750
30
0.0
0
VERTEX
5
85f
8
Layer1
10
124.0880
20
122.7750
30
0.0
0
VERTEX
5
860
8
Layer1
10
123.2880
20
122.7750
30
0.0
0
VERTEX
5
861
8
Layer1
10
123.2880
20
119.2750
30
0.0
0
VERTEX
5
862
8
Layer1
10
124.0880
20
119.2750
30
0.0
0
VERTEX
5
863
8
Layer1
10
124.0880
20
114.2750
30
0.0
0
VERTEX
5
864
8
Layer1
10
123.2880
20
114.2750
30
0.0
0
VERTEX
5
865
8
Layer1
10
123.2880
20
110.7750
30
0.0
0
VERTEX
5
866
8
Layer1
10
124.0880
20
110.7750
30
0.0
0
VERTEX
5
867
8
Layer1
10
124.0880
20
109.7750
30
0.0
0
VERTEX
5
868
8
Layer1
10
138.0880
20
109.7750
30
0.0
0
VERTEX
5
869
8
Layer1
10
138.0880
20
110.7750
30
0.0
0
SEQEND
5
86a
8
Layer1
0
POLYLINE
5
86b
8
Layer1
66
1
10
0.0
20
0.0
30
0.0
70
1
0
VERTEX
5
86c
8
Layer1
10
157.1380
20
110.7750
30
0.0
0
VERTEX
5
86d
8
Layer1
10
157.9380
20
110.7750
30
0.0
0
VERTEX
5
86e
8
Layer1
10
157.9380
20
114.2750
30
0.0
0
VERTEX
5
86f
8
Layer1
10
157.1380
20
114.2750
30
0.0
0
VERTEX
5
870
8
Layer1
10
157.1380
20
119.2750
30
0.0
0
VERTEX
5
871
8
Layer1
10
157.9380
20
119.2750
30
0.0
0
VERTEX
5
872
8
Layer1
10
157.9380
20
122.7750
30
0.0
0
VERTEX
5
873
8
Layer1
10
157.1380
20
122.7750
30
0.0
0
VERTEX
5
874
8
Layer1
10
157.1380
20
123.7750
30
0.0
0
VERTEX
5
875
8
Layer1
10
143.1380
20
123.7750
30
0.0
0
VERTEX
5
876
8
Layer1
10
143.1380
20
122.7750
30
0.0
0
VERTEX
5
877
8
Layer1
10
142.3380
20
122.7750
30
0.0
0
VERTEX
5
878
8
Layer1
10
142.3380
20
119.2750
30
0.0
0
VERTEX
5
879
8
Layer1
10
143.1380
20
119.2750
30
0.0
0
VERTEX
5
87a
8
Layer1
10
143.1380
20
114.2750
30
0.0
0
VERTEX
5
87b
8
Layer1
10
142.3380
20
114.2750
30
0.0
0
VERTEX
5
87c
8
Layer1
10
142.3380
20
110.7750
30
0.0
0
VERTEX
5
87d
8
Layer1
10
143.1380
20
110.7750
30
0.0
0
VERTEX
5
87e
8
Layer1
10
143.1380
20
109.7750
30
0.0
0
VERTEX
5
87f
8
Layer1
10
157.1380
20
109.7750
30
0.0
0
VERTEX
5
880
8
Layer1
10
157.1380
20
110.7750
30
0.0
0
SEQEND
5
881
8
Layer1
0
POLYLINE
5
882
8
Layer1
66
1
10
0.0
20
0.0
30
0.0
70
1
0
VERTEX
5
883
8
Layer1
10
176.1880
20
110.7750
30
0.0
0
VERTEX
5
884
8
Layer1
10
176.9880
20
110.7750
30
0.0
0
VERTEX
5
885
8
Layer1
10
176.9880
20
114.2750
30
0.0
0
VERTEX
5
886
8
Layer1
10
176.1880
20
114.2750
30
0.0
0
VERTEX
5
887
8
Layer1
10
176.1880
20
119.2750
30
0.0
0
VERTEX
5
888
8
Layer1
10
176.9880
20
119.2750
30
0.0
0
VERTEX
5
889
8
Layer1
10
176.9880
20
122.7750
30
0.0
0
VERTEX
5
88a
8
Layer1
10
176.1880
20
122.7750
30
0.0
0
VERTEX
5
88b
8
Layer1
10
176.1880
20
123.7750
30
0.0
0
VERTEX
5
88c
8
Layer1
10
162.1880
20
123.7750
30
0.0
0
VERTEX
5
88d
8
Layer1
10
162.1880
20
122.7750
30
0.0
0
VERTEX
5
88e
8
Layer1
10
161.3880
20
122.7750
30
0.0
0
VERTEX
5
88f
8
Layer1
10
161.3880
20
119.2750
30
0.0
0
VERTEX
5
890
8
Layer1
10
162.1880
20
119.2750
30
0.0
0
VERTEX
5
891
8
Layer1
10
162.1880
20
114.2750
30
0.0
0
VERTEX
5
892
8
Layer1
10
161.3880
20
114.2750
30
0.0
0
VERTEX
5
893
8
Layer1
10
161.3880
20
110.7750
30
0.0
0
VERTEX
5
894
8
Layer1
10
162.1880
20
110.7750
30
0.0
0
VERTEX
5
895
8
Layer1
10
162.1880
20
109.7750
30
0.0
0
VERTEX
5
896
8
Layer1
10
176.1880
20
109.7750
30
0.0
0
VERTEX
5
897
8
Layer1
10
176.1880
20
110.7750
30
0.0
0
SEQEND
5
898
8
Layer1
0
POLYLINE
5
899
8
Layer1
66
1
10
0.0
20
0.0
30
0.0
70
1
0
VERTEX
5
89a
8
Layer1
10
195.2380
20
110.7750
30
0.0
0
VERTEX
5
89b
8
Layer1
10
196.0380
20
110.7750
30
0.0
0
VERTEX
5
89c
8
Layer1
10
196.0380
20
114.2750
30
0.0
0
VERTEX
5
89d
8
Layer1
10
195.2380
20
114.2750
30
0.0
0
VERTEX
5
89e
8
Layer1
10
195.2380
20
119.2750
30
0.0
0
VERTEX
5
89f
8
Layer1
10
196.0380
20
119.2750
30
0.0
0
VERTEX
5
8a0
8
Layer1
10
196.0380
20
122.7750
30
0.0
0
VERTEX
5
8a1
8
Layer1
10
195.2380
20
122.7750
30
0.0
0
VERTEX
5
8a2
8
Layer1
10
195.2380
20
123.7750
30
0.0
0
VERTEX
5
8a3
8
Layer1
10
181.2380
20
123.7750
30
0.0
0
VERTEX
5
8a4
8
Layer1
10
181.2380
20
122.7750
30
0.0
0
VERTEX
5
8a5
8
Layer1
10
180.4380
20
122.7750
30
0.0
0
VERTEX
5
8a6
8
Layer1
10
180.4380
20
119.2750
30
0.0
0
VERTEX
5
8a7
8
Layer1
10
181.2380
20
119.2750
30
0.0
0
VERTEX
5
8a8
8
Layer1
10
181.2380
20
114.2750
30
0.0
0
VERTEX
5
8a9
8
Layer1
10
180.4380
20
114.2750
30
0.0
0
VERTEX
5
8aa
8
Layer1
10
180.4380
20
110.7750
30
0.0
0
VERTEX
5
8ab
8
Layer1
10
181.2380
20
110.7750
30
0.0
0
VERTEX
5
8ac
8
Layer1
10
181.2380
20
109.7750
30
0.0
0
VERTEX
5
8ad
8
Layer1
10
195.2380
20
109.7750
30
0.0
0
VERTEX
5
8ae
8
Layer1
10
195.2380
20
110.7750
30
0.0
0
SEQEND
5
8af
8
Layer1
0
POLYLINE
5
8b0
8
Layer1
66
1
10
0.0
20
0.0
30
0.0
70
1
0
VERTEX
5
8b1
8
Layer1
10
228.5750
20
110.7750
30
0.0
0
VERTEX
5
8b2
8
Layer1
10
229.3750
20
110.7750
30
0.0
0
VERTEX
5
8b3
8
Layer1
10
229.3750
20
114.2750
30
0.0
0
VERTEX
5
8b4
8
Layer1
10
228.5750
20
114.2750
30
0.0
0
VERTEX
5
8b5
8
Layer1
10
228.5750
20
119.2750
30
0.0
0
VERTEX
5
8b6
8
Layer1
10
229.3750
20
119.2750
30
0.0
0
VERTEX
5
8b7
8
Layer1
10
229.3750
20
122.7750
30
0.0
0
VERTEX
5
8b8
8
Layer1
10
228.5750
20
122.7750
30
0.0
0
VERTEX
5
8b9
8
Layer1
10
228.5750
20
123.7750
30
0.0
0
VERTEX
5
8ba
8
Layer1
10
214.5750
20
123.7750
30
0.0
0
VERTEX
5
8bb
8
Layer1
10
214.5750
20
122.7750
30
0.0
0
VERTEX
5
8bc
8
Layer1
10
213.7750
20
122.7750
30
0.0
0
VERTEX
5
8bd
8
Layer1
10
213.7750
20
119.2750
30
0.0
0
VERTEX
5
8be
8
Layer1
10
214.5750
20
119.2750
30
0.0
0
VERTEX
5
8bf
8
Layer1
10
214.5750
20
114.2750
30
0.0
0
VERTEX
5
8c0
8
Layer1
10
213.7750
20
114.2750
30
0.0
0
VERTEX
5
8c1
8
Layer1
10
213.7750
20
110.7750
30
0.0
0
VERTEX
5
8c2
8
Layer1
10
214.5750
20
110.7750
30
0.0
0
VERTEX
5
8c3
8
Layer1
10
214.5750
20
109.7750
30
0.0
0
VERTEX
5
8c4
8
Layer1
10
228.5750
20
109.7750
30
0.0
0
VERTEX
5
8c5
8
Layer1
10
228.5750
20
110.7750
30
0.0
0
SEQEND
5
8c6
8
Layer1
0
POLYLINE
5
8c7
8
Layer1
66
1
10
0.0
20
0.0
30
0.0
70
1
0
VERTEX
5
8c8
8
Layer1
10
247.6250
20
110.7750
30
0.0
0
VERTEX
5
8c9
8
Layer1
10
248.4250
20
110.7750
30
0.0
0
VERTEX
5
8ca
8
Layer1
10
248.4250
20
114.2750
30
0.0
0
VERTEX
5
8cb
8
Layer1
10
247.6250
20
114.2750
30
0.0
0
VERTEX
5
8cc
8
Layer1
10
247.6250
20
119.2750
30
0.0
0
VERTEX
5
8cd
8
Layer1
10
248.4250
20
119.2750
30
0.0
0
VERTEX
5
8ce
8
Layer1
10
248.4250
20
122.7750
30
0.0
0
VERTEX
5
8cf
8
Layer1
10
247.6250
20
122.7750
30
0.0
0
VERTEX
5
8d0
8
Layer1
10
247.6250
20
123.7750
30
0.0
0
VERTEX
5
8d1
8
Layer1
10
233.6250
20
123.7750
30
0.0
0
VERTEX
5
8d2
8
Layer1
10
233.6250
20
122.7750
30
0.0
0
VERTEX
5
8d3
8
Layer1
10
232.8250
20
122.7750
30
0.0
0
VERTEX
5
8d4
8
Layer1
10
232.8250
20
119.2750
30
0.0
0
VERTEX
5
8d5
8
Layer1
10
233.6250
20
119.2750
30
0.0
0
VERTEX
5
8d6
8
Layer1
10
233.6250
20
114.2750
30
0.0
0
VERTEX
5
8d7
8
Layer1
10
232.8250
20
114.2750
30
0.0
0
VERTEX
5
8d8
8
Layer1
10
232.8250
20
110.7750
30
0.0
0
VERTEX
5
8d9
8
Layer1
10
233.6250
20
110.7750
30
0.0
0
VERTEX
5
8da
8
Layer1
10
233.6250
20
109.7750
30
0.0
0
VERTEX
5
8db
8
Layer1
10
247.6250
20
109.7750
30
0.0
0
VERTEX
5
8dc
8
Layer1
10
247.6250
20
110.7750
30
0.0
0
SEQEND
5
8dd
8
Layer1
0
POLYLINE
5
8de
8
Layer1
66
1
10
0.0
20
0.0
30
0.0
70
1
0
VERTEX
5
8df
8
Layer1
10
266.6750
20
110.7750
30
0.0
0
VERTEX
5
8e0
8
Layer1
10
267.4750
20
110.7750
30
0.0
0
VERTEX
5
8e1
8
Layer1
10
267.4750
20
114.2750
30
0.0
0
VERTEX
5
8e2
8
Layer1
10
266.6750
20
114.2750
30
0.0
0
VERTEX
5
8e3
8
Layer1
10
266.6750
20
119.2750
30
0.0
0
VERTEX
5
8e4
8
Layer1
10
267.4750
20
119.2750
30
0.0
0
VERTEX
5
8e5
8
Layer1
10
267.4750
20
122.7750
30
0.0
0
VERTEX
5
8e6
8
Layer1
10
266.6750
20
122.7750
30
0.0
0
VERTEX
5
8e7
8
Layer1
10
266.6750
20
123.7750
30
0.0
0
VERTEX
5
8e8
8
Layer1
10
252.6750
20
123.7750
30
0.0
0
VERTEX
5
8e9
8
Layer1
10
252.6750
20
122.7750
30
0.0
0
VERTEX
5
8ea
8
Layer1
10
251.8750
20
122.7750
30
0.0
0
VERTEX
5
8eb
8
Layer1
10
251.8750
20
119.2750
30
0.0
0
VERTEX
5
8ec
8
Layer1
10
252.6750
20
119.2750
30
0.0
0
VERTEX
5
8ed
8
Layer1
10
252.6750
20
114.2750
30
0.0
0
VERTEX
5
8ee
8
Layer1
10
251.8750
20
114.2750
30
0.0
0
VERTEX
5
8ef
8
Layer1
10
251.8750
20
110.7750
30
0.0
0
VERTEX
5
8f0
8
Layer1
10
252.6750
20
110.7750
30
0.0
0
VERTEX
5
8f1
8
Layer1
10
252.6750
20
109.7750
30
0.0
0
VERTEX
5
8f2
8
Layer1
10
266.6750
20
109.7750
30
0.0
0
VERTEX
5
8f3
8
Layer1
10
266.6750
20
110.7750
30
0.0
0
SEQEND
5
8f4
8
Layer1
0
POLYLINE
5
8f5
8
Layer1
66
1
10
0.0
20
0.0
30
0.0
70
1
0
VERTEX
5
8f6
8
Layer1
10
285.7250
20
110.7750
30
0.0
0
VERTEX
5
8f7
8
Layer1
10
286.5250
20
110.7750
30
0.0
0
VERTEX
5
8f8
8
Layer1
10
286.5250
20
114.2750
30
0.0
0
VERTEX
5
8f9
8
Layer1
10
285.7250
20
114.2750
30
0.0
0
VERTEX
5
8fa
8
Layer1
10
285.7250
20
119.2750
30
0.0
0
VERTEX
5
8fb
8
Layer1
10
286.5250
20
119.2750
30
0.0
0
VERTEX
5
8fc
8
Layer1
10
286.5250
20
122.7750
30
0.0
0
VERTEX
5
8fd
8
Layer1
10
285.7250
20
122.7750
30
0.0
0
VERTEX
5
8fe
8
Layer1
10
285.7250
20
123.7750
30
0.0
0
VERTEX
5
8ff
8
Layer1
10
271.7250
20
123.7750
30
0.0
0
VERTEX
5
900
8
Layer1
10
271.7250
20
122.7750
30
0.0
0
VERTEX
5
901
8
Layer1
10
270.9250
20
122.7750
30
0.0
0
VERTEX
5
902
8
Layer1
10
270.9250
20
119.2750
30
0.0
0
VERTEX
5
903
8
Layer1
10
271.7250
20
119.2750
30
0.0
0
VERTEX
5
904
8
Layer1
10
271.7250
20
114.2750
30
0.0
0
VERTEX
5
905
8
Layer1
10
270.9250
20
114.2750
30
0.0
0
VERTEX
5
906
8
Layer1
10
270.9250
20
110.7750
30
0.0
0
VERTEX
5
907
8
Layer1
10
271.7250
20
110.7750
30
0.0
0
VERTEX
5
908
8
Layer1
10
271.7250
20
109.7750
30
0.0
0
VERTEX
5
909
8
Layer1
10
285.7250
20
109.7750
30
0.0
0
VERTEX
5
90a
8
Layer1
10
285.7250
20
110.7750
30
0.0
0
SEQEND
5
90b
8
Layer1
0
POLYLINE
5
90c
8
Layer1
66
1
10
0.0
20
0.0
30
0.0
70
1
0
VERTEX
5
90d
8
Layer1
10
309.5370
20
110.7750
30
0.0
0
VERTEX
5
90e
8
Layer1
10
310.3380
20
110.7750
30
0.0
0
VERTEX
5
90f
8
Layer1
10
310.3380
20
114.2750
30
0.0
0
VERTEX
5
910
8
Layer1
10
309.5370
20
114.2750
30
0.0
0
VERTEX
5
911
8
Layer1
10
309.5370
20
119.2750
30
0.0
0
VERTEX
5
912
8
Layer1
10
310.3380
20
119.2750
30
0.0
0
VERTEX
5
913
8
Layer1
10
310.3380
20
122.7750
30
0.0
0
VERTEX
5
914
8
Layer1
10
309.5370
20
122.7750
30
0.0
0
VERTEX
5
915
8
Layer1
10
309.5370
20
123.7750
30
0.0
0
VERTEX
5
916
8
Layer1
10
295.5370
20
123.7750
30
0.0
0
VERTEX
5
917
8
Layer1
10
295.5370
20
122.7750
30
0.0
0
VERTEX
5
918
8
Layer1
10
294.7370
20
122.7750
30
0.0
0
VERTEX
5
919
8
Layer1
10
294.7370
20
119.2750
30
0.0
0
VERTEX
5
91a
8
Layer1
10
295.5370
20
119.2750
30
0.0
0
VERTEX
5
91b
8
Layer1
10
295.5370
20
114.2750
30
0.0
0
VERTEX
5
91c
8
Layer1
10
294.7370
20
114.2750
30
0.0
0
VERTEX
5
91d
8
Layer1
10
294.7370
20
110.7750
30
0.0
0
VERTEX
5
91e
8
Layer1
10
295.5370
20
110.7750
30
0.0
0
VERTEX
5
91f
8
Layer1
10
295.5370
20
109.7750
30
0.0
0
VERTEX
5
920
8
Layer1
10
309.5370
20
109.7750
30
0.0
0
VERTEX
5
921
8
Layer1
10
309.5370
20
110.7750
30
0.0
0
SEQEND
5
922
8
Layer1
0
POLYLINE
5
923
8
Layer1
66
1
10
0.0
20
0.0
30
0.0
70
1
0
VERTEX
5
924
8
Layer1
10
19.0250
20
86.9630
30
0.0
0
VERTEX
5
925
8
Layer1
10
19.8250
20
86.9630
30
0.0
0
VERTEX
5
926
8
Layer1
10
19.8250
20
90.4630
30
0.0
0
VERTEX
5
927
8
Layer1
10
19.0250
20
90.4630
30
0.0
0
VERTEX
5
928
8
Layer1
10
19.0250
20
95.4630
30
0.0
0
VERTEX
5
929
8
Layer1
10
19.8250
20
95.4630
30
0.0
0
VERTEX
5
92a
8
Layer1
10
19.8250
20
98.9630
30
0.0
0
VERTEX
5
92b
8
Layer1
10
19.0250
20
98.9630
30
0.0
0
VERTEX
5
92c
8
Layer1
10
19.0250
20
99.9630
30
0.0
0
VERTEX
5
92d
8
Layer1
10
5.0250
20
99.9630
30
0.0
0
VERTEX
5
92e
8
Layer1
10
5.0250
20
98.9630
30
0.0
0
VERTEX
5
92f
8
Layer1
10
4.2250
20
98.9630
30
0.0
0
VERTEX
5
930
8
Layer1
10
4.2250
20
95.4630
30
0.0
0
VERTEX
5
931
8
Layer1
10
5.0250
20
95.4630
30
0.0
0
VERTEX
5
932
8
Layer1
10
5.0250
20
90.4630
30
0.0
0
VERTEX
5
933
8
Layer1
10
4.2250
20
90.4630
30
0.0
0
VERTEX
5
934
8
Layer1
10
4.2250
20
86.9630
30
0.0
0
VERTEX
5
935
8
Layer1
10
5.0250
20
86.9630
30
0.0
0
VERTEX
5
936
8
Layer1
10
5.0250
20
85.9630
30
0.0
0
VERTEX
5
937
8
Layer1
10
19.0250
20
85.9630
30
0.0
0
VERTEX
5
938
8
Layer1
10
19.0250
20
86.9630
30
0.0
0
SEQEND
5
939
8
Layer1
0
POLYLINE
5
93a
8
Layer1
66
1
10
0.0
20
0.0
30
0.0
70
1
0
VERTEX
5
93b
8
Layer1
10
38.0750
20
86.9630
30
0.0
0
VERTEX
5
93c
8
Layer1
10
38.8750
20
86.9630
30
0.0
0
VERTEX
5
93d
8
Layer1
10
38.8750
20
90.4630
30
0.0
0
VERTEX
5
93e
8
Layer1
10
38.0750
20
90.4630
30
0.0
0
VERTEX
5
93f
8
Layer1
10
38.0750
20
95.4630
30
0.0
0
VERTEX
5
940
8
Layer1
10
38.8750
20
95.4630
30
0.0
0
VERTEX
5
941
8
Layer1
10
38.8750
20
98.9630
30
0.0
0
VERTEX
5
942
8
Layer1
10
38.0750
20
98.9630
30
0.0
0
VERTEX
5
943
8
Layer1
10
38.0750
20
99.9630
30
0.0
0
VERTEX
5
944
8
Layer1
10
24.0750
20
99.9630
30
0.0
0
VERTEX
5
945
8
Layer1
10
24.0750
20
98.9630
30
0.0
0
VERTEX
5
946
8
Layer1
10
23.2750
20
98.9630
30
0.0
0
VERTEX
5
947
8
Layer1
10
23.2750
20
95.4630
30
0.0
0
VERTEX
5
948
8
Layer1
10
24.0750
20
95.4630
30
0.0
0
VERTEX
5
949
8
Layer1
10
24.0750
20
90.4630
30
0.0
0
VERTEX
5
94a
8
Layer1
10
23.2750
20
90.4630
30
0.0
0
VERTEX
5
94b
8
Layer1
10
23.2750
20
86.9630
30
0.0
0
VERTEX
5
94c
8
Layer1
10
24.0750
20
86.9630
30
0.0
0
VERTEX
5
94d
8
Layer1
10
24.0750
20
85.9630
30
0.0
0
VERTEX
5
94e
8
Layer1
10
38.0750
20
85.9630
30
0.0
0
VERTEX
5
94f
8
Layer1
10
38.0750
20
86.9630
30
0.0
0
SEQEND
5
950
8
Layer1
0
POLYLINE
5
951
8
Layer1
66
1
10
0.0
20
0.0
30
0.0
70
1
0
VERTEX
5
952
8
Layer1
10
57.1250
20
86.9630
30
0.0
0
VERTEX
5
953
8
Layer1
10
57.9250
20
86.9630
30
0.0
0
VERTEX
5
954
8
Layer1
10
57.9250
20
90.4630
30
0.0
0
VERTEX
5
955
8
Layer1
10
57.1250
20
90.4630
30
0.0
0
VERTEX
5
956
8
Layer1
10
57.1250
20
95.4630
30
0.0
0
VERTEX
5
957
8
Layer1
10
57.9250
20
95.4630
30
0.0
0
VERTEX
5
958
8
Layer1
10
57.9250
20
98.9630
30
0.0
0
VERTEX
5
959
8
Layer1
10
57.1250
20
98.9630
30
0.0
0
VERTEX
5
95a
8
Layer1
10
57.1250
20
99.9630
30
0.0
0
VERTEX
5
95b
8
Layer1
10
43.1250
20
99.9630
30
0.0
0
VERTEX
5
95c
8
Layer1
10
43.1250
20
98.9630
30
0.0
0
VERTEX
5
95d
8
Layer1
10
42.3250
20
98.9630
30
0.0
0
VERTEX
5
95e
8
Layer1
10
42.3250
20
95.4630
30
0.0
0
VERTEX
5
95f
8
Layer1
10
43.1250
20
95.4630
30
0.0
0
VERTEX
5
960
8
Layer1
10
43.1250
20
90.4630
30
0.0
0
VERTEX
5
961
8
Layer1
10
42.3250
20
90.4630
30
0.0
0
VERTEX
5
962
8
Layer1
10
42.3250
20
86.9630
30
0.0
0
VERTEX
5
963
8
Layer1
10
43.1250
20
86.9630
30
0.0
0
VERTEX
5
964
8
Layer1
10
43.1250
20
85.9630
30
0.0
0
VERTEX
5
965
8
Layer1
10
57.1250
20
85.9630
30
0.0
0
VERTEX
5
966
8
Layer1
10
57.1250
20
86.9630
30
0.0
0
SEQEND
5
967
8
Layer1
0
POLYLINE
5
968
8
Layer1
66
1
10
0.0
20
0.0
30
0.0
70
1
0
VERTEX
5
969
8
Layer1
10
76.1750
20
86.9630
30
0.0
0
VERTEX
5
96a
8
Layer1
10
76.9750
20
86.9630
30
0.0
0
VERTEX
5
96b
8
Layer1
10
76.9750
20
90.4630
30
0.0
0
VERTEX
5
96c
8
Layer1
10
76.1750
20
90.4630
30
0.0
0
VERTEX
5
96d
8
Layer1
10
76.1750
20
95.4630
30
0.0
0
VERTEX
5
96e
8
Layer1
10
76.9750
20
95.4630
30
0.0
0
VERTEX
5
96f
8
Layer1
10
76.9750
20
98.9630
30
0.0
0
VERTEX
5
970
8
Layer1
10
76.1750
20
98.9630
30
0.0
0
VERTEX
5
971
8
Layer1
10
76.1750
20
99.9630
30
0.0
0
VERTEX
5
972
8
Layer1
10
62.1750
20
99.9630
30
0.0
0
VERTEX
5
973
8
Layer1
10
62.1750
20
98.9630
30
0.0
0
VERTEX
5
974
8
Layer1
10
61.3750
20
98.9630
30
0.0
0
VERTEX
5
975
8
Layer1
10
61.3750
20
95.4630
30
0.0
0
VERTEX
5
976
8
Layer1
10
62.1750
20
95.4630
30
0.0
0
VERTEX
5
977
8
Layer1
10
62.1750
20
90.4630
30
0.0
0
VERTEX
5
978
8
Layer1
10
61.3750
20
90.4630
30
0.0
0
VERTEX
5
979
8
Layer1
10
61.3750
20
86.9630
30
0.0
0
VERTEX
5
97a
8
Layer1
10
62.1750
20
86.9630
30
0.0
0
VERTEX
5
97b
8
Layer1
10
62.1750
20
85.9630
30
0.0
0
VERTEX
5
97c
8
Layer1
10
76.1750
20
85.9630
30
0.0
0
VERTEX
5
97d
8
Layer1
10
76.1750
20
86.9630
30
0.0
0
SEQEND
5
97e
8
Layer1
0
POLYLINE
5
97f
8
Layer1
66
1
10
0.0
20
0.0
30
0.0
70
1
0
VERTEX
5
980
8
Layer1
10
95.2250
20
86.9630
30
0.0
0
VERTEX
5
981
8
Layer1
10
96.0250
20
86.9630
30
0.0
0
VERTEX
5
982
8
Layer1
10
96.0250
20
90.4630
30
0.0
0
VERTEX
5
983
8
Layer1
10
95.2250
20
90.4630
30
0.0
0
VERTEX
5
984
8
Layer1
10
95.2250
20
95.4630
30
0.0
0
VERTEX
5
985
8
Layer1
10
96.0250
20
95.4630
30
0.0
0
VERTEX
5
986
8
Layer1
10
96.0250
20
98.9630
30
0.0
0
VERTEX
5
987
8
Layer1
10
95.2250
20
98.9630
30
0.0
0
VERTEX
5
988
8
Layer1
10
95.2250
20
99.9630
30
0.0
0
VERTEX
5
989
8
Layer1
10
81.2250
20
99.9630
30
0.0
0
VERTEX
5
98a
8
Layer1
10
81.2250
20
98.9630
30
0.0
0
VERTEX
5
98b
8
Layer1
10
80.4250
20
98.9630
30
0.0
0
VERTEX
5
98c
8
Layer1
10
80.4250
20
95.4630
30
0.0
0
VERTEX
5
98d
8
Layer1
10
81.2250
20
95.4630
30
0.0
0
VERTEX
5
98e
8
Layer1
10
81.2250
20
90.4630
30
0.0
0
VERTEX
5
98f
8
Layer1
10
80.4250
20
90.4630
30
0.0
0
VERTEX
5
990
8
Layer1
10
80.4250
20
86.9630
30
0.0
0
VERTEX
5
991
8
Layer1
10
81.2250
20
86.9630
30
0.0
0
VERTEX
5
992
8
Layer1
10
81.2250
20
85.9630
30
0.0
0
VERTEX
5
993
8
Layer1
10
95.2250
20
85.9630
30
0.0
0
VERTEX
5
994
8
Layer1
10
95.2250
20
86.9630
30
0.0
0
SEQEND
5
995
8
Layer1
0
POLYLINE
5
996
8
Layer1
66
1
10
0.0
20
0.0
30
0.0
70
1
0
VERTEX
5
997
8
Layer1
10
114.2750
20
86.9630
30
0.0
0
VERTEX
5
998
8
Layer1
10
115.0750
20
86.9630
30
0.0
0
VERTEX
5
999
8
Layer1
10
115.0750
20
90.4630
30
0.0
0
VERTEX
5
99a
8
Layer1
10
114.2750
20
90.4630
30
0.0
0
VERTEX
5
99b
8
Layer1
10
114.2750
20
95.4630
30
0.0
0
VERTEX
5
99c
8
Layer1
10
115.0750
20
95.4630
30
0.0
0
VERTEX
5
99d
8
Layer1
10
115.0750
20
98.9630
30
0.0
0
VERTEX
5
99e
8
Layer1
10
114.2750
20
98.9630
30
0.0
0
VERTEX
5
99f
8
Layer1
10
114.2750
20
99.9630
30
0.0
0
VERTEX
5
9a0
8
Layer1
10
100.2750
20
99.9630
30
0.0
0
VERTEX
5
9a1
8
Layer1
10
100.2750
20
98.9630
30
0.0
0
VERTEX
5
9a2
8
Layer1
10
99.4750
20
98.9630
30
0.0
0
VERTEX
5
9a3
8
Layer1
10
99.4750
20
95.4630
30
0.0
0
VERTEX
5
9a4
8
Layer1
10
100.2750
20
95.4630
30
0.0
0
VERTEX
5
9a5
8
Layer1
10
100.2750
20
90.4630
30
0.0
0
VERTEX
5
9a6
8
Layer1
10
99.4750
20
90.4630
30
0.0
0
VERTEX
5
9a7
8
Layer1
10
99.4750
20
86.9630
30
0.0
0
VERTEX
5
9a8
8
Layer1
10
100.2750
20
86.9630
30
0.0
0
VERTEX
5
9a9
8
Layer1
10
100.2750
20
85.9630
30
0.0
0
VERTEX
5
9aa
8
Layer1
10
114.2750
20
85.9630
30
0.0
0
VERTEX
5
9ab
8
Layer1
10
114.2750
20
86.9630
30
0.0
0
SEQEND
5
9ac
8
Layer1
0
POLYLINE
5
9ad
8
Layer1
66
1
10
0.0
20
0.0
30
0.0
70
1
0
VERTEX
5
9ae
8
Layer1
10
133.3250
20
86.9630
30
0.0
0
VERTEX
5
9af
8
Layer1
10
134.1250
20
86.9630
30
0.0
0
VERTEX
5
9b0
8
Layer1
10
134.1250
20
90.4630
30
0.0
0
VERTEX
5
9b1
8
Layer1
10
133.3250
20
90.4630
30
0.0
0
VERTEX
5
9b2
8
Layer1
10
133.3250
20
95.4630
30
0.0
0
VERTEX
5
9b3
8
Layer1
10
134.1250
20
95.4630
30
0.0
0
VERTEX
5
9b4
8
Layer1
10
134.1250
20
98.9630
30
0.0
0
VERTEX
5
9b5
8
Layer1
10
133.3250
20
98.9630
30
0.0
0
VERTEX
5
9b6
8
Layer1
10
133.3250
20
99.9630
30
0.0
0
VERTEX
5
9b7
8
Layer1
10
119.3250
20
99.9630
30
0.0
0
VERTEX
5
9b8
8
Layer1
10
119.3250
20
98.9630
30
0.0
0
VERTEX
5
9b9
8
Layer1
10
118.5250
20
98.9630
30
0.0
0
VERTEX
5
9ba
8
Layer1
10
118.5250
20
95.4630
30
0.0
0
VERTEX
5
9bb
8
Layer1
10
119.3250
20
95.4630
30
0.0
0
VERTEX
5
9bc
8
Layer1
10
119.3250
20
90.4630
30
0.0
0
VERTEX
5
9bd
8
Layer1
10
118.5250
20
90.4630
30
0.0
0
VERTEX
5
9be
8
Layer1
10
118.5250
20
86.9630
30
0.0
0
VERTEX
5
9bf
8
Layer1
10
119.3250
20
86.9630
30
0.0
0
VERTEX
5
9c0
8
Layer1
10
119.3250
20
85.9630
30
0.0
0
VERTEX
5
9c1
8
Layer1
10
133.3250
20
85.9630
30
0.0
0
VERTEX
5
9c2
8
Layer1
10
133.3250
20
86.9630
30
0.0
0
SEQEND
5
9c3
8
Layer1
0
POLYLINE
5
9c4
8
Layer1
66
1
10
0.0
20
0.0
30
0.0
70
1
0
VERTEX
5
9c5
8
Layer1
10
152.3750
20
86.9630
30
0.0
0
VERTEX
5
9c6
8
Layer1
10
153.1750
20
86.9630
30
0.0
0
VERTEX
5
9c7
8
Layer1
10
153.1750
20
90.4630
30
0.0
0
VERTEX
5
9c8
8
Layer1
10
152.3750
20
90.4630
30
0.0
0
VERTEX
5
9c9
8
Layer1
10
152.3750
20
95.4630
30
0.0
0
VERTEX
5
9ca
8
Layer1
10
153.1750
20
95.4630
30
0.0
0
VERTEX
5
9cb
8
Layer1
10
153.1750
20
98.9630
30
0.0
0
VERTEX
5
9cc
8
Layer1
10
152.3750
20
98.9630
30
0.0
0
VERTEX
5
9cd
8
Layer1
10
152.3750
20
99.9630
30
0.0
0
VERTEX
5
9ce
8
Layer1
10
138.3750
20
99.9630
30
0.0
0
VERTEX
5
9cf
8
Layer1
10
138.3750
20
98.9630
30
0.0
0
VERTEX
5
9d0
8
Layer1
10
137.5750
20
98.9630
30
0.0
0
VERTEX
5
9d1
8
Layer1
10
137.5750
20
95.4630
30
0.0
0
VERTEX
5
9d2
8
Layer1
10
138.3750
20
95.4630
30
0.0
0
VERTEX
5
9d3
8
Layer1
10
138.3750
20
90.4630
30
0.0
0
VERTEX
5
9d4
8
Layer1
10
137.5750
20
90.4630
30
0.0
0
VERTEX
5
9d5
8
Layer1
10
137.5750
20
86.9630
30
0.0
0
VERTEX
5
9d6
8
Layer1
10
138.3750
20
86.9630
30
0.0
0
VERTEX
5
9d7
8
Layer1
10
138.3750
20
85.9630
30
0.0
0
VERTEX
5
9d8
8
Layer1
10
152.3750
20
85.9630
30
0.0
0
VERTEX
5
9d9
8
Layer1
10
152.3750
20
86.9630
30
0.0
0
SEQEND
5
9da
8
Layer1
0
POLYLINE
5
9db
8
Layer1
66
1
10
0.0
20
0.0
30
0.0
70
1
0
VERTEX
5
9dc
8
Layer1
10
171.4250
20
86.9630
30
0.0
0
VERTEX
5
9dd
8
Layer1
10
172.2250
20
86.9630
30
0.0
0
VERTEX
5
9de
8
Layer1
10
172.2250
20
90.4630
30
0.0
0
VERTEX
5
9df
8
Layer1
10
171.4250
20
90.4630
30
0.0
0
VERTEX
5
9e0
8
Layer1
10
171.4250
20
95.4630
30
0.0
0
VERTEX
5
9e1
8
Layer1
10
172.2250
20
95.4630
30
0.0
0
VERTEX
5
9e2
8
Layer1
10
172.2250
20
98.9630
30
0.0
0
VERTEX
5
9e3
8
Layer1
10
171.4250
20
98.9630
30
0.0
0
VERTEX
5
9e4
8
Layer1
10
171.4250
20
99.9630
30
0.0
0
VERTEX
5
9e5
8
Layer1
10
157.4250
20
99.9630
30
0.0
0
VERTEX
5
9e6
8
Layer1
10
157.4250
20
98.9630
30
0.0
0
VERTEX
5
9e7
8
Layer1
10
156.6250
20
98.9630
30
0.0
0
VERTEX
5
9e8
8
Layer1
10
156.6250
20
95.4630
30
0.0
0
VERTEX
5
9e9
8
Layer1
10
157.4250
20
95.4630
30
0.0
0
VERTEX
5
9ea
8
Layer1
10
157.4250
20
90.4630
30
0.0
0
VERTEX
5
9eb
8
Layer1
10
156.6250
20
90.4630
30
0.0
0
VERTEX
5
9ec
8
Layer1
10
156.6250
20
86.9630
30
0.0
0
VERTEX
5
9ed
8
Layer1
10
157.4250
20
86.9630
30
0.0
0
VERTEX
5
9ee
8
Layer1
10
157.4250
20
85.9630
30
0.0
0
VERTEX
5
9ef
8
Layer1
10
171.4250
20
85.9630
30
0.0
0
VERTEX
5
9f0
8
Layer1
10
171.4250
20
86.9630
30
0.0
0
SEQEND
5
9f1
8
Layer1
0
POLYLINE
5
9f2
8
Layer1
66
1
10
0.0
20
0.0
30
0.0
70
1
0
VERTEX
5
9f3
8
Layer1
10
190.4750
20
86.9630
30
0.0
0
VERTEX
5
9f4
8
Layer1
10
191.2750
20
86.9630
30
0.0
0
VERTEX
5
9f5
8
Layer1
10
191.2750
20
90.4630
30
0.0
0
VERTEX
5
9f6
8
Layer1
10
190.4750
20
90.4630
30
0.0
0
VERTEX
5
9f7
8
Layer1
10
190.4750
20
95.4630
30
0.0
0
VERTEX
5
9f8
8
Layer1
10
191.2750
20
95.4630
30
0.0
0
VERTEX
5
9f9
8
Layer1
10
191.2750
20
98.9630
30
0.0
0
VERTEX
5
9fa
8
Layer1
10
190.4750
20
98.9630
30
0.0
0
VERTEX
5
9fb
8
Layer1
10
190.4750
20
99.9630
30
0.0
0
VERTEX
5
9fc
8
Layer1
10
176.4750
20
99.9630
30
0.0
0
VERTEX
5
9fd
8
Layer1
10
176.4750
20
98.9630
30
0.0
0
VERTEX
5
9fe
8
Layer1
10
175.6750
20
98.9630
30
0.0
0
VERTEX
5
9ff
8
Layer1
10
175.6750
20
95.4630
30
0.0
0
VERTEX
5
a00
8
Layer1
10
176.4750
20
95.4630
30
0.0
0
VERTEX
5
a01
8
Layer1
10
176.4750
20
90.4630
30
0.0
0
VERTEX
5
a02
8
Layer1
10
175.6750
20
90.4630
30
0.0
0
VERTEX
5
a03
8
Layer1
10
175.6750
20
86.9630
30
0.0
0
VERTEX
5
a04
8
Layer1
10
176.4750
20
86.9630
30
0.0
0
VERTEX
5
a05
8
Layer1
10
176.4750
20
85.9630
30
0.0
0
VERTEX
5
a06
8
Layer1
10
190.4750
20
85.9630
30
0.0
0
VERTEX
5
a07
8
Layer1
10
190.4750
20
86.9630
30
0.0
0
SEQEND
5
a08
8
Layer1
0
POLYLINE
5
a09
8
Layer1
66
1
10
0.0
20
0.0
30
0.0
70
1
0
VERTEX
5
a0a
8
Layer1
10
209.5250
20
86.9630
30
0.0
0
VERTEX
5
a0b
8
Layer1
10
210.3250
20
86.9630
30
0.0
0
VERTEX
5
a0c
8
Layer1
10
210.3250
20
90.4630
30
0.0
0
VERTEX
5
a0d
8
Layer1
10
209.5250
20
90.4630
30
0.0
0
VERTEX
5
a0e
8
Layer1
10
209.5250
20
95.4630
30
0.0
0
VERTEX
5
a0f
8
Layer1
10
210.3250
20
95.4630
30
0.0
0
VERTEX
5
a10
8
Layer1
10
210.3250
20
98.9630
30
0.0
0
VERTEX
5
a11
8
Layer1
10
209.5250
20
98.9630
30
0.0
0
VERTEX
5
a12
8
Layer1
10
209.5250
20
99.9630
30
0.0
0
VERTEX
5
a13
8
Layer1
10
195.5250
20
99.9630
30
0.0
0
VERTEX
5
a14
8
Layer1
10
195.5250
20
98.9630
30
0.0
0
VERTEX
5
a15
8
Layer1
10
194.7250
20
98.9630
30
0.0
0
VERTEX
5
a16
8
Layer1
10
194.7250
20
95.4630
30
0.0
0
VERTEX
5
a17
8
Layer1
10
195.5250
20
95.4630
30
0.0
0
VERTEX
5
a18
8
Layer1
10
195.5250
20
90.4630
30
0.0
0
VERTEX
5
a19
8
Layer1
10
194.7250
20
90.4630
30
0.0
0
VERTEX
5
a1a
8
Layer1
10
194.7250
20
86.9630
30
0.0
0
VERTEX
5
a1b
8
Layer1
10
195.5250
20
86.9630
30
0.0
0
VERTEX
5
a1c
8
Layer1
10
195.5250
20
85.9630
30
0.0
0
VERTEX
5
a1d
8
Layer1
10
209.5250
20
85.9630
30
0.0
0
VERTEX
5
a1e
8
Layer1
10
209.5250
20
86.9630
30
0.0
0
SEQEND
5
a1f
8
Layer1
0
POLYLINE
5
a20
8
Layer1
66
1
10
0.0
20
0.0
30
0.0
70
1
0
VERTEX
5
a21
8
Layer1
10
228.5750
20
86.9630
30
0.0
0
VERTEX
5
a22
8
Layer1
10
229.3750
20
86.9630
30
0.0
0
VERTEX
5
a23
8
Layer1
10
229.3750
20
90.4630
30
0.0
0
VERTEX
5
a24
8
Layer1
10
228.5750
20
90.4630
30
0.0
0
VERTEX
5
a25
8
Layer1
10
228.5750
20
95.4630
30
0.0
0
VERTEX
5
a26
8
Layer1
10
229.3750
20
95.4630
30
0.0
0
VERTEX
5
a27
8
Layer1
10
229.3750
20
98.9630
30
0.0
0
VERTEX
5
a28
8
Layer1
10
228.5750
20
98.9630
30
0.0
0
VERTEX
5
a29
8
Layer1
10
228.5750
20
99.9630
30
0.0
0
VERTEX
5
a2a
8
Layer1
10
214.5750
20
99.9630
30
0.0
0
VERTEX
5
a2b
8
Layer1
10
214.5750
20
98.9630
30
0.0
0
VERTEX
5
a2c
8
Layer1
10
213.7750
20
98.9630
30
0.0
0
VERTEX
5
a2d
8
Layer1
10
213.7750
20
95.4630
30
0.0
0
VERTEX
5
a2e
8
Layer1
10
214.5750
20
95.4630
30
0.0
0
VERTEX
5
a2f
8
Layer1
10
214.5750
20
90.4630
30
0.0
0
VERTEX
5
a30
8
Layer1
10
213.7750
20
90.4630
30
0.0
0
VERTEX
5
a31
8
Layer1
10
213.7750
20
86.9630
30
0.0
0
VERTEX
5
a32
8
Layer1
10
214.5750
20
86.9630
30
0.0
0
VERTEX
5
a33
8
Layer1
10
214.5750
20
85.9630
30
0.0
0
VERTEX
5
a34
8
Layer1
10
228.5750
20
85.9630
30
0.0
0
VERTEX
5
a35
8
Layer1
10
228.5750
20
86.9630
30
0.0
0
SEQEND
5
a36
8
Layer1
0
POLYLINE
5
a37
8
Layer1
66
1
10
0.0
20
0.0
30
0.0
70
1
0
VERTEX
5
a38
8
Layer1
10
247.6250
20
86.9630
30
0.0
0
VERTEX
5
a39
8
Layer1
10
248.4250
20
86.9630
30
0.0
0
VERTEX
5
a3a
8
Layer1
10
248.4250
20
90.4630
30
0.0
0
VERTEX
5
a3b
8
Layer1
10
247.6250
20
90.4630
30
0.0
0
VERTEX
5
a3c
8
Layer1
10
247.6250
20
95.4630
30
0.0
0
VERTEX
5
a3d
8
Layer1
10
248.4250
20
95.4630
30
0.0
0
VERTEX
5
a3e
8
Layer1
10
248.4250
20
98.9630
30
0.0
0
VERTEX
5
a3f
8
Layer1
10
247.6250
20
98.9630
30
0.0
0
VERTEX
5
a40
8
Layer1
10
247.6250
20
99.9630
30
0.0
0
VERTEX
5
a41
8
Layer1
10
233.6250
20
99.9630
30
0.0
0
VERTEX
5
a42
8
Layer1
10
233.6250
20
98.9630
30
0.0
0
VERTEX
5
a43
8
Layer1
10
232.8250
20
98.9630
30
0.0
0
VERTEX
5
a44
8
Layer1
10
232.8250
20
95.4630
30
0.0
0
VERTEX
5
a45
8
Layer1
10
233.6250
20
95.4630
30
0.0
0
VERTEX
5
a46
8
Layer1
10
233.6250
20
90.4630
30
0.0
0
VERTEX
5
a47
8
Layer1
10
232.8250
20
90.4630
30
0.0
0
VERTEX
5
a48
8
Layer1
10
232.8250
20
86.9630
30
0.0
0
VERTEX
5
a49
8
Layer1
10
233.6250
20
86.9630
30
0.0
0
VERTEX
5
a4a
8
Layer1
10
233.6250
20
85.9630
30
0.0
0
VERTEX
5
a4b
8
Layer1
10
247.6250
20
85.9630
30
0.0
0
VERTEX
5
a4c
8
Layer1
10
247.6250
20
86.9630
30
0.0
0
SEQEND
5
a4d
8
Layer1
0
POLYLINE
5
a4e
8
Layer1
66
1
10
0.0
20
0.0
30
0.0
70
1
0
VERTEX
5
a4f
8
Layer1
10
258.8000
20
86.1930
30
0.0
0
VERTEX
5
a50
8
Layer1
10
260.6250
20
86.1930
30
0.0
0
VERTEX
5
a51
8
Layer1
10
260.6250
20
86.9930
30
0.0
0
VERTEX
5
a52
8
Layer1
10
261.4000
20
86.9930
30
0.0
0
VERTEX
5
a53
8
Layer1
10
261.4000
20
86.9630
30
0.0
0
VERTEX
5
a54
8
Layer1
10
262.2000
20
86.9630
30
0.0
0
VERTEX
5
a55
8
Layer1
10
262.2000
20
85.9630
30
0.0
0
VERTEX
5
a56
8
Layer1
10
276.2000
20
85.9630
30
0.0
0
VERTEX
5
a57
8
Layer1
10
276.2000
20
86.9630
30
0.0
0
VERTEX
5
a58
8
Layer1
10
277.0000
20
86.9630
30
0.0
0
VERTEX
5
a59
8
Layer1
10
277.0000
20
86.9930
30
0.0
0
VERTEX
5
a5a
8
Layer1
10
277.7750
20
86.9930
30
0.0
0
VERTEX
5
a5b
8
Layer1
10
277.7750
20
86.1930
30
0.0
0
VERTEX
5
a5c
8
Layer1
10
279.6000
20
86.1930
30
0.0
0
VERTEX
5
a5d
8
Layer1
10
279.6000
20
84.9920
30
0.0
0
VERTEX
5
a5e
8
Layer1
10
282.6000
20
84.9920
30
0.0
0
VERTEX
5
a5f
8
Layer1
10
282.6000
20
86.1930
30
0.0
0
VERTEX
5
a60
8
Layer1
10
284.4250
20
86.1930
30
0.0
0
VERTEX
5
a61
8
Layer1
10
284.4250
20
92.4630
30
0.0
0
VERTEX
5
a62
8
Layer1
10
285.3000
20
92.4630
30
0.0
0
VERTEX
5
a63
8
Layer1
10
285.3000
20
95.2630
30
0.0
0
VERTEX
5
a64
8
Layer1
10
284.4250
20
95.2630
30
0.0
0
VERTEX
5
a65
8
Layer1
10
284.4250
20
98.4930
30
0.0
0
VERTEX
5
a66
8
Layer1
10
277.7750
20
98.4930
30
0.0
0
VERTEX
5
a67
8
Layer1
10
277.7750
20
97.6930
30
0.0
0
VERTEX
5
a68
8
Layer1
10
277.0000
20
97.6930
30
0.0
0
VERTEX
5
a69
8
Layer1
10
277.0000
20
98.9630
30
0.0
0
VERTEX
5
a6a
8
Layer1
10
276.2000
20
98.9630
30
0.0
0
VERTEX
5
a6b
8
Layer1
10
276.2000
20
99.9630
30
0.0
0
VERTEX
5
a6c
8
Layer1
10
262.2000
20
99.9630
30
0.0
0
VERTEX
5
a6d
8
Layer1
10
262.2000
20
98.9630
30
0.0
0
VERTEX
5
a6e
8
Layer1
10
261.4000
20
98.9630
30
0.0
0
VERTEX
5
a6f
8
Layer1
10
261.4000
20
97.6930
30
0.0
0
VERTEX
5
a70
8
Layer1
10
260.6250
20
97.6930
30
0.0
0
VERTEX
5
a71
8
Layer1
10
260.6250
20
98.4930
30
0.0
0
VERTEX
5
a72
8
Layer1
10
253.9750
20
98.4930
30
0.0
0
VERTEX
5
a73
8
Layer1
10
253.9750
20
95.2630
30
0.0
0
VERTEX
5
a74
8
Layer1
10
253.1000
20
95.2630
30
0.0
0
VERTEX
5
a75
8
Layer1
10
253.1000
20
92.4630
30
0.0
0
VERTEX
5
a76
8
Layer1
10
253.9750
20
92.4630
30
0.0
0
VERTEX
5
a77
8
Layer1
10
253.9750
20
86.1930
30
0.0
0
VERTEX
5
a78
8
Layer1
10
255.8000
20
86.1930
30
0.0
0
VERTEX
5
a79
8
Layer1
10
255.8000
20
84.9920
30
0.0
0
VERTEX
5
a7a
8
Layer1
10
258.8000
20
84.9920
30
0.0
0
VERTEX
5
a7b
8
Layer1
10
258.8000
20
86.1930
30
0.0
0
SEQEND
5
a7c
8
Layer1
0
POLYLINE
5
a7d
8
Layer1
66
1
10
0.0
20
0.0
30
0.0
70
1
0
VERTEX
5
a7e
8
Layer1
10
23.7880
20
67.9130
30
0.0
0
VERTEX
5
a7f
8
Layer1
10
24.5880
20
67.9130
30
0.0
0
VERTEX
5
a80
8
Layer1
10
24.5880
20
71.4130
30
0.0
0
VERTEX
5
a81
8
Layer1
10
23.7880
20
71.4130
30
0.0
0
VERTEX
5
a82
8
Layer1
10
23.7880
20
76.4130
30
0.0
0
VERTEX
5
a83
8
Layer1
10
24.5880
20
76.4130
30
0.0
0
VERTEX
5
a84
8
Layer1
10
24.5880
20
79.9130
30
0.0
0
VERTEX
5
a85
8
Layer1
10
23.7880
20
79.9130
30
0.0
0
VERTEX
5
a86
8
Layer1
10
23.7880
20
80.9130
30
0.0
0
VERTEX
5
a87
8
Layer1
10
9.7880
20
80.9130
30
0.0
0
VERTEX
5
a88
8
Layer1
10
9.7880
20
79.9130
30
0.0
0
VERTEX
5
a89
8
Layer1
10
8.9880
20
79.9130
30
0.0
0
VERTEX
5
a8a
8
Layer1
10
8.9880
20
76.4130
30
0.0
0
VERTEX
5
a8b
8
Layer1
10
9.7880
20
76.4130
30
0.0
0
VERTEX
5
a8c
8
Layer1
10
9.7880
20
71.4130
30
0.0
0
VERTEX
5
a8d
8
Layer1
10
8.9880
20
71.4130
30
0.0
0
VERTEX
5
a8e
8
Layer1
10
8.9880
20
67.9130
30
0.0
0
VERTEX
5
a8f
8
Layer1
10
9.7880
20
67.9130
30
0.0
0
VERTEX
5
a90
8
Layer1
10
9.7880
20
66.9130
30
0.0
0
VERTEX
5
a91
8
Layer1
10
23.7880
20
66.9130
30
0.0
0
VERTEX
5
a92
8
Layer1
10
23.7880
20
67.9130
30
0.0
0
SEQEND
5
a93
8
Layer1
0
POLYLINE
5
a94
8
Layer1
66
1
10
0.0
20
0.0
30
0.0
70
1
0
VERTEX
5
a95
8
Layer1
10
47.6000
20
67.9130
30
0.0
0
VERTEX
5
a96
8
Layer1
10
48.4000
20
67.9130
30
0.0
0
VERTEX
5
a97
8
Layer1
10
48.4000
20
71.4130
30
0.0
0
VERTEX
5
a98
8
Layer1
10
47.6000
20
71.4130
30
0.0
0
VERTEX
5
a99
8
Layer1
10
47.6000
20
76.4130
30
0.0
0
VERTEX
5
a9a
8
Layer1
10
48.4000
20
76.4130
30
0.0
0
VERTEX
5
a9b
8
Layer1
10
48.4000
20
79.9130
30
0.0
0
VERTEX
5
a9c
8
Layer1
10
47.6000
20
79.9130
30
0.0
0
VERTEX
5
a9d
8
Layer1
10
47.6000
20
80.9130
30
0.0
0
VERTEX
5
a9e
8
Layer1
10
33.6000
20
80.9130
30
0.0
0
VERTEX
5
a9f
8
Layer1
10
33.6000
20
79.9130
30
0.0
0
VERTEX
5
aa0
8
Layer1
10
32.8000
20
79.9130
30
0.0
0
VERTEX
5
aa1
8
Layer1
10
32.8000
20
76.4130
30
0.0
0
VERTEX
5
aa2
8
Layer1
10
33.6000
20
76.4130
30
0.0
0
VERTEX
5
aa3
8
Layer1
10
33.6000
20
71.4130
30
0.0
0
VERTEX
5
aa4
8
Layer1
10
32.8000
20
71.4130
30
0.0
0
VERTEX
5
aa5
8
Layer1
10
32.8000
20
67.9130
30
0.0
0
VERTEX
5
aa6
8
Layer1
10
33.6000
20
67.9130
30
0.0
0
VERTEX
5
aa7
8
Layer1
10
33.6000
20
66.9130
30
0.0
0
VERTEX
5
aa8
8
Layer1
10
47.6000
20
66.9130
30
0.0
0
VERTEX
5
aa9
8
Layer1
10
47.6000
20
67.9130
30
0.0
0
SEQEND
5
aaa
8
Layer1
0
POLYLINE
5
aab
8
Layer1
66
1
10
0.0
20
0.0
30
0.0
70
1
0
VERTEX
5
aac
8
Layer1
10
66.6500
20
67.9130
30
0.0
0
VERTEX
5
aad
8
Layer1
10
67.4500
20
67.9130
30
0.0
0
VERTEX
5
aae
8
Layer1
10
67.4500
20
71.4130
30
0.0
0
VERTEX
5
aaf
8
Layer1
10
66.6500
20
71.4130
30
0.0
0
VERTEX
5
ab0
8
Layer1
10
66.6500
20
76.4130
30
0.0
0
VERTEX
5
ab1
8
Layer1
10
67.4500
20
76.4130
30
0.0
0
VERTEX
5
ab2
8
Layer1
10
67.4500
20
79.9130
30
0.0
0
VERTEX
5
ab3
8
Layer1
10
66.6500
20
79.9130
30
0.0
0
VERTEX
5
ab4
8
Layer1
10
66.6500
20
80.9130
30
0.0
0
VERTEX
5
ab5
8
Layer1
10
52.6500
20
80.9130
30
0.0
0
VERTEX
5
ab6
8
Layer1
10
52.6500
20
79.9130
30
0.0
0
VERTEX
5
ab7
8
Layer1
10
51.8500
20
79.9130
30
0.0
0
VERTEX
5
ab8
8
Layer1
10
51.8500
20
76.4130
30
0.0
0
VERTEX
5
ab9
8
Layer1
10
52.6500
20
76.4130
30
0.0
0
VERTEX
5
aba
8
Layer1
10
52.6500
20
71.4130
30
0.0
0
VERTEX
5
abb
8
Layer1
10
51.8500
20
71.4130
30
0.0
0
VERTEX
5
abc
8
Layer1
10
51.8500
20
67.9130
30
0.0
0
VERTEX
5
abd
8
Layer1
10
52.6500
20
67.9130
30
0.0
0
VERTEX
5
abe
8
Layer1
10
52.6500
20
66.9130
30
0.0
0
VERTEX
5
abf
8
Layer1
10
66.6500
20
66.9130
30
0.0
0
VERTEX
5
ac0
8
Layer1
10
66.6500
20
67.9130
30
0.0
0
SEQEND
5
ac1
8
Layer1
0
POLYLINE
5
ac2
8
Layer1
66
1
10
0.0
20
0.0
30
0.0
70
1
0
VERTEX
5
ac3
8
Layer1
10
85.7000
20
67.9130
30
0.0
0
VERTEX
5
ac4
8
Layer1
10
86.5000
20
67.9130
30
0.0
0
VERTEX
5
ac5
8
Layer1
10
86.5000
20
71.4130
30
0.0
0
VERTEX
5
ac6
8
Layer1
10
85.7000
20
71.4130
30
0.0
0
VERTEX
5
ac7
8
Layer1
10
85.7000
20
76.4130
30
0.0
0
VERTEX
5
ac8
8
Layer1
10
86.5000
20
76.4130
30
0.0
0
VERTEX
5
ac9
8
Layer1
10
86.5000
20
79.9130
30
0.0
0
VERTEX
5
aca
8
Layer1
10
85.7000
20
79.9130
30
0.0
0
VERTEX
5
acb
8
Layer1
10
85.7000
20
80.9130
30
0.0
0
VERTEX
5
acc
8
Layer1
10
71.7000
20
80.9130
30
0.0
0
VERTEX
5
acd
8
Layer1
10
71.7000
20
79.9130
30
0.0
0
VERTEX
5
ace
8
Layer1
10
70.9000
20
79.9130
30
0.0
0
VERTEX
5
acf
8
Layer1
10
70.9000
20
76.4130
30
0.0
0
VERTEX
5
ad0
8
Layer1
10
71.7000
20
76.4130
30
0.0
0
VERTEX
5
ad1
8
Layer1
10
71.7000
20
71.4130
30
0.0
0
VERTEX
5
ad2
8
Layer1
10
70.9000
20
71.4130
30
0.0
0
VERTEX
5
ad3
8
Layer1
10
70.9000
20
67.9130
30
0.0
0
VERTEX
5
ad4
8
Layer1
10
71.7000
20
67.9130
30
0.0
0
VERTEX
5
ad5
8
Layer1
10
71.7000
20
66.9130
30
0.0
0
VERTEX
5
ad6
8
Layer1
10
85.7000
20
66.9130
30
0.0
0
VERTEX
5
ad7
8
Layer1
10
85.7000
20
67.9130
30
0.0
0
SEQEND
5
ad8
8
Layer1
0
POLYLINE
5
ad9
8
Layer1
66
1
10
0.0
20
0.0
30
0.0
70
1
0
VERTEX
5
ada
8
Layer1
10
104.7500
20
67.9130
30
0.0
0
VERTEX
5
adb
8
Layer1
10
105.5500
20
67.9130
30
0.0
0
VERTEX
5
adc
8
Layer1
10
105.5500
20
71.4130
30
0.0
0
VERTEX
5
add
8
Layer1
10
104.7500
20
71.4130
30
0.0
0
VERTEX
5
ade
8
Layer1
10
104.7500
20
76.4130
30
0.0
0
VERTEX
5
adf
8
Layer1
10
105.5500
20
76.4130
30
0.0
0
VERTEX
5
ae0
8
Layer1
10
105.5500
20
79.9130
30
0.0
0
VERTEX
5
ae1
8
Layer1
10
104.7500
20
79.9130
30
0.0
0
VERTEX
5
ae2
8
Layer1
10
104.7500
20
80.9130
30
0.0
0
VERTEX
5
ae3
8
Layer1
10
90.7500
20
80.9130
30
0.0
0
VERTEX
5
ae4
8
Layer1
10
90.7500
20
79.9130
30
0.0
0
VERTEX
5
ae5
8
Layer1
10
89.9500
20
79.9130
30
0.0
0
VERTEX
5
ae6
8
Layer1
10
89.9500
20
76.4130
30
0.0
0
VERTEX
5
ae7
8
Layer1
10
90.7500
20
76.4130
30
0.0
0
VERTEX
5
ae8
8
Layer1
10
90.7500
20
71.4130
30
0.0
0
VERTEX
5
ae9
8
Layer1
10
89.9500
20
71.4130
30
0.0
0
VERTEX
5
aea
8
Layer1
10
89.9500
20
67.9130
30
0.0
0
VERTEX
5
aeb
8
Layer1
10
90.7500
20
67.9130
30
0.0
0
VERTEX
5
aec
8
Layer1
10
90.7500
20
66.9130
30
0.0
0
VERTEX
5
aed
8
Layer1
10
104.7500
20
66.9130
30
0.0
0
VERTEX
5
aee
8
Layer1
10
104.7500
20
67.9130
30
0.0
0
SEQEND
5
aef
8
Layer1
0
POLYLINE
5
af0
8
Layer1
66
1
10
0.0
20
0.0
30
0.0
70
1
0
VERTEX
5
af1
8
Layer1
10
123.8000
20
67.9130
30
0.0
0
VERTEX
5
af2
8
Layer1
10
124.6000
20
67.9130
30
0.0
0
VERTEX
5
af3
8
Layer1
10
124.6000
20
71.4130
30
0.0
0
VERTEX
5
af4
8
Layer1
10
123.8000
20
71.4130
30
0.0
0
VERTEX
5
af5
8
Layer1
10
123.8000
20
76.4130
30
0.0
0
VERTEX
5
af6
8
Layer1
10
124.6000
20
76.4130
30
0.0
0
VERTEX
5
af7
8
Layer1
10
124.6000
20
79.9130
30
0.0
0
VERTEX
5
af8
8
Layer1
10
123.8000
20
79.9130
30
0.0
0
VERTEX
5
af9
8
Layer1
10
123.8000
20
80.9130
30
0.0
0
VERTEX
5
afa
8
Layer1
10
109.8000
20
80.9130
30
0.0
0
VERTEX
5
afb
8
Layer1
10
109.8000
20
79.9130
30
0.0
0
VERTEX
5
afc
8
Layer1
10
109.0000
20
79.9130
30
0.0
0
VERTEX
5
afd
8
Layer1
10
109.0000
20
76.4130
30
0.0
0
VERTEX
5
afe
8
Layer1
10
109.8000
20
76.4130
30
0.0
0
VERTEX
5
aff
8
Layer1
10
109.8000
20
71.4130
30
0.0
0
VERTEX
5
b00
8
Layer1
10
109.0000
20
71.4130
30
0.0
0
VERTEX
5
b01
8
Layer1
10
109.0000
20
67.9130
30
0.0
0
VERTEX
5
b02
8
Layer1
10
109.8000
20
67.9130
30
0.0
0
VERTEX
5
b03
8
Layer1
10
109.8000
20
66.9130
30
0.0
0
VERTEX
5
b04
8
Layer1
10
123.8000
20
66.9130
30
0.0
0
VERTEX
5
b05
8
Layer1
10
123.8000
20
67.9130
30
0.0
0
SEQEND
5
b06
8
Layer1
0
POLYLINE
5
b07
8
Layer1
66
1
10
0.0
20
0.0
30
0.0
70
1
0
VERTEX
5
b08
8
Layer1
10
142.8500
20
67.9130
30
0.0
0
VERTEX
5
b09
8
Layer1
10
143.6500
20
67.9130
30
0.0
0
VERTEX
5
b0a
8
Layer1
10
143.6500
20
71.4130
30
0.0
0
VERTEX
5
b0b
8
Layer1
10
142.8500
20
71.4130
30
0.0
0
VERTEX
5
b0c
8
Layer1
10
142.8500
20
76.4130
30
0.0
0
VERTEX
5
b0d
8
Layer1
10
143.6500
20
76.4130
30
0.0
0
VERTEX
5
b0e
8
Layer1
10
143.6500
20
79.9130
30
0.0
0
VERTEX
5
b0f
8
Layer1
10
142.8500
20
79.9130
30
0.0
0
VERTEX
5
b10
8
Layer1
10
142.8500
20
80.9130
30
0.0
0
VERTEX
5
b11
8
Layer1
10
128.8500
20
80.9130
30
0.0
0
VERTEX
5
b12
8
Layer1
10
128.8500
20
79.9130
30
0.0
0
VERTEX
5
b13
8
Layer1
10
128.0500
20
79.9130
30
0.0
0
VERTEX
5
b14
8
Layer1
10
128.0500
20
76.4130
30
0.0
0
VERTEX
5
b15
8
Layer1
10
128.8500
20
76.4130
30
0.0
0
VERTEX
5
b16
8
Layer1
10
128.8500
20
71.4130
30
0.0
0
VERTEX
5
b17
8
Layer1
10
128.0500
20
71.4130
30
0.0
0
VERTEX
5
b18
8
Layer1
10
128.0500
20
67.9130
30
0.0
0
VERTEX
5
b19
8
Layer1
10
128.8500
20
67.9130
30
0.0
0
VERTEX
5
b1a
8
Layer1
10
128.8500
20
66.9130
30
0.0
0
VERTEX
5
b1b
8
Layer1
10
142.8500
20
66.9130
30
0.0
0
VERTEX
5
b1c
8
Layer1
10
142.8500
20
67.9130
30
0.0
0
SEQEND
5
b1d
8
Layer1
0
POLYLINE
5
b1e
8
Layer1
66
1
10
0.0
20
0.0
30
0.0
70
1
0
VERTEX
5
b1f
8
Layer1
10
161.9000
20
67.9130
30
0.0
0
VERTEX
5
b20
8
Layer1
10
162.7000
20
67.9130
30
0.0
0
VERTEX
5
b21
8
Layer1
10
162.7000
20
71.4130
30
0.0
0
VERTEX
5
b22
8
Layer1
10
161.9000
20
71.4130
30
0.0
0
VERTEX
5
b23
8
Layer1
10
161.9000
20
76.4130
30
0.0
0
VERTEX
5
b24
8
Layer1
10
162.7000
20
76.4130
30
0.0
0
VERTEX
5
b25
8
Layer1
10
162.7000
20
79.9130
30
0.0
0
VERTEX
5
b26
8
Layer1
10
161.9000
20
79.9130
30
0.0
0
VERTEX
5
b27
8
Layer1
10
161.9000
20
80.9130
30
0.0
0
VERTEX
5
b28
8
Layer1
10
147.9000
20
80.9130
30
0.0
0
VERTEX
5
b29
8
Layer1
10
147.9000
20
79.9130
30
0.0
0
VERTEX
5
b2a
8
Layer1
10
147.1000
20
79.9130
30
0.0
0
VERTEX
5
b2b
8
Layer1
10
147.1000
20
76.4130
30
0.0
0
VERTEX
5
b2c
8
Layer1
10
147.9000
20
76.4130
30
0.0
0
VERTEX
5
b2d
8
Layer1
10
147.9000
20
71.4130
30
0.0
0
VERTEX
5
b2e
8
Layer1
10
147.1000
20
71.4130
30
0.0
0
VERTEX
5
b2f
8
Layer1
10
147.1000
20
67.9130
30
0.0
0
VERTEX
5
b30
8
Layer1
10
147.9000
20
67.9130
30
0.0
0
VERTEX
5
b31
8
Layer1
10
147.9000
20
66.9130
30
0.0
0
VERTEX
5
b32
8
Layer1
10
161.9000
20
66.9130
30
0.0
0
VERTEX
5
b33
8
Layer1
10
161.9000
20
67.9130
30
0.0
0
SEQEND
5
b34
8
Layer1
0
POLYLINE
5
b35
8
Layer1
66
1
10
0.0
20
0.0
30
0.0
70
1
0
VERTEX
5
b36
8
Layer1
10
180.9500
20
67.9130
30
0.0
0
VERTEX
5
b37
8
Layer1
10
181.7500
20
67.9130
30
0.0
0
VERTEX
5
b38
8
Layer1
10
181.7500
20
71.4130
30
0.0
0
VERTEX
5
b39
8
Layer1
10
180.9500
20
71.4130
30
0.0
0
VERTEX
5
b3a
8
Layer1
10
180.9500
20
76.4130
30
0.0
0
VERTEX
5
b3b
8
Layer1
10
181.7500
20
76.4130
30
0.0
0
VERTEX
5
b3c
8
Layer1
10
181.7500
20
79.9130
30
0.0
0
VERTEX
5
b3d
8
Layer1
10
180.9500
20
79.9130
30
0.0
0
VERTEX
5
b3e
8
Layer1
10
180.9500
20
80.9130
30
0.0
0
VERTEX
5
b3f
8
Layer1
10
166.9500
20
80.9130
30
0.0
0
VERTEX
5
b40
8
Layer1
10
166.9500
20
79.9130
30
0.0
0
VERTEX
5
b41
8
Layer1
10
166.1500
20
79.9130
30
0.0
0
VERTEX
5
b42
8
Layer1
10
166.1500
20
76.4130
30
0.0
0
VERTEX
5
b43
8
Layer1
10
166.9500
20
76.4130
30
0.0
0
VERTEX
5
b44
8
Layer1
10
166.9500
20
71.4130
30
0.0
0
VERTEX
5
b45
8
Layer1
10
166.1500
20
71.4130
30
0.0
0
VERTEX
5
b46
8
Layer1
10
166.1500
20
67.9130
30
0.0
0
VERTEX
5
b47
8
Layer1
10
166.9500
20
67.9130
30
0.0
0
VERTEX
5
b48
8
Layer1
10
166.9500
20
66.9130
30
0.0
0
VERTEX
5
b49
8
Layer1
10
180.9500
20
66.9130
30
0.0
0
VERTEX
5
b4a
8
Layer1
10
180.9500
20
67.9130
30
0.0
0
SEQEND
5
b4b
8
Layer1
0
POLYLINE
5
b4c
8
Layer1
66
1
10
0.0
20
0.0
30
0.0
70
1
0
VERTEX
5
b4d
8
Layer1
10
200.0000
20
67.9130
30
0.0
0
VERTEX
5
b4e
8
Layer1
10
200.8000
20
67.9130
30
0.0
0
VERTEX
5
b4f
8
Layer1
10
200.8000
20
71.4130
30
0.0
0
VERTEX
5
b50
8
Layer1
10
200.0000
20
71.4130
30
0.0
0
VERTEX
5
b51
8
Layer1
10
200.0000
20
76.4130
30
0.0
0
VERTEX
5
b52
8
Layer1
10
200.8000
20
76.4130
30
0.0
0
VERTEX
5
b53
8
Layer1
10
200.8000
20
79.9130
30
0.0
0
VERTEX
5
b54
8
Layer1
10
200.0000
20
79.9130
30
0.0
0
VERTEX
5
b55
8
Layer1
10
200.0000
20
80.9130
30
0.0
0
VERTEX
5
b56
8
Layer1
10
186.0000
20
80.9130
30
0.0
0
VERTEX
5
b57
8
Layer1
10
186.0000
20
79.9130
30
0.0
0
VERTEX
5
b58
8
Layer1
10
185.2000
20
79.9130
30
0.0
0
VERTEX
5
b59
8
Layer1
10
185.2000
20
76.4130
30
0.0
0
VERTEX
5
b5a
8
Layer1
10
186.0000
20
76.4130
30
0.0
0
VERTEX
5
b5b
8
Layer1
10
186.0000
20
71.4130
30
0.0
0
VERTEX
5
b5c
8
Layer1
10
185.2000
20
71.4130
30
0.0
0
VERTEX
5
b5d
8
Layer1
10
185.2000
20
67.9130
30
0.0
0
VERTEX
5
b5e
8
Layer1
10
186.0000
20
67.9130
30
0.0
0
VERTEX
5
b5f
8
Layer1
10
186.0000
20
66.9130
30
0.0
0
VERTEX
5
b60
8
Layer1
10
200.0000
20
66.9130
30
0.0
0
VERTEX
5
b61
8
Layer1
10
200.0000
20
67.9130
30
0.0
0
SEQEND
5
b62
8
Layer1
0
POLYLINE
5
b63
8
Layer1
66
1
10
0.0
20
0.0
30
0.0
70
1
0
VERTEX
5
b64
8
Layer1
10
219.0500
20
67.9130
30
0.0
0
VERTEX
5
b65
8
Layer1
10
219.8500
20
67.9130
30
0.0
0
VERTEX
5
b66
8
Layer1
10
219.8500
20
71.4130
30
0.0
0
VERTEX
5
b67
8
Layer1
10
219.0500
20
71.4130
30
0.0
0
VERTEX
5
b68
8
Layer1
10
219.0500
20
76.4130
30
0.0
0
VERTEX
5
b69
8
Layer1
10
219.8500
20
76.4130
30
0.0
0
VERTEX
5
b6a
8
Layer1
10
219.8500
20
79.9130
30
0.0
0
VERTEX
5
b6b
8
Layer1
10
219.0500
20
79.9130
30
0.0
0
VERTEX
5
b6c
8
Layer1
10
219.0500
20
80.9130
30
0.0
0
VERTEX
5
b6d
8
Layer1
10
205.0500
20
80.9130
30
0.0
0
VERTEX
5
b6e
8
Layer1
10
205.0500
20
79.9130
30
0.0
0
VERTEX
5
b6f
8
Layer1
10
204.2500
20
79.9130
30
0.0
0
VERTEX
5
b70
8
Layer1
10
204.2500
20
76.4130
30
0.0
0
VERTEX
5
b71
8
Layer1
10
205.0500
20
76.4130
30
0.0
0
VERTEX
5
b72
8
Layer1
10
205.0500
20
71.4130
30
0.0
0
VERTEX
5
b73
8
Layer1
10
204.2500
20
71.4130
30
0.0
0
VERTEX
5
b74
8
Layer1
10
204.2500
20
67.9130
30
0.0
0
VERTEX
5
b75
8
Layer1
10
205.0500
20
67.9130
30
0.0
0
VERTEX
5
b76
8
Layer1
10
205.0500
20
66.9130
30
0.0
0
VERTEX
5
b77
8
Layer1
10
219.0500
20
66.9130
30
0.0
0
VERTEX
5
b78
8
Layer1
10
219.0500
20
67.9130
30
0.0
0
SEQEND
5
b79
8
Layer1
0
POLYLINE
5
b7a
8
Layer1
66
1
10
0.0
20
0.0
30
0.0
70
1
0
VERTEX
5
b7b
8
Layer1
10
238.1000
20
67.9130
30
0.0
0
VERTEX
5
b7c
8
Layer1
10
238.9000
20
67.9130
30
0.0
0
VERTEX
5
b7d
8
Layer1
10
238.9000
20
71.4130
30
0.0
0
VERTEX
5
b7e
8
Layer1
10
238.1000
20
71.4130
30
0.0
0
VERTEX
5
b7f
8
Layer1
10
238.1000
20
76.4130
30
0.0
0
VERTEX
5
b80
8
Layer1
10
238.9000
20
76.4130
30
0.0
0
VERTEX
5
b81
8
Layer1
10
238.9000
20
79.9130
30
0.0
0
VERTEX
5
b82
8
Layer1
10
238.1000
20
79.9130
30
0.0
0
VERTEX
5
b83
8
Layer1
10
238.1000
20
80.9130
30
0.0
0
VERTEX
5
b84
8
Layer1
10
224.1000
20
80.9130
30
0.0
0
VERTEX
5
b85
8
Layer1
10
224.1000
20
79.9130
30
0.0
0
VERTEX
5
b86
8
Layer1
10
223.3000
20
79.9130
30
0.0
0
VERTEX
5
b87
8
Layer1
10
223.3000
20
76.4130
30
0.0
0
VERTEX
5
b88
8
Layer1
10
224.1000
20
76.4130
30
0.0
0
VERTEX
5
b89
8
Layer1
10
224.1000
20
71.4130
30
0.0
0
VERTEX
5
b8a
8
Layer1
10
223.3000
20
71.4130
30
0.0
0
VERTEX
5
b8b
8
Layer1
10
223.3000
20
67.9130
30
0.0
0
VERTEX
5
b8c
8
Layer1
10
224.1000
20
67.9130
30
0.0
0
VERTEX
5
b8d
8
Layer1
10
224.1000
20
66.9130
30
0.0
0
VERTEX
5
b8e
8
Layer1
10
238.1000
20
66.9130
30
0.0
0
VERTEX
5
b8f
8
Layer1
10
238.1000
20
67.9130
30
0.0
0
SEQEND
5
b90
8
Layer1
0
POLYLINE
5
b91
8
Layer1
66
1
10
0.0
20
0.0
30
0.0
70
1
0
VERTEX
5
b92
8
Layer1
10
257.1500
20
67.9130
30
0.0
0
VERTEX
5
b93
8
Layer1
10
257.9500
20
67.9130
30
0.0
0
VERTEX
5
b94
8
Layer1
10
257.9500
20
71.4130
30
0.0
0
VERTEX
5
b95
8
Layer1
10
257.1500
20
71.4130
30
0.0
0
VERTEX
5
b96
8
Layer1
10
257.1500
20
76.4130
30
0.0
0
VERTEX
5
b97
8
Layer1
10
257.9500
20
76.4130
30
0.0
0
VERTEX
5
b98
8
Layer1
10
257.9500
20
79.9130
30
0.0
0
VERTEX
5
b99
8
Layer1
10
257.1500
20
79.9130
30
0.0
0
VERTEX
5
b9a
8
Layer1
10
257.1500
20
80.9130
30
0.0
0
VERTEX
5
b9b
8
Layer1
10
243.1500
20
80.9130
30
0.0
0
VERTEX
5
b9c
8
Layer1
10
243.1500
20
79.9130
30
0.0
0
VERTEX
5
b9d
8
Layer1
10
242.3500
20
79.9130
30
0.0
0
VERTEX
5
b9e
8
Layer1
10
242.3500
20
76.4130
30
0.0
0
VERTEX
5
b9f
8
Layer1
10
243.1500
20
76.4130
30
0.0
0
VERTEX
5
ba0
8
Layer1
10
243.1500
20
71.4130
30
0.0
0
VERTEX
5
ba1
8
Layer1
10
242.3500
20
71.4130
30
0.0
0
VERTEX
5
ba2
8
Layer1
10
242.3500
20
67.9130
30
0.0
0
VERTEX
5
ba3
8
Layer1
10
243.1500
20
67.9130
30
0.0
0
VERTEX
5
ba4
8
Layer1
10
243.1500
20
66.9130
30
0.0
0
VERTEX
5
ba5
8
Layer1
10
257.1500
20
66.9130
30
0.0
0
VERTEX
5
ba6
8
Layer1
10
257.1500
20
67.9130
30
0.0
0
SEQEND
5
ba7
8
Layer1
0
POLYLINE
5
ba8
8
Layer1
66
1
10
0.0
20
0.0
30
0.0
70
1
0
VERTEX
5
ba9
8
Layer1
10
280.9630
20
67.9130
30
0.0
0
VERTEX
5
baa
8
Layer1
10
281.7630
20
67.9130
30
0.0
0
VERTEX
5
bab
8
Layer1
10
281.7630
20
71.4130
30
0.0
0
VERTEX
5
bac
8
Layer1
10
280.9630
20
71.4130
30
0.0
0
VERTEX
5
bad
8
Layer1
10
280.9630
20
76.4130
30
0.0
0
VERTEX
5
bae
8
Layer1
10
281.7630
20
76.4130
30
0.0
0
VERTEX
5
baf
8
Layer1
10
281.7630
20
79.9130
30
0.0
0
VERTEX
5
bb0
8
Layer1
10
280.9630
20
79.9130
30
0.0
0
VERTEX
5
bb1
8
Layer1
10
280.9630
20
80.9130
30
0.0
0
VERTEX
5
bb2
8
Layer1
10
266.9630
20
80.9130
30
0.0
0
VERTEX
5
bb3
8
Layer1
10
266.9630
20
79.9130
30
0.0
0
VERTEX
5
bb4
8
Layer1
10
266.1630
20
79.9130
30
0.0
0
VERTEX
5
bb5
8
Layer1
10
266.1630
20
76.4130
30
0.0
0
VERTEX
5
bb6
8
Layer1
10
266.9630
20
76.4130
30
0.0
0
VERTEX
5
bb7
8
Layer1
10
266.9630
20
71.4130
30
0.0
0
VERTEX
5
bb8
8
Layer1
10
266.1630
20
71.4130
30
0.0
0
VERTEX
5
bb9
8
Layer1
10
266.1630
20
67.9130
30
0.0
0
VERTEX
5
bba
8
Layer1
10
266.9630
20
67.9130
30
0.0
0
VERTEX
5
bbb
8
Layer1
10
266.9630
20
66.9130
30
0.0
0
VERTEX
5
bbc
8
Layer1
10
280.9630
20
66.9130
30
0.0
0
VERTEX
5
bbd
8
Layer1
10
280.9630
20
67.9130
30
0.0
0
SEQEND
5
bbe
8
Layer1
0
POLYLINE
5
bbf
8
Layer1
66
1
10
0.0
20
0.0
30
0.0
70
1
0
VERTEX
5
bc0
8
Layer1
10
26.1690
20
48.8630
30
0.0
0
VERTEX
5
bc1
8
Layer1
10
26.9690
20
48.8630
30
0.0
0
VERTEX
5
bc2
8
Layer1
10
26.9690
20
52.3630
30
0.0
0
VERTEX
5
bc3
8
Layer1
10
26.1690
20
52.3630
30
0.0
0
VERTEX
5
bc4
8
Layer1
10
26.1690
20
57.3630
30
0.0
0
VERTEX
5
bc5
8
Layer1
10
26.9690
20
57.3630
30
0.0
0
VERTEX
5
bc6
8
Layer1
10
26.9690
20
60.8630
30
0.0
0
VERTEX
5
bc7
8
Layer1
10
26.1690
20
60.8630
30
0.0
0
VERTEX
5
bc8
8
Layer1
10
26.1690
20
61.8630
30
0.0
0
VERTEX
5
bc9
8
Layer1
10
12.1690
20
61.8630
30
0.0
0
VERTEX
5
bca
8
Layer1
10
12.1690
20
60.8630
30
0.0
0
VERTEX
5
bcb
8
Layer1
10
11.3690
20
60.8630
30
0.0
0
VERTEX
5
bcc
8
Layer1
10
11.3690
20
57.3630
30
0.0
0
VERTEX
5
bcd
8
Layer1
10
12.1690
20
57.3630
30
0.0
0
VERTEX
5
bce
8
Layer1
10
12.1690
20
52.3630
30
0.0
0
VERTEX
5
bcf
8
Layer1
10
11.3690
20
52.3630
30
0.0
0
VERTEX
5
bd0
8
Layer1
10
11.3690
20
48.8630
30
0.0
0
VERTEX
5
bd1
8
Layer1
10
12.1690
20
48.8630
30
0.0
0
VERTEX
5
bd2
8
Layer1
10
12.1690
20
47.8630
30
0.0
0
VERTEX
5
bd3
8
Layer1
10
26.1690
20
47.8630
30
0.0
0
VERTEX
5
bd4
8
Layer1
10
26.1690
20
48.8630
30
0.0
0
SEQEND
5
bd5
8
Layer1
0
POLYLINE
5
bd6
8
Layer1
66
1
10
0.0
20
0.0
30
0.0
70
1
0
VERTEX
5
bd7
8
Layer1
10
52.3630
20
48.8630
30
0.0
0
VERTEX
5
bd8
8
Layer1
10
53.1620
20
48.8630
30
0.0
0
VERTEX
5
bd9
8
Layer1
10
53.1620
20
52.3630
30
0.0
0
VERTEX
5
bda
8
Layer1
10
52.3630
20
52.3630
30
0.0
0
VERTEX
5
bdb
8
Layer1
10
52.3630
20
57.3630
30
0.0
0
VERTEX
5
bdc
8
Layer1
10
53.1620
20
57.3630
30
0.0
0
VERTEX
5
bdd
8
Layer1
10
53.1620
20
60.8630
30
0.0
0
VERTEX
5
bde
8
Layer1
10
52.3630
20
60.8630
30
0.0
0
VERTEX
5
bdf
8
Layer1
10
52.3630
20
61.8630
30
0.0
0
VERTEX
5
be0
8
Layer1
10
38.3630
20
61.8630
30
0.0
0
VERTEX
5
be1
8
Layer1
10
38.3630
20
60.8630
30
0.0
0
VERTEX
5
be2
8
Layer1
10
37.5630
20
60.8630
30
0.0
0
VERTEX
5
be3
8
Layer1
10
37.5630
20
57.3630
30
0.0
0
VERTEX
5
be4
8
Layer1
10
38.3630
20
57.3630
30
0.0
0
VERTEX
5
be5
8
Layer1
10
38.3630
20
52.3630
30
0.0
0
VERTEX
5
be6
8
Layer1
10
37.5630
20
52.3630
30
0.0
0
VERTEX
5
be7
8
Layer1
10
37.5630
20
48.8630
30
0.0
0
VERTEX
5
be8
8
Layer1
10
38.3630
20
48.8630
30
0.0
0
VERTEX
5
be9
8
Layer1
10
38.3630
20
47.8630
30
0.0
0
VERTEX
5
bea
8
Layer1
10
52.3630
20
47.8630
30
0.0
0
VERTEX
5
beb
8
Layer1
10
52.3630
20
48.8630
30
0.0
0
SEQEND
5
bec
8
Layer1
0
POLYLINE
5
bed
8
Layer1
66
1
10
0.0
20
0.0
30
0.0
70
1
0
VERTEX
5
bee
8
Layer1
10
71.4130
20
48.8630
30
0.0
0
VERTEX
5
bef
8
Layer1
10
72.2130
20
48.8630
30
0.0
0
VERTEX
5
bf0
8
Layer1
10
72.2130
20
52.3630
30
0.0
0
VERTEX
5
bf1
8
Layer1
10
71.4130
20
52.3630
30
0.0
0
VERTEX
5
bf2
8
Layer1
10
71.4130
20
57.3630
30
0.0
0
VERTEX
5
bf3
8
Layer1
10
72.2130
20
57.3630
30
0.0
0
VERTEX
5
bf4
8
Layer1
10
72.2130
20
60.8630
30
0.0
0
VERTEX
5
bf5
8
Layer1
10
71.4130
20
60.8630
30
0.0
0
VERTEX
5
bf6
8
Layer1
10
71.4130
20
61.8630
30
0.0
0
VERTEX
5
bf7
8
Layer1
10
57.4130
20
61.8630
30
0.0
0
VERTEX
5
bf8
8
Layer1
10
57.4130
20
60.8630
30
0.0
0
VERTEX
5
bf9
8
Layer1
10
56.6130
20
60.8630
30
0.0
0
VERTEX
5
bfa
8
Layer1
10
56.6130
20
57.3630
30
0.0
0
VERTEX
5
bfb
8
Layer1
10
57.4130
20
57.3630
30
0.0
0
VERTEX
5
bfc
8
Layer1
10
57.4130
20
52.3630
30
0.0
0
VERTEX
5
bfd
8
Layer1
10
56.6130
20
52.3630
30
0.0
0
VERTEX
5
bfe
8
Layer1
10
56.6130
20
48.8630
30
0.0
0
VERTEX
5
bff
8
Layer1
10
57.4130
20
48.8630
30
0.0
0
VERTEX
5
c00
8
Layer1
10
57.4130
20
47.8630
30
0.0
0
VERTEX
5
c01
8
Layer1
10
71.4130
20
47.8630
30
0.0
0
VERTEX
5
c02
8
Layer1
10
71.4130
20
48.8630
30
0.0
0
SEQEND
5
c03
8
Layer1
0
POLYLINE
5
c04
8
Layer1
66
1
10
0.0
20
0.0
30
0.0
70
1
0
VERTEX
5
c05
8
Layer1
10
90.4630
20
48.8630
30
0.0
0
VERTEX
5
c06
8
Layer1
10
91.2630
20
48.8630
30
0.0
0
VERTEX
5
c07
8
Layer1
10
91.2630
20
52.3630
30
0.0
0
VERTEX
5
c08
8
Layer1
10
90.4630
20
52.3630
30
0.0
0
VERTEX
5
c09
8
Layer1
10
90.4630
20
57.3630
30
0.0
0
VERTEX
5
c0a
8
Layer1
10
91.2630
20
57.3630
30
0.0
0
VERTEX
5
c0b
8
Layer1
10
91.2630
20
60.8630
30
0.0
0
VERTEX
5
c0c
8
Layer1
10
90.4630
20
60.8630
30
0.0
0
VERTEX
5
c0d
8
Layer1
10
90.4630
20
61.8630
30
0.0
0
VERTEX
5
c0e
8
Layer1
10
76.4630
20
61.8630
30
0.0
0
VERTEX
5
c0f
8
Layer1
10
76.4630
20
60.8630
30
0.0
0
VERTEX
5
c10
8
Layer1
10
75.6630
20
60.8630
30
0.0
0
VERTEX
5
c11
8
Layer1
10
75.6630
20
57.3630
30
0.0
0
VERTEX
5
c12
8
Layer1
10
76.4630
20
57.3630
30
0.0
0
VERTEX
5
c13
8
Layer1
10
76.4630
20
52.3630
30
0.0
0
VERTEX
5
c14
8
Layer1
10
75.6630
20
52.3630
30
0.0
0
VERTEX
5
c15
8
Layer1
10
75.6630
20
48.8630
30
0.0
0
VERTEX
5
c16
8
Layer1
10
76.4630
20
48.8630
30
0.0
0
VERTEX
5
c17
8
Layer1
10
76.4630
20
47.8630
30
0.0
0
VERTEX
5
c18
8
Layer1
10
90.4630
20
47.8630
30
0.0
0
VERTEX
5
c19
8
Layer1
10
90.4630
20
48.8630
30
0.0
0
SEQEND
5
c1a
8
Layer1
0
POLYLINE
5
c1b
8
Layer1
66
1
10
0.0
20
0.0
30
0.0
70
1
0
VERTEX
5
c1c
8
Layer1
10
109.5130
20
48.8630
30
0.0
0
VERTEX
5
c1d
8
Layer1
10
110.3130
20
48.8630
30
0.0
0
VERTEX
5
c1e
8
Layer1
10
110.3130
20
52.3630
30
0.0
0
VERTEX
5
c1f
8
Layer1
10
109.5130
20
52.3630
30
0.0
0
VERTEX
5
c20
8
Layer1
10
109.5130
20
57.3630
30
0.0
0
VERTEX
5
c21
8
Layer1
10
110.3130
20
57.3630
30
0.0
0
VERTEX
5
c22
8
Layer1
10
110.3130
20
60.8630
30
0.0
0
VERTEX
5
c23
8
Layer1
10
109.5130
20
60.8630
30
0.0
0
VERTEX
5
c24
8
Layer1
10
109.5130
20
61.8630
30
0.0
0
VERTEX
5
c25
8
Layer1
10
95.5130
20
61.8630
30
0.0
0
VERTEX
5
c26
8
Layer1
10
95.5130
20
60.8630
30
0.0
0
VERTEX
5
c27
8
Layer1
10
94.7130
20
60.8630
30
0.0
0
VERTEX
5
c28
8
Layer1
10
94.7130
20
57.3630
30
0.0
0
VERTEX
5
c29
8
Layer1
10
95.5130
20
57.3630
30
0.0
0
VERTEX
5
c2a
8
Layer1
10
95.5130
20
52.3630
30
0.0
0
VERTEX
5
c2b
8
Layer1
10
94.7130
20
52.3630
30
0.0
0
VERTEX
5
c2c
8
Layer1
10
94.7130
20
48.8630
30
0.0
0
VERTEX
5
c2d
8
Layer1
10
95.5130
20
48.8630
30
0.0
0
VERTEX
5
c2e
8
Layer1
10
95.5130
20
47.8630
30
0.0
0
VERTEX
5
c2f
8
Layer1
10
109.5130
20
47.8630
30
0.0
0
VERTEX
5
c30
8
Layer1
10
109.5130
20
48.8630
30
0.0
0
SEQEND
5
c31
8
Layer1
0
POLYLINE
5
c32
8
Layer1
66
1
10
0.0
20
0.0
30
0.0
70
1
0
VERTEX
5
c33
8
Layer1
10
128.5630
20
48.8630
30
0.0
0
VERTEX
5
c34
8
Layer1
10
129.3630
20
48.8630
30
0.0
0
VERTEX
5
c35
8
Layer1
10
129.3630
20
52.3630
30
0.0
0
VERTEX
5
c36
8
Layer1
10
128.5630
20
52.3630
30
0.0
0
VERTEX
5
c37
8
Layer1
10
128.5630
20
57.3630
30
0.0
0
VERTEX
5
c38
8
Layer1
10
129.3630
20
57.3630
30
0.0
0
VERTEX
5
c39
8
Layer1
10
129.3630
20
60.8630
30
0.0
0
VERTEX
5
c3a
8
Layer1
10
128.5630
20
60.8630
30
0.0
0
VERTEX
5
c3b
8
Layer1
10
128.5630
20
61.8630
30
0.0
0
VERTEX
5
c3c
8
Layer1
10
114.5630
20
61.8630
30
0.0
0
VERTEX
5
c3d
8
Layer1
10
114.5630
20
60.8630
30
0.0
0
VERTEX
5
c3e
8
Layer1
10
113.7630
20
60.8630
30
0.0
0
VERTEX
5
c3f
8
Layer1
10
113.7630
20
57.3630
30
0.0
0
VERTEX
5
c40
8
Layer1
10
114.5630
20
57.3630
30
0.0
0
VERTEX
5
c41
8
Layer1
10
114.5630
20
52.3630
30
0.0
0
VERTEX
5
c42
8
Layer1
10
113.7630
20
52.3630
30
0.0
0
VERTEX
5
c43
8
Layer1
10
113.7630
20
48.8630
30
0.0
0
VERTEX
5
c44
8
Layer1
10
114.5630
20
48.8630
30
0.0
0
VERTEX
5
c45
8
Layer1
10
114.5630
20
47.8630
30
0.0
0
VERTEX
5
c46
8
Layer1
10
128.5630
20
47.8630
30
0.0
0
VERTEX
5
c47
8
Layer1
10
128.5630
20
48.8630
30
0.0
0
SEQEND
5
c48
8
Layer1
0
POLYLINE
5
c49
8
Layer1
66
1
10
0.0
20
0.0
30
0.0
70
1
0
VERTEX
5
c4a
8
Layer1
10
147.6130
20
48.8630
30
0.0
0
VERTEX
5
c4b
8
Layer1
10
148.4130
20
48.8630
30
0.0
0
VERTEX
5
c4c
8
Layer1
10
148.4130
20
52.3630
30
0.0
0
VERTEX
5
c4d
8
Layer1
10
147.6130
20
52.3630
30
0.0
0
VERTEX
5
c4e
8
Layer1
10
147.6130
20
57.3630
30
0.0
0
VERTEX
5
c4f
8
Layer1
10
148.4130
20
57.3630
30
0.0
0
VERTEX
5
c50
8
Layer1
10
148.4130
20
60.8630
30
0.0
0
VERTEX
5
c51
8
Layer1
10
147.6130
20
60.8630
30
0.0
0
VERTEX
5
c52
8
Layer1
10
147.6130
20
61.8630
30
0.0
0
VERTEX
5
c53
8
Layer1
10
133.6130
20
61.8630
30
0.0
0
VERTEX
5
c54
8
Layer1
10
133.6130
20
60.8630
30
0.0
0
VERTEX
5
c55
8
Layer1
10
132.8130
20
60.8630
30
0.0
0
VERTEX
5
c56
8
Layer1
10
132.8130
20
57.3630
30
0.0
0
VERTEX
5
c57
8
Layer1
10
133.6130
20
57.3630
30
0.0
0
VERTEX
5
c58
8
Layer1
10
133.6130
20
52.3630
30
0.0
0
VERTEX
5
c59
8
Layer1
10
132.8130
20
52.3630
30
0.0
0
VERTEX
5
c5a
8
Layer1
10
132.8130
20
48.8630
30
0.0
0
VERTEX
5
c5b
8
Layer1
10
133.6130
20
48.8630
30
0.0
0
VERTEX
5
c5c
8
Layer1
10
133.6130
20
47.8630
30
0.0
0
VERTEX
5
c5d
8
Layer1
10
147.6130
20
47.8630
30
0.0
0
VERTEX
5
c5e
8
Layer1
10
147.6130
20
48.8630
30
0.0
0
SEQEND
5
c5f
8
Layer1
0
POLYLINE
5
c60
8
Layer1
66
1
10
0.0
20
0.0
30
0.0
70
1
0
VERTEX
5
c61
8
Layer1
10
166.6630
20
48.8630
30
0.0
0
VERTEX
5
c62
8
Layer1
10
167.4630
20
48.8630
30
0.0
0
VERTEX
5
c63
8
Layer1
10
167.4630
20
52.3630
30
0.0
0
VERTEX
5
c64
8
Layer1
10
166.6630
20
52.3630
30
0.0
0
VERTEX
5
c65
8
Layer1
10
166.6630
20
57.3630
30
0.0
0
VERTEX
5
c66
8
Layer1
10
167.4630
20
57.3630
30
0.0
0
VERTEX
5
c67
8
Layer1
10
167.4630
20
60.8630
30
0.0
0
VERTEX
5
c68
8
Layer1
10
166.6630
20
60.8630
30
0.0
0
VERTEX
5
c69
8
Layer1
10
166.6630
20
61.8630
30
0.0
0
VERTEX
5
c6a
8
Layer1
10
152.6630
20
61.8630
30
0.0
0
VERTEX
5
c6b
8
Layer1
10
152.6630
20
60.8630
30
0.0
0
VERTEX
5
c6c
8
Layer1
10
151.8630
20
60.8630
30
0.0
0
VERTEX
5
c6d
8
Layer1
10
151.8630
20
57.3630
30
0.0
0
VERTEX
5
c6e
8
Layer1
10
152.6630
20
57.3630
30
0.0
0
VERTEX
5
c6f
8
Layer1
10
152.6630
20
52.3630
30
0.0
0
VERTEX
5
c70
8
Layer1
10
151.8630
20
52.3630
30
0.0
0
VERTEX
5
c71
8
Layer1
10
151.8630
20
48.8630
30
0.0
0
VERTEX
5
c72
8
Layer1
10
152.6630
20
48.8630
30
0.0
0
VERTEX
5
c73
8
Layer1
10
152.6630
20
47.8630
30
0.0
0
VERTEX
5
c74
8
Layer1
10
166.6630
20
47.8630
30
0.0
0
VERTEX
5
c75
8
Layer1
10
166.6630
20
48.8630
30
0.0
0
SEQEND
5
c76
8
Layer1
0
POLYLINE
5
c77
8
Layer1
66
1
10
0.0
20
0.0
30
0.0
70
1
0
VERTEX
5
c78
8
Layer1
10
185.7130
20
48.8630
30
0.0
0
VERTEX
5
c79
8
Layer1
10
186.5130
20
48.8630
30
0.0
0
VERTEX
5
c7a
8
Layer1
10
186.5130
20
52.3630
30
0.0
0
VERTEX
5
c7b
8
Layer1
10
185.7130
20
52.3630
30
0.0
0
VERTEX
5
c7c
8
Layer1
10
185.7130
20
57.3630
30
0.0
0
VERTEX
5
c7d
8
Layer1
10
186.5130
20
57.3630
30
0.0
0
VERTEX
5
c7e
8
Layer1
10
186.5130
20
60.8630
30
0.0
0
VERTEX
5
c7f
8
Layer1
10
185.7130
20
60.8630
30
0.0
0
VERTEX
5
c80
8
Layer1
10
185.7130
20
61.8630
30
0.0
0
VERTEX
5
c81
8
Layer1
10
171.7130
20
61.8630
30
0.0
0
VERTEX
5
c82
8
Layer1
10
171.7130
20
60.8630
30
0.0
0
VERTEX
5
c83
8
Layer1
10
170.9130
20
60.8630
30
0.0
0
VERTEX
5
c84
8
Layer1
10
170.9130
20
57.3630
30
0.0
0
VERTEX
5
c85
8
Layer1
10
171.7130
20
57.3630
30
0.0
0
VERTEX
5
c86
8
Layer1
10
171.7130
20
52.3630
30
0.0
0
VERTEX
5
c87
8
Layer1
10
170.9130
20
52.3630
30
0.0
0
VERTEX
5
c88
8
Layer1
10
170.9130
20
48.8630
30
0.0
0
VERTEX
5
c89
8
Layer1
10
171.7130
20
48.8630
30
0.0
0
VERTEX
5
c8a
8
Layer1
10
171.7130
20
47.8630
30
0.0
0
VERTEX
5
c8b
8
Layer1
10
185.7130
20
47.8630
30
0.0
0
VERTEX
5
c8c
8
Layer1
10
185.7130
20
48.8630
30
0.0
0
SEQEND
5
c8d
8
Layer1
0
POLYLINE
5
c8e
8
Layer1
66
1
10
0.0
20
0.0
30
0.0
70
1
0
VERTEX
5
c8f
8
Layer1
10
204.7630
20
48.8630
30
0.0
0
VERTEX
5
c90
8
Layer1
10
205.5630
20
48.8630
30
0.0
0
VERTEX
5
c91
8
Layer1
10
205.5630
20
52.3630
30
0.0
0
VERTEX
5
c92
8
Layer1
10
204.7630
20
52.3630
30
0.0
0
VERTEX
5
c93
8
Layer1
10
204.7630
20
57.3630
30
0.0
0
VERTEX
5
c94
8
Layer1
10
205.5630
20
57.3630
30
0.0
0
VERTEX
5
c95
8
Layer1
10
205.5630
20
60.8630
30
0.0
0
VERTEX
5
c96
8
Layer1
10
204.7630
20
60.8630
30
0.0
0
VERTEX
5
c97
8
Layer1
10
204.7630
20
61.8630
30
0.0
0
VERTEX
5
c98
8
Layer1
10
190.7630
20
61.8630
30
0.0
0
VERTEX
5
c99
8
Layer1
10
190.7630
20
60.8630
30
0.0
0
VERTEX
5
c9a
8
Layer1
10
189.9630
20
60.8630
30
0.0
0
VERTEX
5
c9b
8
Layer1
10
189.9630
20
57.3630
30
0.0
0
VERTEX
5
c9c
8
Layer1
10
190.7630
20
57.3630
30
0.0
0
VERTEX
5
c9d
8
Layer1
10
190.7630
20
52.3630
30
0.0
0
VERTEX
5
c9e
8
Layer1
10
189.9630
20
52.3630
30
0.0
0
VERTEX
5
c9f
8
Layer1
10
189.9630
20
48.8630
30
0.0
0
VERTEX
5
ca0
8
Layer1
10
190.7630
20
48.8630
30
0.0
0
VERTEX
5
ca1
8
Layer1
10
190.7630
20
47.8630
30
0.0
0
VERTEX
5
ca2
8
Layer1
10
204.7630
20
47.8630
30
0.0
0
VERTEX
5
ca3
8
Layer1
10
204.7630
20
48.8630
30
0.0
0
SEQEND
5
ca4
8
Layer1
0
POLYLINE
5
ca5
8
Layer1
66
1
10
0.0
20
0.0
30
0.0
70
1
0
VERTEX
5
ca6
8
Layer1
10
223.8130
20
48.8630
30
0.0
0
VERTEX
5
ca7
8
Layer1
10
224.6130
20
48.8630
30
0.0
0
VERTEX
5
ca8
8
Layer1
10
224.6130
20
52.3630
30
0.0
0
VERTEX
5
ca9
8
Layer1
10
223.8130
20
52.3630
30
0.0
0
VERTEX
5
caa
8
Layer1
10
223.8130
20
57.3630
30
0.0
0
VERTEX
5
cab
8
Layer1
10
224.6130
20
57.3630
30
0.0
0
VERTEX
5
cac
8
Layer1
10
224.6130
20
60.8630
30
0.0
0
VERTEX
5
cad
8
Layer1
10
223.8130
20
60.8630
30
0.0
0
VERTEX
5
cae
8
Layer1
10
223.8130
20
61.8630
30
0.0
0
VERTEX
5
caf
8
Layer1
10
209.8130
20
61.8630
30
0.0
0
VERTEX
5
cb0
8
Layer1
10
209.8130
20
60.8630
30
0.0
0
VERTEX
5
cb1
8
Layer1
10
209.0130
20
60.8630
30
0.0
0
VERTEX
5
cb2
8
Layer1
10
209.0130
20
57.3630
30
0.0
0
VERTEX
5
cb3
8
Layer1
10
209.8130
20
57.3630
30
0.0
0
VERTEX
5
cb4
8
Layer1
10
209.8130
20
52.3630
30
0.0
0
VERTEX
5
cb5
8
Layer1
10
209.0130
20
52.3630
30
0.0
0
VERTEX
5
cb6
8
Layer1
10
209.0130
20
48.8630
30
0.0
0
VERTEX
5
cb7
8
Layer1
10
209.8130
20
48.8630
30
0.0
0
VERTEX
5
cb8
8
Layer1
10
209.8130
20
47.8630
30
0.0
0
VERTEX
5
cb9
8
Layer1
10
223.8130
20
47.8630
30
0.0
0
VERTEX
5
cba
8
Layer1
10
223.8130
20
48.8630
30
0.0
0
SEQEND
5
cbb
8
Layer1
0
POLYLINE
5
cbc
8
Layer1
66
1
10
0.0
20
0.0
30
0.0
70
1
0
VERTEX
5
cbd
8
Layer1
10
242.8630
20
48.8630
30
0.0
0
VERTEX
5
cbe
8
Layer1
10
243.6630
20
48.8630
30
0.0
0
VERTEX
5
cbf
8
Layer1
10
243.6630
20
52.3630
30
0.0
0
VERTEX
5
cc0
8
Layer1
10
242.8630
20
52.3630
30
0.0
0
VERTEX
5
cc1
8
Layer1
10
242.8630
20
57.3630
30
0.0
0
VERTEX
5
cc2
8
Layer1
10
243.6630
20
57.3630
30
0.0
0
VERTEX
5
cc3
8
Layer1
10
243.6630
20
60.8630
30
0.0
0
VERTEX
5
cc4
8
Layer1
10
242.8630
20
60.8630
30
0.0
0
VERTEX
5
cc5
8
Layer1
10
242.8630
20
61.8630
30
0.0
0
VERTEX
5
cc6
8
Layer1
10
228.8630
20
61.8630
30
0.0
0
VERTEX
5
cc7
8
Layer1
10
228.8630
20
60.8630
30
0.0
0
VERTEX
5
cc8
8
Layer1
10
228.0630
20
60.8630
30
0.0
0
VERTEX
5
cc9
8
Layer1
10
228.0630
20
57.3630
30
0.0
0
VERTEX
5
cca
8
Layer1
10
228.8630
20
57.3630
30
0.0
0
VERTEX
5
ccb
8
Layer1
10
228.8630
20
52.3630
30
0.0
0
VERTEX
5
ccc
8
Layer1
10
228.0630
20
52.3630
30
0.0
0
VERTEX
5
ccd
8
Layer1
10
228.0630
20
48.8630
30
0.0
0
VERTEX
5
cce
8
Layer1
10
228.8630
20
48.8630
30
0.0
0
VERTEX
5
ccf
8
Layer1
10
228.8630
20
47.8630
30
0.0
0
VERTEX
5
cd0
8
Layer1
10
242.8630
20
47.8630
30
0.0
0
VERTEX
5
cd1
8
Layer1
10
242.8630
20
48.8630
30
0.0
0
SEQEND
5
cd2
8
Layer1
0
POLYLINE
5
cd3
8
Layer1
66
1
10
0.0
20
0.0
30
0.0
70
1
0
VERTEX
5
cd4
8
Layer1
10
256.4190
20
48.0920
30
0.0
0
VERTEX
5
cd5
8
Layer1
10
258.2440
20
48.0920
30
0.0
0
VERTEX
5
cd6
8
Layer1
10
258.2440
20
48.8930
30
0.0
0
VERTEX
5
cd7
8
Layer1
10
259.0190
20
48.8930
30
0.0
0
VERTEX
5
cd8
8
Layer1
10
259.0190
20
48.8630
30
0.0
0
VERTEX
5
cd9
8
Layer1
10
259.8190
20
48.8630
30
0.0
0
VERTEX
5
cda
8
Layer1
10
259.8190
20
47.8630
30
0.0
0
VERTEX
5
cdb
8
Layer1
10
273.8190
20
47.8630
30
0.0
0
VERTEX
5
cdc
8
Layer1
10
273.8190
20
48.8630
30
0.0
0
VERTEX
5
cdd
8
Layer1
10
274.6190
20
48.8630
30
0.0
0
VERTEX
5
cde
8
Layer1
10
274.6190
20
48.8930
30
0.0
0
VERTEX
5
cdf
8
Layer1
10
275.3940
20
48.8930
30
0.0
0
VERTEX
5
ce0
8
Layer1
10
275.3940
20
48.0920
30
0.0
0
VERTEX
5
ce1
8
Layer1
10
277.2190
20
48.0920
30
0.0
0
VERTEX
5
ce2
8
Layer1
10
277.2190
20
46.8930
30
0.0
0
VERTEX
5
ce3
8
Layer1
10
280.2190
20
46.8930
30
0.0
0
VERTEX
5
ce4
8
Layer1
10
280.2190
20
48.0920
30
0.0
0
VERTEX
5
ce5
8
Layer1
10
282.0440
20
48.0920
30
0.0
0
VERTEX
5
ce6
8
Layer1
10
282.0440
20
54.3630
30
0.0
0
VERTEX
5
ce7
8
Layer1
10
282.9190
20
54.3630
30
0.0
0
VERTEX
5
ce8
8
Layer1
10
282.9190
20
57.1630
30
0.0
0
VERTEX
5
ce9
8
Layer1
10
282.0440
20
57.1630
30
0.0
0
VERTEX
5
cea
8
Layer1
10
282.0440
20
60.3930
30
0.0
0
VERTEX
5
ceb
8
Layer1
10
275.3940
20
60.3930
30
0.0
0
VERTEX
5
cec
8
Layer1
10
275.3940
20
59.5920
30
0.0
0
VERTEX
5
ced
8
Layer1
10
274.6190
20
59.5920
30
0.0
0
VERTEX
5
cee
8
Layer1
10
274.6190
20
60.8630
30
0.0
0
VERTEX
5
cef
8
Layer1
10
273.8190
20
60.8630
30
0.0
0
VERTEX
5
cf0
8
Layer1
10
273.8190
20
61.8630
30
0.0
0
VERTEX
5
cf1
8
Layer1
10
259.8190
20
61.8630
30
0.0
0
VERTEX
5
cf2
8
Layer1
10
259.8190
20
60.8630
30
0.0
0
VERTEX
5
cf3
8
Layer1
10
259.0190
20
60.8630
30
0.0
0
VERTEX
5
cf4
8
Layer1
10
259.0190
20
59.5920
30
0.0
0
VERTEX
5
cf5
8
Layer1
10
258.2440
20
59.5920
30
0.0
0
VERTEX
5
cf6
8
Layer1
10
258.2440
20
60.3930
30
0.0
0
VERTEX
5
cf7
8
Layer1
10
251.5940
20
60.3930
30
0.0
0
VERTEX
5
cf8
8
Layer1
10
251.5940
20
57.1630
30
0.0
0
VERTEX
5
cf9
8
Layer1
10
250.7190
20
57.1630
30
0.0
0
VERTEX
5
cfa
8
Layer1
10
250.7190
20
54.3630
30
0.0
0
VERTEX
5
cfb
8
Layer1
10
251.5940
20
54.3630
30
0.0
0
VERTEX
5
cfc
8
Layer1
10
251.5940
20
48.0920
30
0.0
0
VERTEX
5
cfd
8
Layer1
10
253.4190
20
48.0920
30
0.0
0
VERTEX
5
cfe
8
Layer1
10
253.4190
20
46.8930
30
0.0
0
VERTEX
5
cff
8
Layer1
10
256.4190
20
46.8930
30
0.0
0
VERTEX
5
d00
8
Layer1
10
256.4190
20
48.0920
30
0.0
0
SEQEND
5
d01
8
Layer1
0
POLYLINE
5
d02
8
Layer1
66
1
10
0.0
20
0.0
30
0.0
70
1
0
VERTEX
5
d03
8
Layer1
10
13.5310
20
29.0420
30
0.0
0
VERTEX
5
d04
8
Layer1
10
15.3560
20
29.0420
30
0.0
0
VERTEX
5
d05
8
Layer1
10
15.3560
20
29.8420
30
0.0
0
VERTEX
5
d06
8
Layer1
10
16.1310
20
29.8420
30
0.0
0
VERTEX
5
d07
8
Layer1
10
16.1310
20
29.8120
30
0.0
0
VERTEX
5
d08
8
Layer1
10
16.9310
20
29.8120
30
0.0
0
VERTEX
5
d09
8
Layer1
10
16.9310
20
28.8120
30
0.0
0
VERTEX
5
d0a
8
Layer1
10
30.9310
20
28.8120
30
0.0
0
VERTEX
5
d0b
8
Layer1
10
30.9310
20
29.8120
30
0.0
0
VERTEX
5
d0c
8
Layer1
10
31.7310
20
29.8120
30
0.0
0
VERTEX
5
d0d
8
Layer1
10
31.7310
20
29.8420
30
0.0
0
VERTEX
5
d0e
8
Layer1
10
32.5060
20
29.8420
30
0.0
0
VERTEX
5
d0f
8
Layer1
10
32.5060
20
29.0420
30
0.0
0
VERTEX
5
d10
8
Layer1
10
34.3310
20
29.0420
30
0.0
0
VERTEX
5
d11
8
Layer1
10
34.3310
20
27.8420
30
0.0
0
VERTEX
5
d12
8
Layer1
10
37.3310
20
27.8420
30
0.0
0
VERTEX
5
d13
8
Layer1
10
37.3310
20
29.0420
30
0.0
0
VERTEX
5
d14
8
Layer1
10
39.1560
20
29.0420
30
0.0
0
VERTEX
5
d15
8
Layer1
10
39.1560
20
35.3120
30
0.0
0
VERTEX
5
d16
8
Layer1
10
40.0310
20
35.3120
30
0.0
0
VERTEX
5
d17
8
Layer1
10
40.0310
20
38.1130
30
0.0
0
VERTEX
5
d18
8
Layer1
10
39.1560
20
38.1130
30
0.0
0
VERTEX
5
d19
8
Layer1
10
39.1560
20
41.3420
30
0.0
0
VERTEX
5
d1a
8
Layer1
10
32.5060
20
41.3420
30
0.0
0
VERTEX
5
d1b
8
Layer1
10
32.5060
20
40.5420
30
0.0
0
VERTEX
5
d1c
8
Layer1
10
31.7310
20
40.5420
30
0.0
0
VERTEX
5
d1d
8
Layer1
10
31.7310
20
41.8120
30
0.0
0
VERTEX
5
d1e
8
Layer1
10
30.9310
20
41.8120
30
0.0
0
VERTEX
5
d1f
8
Layer1
10
30.9310
20
42.8120
30
0.0
0
VERTEX
5
d20
8
Layer1
10
16.9310
20
42.8120
30
0.0
0
VERTEX
5
d21
8
Layer1
10
16.9310
20
41.8120
30
0.0
0
VERTEX
5
d22
8
Layer1
10
16.1310
20
41.8120
30
0.0
0
VERTEX
5
d23
8
Layer1
10
16.1310
20
40.5420
30
0.0
0
VERTEX
5
d24
8
Layer1
10
15.3560
20
40.5420
30
0.0
0
VERTEX
5
d25
8
Layer1
10
15.3560
20
41.3420
30
0.0
0
VERTEX
5
d26
8
Layer1
10
8.7060
20
41.3420
30
0.0
0
VERTEX
5
d27
8
Layer1
10
8.7060
20
38.1130
30
0.0
0
VERTEX
5
d28
8
Layer1
10
7.8310
20
38.1130
30
0.0
0
VERTEX
5
d29
8
Layer1
10
7.8310
20
35.3120
30
0.0
0
VERTEX
5
d2a
8
Layer1
10
8.7060
20
35.3120
30
0.0
0
VERTEX
5
d2b
8
Layer1
10
8.7060
20
29.0420
30
0.0
0
VERTEX
5
d2c
8
Layer1
10
10.5310
20
29.0420
30
0.0
0
VERTEX
5
d2d
8
Layer1
10
10.5310
20
27.8420
30
0.0
0
VERTEX
5
d2e
8
Layer1
10
13.5310
20
27.8420
30
0.0
0
VERTEX
5
d2f
8
Layer1
10
13.5310
20
29.0420
30
0.0
0
SEQEND
5
d30
8
Layer1
0
POLYLINE
5
d31
8
Layer1
66
1
10
0.0
20
0.0
30
0.0
70
1
0
VERTEX
5
d32
8
Layer1
10
61.8880
20
29.8120
30
0.0
0
VERTEX
5
d33
8
Layer1
10
62.6880
20
29.8120
30
0.0
0
VERTEX
5
d34
8
Layer1
10
62.6880
20
33.3120
30
0.0
0
VERTEX
5
d35
8
Layer1
10
61.8880
20
33.3120
30
0.0
0
VERTEX
5
d36
8
Layer1
10
61.8880
20
38.3120
30
0.0
0
VERTEX
5
d37
8
Layer1
10
62.6880
20
38.3120
30
0.0
0
VERTEX
5
d38
8
Layer1
10
62.6880
20
41.8120
30
0.0
0
VERTEX
5
d39
8
Layer1
10
61.8880
20
41.8120
30
0.0
0
VERTEX
5
d3a
8
Layer1
10
61.8880
20
42.8120
30
0.0
0
VERTEX
5
d3b
8
Layer1
10
47.8880
20
42.8120
30
0.0
0
VERTEX
5
d3c
8
Layer1
10
47.8880
20
41.8120
30
0.0
0
VERTEX
5
d3d
8
Layer1
10
47.0880
20
41.8120
30
0.0
0
VERTEX
5
d3e
8
Layer1
10
47.0880
20
38.3120
30
0.0
0
VERTEX
5
d3f
8
Layer1
10
47.8880
20
38.3120
30
0.0
0
VERTEX
5
d40
8
Layer1
10
47.8880
20
33.3120
30
0.0
0
VERTEX
5
d41
8
Layer1
10
47.0880
20
33.3120
30
0.0
0
VERTEX
5
d42
8
Layer1
10
47.0880
20
29.8120
30
0.0
0
VERTEX
5
d43
8
Layer1
10
47.8880
20
29.8120
30
0.0
0
VERTEX
5
d44
8
Layer1
10
47.8880
20
28.8120
30
0.0
0
VERTEX
5
d45
8
Layer1
10
61.8880
20
28.8120
30
0.0
0
VERTEX
5
d46
8
Layer1
10
61.8880
20
29.8120
30
0.0
0
SEQEND
5
d47
8
Layer1
0
POLYLINE
5
d48
8
Layer1
66
1
10
0.0
20
0.0
30
0.0
70
1
0
VERTEX
5
d49
8
Layer1
10
80.9380
20
29.8120
30
0.0
0
VERTEX
5
d4a
8
Layer1
10
81.7380
20
29.8120
30
0.0
0
VERTEX
5
d4b
8
Layer1
10
81.7380
20
33.3120
30
0.0
0
VERTEX
5
d4c
8
Layer1
10
80.9380
20
33.3120
30
0.0
0
VERTEX
5
d4d
8
Layer1
10
80.9380
20
38.3120
30
0.0
0
VERTEX
5
d4e
8
Layer1
10
81.7380
20
38.3120
30
0.0
0
VERTEX
5
d4f
8
Layer1
10
81.7380
20
41.8120
30
0.0
0
VERTEX
5
d50
8
Layer1
10
80.9380
20
41.8120
30
0.0
0
VERTEX
5
d51
8
Layer1
10
80.9380
20
42.8120
30
0.0
0
VERTEX
5
d52
8
Layer1
10
66.9380
20
42.8120
30
0.0
0
VERTEX
5
d53
8
Layer1
10
66.9380
20
41.8120
30
0.0
0
VERTEX
5
d54
8
Layer1
10
66.1380
20
41.8120
30
0.0
0
VERTEX
5
d55
8
Layer1
10
66.1380
20
38.3120
30
0.0
0
VERTEX
5
d56
8
Layer1
10
66.9380
20
38.3120
30
0.0
0
VERTEX
5
d57
8
Layer1
10
66.9380
20
33.3120
30
0.0
0
VERTEX
5
d58
8
Layer1
10
66.1380
20
33.3120
30
0.0
0
VERTEX
5
d59
8
Layer1
10
66.1380
20
29.8120
30
0.0
0
VERTEX
5
d5a
8
Layer1
10
66.9380
20
29.8120
30
0.0
0
VERTEX
5
d5b
8
Layer1
10
66.9380
20
28.8120
30
0.0
0
VERTEX
5
d5c
8
Layer1
10
80.9380
20
28.8120
30
0.0
0
VERTEX
5
d5d
8
Layer1
10
80.9380
20
29.8120
30
0.0
0
SEQEND
5
d5e
8
Layer1
0
POLYLINE
5
d5f
8
Layer1
66
1
10
0.0
20
0.0
30
0.0
70
1
0
VERTEX
5
d60
8
Layer1
10
99.9880
20
29.8120
30
0.0
0
VERTEX
5
d61
8
Layer1
10
100.7880
20
29.8120
30
0.0
0
VERTEX
5
d62
8
Layer1
10
100.7880
20
33.3120
30
0.0
0
VERTEX
5
d63
8
Layer1
10
99.9880
20
33.3120
30
0.0
0
VERTEX
5
d64
8
Layer1
10
99.9880
20
38.3120
30
0.0
0
VERTEX
5
d65
8
Layer1
10
100.7880
20
38.3120
30
0.0
0
VERTEX
5
d66
8
Layer1
10
100.7880
20
41.8120
30
0.0
0
VERTEX
5
d67
8
Layer1
10
99.9880
20
41.8120
30
0.0
0
VERTEX
5
d68
8
Layer1
10
99.9880
20
42.8120
30
0.0
0
VERTEX
5
d69
8
Layer1
10
85.9880
20
42.8120
30
0.0
0
VERTEX
5
d6a
8
Layer1
10
85.9880
20
41.8120
30
0.0
0
VERTEX
5
d6b
8
Layer1
10
85.1880
20
41.8120
30
0.0
0
VERTEX
5
d6c
8
Layer1
10
85.1880
20
38.3120
30
0.0
0
VERTEX
5
d6d
8
Layer1
10
85.9880
20
38.3120
30
0.0
0
VERTEX
5
d6e
8
Layer1
10
85.9880
20
33.3120
30
0.0
0
VERTEX
5
d6f
8
Layer1
10
85.1880
20
33.3120
30
0.0
0
VERTEX
5
d70
8
Layer1
10
85.1880
20
29.8120
30
0.0
0
VERTEX
5
d71
8
Layer1
10
85.9880
20
29.8120
30
0.0
0
VERTEX
5
d72
8
Layer1
10
85.9880
20
28.8120
30
0.0
0
VERTEX
5
d73
8
Layer1
10
99.9880
20
28.8120
30
0.0
0
VERTEX
5
d74
8
Layer1
10
99.9880
20
29.8120
30
0.0
0
SEQEND
5
d75
8
Layer1
0
POLYLINE
5
d76
8
Layer1
66
1
10
0.0
20
0.0
30
0.0
70
1
0
VERTEX
5
d77
8
Layer1
10
119.0380
20
29.8120
30
0.0
0
VERTEX
5
d78
8
Layer1
10
119.8380
20
29.8120
30
0.0
0
VERTEX
5
d79
8
Layer1
10
119.8380
20
33.3120
30
0.0
0
VERTEX
5
d7a
8
Layer1
10
119.0380
20
33.3120
30
0.0
0
VERTEX
5
d7b
8
Layer1
10
119.0380
20
38.3120
30
0.0
0
VERTEX
5
d7c
8
Layer1
10
119.8380
20
38.3120
30
0.0
0
VERTEX
5
d7d
8
Layer1
10
119.8380
20
41.8120
30
0.0
0
VERTEX
5
d7e
8
Layer1
10
119.0380
20
41.8120
30
0.0
0
VERTEX
5
d7f
8
Layer1
10
119.0380
20
42.8120
30
0.0
0
VERTEX
5
d80
8
Layer1
10
105.0380
20
42.8120
30
0.0
0
VERTEX
5
d81
8
Layer1
10
105.0380
20
41.8120
30
0.0
0
VERTEX
5
d82
8
Layer1
10
104.2380
20
41.8120
30
0.0
0
VERTEX
5
d83
8
Layer1
10
104.2380
20
38.3120
30
0.0
0
VERTEX
5
d84
8
Layer1
10
105.0380
20
38.3120
30
0.0
0
VERTEX
5
d85
8
Layer1
10
105.0380
20
33.3120
30
0.0
0
VERTEX
5
d86
8
Layer1
10
104.2380
20
33.3120
30
0.0
0
VERTEX
5
d87
8
Layer1
10
104.2380
20
29.8120
30
0.0
0
VERTEX
5
d88
8
Layer1
10
105.0380
20
29.8120
30
0.0
0
VERTEX
5
d89
8
Layer1
10
105.0380
20
28.8120
30
0.0
0
VERTEX
5
d8a
8
Layer1
10
119.0380
20
28.8120
30
0.0
0
VERTEX
5
d8b
8
Layer1
10
119.0380
20
29.8120
30
0.0
0
SEQEND
5
d8c
8
Layer1
0
POLYLINE
5
d8d
8
Layer1
66
1
10
0.0
20
0.0
30
0.0
70
1
0
VERTEX
5
d8e
8
Layer1
10
138.0880
20
29.8120
30
0.0
0
VERTEX
5
d8f
8
Layer1
10
138.8880
20
29.8120
30
0.0
0
VERTEX
5
d90
8
Layer1
10
138.8880
20
33.3120
30
0.0
0
VERTEX
5
d91
8
Layer1
10
138.0880
20
33.3120
30
0.0
0
VERTEX
5
d92
8
Layer1
10
138.0880
20
38.3120
30
0.0
0
VERTEX
5
d93
8
Layer1
10
138.8880
20
38.3120
30
0.0
0
VERTEX
5
d94
8
Layer1
10
138.8880
20
41.8120
30
0.0
0
VERTEX
5
d95
8
Layer1
10
138.0880
20
41.8120
30
0.0
0
VERTEX
5
d96
8
Layer1
10
138.0880
20
42.8120
30
0.0
0
VERTEX
5
d97
8
Layer1
10
124.0880
20
42.8120
30
0.0
0
VERTEX
5
d98
8
Layer1
10
124.0880
20
41.8120
30
0.0
0
VERTEX
5
d99
8
Layer1
10
123.2880
20
41.8120
30
0.0
0
VERTEX
5
d9a
8
Layer1
10
123.2880
20
38.3120
30
0.0
0
VERTEX
5
d9b
8
Layer1
10
124.0880
20
38.3120
30
0.0
0
VERTEX
5
d9c
8
Layer1
10
124.0880
20
33.3120
30
0.0
0
VERTEX
5
d9d
8
Layer1
10
123.2880
20
33.3120
30
0.0
0
VERTEX
5
d9e
8
Layer1
10
123.2880
20
29.8120
30
0.0
0
VERTEX
5
d9f
8
Layer1
10
124.0880
20
29.8120
30
0.0
0
VERTEX
5
da0
8
Layer1
10
124.0880
20
28.8120
30
0.0
0
VERTEX
5
da1
8
Layer1
10
138.0880
20
28.8120
30
0.0
0
VERTEX
5
da2
8
Layer1
10
138.0880
20
29.8120
30
0.0
0
SEQEND
5
da3
8
Layer1
0
POLYLINE
5
da4
8
Layer1
66
1
10
0.0
20
0.0
30
0.0
70
1
0
VERTEX
5
da5
8
Layer1
10
157.1380
20
29.8120
30
0.0
0
VERTEX
5
da6
8
Layer1
10
157.9380
20
29.8120
30
0.0
0
VERTEX
5
da7
8
Layer1
10
157.9380
20
33.3120
30
0.0
0
VERTEX
5
da8
8
Layer1
10
157.1380
20
33.3120
30
0.0
0
VERTEX
5
da9
8
Layer1
10
157.1380
20
38.3120
30
0.0
0
VERTEX
5
daa
8
Layer1
10
157.9380
20
38.3120
30
0.0
0
VERTEX
5
dab
8
Layer1
10
157.9380
20
41.8120
30
0.0
0
VERTEX
5
dac
8
Layer1
10
157.1380
20
41.8120
30
0.0
0
VERTEX
5
dad
8
Layer1
10
157.1380
20
42.8120
30
0.0
0
VERTEX
5
dae
8
Layer1
10
143.1380
20
42.8120
30
0.0
0
VERTEX
5
daf
8
Layer1
10
143.1380
20
41.8120
30
0.0
0
VERTEX
5
db0
8
Layer1
10
142.3380
20
41.8120
30
0.0
0
VERTEX
5
db1
8
Layer1
10
142.3380
20
38.3120
30
0.0
0
VERTEX
5
db2
8
Layer1
10
143.1380
20
38.3120
30
0.0
0
VERTEX
5
db3
8
Layer1
10
143.1380
20
33.3120
30
0.0
0
VERTEX
5
db4
8
Layer1
10
142.3380
20
33.3120
30
0.0
0
VERTEX
5
db5
8
Layer1
10
142.3380
20
29.8120
30
0.0
0
VERTEX
5
db6
8
Layer1
10
143.1380
20
29.8120
30
0.0
0
VERTEX
5
db7
8
Layer1
10
143.1380
20
28.8120
30
0.0
0
VERTEX
5
db8
8
Layer1
10
157.1380
20
28.8120
30
0.0
0
VERTEX
5
db9
8
Layer1
10
157.1380
20
29.8120
30
0.0
0
SEQEND
5
dba
8
Layer1
0
POLYLINE
5
dbb
8
Layer1
66
1
10
0.0
20
0.0
30
0.0
70
1
0
VERTEX
5
dbc
8
Layer1
10
176.1880
20
29.8120
30
0.0
0
VERTEX
5
dbd
8
Layer1
10
176.9880
20
29.8120
30
0.0
0
VERTEX
5
dbe
8
Layer1
10
176.9880
20
33.3120
30
0.0
0
VERTEX
5
dbf
8
Layer1
10
176.1880
20
33.3120
30
0.0
0
VERTEX
5
dc0
8
Layer1
10
176.1880
20
38.3120
30
0.0
0
VERTEX
5
dc1
8
Layer1
10
176.9880
20
38.3120
30
0.0
0
VERTEX
5
dc2
8
Layer1
10
176.9880
20
41.8120
30
0.0
0
VERTEX
5
dc3
8
Layer1
10
176.1880
20
41.8120
30
0.0
0
VERTEX
5
dc4
8
Layer1
10
176.1880
20
42.8120
30
0.0
0
VERTEX
5
dc5
8
Layer1
10
162.1880
20
42.8120
30
0.0
0
VERTEX
5
dc6
8
Layer1
10
162.1880
20
41.8120
30
0.0
0
VERTEX
5
dc7
8
Layer1
10
161.3880
20
41.8120
30
0.0
0
VERTEX
5
dc8
8
Layer1
10
161.3880
20
38.3120
30
0.0
0
VERTEX
5
dc9
8
Layer1
10
162.1880
20
38.3120
30
0.0
0
VERTEX
5
dca
8
Layer1
10
162.1880
20
33.3120
30
0.0
0
VERTEX
5
dcb
8
Layer1
10
161.3880
20
33.3120
30
0.0
0
VERTEX
5
dcc
8
Layer1
10
161.3880
20
29.8120
30
0.0
0
VERTEX
5
dcd
8
Layer1
10
162.1880
20
29.8120
30
0.0
0
VERTEX
5
dce
8
Layer1
10
162.1880
20
28.8120
30
0.0
0
VERTEX
5
dcf
8
Layer1
10
176.1880
20
28.8120
30
0.0
0
VERTEX
5
dd0
8
Layer1
10
176.1880
20
29.8120
30
0.0
0
SEQEND
5
dd1
8
Layer1
0
POLYLINE
5
dd2
8
Layer1
66
1
10
0.0
20
0.0
30
0.0
70
1
0
VERTEX
5
dd3
8
Layer1
10
195.2380
20
29.8120
30
0.0
0
VERTEX
5
dd4
8
Layer1
10
196.0380
20
29.8120
30
0.0
0
VERTEX
5
dd5
8
Layer1
10
196.0380
20
33.3120
30
0.0
0
VERTEX
5
dd6
8
Layer1
10
195.2380
20
33.3120
30
0.0
0
VERTEX
5
dd7
8
Layer1
10
195.2380
20
38.3120
30
0.0
0
VERTEX
5
dd8
8
Layer1
10
196.0380
20
38.3120
30
0.0
0
VERTEX
5
dd9
8
Layer1
10
196.0380
20
41.8120
30
0.0
0
VERTEX
5
dda
8
Layer1
10
195.2380
20
41.8120
30
0.0
0
VERTEX
5
ddb
8
Layer1
10
195.2380
20
42.8120
30
0.0
0
VERTEX
5
ddc
8
Layer1
10
181.2380
20
42.8120
30
0.0
0
VERTEX
5
ddd
8
Layer1
10
181.2380
20
41.8120
30
0.0
0
VERTEX
5
dde
8
Layer1
10
180.4380
20
41.8120
30
0.0
0
VERTEX
5
ddf
8
Layer1
10
180.4380
20
38.3120
30
0.0
0
VERTEX
5
de0
8
Layer1
10
181.2380
20
38.3120
30
0.0
0
VERTEX
5
de1
8
Layer1
10
181.2380
20
33.3120
30
0.0
0
VERTEX
5
de2
8
Layer1
10
180.4380
20
33.3120
30
0.0
0
VERTEX
5
de3
8
Layer1
10
180.4380
20
29.8120
30
0.0
0
VERTEX
5
de4
8
Layer1
10
181.2380
20
29.8120
30
0.0
0
VERTEX
5
de5
8
Layer1
10
181.2380
20
28.8120
30
0.0
0
VERTEX
5
de6
8
Layer1
10
195.2380
20
28.8120
30
0.0
0
VERTEX
5
de7
8
Layer1
10
195.2380
20
29.8120
30
0.0
0
SEQEND
5
de8
8
Layer1
0
POLYLINE
5
de9
8
Layer1
66
1
10
0.0
20
0.0
30
0.0
70
1
0
VERTEX
5
dea
8
Layer1
10
214.2880
20
29.8120
30
0.0
0
VERTEX
5
deb
8
Layer1
10
215.0880
20
29.8120
30
0.0
0
VERTEX
5
dec
8
Layer1
10
215.0880
20
33.3120
30
0.0
0
VERTEX
5
ded
8
Layer1
10
214.2880
20
33.3120
30
0.0
0
VERTEX
5
dee
8
Layer1
10
214.2880
20
38.3120
30
0.0
0
VERTEX
5
def
8
Layer1
10
215.0880
20
38.3120
30
0.0
0
VERTEX
5
df0
8
Layer1
10
215.0880
20
41.8120
30
0.0
0
VERTEX
5
df1
8
Layer1
10
214.2880
20
41.8120
30
0.0
0
VERTEX
5
df2
8
Layer1
10
214.2880
20
42.8120
30
0.0
0
VERTEX
5
df3
8
Layer1
10
200.2880
20
42.8120
30
0.0
0
VERTEX
5
df4
8
Layer1
10
200.2880
20
41.8120
30
0.0
0
VERTEX
5
df5
8
Layer1
10
199.4880
20
41.8120
30
0.0
0
VERTEX
5
df6
8
Layer1
10
199.4880
20
38.3120
30
0.0
0
VERTEX
5
df7
8
Layer1
10
200.2880
20
38.3120
30
0.0
0
VERTEX
5
df8
8
Layer1
10
200.2880
20
33.3120
30
0.0
0
VERTEX
5
df9
8
Layer1
10
199.4880
20
33.3120
30
0.0
0
VERTEX
5
dfa
8
Layer1
10
199.4880
20
29.8120
30
0.0
0
VERTEX
5
dfb
8
Layer1
10
200.2880
20
29.8120
30
0.0
0
VERTEX
5
dfc
8
Layer1
10
200.2880
20
28.8120
30
0.0
0
VERTEX
5
dfd
8
Layer1
10
214.2880
20
28.8120
30
0.0
0
VERTEX
5
dfe
8
Layer1
10
214.2880
20
29.8120
30
0.0
0
SEQEND
5
dff
8
Layer1
0
POLYLINE
5
e00
8
Layer1
66
1
10
0.0
20
0.0
30
0.0
70
1
0
VERTEX
5
e01
8
Layer1
10
233.3380
20
29.8120
30
0.0
0
VERTEX
5
e02
8
Layer1
10
234.1380
20
29.8120
30
0.0
0
VERTEX
5
e03
8
Layer1
10
234.1380
20
33.3120
30
0.0
0
VERTEX
5
e04
8
Layer1
10
233.3380
20
33.3120
30
0.0
0
VERTEX
5
e05
8
Layer1
10
233.3380
20
38.3120
30
0.0
0
VERTEX
5
e06
8
Layer1
10
234.1380
20
38.3120
30
0.0
0
VERTEX
5
e07
8
Layer1
10
234.1380
20
41.8120
30
0.0
0
VERTEX
5
e08
8
Layer1
10
233.3380
20
41.8120
30
0.0
0
VERTEX
5
e09
8
Layer1
10
233.3380
20
42.8120
30
0.0
0
VERTEX
5
e0a
8
Layer1
10
219.3380
20
42.8120
30
0.0
0
VERTEX
5
e0b
8
Layer1
10
219.3380
20
41.8120
30
0.0
0
VERTEX
5
e0c
8
Layer1
10
218.5380
20
41.8120
30
0.0
0
VERTEX
5
e0d
8
Layer1
10
218.5380
20
38.3120
30
0.0
0
VERTEX
5
e0e
8
Layer1
10
219.3380
20
38.3120
30
0.0
0
VERTEX
5
e0f
8
Layer1
10
219.3380
20
33.3120
30
0.0
0
VERTEX
5
e10
8
Layer1
10
218.5380
20
33.3120
30
0.0
0
VERTEX
5
e11
8
Layer1
10
218.5380
20
29.8120
30
0.0
0
VERTEX
5
e12
8
Layer1
10
219.3380
20
29.8120
30
0.0
0
VERTEX
5
e13
8
Layer1
10
219.3380
20
28.8120
30
0.0
0
VERTEX
5
e14
8
Layer1
10
233.3380
20
28.8120
30
0.0
0
VERTEX
5
e15
8
Layer1
10
233.3380
20
29.8120
30
0.0
0
SEQEND
5
e16
8
Layer1
0
POLYLINE
5
e17
8
Layer1
66
1
10
0.0
20
0.0
30
0.0
70
1
0
VERTEX
5
e18
8
Layer1
10
259.5310
20
29.8120
30
0.0
0
VERTEX
5
e19
8
Layer1
10
260.3310
20
29.8120
30
0.0
0
VERTEX
5
e1a
8
Layer1
10
260.3310
20
33.3120
30
0.0
0
VERTEX
5
e1b
8
Layer1
10
259.5310
20
33.3120
30
0.0
0
VERTEX
5
e1c
8
Layer1
10
259.5310
20
38.3120
30
0.0
0
VERTEX
5
e1d
8
Layer1
10
260.3310
20
38.3120
30
0.0
0
VERTEX
5
e1e
8
Layer1
10
260.3310
20
41.8120
30
0.0
0
VERTEX
5
e1f
8
Layer1
10
259.5310
20
41.8120
30
0.0
0
VERTEX
5
e20
8
Layer1
10
259.5310
20
42.8120
30
0.0
0
VERTEX
5
e21
8
Layer1
10
245.5310
20
42.8120
30
0.0
0
VERTEX
5
e22
8
Layer1
10
245.5310
20
41.8120
30
0.0
0
VERTEX
5
e23
8
Layer1
10
244.7310
20
41.8120
30
0.0
0
VERTEX
5
e24
8
Layer1
10
244.7310
20
38.3120
30
0.0
0
VERTEX
5
e25
8
Layer1
10
245.5310
20
38.3120
30
0.0
0
VERTEX
5
e26
8
Layer1
10
245.5310
20
33.3120
30
0.0
0
VERTEX
5
e27
8
Layer1
10
244.7310
20
33.3120
30
0.0
0
VERTEX
5
e28
8
Layer1
10
244.7310
20
29.8120
30
0.0
0
VERTEX
5
e29
8
Layer1
10
245.5310
20
29.8120
30
0.0
0
VERTEX
5
e2a
8
Layer1
10
245.5310
20
28.8120
30
0.0
0
VERTEX
5
e2b
8
Layer1
10
259.5310
20
28.8120
30
0.0
0
VERTEX
5
e2c
8
Layer1
10
259.5310
20
29.8120
30
0.0
0
SEQEND
5
e2d
8
Layer1
0
POLYLINE
5
e2e
8
Layer1
66
1
10
0.0
20
0.0
30
0.0
70
1
0
VERTEX
5
e2f
8
Layer1
10
290.4880
20
25.0500
30
0.0
0
VERTEX
5
e30
8
Layer1
10
291.2880
20
25.0500
30
0.0
0
VERTEX
5
e31
8
Layer1
10
291.2880
20
28.5500
30
0.0
0
VERTEX
5
e32
8
Layer1
10
290.4880
20
28.5500
30
0.0
0
VERTEX
5
e33
8
Layer1
10
290.4880
20
33.5500
30
0.0
0
VERTEX
5
e34
8
Layer1
10
291.2880
20
33.5500
30
0.0
0
VERTEX
5
e35
8
Layer1
10
291.2880
20
37.0500
30
0.0
0
VERTEX
5
e36
8
Layer1
10
290.4880
20
37.0500
30
0.0
0
VERTEX
5
e37
8
Layer1
10
290.4880
20
38.0500
30
0.0
0
VERTEX
5
e38
8
Layer1
10
276.4880
20
38.0500
30
0.0
0
VERTEX
5
e39
8
Layer1
10
276.4880
20
37.0500
30
0.0
0
VERTEX
5
e3a
8
Layer1
10
275.6880
20
37.0500
30
0.0
0
VERTEX
5
e3b
8
Layer1
10
275.6880
20
33.5500
30
0.0
0
VERTEX
5
e3c
8
Layer1
10
276.4880
20
33.5500
30
0.0
0
VERTEX
5
e3d
8
Layer1
10
276.4880
20
28.5500
30
0.0
0
VERTEX
5
e3e
8
Layer1
10
275.6880
20
28.5500
30
0.0
0
VERTEX
5
e3f
8
Layer1
10
275.6880
20
25.0500
30
0.0
0
VERTEX
5
e40
8
Layer1
10
276.4880
20
25.0500
30
0.0
0
VERTEX
5
e41
8
Layer1
10
276.4880
20
24.0500
30
0.0
0
VERTEX
5
e42
8
Layer1
10
290.4880
20
24.0500
30
0.0
0
VERTEX
5
e43
8
Layer1
10
290.4880
20
25.0500
30
0.0
0
SEQEND
5
e44
8
Layer1
0
POLYLINE
5
e45
8
Layer1
66
1
10
0.0
20
0.0
30
0.0
70
1
0
VERTEX
5
e46
8
Layer1
10
19.0250
20
10.7620
30
0.0
0
VERTEX
5
e47
8
Layer1
10
19.8250
20
10.7620
30
0.0
0
VERTEX
5
e48
8
Layer1
10
19.8250
20
14.2620
30
0.0
0
VERTEX
5
e49
8
Layer1
10
19.0250
20
14.2620
30
0.0
0
VERTEX
5
e4a
8
Layer1
10
19.0250
20
19.2620
30
0.0
0
VERTEX
5
e4b
8
Layer1
10
19.8250
20
19.2620
30
0.0
0
VERTEX
5
e4c
8
Layer1
10
19.8250
20
22.7620
30
0.0
0
VERTEX
5
e4d
8
Layer1
10
19.0250
20
22.7620
30
0.0
0
VERTEX
5
e4e
8
Layer1
10
19.0250
20
23.7620
30
0.0
0
VERTEX
5
e4f
8
Layer1
10
5.0250
20
23.7620
30
0.0
0
VERTEX
5
e50
8
Layer1
10
5.0250
20
22.7620
30
0.0
0
VERTEX
5
e51
8
Layer1
10
4.2250
20
22.7620
30
0.0
0
VERTEX
5
e52
8
Layer1
10
4.2250
20
19.2620
30
0.0
0
VERTEX
5
e53
8
Layer1
10
5.0250
20
19.2620
30
0.0
0
VERTEX
5
e54
8
Layer1
10
5.0250
20
14.2620
30
0.0
0
VERTEX
5
e55
8
Layer1
10
4.2250
20
14.2620
30
0.0
0
VERTEX
5
e56
8
Layer1
10
4.2250
20
10.7620
30
0.0
0
VERTEX
5
e57
8
Layer1
10
5.0250
20
10.7620
30
0.0
0
VERTEX
5
e58
8
Layer1
10
5.0250
20
9.7620
30
0.0
0
VERTEX
5
e59
8
Layer1
10
19.0250
20
9.7620
30
0.0
0
VERTEX
5
e5a
8
Layer1
10
19.0250
20
10.7620
30
0.0
0
SEQEND
5
e5b
8
Layer1
0
POLYLINE
5
e5c
8
Layer1
66
1
10
0.0
20
0.0
30
0.0
70
1
0
VERTEX
5
e5d
8
Layer1
10
38.0750
20
10.7620
30
0.0
0
VERTEX
5
e5e
8
Layer1
10
38.8750
20
10.7620
30
0.0
0
VERTEX
5
e5f
8
Layer1
10
38.8750
20
14.2620
30
0.0
0
VERTEX
5
e60
8
Layer1
10
38.0750
20
14.2620
30
0.0
0
VERTEX
5
e61
8
Layer1
10
38.0750
20
19.2620
30
0.0
0
VERTEX
5
e62
8
Layer1
10
38.8750
20
19.2620
30
0.0
0
VERTEX
5
e63
8
Layer1
10
38.8750
20
22.7620
30
0.0
0
VERTEX
5
e64
8
Layer1
10
38.0750
20
22.7620
30
0.0
0
VERTEX
5
e65
8
Layer1
10
38.0750
20
23.7620
30
0.0
0
VERTEX
5
e66
8
Layer1
10
24.0750
20
23.7620
30
0.0
0
VERTEX
5
e67
8
Layer1
10
24.0750
20
22.7620
30
0.0
0
VERTEX
5
e68
8
Layer1
10
23.2750
20
22.7620
30
0.0
0
VERTEX
5
e69
8
Layer1
10
23.2750
20
19.2620
30
0.0
0
VERTEX
5
e6a
8
Layer1
10
24.0750
20
19.2620
30
0.0
0
VERTEX
5
e6b
8
Layer1
10
24.0750
20
14.2620
30
0.0
0
VERTEX
5
e6c
8
Layer1
10
23.2750
20
14.2620
30
0.0
0
VERTEX
5
e6d
8
Layer1
10
23.2750
20
10.7620
30
0.0
0
VERTEX
5
e6e
8
Layer1
10
24.0750
20
10.7620
30
0.0
0
VERTEX
5
e6f
8
Layer1
10
24.0750
20
9.7620
30
0.0
0
VERTEX
5
e70
8
Layer1
10
38.0750
20
9.7620
30
0.0
0
VERTEX
5
e71
8
Layer1
10
38.0750
20
10.7620
30
0.0
0
SEQEND
5
e72
8
Layer1
0
POLYLINE
5
e73
8
Layer1
66
1
10
0.0
20
0.0
30
0.0
70
1
0
VERTEX
5
e74
8
Layer1
10
57.1250
20
10.7620
30
0.0
0
VERTEX
5
e75
8
Layer1
10
57.9250
20
10.7620
30
0.0
0
VERTEX
5
e76
8
Layer1
10
57.9250
20
14.2620
30
0.0
0
VERTEX
5
e77
8
Layer1
10
57.1250
20
14.2620
30
0.0
0
VERTEX
5
e78
8
Layer1
10
57.1250
20
19.2620
30
0.0
0
VERTEX
5
e79
8
Layer1
10
57.9250
20
19.2620
30
0.0
0
VERTEX
5
e7a
8
Layer1
10
57.9250
20
22.7620
30
0.0
0
VERTEX
5
e7b
8
Layer1
10
57.1250
20
22.7620
30
0.0
0
VERTEX
5
e7c
8
Layer1
10
57.1250
20
23.7620
30
0.0
0
VERTEX
5
e7d
8
Layer1
10
43.1250
20
23.7620
30
0.0
0
VERTEX
5
e7e
8
Layer1
10
43.1250
20
22.7620
30
0.0
0
VERTEX
5
e7f
8
Layer1
10
42.3250
20
22.7620
30
0.0
0
VERTEX
5
e80
8
Layer1
10
42.3250
20
19.2620
30
0.0
0
VERTEX
5
e81
8
Layer1
10
43.1250
20
19.2620
30
0.0
0
VERTEX
5
e82
8
Layer1
10
43.1250
20
14.2620
30
0.0
0
VERTEX
5
e83
8
Layer1
10
42.3250
20
14.2620
30
0.0
0
VERTEX
5
e84
8
Layer1
10
42.3250
20
10.7620
30
0.0
0
VERTEX
5
e85
8
Layer1
10
43.1250
20
10.7620
30
0.0
0
VERTEX
5
e86
8
Layer1
10
43.1250
20
9.7620
30
0.0
0
VERTEX
5
e87
8
Layer1
10
57.1250
20
9.7620
30
0.0
0
VERTEX
5
e88
8
Layer1
10
57.1250
20
10.7620
30
0.0
0
SEQEND
5
e89
8
Layer1
0
POLYLINE
5
e8a
8
Layer1
66
1
10
0.0
20
0.0
30
0.0
70
1
0
VERTEX
5
e8b
8
Layer1
10
78.5560
20
10.7620
30
0.0
0
VERTEX
5
e8c
8
Layer1
10
79.3560
20
10.7620
30
0.0
0
VERTEX
5
e8d
8
Layer1
10
79.3560
20
14.2620
30
0.0
0
VERTEX
5
e8e
8
Layer1
10
78.5560
20
14.2620
30
0.0
0
VERTEX
5
e8f
8
Layer1
10
78.5560
20
19.2620
30
0.0
0
VERTEX
5
e90
8
Layer1
10
79.3560
20
19.2620
30
0.0
0
VERTEX
5
e91
8
Layer1
10
79.3560
20
22.7620
30
0.0
0
VERTEX
5
e92
8
Layer1
10
78.5560
20
22.7620
30
0.0
0
VERTEX
5
e93
8
Layer1
10
78.5560
20
23.7620
30
0.0
0
VERTEX
5
e94
8
Layer1
10
64.5560
20
23.7620
30
0.0
0
VERTEX
5
e95
8
Layer1
10
64.5560
20
22.7620
30
0.0
0
VERTEX
5
e96
8
Layer1
10
63.7560
20
22.7620
30
0.0
0
VERTEX
5
e97
8
Layer1
10
63.7560
20
19.2620
30
0.0
0
VERTEX
5
e98
8
Layer1
10
64.5560
20
19.2620
30
0.0
0
VERTEX
5
e99
8
Layer1
10
64.5560
20
14.2620
30
0.0
0
VERTEX
5
e9a
8
Layer1
10
63.7560
20
14.2620
30
0.0
0
VERTEX
5
e9b
8
Layer1
10
63.7560
20
10.7620
30
0.0
0
VERTEX
5
e9c
8
Layer1
10
64.5560
20
10.7620
30
0.0
0
VERTEX
5
e9d
8
Layer1
10
64.5560
20
9.7620
30
0.0
0
VERTEX
5
e9e
8
Layer1
10
78.5560
20
9.7620
30
0.0
0
VERTEX
5
e9f
8
Layer1
10
78.5560
20
10.7620
30
0.0
0
SEQEND
5
ea0
8
Layer1
0
POLYLINE
5
ea1
8
Layer1
66
1
10
0.0
20
0.0
30
0.0
70
1
0
VERTEX
5
ea2
8
Layer1
10
94.4940
20
9.9920
30
0.0
0
VERTEX
5
ea3
8
Layer1
10
96.3190
20
9.9920
30
0.0
0
VERTEX
5
ea4
8
Layer1
10
96.3190
20
14.4630
30
0.0
0
VERTEX
5
ea5
8
Layer1
10
135.9940
20
14.4630
30
0.0
0
VERTEX
5
ea6
8
Layer1
10
135.9940
20
14.2620
30
0.0
0
VERTEX
5
ea7
8
Layer1
10
135.1940
20
14.2620
30
0.0
0
VERTEX
5
ea8
8
Layer1
10
135.1940
20
10.7620
30
0.0
0
VERTEX
5
ea9
8
Layer1
10
135.9940
20
10.7620
30
0.0
0
VERTEX
5
eaa
8
Layer1
10
135.9940
20
9.7620
30
0.0
0
VERTEX
5
eab
8
Layer1
10
149.9940
20
9.7620
30
0.0
0
VERTEX
5
eac
8
Layer1
10
149.9940
20
10.7620
30
0.0
0
VERTEX
5
ead
8
Layer1
10
150.7940
20
10.7620
30
0.0
0
VERTEX
5
eae
8
Layer1
10
150.7940
20
14.2620
30
0.0
0
VERTEX
5
eaf
8
Layer1
10
149.9940
20
14.2620
30
0.0
0
VERTEX
5
eb0
8
Layer1
10
149.9940
20
14.4630
30
0.0
0
VERTEX
5
eb1
8
Layer1
10
189.6690
20
14.4630
30
0.0
0
VERTEX
5
eb2
8
Layer1
10
189.6690
20
9.9920
30
0.0
0
VERTEX
5
eb3
8
Layer1
10
191.4940
20
9.9920
30
0.0
0
VERTEX
5
eb4
8
Layer1
10
191.4940
20
8.7920
30
0.0
0
VERTEX
5
eb5
8
Layer1
10
194.4940
20
8.7920
30
0.0
0
VERTEX
5
eb6
8
Layer1
10
194.4940
20
9.9920
30
0.0
0
VERTEX
5
eb7
8
Layer1
10
196.3190
20
9.9920
30
0.0
0
VERTEX
5
eb8
8
Layer1
10
196.3190
20
16.2620
30
0.0
0
VERTEX
5
eb9
8
Layer1
10
197.2190
20
16.2620
30
0.0
0
VERTEX
5
eba
8
Layer1
10
197.2190
20
19.0630
30
0.0
0
VERTEX
5
ebb
8
Layer1
10
196.3190
20
19.0630
30
0.0
0
VERTEX
5
ebc
8
Layer1
10
196.3190
20
22.2920
30
0.0
0
VERTEX
5
ebd
8
Layer1
10
189.6690
20
22.2920
30
0.0
0
VERTEX
5
ebe
8
Layer1
10
189.6690
20
19.0630
30
0.0
0
VERTEX
5
ebf
8
Layer1
10
188.7690
20
19.0630
30
0.0
0
VERTEX
5
ec0
8
Layer1
10
188.7690
20
19.0620
30
0.0
0
VERTEX
5
ec1
8
Layer1
10
149.9940
20
19.0620
30
0.0
0
VERTEX
5
ec2
8
Layer1
10
149.9940
20
19.2620
30
0.0
0
VERTEX
5
ec3
8
Layer1
10
150.7940
20
19.2620
30
0.0
0
VERTEX
5
ec4
8
Layer1
10
150.7940
20
22.7620
30
0.0
0
VERTEX
5
ec5
8
Layer1
10
149.9940
20
22.7620
30
0.0
0
VERTEX
5
ec6
8
Layer1
10
149.9940
20
23.7620
30
0.0
0
VERTEX
5
ec7
8
Layer1
10
135.9940
20
23.7620
30
0.0
0
VERTEX
5
ec8
8
Layer1
10
135.9940
20
22.7620
30
0.0
0
VERTEX
5
ec9
8
Layer1
10
135.1940
20
22.7620
30
0.0
0
VERTEX
5
eca
8
Layer1
10
135.1940
20
19.2620
30
0.0
0
VERTEX
5
ecb
8
Layer1
10
135.9940
20
19.2620
30
0.0
0
VERTEX
5
ecc
8
Layer1
10
135.9940
20
19.0620
30
0.0
0
VERTEX
5
ecd
8
Layer1
10
97.2190
20
19.0620
30
0.0
0
VERTEX
5
ece
8
Layer1
10
97.2190
20
19.0630
30
0.0
0
VERTEX
5
ecf
8
Layer1
10
96.3190
20
19.0630
30
0.0
0
VERTEX
5
ed0
8
Layer1
10
96.3190
20
22.2920
30
0.0
0
VERTEX
5
ed1
8
Layer1
10
89.6690
20
22.2920
30
0.0
0
VERTEX
5
ed2
8
Layer1
10
89.6690
20
19.0630
30
0.0
0
VERTEX
5
ed3
8
Layer1
10
88.7690
20
19.0630
30
0.0
0
VERTEX
5
ed4
8
Layer1
10
88.7690
20
16.2620
30
0.0
0
VERTEX
5
ed5
8
Layer1
10
89.6690
20
16.2620
30
0.0
0
VERTEX
5
ed6
8
Layer1
10
89.6690
20
9.9920
30
0.0
0
VERTEX
5
ed7
8
Layer1
10
91.4940
20
9.9920
30
0.0
0
VERTEX
5
ed8
8
Layer1
10
91.4940
20
8.7920
30
0.0
0
VERTEX
5
ed9
8
Layer1
10
94.4940
20
8.7920
30
0.0
0
VERTEX
5
eda
8
Layer1
10
94.4940
20
9.9920
30
0.0
0
SEQEND
5
edb
8
Layer1
0
POLYLINE
5
edc
8
Layer1
66
1
10
0.0
20
0.0
30
0.0
70
1
0
VERTEX
5
edd
8
Layer1
10
221.4310
20
10.7620
30
0.0
0
VERTEX
5
ede
8
Layer1
10
222.2310
20
10.7620
30
0.0
0
VERTEX
5
edf
8
Layer1
10
222.2310
20
14.2620
30
0.0
0
VERTEX
5
ee0
8
Layer1
10
221.4310
20
14.2620
30
0.0
0
VERTEX
5
ee1
8
Layer1
10
221.4310
20
19.2620
30
0.0
0
VERTEX
5
ee2
8
Layer1
10
222.2310
20
19.2620
30
0.0
0
VERTEX
5
ee3
8
Layer1
10
222.2310
20
22.7620
30
0.0
0
VERTEX
5
ee4
8
Layer1
10
221.4310
20
22.7620
30
0.0
0
VERTEX
5
ee5
8
Layer1
10
221.4310
20
23.7620
30
0.0
0
VERTEX
5
ee6
8
Layer1
10
207.4310
20
23.7620
30
0.0
0
VERTEX
5
ee7
8
Layer1
10
207.4310
20
22.7620
30
0.0
0
VERTEX
5
ee8
8
Layer1
10
206.6310
20
22.7620
30
0.0
0
VERTEX
5
ee9
8
Layer1
10
206.6310
20
19.2620
30
0.0
0
VERTEX
5
eea
8
Layer1
10
207.4310
20
19.2620
30
0.0
0
VERTEX
5
eeb
8
Layer1
10
207.4310
20
14.2620
30
0.0
0
VERTEX
5
eec
8
Layer1
10
206.6310
20
14.2620
30
0.0
0
VERTEX
5
eed
8
Layer1
10
206.6310
20
10.7620
30
0.0
0
VERTEX
5
eee
8
Layer1
10
207.4310
20
10.7620
30
0.0
0
VERTEX
5
eef
8
Layer1
10
207.4310
20
9.7620
30
0.0
0
VERTEX
5
ef0
8
Layer1
10
221.4310
20
9.7620
30
0.0
0
VERTEX
5
ef1
8
Layer1
10
221.4310
20
10.7620
30
0.0
0
SEQEND
5
ef2
8
Layer1
0
POLYLINE
5
ef3
8
Layer1
66
1
10
0.0
20
0.0
30
0.0
70
1
0
VERTEX
5
ef4
8
Layer1
10
245.2440
20
10.7620
30
0.0
0
VERTEX
5
ef5
8
Layer1
10
246.0440
20
10.7620
30
0.0
0
VERTEX
5
ef6
8
Layer1
10
246.0440
20
14.2620
30
0.0
0
VERTEX
5
ef7
8
Layer1
10
245.2440
20
14.2620
30
0.0
0
VERTEX
5
ef8
8
Layer1
10
245.2440
20
19.2620
30
0.0
0
VERTEX
5
ef9
8
Layer1
10
246.0440
20
19.2620
30
0.0
0
VERTEX
5
efa
8
Layer1
10
246.0440
20
22.7620
30
0.0
0
VERTEX
5
efb
8
Layer1
10
245.2440
20
22.7620
30
0.0
0
VERTEX
5
efc
8
Layer1
10
245.2440
20
23.7620
30
0.0
0
VERTEX
5
efd
8
Layer1
10
231.2440
20
23.7620
30
0.0
0
VERTEX
5
efe
8
Layer1
10
231.2440
20
22.7620
30
0.0
0
VERTEX
5
eff
8
Layer1
10
230.4440
20
22.7620
30
0.0
0
VERTEX
5
f00
8
Layer1
10
230.4440
20
19.2620
30
0.0
0
VERTEX
5
f01
8
Layer1
10
231.2440
20
19.2620
30
0.0
0
VERTEX
5
f02
8
Layer1
10
231.2440
20
14.2620
30
0.0
0
VERTEX
5
f03
8
Layer1
10
230.4440
20
14.2620
30
0.0
0
VERTEX
5
f04
8
Layer1
10
230.4440
20
10.7620
30
0.0
0
VERTEX
5
f05
8
Layer1
10
231.2440
20
10.7620
30
0.0
0
VERTEX
5
f06
8
Layer1
10
231.2440
20
9.7620
30
0.0
0
VERTEX
5
f07
8
Layer1
10
245.2440
20
9.7620
30
0.0
0
VERTEX
5
f08
8
Layer1
10
245.2440
20
10.7620
30
0.0
0
SEQEND
5
f09
8
Layer1
0
POLYLINE
5
f0a
8
Layer1
66
1
10
0.0
20
0.0
30
0.0
70
1
0
VERTEX
5
f0b
8
Layer1
10
271.4380
20
6.0000
30
0.0
0
VERTEX
5
f0c
8
Layer1
10
272.2380
20
6.0000
30
0.0
0
VERTEX
5
f0d
8
Layer1
10
272.2380
20
9.5000
30
0.0
0
VERTEX
5
f0e
8
Layer1
10
271.4380
20
9.5000
30
0.0
0
VERTEX
5
f0f
8
Layer1
10
271.4380
20
14.5000
30
0.0
0
VERTEX
5
f10
8
Layer1
10
272.2380
20
14.5000
30
0.0
0
VERTEX
5
f11
8
Layer1
10
272.2380
20
18.0000
30
0.0
0
VERTEX
5
f12
8
Layer1
10
271.4380
20
18.0000
30
0.0
0
VERTEX
5
f13
8
Layer1
10
271.4380
20
19.0000
30
0.0
0
VERTEX
5
f14
8
Layer1
10
257.4380
20
19.0000
30
0.0
0
VERTEX
5
f15
8
Layer1
10
257.4380
20
18.0000
30
0.0
0
VERTEX
5
f16
8
Layer1
10
256.6380
20
18.0000
30
0.0
0
VERTEX
5
f17
8
Layer1
10
256.6380
20
14.5000
30
0.0
0
VERTEX
5
f18
8
Layer1
10
257.4380
20
14.5000
30
0.0
0
VERTEX
5
f19
8
Layer1
10
257.4380
20
9.5000
30
0.0
0
VERTEX
5
f1a
8
Layer1
10
256.6380
20
9.5000
30
0.0
0
VERTEX
5
f1b
8
Layer1
10
256.6380
20
6.0000
30
0.0
0
VERTEX
5
f1c
8
Layer1
10
257.4380
20
6.0000
30
0.0
0
VERTEX
5
f1d
8
Layer1
10
257.4380
20
5.0000
30
0.0
0
VERTEX
5
f1e
8
Layer1
10
271.4380
20
5.0000
30
0.0
0
VERTEX
5
f1f
8
Layer1
10
271.4380
20
6.0000
30
0.0
0
SEQEND
5
f20
8
Layer1
0
POLYLINE
5
f21
8
Layer1
66
1
10
0.0
20
0.0
30
0.0
70
1
0
VERTEX
5
f22
8
Layer1
10
290.4880
20
6.0000
30
0.0
0
VERTEX
5
f23
8
Layer1
10
291.2880
20
6.0000
30
0.0
0
VERTEX
5
f24
8
Layer1
10
291.2880
20
9.5000
30
0.0
0
VERTEX
5
f25
8
Layer1
10
290.4880
20
9.5000
30
0.0
0
VERTEX
5
f26
8
Layer1
10
290.4880
20
14.5000
30
0.0
0
VERTEX
5
f27
8
Layer1
10
291.2880
20
14.5000
30
0.0
0
VERTEX
5
f28
8
Layer1
10
291.2880
20
18.0000
30
0.0
0
VERTEX
5
f29
8
Layer1
10
290.4880
20
18.0000
30
0.0
0
VERTEX
5
f2a
8
Layer1
10
290.4880
20
19.0000
30
0.0
0
VERTEX
5
f2b
8
Layer1
10
276.4880
20
19.0000
30
0.0
0
VERTEX
5
f2c
8
Layer1
10
276.4880
20
18.0000
30
0.0
0
VERTEX
5
f2d
8
Layer1
10
275.6880
20
18.0000
30
0.0
0
VERTEX
5
f2e
8
Layer1
10
275.6880
20
14.5000
30
0.0
0
VERTEX
5
f2f
8
Layer1
10
276.4880
20
14.5000
30
0.0
0
VERTEX
5
f30
8
Layer1
10
276.4880
20
9.5000
30
0.0
0
VERTEX
5
f31
8
Layer1
10
275.6880
20
9.5000
30
0.0
0
VERTEX
5
f32
8
Layer1
10
275.6880
20
6.0000
30
0.0
0
VERTEX
5
f33
8
Layer1
10
276.4880
20
6.0000
30
0.0
0
VERTEX
5
f34
8
Layer1
10
276.4880
20
5.0000
30
0.0
0
VERTEX
5
f35
8
Layer1
10
290.4880
20
5.0000
30
0.0
0
VERTEX
5
f36
8
Layer1
10
290.4880
20
6.0000
30
0.0
0
SEQEND
5
f37
8
Layer1
0
POLYLINE
5
f38
8
Layer1
66
1
10
0.0
20
0.0
30
0.0
70
1
0
VERTEX
5
f39
8
Layer1
10
309.5370
20
6.0000
30
0.0
0
VERTEX
5
f3a
8
Layer1
10
310.3380
20
6.0000
30
0.0
0
VERTEX
5
f3b
8
Layer1
10
310.3380
20
9.5000
30
0.0
0
VERTEX
5
f3c
8
Layer1
10
309.5370
20
9.5000
30
0.0
0
VERTEX
5
f3d
8
Layer1
10
309.5370
20
14.5000
30
0.0
0
VERTEX
5
f3e
8
Layer1
10
310.3380
20
14.5000
30
0.0
0
VERTEX
5
f3f
8
Layer1
10
310.3380
20
18.0000
30
0.0
0
VERTEX
5
f40
8
Layer1
10
309.5370
20
18.0000
30
0.0
0
VERTEX
5
f41
8
Layer1
10
309.5370
20
19.0000
30
0.0
0
VERTEX
5
f42
8
Layer1
10
295.5370
20
19.0000
30
0.0
0
VERTEX
5
f43
8
Layer1
10
295.5370
20
18.0000
30
0.0
0
VERTEX
5
f44
8
Layer1
10
294.7370
20
18.0000
30
0.0
0
VERTEX
5
f45
8
Layer1
10
294.7370
20
14.5000
30
0.0
0
VERTEX
5
f46
8
Layer1
10
295.5370
20
14.5000
30
0.0
0
VERTEX
5
f47
8
Layer1
10
295.5370
20
9.5000
30
0.0
0
VERTEX
5
f48
8
Layer1
10
294.7370
20
9.5000
30
0.0
0
VERTEX
5
f49
8
Layer1
10
294.7370
20
6.0000
30
0.0
0
VERTEX
5
f4a
8
Layer1
10
295.5370
20
6.0000
30
0.0
0
VERTEX
5
f4b
8
Layer1
10
295.5370
20
5.0000
30
0.0
0
VERTEX
5
f4c
8
Layer1
10
309.5370
20
5.0000
30
0.0
0
VERTEX
5
f4d
8
Layer1
10
309.5370
20
6.0000
30
0.0
0
SEQEND
5
f4e
8
Layer1
0
ENDSEC
0
EOF
