0
SECTION
2
HEADER
9
$INSUNITS
70
4
9
$INSBASE
10
0.0
20
0.0
30
0.0
9
$EXTMIN
10
0
20
0
9
$EXTMAX
10
313.75
20
128.5
0
ENDSEC
0
SECTION
2
TABLES
0
TABLE
2
LTYPE
70
1
0
LTYPE
2
CONTINUOUS
70
64
3
Solid line
72
65
73
0
40
0.0
0
ENDTAB
0
TABLE
2
LAYER
70
1
0
LAYER
2
Layer1
70
64
62
7
6
CONTINUOUS
0
ENDTAB
0
TABLE
2
STYLE
70
0
0
ENDTAB
0
TABLE
2
VIEW
70
0
0
ENDTAB
0
ENDSEC
0
SECTION
2
BLOCKS
0
ENDSEC
0
SECTION
2
ENTITIES
0
POLYLINE
5
11f8
8
Layer1
66
1
10
0.0
20
0.0
30
0.0
70
1
0
VERTEX
5
11f9
8
Layer1
10
0.0000
20
0.0000
30
0.0
0
VERTEX
5
11fa
8
Layer1
10
313.7500
20
0.0000
30
0.0
0
VERTEX
5
11fb
8
Layer1
10
313.7500
20
128.5000
30
0.0
0
VERTEX
5
11fc
8
Layer1
10
0.0000
20
128.5000
30
0.0
0
VERTEX
5
11fd
8
Layer1
10
0.0000
20
0.0000
30
0.0
0
SEQEND
5
11fe
8
Layer1
0
POLYLINE
5
11ff
8
Layer1
66
1
10
0.0
20
0.0
30
0.0
70
1
0
VERTEX
5
1200
8
Layer1
10
19.0000
20
110.5000
30
0.0
0
VERTEX
5
1201
8
Layer1
10
19.8000
20
110.5000
30
0.0
0
VERTEX
5
1202
8
Layer1
10
19.8000
20
122.5000
30
0.0
0
VERTEX
5
1203
8
Layer1
10
19.0000
20
122.5000
30
0.0
0
VERTEX
5
1204
8
Layer1
10
19.0000
20
123.5000
30
0.0
0
VERTEX
5
1205
8
Layer1
10
5.0000
20
123.5000
30
0.0
0
VERTEX
5
1206
8
Layer1
10
5.0000
20
122.5000
30
0.0
0
VERTEX
5
1207
8
Layer1
10
4.2000
20
122.5000
30
0.0
0
VERTEX
5
1208
8
Layer1
10
4.2000
20
110.5000
30
0.0
0
VERTEX
5
1209
8
Layer1
10
5.0000
20
110.5000
30
0.0
0
VERTEX
5
120a
8
Layer1
10
5.0000
20
109.5000
30
0.0
0
VERTEX
5
120b
8
Layer1
10
19.0000
20
109.5000
30
0.0
0
VERTEX
5
120c
8
Layer1
10
19.0000
20
110.5000
30
0.0
0
SEQEND
5
120d
8
Layer1
0
POLYLINE
5
120e
8
Layer1
66
1
10
0.0
20
0.0
30
0.0
70
1
0
VERTEX
5
120f
8
Layer1
10
47.5000
20
110.5000
30
0.0
0
VERTEX
5
1210
8
Layer1
10
48.3000
20
110.5000
30
0.0
0
VERTEX
5
1211
8
Layer1
10
48.3000
20
122.5000
30
0.0
0
VERTEX
5
1212
8
Layer1
10
47.5000
20
122.5000
30
0.0
0
VERTEX
5
1213
8
Layer1
10
47.5000
20
123.5000
30
0.0
0
VERTEX
5
1214
8
Layer1
10
33.5000
20
123.5000
30
0.0
0
VERTEX
5
1215
8
Layer1
10
33.5000
20
122.5000
30
0.0
0
VERTEX
5
1216
8
Layer1
10
32.7000
20
122.5000
30
0.0
0
VERTEX
5
1217
8
Layer1
10
32.7000
20
110.5000
30
0.0
0
VERTEX
5
1218
8
Layer1
10
33.5000
20
110.5000
30
0.0
0
VERTEX
5
1219
8
Layer1
10
33.5000
20
109.5000
30
0.0
0
VERTEX
5
121a
8
Layer1
10
47.5000
20
109.5000
30
0.0
0
VERTEX
5
121b
8
Layer1
10
47.5000
20
110.5000
30
0.0
0
SEQEND
5
121c
8
Layer1
0
POLYLINE
5
121d
8
Layer1
66
1
10
0.0
20
0.0
30
0.0
70
1
0
VERTEX
5
121e
8
Layer1
10
66.5000
20
110.5000
30
0.0
0
VERTEX
5
121f
8
Layer1
10
67.3000
20
110.5000
30
0.0
0
VERTEX
5
1220
8
Layer1
10
67.3000
20
122.5000
30
0.0
0
VERTEX
5
1221
8
Layer1
10
66.5000
20
122.5000
30
0.0
0
VERTEX
5
1222
8
Layer1
10
66.5000
20
123.5000
30
0.0
0
VERTEX
5
1223
8
Layer1
10
52.5000
20
123.5000
30
0.0
0
VERTEX
5
1224
8
Layer1
10
52.5000
20
122.5000
30
0.0
0
VERTEX
5
1225
8
Layer1
10
51.7000
20
122.5000
30
0.0
0
VERTEX
5
1226
8
Layer1
10
51.7000
20
110.5000
30
0.0
0
VERTEX
5
1227
8
Layer1
10
52.5000
20
110.5000
30
0.0
0
VERTEX
5
1228
8
Layer1
10
52.5000
20
109.5000
30
0.0
0
VERTEX
5
1229
8
Layer1
10
66.5000
20
109.5000
30
0.0
0
VERTEX
5
122a
8
Layer1
10
66.5000
20
110.5000
30
0.0
0
SEQEND
5
122b
8
Layer1
0
POLYLINE
5
122c
8
Layer1
66
1
10
0.0
20
0.0
30
0.0
70
1
0
VERTEX
5
122d
8
Layer1
10
85.5000
20
110.5000
30
0.0
0
VERTEX
5
122e
8
Layer1
10
86.3000
20
110.5000
30
0.0
0
VERTEX
5
122f
8
Layer1
10
86.3000
20
122.5000
30
0.0
0
VERTEX
5
1230
8
Layer1
10
85.5000
20
122.5000
30
0.0
0
VERTEX
5
1231
8
Layer1
10
85.5000
20
123.5000
30
0.0
0
VERTEX
5
1232
8
Layer1
10
71.5000
20
123.5000
30
0.0
0
VERTEX
5
1233
8
Layer1
10
71.5000
20
122.5000
30
0.0
0
VERTEX
5
1234
8
Layer1
10
70.7000
20
122.5000
30
0.0
0
VERTEX
5
1235
8
Layer1
10
70.7000
20
110.5000
30
0.0
0
VERTEX
5
1236
8
Layer1
10
71.5000
20
110.5000
30
0.0
0
VERTEX
5
1237
8
Layer1
10
71.5000
20
109.5000
30
0.0
0
VERTEX
5
1238
8
Layer1
10
85.5000
20
109.5000
30
0.0
0
VERTEX
5
1239
8
Layer1
10
85.5000
20
110.5000
30
0.0
0
SEQEND
5
123a
8
Layer1
0
POLYLINE
5
123b
8
Layer1
66
1
10
0.0
20
0.0
30
0.0
70
1
0
VERTEX
5
123c
8
Layer1
10
104.5000
20
110.5000
30
0.0
0
VERTEX
5
123d
8
Layer1
10
105.3000
20
110.5000
30
0.0
0
VERTEX
5
123e
8
Layer1
10
105.3000
20
122.5000
30
0.0
0
VERTEX
5
123f
8
Layer1
10
104.5000
20
122.5000
30
0.0
0
VERTEX
5
1240
8
Layer1
10
104.5000
20
123.5000
30
0.0
0
VERTEX
5
1241
8
Layer1
10
90.5000
20
123.5000
30
0.0
0
VERTEX
5
1242
8
Layer1
10
90.5000
20
122.5000
30
0.0
0
VERTEX
5
1243
8
Layer1
10
89.7000
20
122.5000
30
0.0
0
VERTEX
5
1244
8
Layer1
10
89.7000
20
110.5000
30
0.0
0
VERTEX
5
1245
8
Layer1
10
90.5000
20
110.5000
30
0.0
0
VERTEX
5
1246
8
Layer1
10
90.5000
20
109.5000
30
0.0
0
VERTEX
5
1247
8
Layer1
10
104.5000
20
109.5000
30
0.0
0
VERTEX
5
1248
8
Layer1
10
104.5000
20
110.5000
30
0.0
0
SEQEND
5
1249
8
Layer1
0
POLYLINE
5
124a
8
Layer1
66
1
10
0.0
20
0.0
30
0.0
70
1
0
VERTEX
5
124b
8
Layer1
10
137.7500
20
110.5000
30
0.0
0
VERTEX
5
124c
8
Layer1
10
138.5500
20
110.5000
30
0.0
0
VERTEX
5
124d
8
Layer1
10
138.5500
20
122.5000
30
0.0
0
VERTEX
5
124e
8
Layer1
10
137.7500
20
122.5000
30
0.0
0
VERTEX
5
124f
8
Layer1
10
137.7500
20
123.5000
30
0.0
0
VERTEX
5
1250
8
Layer1
10
123.7500
20
123.5000
30
0.0
0
VERTEX
5
1251
8
Layer1
10
123.7500
20
122.5000
30
0.0
0
VERTEX
5
1252
8
Layer1
10
122.9500
20
122.5000
30
0.0
0
VERTEX
5
1253
8
Layer1
10
122.9500
20
110.5000
30
0.0
0
VERTEX
5
1254
8
Layer1
10
123.7500
20
110.5000
30
0.0
0
VERTEX
5
1255
8
Layer1
10
123.7500
20
109.5000
30
0.0
0
VERTEX
5
1256
8
Layer1
10
137.7500
20
109.5000
30
0.0
0
VERTEX
5
1257
8
Layer1
10
137.7500
20
110.5000
30
0.0
0
SEQEND
5
1258
8
Layer1
0
POLYLINE
5
1259
8
Layer1
66
1
10
0.0
20
0.0
30
0.0
70
1
0
VERTEX
5
125a
8
Layer1
10
156.7500
20
110.5000
30
0.0
0
VERTEX
5
125b
8
Layer1
10
157.5500
20
110.5000
30
0.0
0
VERTEX
5
125c
8
Layer1
10
157.5500
20
122.5000
30
0.0
0
VERTEX
5
125d
8
Layer1
10
156.7500
20
122.5000
30
0.0
0
VERTEX
5
125e
8
Layer1
10
156.7500
20
123.5000
30
0.0
0
VERTEX
5
125f
8
Layer1
10
142.7500
20
123.5000
30
0.0
0
VERTEX
5
1260
8
Layer1
10
142.7500
20
122.5000
30
0.0
0
VERTEX
5
1261
8
Layer1
10
141.9500
20
122.5000
30
0.0
0
VERTEX
5
1262
8
Layer1
10
141.9500
20
110.5000
30
0.0
0
VERTEX
5
1263
8
Layer1
10
142.7500
20
110.5000
30
0.0
0
VERTEX
5
1264
8
Layer1
10
142.7500
20
109.5000
30
0.0
0
VERTEX
5
1265
8
Layer1
10
156.7500
20
109.5000
30
0.0
0
VERTEX
5
1266
8
Layer1
10
156.7500
20
110.5000
30
0.0
0
SEQEND
5
1267
8
Layer1
0
POLYLINE
5
1268
8
Layer1
66
1
10
0.0
20
0.0
30
0.0
70
1
0
VERTEX
5
1269
8
Layer1
10
175.7500
20
110.5000
30
0.0
0
VERTEX
5
126a
8
Layer1
10
176.5500
20
110.5000
30
0.0
0
VERTEX
5
126b
8
Layer1
10
176.5500
20
122.5000
30
0.0
0
VERTEX
5
126c
8
Layer1
10
175.7500
20
122.5000
30
0.0
0
VERTEX
5
126d
8
Layer1
10
175.7500
20
123.5000
30
0.0
0
VERTEX
5
126e
8
Layer1
10
161.7500
20
123.5000
30
0.0
0
VERTEX
5
126f
8
Layer1
10
161.7500
20
122.5000
30
0.0
0
VERTEX
5
1270
8
Layer1
10
160.9500
20
122.5000
30
0.0
0
VERTEX
5
1271
8
Layer1
10
160.9500
20
110.5000
30
0.0
0
VERTEX
5
1272
8
Layer1
10
161.7500
20
110.5000
30
0.0
0
VERTEX
5
1273
8
Layer1
10
161.7500
20
109.5000
30
0.0
0
VERTEX
5
1274
8
Layer1
10
175.7500
20
109.5000
30
0.0
0
VERTEX
5
1275
8
Layer1
10
175.7500
20
110.5000
30
0.0
0
SEQEND
5
1276
8
Layer1
0
POLYLINE
5
1277
8
Layer1
66
1
10
0.0
20
0.0
30
0.0
70
1
0
VERTEX
5
1278
8
Layer1
10
194.7500
20
110.5000
30
0.0
0
VERTEX
5
1279
8
Layer1
10
195.5500
20
110.5000
30
0.0
0
VERTEX
5
127a
8
Layer1
10
195.5500
20
122.5000
30
0.0
0
VERTEX
5
127b
8
Layer1
10
194.7500
20
122.5000
30
0.0
0
VERTEX
5
127c
8
Layer1
10
194.7500
20
123.5000
30
0.0
0
VERTEX
5
127d
8
Layer1
10
180.7500
20
123.5000
30
0.0
0
VERTEX
5
127e
8
Layer1
10
180.7500
20
122.5000
30
0.0
0
VERTEX
5
127f
8
Layer1
10
179.9500
20
122.5000
30
0.0
0
VERTEX
5
1280
8
Layer1
10
179.9500
20
110.5000
30
0.0
0
VERTEX
5
1281
8
Layer1
10
180.7500
20
110.5000
30
0.0
0
VERTEX
5
1282
8
Layer1
10
180.7500
20
109.5000
30
0.0
0
VERTEX
5
1283
8
Layer1
10
194.7500
20
109.5000
30
0.0
0
VERTEX
5
1284
8
Layer1
10
194.7500
20
110.5000
30
0.0
0
SEQEND
5
1285
8
Layer1
0
POLYLINE
5
1286
8
Layer1
66
1
10
0.0
20
0.0
30
0.0
70
1
0
VERTEX
5
1287
8
Layer1
10
228.0000
20
110.5000
30
0.0
0
VERTEX
5
1288
8
Layer1
10
228.8000
20
110.5000
30
0.0
0
VERTEX
5
1289
8
Layer1
10
228.8000
20
122.5000
30
0.0
0
VERTEX
5
128a
8
Layer1
10
228.0000
20
122.5000
30
0.0
0
VERTEX
5
128b
8
Layer1
10
228.0000
20
123.5000
30
0.0
0
VERTEX
5
128c
8
Layer1
10
214.0000
20
123.5000
30
0.0
0
VERTEX
5
128d
8
Layer1
10
214.0000
20
122.5000
30
0.0
0
VERTEX
5
128e
8
Layer1
10
213.2000
20
122.5000
30
0.0
0
VERTEX
5
128f
8
Layer1
10
213.2000
20
110.5000
30
0.0
0
VERTEX
5
1290
8
Layer1
10
214.0000
20
110.5000
30
0.0
0
VERTEX
5
1291
8
Layer1
10
214.0000
20
109.5000
30
0.0
0
VERTEX
5
1292
8
Layer1
10
228.0000
20
109.5000
30
0.0
0
VERTEX
5
1293
8
Layer1
10
228.0000
20
110.5000
30
0.0
0
SEQEND
5
1294
8
Layer1
0
POLYLINE
5
1295
8
Layer1
66
1
10
0.0
20
0.0
30
0.0
70
1
0
VERTEX
5
1296
8
Layer1
10
247.0000
20
110.5000
30
0.0
0
VERTEX
5
1297
8
Layer1
10
247.8000
20
110.5000
30
0.0
0
VERTEX
5
1298
8
Layer1
10
247.8000
20
122.5000
30
0.0
0
VERTEX
5
1299
8
Layer1
10
247.0000
20
122.5000
30
0.0
0
VERTEX
5
129a
8
Layer1
10
247.0000
20
123.5000
30
0.0
0
VERTEX
5
129b
8
Layer1
10
233.0000
20
123.5000
30
0.0
0
VERTEX
5
129c
8
Layer1
10
233.0000
20
122.5000
30
0.0
0
VERTEX
5
129d
8
Layer1
10
232.2000
20
122.5000
30
0.0
0
VERTEX
5
129e
8
Layer1
10
232.2000
20
110.5000
30
0.0
0
VERTEX
5
129f
8
Layer1
10
233.0000
20
110.5000
30
0.0
0
VERTEX
5
12a0
8
Layer1
10
233.0000
20
109.5000
30
0.0
0
VERTEX
5
12a1
8
Layer1
10
247.0000
20
109.5000
30
0.0
0
VERTEX
5
12a2
8
Layer1
10
247.0000
20
110.5000
30
0.0
0
SEQEND
5
12a3
8
Layer1
0
POLYLINE
5
12a4
8
Layer1
66
1
10
0.0
20
0.0
30
0.0
70
1
0
VERTEX
5
12a5
8
Layer1
10
266.0000
20
110.5000
30
0.0
0
VERTEX
5
12a6
8
Layer1
10
266.8000
20
110.5000
30
0.0
0
VERTEX
5
12a7
8
Layer1
10
266.8000
20
122.5000
30
0.0
0
VERTEX
5
12a8
8
Layer1
10
266.0000
20
122.5000
30
0.0
0
VERTEX
5
12a9
8
Layer1
10
266.0000
20
123.5000
30
0.0
0
VERTEX
5
12aa
8
Layer1
10
252.0000
20
123.5000
30
0.0
0
VERTEX
5
12ab
8
Layer1
10
252.0000
20
122.5000
30
0.0
0
VERTEX
5
12ac
8
Layer1
10
251.2000
20
122.5000
30
0.0
0
VERTEX
5
12ad
8
Layer1
10
251.2000
20
110.5000
30
0.0
0
VERTEX
5
12ae
8
Layer1
10
252.0000
20
110.5000
30
0.0
0
VERTEX
5
12af
8
Layer1
10
252.0000
20
109.5000
30
0.0
0
VERTEX
5
12b0
8
Layer1
10
266.0000
20
109.5000
30
0.0
0
VERTEX
5
12b1
8
Layer1
10
266.0000
20
110.5000
30
0.0
0
SEQEND
5
12b2
8
Layer1
0
POLYLINE
5
12b3
8
Layer1
66
1
10
0.0
20
0.0
30
0.0
70
1
0
VERTEX
5
12b4
8
Layer1
10
285.0000
20
110.5000
30
0.0
0
VERTEX
5
12b5
8
Layer1
10
285.8000
20
110.5000
30
0.0
0
VERTEX
5
12b6
8
Layer1
10
285.8000
20
122.5000
30
0.0
0
VERTEX
5
12b7
8
Layer1
10
285.0000
20
122.5000
30
0.0
0
VERTEX
5
12b8
8
Layer1
10
285.0000
20
123.5000
30
0.0
0
VERTEX
5
12b9
8
Layer1
10
271.0000
20
123.5000
30
0.0
0
VERTEX
5
12ba
8
Layer1
10
271.0000
20
122.5000
30
0.0
0
VERTEX
5
12bb
8
Layer1
10
270.2000
20
122.5000
30
0.0
0
VERTEX
5
12bc
8
Layer1
10
270.2000
20
110.5000
30
0.0
0
VERTEX
5
12bd
8
Layer1
10
271.0000
20
110.5000
30
0.0
0
VERTEX
5
12be
8
Layer1
10
271.0000
20
109.5000
30
0.0
0
VERTEX
5
12bf
8
Layer1
10
285.0000
20
109.5000
30
0.0
0
VERTEX
5
12c0
8
Layer1
10
285.0000
20
110.5000
30
0.0
0
SEQEND
5
12c1
8
Layer1
0
POLYLINE
5
12c2
8
Layer1
66
1
10
0.0
20
0.0
30
0.0
70
1
0
VERTEX
5
12c3
8
Layer1
10
308.7500
20
110.5000
30
0.0
0
VERTEX
5
12c4
8
Layer1
10
309.5500
20
110.5000
30
0.0
0
VERTEX
5
12c5
8
Layer1
10
309.5500
20
122.5000
30
0.0
0
VERTEX
5
12c6
8
Layer1
10
308.7500
20
122.5000
30
0.0
0
VERTEX
5
12c7
8
Layer1
10
308.7500
20
123.5000
30
0.0
0
VERTEX
5
12c8
8
Layer1
10
294.7500
20
123.5000
30
0.0
0
VERTEX
5
12c9
8
Layer1
10
294.7500
20
122.5000
30
0.0
0
VERTEX
5
12ca
8
Layer1
10
293.9500
20
122.5000
30
0.0
0
VERTEX
5
12cb
8
Layer1
10
293.9500
20
110.5000
30
0.0
0
VERTEX
5
12cc
8
Layer1
10
294.7500
20
110.5000
30
0.0
0
VERTEX
5
12cd
8
Layer1
10
294.7500
20
109.5000
30
0.0
0
VERTEX
5
12ce
8
Layer1
10
308.7500
20
109.5000
30
0.0
0
VERTEX
5
12cf
8
Layer1
10
308.7500
20
110.5000
30
0.0
0
SEQEND
5
12d0
8
Layer1
0
POLYLINE
5
12d1
8
Layer1
66
1
10
0.0
20
0.0
30
0.0
70
1
0
VERTEX
5
12d2
8
Layer1
10
19.0000
20
86.7500
30
0.0
0
VERTEX
5
12d3
8
Layer1
10
19.8000
20
86.7500
30
0.0
0
VERTEX
5
12d4
8
Layer1
10
19.8000
20
98.7500
30
0.0
0
VERTEX
5
12d5
8
Layer1
10
19.0000
20
98.7500
30
0.0
0
VERTEX
5
12d6
8
Layer1
10
19.0000
20
99.7500
30
0.0
0
VERTEX
5
12d7
8
Layer1
10
5.0000
20
99.7500
30
0.0
0
VERTEX
5
12d8
8
Layer1
10
5.0000
20
98.7500
30
0.0
0
VERTEX
5
12d9
8
Layer1
10
4.2000
20
98.7500
30
0.0
0
VERTEX
5
12da
8
Layer1
10
4.2000
20
86.7500
30
0.0
0
VERTEX
5
12db
8
Layer1
10
5.0000
20
86.7500
30
0.0
0
VERTEX
5
12dc
8
Layer1
10
5.0000
20
85.7500
30
0.0
0
VERTEX
5
12dd
8
Layer1
10
19.0000
20
85.7500
30
0.0
0
VERTEX
5
12de
8
Layer1
10
19.0000
20
86.7500
30
0.0
0
SEQEND
5
12df
8
Layer1
0
POLYLINE
5
12e0
8
Layer1
66
1
10
0.0
20
0.0
30
0.0
70
1
0
VERTEX
5
12e1
8
Layer1
10
38.0000
20
86.7500
30
0.0
0
VERTEX
5
12e2
8
Layer1
10
38.8000
20
86.7500
30
0.0
0
VERTEX
5
12e3
8
Layer1
10
38.8000
20
98.7500
30
0.0
0
VERTEX
5
12e4
8
Layer1
10
38.0000
20
98.7500
30
0.0
0
VERTEX
5
12e5
8
Layer1
10
38.0000
20
99.7500
30
0.0
0
VERTEX
5
12e6
8
Layer1
10
24.0000
20
99.7500
30
0.0
0
VERTEX
5
12e7
8
Layer1
10
24.0000
20
98.7500
30
0.0
0
VERTEX
5
12e8
8
Layer1
10
23.2000
20
98.7500
30
0.0
0
VERTEX
5
12e9
8
Layer1
10
23.2000
20
86.7500
30
0.0
0
VERTEX
5
12ea
8
Layer1
10
24.0000
20
86.7500
30
0.0
0
VERTEX
5
12eb
8
Layer1
10
24.0000
20
85.7500
30
0.0
0
VERTEX
5
12ec
8
Layer1
10
38.0000
20
85.7500
30
0.0
0
VERTEX
5
12ed
8
Layer1
10
38.0000
20
86.7500
30
0.0
0
SEQEND
5
12ee
8
Layer1
0
POLYLINE
5
12ef
8
Layer1
66
1
10
0.0
20
0.0
30
0.0
70
1
0
VERTEX
5
12f0
8
Layer1
10
57.0000
20
86.7500
30
0.0
0
VERTEX
5
12f1
8
Layer1
10
57.8000
20
86.7500
30
0.0
0
VERTEX
5
12f2
8
Layer1
10
57.8000
20
98.7500
30
0.0
0
VERTEX
5
12f3
8
Layer1
10
57.0000
20
98.7500
30
0.0
0
VERTEX
5
12f4
8
Layer1
10
57.0000
20
99.7500
30
0.0
0
VERTEX
5
12f5
8
Layer1
10
43.0000
20
99.7500
30
0.0
0
VERTEX
5
12f6
8
Layer1
10
43.0000
20
98.7500
30
0.0
0
VERTEX
5
12f7
8
Layer1
10
42.2000
20
98.7500
30
0.0
0
VERTEX
5
12f8
8
Layer1
10
42.2000
20
86.7500
30
0.0
0
VERTEX
5
12f9
8
Layer1
10
43.0000
20
86.7500
30
0.0
0
VERTEX
5
12fa
8
Layer1
10
43.0000
20
85.7500
30
0.0
0
VERTEX
5
12fb
8
Layer1
10
57.0000
20
85.7500
30
0.0
0
VERTEX
5
12fc
8
Layer1
10
57.0000
20
86.7500
30
0.0
0
SEQEND
5
12fd
8
Layer1
0
POLYLINE
5
12fe
8
Layer1
66
1
10
0.0
20
0.0
30
0.0
70
1
0
VERTEX
5
12ff
8
Layer1
10
76.0000
20
86.7500
30
0.0
0
VERTEX
5
1300
8
Layer1
10
76.8000
20
86.7500
30
0.0
0
VERTEX
5
1301
8
Layer1
10
76.8000
20
98.7500
30
0.0
0
VERTEX
5
1302
8
Layer1
10
76.0000
20
98.7500
30
0.0
0
VERTEX
5
1303
8
Layer1
10
76.0000
20
99.7500
30
0.0
0
VERTEX
5
1304
8
Layer1
10
62.0000
20
99.7500
30
0.0
0
VERTEX
5
1305
8
Layer1
10
62.0000
20
98.7500
30
0.0
0
VERTEX
5
1306
8
Layer1
10
61.2000
20
98.7500
30
0.0
0
VERTEX
5
1307
8
Layer1
10
61.2000
20
86.7500
30
0.0
0
VERTEX
5
1308
8
Layer1
10
62.0000
20
86.7500
30
0.0
0
VERTEX
5
1309
8
Layer1
10
62.0000
20
85.7500
30
0.0
0
VERTEX
5
130a
8
Layer1
10
76.0000
20
85.7500
30
0.0
0
VERTEX
5
130b
8
Layer1
10
76.0000
20
86.7500
30
0.0
0
SEQEND
5
130c
8
Layer1
0
POLYLINE
5
130d
8
Layer1
66
1
10
0.0
20
0.0
30
0.0
70
1
0
VERTEX
5
130e
8
Layer1
10
95.0000
20
86.7500
30
0.0
0
VERTEX
5
130f
8
Layer1
10
95.8000
20
86.7500
30
0.0
0
VERTEX
5
1310
8
Layer1
10
95.8000
20
98.7500
30
0.0
0
VERTEX
5
1311
8
Layer1
10
95.0000
20
98.7500
30
0.0
0
VERTEX
5
1312
8
Layer1
10
95.0000
20
99.7500
30
0.0
0
VERTEX
5
1313
8
Layer1
10
81.0000
20
99.7500
30
0.0
0
VERTEX
5
1314
8
Layer1
10
81.0000
20
98.7500
30
0.0
0
VERTEX
5
1315
8
Layer1
10
80.2000
20
98.7500
30
0.0
0
VERTEX
5
1316
8
Layer1
10
80.2000
20
86.7500
30
0.0
0
VERTEX
5
1317
8
Layer1
10
81.0000
20
86.7500
30
0.0
0
VERTEX
5
1318
8
Layer1
10
81.0000
20
85.7500
30
0.0
0
VERTEX
5
1319
8
Layer1
10
95.0000
20
85.7500
30
0.0
0
VERTEX
5
131a
8
Layer1
10
95.0000
20
86.7500
30
0.0
0
SEQEND
5
131b
8
Layer1
0
POLYLINE
5
131c
8
Layer1
66
1
10
0.0
20
0.0
30
0.0
70
1
0
VERTEX
5
131d
8
Layer1
10
114.0000
20
86.7500
30
0.0
0
VERTEX
5
131e
8
Layer1
10
114.8000
20
86.7500
30
0.0
0
VERTEX
5
131f
8
Layer1
10
114.8000
20
98.7500
30
0.0
0
VERTEX
5
1320
8
Layer1
10
114.0000
20
98.7500
30
0.0
0
VERTEX
5
1321
8
Layer1
10
114.0000
20
99.7500
30
0.0
0
VERTEX
5
1322
8
Layer1
10
100.0000
20
99.7500
30
0.0
0
VERTEX
5
1323
8
Layer1
10
100.0000
20
98.7500
30
0.0
0
VERTEX
5
1324
8
Layer1
10
99.2000
20
98.7500
30
0.0
0
VERTEX
5
1325
8
Layer1
10
99.2000
20
86.7500
30
0.0
0
VERTEX
5
1326
8
Layer1
10
100.0000
20
86.7500
30
0.0
0
VERTEX
5
1327
8
Layer1
10
100.0000
20
85.7500
30
0.0
0
VERTEX
5
1328
8
Layer1
10
114.0000
20
85.7500
30
0.0
0
VERTEX
5
1329
8
Layer1
10
114.0000
20
86.7500
30
0.0
0
SEQEND
5
132a
8
Layer1
0
POLYLINE
5
132b
8
Layer1
66
1
10
0.0
20
0.0
30
0.0
70
1
0
VERTEX
5
132c
8
Layer1
10
133.0000
20
86.7500
30
0.0
0
VERTEX
5
132d
8
Layer1
10
133.8000
20
86.7500
30
0.0
0
VERTEX
5
132e
8
Layer1
10
133.8000
20
98.7500
30
0.0
0
VERTEX
5
132f
8
Layer1
10
133.0000
20
98.7500
30
0.0
0
VERTEX
5
1330
8
Layer1
10
133.0000
20
99.7500
30
0.0
0
VERTEX
5
1331
8
Layer1
10
119.0000
20
99.7500
30
0.0
0
VERTEX
5
1332
8
Layer1
10
119.0000
20
98.7500
30
0.0
0
VERTEX
5
1333
8
Layer1
10
118.2000
20
98.7500
30
0.0
0
VERTEX
5
1334
8
Layer1
10
118.2000
20
86.7500
30
0.0
0
VERTEX
5
1335
8
Layer1
10
119.0000
20
86.7500
30
0.0
0
VERTEX
5
1336
8
Layer1
10
119.0000
20
85.7500
30
0.0
0
VERTEX
5
1337
8
Layer1
10
133.0000
20
85.7500
30
0.0
0
VERTEX
5
1338
8
Layer1
10
133.0000
20
86.7500
30
0.0
0
SEQEND
5
1339
8
Layer1
0
POLYLINE
5
133a
8
Layer1
66
1
10
0.0
20
0.0
30
0.0
70
1
0
VERTEX
5
133b
8
Layer1
10
152.0000
20
86.7500
30
0.0
0
VERTEX
5
133c
8
Layer1
10
152.8000
20
86.7500
30
0.0
0
VERTEX
5
133d
8
Layer1
10
152.8000
20
98.7500
30
0.0
0
VERTEX
5
133e
8
Layer1
10
152.0000
20
98.7500
30
0.0
0
VERTEX
5
133f
8
Layer1
10
152.0000
20
99.7500
30
0.0
0
VERTEX
5
1340
8
Layer1
10
138.0000
20
99.7500
30
0.0
0
VERTEX
5
1341
8
Layer1
10
138.0000
20
98.7500
30
0.0
0
VERTEX
5
1342
8
Layer1
10
137.2000
20
98.7500
30
0.0
0
VERTEX
5
1343
8
Layer1
10
137.2000
20
86.7500
30
0.0
0
VERTEX
5
1344
8
Layer1
10
138.0000
20
86.7500
30
0.0
0
VERTEX
5
1345
8
Layer1
10
138.0000
20
85.7500
30
0.0
0
VERTEX
5
1346
8
Layer1
10
152.0000
20
85.7500
30
0.0
0
VERTEX
5
1347
8
Layer1
10
152.0000
20
86.7500
30
0.0
0
SEQEND
5
1348
8
Layer1
0
POLYLINE
5
1349
8
Layer1
66
1
10
0.0
20
0.0
30
0.0
70
1
0
VERTEX
5
134a
8
Layer1
10
171.0000
20
86.7500
30
0.0
0
VERTEX
5
134b
8
Layer1
10
171.8000
20
86.7500
30
0.0
0
VERTEX
5
134c
8
Layer1
10
171.8000
20
98.7500
30
0.0
0
VERTEX
5
134d
8
Layer1
10
171.0000
20
98.7500
30
0.0
0
VERTEX
5
134e
8
Layer1
10
171.0000
20
99.7500
30
0.0
0
VERTEX
5
134f
8
Layer1
10
157.0000
20
99.7500
30
0.0
0
VERTEX
5
1350
8
Layer1
10
157.0000
20
98.7500
30
0.0
0
VERTEX
5
1351
8
Layer1
10
156.2000
20
98.7500
30
0.0
0
VERTEX
5
1352
8
Layer1
10
156.2000
20
86.7500
30
0.0
0
VERTEX
5
1353
8
Layer1
10
157.0000
20
86.7500
30
0.0
0
VERTEX
5
1354
8
Layer1
10
157.0000
20
85.7500
30
0.0
0
VERTEX
5
1355
8
Layer1
10
171.0000
20
85.7500
30
0.0
0
VERTEX
5
1356
8
Layer1
10
171.0000
20
86.7500
30
0.0
0
SEQEND
5
1357
8
Layer1
0
POLYLINE
5
1358
8
Layer1
66
1
10
0.0
20
0.0
30
0.0
70
1
0
VERTEX
5
1359
8
Layer1
10
190.0000
20
86.7500
30
0.0
0
VERTEX
5
135a
8
Layer1
10
190.8000
20
86.7500
30
0.0
0
VERTEX
5
135b
8
Layer1
10
190.8000
20
98.7500
30
0.0
0
VERTEX
5
135c
8
Layer1
10
190.0000
20
98.7500
30
0.0
0
VERTEX
5
135d
8
Layer1
10
190.0000
20
99.7500
30
0.0
0
VERTEX
5
135e
8
Layer1
10
176.0000
20
99.7500
30
0.0
0
VERTEX
5
135f
8
Layer1
10
176.0000
20
98.7500
30
0.0
0
VERTEX
5
1360
8
Layer1
10
175.2000
20
98.7500
30
0.0
0
VERTEX
5
1361
8
Layer1
10
175.2000
20
86.7500
30
0.0
0
VERTEX
5
1362
8
Layer1
10
176.0000
20
86.7500
30
0.0
0
VERTEX
5
1363
8
Layer1
10
176.0000
20
85.7500
30
0.0
0
VERTEX
5
1364
8
Layer1
10
190.0000
20
85.7500
30
0.0
0
VERTEX
5
1365
8
Layer1
10
190.0000
20
86.7500
30
0.0
0
SEQEND
5
1366
8
Layer1
0
POLYLINE
5
1367
8
Layer1
66
1
10
0.0
20
0.0
30
0.0
70
1
0
VERTEX
5
1368
8
Layer1
10
209.0000
20
86.7500
30
0.0
0
VERTEX
5
1369
8
Layer1
10
209.8000
20
86.7500
30
0.0
0
VERTEX
5
136a
8
Layer1
10
209.8000
20
98.7500
30
0.0
0
VERTEX
5
136b
8
Layer1
10
209.0000
20
98.7500
30
0.0
0
VERTEX
5
136c
8
Layer1
10
209.0000
20
99.7500
30
0.0
0
VERTEX
5
136d
8
Layer1
10
195.0000
20
99.7500
30
0.0
0
VERTEX
5
136e
8
Layer1
10
195.0000
20
98.7500
30
0.0
0
VERTEX
5
136f
8
Layer1
10
194.2000
20
98.7500
30
0.0
0
VERTEX
5
1370
8
Layer1
10
194.2000
20
86.7500
30
0.0
0
VERTEX
5
1371
8
Layer1
10
195.0000
20
86.7500
30
0.0
0
VERTEX
5
1372
8
Layer1
10
195.0000
20
85.7500
30
0.0
0
VERTEX
5
1373
8
Layer1
10
209.0000
20
85.7500
30
0.0
0
VERTEX
5
1374
8
Layer1
10
209.0000
20
86.7500
30
0.0
0
SEQEND
5
1375
8
Layer1
0
POLYLINE
5
1376
8
Layer1
66
1
10
0.0
20
0.0
30
0.0
70
1
0
VERTEX
5
1377
8
Layer1
10
228.0000
20
86.7500
30
0.0
0
VERTEX
5
1378
8
Layer1
10
228.8000
20
86.7500
30
0.0
0
VERTEX
5
1379
8
Layer1
10
228.8000
20
98.7500
30
0.0
0
VERTEX
5
137a
8
Layer1
10
228.0000
20
98.7500
30
0.0
0
VERTEX
5
137b
8
Layer1
10
228.0000
20
99.7500
30
0.0
0
VERTEX
5
137c
8
Layer1
10
214.0000
20
99.7500
30
0.0
0
VERTEX
5
137d
8
Layer1
10
214.0000
20
98.7500
30
0.0
0
VERTEX
5
137e
8
Layer1
10
213.2000
20
98.7500
30
0.0
0
VERTEX
5
137f
8
Layer1
10
213.2000
20
86.7500
30
0.0
0
VERTEX
5
1380
8
Layer1
10
214.0000
20
86.7500
30
0.0
0
VERTEX
5
1381
8
Layer1
10
214.0000
20
85.7500
30
0.0
0
VERTEX
5
1382
8
Layer1
10
228.0000
20
85.7500
30
0.0
0
VERTEX
5
1383
8
Layer1
10
228.0000
20
86.7500
30
0.0
0
SEQEND
5
1384
8
Layer1
0
POLYLINE
5
1385
8
Layer1
66
1
10
0.0
20
0.0
30
0.0
70
1
0
VERTEX
5
1386
8
Layer1
10
247.0000
20
86.7500
30
0.0
0
VERTEX
5
1387
8
Layer1
10
247.8000
20
86.7500
30
0.0
0
VERTEX
5
1388
8
Layer1
10
247.8000
20
98.7500
30
0.0
0
VERTEX
5
1389
8
Layer1
10
247.0000
20
98.7500
30
0.0
0
VERTEX
5
138a
8
Layer1
10
247.0000
20
99.7500
30
0.0
0
VERTEX
5
138b
8
Layer1
10
233.0000
20
99.7500
30
0.0
0
VERTEX
5
138c
8
Layer1
10
233.0000
20
98.7500
30
0.0
0
VERTEX
5
138d
8
Layer1
10
232.2000
20
98.7500
30
0.0
0
VERTEX
5
138e
8
Layer1
10
232.2000
20
86.7500
30
0.0
0
VERTEX
5
138f
8
Layer1
10
233.0000
20
86.7500
30
0.0
0
VERTEX
5
1390
8
Layer1
10
233.0000
20
85.7500
30
0.0
0
VERTEX
5
1391
8
Layer1
10
247.0000
20
85.7500
30
0.0
0
VERTEX
5
1392
8
Layer1
10
247.0000
20
86.7500
30
0.0
0
SEQEND
5
1393
8
Layer1
0
POLYLINE
5
1394
8
Layer1
66
1
10
0.0
20
0.0
30
0.0
70
1
0
VERTEX
5
1395
8
Layer1
10
258.1000
20
85.9800
30
0.0
0
VERTEX
5
1396
8
Layer1
10
259.9250
20
85.9800
30
0.0
0
VERTEX
5
1397
8
Layer1
10
259.9250
20
86.7800
30
0.0
0
VERTEX
5
1398
8
Layer1
10
260.7000
20
86.7800
30
0.0
0
VERTEX
5
1399
8
Layer1
10
260.7000
20
86.7500
30
0.0
0
VERTEX
5
139a
8
Layer1
10
261.5000
20
86.7500
30
0.0
0
VERTEX
5
139b
8
Layer1
10
261.5000
20
85.7500
30
0.0
0
VERTEX
5
139c
8
Layer1
10
275.5000
20
85.7500
30
0.0
0
VERTEX
5
139d
8
Layer1
10
275.5000
20
86.7500
30
0.0
0
VERTEX
5
139e
8
Layer1
10
276.3000
20
86.7500
30
0.0
0
VERTEX
5
139f
8
Layer1
10
276.3000
20
86.7800
30
0.0
0
VERTEX
5
13a0
8
Layer1
10
277.0750
20
86.7800
30
0.0
0
VERTEX
5
13a1
8
Layer1
10
277.0750
20
85.9800
30
0.0
0
VERTEX
5
13a2
8
Layer1
10
278.9000
20
85.9800
30
0.0
0
VERTEX
5
13a3
8
Layer1
10
278.9000
20
84.7800
30
0.0
0
VERTEX
5
13a4
8
Layer1
10
281.9000
20
84.7800
30
0.0
0
VERTEX
5
13a5
8
Layer1
10
281.9000
20
85.9800
30
0.0
0
VERTEX
5
13a6
8
Layer1
10
283.7250
20
85.9800
30
0.0
0
VERTEX
5
13a7
8
Layer1
10
283.7250
20
92.2500
30
0.0
0
VERTEX
5
13a8
8
Layer1
10
284.6000
20
92.2500
30
0.0
0
VERTEX
5
13a9
8
Layer1
10
284.6000
20
95.0500
30
0.0
0
VERTEX
5
13aa
8
Layer1
10
283.7250
20
95.0500
30
0.0
0
VERTEX
5
13ab
8
Layer1
10
283.7250
20
98.2800
30
0.0
0
VERTEX
5
13ac
8
Layer1
10
277.0750
20
98.2800
30
0.0
0
VERTEX
5
13ad
8
Layer1
10
277.0750
20
97.4800
30
0.0
0
VERTEX
5
13ae
8
Layer1
10
276.3000
20
97.4800
30
0.0
0
VERTEX
5
13af
8
Layer1
10
276.3000
20
98.7500
30
0.0
0
VERTEX
5
13b0
8
Layer1
10
275.5000
20
98.7500
30
0.0
0
VERTEX
5
13b1
8
Layer1
10
275.5000
20
99.7500
30
0.0
0
VERTEX
5
13b2
8
Layer1
10
261.5000
20
99.7500
30
0.0
0
VERTEX
5
13b3
8
Layer1
10
261.5000
20
98.7500
30
0.0
0
VERTEX
5
13b4
8
Layer1
10
260.7000
20
98.7500
30
0.0
0
VERTEX
5
13b5
8
Layer1
10
260.7000
20
97.4800
30
0.0
0
VERTEX
5
13b6
8
Layer1
10
259.9250
20
97.4800
30
0.0
0
VERTEX
5
13b7
8
Layer1
10
259.9250
20
98.2800
30
0.0
0
VERTEX
5
13b8
8
Layer1
10
253.2750
20
98.2800
30
0.0
0
VERTEX
5
13b9
8
Layer1
10
253.2750
20
95.0500
30
0.0
0
VERTEX
5
13ba
8
Layer1
10
252.4000
20
95.0500
30
0.0
0
VERTEX
5
13bb
8
Layer1
10
252.4000
20
92.2500
30
0.0
0
VERTEX
5
13bc
8
Layer1
10
253.2750
20
92.2500
30
0.0
0
VERTEX
5
13bd
8
Layer1
10
253.2750
20
85.9800
30
0.0
0
VERTEX
5
13be
8
Layer1
10
255.1000
20
85.9800
30
0.0
0
VERTEX
5
13bf
8
Layer1
10
255.1000
20
84.7800
30
0.0
0
VERTEX
5
13c0
8
Layer1
10
258.1000
20
84.7800
30
0.0
0
VERTEX
5
13c1
8
Layer1
10
258.1000
20
85.9800
30
0.0
0
SEQEND
5
13c2
8
Layer1
0
POLYLINE
5
13c3
8
Layer1
66
1
10
0.0
20
0.0
30
0.0
70
1
0
VERTEX
5
13c4
8
Layer1
10
23.7500
20
67.7500
30
0.0
0
VERTEX
5
13c5
8
Layer1
10
24.5500
20
67.7500
30
0.0
0
VERTEX
5
13c6
8
Layer1
10
24.5500
20
79.7500
30
0.0
0
VERTEX
5
13c7
8
Layer1
10
23.7500
20
79.7500
30
0.0
0
VERTEX
5
13c8
8
Layer1
10
23.7500
20
80.7500
30
0.0
0
VERTEX
5
13c9
8
Layer1
10
9.7500
20
80.7500
30
0.0
0
VERTEX
5
13ca
8
Layer1
10
9.7500
20
79.7500
30
0.0
0
VERTEX
5
13cb
8
Layer1
10
8.9500
20
79.7500
30
0.0
0
VERTEX
5
13cc
8
Layer1
10
8.9500
20
67.7500
30
0.0
0
VERTEX
5
13cd
8
Layer1
10
9.7500
20
67.7500
30
0.0
0
VERTEX
5
13ce
8
Layer1
10
9.7500
20
66.7500
30
0.0
0
VERTEX
5
13cf
8
Layer1
10
23.7500
20
66.7500
30
0.0
0
VERTEX
5
13d0
8
Layer1
10
23.7500
20
67.7500
30
0.0
0
SEQEND
5
13d1
8
Layer1
0
POLYLINE
5
13d2
8
Layer1
66
1
10
0.0
20
0.0
30
0.0
70
1
0
VERTEX
5
13d3
8
Layer1
10
47.5000
20
67.7500
30
0.0
0
VERTEX
5
13d4
8
Layer1
10
48.3000
20
67.7500
30
0.0
0
VERTEX
5
13d5
8
Layer1
10
48.3000
20
79.7500
30
0.0
0
VERTEX
5
13d6
8
Layer1
10
47.5000
20
79.7500
30
0.0
0
VERTEX
5
13d7
8
Layer1
10
47.5000
20
80.7500
30
0.0
0
VERTEX
5
13d8
8
Layer1
10
33.5000
20
80.7500
30
0.0
0
VERTEX
5
13d9
8
Layer1
10
33.5000
20
79.7500
30
0.0
0
VERTEX
5
13da
8
Layer1
10
32.7000
20
79.7500
30
0.0
0
VERTEX
5
13db
8
Layer1
10
32.7000
20
67.7500
30
0.0
0
VERTEX
5
13dc
8
Layer1
10
33.5000
20
67.7500
30
0.0
0
VERTEX
5
13dd
8
Layer1
10
33.5000
20
66.7500
30
0.0
0
VERTEX
5
13de
8
Layer1
10
47.5000
20
66.7500
30
0.0
0
VERTEX
5
13df
8
Layer1
10
47.5000
20
67.7500
30
0.0
0
SEQEND
5
13e0
8
Layer1
0
POLYLINE
5
13e1
8
Layer1
66
1
10
0.0
20
0.0
30
0.0
70
1
0
VERTEX
5
13e2
8
Layer1
10
66.5000
20
67.7500
30
0.0
0
VERTEX
5
13e3
8
Layer1
10
67.3000
20
67.7500
30
0.0
0
VERTEX
5
13e4
8
Layer1
10
67.3000
20
79.7500
30
0.0
0
VERTEX
5
13e5
8
Layer1
10
66.5000
20
79.7500
30
0.0
0
VERTEX
5
13e6
8
Layer1
10
66.5000
20
80.7500
30
0.0
0
VERTEX
5
13e7
8
Layer1
10
52.5000
20
80.7500
30
0.0
0
VERTEX
5
13e8
8
Layer1
10
52.5000
20
79.7500
30
0.0
0
VERTEX
5
13e9
8
Layer1
10
51.7000
20
79.7500
30
0.0
0
VERTEX
5
13ea
8
Layer1
10
51.7000
20
67.7500
30
0.0
0
VERTEX
5
13eb
8
Layer1
10
52.5000
20
67.7500
30
0.0
0
VERTEX
5
13ec
8
Layer1
10
52.5000
20
66.7500
30
0.0
0
VERTEX
5
13ed
8
Layer1
10
66.5000
20
66.7500
30
0.0
0
VERTEX
5
13ee
8
Layer1
10
66.5000
20
67.7500
30
0.0
0
SEQEND
5
13ef
8
Layer1
0
POLYLINE
5
13f0
8
Layer1
66
1
10
0.0
20
0.0
30
0.0
70
1
0
VERTEX
5
13f1
8
Layer1
10
85.5000
20
67.7500
30
0.0
0
VERTEX
5
13f2
8
Layer1
10
86.3000
20
67.7500
30
0.0
0
VERTEX
5
13f3
8
Layer1
10
86.3000
20
79.7500
30
0.0
0
VERTEX
5
13f4
8
Layer1
10
85.5000
20
79.7500
30
0.0
0
VERTEX
5
13f5
8
Layer1
10
85.5000
20
80.7500
30
0.0
0
VERTEX
5
13f6
8
Layer1
10
71.5000
20
80.7500
30
0.0
0
VERTEX
5
13f7
8
Layer1
10
71.5000
20
79.7500
30
0.0
0
VERTEX
5
13f8
8
Layer1
10
70.7000
20
79.7500
30
0.0
0
VERTEX
5
13f9
8
Layer1
10
70.7000
20
67.7500
30
0.0
0
VERTEX
5
13fa
8
Layer1
10
71.5000
20
67.7500
30
0.0
0
VERTEX
5
13fb
8
Layer1
10
71.5000
20
66.7500
30
0.0
0
VERTEX
5
13fc
8
Layer1
10
85.5000
20
66.7500
30
0.0
0
VERTEX
5
13fd
8
Layer1
10
85.5000
20
67.7500
30
0.0
0
SEQEND
5
13fe
8
Layer1
0
POLYLINE
5
13ff
8
Layer1
66
1
10
0.0
20
0.0
30
0.0
70
1
0
VERTEX
5
1400
8
Layer1
10
104.5000
20
67.7500
30
0.0
0
VERTEX
5
1401
8
Layer1
10
105.3000
20
67.7500
30
0.0
0
VERTEX
5
1402
8
Layer1
10
105.3000
20
79.7500
30
0.0
0
VERTEX
5
1403
8
Layer1
10
104.5000
20
79.7500
30
0.0
0
VERTEX
5
1404
8
Layer1
10
104.5000
20
80.7500
30
0.0
0
VERTEX
5
1405
8
Layer1
10
90.5000
20
80.7500
30
0.0
0
VERTEX
5
1406
8
Layer1
10
90.5000
20
79.7500
30
0.0
0
VERTEX
5
1407
8
Layer1
10
89.7000
20
79.7500
30
0.0
0
VERTEX
5
1408
8
Layer1
10
89.7000
20
67.7500
30
0.0
0
VERTEX
5
1409
8
Layer1
10
90.5000
20
67.7500
30
0.0
0
VERTEX
5
140a
8
Layer1
10
90.5000
20
66.7500
30
0.0
0
VERTEX
5
140b
8
Layer1
10
104.5000
20
66.7500
30
0.0
0
VERTEX
5
140c
8
Layer1
10
104.5000
20
67.7500
30
0.0
0
SEQEND
5
140d
8
Layer1
0
POLYLINE
5
140e
8
Layer1
66
1
10
0.0
20
0.0
30
0.0
70
1
0
VERTEX
5
140f
8
Layer1
10
123.5000
20
67.7500
30
0.0
0
VERTEX
5
1410
8
Layer1
10
124.3000
20
67.7500
30
0.0
0
VERTEX
5
1411
8
Layer1
10
124.3000
20
79.7500
30
0.0
0
VERTEX
5
1412
8
Layer1
10
123.5000
20
79.7500
30
0.0
0
VERTEX
5
1413
8
Layer1
10
123.5000
20
80.7500
30
0.0
0
VERTEX
5
1414
8
Layer1
10
109.5000
20
80.7500
30
0.0
0
VERTEX
5
1415
8
Layer1
10
109.5000
20
79.7500
30
0.0
0
VERTEX
5
1416
8
Layer1
10
108.7000
20
79.7500
30
0.0
0
VERTEX
5
1417
8
Layer1
10
108.7000
20
67.7500
30
0.0
0
VERTEX
5
1418
8
Layer1
10
109.5000
20
67.7500
30
0.0
0
VERTEX
5
1419
8
Layer1
10
109.5000
20
66.7500
30
0.0
0
VERTEX
5
141a
8
Layer1
10
123.5000
20
66.7500
30
0.0
0
VERTEX
5
141b
8
Layer1
10
123.5000
20
67.7500
30
0.0
0
SEQEND
5
141c
8
Layer1
0
POLYLINE
5
141d
8
Layer1
66
1
10
0.0
20
0.0
30
0.0
70
1
0
VERTEX
5
141e
8
Layer1
10
142.5000
20
67.7500
30
0.0
0
VERTEX
5
141f
8
Layer1
10
143.3000
20
67.7500
30
0.0
0
VERTEX
5
1420
8
Layer1
10
143.3000
20
79.7500
30
0.0
0
VERTEX
5
1421
8
Layer1
10
142.5000
20
79.7500
30
0.0
0
VERTEX
5
1422
8
Layer1
10
142.5000
20
80.7500
30
0.0
0
VERTEX
5
1423
8
Layer1
10
128.5000
20
80.7500
30
0.0
0
VERTEX
5
1424
8
Layer1
10
128.5000
20
79.7500
30
0.0
0
VERTEX
5
1425
8
Layer1
10
127.7000
20
79.7500
30
0.0
0
VERTEX
5
1426
8
Layer1
10
127.7000
20
67.7500
30
0.0
0
VERTEX
5
1427
8
Layer1
10
128.5000
20
67.7500
30
0.0
0
VERTEX
5
1428
8
Layer1
10
128.5000
20
66.7500
30
0.0
0
VERTEX
5
1429
8
Layer1
10
142.5000
20
66.7500
30
0.0
0
VERTEX
5
142a
8
Layer1
10
142.5000
20
67.7500
30
0.0
0
SEQEND
5
142b
8
Layer1
0
POLYLINE
5
142c
8
Layer1
66
1
10
0.0
20
0.0
30
0.0
70
1
0
VERTEX
5
142d
8
Layer1
10
161.5000
20
67.7500
30
0.0
0
VERTEX
5
142e
8
Layer1
10
162.3000
20
67.7500
30
0.0
0
VERTEX
5
142f
8
Layer1
10
162.3000
20
79.7500
30
0.0
0
VERTEX
5
1430
8
Layer1
10
161.5000
20
79.7500
30
0.0
0
VERTEX
5
1431
8
Layer1
10
161.5000
20
80.7500
30
0.0
0
VERTEX
5
1432
8
Layer1
10
147.5000
20
80.7500
30
0.0
0
VERTEX
5
1433
8
Layer1
10
147.5000
20
79.7500
30
0.0
0
VERTEX
5
1434
8
Layer1
10
146.7000
20
79.7500
30
0.0
0
VERTEX
5
1435
8
Layer1
10
146.7000
20
67.7500
30
0.0
0
VERTEX
5
1436
8
Layer1
10
147.5000
20
67.7500
30
0.0
0
VERTEX
5
1437
8
Layer1
10
147.5000
20
66.7500
30
0.0
0
VERTEX
5
1438
8
Layer1
10
161.5000
20
66.7500
30
0.0
0
VERTEX
5
1439
8
Layer1
10
161.5000
20
67.7500
30
0.0
0
SEQEND
5
143a
8
Layer1
0
POLYLINE
5
143b
8
Layer1
66
1
10
0.0
20
0.0
30
0.0
70
1
0
VERTEX
5
143c
8
Layer1
10
180.5000
20
67.7500
30
0.0
0
VERTEX
5
143d
8
Layer1
10
181.3000
20
67.7500
30
0.0
0
VERTEX
5
143e
8
Layer1
10
181.3000
20
79.7500
30
0.0
0
VERTEX
5
143f
8
Layer1
10
180.5000
20
79.7500
30
0.0
0
VERTEX
5
1440
8
Layer1
10
180.5000
20
80.7500
30
0.0
0
VERTEX
5
1441
8
Layer1
10
166.5000
20
80.7500
30
0.0
0
VERTEX
5
1442
8
Layer1
10
166.5000
20
79.7500
30
0.0
0
VERTEX
5
1443
8
Layer1
10
165.7000
20
79.7500
30
0.0
0
VERTEX
5
1444
8
Layer1
10
165.7000
20
67.7500
30
0.0
0
VERTEX
5
1445
8
Layer1
10
166.5000
20
67.7500
30
0.0
0
VERTEX
5
1446
8
Layer1
10
166.5000
20
66.7500
30
0.0
0
VERTEX
5
1447
8
Layer1
10
180.5000
20
66.7500
30
0.0
0
VERTEX
5
1448
8
Layer1
10
180.5000
20
67.7500
30
0.0
0
SEQEND
5
1449
8
Layer1
0
POLYLINE
5
144a
8
Layer1
66
1
10
0.0
20
0.0
30
0.0
70
1
0
VERTEX
5
144b
8
Layer1
10
199.5000
20
67.7500
30
0.0
0
VERTEX
5
144c
8
Layer1
10
200.3000
20
67.7500
30
0.0
0
VERTEX
5
144d
8
Layer1
10
200.3000
20
79.7500
30
0.0
0
VERTEX
5
144e
8
Layer1
10
199.5000
20
79.7500
30
0.0
0
VERTEX
5
144f
8
Layer1
10
199.5000
20
80.7500
30
0.0
0
VERTEX
5
1450
8
Layer1
10
185.5000
20
80.7500
30
0.0
0
VERTEX
5
1451
8
Layer1
10
185.5000
20
79.7500
30
0.0
0
VERTEX
5
1452
8
Layer1
10
184.7000
20
79.7500
30
0.0
0
VERTEX
5
1453
8
Layer1
10
184.7000
20
67.7500
30
0.0
0
VERTEX
5
1454
8
Layer1
10
185.5000
20
67.7500
30
0.0
0
VERTEX
5
1455
8
Layer1
10
185.5000
20
66.7500
30
0.0
0
VERTEX
5
1456
8
Layer1
10
199.5000
20
66.7500
30
0.0
0
VERTEX
5
1457
8
Layer1
10
199.5000
20
67.7500
30
0.0
0
SEQEND
5
1458
8
Layer1
0
POLYLINE
5
1459
8
Layer1
66
1
10
0.0
20
0.0
30
0.0
70
1
0
VERTEX
5
145a
8
Layer1
10
218.5000
20
67.7500
30
0.0
0
VERTEX
5
145b
8
Layer1
10
219.3000
20
67.7500
30
0.0
0
VERTEX
5
145c
8
Layer1
10
219.3000
20
79.7500
30
0.0
0
VERTEX
5
145d
8
Layer1
10
218.5000
20
79.7500
30
0.0
0
VERTEX
5
145e
8
Layer1
10
218.5000
20
80.7500
30
0.0
0
VERTEX
5
145f
8
Layer1
10
204.5000
20
80.7500
30
0.0
0
VERTEX
5
1460
8
Layer1
10
204.5000
20
79.7500
30
0.0
0
VERTEX
5
1461
8
Layer1
10
203.7000
20
79.7500
30
0.0
0
VERTEX
5
1462
8
Layer1
10
203.7000
20
67.7500
30
0.0
0
VERTEX
5
1463
8
Layer1
10
204.5000
20
67.7500
30
0.0
0
VERTEX
5
1464
8
Layer1
10
204.5000
20
66.7500
30
0.0
0
VERTEX
5
1465
8
Layer1
10
218.5000
20
66.7500
30
0.0
0
VERTEX
5
1466
8
Layer1
10
218.5000
20
67.7500
30
0.0
0
SEQEND
5
1467
8
Layer1
0
POLYLINE
5
1468
8
Layer1
66
1
10
0.0
20
0.0
30
0.0
70
1
0
VERTEX
5
1469
8
Layer1
10
237.5000
20
67.7500
30
0.0
0
VERTEX
5
146a
8
Layer1
10
238.3000
20
67.7500
30
0.0
0
VERTEX
5
146b
8
Layer1
10
238.3000
20
79.7500
30
0.0
0
VERTEX
5
146c
8
Layer1
10
237.5000
20
79.7500
30
0.0
0
VERTEX
5
146d
8
Layer1
10
237.5000
20
80.7500
30
0.0
0
VERTEX
5
146e
8
Layer1
10
223.5000
20
80.7500
30
0.0
0
VERTEX
5
146f
8
Layer1
10
223.5000
20
79.7500
30
0.0
0
VERTEX
5
1470
8
Layer1
10
222.7000
20
79.7500
30
0.0
0
VERTEX
5
1471
8
Layer1
10
222.7000
20
67.7500
30
0.0
0
VERTEX
5
1472
8
Layer1
10
223.5000
20
67.7500
30
0.0
0
VERTEX
5
1473
8
Layer1
10
223.5000
20
66.7500
30
0.0
0
VERTEX
5
1474
8
Layer1
10
237.5000
20
66.7500
30
0.0
0
VERTEX
5
1475
8
Layer1
10
237.5000
20
67.7500
30
0.0
0
SEQEND
5
1476
8
Layer1
0
POLYLINE
5
1477
8
Layer1
66
1
10
0.0
20
0.0
30
0.0
70
1
0
VERTEX
5
1478
8
Layer1
10
256.5000
20
67.7500
30
0.0
0
VERTEX
5
1479
8
Layer1
10
257.3000
20
67.7500
30
0.0
0
VERTEX
5
147a
8
Layer1
10
257.3000
20
79.7500
30
0.0
0
VERTEX
5
147b
8
Layer1
10
256.5000
20
79.7500
30
0.0
0
VERTEX
5
147c
8
Layer1
10
256.5000
20
80.7500
30
0.0
0
VERTEX
5
147d
8
Layer1
10
242.5000
20
80.7500
30
0.0
0
VERTEX
5
147e
8
Layer1
10
242.5000
20
79.7500
30
0.0
0
VERTEX
5
147f
8
Layer1
10
241.7000
20
79.7500
30
0.0
0
VERTEX
5
1480
8
Layer1
10
241.7000
20
67.7500
30
0.0
0
VERTEX
5
1481
8
Layer1
10
242.5000
20
67.7500
30
0.0
0
VERTEX
5
1482
8
Layer1
10
242.5000
20
66.7500
30
0.0
0
VERTEX
5
1483
8
Layer1
10
256.5000
20
66.7500
30
0.0
0
VERTEX
5
1484
8
Layer1
10
256.5000
20
67.7500
30
0.0
0
SEQEND
5
1485
8
Layer1
0
POLYLINE
5
1486
8
Layer1
66
1
10
0.0
20
0.0
30
0.0
70
1
0
VERTEX
5
1487
8
Layer1
10
280.2500
20
67.7500
30
0.0
0
VERTEX
5
1488
8
Layer1
10
281.0500
20
67.7500
30
0.0
0
VERTEX
5
1489
8
Layer1
10
281.0500
20
79.7500
30
0.0
0
VERTEX
5
148a
8
Layer1
10
280.2500
20
79.7500
30
0.0
0
VERTEX
5
148b
8
Layer1
10
280.2500
20
80.7500
30
0.0
0
VERTEX
5
148c
8
Layer1
10
266.2500
20
80.7500
30
0.0
0
VERTEX
5
148d
8
Layer1
10
266.2500
20
79.7500
30
0.0
0
VERTEX
5
148e
8
Layer1
10
265.4500
20
79.7500
30
0.0
0
VERTEX
5
148f
8
Layer1
10
265.4500
20
67.7500
30
0.0
0
VERTEX
5
1490
8
Layer1
10
266.2500
20
67.7500
30
0.0
0
VERTEX
5
1491
8
Layer1
10
266.2500
20
66.7500
30
0.0
0
VERTEX
5
1492
8
Layer1
10
280.2500
20
66.7500
30
0.0
0
VERTEX
5
1493
8
Layer1
10
280.2500
20
67.7500
30
0.0
0
SEQEND
5
1494
8
Layer1
0
POLYLINE
5
1495
8
Layer1
66
1
10
0.0
20
0.0
30
0.0
70
1
0
VERTEX
5
1496
8
Layer1
10
26.1250
20
48.7500
30
0.0
0
VERTEX
5
1497
8
Layer1
10
26.9250
20
48.7500
30
0.0
0
VERTEX
5
1498
8
Layer1
10
26.9250
20
60.7500
30
0.0
0
VERTEX
5
1499
8
Layer1
10
26.1250
20
60.7500
30
0.0
0
VERTEX
5
149a
8
Layer1
10
26.1250
20
61.7500
30
0.0
0
VERTEX
5
149b
8
Layer1
10
12.1250
20
61.7500
30
0.0
0
VERTEX
5
149c
8
Layer1
10
12.1250
20
60.7500
30
0.0
0
VERTEX
5
149d
8
Layer1
10
11.3250
20
60.7500
30
0.0
0
VERTEX
5
149e
8
Layer1
10
11.3250
20
48.7500
30
0.0
0
VERTEX
5
149f
8
Layer1
10
12.1250
20
48.7500
30
0.0
0
VERTEX
5
14a0
8
Layer1
10
12.1250
20
47.7500
30
0.0
0
VERTEX
5
14a1
8
Layer1
10
26.1250
20
47.7500
30
0.0
0
VERTEX
5
14a2
8
Layer1
10
26.1250
20
48.7500
30
0.0
0
SEQEND
5
14a3
8
Layer1
0
POLYLINE
5
14a4
8
Layer1
66
1
10
0.0
20
0.0
30
0.0
70
1
0
VERTEX
5
14a5
8
Layer1
10
52.2500
20
48.7500
30
0.0
0
VERTEX
5
14a6
8
Layer1
10
53.0500
20
48.7500
30
0.0
0
VERTEX
5
14a7
8
Layer1
10
53.0500
20
60.7500
30
0.0
0
VERTEX
5
14a8
8
Layer1
10
52.2500
20
60.7500
30
0.0
0
VERTEX
5
14a9
8
Layer1
10
52.2500
20
61.7500
30
0.0
0
VERTEX
5
14aa
8
Layer1
10
38.2500
20
61.7500
30
0.0
0
VERTEX
5
14ab
8
Layer1
10
38.2500
20
60.7500
30
0.0
0
VERTEX
5
14ac
8
Layer1
10
37.4500
20
60.7500
30
0.0
0
VERTEX
5
14ad
8
Layer1
10
37.4500
20
48.7500
30
0.0
0
VERTEX
5
14ae
8
Layer1
10
38.2500
20
48.7500
30
0.0
0
VERTEX
5
14af
8
Layer1
10
38.2500
20
47.7500
30
0.0
0
VERTEX
5
14b0
8
Layer1
10
52.2500
20
47.7500
30
0.0
0
VERTEX
5
14b1
8
Layer1
10
52.2500
20
48.7500
30
0.0
0
SEQEND
5
14b2
8
Layer1
0
POLYLINE
5
14b3
8
Layer1
66
1
10
0.0
20
0.0
30
0.0
70
1
0
VERTEX
5
14b4
8
Layer1
10
71.2500
20
48.7500
30
0.0
0
VERTEX
5
14b5
8
Layer1
10
72.0500
20
48.7500
30
0.0
0
VERTEX
5
14b6
8
Layer1
10
72.0500
20
60.7500
30
0.0
0
VERTEX
5
14b7
8
Layer1
10
71.2500
20
60.7500
30
0.0
0
VERTEX
5
14b8
8
Layer1
10
71.2500
20
61.7500
30
0.0
0
VERTEX
5
14b9
8
Layer1
10
57.2500
20
61.7500
30
0.0
0
VERTEX
5
14ba
8
Layer1
10
57.2500
20
60.7500
30
0.0
0
VERTEX
5
14bb
8
Layer1
10
56.4500
20
60.7500
30
0.0
0
VERTEX
5
14bc
8
Layer1
10
56.4500
20
48.7500
30
0.0
0
VERTEX
5
14bd
8
Layer1
10
57.2500
20
48.7500
30
0.0
0
VERTEX
5
14be
8
Layer1
10
57.2500
20
47.7500
30
0.0
0
VERTEX
5
14bf
8
Layer1
10
71.2500
20
47.7500
30
0.0
0
VERTEX
5
14c0
8
Layer1
10
71.2500
20
48.7500
30
0.0
0
SEQEND
5
14c1
8
Layer1
0
POLYLINE
5
14c2
8
Layer1
66
1
10
0.0
20
0.0
30
0.0
70
1
0
VERTEX
5
14c3
8
Layer1
10
90.2500
20
48.7500
30
0.0
0
VERTEX
5
14c4
8
Layer1
10
91.0500
20
48.7500
30
0.0
0
VERTEX
5
14c5
8
Layer1
10
91.0500
20
60.7500
30
0.0
0
VERTEX
5
14c6
8
Layer1
10
90.2500
20
60.7500
30
0.0
0
VERTEX
5
14c7
8
Layer1
10
90.2500
20
61.7500
30
0.0
0
VERTEX
5
14c8
8
Layer1
10
76.2500
20
61.7500
30
0.0
0
VERTEX
5
14c9
8
Layer1
10
76.2500
20
60.7500
30
0.0
0
VERTEX
5
14ca
8
Layer1
10
75.4500
20
60.7500
30
0.0
0
VERTEX
5
14cb
8
Layer1
10
75.4500
20
48.7500
30
0.0
0
VERTEX
5
14cc
8
Layer1
10
76.2500
20
48.7500
30
0.0
0
VERTEX
5
14cd
8
Layer1
10
76.2500
20
47.7500
30
0.0
0
VERTEX
5
14ce
8
Layer1
10
90.2500
20
47.7500
30
0.0
0
VERTEX
5
14cf
8
Layer1
10
90.2500
20
48.7500
30
0.0
0
SEQEND
5
14d0
8
Layer1
0
POLYLINE
5
14d1
8
Layer1
66
1
10
0.0
20
0.0
30
0.0
70
1
0
VERTEX
5
14d2
8
Layer1
10
109.2500
20
48.7500
30
0.0
0
VERTEX
5
14d3
8
Layer1
10
110.0500
20
48.7500
30
0.0
0
VERTEX
5
14d4
8
Layer1
10
110.0500
20
60.7500
30
0.0
0
VERTEX
5
14d5
8
Layer1
10
109.2500
20
60.7500
30
0.0
0
VERTEX
5
14d6
8
Layer1
10
109.2500
20
61.7500
30
0.0
0
VERTEX
5
14d7
8
Layer1
10
95.2500
20
61.7500
30
0.0
0
VERTEX
5
14d8
8
Layer1
10
95.2500
20
60.7500
30
0.0
0
VERTEX
5
14d9
8
Layer1
10
94.4500
20
60.7500
30
0.0
0
VERTEX
5
14da
8
Layer1
10
94.4500
20
48.7500
30
0.0
0
VERTEX
5
14db
8
Layer1
10
95.2500
20
48.7500
30
0.0
0
VERTEX
5
14dc
8
Layer1
10
95.2500
20
47.7500
30
0.0
0
VERTEX
5
14dd
8
Layer1
10
109.2500
20
47.7500
30
0.0
0
VERTEX
5
14de
8
Layer1
10
109.2500
20
48.7500
30
0.0
0
SEQEND
5
14df
8
Layer1
0
POLYLINE
5
14e0
8
Layer1
66
1
10
0.0
20
0.0
30
0.0
70
1
0
VERTEX
5
14e1
8
Layer1
10
128.2500
20
48.7500
30
0.0
0
VERTEX
5
14e2
8
Layer1
10
129.0500
20
48.7500
30
0.0
0
VERTEX
5
14e3
8
Layer1
10
129.0500
20
60.7500
30
0.0
0
VERTEX
5
14e4
8
Layer1
10
128.2500
20
60.7500
30
0.0
0
VERTEX
5
14e5
8
Layer1
10
128.2500
20
61.7500
30
0.0
0
VERTEX
5
14e6
8
Layer1
10
114.2500
20
61.7500
30
0.0
0
VERTEX
5
14e7
8
Layer1
10
114.2500
20
60.7500
30
0.0
0
VERTEX
5
14e8
8
Layer1
10
113.4500
20
60.7500
30
0.0
0
VERTEX
5
14e9
8
Layer1
10
113.4500
20
48.7500
30
0.0
0
VERTEX
5
14ea
8
Layer1
10
114.2500
20
48.7500
30
0.0
0
VERTEX
5
14eb
8
Layer1
10
114.2500
20
47.7500
30
0.0
0
VERTEX
5
14ec
8
Layer1
10
128.2500
20
47.7500
30
0.0
0
VERTEX
5
14ed
8
Layer1
10
128.2500
20
48.7500
30
0.0
0
SEQEND
5
14ee
8
Layer1
0
POLYLINE
5
14ef
8
Layer1
66
1
10
0.0
20
0.0
30
0.0
70
1
0
VERTEX
5
14f0
8
Layer1
10
147.2500
20
48.7500
30
0.0
0
VERTEX
5
14f1
8
Layer1
10
148.0500
20
48.7500
30
0.0
0
VERTEX
5
14f2
8
Layer1
10
148.0500
20
60.7500
30
0.0
0
VERTEX
5
14f3
8
Layer1
10
147.2500
20
60.7500
30
0.0
0
VERTEX
5
14f4
8
Layer1
10
147.2500
20
61.7500
30
0.0
0
VERTEX
5
14f5
8
Layer1
10
133.2500
20
61.7500
30
0.0
0
VERTEX
5
14f6
8
Layer1
10
133.2500
20
60.7500
30
0.0
0
VERTEX
5
14f7
8
Layer1
10
132.4500
20
60.7500
30
0.0
0
VERTEX
5
14f8
8
Layer1
10
132.4500
20
48.7500
30
0.0
0
VERTEX
5
14f9
8
Layer1
10
133.2500
20
48.7500
30
0.0
0
VERTEX
5
14fa
8
Layer1
10
133.2500
20
47.7500
30
0.0
0
VERTEX
5
14fb
8
Layer1
10
147.2500
20
47.7500
30
0.0
0
VERTEX
5
14fc
8
Layer1
10
147.2500
20
48.7500
30
0.0
0
SEQEND
5
14fd
8
Layer1
0
POLYLINE
5
14fe
8
Layer1
66
1
10
0.0
20
0.0
30
0.0
70
1
0
VERTEX
5
14ff
8
Layer1
10
166.2500
20
48.7500
30
0.0
0
VERTEX
5
1500
8
Layer1
10
167.0500
20
48.7500
30
0.0
0
VERTEX
5
1501
8
Layer1
10
167.0500
20
60.7500
30
0.0
0
VERTEX
5
1502
8
Layer1
10
166.2500
20
60.7500
30
0.0
0
VERTEX
5
1503
8
Layer1
10
166.2500
20
61.7500
30
0.0
0
VERTEX
5
1504
8
Layer1
10
152.2500
20
61.7500
30
0.0
0
VERTEX
5
1505
8
Layer1
10
152.2500
20
60.7500
30
0.0
0
VERTEX
5
1506
8
Layer1
10
151.4500
20
60.7500
30
0.0
0
VERTEX
5
1507
8
Layer1
10
151.4500
20
48.7500
30
0.0
0
VERTEX
5
1508
8
Layer1
10
152.2500
20
48.7500
30
0.0
0
VERTEX
5
1509
8
Layer1
10
152.2500
20
47.7500
30
0.0
0
VERTEX
5
150a
8
Layer1
10
166.2500
20
47.7500
30
0.0
0
VERTEX
5
150b
8
Layer1
10
166.2500
20
48.7500
30
0.0
0
SEQEND
5
150c
8
Layer1
0
POLYLINE
5
150d
8
Layer1
66
1
10
0.0
20
0.0
30
0.0
70
1
0
VERTEX
5
150e
8
Layer1
10
185.2500
20
48.7500
30
0.0
0
VERTEX
5
150f
8
Layer1
10
186.0500
20
48.7500
30
0.0
0
VERTEX
5
1510
8
Layer1
10
186.0500
20
60.7500
30
0.0
0
VERTEX
5
1511
8
Layer1
10
185.2500
20
60.7500
30
0.0
0
VERTEX
5
1512
8
Layer1
10
185.2500
20
61.7500
30
0.0
0
VERTEX
5
1513
8
Layer1
10
171.2500
20
61.7500
30
0.0
0
VERTEX
5
1514
8
Layer1
10
171.2500
20
60.7500
30
0.0
0
VERTEX
5
1515
8
Layer1
10
170.4500
20
60.7500
30
0.0
0
VERTEX
5
1516
8
Layer1
10
170.4500
20
48.7500
30
0.0
0
VERTEX
5
1517
8
Layer1
10
171.2500
20
48.7500
30
0.0
0
VERTEX
5
1518
8
Layer1
10
171.2500
20
47.7500
30
0.0
0
VERTEX
5
1519
8
Layer1
10
185.2500
20
47.7500
30
0.0
0
VERTEX
5
151a
8
Layer1
10
185.2500
20
48.7500
30
0.0
0
SEQEND
5
151b
8
Layer1
0
POLYLINE
5
151c
8
Layer1
66
1
10
0.0
20
0.0
30
0.0
70
1
0
VERTEX
5
151d
8
Layer1
10
204.2500
20
48.7500
30
0.0
0
VERTEX
5
151e
8
Layer1
10
205.0500
20
48.7500
30
0.0
0
VERTEX
5
151f
8
Layer1
10
205.0500
20
60.7500
30
0.0
0
VERTEX
5
1520
8
Layer1
10
204.2500
20
60.7500
30
0.0
0
VERTEX
5
1521
8
Layer1
10
204.2500
20
61.7500
30
0.0
0
VERTEX
5
1522
8
Layer1
10
190.2500
20
61.7500
30
0.0
0
VERTEX
5
1523
8
Layer1
10
190.2500
20
60.7500
30
0.0
0
VERTEX
5
1524
8
Layer1
10
189.4500
20
60.7500
30
0.0
0
VERTEX
5
1525
8
Layer1
10
189.4500
20
48.7500
30
0.0
0
VERTEX
5
1526
8
Layer1
10
190.2500
20
48.7500
30
0.0
0
VERTEX
5
1527
8
Layer1
10
190.2500
20
47.7500
30
0.0
0
VERTEX
5
1528
8
Layer1
10
204.2500
20
47.7500
30
0.0
0
VERTEX
5
1529
8
Layer1
10
204.2500
20
48.7500
30
0.0
0
SEQEND
5
152a
8
Layer1
0
POLYLINE
5
152b
8
Layer1
66
1
10
0.0
20
0.0
30
0.0
70
1
0
VERTEX
5
152c
8
Layer1
10
223.2500
20
48.7500
30
0.0
0
VERTEX
5
152d
8
Layer1
10
224.0500
20
48.7500
30
0.0
0
VERTEX
5
152e
8
Layer1
10
224.0500
20
60.7500
30
0.0
0
VERTEX
5
152f
8
Layer1
10
223.2500
20
60.7500
30
0.0
0
VERTEX
5
1530
8
Layer1
10
223.2500
20
61.7500
30
0.0
0
VERTEX
5
1531
8
Layer1
10
209.2500
20
61.7500
30
0.0
0
VERTEX
5
1532
8
Layer1
10
209.2500
20
60.7500
30
0.0
0
VERTEX
5
1533
8
Layer1
10
208.4500
20
60.7500
30
0.0
0
VERTEX
5
1534
8
Layer1
10
208.4500
20
48.7500
30
0.0
0
VERTEX
5
1535
8
Layer1
10
209.2500
20
48.7500
30
0.0
0
VERTEX
5
1536
8
Layer1
10
209.2500
20
47.7500
30
0.0
0
VERTEX
5
1537
8
Layer1
10
223.2500
20
47.7500
30
0.0
0
VERTEX
5
1538
8
Layer1
10
223.2500
20
48.7500
30
0.0
0
SEQEND
5
1539
8
Layer1
0
POLYLINE
5
153a
8
Layer1
66
1
10
0.0
20
0.0
30
0.0
70
1
0
VERTEX
5
153b
8
Layer1
10
242.2500
20
48.7500
30
0.0
0
VERTEX
5
153c
8
Layer1
10
243.0500
20
48.7500
30
0.0
0
VERTEX
5
153d
8
Layer1
10
243.0500
20
60.7500
30
0.0
0
VERTEX
5
153e
8
Layer1
10
242.2500
20
60.7500
30
0.0
0
VERTEX
5
153f
8
Layer1
10
242.2500
20
61.7500
30
0.0
0
VERTEX
5
1540
8
Layer1
10
228.2500
20
61.7500
30
0.0
0
VERTEX
5
1541
8
Layer1
10
228.2500
20
60.7500
30
0.0
0
VERTEX
5
1542
8
Layer1
10
227.4500
20
60.7500
30
0.0
0
VERTEX
5
1543
8
Layer1
10
227.4500
20
48.7500
30
0.0
0
VERTEX
5
1544
8
Layer1
10
228.2500
20
48.7500
30
0.0
0
VERTEX
5
1545
8
Layer1
10
228.2500
20
47.7500
30
0.0
0
VERTEX
5
1546
8
Layer1
10
242.2500
20
47.7500
30
0.0
0
VERTEX
5
1547
8
Layer1
10
242.2500
20
48.7500
30
0.0
0
SEQEND
5
1548
8
Layer1
0
POLYLINE
5
1549
8
Layer1
66
1
10
0.0
20
0.0
30
0.0
70
1
0
VERTEX
5
154a
8
Layer1
10
255.7250
20
47.9800
30
0.0
0
VERTEX
5
154b
8
Layer1
10
257.5500
20
47.9800
30
0.0
0
VERTEX
5
154c
8
Layer1
10
257.5500
20
48.7800
30
0.0
0
VERTEX
5
154d
8
Layer1
10
258.3250
20
48.7800
30
0.0
0
VERTEX
5
154e
8
Layer1
10
258.3250
20
48.7500
30
0.0
0
VERTEX
5
154f
8
Layer1
10
259.1250
20
48.7500
30
0.0
0
VERTEX
5
1550
8
Layer1
10
259.1250
20
47.7500
30
0.0
0
VERTEX
5
1551
8
Layer1
10
273.1250
20
47.7500
30
0.0
0
VERTEX
5
1552
8
Layer1
10
273.1250
20
48.7500
30
0.0
0
VERTEX
5
1553
8
Layer1
10
273.9250
20
48.7500
30
0.0
0
VERTEX
5
1554
8
Layer1
10
273.9250
20
48.7800
30
0.0
0
VERTEX
5
1555
8
Layer1
10
274.7000
20
48.7800
30
0.0
0
VERTEX
5
1556
8
Layer1
10
274.7000
20
47.9800
30
0.0
0
VERTEX
5
1557
8
Layer1
10
276.5250
20
47.9800
30
0.0
0
VERTEX
5
1558
8
Layer1
10
276.5250
20
46.7800
30
0.0
0
VERTEX
5
1559
8
Layer1
10
279.5250
20
46.7800
30
0.0
0
VERTEX
5
155a
8
Layer1
10
279.5250
20
47.9800
30
0.0
0
VERTEX
5
155b
8
Layer1
10
281.3500
20
47.9800
30
0.0
0
VERTEX
5
155c
8
Layer1
10
281.3500
20
54.2500
30
0.0
0
VERTEX
5
155d
8
Layer1
10
282.2250
20
54.2500
30
0.0
0
VERTEX
5
155e
8
Layer1
10
282.2250
20
57.0500
30
0.0
0
VERTEX
5
155f
8
Layer1
10
281.3500
20
57.0500
30
0.0
0
VERTEX
5
1560
8
Layer1
10
281.3500
20
60.2800
30
0.0
0
VERTEX
5
1561
8
Layer1
10
274.7000
20
60.2800
30
0.0
0
VERTEX
5
1562
8
Layer1
10
274.7000
20
59.4800
30
0.0
0
VERTEX
5
1563
8
Layer1
10
273.9250
20
59.4800
30
0.0
0
VERTEX
5
1564
8
Layer1
10
273.9250
20
60.7500
30
0.0
0
VERTEX
5
1565
8
Layer1
10
273.1250
20
60.7500
30
0.0
0
VERTEX
5
1566
8
Layer1
10
273.1250
20
61.7500
30
0.0
0
VERTEX
5
1567
8
Layer1
10
259.1250
20
61.7500
30
0.0
0
VERTEX
5
1568
8
Layer1
10
259.1250
20
60.7500
30
0.0
0
VERTEX
5
1569
8
Layer1
10
258.3250
20
60.7500
30
0.0
0
VERTEX
5
156a
8
Layer1
10
258.3250
20
59.4800
30
0.0
0
VERTEX
5
156b
8
Layer1
10
257.5500
20
59.4800
30
0.0
0
VERTEX
5
156c
8
Layer1
10
257.5500
20
60.2800
30
0.0
0
VERTEX
5
156d
8
Layer1
10
250.9000
20
60.2800
30
0.0
0
VERTEX
5
156e
8
Layer1
10
250.9000
20
57.0500
30
0.0
0
VERTEX
5
156f
8
Layer1
10
250.0250
20
57.0500
30
0.0
0
VERTEX
5
1570
8
Layer1
10
250.0250
20
54.2500
30
0.0
0
VERTEX
5
1571
8
Layer1
10
250.9000
20
54.2500
30
0.0
0
VERTEX
5
1572
8
Layer1
10
250.9000
20
47.9800
30
0.0
0
VERTEX
5
1573
8
Layer1
10
252.7250
20
47.9800
30
0.0
0
VERTEX
5
1574
8
Layer1
10
252.7250
20
46.7800
30
0.0
0
VERTEX
5
1575
8
Layer1
10
255.7250
20
46.7800
30
0.0
0
VERTEX
5
1576
8
Layer1
10
255.7250
20
47.9800
30
0.0
0
SEQEND
5
1577
8
Layer1
0
POLYLINE
5
1578
8
Layer1
66
1
10
0.0
20
0.0
30
0.0
70
1
0
VERTEX
5
1579
8
Layer1
10
13.4750
20
28.9800
30
0.0
0
VERTEX
5
157a
8
Layer1
10
15.3000
20
28.9800
30
0.0
0
VERTEX
5
157b
8
Layer1
10
15.3000
20
29.7800
30
0.0
0
VERTEX
5
157c
8
Layer1
10
16.0750
20
29.7800
30
0.0
0
VERTEX
5
157d
8
Layer1
10
16.0750
20
29.7500
30
0.0
0
VERTEX
5
157e
8
Layer1
10
16.8750
20
29.7500
30
0.0
0
VERTEX
5
157f
8
Layer1
10
16.8750
20
28.7500
30
0.0
0
VERTEX
5
1580
8
Layer1
10
30.8750
20
28.7500
30
0.0
0
VERTEX
5
1581
8
Layer1
10
30.8750
20
29.7500
30
0.0
0
VERTEX
5
1582
8
Layer1
10
31.6750
20
29.7500
30
0.0
0
VERTEX
5
1583
8
Layer1
10
31.6750
20
29.7800
30
0.0
0
VERTEX
5
1584
8
Layer1
10
32.4500
20
29.7800
30
0.0
0
VERTEX
5
1585
8
Layer1
10
32.4500
20
28.9800
30
0.0
0
VERTEX
5
1586
8
Layer1
10
34.2750
20
28.9800
30
0.0
0
VERTEX
5
1587
8
Layer1
10
34.2750
20
27.7800
30
0.0
0
VERTEX
5
1588
8
Layer1
10
37.2750
20
27.7800
30
0.0
0
VERTEX
5
1589
8
Layer1
10
37.2750
20
28.9800
30
0.0
0
VERTEX
5
158a
8
Layer1
10
39.1000
20
28.9800
30
0.0
0
VERTEX
5
158b
8
Layer1
10
39.1000
20
35.2500
30
0.0
0
VERTEX
5
158c
8
Layer1
10
39.9750
20
35.2500
30
0.0
0
VERTEX
5
158d
8
Layer1
10
39.9750
20
38.0500
30
0.0
0
VERTEX
5
158e
8
Layer1
10
39.1000
20
38.0500
30
0.0
0
VERTEX
5
158f
8
Layer1
10
39.1000
20
41.2800
30
0.0
0
VERTEX
5
1590
8
Layer1
10
32.4500
20
41.2800
30
0.0
0
VERTEX
5
1591
8
Layer1
10
32.4500
20
40.4800
30
0.0
0
VERTEX
5
1592
8
Layer1
10
31.6750
20
40.4800
30
0.0
0
VERTEX
5
1593
8
Layer1
10
31.6750
20
41.7500
30
0.0
0
VERTEX
5
1594
8
Layer1
10
30.8750
20
41.7500
30
0.0
0
VERTEX
5
1595
8
Layer1
10
30.8750
20
42.7500
30
0.0
0
VERTEX
5
1596
8
Layer1
10
16.8750
20
42.7500
30
0.0
0
VERTEX
5
1597
8
Layer1
10
16.8750
20
41.7500
30
0.0
0
VERTEX
5
1598
8
Layer1
10
16.0750
20
41.7500
30
0.0
0
VERTEX
5
1599
8
Layer1
10
16.0750
20
40.4800
30
0.0
0
VERTEX
5
159a
8
Layer1
10
15.3000
20
40.4800
30
0.0
0
VERTEX
5
159b
8
Layer1
10
15.3000
20
41.2800
30
0.0
0
VERTEX
5
159c
8
Layer1
10
8.6500
20
41.2800
30
0.0
0
VERTEX
5
159d
8
Layer1
10
8.6500
20
38.0500
30
0.0
0
VERTEX
5
159e
8
Layer1
10
7.7750
20
38.0500
30
0.0
0
VERTEX
5
159f
8
Layer1
10
7.7750
20
35.2500
30
0.0
0
VERTEX
5
15a0
8
Layer1
10
8.6500
20
35.2500
30
0.0
0
VERTEX
5
15a1
8
Layer1
10
8.6500
20
28.9800
30
0.0
0
VERTEX
5
15a2
8
Layer1
10
10.4750
20
28.9800
30
0.0
0
VERTEX
5
15a3
8
Layer1
10
10.4750
20
27.7800
30
0.0
0
VERTEX
5
15a4
8
Layer1
10
13.4750
20
27.7800
30
0.0
0
VERTEX
5
15a5
8
Layer1
10
13.4750
20
28.9800
30
0.0
0
SEQEND
5
15a6
8
Layer1
0
POLYLINE
5
15a7
8
Layer1
66
1
10
0.0
20
0.0
30
0.0
70
1
0
VERTEX
5
15a8
8
Layer1
10
61.7500
20
29.7500
30
0.0
0
VERTEX
5
15a9
8
Layer1
10
62.5500
20
29.7500
30
0.0
0
VERTEX
5
15aa
8
Layer1
10
62.5500
20
41.7500
30
0.0
0
VERTEX
5
15ab
8
Layer1
10
61.7500
20
41.7500
30
0.0
0
VERTEX
5
15ac
8
Layer1
10
61.7500
20
42.7500
30
0.0
0
VERTEX
5
15ad
8
Layer1
10
47.7500
20
42.7500
30
0.0
0
VERTEX
5
15ae
8
Layer1
10
47.7500
20
41.7500
30
0.0
0
VERTEX
5
15af
8
Layer1
10
46.9500
20
41.7500
30
0.0
0
VERTEX
5
15b0
8
Layer1
10
46.9500
20
29.7500
30
0.0
0
VERTEX
5
15b1
8
Layer1
10
47.7500
20
29.7500
30
0.0
0
VERTEX
5
15b2
8
Layer1
10
47.7500
20
28.7500
30
0.0
0
VERTEX
5
15b3
8
Layer1
10
61.7500
20
28.7500
30
0.0
0
VERTEX
5
15b4
8
Layer1
10
61.7500
20
29.7500
30
0.0
0
SEQEND
5
15b5
8
Layer1
0
POLYLINE
5
15b6
8
Layer1
66
1
10
0.0
20
0.0
30
0.0
70
1
0
VERTEX
5
15b7
8
Layer1
10
80.7500
20
29.7500
30
0.0
0
VERTEX
5
15b8
8
Layer1
10
81.5500
20
29.7500
30
0.0
0
VERTEX
5
15b9
8
Layer1
10
81.5500
20
41.7500
30
0.0
0
VERTEX
5
15ba
8
Layer1
10
80.7500
20
41.7500
30
0.0
0
VERTEX
5
15bb
8
Layer1
10
80.7500
20
42.7500
30
0.0
0
VERTEX
5
15bc
8
Layer1
10
66.7500
20
42.7500
30
0.0
0
VERTEX
5
15bd
8
Layer1
10
66.7500
20
41.7500
30
0.0
0
VERTEX
5
15be
8
Layer1
10
65.9500
20
41.7500
30
0.0
0
VERTEX
5
15bf
8
Layer1
10
65.9500
20
29.7500
30
0.0
0
VERTEX
5
15c0
8
Layer1
10
66.7500
20
29.7500
30
0.0
0
VERTEX
5
15c1
8
Layer1
10
66.7500
20
28.7500
30
0.0
0
VERTEX
5
15c2
8
Layer1
10
80.7500
20
28.7500
30
0.0
0
VERTEX
5
15c3
8
Layer1
10
80.7500
20
29.7500
30
0.0
0
SEQEND
5
15c4
8
Layer1
0
POLYLINE
5
15c5
8
Layer1
66
1
10
0.0
20
0.0
30
0.0
70
1
0
VERTEX
5
15c6
8
Layer1
10
99.7500
20
29.7500
30
0.0
0
VERTEX
5
15c7
8
Layer1
10
100.5500
20
29.7500
30
0.0
0
VERTEX
5
15c8
8
Layer1
10
100.5500
20
41.7500
30
0.0
0
VERTEX
5
15c9
8
Layer1
10
99.7500
20
41.7500
30
0.0
0
VERTEX
5
15ca
8
Layer1
10
99.7500
20
42.7500
30
0.0
0
VERTEX
5
15cb
8
Layer1
10
85.7500
20
42.7500
30
0.0
0
VERTEX
5
15cc
8
Layer1
10
85.7500
20
41.7500
30
0.0
0
VERTEX
5
15cd
8
Layer1
10
84.9500
20
41.7500
30
0.0
0
VERTEX
5
15ce
8
Layer1
10
84.9500
20
29.7500
30
0.0
0
VERTEX
5
15cf
8
Layer1
10
85.7500
20
29.7500
30
0.0
0
VERTEX
5
15d0
8
Layer1
10
85.7500
20
28.7500
30
0.0
0
VERTEX
5
15d1
8
Layer1
10
99.7500
20
28.7500
30
0.0
0
VERTEX
5
15d2
8
Layer1
10
99.7500
20
29.7500
30
0.0
0
SEQEND
5
15d3
8
Layer1
0
POLYLINE
5
15d4
8
Layer1
66
1
10
0.0
20
0.0
30
0.0
70
1
0
VERTEX
5
15d5
8
Layer1
10
118.7500
20
29.7500
30
0.0
0
VERTEX
5
15d6
8
Layer1
10
119.5500
20
29.7500
30
0.0
0
VERTEX
5
15d7
8
Layer1
10
119.5500
20
41.7500
30
0.0
0
VERTEX
5
15d8
8
Layer1
10
118.7500
20
41.7500
30
0.0
0
VERTEX
5
15d9
8
Layer1
10
118.7500
20
42.7500
30
0.0
0
VERTEX
5
15da
8
Layer1
10
104.7500
20
42.7500
30
0.0
0
VERTEX
5
15db
8
Layer1
10
104.7500
20
41.7500
30
0.0
0
VERTEX
5
15dc
8
Layer1
10
103.9500
20
41.7500
30
0.0
0
VERTEX
5
15dd
8
Layer1
10
103.9500
20
29.7500
30
0.0
0
VERTEX
5
15de
8
Layer1
10
104.7500
20
29.7500
30
0.0
0
VERTEX
5
15df
8
Layer1
10
104.7500
20
28.7500
30
0.0
0
VERTEX
5
15e0
8
Layer1
10
118.7500
20
28.7500
30
0.0
0
VERTEX
5
15e1
8
Layer1
10
118.7500
20
29.7500
30
0.0
0
SEQEND
5
15e2
8
Layer1
0
POLYLINE
5
15e3
8
Layer1
66
1
10
0.0
20
0.0
30
0.0
70
1
0
VERTEX
5
15e4
8
Layer1
10
137.7500
20
29.7500
30
0.0
0
VERTEX
5
15e5
8
Layer1
10
138.5500
20
29.7500
30
0.0
0
VERTEX
5
15e6
8
Layer1
10
138.5500
20
41.7500
30
0.0
0
VERTEX
5
15e7
8
Layer1
10
137.7500
20
41.7500
30
0.0
0
VERTEX
5
15e8
8
Layer1
10
137.7500
20
42.7500
30
0.0
0
VERTEX
5
15e9
8
Layer1
10
123.7500
20
42.7500
30
0.0
0
VERTEX
5
15ea
8
Layer1
10
123.7500
20
41.7500
30
0.0
0
VERTEX
5
15eb
8
Layer1
10
122.9500
20
41.7500
30
0.0
0
VERTEX
5
15ec
8
Layer1
10
122.9500
20
29.7500
30
0.0
0
VERTEX
5
15ed
8
Layer1
10
123.7500
20
29.7500
30
0.0
0
VERTEX
5
15ee
8
Layer1
10
123.7500
20
28.7500
30
0.0
0
VERTEX
5
15ef
8
Layer1
10
137.7500
20
28.7500
30
0.0
0
VERTEX
5
15f0
8
Layer1
10
137.7500
20
29.7500
30
0.0
0
SEQEND
5
15f1
8
Layer1
0
POLYLINE
5
15f2
8
Layer1
66
1
10
0.0
20
0.0
30
0.0
70
1
0
VERTEX
5
15f3
8
Layer1
10
156.7500
20
29.7500
30
0.0
0
VERTEX
5
15f4
8
Layer1
10
157.5500
20
29.7500
30
0.0
0
VERTEX
5
15f5
8
Layer1
10
157.5500
20
41.7500
30
0.0
0
VERTEX
5
15f6
8
Layer1
10
156.7500
20
41.7500
30
0.0
0
VERTEX
5
15f7
8
Layer1
10
156.7500
20
42.7500
30
0.0
0
VERTEX
5
15f8
8
Layer1
10
142.7500
20
42.7500
30
0.0
0
VERTEX
5
15f9
8
Layer1
10
142.7500
20
41.7500
30
0.0
0
VERTEX
5
15fa
8
Layer1
10
141.9500
20
41.7500
30
0.0
0
VERTEX
5
15fb
8
Layer1
10
141.9500
20
29.7500
30
0.0
0
VERTEX
5
15fc
8
Layer1
10
142.7500
20
29.7500
30
0.0
0
VERTEX
5
15fd
8
Layer1
10
142.7500
20
28.7500
30
0.0
0
VERTEX
5
15fe
8
Layer1
10
156.7500
20
28.7500
30
0.0
0
VERTEX
5
15ff
8
Layer1
10
156.7500
20
29.7500
30
0.0
0
SEQEND
5
1600
8
Layer1
0
POLYLINE
5
1601
8
Layer1
66
1
10
0.0
20
0.0
30
0.0
70
1
0
VERTEX
5
1602
8
Layer1
10
175.7500
20
29.7500
30
0.0
0
VERTEX
5
1603
8
Layer1
10
176.5500
20
29.7500
30
0.0
0
VERTEX
5
1604
8
Layer1
10
176.5500
20
41.7500
30
0.0
0
VERTEX
5
1605
8
Layer1
10
175.7500
20
41.7500
30
0.0
0
VERTEX
5
1606
8
Layer1
10
175.7500
20
42.7500
30
0.0
0
VERTEX
5
1607
8
Layer1
10
161.7500
20
42.7500
30
0.0
0
VERTEX
5
1608
8
Layer1
10
161.7500
20
41.7500
30
0.0
0
VERTEX
5
1609
8
Layer1
10
160.9500
20
41.7500
30
0.0
0
VERTEX
5
160a
8
Layer1
10
160.9500
20
29.7500
30
0.0
0
VERTEX
5
160b
8
Layer1
10
161.7500
20
29.7500
30
0.0
0
VERTEX
5
160c
8
Layer1
10
161.7500
20
28.7500
30
0.0
0
VERTEX
5
160d
8
Layer1
10
175.7500
20
28.7500
30
0.0
0
VERTEX
5
160e
8
Layer1
10
175.7500
20
29.7500
30
0.0
0
SEQEND
5
160f
8
Layer1
0
POLYLINE
5
1610
8
Layer1
66
1
10
0.0
20
0.0
30
0.0
70
1
0
VERTEX
5
1611
8
Layer1
10
194.7500
20
29.7500
30
0.0
0
VERTEX
5
1612
8
Layer1
10
195.5500
20
29.7500
30
0.0
0
VERTEX
5
1613
8
Layer1
10
195.5500
20
41.7500
30
0.0
0
VERTEX
5
1614
8
Layer1
10
194.7500
20
41.7500
30
0.0
0
VERTEX
5
1615
8
Layer1
10
194.7500
20
42.7500
30
0.0
0
VERTEX
5
1616
8
Layer1
10
180.7500
20
42.7500
30
0.0
0
VERTEX
5
1617
8
Layer1
10
180.7500
20
41.7500
30
0.0
0
VERTEX
5
1618
8
Layer1
10
179.9500
20
41.7500
30
0.0
0
VERTEX
5
1619
8
Layer1
10
179.9500
20
29.7500
30
0.0
0
VERTEX
5
161a
8
Layer1
10
180.7500
20
29.7500
30
0.0
0
VERTEX
5
161b
8
Layer1
10
180.7500
20
28.7500
30
0.0
0
VERTEX
5
161c
8
Layer1
10
194.7500
20
28.7500
30
0.0
0
VERTEX
5
161d
8
Layer1
10
194.7500
20
29.7500
30
0.0
0
SEQEND
5
161e
8
Layer1
0
POLYLINE
5
161f
8
Layer1
66
1
10
0.0
20
0.0
30
0.0
70
1
0
VERTEX
5
1620
8
Layer1
10
213.7500
20
29.7500
30
0.0
0
VERTEX
5
1621
8
Layer1
10
214.5500
20
29.7500
30
0.0
0
VERTEX
5
1622
8
Layer1
10
214.5500
20
41.7500
30
0.0
0
VERTEX
5
1623
8
Layer1
10
213.7500
20
41.7500
30
0.0
0
VERTEX
5
1624
8
Layer1
10
213.7500
20
42.7500
30
0.0
0
VERTEX
5
1625
8
Layer1
10
199.7500
20
42.7500
30
0.0
0
VERTEX
5
1626
8
Layer1
10
199.7500
20
41.7500
30
0.0
0
VERTEX
5
1627
8
Layer1
10
198.9500
20
41.7500
30
0.0
0
VERTEX
5
1628
8
Layer1
10
198.9500
20
29.7500
30
0.0
0
VERTEX
5
1629
8
Layer1
10
199.7500
20
29.7500
30
0.0
0
VERTEX
5
162a
8
Layer1
10
199.7500
20
28.7500
30
0.0
0
VERTEX
5
162b
8
Layer1
10
213.7500
20
28.7500
30
0.0
0
VERTEX
5
162c
8
Layer1
10
213.7500
20
29.7500
30
0.0
0
SEQEND
5
162d
8
Layer1
0
POLYLINE
5
162e
8
Layer1
66
1
10
0.0
20
0.0
30
0.0
70
1
0
VERTEX
5
162f
8
Layer1
10
232.7500
20
29.7500
30
0.0
0
VERTEX
5
1630
8
Layer1
10
233.5500
20
29.7500
30
0.0
0
VERTEX
5
1631
8
Layer1
10
233.5500
20
41.7500
30
0.0
0
VERTEX
5
1632
8
Layer1
10
232.7500
20
41.7500
30
0.0
0
VERTEX
5
1633
8
Layer1
10
232.7500
20
42.7500
30
0.0
0
VERTEX
5
1634
8
Layer1
10
218.7500
20
42.7500
30
0.0
0
VERTEX
5
1635
8
Layer1
10
218.7500
20
41.7500
30
0.0
0
VERTEX
5
1636
8
Layer1
10
217.9500
20
41.7500
30
0.0
0
VERTEX
5
1637
8
Layer1
10
217.9500
20
29.7500
30
0.0
0
VERTEX
5
1638
8
Layer1
10
218.7500
20
29.7500
30
0.0
0
VERTEX
5
1639
8
Layer1
10
218.7500
20
28.7500
30
0.0
0
VERTEX
5
163a
8
Layer1
10
232.7500
20
28.7500
30
0.0
0
VERTEX
5
163b
8
Layer1
10
232.7500
20
29.7500
30
0.0
0
SEQEND
5
163c
8
Layer1
0
POLYLINE
5
163d
8
Layer1
66
1
10
0.0
20
0.0
30
0.0
70
1
0
VERTEX
5
163e
8
Layer1
10
258.8750
20
29.7500
30
0.0
0
VERTEX
5
163f
8
Layer1
10
259.6750
20
29.7500
30
0.0
0
VERTEX
5
1640
8
Layer1
10
259.6750
20
41.7500
30
0.0
0
VERTEX
5
1641
8
Layer1
10
258.8750
20
41.7500
30
0.0
0
VERTEX
5
1642
8
Layer1
10
258.8750
20
42.7500
30
0.0
0
VERTEX
5
1643
8
Layer1
10
244.8750
20
42.7500
30
0.0
0
VERTEX
5
1644
8
Layer1
10
244.8750
20
41.7500
30
0.0
0
VERTEX
5
1645
8
Layer1
10
244.0750
20
41.7500
30
0.0
0
VERTEX
5
1646
8
Layer1
10
244.0750
20
29.7500
30
0.0
0
VERTEX
5
1647
8
Layer1
10
244.8750
20
29.7500
30
0.0
0
VERTEX
5
1648
8
Layer1
10
244.8750
20
28.7500
30
0.0
0
VERTEX
5
1649
8
Layer1
10
258.8750
20
28.7500
30
0.0
0
VERTEX
5
164a
8
Layer1
10
258.8750
20
29.7500
30
0.0
0
SEQEND
5
164b
8
Layer1
0
POLYLINE
5
164c
8
Layer1
66
1
10
0.0
20
0.0
30
0.0
70
1
0
VERTEX
5
164d
8
Layer1
10
289.7500
20
25.0000
30
0.0
0
VERTEX
5
164e
8
Layer1
10
290.5500
20
25.0000
30
0.0
0
VERTEX
5
164f
8
Layer1
10
290.5500
20
37.0000
30
0.0
0
VERTEX
5
1650
8
Layer1
10
289.7500
20
37.0000
30
0.0
0
VERTEX
5
1651
8
Layer1
10
289.7500
20
38.0000
30
0.0
0
VERTEX
5
1652
8
Layer1
10
275.7500
20
38.0000
30
0.0
0
VERTEX
5
1653
8
Layer1
10
275.7500
20
37.0000
30
0.0
0
VERTEX
5
1654
8
Layer1
10
274.9500
20
37.0000
30
0.0
0
VERTEX
5
1655
8
Layer1
10
274.9500
20
25.0000
30
0.0
0
VERTEX
5
1656
8
Layer1
10
275.7500
20
25.0000
30
0.0
0
VERTEX
5
1657
8
Layer1
10
275.7500
20
24.0000
30
0.0
0
VERTEX
5
1658
8
Layer1
10
289.7500
20
24.0000
30
0.0
0
VERTEX
5
1659
8
Layer1
10
289.7500
20
25.0000
30
0.0
0
SEQEND
5
165a
8
Layer1
0
POLYLINE
5
165b
8
Layer1
66
1
10
0.0
20
0.0
30
0.0
70
1
0
VERTEX
5
165c
8
Layer1
10
19.0000
20
10.7500
30
0.0
0
VERTEX
5
165d
8
Layer1
10
19.8000
20
10.7500
30
0.0
0
VERTEX
5
165e
8
Layer1
10
19.8000
20
22.7500
30
0.0
0
VERTEX
5
165f
8
Layer1
10
19.0000
20
22.7500
30
0.0
0
VERTEX
5
1660
8
Layer1
10
19.0000
20
23.7500
30
0.0
0
VERTEX
5
1661
8
Layer1
10
5.0000
20
23.7500
30
0.0
0
VERTEX
5
1662
8
Layer1
10
5.0000
20
22.7500
30
0.0
0
VERTEX
5
1663
8
Layer1
10
4.2000
20
22.7500
30
0.0
0
VERTEX
5
1664
8
Layer1
10
4.2000
20
10.7500
30
0.0
0
VERTEX
5
1665
8
Layer1
10
5.0000
20
10.7500
30
0.0
0
VERTEX
5
1666
8
Layer1
10
5.0000
20
9.7500
30
0.0
0
VERTEX
5
1667
8
Layer1
10
19.0000
20
9.7500
30
0.0
0
VERTEX
5
1668
8
Layer1
10
19.0000
20
10.7500
30
0.0
0
SEQEND
5
1669
8
Layer1
0
POLYLINE
5
166a
8
Layer1
66
1
10
0.0
20
0.0
30
0.0
70
1
0
VERTEX
5
166b
8
Layer1
10
38.0000
20
10.7500
30
0.0
0
VERTEX
5
166c
8
Layer1
10
38.8000
20
10.7500
30
0.0
0
VERTEX
5
166d
8
Layer1
10
38.8000
20
22.7500
30
0.0
0
VERTEX
5
166e
8
Layer1
10
38.0000
20
22.7500
30
0.0
0
VERTEX
5
166f
8
Layer1
10
38.0000
20
23.7500
30
0.0
0
VERTEX
5
1670
8
Layer1
10
24.0000
20
23.7500
30
0.0
0
VERTEX
5
1671
8
Layer1
10
24.0000
20
22.7500
30
0.0
0
VERTEX
5
1672
8
Layer1
10
23.2000
20
22.7500
30
0.0
0
VERTEX
5
1673
8
Layer1
10
23.2000
20
10.7500
30
0.0
0
VERTEX
5
1674
8
Layer1
10
24.0000
20
10.7500
30
0.0
0
VERTEX
5
1675
8
Layer1
10
24.0000
20
9.7500
30
0.0
0
VERTEX
5
1676
8
Layer1
10
38.0000
20
9.7500
30
0.0
0
VERTEX
5
1677
8
Layer1
10
38.0000
20
10.7500
30
0.0
0
SEQEND
5
1678
8
Layer1
0
POLYLINE
5
1679
8
Layer1
66
1
10
0.0
20
0.0
30
0.0
70
1
0
VERTEX
5
167a
8
Layer1
10
57.0000
20
10.7500
30
0.0
0
VERTEX
5
167b
8
Layer1
10
57.8000
20
10.7500
30
0.0
0
VERTEX
5
167c
8
Layer1
10
57.8000
20
22.7500
30
0.0
0
VERTEX
5
167d
8
Layer1
10
57.0000
20
22.7500
30
0.0
0
VERTEX
5
167e
8
Layer1
10
57.0000
20
23.7500
30
0.0
0
VERTEX
5
167f
8
Layer1
10
43.0000
20
23.7500
30
0.0
0
VERTEX
5
1680
8
Layer1
10
43.0000
20
22.7500
30
0.0
0
VERTEX
5
1681
8
Layer1
10
42.2000
20
22.7500
30
0.0
0
VERTEX
5
1682
8
Layer1
10
42.2000
20
10.7500
30
0.0
0
VERTEX
5
1683
8
Layer1
10
43.0000
20
10.7500
30
0.0
0
VERTEX
5
1684
8
Layer1
10
43.0000
20
9.7500
30
0.0
0
VERTEX
5
1685
8
Layer1
10
57.0000
20
9.7500
30
0.0
0
VERTEX
5
1686
8
Layer1
10
57.0000
20
10.7500
30
0.0
0
SEQEND
5
1687
8
Layer1
0
POLYLINE
5
1688
8
Layer1
66
1
10
0.0
20
0.0
30
0.0
70
1
0
VERTEX
5
1689
8
Layer1
10
78.3750
20
10.7500
30
0.0
0
VERTEX
5
168a
8
Layer1
10
79.1750
20
10.7500
30
0.0
0
VERTEX
5
168b
8
Layer1
10
79.1750
20
22.7500
30
0.0
0
VERTEX
5
168c
8
Layer1
10
78.3750
20
22.7500
30
0.0
0
VERTEX
5
168d
8
Layer1
10
78.3750
20
23.7500
30
0.0
0
VERTEX
5
168e
8
Layer1
10
64.3750
20
23.7500
30
0.0
0
VERTEX
5
168f
8
Layer1
10
64.3750
20
22.7500
30
0.0
0
VERTEX
5
1690
8
Layer1
10
63.5750
20
22.7500
30
0.0
0
VERTEX
5
1691
8
Layer1
10
63.5750
20
10.7500
30
0.0
0
VERTEX
5
1692
8
Layer1
10
64.3750
20
10.7500
30
0.0
0
VERTEX
5
1693
8
Layer1
10
64.3750
20
9.7500
30
0.0
0
VERTEX
5
1694
8
Layer1
10
78.3750
20
9.7500
30
0.0
0
VERTEX
5
1695
8
Layer1
10
78.3750
20
10.7500
30
0.0
0
SEQEND
5
1696
8
Layer1
0
POLYLINE
5
1697
8
Layer1
66
1
10
0.0
20
0.0
30
0.0
70
1
0
VERTEX
5
1698
8
Layer1
10
94.1250
20
9.9800
30
0.0
0
VERTEX
5
1699
8
Layer1
10
95.9500
20
9.9800
30
0.0
0
VERTEX
5
169a
8
Layer1
10
95.9500
20
14.4500
30
0.0
0
VERTEX
5
169b
8
Layer1
10
134.8250
20
14.4500
30
0.0
0
VERTEX
5
169c
8
Layer1
10
134.8250
20
10.7500
30
0.0
0
VERTEX
5
169d
8
Layer1
10
135.6250
20
10.7500
30
0.0
0
VERTEX
5
169e
8
Layer1
10
135.6250
20
9.7500
30
0.0
0
VERTEX
5
169f
8
Layer1
10
149.6250
20
9.7500
30
0.0
0
VERTEX
5
16a0
8
Layer1
10
149.6250
20
10.7500
30
0.0
0
VERTEX
5
16a1
8
Layer1
10
150.4250
20
10.7500
30
0.0
0
VERTEX
5
16a2
8
Layer1
10
150.4250
20
14.4500
30
0.0
0
VERTEX
5
16a3
8
Layer1
10
189.3000
20
14.4500
30
0.0
0
VERTEX
5
16a4
8
Layer1
10
189.3000
20
9.9800
30
0.0
0
VERTEX
5
16a5
8
Layer1
10
191.1250
20
9.9800
30
0.0
0
VERTEX
5
16a6
8
Layer1
10
191.1250
20
8.7800
30
0.0
0
VERTEX
5
16a7
8
Layer1
10
194.1250
20
8.7800
30
0.0
0
VERTEX
5
16a8
8
Layer1
10
194.1250
20
9.9800
30
0.0
0
VERTEX
5
16a9
8
Layer1
10
195.9500
20
9.9800
30
0.0
0
VERTEX
5
16aa
8
Layer1
10
195.9500
20
16.2500
30
0.0
0
VERTEX
5
16ab
8
Layer1
10
196.8500
20
16.2500
30
0.0
0
VERTEX
5
16ac
8
Layer1
10
196.8500
20
19.0500
30
0.0
0
VERTEX
5
16ad
8
Layer1
10
195.9500
20
19.0500
30
0.0
0
VERTEX
5
16ae
8
Layer1
10
195.9500
20
22.2800
30
0.0
0
VERTEX
5
16af
8
Layer1
10
189.3000
20
22.2800
30
0.0
0
VERTEX
5
16b0
8
Layer1
10
189.3000
20
19.0500
30
0.0
0
VERTEX
5
16b1
8
Layer1
10
150.4250
20
19.0500
30
0.0
0
VERTEX
5
16b2
8
Layer1
10
150.4250
20
22.7500
30
0.0
0
VERTEX
5
16b3
8
Layer1
10
149.6250
20
22.7500
30
0.0
0
VERTEX
5
16b4
8
Layer1
10
149.6250
20
23.7500
30
0.0
0
VERTEX
5
16b5
8
Layer1
10
135.6250
20
23.7500
30
0.0
0
VERTEX
5
16b6
8
Layer1
10
135.6250
20
22.7500
30
0.0
0
VERTEX
5
16b7
8
Layer1
10
134.8250
20
22.7500
30
0.0
0
VERTEX
5
16b8
8
Layer1
10
134.8250
20
19.0500
30
0.0
0
VERTEX
5
16b9
8
Layer1
10
95.9500
20
19.0500
30
0.0
0
VERTEX
5
16ba
8
Layer1
10
95.9500
20
22.2800
30
0.0
0
VERTEX
5
16bb
8
Layer1
10
89.3000
20
22.2800
30
0.0
0
VERTEX
5
16bc
8
Layer1
10
89.3000
20
19.0500
30
0.0
0
VERTEX
5
16bd
8
Layer1
10
88.4000
20
19.0500
30
0.0
0
VERTEX
5
16be
8
Layer1
10
88.4000
20
16.2500
30
0.0
0
VERTEX
5
16bf
8
Layer1
10
89.3000
20
16.2500
30
0.0
0
VERTEX
5
16c0
8
Layer1
10
89.3000
20
9.9800
30
0.0
0
VERTEX
5
16c1
8
Layer1
10
91.1250
20
9.9800
30
0.0
0
VERTEX
5
16c2
8
Layer1
10
91.1250
20
8.7800
30
0.0
0
VERTEX
5
16c3
8
Layer1
10
94.1250
20
8.7800
30
0.0
0
VERTEX
5
16c4
8
Layer1
10
94.1250
20
9.9800
30
0.0
0
SEQEND
5
16c5
8
Layer1
0
POLYLINE
5
16c6
8
Layer1
66
1
10
0.0
20
0.0
30
0.0
70
1
0
VERTEX
5
16c7
8
Layer1
10
220.8750
20
10.7500
30
0.0
0
VERTEX
5
16c8
8
Layer1
10
221.6750
20
10.7500
30
0.0
0
VERTEX
5
16c9
8
Layer1
10
221.6750
20
22.7500
30
0.0
0
VERTEX
5
16ca
8
Layer1
10
220.8750
20
22.7500
30
0.0
0
VERTEX
5
16cb
8
Layer1
10
220.8750
20
23.7500
30
0.0
0
VERTEX
5
16cc
8
Layer1
10
206.8750
20
23.7500
30
0.0
0
VERTEX
5
16cd
8
Layer1
10
206.8750
20
22.7500
30
0.0
0
VERTEX
5
16ce
8
Layer1
10
206.0750
20
22.7500
30
0.0
0
VERTEX
5
16cf
8
Layer1
10
206.0750
20
10.7500
30
0.0
0
VERTEX
5
16d0
8
Layer1
10
206.8750
20
10.7500
30
0.0
0
VERTEX
5
16d1
8
Layer1
10
206.8750
20
9.7500
30
0.0
0
VERTEX
5
16d2
8
Layer1
10
220.8750
20
9.7500
30
0.0
0
VERTEX
5
16d3
8
Layer1
10
220.8750
20
10.7500
30
0.0
0
SEQEND
5
16d4
8
Layer1
0
POLYLINE
5
16d5
8
Layer1
66
1
10
0.0
20
0.0
30
0.0
70
1
0
VERTEX
5
16d6
8
Layer1
10
244.6250
20
10.7500
30
0.0
0
VERTEX
5
16d7
8
Layer1
10
245.4250
20
10.7500
30
0.0
0
VERTEX
5
16d8
8
Layer1
10
245.4250
20
22.7500
30
0.0
0
VERTEX
5
16d9
8
Layer1
10
244.6250
20
22.7500
30
0.0
0
VERTEX
5
16da
8
Layer1
10
244.6250
20
23.7500
30
0.0
0
VERTEX
5
16db
8
Layer1
10
230.6250
20
23.7500
30
0.0
0
VERTEX
5
16dc
8
Layer1
10
230.6250
20
22.7500
30
0.0
0
VERTEX
5
16dd
8
Layer1
10
229.8250
20
22.7500
30
0.0
0
VERTEX
5
16de
8
Layer1
10
229.8250
20
10.7500
30
0.0
0
VERTEX
5
16df
8
Layer1
10
230.6250
20
10.7500
30
0.0
0
VERTEX
5
16e0
8
Layer1
10
230.6250
20
9.7500
30
0.0
0
VERTEX
5
16e1
8
Layer1
10
244.6250
20
9.7500
30
0.0
0
VERTEX
5
16e2
8
Layer1
10
244.6250
20
10.7500
30
0.0
0
SEQEND
5
16e3
8
Layer1
0
POLYLINE
5
16e4
8
Layer1
66
1
10
0.0
20
0.0
30
0.0
70
1
0
VERTEX
5
16e5
8
Layer1
10
270.7500
20
6.0000
30
0.0
0
VERTEX
5
16e6
8
Layer1
10
271.5500
20
6.0000
30
0.0
0
VERTEX
5
16e7
8
Layer1
10
271.5500
20
18.0000
30
0.0
0
VERTEX
5
16e8
8
Layer1
10
270.7500
20
18.0000
30
0.0
0
VERTEX
5
16e9
8
Layer1
10
270.7500
20
19.0000
30
0.0
0
VERTEX
5
16ea
8
Layer1
10
256.7500
20
19.0000
30
0.0
0
VERTEX
5
16eb
8
Layer1
10
256.7500
20
18.0000
30
0.0
0
VERTEX
5
16ec
8
Layer1
10
255.9500
20
18.0000
30
0.0
0
VERTEX
5
16ed
8
Layer1
10
255.9500
20
6.0000
30
0.0
0
VERTEX
5
16ee
8
Layer1
10
256.7500
20
6.0000
30
0.0
0
VERTEX
5
16ef
8
Layer1
10
256.7500
20
5.0000
30
0.0
0
VERTEX
5
16f0
8
Layer1
10
270.7500
20
5.0000
30
0.0
0
VERTEX
5
16f1
8
Layer1
10
270.7500
20
6.0000
30
0.0
0
SEQEND
5
16f2
8
Layer1
0
POLYLINE
5
16f3
8
Layer1
66
1
10
0.0
20
0.0
30
0.0
70
1
0
VERTEX
5
16f4
8
Layer1
10
289.7500
20
6.0000
30
0.0
0
VERTEX
5
16f5
8
Layer1
10
290.5500
20
6.0000
30
0.0
0
VERTEX
5
16f6
8
Layer1
10
290.5500
20
18.0000
30
0.0
0
VERTEX
5
16f7
8
Layer1
10
289.7500
20
18.0000
30
0.0
0
VERTEX
5
16f8
8
Layer1
10
289.7500
20
19.0000
30
0.0
0
VERTEX
5
16f9
8
Layer1
10
275.7500
20
19.0000
30
0.0
0
VERTEX
5
16fa
8
Layer1
10
275.7500
20
18.0000
30
0.0
0
VERTEX
5
16fb
8
Layer1
10
274.9500
20
18.0000
30
0.0
0
VERTEX
5
16fc
8
Layer1
10
274.9500
20
6.0000
30
0.0
0
VERTEX
5
16fd
8
Layer1
10
275.7500
20
6.0000
30
0.0
0
VERTEX
5
16fe
8
Layer1
10
275.7500
20
5.0000
30
0.0
0
VERTEX
5
16ff
8
Layer1
10
289.7500
20
5.0000
30
0.0
0
VERTEX
5
1700
8
Layer1
10
289.7500
20
6.0000
30
0.0
0
SEQEND
5
1701
8
Layer1
0
POLYLINE
5
1702
8
Layer1
66
1
10
0.0
20
0.0
30
0.0
70
1
0
VERTEX
5
1703
8
Layer1
10
308.7500
20
6.0000
30
0.0
0
VERTEX
5
1704
8
Layer1
10
309.5500
20
6.0000
30
0.0
0
VERTEX
5
1705
8
Layer1
10
309.5500
20
18.0000
30
0.0
0
VERTEX
5
1706
8
Layer1
10
308.7500
20
18.0000
30
0.0
0
VERTEX
5
1707
8
Layer1
10
308.7500
20
19.0000
30
0.0
0
VERTEX
5
1708
8
Layer1
10
294.7500
20
19.0000
30
0.0
0
VERTEX
5
1709
8
Layer1
10
294.7500
20
18.0000
30
0.0
0
VERTEX
5
170a
8
Layer1
10
293.9500
20
18.0000
30
0.0
0
VERTEX
5
170b
8
Layer1
10
293.9500
20
6.0000
30
0.0
0
VERTEX
5
170c
8
Layer1
10
294.7500
20
6.0000
30
0.0
0
VERTEX
5
170d
8
Layer1
10
294.7500
20
5.0000
30
0.0
0
VERTEX
5
170e
8
Layer1
10
308.7500
20
5.0000
30
0.0
0
VERTEX
5
170f
8
Layer1
10
308.7500
20
6.0000
30
0.0
0
SEQEND
5
1710
8
Layer1
0
ENDSEC
0
EOF
