  0
SECTION
  2
HEADER
  9
$ANGBASE
  50
0.0
  9
$ANGDIR
  70
1
  9
$MEASUREMENT
  70
0
  0
ENDSEC
  0
SECTION
  2
TABLES
  0
TABLE
  2
LTYPE
  70
4
  0
LTYPE
  5
40F
  2
CONTINUOUS
  70
0
  3
Solid line
  72
65
  73
0
  40
0.0
  0
LTYPE
  5
410
  2
DASHDOT
 70
0
  3
Dash Dot ____ _ ____ _
 72
65
 73
4
 40
2.0
 49
1.25
 49
-0.25
 49
0.25
 49
-0.25
  0
LTYPE
  5
411
  2
DASHED
 70
0
  3
Dashed __ __ __ __ __
 72
65
 73
2
 40
0.75
 49
0.5
 49
-0.25
  0
LTYPE
  5
43B
  2
DOTTED
 70
0
  3
Dotted .  .  .  .
 72
65
 73
2
 40
0.2
 49
0.0
 49
-0.2
  0
ENDTAB
  0
TABLE
  2
STYLE
  70
4
  0
STYLE
  2
KICAD
  70
0
  40
0
  41
1
  42
1
  50
0
  71
0
  3
isocp.shx
  0
STYLE
  2
KICADB
  70
0
  40
0
  41
1
  42
1
  50
0
  71
0
  3
isocp.shx
  0
STYLE
  2
KICADI
  70
0
  40
0
  41
1
  42
1
  50
15
  71
0
  3
isocp.shx
  0
STYLE
  2
KICADBI
  70
0
  40
0
  41
1
  42
1
  50
15
  71
0
  3
isocp.shx
  0
ENDTAB
  0
TABLE
  2
LAYER
  70
1
  0
LAYER
  2
BLACK
  70
0
  62
7
  6
CONTINUOUS
  0
ENDTAB
  0
ENDSEC
  0
SECTION
  2
ENTITIES
0
LINE
8
BLACK
6
CONTINUOUS
10
29.2756
20
-20.2677
11
29.2756
21
-21.5276
0
LINE
8
BLACK
6
CONTINUOUS
10
29.2756
20
-21.5276
11
33.5276
21
-21.5276
0
LINE
8
BLACK
6
CONTINUOUS
10
33.5276
20
-21.5276
11
33.5276
21
-20.2677
0
LINE
8
BLACK
6
CONTINUOUS
10
33.5276
20
-20.2677
11
29.2756
21
-20.2677
0
LINE
8
BLACK
6
CONTINUOUS
10
0.393701
20
-0.393701
11
0.393701
21
-21.6063
0
LINE
8
BLACK
6
CONTINUOUS
10
0.393701
20
-21.6063
11
33.6063
21
-21.6063
0
LINE
8
BLACK
6
CONTINUOUS
10
33.6063
20
-21.6063
11
33.6063
21
-0.393701
0
LINE
8
BLACK
6
CONTINUOUS
10
33.6063
20
-0.393701
11
0.393701
21
-0.393701
0
LINE
8
BLACK
6
CONTINUOUS
10
0.472441
20
-0.472441
11
0.472441
21
-21.5276
0
LINE
8
BLACK
6
CONTINUOUS
10
0.472441
20
-21.5276
11
33.5276
21
-21.5276
0
LINE
8
BLACK
6
CONTINUOUS
10
33.5276
20
-21.5276
11
33.5276
21
-0.472441
0
LINE
8
BLACK
6
CONTINUOUS
10
33.5276
20
-0.472441
11
0.472441
21
-0.472441
0
LINE
8
BLACK
6
CONTINUOUS
10
2.3622
20
-0.472441
11
2.3622
21
-0.393701
0
LINE
8
BLACK
6
CONTINUOUS
10
4.33071
20
-0.472441
11
4.33071
21
-0.393701
0
LINE
8
BLACK
6
CONTINUOUS
10
6.29921
20
-0.472441
11
6.29921
21
-0.393701
0
LINE
8
BLACK
6
CONTINUOUS
10
8.26772
20
-0.472441
11
8.26772
21
-0.393701
0
LINE
8
BLACK
6
CONTINUOUS
10
10.2362
20
-0.472441
11
10.2362
21
-0.393701
0
LINE
8
BLACK
6
CONTINUOUS
10
12.2047
20
-0.472441
11
12.2047
21
-0.393701
0
LINE
8
BLACK
6
CONTINUOUS
10
14.1732
20
-0.472441
11
14.1732
21
-0.393701
0
LINE
8
BLACK
6
CONTINUOUS
10
16.1417
20
-0.472441
11
16.1417
21
-0.393701
0
LINE
8
BLACK
6
CONTINUOUS
10
18.1102
20
-0.472441
11
18.1102
21
-0.393701
0
LINE
8
BLACK
6
CONTINUOUS
10
20.0787
20
-0.472441
11
20.0787
21
-0.393701
0
LINE
8
BLACK
6
CONTINUOUS
10
22.0472
20
-0.472441
11
22.0472
21
-0.393701
0
LINE
8
BLACK
6
CONTINUOUS
10
24.0157
20
-0.472441
11
24.0157
21
-0.393701
0
LINE
8
BLACK
6
CONTINUOUS
10
25.9843
20
-0.472441
11
25.9843
21
-0.393701
0
LINE
8
BLACK
6
CONTINUOUS
10
27.9528
20
-0.472441
11
27.9528
21
-0.393701
0
LINE
8
BLACK
6
CONTINUOUS
10
29.9213
20
-0.472441
11
29.9213
21
-0.393701
0
LINE
8
BLACK
6
CONTINUOUS
10
31.8898
20
-0.472441
11
31.8898
21
-0.393701
0
LINE
8
BLACK
6
CONTINUOUS
10
1.4199
20
-0.456224
11
1.39065
21
-0.456224
0
LINE
8
BLACK
6
CONTINUOUS
10
1.40528
20
-0.456224
11
1.40528
21
-0.405043
0
LINE
8
BLACK
6
CONTINUOUS
10
1.40528
20
-0.405043
11
1.4004
21
-0.412355
0
LINE
8
BLACK
6
CONTINUOUS
10
1.4004
20
-0.412355
11
1.39553
21
-0.417229
0
LINE
8
BLACK
6
CONTINUOUS
10
1.39553
20
-0.417229
11
1.39065
21
-0.419666
0
LINE
8
BLACK
6
CONTINUOUS
10
3.35916
20
-0.409917
11
3.3616
21
-0.40748
0
LINE
8
BLACK
6
CONTINUOUS
10
3.3616
20
-0.40748
11
3.36647
21
-0.405043
0
LINE
8
BLACK
6
CONTINUOUS
10
3.36647
20
-0.405043
11
3.37866
21
-0.405043
0
LINE
8
BLACK
6
CONTINUOUS
10
3.37866
20
-0.405043
11
3.38353
21
-0.40748
0
LINE
8
BLACK
6
CONTINUOUS
10
3.38353
20
-0.40748
11
3.38597
21
-0.409917
0
LINE
8
BLACK
6
CONTINUOUS
10
3.38597
20
-0.409917
11
3.3884
21
-0.414792
0
LINE
8
BLACK
6
CONTINUOUS
10
3.3884
20
-0.414792
11
3.3884
21
-0.419666
0
LINE
8
BLACK
6
CONTINUOUS
10
3.3884
20
-0.419666
11
3.38597
21
-0.426978
0
LINE
8
BLACK
6
CONTINUOUS
10
3.38597
20
-0.426978
11
3.35672
21
-0.456224
0
LINE
8
BLACK
6
CONTINUOUS
10
3.35672
20
-0.456224
11
3.3884
21
-0.456224
0
LINE
8
BLACK
6
CONTINUOUS
10
5.32522
20
-0.405043
11
5.35691
21
-0.405043
0
LINE
8
BLACK
6
CONTINUOUS
10
5.35691
20
-0.405043
11
5.33985
21
-0.424541
0
LINE
8
BLACK
6
CONTINUOUS
10
5.33985
20
-0.424541
11
5.34716
21
-0.424541
0
LINE
8
BLACK
6
CONTINUOUS
10
5.34716
20
-0.424541
11
5.35203
21
-0.426978
0
LINE
8
BLACK
6
CONTINUOUS
10
5.35203
20
-0.426978
11
5.35447
21
-0.429415
0
LINE
8
BLACK
6
CONTINUOUS
10
5.35447
20
-0.429415
11
5.35691
21
-0.434289
0
LINE
8
BLACK
6
CONTINUOUS
10
5.35691
20
-0.434289
11
5.35691
21
-0.446475
0
LINE
8
BLACK
6
CONTINUOUS
10
5.35691
20
-0.446475
11
5.35447
21
-0.45135
0
LINE
8
BLACK
6
CONTINUOUS
10
5.35447
20
-0.45135
11
5.35203
21
-0.453787
0
LINE
8
BLACK
6
CONTINUOUS
10
5.35203
20
-0.453787
11
5.34716
21
-0.456224
0
LINE
8
BLACK
6
CONTINUOUS
10
5.34716
20
-0.456224
11
5.33254
21
-0.456224
0
LINE
8
BLACK
6
CONTINUOUS
10
5.33254
20
-0.456224
11
5.32766
21
-0.453787
0
LINE
8
BLACK
6
CONTINUOUS
10
5.32766
20
-0.453787
11
5.32522
21
-0.45135
0
LINE
8
BLACK
6
CONTINUOUS
10
7.32054
20
-0.422103
11
7.32054
21
-0.456224
0
LINE
8
BLACK
6
CONTINUOUS
10
7.30835
20
-0.402606
11
7.29617
21
-0.439164
0
LINE
8
BLACK
6
CONTINUOUS
10
7.29617
20
-0.439164
11
7.32785
21
-0.439164
0
LINE
8
BLACK
6
CONTINUOUS
10
9.29148
20
-0.405043
11
9.26711
21
-0.405043
0
LINE
8
BLACK
6
CONTINUOUS
10
9.26711
20
-0.405043
11
9.26467
21
-0.429415
0
LINE
8
BLACK
6
CONTINUOUS
10
9.26467
20
-0.429415
11
9.26711
21
-0.426978
0
LINE
8
BLACK
6
CONTINUOUS
10
9.26711
20
-0.426978
11
9.27198
21
-0.424541
0
LINE
8
BLACK
6
CONTINUOUS
10
9.27198
20
-0.424541
11
9.28417
21
-0.424541
0
LINE
8
BLACK
6
CONTINUOUS
10
9.28417
20
-0.424541
11
9.28904
21
-0.426978
0
LINE
8
BLACK
6
CONTINUOUS
10
9.28904
20
-0.426978
11
9.29148
21
-0.429415
0
LINE
8
BLACK
6
CONTINUOUS
10
9.29148
20
-0.429415
11
9.29392
21
-0.434289
0
LINE
8
BLACK
6
CONTINUOUS
10
9.29392
20
-0.434289
11
9.29392
21
-0.446475
0
LINE
8
BLACK
6
CONTINUOUS
10
9.29392
20
-0.446475
11
9.29148
21
-0.45135
0
LINE
8
BLACK
6
CONTINUOUS
10
9.29148
20
-0.45135
11
9.28904
21
-0.453787
0
LINE
8
BLACK
6
CONTINUOUS
10
9.28904
20
-0.453787
11
9.28417
21
-0.456224
0
LINE
8
BLACK
6
CONTINUOUS
10
9.28417
20
-0.456224
11
9.27198
21
-0.456224
0
LINE
8
BLACK
6
CONTINUOUS
10
9.27198
20
-0.456224
11
9.26711
21
-0.453787
0
LINE
8
BLACK
6
CONTINUOUS
10
9.26711
20
-0.453787
11
9.26467
21
-0.45135
0
LINE
8
BLACK
6
CONTINUOUS
10
11.2575
20
-0.405043
11
11.2478
21
-0.405043
0
LINE
8
BLACK
6
CONTINUOUS
10
11.2478
20
-0.405043
11
11.2429
21
-0.40748
0
LINE
8
BLACK
6
CONTINUOUS
10
11.2429
20
-0.40748
11
11.2405
21
-0.409917
0
LINE
8
BLACK
6
CONTINUOUS
10
11.2405
20
-0.409917
11
11.2356
21
-0.417229
0
LINE
8
BLACK
6
CONTINUOUS
10
11.2356
20
-0.417229
11
11.2332
21
-0.426978
0
LINE
8
BLACK
6
CONTINUOUS
10
11.2332
20
-0.426978
11
11.2332
21
-0.446475
0
LINE
8
BLACK
6
CONTINUOUS
10
11.2332
20
-0.446475
11
11.2356
21
-0.45135
0
LINE
8
BLACK
6
CONTINUOUS
10
11.2356
20
-0.45135
11
11.238
21
-0.453787
0
LINE
8
BLACK
6
CONTINUOUS
10
11.238
20
-0.453787
11
11.2429
21
-0.456224
0
LINE
8
BLACK
6
CONTINUOUS
10
11.2429
20
-0.456224
11
11.2527
21
-0.456224
0
LINE
8
BLACK
6
CONTINUOUS
10
11.2527
20
-0.456224
11
11.2575
21
-0.453787
0
LINE
8
BLACK
6
CONTINUOUS
10
11.2575
20
-0.453787
11
11.26
21
-0.45135
0
LINE
8
BLACK
6
CONTINUOUS
10
11.26
20
-0.45135
11
11.2624
21
-0.446475
0
LINE
8
BLACK
6
CONTINUOUS
10
11.2624
20
-0.446475
11
11.2624
21
-0.434289
0
LINE
8
BLACK
6
CONTINUOUS
10
11.2624
20
-0.434289
11
11.26
21
-0.429415
0
LINE
8
BLACK
6
CONTINUOUS
10
11.26
20
-0.429415
11
11.2575
21
-0.426978
0
LINE
8
BLACK
6
CONTINUOUS
10
11.2575
20
-0.426978
11
11.2527
21
-0.424541
0
LINE
8
BLACK
6
CONTINUOUS
10
11.2527
20
-0.424541
11
11.2429
21
-0.424541
0
LINE
8
BLACK
6
CONTINUOUS
10
11.2429
20
-0.424541
11
11.238
21
-0.426978
0
LINE
8
BLACK
6
CONTINUOUS
10
11.238
20
-0.426978
11
11.2356
21
-0.429415
0
LINE
8
BLACK
6
CONTINUOUS
10
11.2356
20
-0.429415
11
11.2332
21
-0.434289
0
LINE
8
BLACK
6
CONTINUOUS
10
13.1992
20
-0.405043
11
13.2334
21
-0.405043
0
LINE
8
BLACK
6
CONTINUOUS
10
13.2334
20
-0.405043
11
13.2114
21
-0.456224
0
LINE
8
BLACK
6
CONTINUOUS
10
15.1799
20
-0.426978
11
15.1751
21
-0.424541
0
LINE
8
BLACK
6
CONTINUOUS
10
15.1751
20
-0.424541
11
15.1726
21
-0.422103
0
LINE
8
BLACK
6
CONTINUOUS
10
15.1726
20
-0.422103
11
15.1702
21
-0.417229
0
LINE
8
BLACK
6
CONTINUOUS
10
15.1702
20
-0.417229
11
15.1702
21
-0.414792
0
LINE
8
BLACK
6
CONTINUOUS
10
15.1702
20
-0.414792
11
15.1726
21
-0.409917
0
LINE
8
BLACK
6
CONTINUOUS
10
15.1726
20
-0.409917
11
15.1751
21
-0.40748
0
LINE
8
BLACK
6
CONTINUOUS
10
15.1751
20
-0.40748
11
15.1799
21
-0.405043
0
LINE
8
BLACK
6
CONTINUOUS
10
15.1799
20
-0.405043
11
15.1897
21
-0.405043
0
LINE
8
BLACK
6
CONTINUOUS
10
15.1897
20
-0.405043
11
15.1946
21
-0.40748
0
LINE
8
BLACK
6
CONTINUOUS
10
15.1946
20
-0.40748
11
15.197
21
-0.409917
0
LINE
8
BLACK
6
CONTINUOUS
10
15.197
20
-0.409917
11
15.1994
21
-0.414792
0
LINE
8
BLACK
6
CONTINUOUS
10
15.1994
20
-0.414792
11
15.1994
21
-0.417229
0
LINE
8
BLACK
6
CONTINUOUS
10
15.1994
20
-0.417229
11
15.197
21
-0.422103
0
LINE
8
BLACK
6
CONTINUOUS
10
15.197
20
-0.422103
11
15.1946
21
-0.424541
0
LINE
8
BLACK
6
CONTINUOUS
10
15.1946
20
-0.424541
11
15.1897
21
-0.426978
0
LINE
8
BLACK
6
CONTINUOUS
10
15.1897
20
-0.426978
11
15.1799
21
-0.426978
0
LINE
8
BLACK
6
CONTINUOUS
10
15.1799
20
-0.426978
11
15.1751
21
-0.429415
0
LINE
8
BLACK
6
CONTINUOUS
10
15.1751
20
-0.429415
11
15.1726
21
-0.431852
0
LINE
8
BLACK
6
CONTINUOUS
10
15.1726
20
-0.431852
11
15.1702
21
-0.436727
0
LINE
8
BLACK
6
CONTINUOUS
10
15.1702
20
-0.436727
11
15.1702
21
-0.446475
0
LINE
8
BLACK
6
CONTINUOUS
10
15.1702
20
-0.446475
11
15.1726
21
-0.45135
0
LINE
8
BLACK
6
CONTINUOUS
10
15.1726
20
-0.45135
11
15.1751
21
-0.453787
0
LINE
8
BLACK
6
CONTINUOUS
10
15.1751
20
-0.453787
11
15.1799
21
-0.456224
0
LINE
8
BLACK
6
CONTINUOUS
10
15.1799
20
-0.456224
11
15.1897
21
-0.456224
0
LINE
8
BLACK
6
CONTINUOUS
10
15.1897
20
-0.456224
11
15.1946
21
-0.453787
0
LINE
8
BLACK
6
CONTINUOUS
10
15.1946
20
-0.453787
11
15.197
21
-0.45135
0
LINE
8
BLACK
6
CONTINUOUS
10
15.197
20
-0.45135
11
15.1994
21
-0.446475
0
LINE
8
BLACK
6
CONTINUOUS
10
15.1994
20
-0.446475
11
15.1994
21
-0.436727
0
LINE
8
BLACK
6
CONTINUOUS
10
15.1994
20
-0.436727
11
15.197
21
-0.431852
0
LINE
8
BLACK
6
CONTINUOUS
10
15.197
20
-0.431852
11
15.1946
21
-0.429415
0
LINE
8
BLACK
6
CONTINUOUS
10
15.1946
20
-0.429415
11
15.1897
21
-0.426978
0
LINE
8
BLACK
6
CONTINUOUS
10
17.1436
20
-0.456224
11
17.1533
21
-0.456224
0
LINE
8
BLACK
6
CONTINUOUS
10
17.1533
20
-0.456224
11
17.1582
21
-0.453787
0
LINE
8
BLACK
6
CONTINUOUS
10
17.1582
20
-0.453787
11
17.1606
21
-0.45135
0
LINE
8
BLACK
6
CONTINUOUS
10
17.1606
20
-0.45135
11
17.1655
21
-0.444038
0
LINE
8
BLACK
6
CONTINUOUS
10
17.1655
20
-0.444038
11
17.1679
21
-0.434289
0
LINE
8
BLACK
6
CONTINUOUS
10
17.1679
20
-0.434289
11
17.1679
21
-0.414792
0
LINE
8
BLACK
6
CONTINUOUS
10
17.1679
20
-0.414792
11
17.1655
21
-0.409917
0
LINE
8
BLACK
6
CONTINUOUS
10
17.1655
20
-0.409917
11
17.1631
21
-0.40748
0
LINE
8
BLACK
6
CONTINUOUS
10
17.1631
20
-0.40748
11
17.1582
21
-0.405043
0
LINE
8
BLACK
6
CONTINUOUS
10
17.1582
20
-0.405043
11
17.1484
21
-0.405043
0
LINE
8
BLACK
6
CONTINUOUS
10
17.1484
20
-0.405043
11
17.1436
21
-0.40748
0
LINE
8
BLACK
6
CONTINUOUS
10
17.1436
20
-0.40748
11
17.1411
21
-0.409917
0
LINE
8
BLACK
6
CONTINUOUS
10
17.1411
20
-0.409917
11
17.1387
21
-0.414792
0
LINE
8
BLACK
6
CONTINUOUS
10
17.1387
20
-0.414792
11
17.1387
21
-0.426978
0
LINE
8
BLACK
6
CONTINUOUS
10
17.1387
20
-0.426978
11
17.1411
21
-0.431852
0
LINE
8
BLACK
6
CONTINUOUS
10
17.1411
20
-0.431852
11
17.1436
21
-0.434289
0
LINE
8
BLACK
6
CONTINUOUS
10
17.1436
20
-0.434289
11
17.1484
21
-0.436727
0
LINE
8
BLACK
6
CONTINUOUS
10
17.1484
20
-0.436727
11
17.1582
21
-0.436727
0
LINE
8
BLACK
6
CONTINUOUS
10
17.1582
20
-0.436727
11
17.1631
21
-0.434289
0
LINE
8
BLACK
6
CONTINUOUS
10
17.1631
20
-0.434289
11
17.1655
21
-0.431852
0
LINE
8
BLACK
6
CONTINUOUS
10
17.1655
20
-0.431852
11
17.1679
21
-0.426978
0
LINE
8
BLACK
6
CONTINUOUS
10
19.1364
20
-0.456224
11
19.1072
21
-0.456224
0
LINE
8
BLACK
6
CONTINUOUS
10
19.1218
20
-0.456224
11
19.1218
21
-0.405043
0
LINE
8
BLACK
6
CONTINUOUS
10
19.1218
20
-0.405043
11
19.1169
21
-0.412355
0
LINE
8
BLACK
6
CONTINUOUS
10
19.1169
20
-0.412355
11
19.1121
21
-0.417229
0
LINE
8
BLACK
6
CONTINUOUS
10
19.1121
20
-0.417229
11
19.1072
21
-0.419666
0
LINE
8
BLACK
6
CONTINUOUS
10
19.1681
20
-0.405043
11
19.173
21
-0.405043
0
LINE
8
BLACK
6
CONTINUOUS
10
19.173
20
-0.405043
11
19.1779
21
-0.40748
0
LINE
8
BLACK
6
CONTINUOUS
10
19.1779
20
-0.40748
11
19.1803
21
-0.409917
0
LINE
8
BLACK
6
CONTINUOUS
10
19.1803
20
-0.409917
11
19.1827
21
-0.414792
0
LINE
8
BLACK
6
CONTINUOUS
10
19.1827
20
-0.414792
11
19.1852
21
-0.424541
0
LINE
8
BLACK
6
CONTINUOUS
10
19.1852
20
-0.424541
11
19.1852
21
-0.436727
0
LINE
8
BLACK
6
CONTINUOUS
10
19.1852
20
-0.436727
11
19.1827
21
-0.446475
0
LINE
8
BLACK
6
CONTINUOUS
10
19.1827
20
-0.446475
11
19.1803
21
-0.45135
0
LINE
8
BLACK
6
CONTINUOUS
10
19.1803
20
-0.45135
11
19.1779
21
-0.453787
0
LINE
8
BLACK
6
CONTINUOUS
10
19.1779
20
-0.453787
11
19.173
21
-0.456224
0
LINE
8
BLACK
6
CONTINUOUS
10
19.173
20
-0.456224
11
19.1681
21
-0.456224
0
LINE
8
BLACK
6
CONTINUOUS
10
19.1681
20
-0.456224
11
19.1632
21
-0.453787
0
LINE
8
BLACK
6
CONTINUOUS
10
19.1632
20
-0.453787
11
19.1608
21
-0.45135
0
LINE
8
BLACK
6
CONTINUOUS
10
19.1608
20
-0.45135
11
19.1584
21
-0.446475
0
LINE
8
BLACK
6
CONTINUOUS
10
19.1584
20
-0.446475
11
19.1559
21
-0.436727
0
LINE
8
BLACK
6
CONTINUOUS
10
19.1559
20
-0.436727
11
19.1559
21
-0.424541
0
LINE
8
BLACK
6
CONTINUOUS
10
19.1559
20
-0.424541
11
19.1584
21
-0.414792
0
LINE
8
BLACK
6
CONTINUOUS
10
19.1584
20
-0.414792
11
19.1608
21
-0.409917
0
LINE
8
BLACK
6
CONTINUOUS
10
19.1608
20
-0.409917
11
19.1632
21
-0.40748
0
LINE
8
BLACK
6
CONTINUOUS
10
19.1632
20
-0.40748
11
19.1681
21
-0.405043
0
LINE
8
BLACK
6
CONTINUOUS
10
21.1049
20
-0.456224
11
21.0757
21
-0.456224
0
LINE
8
BLACK
6
CONTINUOUS
10
21.0903
20
-0.456224
11
21.0903
21
-0.405043
0
LINE
8
BLACK
6
CONTINUOUS
10
21.0903
20
-0.405043
11
21.0854
21
-0.412355
0
LINE
8
BLACK
6
CONTINUOUS
10
21.0854
20
-0.412355
11
21.0806
21
-0.417229
0
LINE
8
BLACK
6
CONTINUOUS
10
21.0806
20
-0.417229
11
21.0757
21
-0.419666
0
LINE
8
BLACK
6
CONTINUOUS
10
21.1537
20
-0.456224
11
21.1244
21
-0.456224
0
LINE
8
BLACK
6
CONTINUOUS
10
21.1391
20
-0.456224
11
21.1391
21
-0.405043
0
LINE
8
BLACK
6
CONTINUOUS
10
21.1391
20
-0.405043
11
21.1342
21
-0.412355
0
LINE
8
BLACK
6
CONTINUOUS
10
21.1342
20
-0.412355
11
21.1293
21
-0.417229
0
LINE
8
BLACK
6
CONTINUOUS
10
21.1293
20
-0.417229
11
21.1244
21
-0.419666
0
LINE
8
BLACK
6
CONTINUOUS
10
23.0734
20
-0.456224
11
23.0442
21
-0.456224
0
LINE
8
BLACK
6
CONTINUOUS
10
23.0588
20
-0.456224
11
23.0588
21
-0.405043
0
LINE
8
BLACK
6
CONTINUOUS
10
23.0588
20
-0.405043
11
23.0539
21
-0.412355
0
LINE
8
BLACK
6
CONTINUOUS
10
23.0539
20
-0.412355
11
23.0491
21
-0.417229
0
LINE
8
BLACK
6
CONTINUOUS
10
23.0491
20
-0.417229
11
23.0442
21
-0.419666
0
LINE
8
BLACK
6
CONTINUOUS
10
23.0929
20
-0.409917
11
23.0954
21
-0.40748
0
LINE
8
BLACK
6
CONTINUOUS
10
23.0954
20
-0.40748
11
23.1003
21
-0.405043
0
LINE
8
BLACK
6
CONTINUOUS
10
23.1003
20
-0.405043
11
23.1124
21
-0.405043
0
LINE
8
BLACK
6
CONTINUOUS
10
23.1124
20
-0.405043
11
23.1173
21
-0.40748
0
LINE
8
BLACK
6
CONTINUOUS
10
23.1173
20
-0.40748
11
23.1198
21
-0.409917
0
LINE
8
BLACK
6
CONTINUOUS
10
23.1198
20
-0.409917
11
23.1222
21
-0.414792
0
LINE
8
BLACK
6
CONTINUOUS
10
23.1222
20
-0.414792
11
23.1222
21
-0.419666
0
LINE
8
BLACK
6
CONTINUOUS
10
23.1222
20
-0.419666
11
23.1198
21
-0.426978
0
LINE
8
BLACK
6
CONTINUOUS
10
23.1198
20
-0.426978
11
23.0905
21
-0.456224
0
LINE
8
BLACK
6
CONTINUOUS
10
23.0905
20
-0.456224
11
23.1222
21
-0.456224
0
LINE
8
BLACK
6
CONTINUOUS
10
25.0419
20
-0.456224
11
25.0127
21
-0.456224
0
LINE
8
BLACK
6
CONTINUOUS
10
25.0273
20
-0.456224
11
25.0273
21
-0.405043
0
LINE
8
BLACK
6
CONTINUOUS
10
25.0273
20
-0.405043
11
25.0225
21
-0.412355
0
LINE
8
BLACK
6
CONTINUOUS
10
25.0225
20
-0.412355
11
25.0176
21
-0.417229
0
LINE
8
BLACK
6
CONTINUOUS
10
25.0176
20
-0.417229
11
25.0127
21
-0.419666
0
LINE
8
BLACK
6
CONTINUOUS
10
25.059
20
-0.405043
11
25.0907
21
-0.405043
0
LINE
8
BLACK
6
CONTINUOUS
10
25.0907
20
-0.405043
11
25.0736
21
-0.424541
0
LINE
8
BLACK
6
CONTINUOUS
10
25.0736
20
-0.424541
11
25.0809
21
-0.424541
0
LINE
8
BLACK
6
CONTINUOUS
10
25.0809
20
-0.424541
11
25.0858
21
-0.426978
0
LINE
8
BLACK
6
CONTINUOUS
10
25.0858
20
-0.426978
11
25.0883
21
-0.429415
0
LINE
8
BLACK
6
CONTINUOUS
10
25.0883
20
-0.429415
11
25.0907
21
-0.434289
0
LINE
8
BLACK
6
CONTINUOUS
10
25.0907
20
-0.434289
11
25.0907
21
-0.446475
0
LINE
8
BLACK
6
CONTINUOUS
10
25.0907
20
-0.446475
11
25.0883
21
-0.45135
0
LINE
8
BLACK
6
CONTINUOUS
10
25.0883
20
-0.45135
11
25.0858
21
-0.453787
0
LINE
8
BLACK
6
CONTINUOUS
10
25.0858
20
-0.453787
11
25.0809
21
-0.456224
0
LINE
8
BLACK
6
CONTINUOUS
10
25.0809
20
-0.456224
11
25.0663
21
-0.456224
0
LINE
8
BLACK
6
CONTINUOUS
10
25.0663
20
-0.456224
11
25.0614
21
-0.453787
0
LINE
8
BLACK
6
CONTINUOUS
10
25.0614
20
-0.453787
11
25.059
21
-0.45135
0
LINE
8
BLACK
6
CONTINUOUS
10
27.0105
20
-0.456224
11
26.9812
21
-0.456224
0
LINE
8
BLACK
6
CONTINUOUS
10
26.9958
20
-0.456224
11
26.9958
21
-0.405043
0
LINE
8
BLACK
6
CONTINUOUS
10
26.9958
20
-0.405043
11
26.991
21
-0.412355
0
LINE
8
BLACK
6
CONTINUOUS
10
26.991
20
-0.412355
11
26.9861
21
-0.417229
0
LINE
8
BLACK
6
CONTINUOUS
10
26.9861
20
-0.417229
11
26.9812
21
-0.419666
0
LINE
8
BLACK
6
CONTINUOUS
10
27.0543
20
-0.422103
11
27.0543
21
-0.456224
0
LINE
8
BLACK
6
CONTINUOUS
10
27.0421
20
-0.402606
11
27.0299
21
-0.439164
0
LINE
8
BLACK
6
CONTINUOUS
10
27.0299
20
-0.439164
11
27.0616
21
-0.439164
0
LINE
8
BLACK
6
CONTINUOUS
10
28.979
20
-0.456224
11
28.9497
21
-0.456224
0
LINE
8
BLACK
6
CONTINUOUS
10
28.9643
20
-0.456224
11
28.9643
21
-0.405043
0
LINE
8
BLACK
6
CONTINUOUS
10
28.9643
20
-0.405043
11
28.9595
21
-0.412355
0
LINE
8
BLACK
6
CONTINUOUS
10
28.9595
20
-0.412355
11
28.9546
21
-0.417229
0
LINE
8
BLACK
6
CONTINUOUS
10
28.9546
20
-0.417229
11
28.9497
21
-0.419666
0
LINE
8
BLACK
6
CONTINUOUS
10
29.0253
20
-0.405043
11
29.0009
21
-0.405043
0
LINE
8
BLACK
6
CONTINUOUS
10
29.0009
20
-0.405043
11
28.9985
21
-0.429415
0
LINE
8
BLACK
6
CONTINUOUS
10
28.9985
20
-0.429415
11
29.0009
21
-0.426978
0
LINE
8
BLACK
6
CONTINUOUS
10
29.0009
20
-0.426978
11
29.0058
21
-0.424541
0
LINE
8
BLACK
6
CONTINUOUS
10
29.0058
20
-0.424541
11
29.018
21
-0.424541
0
LINE
8
BLACK
6
CONTINUOUS
10
29.018
20
-0.424541
11
29.0228
21
-0.426978
0
LINE
8
BLACK
6
CONTINUOUS
10
29.0228
20
-0.426978
11
29.0253
21
-0.429415
0
LINE
8
BLACK
6
CONTINUOUS
10
29.0253
20
-0.429415
11
29.0277
21
-0.434289
0
LINE
8
BLACK
6
CONTINUOUS
10
29.0277
20
-0.434289
11
29.0277
21
-0.446475
0
LINE
8
BLACK
6
CONTINUOUS
10
29.0277
20
-0.446475
11
29.0253
21
-0.45135
0
LINE
8
BLACK
6
CONTINUOUS
10
29.0253
20
-0.45135
11
29.0228
21
-0.453787
0
LINE
8
BLACK
6
CONTINUOUS
10
29.0228
20
-0.453787
11
29.018
21
-0.456224
0
LINE
8
BLACK
6
CONTINUOUS
10
29.018
20
-0.456224
11
29.0058
21
-0.456224
0
LINE
8
BLACK
6
CONTINUOUS
10
29.0058
20
-0.456224
11
29.0009
21
-0.453787
0
LINE
8
BLACK
6
CONTINUOUS
10
29.0009
20
-0.453787
11
28.9985
21
-0.45135
0
LINE
8
BLACK
6
CONTINUOUS
10
30.9475
20
-0.456224
11
30.9182
21
-0.456224
0
LINE
8
BLACK
6
CONTINUOUS
10
30.9328
20
-0.456224
11
30.9328
21
-0.405043
0
LINE
8
BLACK
6
CONTINUOUS
10
30.9328
20
-0.405043
11
30.928
21
-0.412355
0
LINE
8
BLACK
6
CONTINUOUS
10
30.928
20
-0.412355
11
30.9231
21
-0.417229
0
LINE
8
BLACK
6
CONTINUOUS
10
30.9231
20
-0.417229
11
30.9182
21
-0.419666
0
LINE
8
BLACK
6
CONTINUOUS
10
30.9913
20
-0.405043
11
30.9816
21
-0.405043
0
LINE
8
BLACK
6
CONTINUOUS
10
30.9816
20
-0.405043
11
30.9767
21
-0.40748
0
LINE
8
BLACK
6
CONTINUOUS
10
30.9767
20
-0.40748
11
30.9743
21
-0.409917
0
LINE
8
BLACK
6
CONTINUOUS
10
30.9743
20
-0.409917
11
30.9694
21
-0.417229
0
LINE
8
BLACK
6
CONTINUOUS
10
30.9694
20
-0.417229
11
30.967
21
-0.426978
0
LINE
8
BLACK
6
CONTINUOUS
10
30.967
20
-0.426978
11
30.967
21
-0.446475
0
LINE
8
BLACK
6
CONTINUOUS
10
30.967
20
-0.446475
11
30.9694
21
-0.45135
0
LINE
8
BLACK
6
CONTINUOUS
10
30.9694
20
-0.45135
11
30.9718
21
-0.453787
0
LINE
8
BLACK
6
CONTINUOUS
10
30.9718
20
-0.453787
11
30.9767
21
-0.456224
0
LINE
8
BLACK
6
CONTINUOUS
10
30.9767
20
-0.456224
11
30.9865
21
-0.456224
0
LINE
8
BLACK
6
CONTINUOUS
10
30.9865
20
-0.456224
11
30.9913
21
-0.453787
0
LINE
8
BLACK
6
CONTINUOUS
10
30.9913
20
-0.453787
11
30.9938
21
-0.45135
0
LINE
8
BLACK
6
CONTINUOUS
10
30.9938
20
-0.45135
11
30.9962
21
-0.446475
0
LINE
8
BLACK
6
CONTINUOUS
10
30.9962
20
-0.446475
11
30.9962
21
-0.434289
0
LINE
8
BLACK
6
CONTINUOUS
10
30.9962
20
-0.434289
11
30.9938
21
-0.429415
0
LINE
8
BLACK
6
CONTINUOUS
10
30.9938
20
-0.429415
11
30.9913
21
-0.426978
0
LINE
8
BLACK
6
CONTINUOUS
10
30.9913
20
-0.426978
11
30.9865
21
-0.424541
0
LINE
8
BLACK
6
CONTINUOUS
10
30.9865
20
-0.424541
11
30.9767
21
-0.424541
0
LINE
8
BLACK
6
CONTINUOUS
10
30.9767
20
-0.424541
11
30.9718
21
-0.426978
0
LINE
8
BLACK
6
CONTINUOUS
10
30.9718
20
-0.426978
11
30.9694
21
-0.429415
0
LINE
8
BLACK
6
CONTINUOUS
10
30.9694
20
-0.429415
11
30.967
21
-0.434289
0
LINE
8
BLACK
6
CONTINUOUS
10
32.916
20
-0.456224
11
32.8867
21
-0.456224
0
LINE
8
BLACK
6
CONTINUOUS
10
32.9013
20
-0.456224
11
32.9013
21
-0.405043
0
LINE
8
BLACK
6
CONTINUOUS
10
32.9013
20
-0.405043
11
32.8965
21
-0.412355
0
LINE
8
BLACK
6
CONTINUOUS
10
32.8965
20
-0.412355
11
32.8916
21
-0.417229
0
LINE
8
BLACK
6
CONTINUOUS
10
32.8916
20
-0.417229
11
32.8867
21
-0.419666
0
LINE
8
BLACK
6
CONTINUOUS
10
32.933
20
-0.405043
11
32.9671
21
-0.405043
0
LINE
8
BLACK
6
CONTINUOUS
10
32.9671
20
-0.405043
11
32.9452
21
-0.456224
0
LINE
8
BLACK
6
CONTINUOUS
10
2.3622
20
-21.5276
11
2.3622
21
-21.6063
0
LINE
8
BLACK
6
CONTINUOUS
10
4.33071
20
-21.5276
11
4.33071
21
-21.6063
0
LINE
8
BLACK
6
CONTINUOUS
10
6.29921
20
-21.5276
11
6.29921
21
-21.6063
0
LINE
8
BLACK
6
CONTINUOUS
10
8.26772
20
-21.5276
11
8.26772
21
-21.6063
0
LINE
8
BLACK
6
CONTINUOUS
10
10.2362
20
-21.5276
11
10.2362
21
-21.6063
0
LINE
8
BLACK
6
CONTINUOUS
10
12.2047
20
-21.5276
11
12.2047
21
-21.6063
0
LINE
8
BLACK
6
CONTINUOUS
10
14.1732
20
-21.5276
11
14.1732
21
-21.6063
0
LINE
8
BLACK
6
CONTINUOUS
10
16.1417
20
-21.5276
11
16.1417
21
-21.6063
0
LINE
8
BLACK
6
CONTINUOUS
10
18.1102
20
-21.5276
11
18.1102
21
-21.6063
0
LINE
8
BLACK
6
CONTINUOUS
10
20.0787
20
-21.5276
11
20.0787
21
-21.6063
0
LINE
8
BLACK
6
CONTINUOUS
10
22.0472
20
-21.5276
11
22.0472
21
-21.6063
0
LINE
8
BLACK
6
CONTINUOUS
10
24.0157
20
-21.5276
11
24.0157
21
-21.6063
0
LINE
8
BLACK
6
CONTINUOUS
10
25.9843
20
-21.5276
11
25.9843
21
-21.6063
0
LINE
8
BLACK
6
CONTINUOUS
10
27.9528
20
-21.5276
11
27.9528
21
-21.6063
0
LINE
8
BLACK
6
CONTINUOUS
10
29.9213
20
-21.5276
11
29.9213
21
-21.6063
0
LINE
8
BLACK
6
CONTINUOUS
10
31.8898
20
-21.5276
11
31.8898
21
-21.6063
0
LINE
8
BLACK
6
CONTINUOUS
10
1.4199
20
-21.5901
11
1.39065
21
-21.5901
0
LINE
8
BLACK
6
CONTINUOUS
10
1.40528
20
-21.5901
11
1.40528
21
-21.5389
0
LINE
8
BLACK
6
CONTINUOUS
10
1.40528
20
-21.5389
11
1.4004
21
-21.5462
0
LINE
8
BLACK
6
CONTINUOUS
10
1.4004
20
-21.5462
11
1.39553
21
-21.5511
0
LINE
8
BLACK
6
CONTINUOUS
10
1.39553
20
-21.5511
11
1.39065
21
-21.5535
0
LINE
8
BLACK
6
CONTINUOUS
10
3.35916
20
-21.5438
11
3.3616
21
-21.5413
0
LINE
8
BLACK
6
CONTINUOUS
10
3.3616
20
-21.5413
11
3.36647
21
-21.5389
0
LINE
8
BLACK
6
CONTINUOUS
10
3.36647
20
-21.5389
11
3.37866
21
-21.5389
0
LINE
8
BLACK
6
CONTINUOUS
10
3.37866
20
-21.5389
11
3.38353
21
-21.5413
0
LINE
8
BLACK
6
CONTINUOUS
10
3.38353
20
-21.5413
11
3.38597
21
-21.5438
0
LINE
8
BLACK
6
CONTINUOUS
10
3.38597
20
-21.5438
11
3.3884
21
-21.5487
0
LINE
8
BLACK
6
CONTINUOUS
10
3.3884
20
-21.5487
11
3.3884
21
-21.5535
0
LINE
8
BLACK
6
CONTINUOUS
10
3.3884
20
-21.5535
11
3.38597
21
-21.5608
0
LINE
8
BLACK
6
CONTINUOUS
10
3.38597
20
-21.5608
11
3.35672
21
-21.5901
0
LINE
8
BLACK
6
CONTINUOUS
10
3.35672
20
-21.5901
11
3.3884
21
-21.5901
0
LINE
8
BLACK
6
CONTINUOUS
10
5.32522
20
-21.5389
11
5.35691
21
-21.5389
0
LINE
8
BLACK
6
CONTINUOUS
10
5.35691
20
-21.5389
11
5.33985
21
-21.5584
0
LINE
8
BLACK
6
CONTINUOUS
10
5.33985
20
-21.5584
11
5.34716
21
-21.5584
0
LINE
8
BLACK
6
CONTINUOUS
10
5.34716
20
-21.5584
11
5.35203
21
-21.5608
0
LINE
8
BLACK
6
CONTINUOUS
10
5.35203
20
-21.5608
11
5.35447
21
-21.5633
0
LINE
8
BLACK
6
CONTINUOUS
10
5.35447
20
-21.5633
11
5.35691
21
-21.5681
0
LINE
8
BLACK
6
CONTINUOUS
10
5.35691
20
-21.5681
11
5.35691
21
-21.5803
0
LINE
8
BLACK
6
CONTINUOUS
10
5.35691
20
-21.5803
11
5.35447
21
-21.5852
0
LINE
8
BLACK
6
CONTINUOUS
10
5.35447
20
-21.5852
11
5.35203
21
-21.5876
0
LINE
8
BLACK
6
CONTINUOUS
10
5.35203
20
-21.5876
11
5.34716
21
-21.5901
0
LINE
8
BLACK
6
CONTINUOUS
10
5.34716
20
-21.5901
11
5.33254
21
-21.5901
0
LINE
8
BLACK
6
CONTINUOUS
10
5.33254
20
-21.5901
11
5.32766
21
-21.5876
0
LINE
8
BLACK
6
CONTINUOUS
10
5.32766
20
-21.5876
11
5.32522
21
-21.5852
0
LINE
8
BLACK
6
CONTINUOUS
10
7.32054
20
-21.556
11
7.32054
21
-21.5901
0
LINE
8
BLACK
6
CONTINUOUS
10
7.30835
20
-21.5365
11
7.29617
21
-21.573
0
LINE
8
BLACK
6
CONTINUOUS
10
7.29617
20
-21.573
11
7.32785
21
-21.573
0
LINE
8
BLACK
6
CONTINUOUS
10
9.29148
20
-21.5389
11
9.26711
21
-21.5389
0
LINE
8
BLACK
6
CONTINUOUS
10
9.26711
20
-21.5389
11
9.26467
21
-21.5633
0
LINE
8
BLACK
6
CONTINUOUS
10
9.26467
20
-21.5633
11
9.26711
21
-21.5608
0
LINE
8
BLACK
6
CONTINUOUS
10
9.26711
20
-21.5608
11
9.27198
21
-21.5584
0
LINE
8
BLACK
6
CONTINUOUS
10
9.27198
20
-21.5584
11
9.28417
21
-21.5584
0
LINE
8
BLACK
6
CONTINUOUS
10
9.28417
20
-21.5584
11
9.28904
21
-21.5608
0
LINE
8
BLACK
6
CONTINUOUS
10
9.28904
20
-21.5608
11
9.29148
21
-21.5633
0
LINE
8
BLACK
6
CONTINUOUS
10
9.29148
20
-21.5633
11
9.29392
21
-21.5681
0
LINE
8
BLACK
6
CONTINUOUS
10
9.29392
20
-21.5681
11
9.29392
21
-21.5803
0
LINE
8
BLACK
6
CONTINUOUS
10
9.29392
20
-21.5803
11
9.29148
21
-21.5852
0
LINE
8
BLACK
6
CONTINUOUS
10
9.29148
20
-21.5852
11
9.28904
21
-21.5876
0
LINE
8
BLACK
6
CONTINUOUS
10
9.28904
20
-21.5876
11
9.28417
21
-21.5901
0
LINE
8
BLACK
6
CONTINUOUS
10
9.28417
20
-21.5901
11
9.27198
21
-21.5901
0
LINE
8
BLACK
6
CONTINUOUS
10
9.27198
20
-21.5901
11
9.26711
21
-21.5876
0
LINE
8
BLACK
6
CONTINUOUS
10
9.26711
20
-21.5876
11
9.26467
21
-21.5852
0
LINE
8
BLACK
6
CONTINUOUS
10
11.2575
20
-21.5389
11
11.2478
21
-21.5389
0
LINE
8
BLACK
6
CONTINUOUS
10
11.2478
20
-21.5389
11
11.2429
21
-21.5413
0
LINE
8
BLACK
6
CONTINUOUS
10
11.2429
20
-21.5413
11
11.2405
21
-21.5438
0
LINE
8
BLACK
6
CONTINUOUS
10
11.2405
20
-21.5438
11
11.2356
21
-21.5511
0
LINE
8
BLACK
6
CONTINUOUS
10
11.2356
20
-21.5511
11
11.2332
21
-21.5608
0
LINE
8
BLACK
6
CONTINUOUS
10
11.2332
20
-21.5608
11
11.2332
21
-21.5803
0
LINE
8
BLACK
6
CONTINUOUS
10
11.2332
20
-21.5803
11
11.2356
21
-21.5852
0
LINE
8
BLACK
6
CONTINUOUS
10
11.2356
20
-21.5852
11
11.238
21
-21.5876
0
LINE
8
BLACK
6
CONTINUOUS
10
11.238
20
-21.5876
11
11.2429
21
-21.5901
0
LINE
8
BLACK
6
CONTINUOUS
10
11.2429
20
-21.5901
11
11.2527
21
-21.5901
0
LINE
8
BLACK
6
CONTINUOUS
10
11.2527
20
-21.5901
11
11.2575
21
-21.5876
0
LINE
8
BLACK
6
CONTINUOUS
10
11.2575
20
-21.5876
11
11.26
21
-21.5852
0
LINE
8
BLACK
6
CONTINUOUS
10
11.26
20
-21.5852
11
11.2624
21
-21.5803
0
LINE
8
BLACK
6
CONTINUOUS
10
11.2624
20
-21.5803
11
11.2624
21
-21.5681
0
LINE
8
BLACK
6
CONTINUOUS
10
11.2624
20
-21.5681
11
11.26
21
-21.5633
0
LINE
8
BLACK
6
CONTINUOUS
10
11.26
20
-21.5633
11
11.2575
21
-21.5608
0
LINE
8
BLACK
6
CONTINUOUS
10
11.2575
20
-21.5608
11
11.2527
21
-21.5584
0
LINE
8
BLACK
6
CONTINUOUS
10
11.2527
20
-21.5584
11
11.2429
21
-21.5584
0
LINE
8
BLACK
6
CONTINUOUS
10
11.2429
20
-21.5584
11
11.238
21
-21.5608
0
LINE
8
BLACK
6
CONTINUOUS
10
11.238
20
-21.5608
11
11.2356
21
-21.5633
0
LINE
8
BLACK
6
CONTINUOUS
10
11.2356
20
-21.5633
11
11.2332
21
-21.5681
0
LINE
8
BLACK
6
CONTINUOUS
10
13.1992
20
-21.5389
11
13.2334
21
-21.5389
0
LINE
8
BLACK
6
CONTINUOUS
10
13.2334
20
-21.5389
11
13.2114
21
-21.5901
0
LINE
8
BLACK
6
CONTINUOUS
10
15.1799
20
-21.5608
11
15.1751
21
-21.5584
0
LINE
8
BLACK
6
CONTINUOUS
10
15.1751
20
-21.5584
11
15.1726
21
-21.556
0
LINE
8
BLACK
6
CONTINUOUS
10
15.1726
20
-21.556
11
15.1702
21
-21.5511
0
LINE
8
BLACK
6
CONTINUOUS
10
15.1702
20
-21.5511
11
15.1702
21
-21.5487
0
LINE
8
BLACK
6
CONTINUOUS
10
15.1702
20
-21.5487
11
15.1726
21
-21.5438
0
LINE
8
BLACK
6
CONTINUOUS
10
15.1726
20
-21.5438
11
15.1751
21
-21.5413
0
LINE
8
BLACK
6
CONTINUOUS
10
15.1751
20
-21.5413
11
15.1799
21
-21.5389
0
LINE
8
BLACK
6
CONTINUOUS
10
15.1799
20
-21.5389
11
15.1897
21
-21.5389
0
LINE
8
BLACK
6
CONTINUOUS
10
15.1897
20
-21.5389
11
15.1946
21
-21.5413
0
LINE
8
BLACK
6
CONTINUOUS
10
15.1946
20
-21.5413
11
15.197
21
-21.5438
0
LINE
8
BLACK
6
CONTINUOUS
10
15.197
20
-21.5438
11
15.1994
21
-21.5487
0
LINE
8
BLACK
6
CONTINUOUS
10
15.1994
20
-21.5487
11
15.1994
21
-21.5511
0
LINE
8
BLACK
6
CONTINUOUS
10
15.1994
20
-21.5511
11
15.197
21
-21.556
0
LINE
8
BLACK
6
CONTINUOUS
10
15.197
20
-21.556
11
15.1946
21
-21.5584
0
LINE
8
BLACK
6
CONTINUOUS
10
15.1946
20
-21.5584
11
15.1897
21
-21.5608
0
LINE
8
BLACK
6
CONTINUOUS
10
15.1897
20
-21.5608
11
15.1799
21
-21.5608
0
LINE
8
BLACK
6
CONTINUOUS
10
15.1799
20
-21.5608
11
15.1751
21
-21.5633
0
LINE
8
BLACK
6
CONTINUOUS
10
15.1751
20
-21.5633
11
15.1726
21
-21.5657
0
LINE
8
BLACK
6
CONTINUOUS
10
15.1726
20
-21.5657
11
15.1702
21
-21.5706
0
LINE
8
BLACK
6
CONTINUOUS
10
15.1702
20
-21.5706
11
15.1702
21
-21.5803
0
LINE
8
BLACK
6
CONTINUOUS
10
15.1702
20
-21.5803
11
15.1726
21
-21.5852
0
LINE
8
BLACK
6
CONTINUOUS
10
15.1726
20
-21.5852
11
15.1751
21
-21.5876
0
LINE
8
BLACK
6
CONTINUOUS
10
15.1751
20
-21.5876
11
15.1799
21
-21.5901
0
LINE
8
BLACK
6
CONTINUOUS
10
15.1799
20
-21.5901
11
15.1897
21
-21.5901
0
LINE
8
BLACK
6
CONTINUOUS
10
15.1897
20
-21.5901
11
15.1946
21
-21.5876
0
LINE
8
BLACK
6
CONTINUOUS
10
15.1946
20
-21.5876
11
15.197
21
-21.5852
0
LINE
8
BLACK
6
CONTINUOUS
10
15.197
20
-21.5852
11
15.1994
21
-21.5803
0
LINE
8
BLACK
6
CONTINUOUS
10
15.1994
20
-21.5803
11
15.1994
21
-21.5706
0
LINE
8
BLACK
6
CONTINUOUS
10
15.1994
20
-21.5706
11
15.197
21
-21.5657
0
LINE
8
BLACK
6
CONTINUOUS
10
15.197
20
-21.5657
11
15.1946
21
-21.5633
0
LINE
8
BLACK
6
CONTINUOUS
10
15.1946
20
-21.5633
11
15.1897
21
-21.5608
0
LINE
8
BLACK
6
CONTINUOUS
10
17.1436
20
-21.5901
11
17.1533
21
-21.5901
0
LINE
8
BLACK
6
CONTINUOUS
10
17.1533
20
-21.5901
11
17.1582
21
-21.5876
0
LINE
8
BLACK
6
CONTINUOUS
10
17.1582
20
-21.5876
11
17.1606
21
-21.5852
0
LINE
8
BLACK
6
CONTINUOUS
10
17.1606
20
-21.5852
11
17.1655
21
-21.5779
0
LINE
8
BLACK
6
CONTINUOUS
10
17.1655
20
-21.5779
11
17.1679
21
-21.5681
0
LINE
8
BLACK
6
CONTINUOUS
10
17.1679
20
-21.5681
11
17.1679
21
-21.5487
0
LINE
8
BLACK
6
CONTINUOUS
10
17.1679
20
-21.5487
11
17.1655
21
-21.5438
0
LINE
8
BLACK
6
CONTINUOUS
10
17.1655
20
-21.5438
11
17.1631
21
-21.5413
0
LINE
8
BLACK
6
CONTINUOUS
10
17.1631
20
-21.5413
11
17.1582
21
-21.5389
0
LINE
8
BLACK
6
CONTINUOUS
10
17.1582
20
-21.5389
11
17.1484
21
-21.5389
0
LINE
8
BLACK
6
CONTINUOUS
10
17.1484
20
-21.5389
11
17.1436
21
-21.5413
0
LINE
8
BLACK
6
CONTINUOUS
10
17.1436
20
-21.5413
11
17.1411
21
-21.5438
0
LINE
8
BLACK
6
CONTINUOUS
10
17.1411
20
-21.5438
11
17.1387
21
-21.5487
0
LINE
8
BLACK
6
CONTINUOUS
10
17.1387
20
-21.5487
11
17.1387
21
-21.5608
0
LINE
8
BLACK
6
CONTINUOUS
10
17.1387
20
-21.5608
11
17.1411
21
-21.5657
0
LINE
8
BLACK
6
CONTINUOUS
10
17.1411
20
-21.5657
11
17.1436
21
-21.5681
0
LINE
8
BLACK
6
CONTINUOUS
10
17.1436
20
-21.5681
11
17.1484
21
-21.5706
0
LINE
8
BLACK
6
CONTINUOUS
10
17.1484
20
-21.5706
11
17.1582
21
-21.5706
0
LINE
8
BLACK
6
CONTINUOUS
10
17.1582
20
-21.5706
11
17.1631
21
-21.5681
0
LINE
8
BLACK
6
CONTINUOUS
10
17.1631
20
-21.5681
11
17.1655
21
-21.5657
0
LINE
8
BLACK
6
CONTINUOUS
10
17.1655
20
-21.5657
11
17.1679
21
-21.5608
0
LINE
8
BLACK
6
CONTINUOUS
10
19.1364
20
-21.5901
11
19.1072
21
-21.5901
0
LINE
8
BLACK
6
CONTINUOUS
10
19.1218
20
-21.5901
11
19.1218
21
-21.5389
0
LINE
8
BLACK
6
CONTINUOUS
10
19.1218
20
-21.5389
11
19.1169
21
-21.5462
0
LINE
8
BLACK
6
CONTINUOUS
10
19.1169
20
-21.5462
11
19.1121
21
-21.5511
0
LINE
8
BLACK
6
CONTINUOUS
10
19.1121
20
-21.5511
11
19.1072
21
-21.5535
0
LINE
8
BLACK
6
CONTINUOUS
10
19.1681
20
-21.5389
11
19.173
21
-21.5389
0
LINE
8
BLACK
6
CONTINUOUS
10
19.173
20
-21.5389
11
19.1779
21
-21.5413
0
LINE
8
BLACK
6
CONTINUOUS
10
19.1779
20
-21.5413
11
19.1803
21
-21.5438
0
LINE
8
BLACK
6
CONTINUOUS
10
19.1803
20
-21.5438
11
19.1827
21
-21.5487
0
LINE
8
BLACK
6
CONTINUOUS
10
19.1827
20
-21.5487
11
19.1852
21
-21.5584
0
LINE
8
BLACK
6
CONTINUOUS
10
19.1852
20
-21.5584
11
19.1852
21
-21.5706
0
LINE
8
BLACK
6
CONTINUOUS
10
19.1852
20
-21.5706
11
19.1827
21
-21.5803
0
LINE
8
BLACK
6
CONTINUOUS
10
19.1827
20
-21.5803
11
19.1803
21
-21.5852
0
LINE
8
BLACK
6
CONTINUOUS
10
19.1803
20
-21.5852
11
19.1779
21
-21.5876
0
LINE
8
BLACK
6
CONTINUOUS
10
19.1779
20
-21.5876
11
19.173
21
-21.5901
0
LINE
8
BLACK
6
CONTINUOUS
10
19.173
20
-21.5901
11
19.1681
21
-21.5901
0
LINE
8
BLACK
6
CONTINUOUS
10
19.1681
20
-21.5901
11
19.1632
21
-21.5876
0
LINE
8
BLACK
6
CONTINUOUS
10
19.1632
20
-21.5876
11
19.1608
21
-21.5852
0
LINE
8
BLACK
6
CONTINUOUS
10
19.1608
20
-21.5852
11
19.1584
21
-21.5803
0
LINE
8
BLACK
6
CONTINUOUS
10
19.1584
20
-21.5803
11
19.1559
21
-21.5706
0
LINE
8
BLACK
6
CONTINUOUS
10
19.1559
20
-21.5706
11
19.1559
21
-21.5584
0
LINE
8
BLACK
6
CONTINUOUS
10
19.1559
20
-21.5584
11
19.1584
21
-21.5487
0
LINE
8
BLACK
6
CONTINUOUS
10
19.1584
20
-21.5487
11
19.1608
21
-21.5438
0
LINE
8
BLACK
6
CONTINUOUS
10
19.1608
20
-21.5438
11
19.1632
21
-21.5413
0
LINE
8
BLACK
6
CONTINUOUS
10
19.1632
20
-21.5413
11
19.1681
21
-21.5389
0
LINE
8
BLACK
6
CONTINUOUS
10
21.1049
20
-21.5901
11
21.0757
21
-21.5901
0
LINE
8
BLACK
6
CONTINUOUS
10
21.0903
20
-21.5901
11
21.0903
21
-21.5389
0
LINE
8
BLACK
6
CONTINUOUS
10
21.0903
20
-21.5389
11
21.0854
21
-21.5462
0
LINE
8
BLACK
6
CONTINUOUS
10
21.0854
20
-21.5462
11
21.0806
21
-21.5511
0
LINE
8
BLACK
6
CONTINUOUS
10
21.0806
20
-21.5511
11
21.0757
21
-21.5535
0
LINE
8
BLACK
6
CONTINUOUS
10
21.1537
20
-21.5901
11
21.1244
21
-21.5901
0
LINE
8
BLACK
6
CONTINUOUS
10
21.1391
20
-21.5901
11
21.1391
21
-21.5389
0
LINE
8
BLACK
6
CONTINUOUS
10
21.1391
20
-21.5389
11
21.1342
21
-21.5462
0
LINE
8
BLACK
6
CONTINUOUS
10
21.1342
20
-21.5462
11
21.1293
21
-21.5511
0
LINE
8
BLACK
6
CONTINUOUS
10
21.1293
20
-21.5511
11
21.1244
21
-21.5535
0
LINE
8
BLACK
6
CONTINUOUS
10
23.0734
20
-21.5901
11
23.0442
21
-21.5901
0
LINE
8
BLACK
6
CONTINUOUS
10
23.0588
20
-21.5901
11
23.0588
21
-21.5389
0
LINE
8
BLACK
6
CONTINUOUS
10
23.0588
20
-21.5389
11
23.0539
21
-21.5462
0
LINE
8
BLACK
6
CONTINUOUS
10
23.0539
20
-21.5462
11
23.0491
21
-21.5511
0
LINE
8
BLACK
6
CONTINUOUS
10
23.0491
20
-21.5511
11
23.0442
21
-21.5535
0
LINE
8
BLACK
6
CONTINUOUS
10
23.0929
20
-21.5438
11
23.0954
21
-21.5413
0
LINE
8
BLACK
6
CONTINUOUS
10
23.0954
20
-21.5413
11
23.1003
21
-21.5389
0
LINE
8
BLACK
6
CONTINUOUS
10
23.1003
20
-21.5389
11
23.1124
21
-21.5389
0
LINE
8
BLACK
6
CONTINUOUS
10
23.1124
20
-21.5389
11
23.1173
21
-21.5413
0
LINE
8
BLACK
6
CONTINUOUS
10
23.1173
20
-21.5413
11
23.1198
21
-21.5438
0
LINE
8
BLACK
6
CONTINUOUS
10
23.1198
20
-21.5438
11
23.1222
21
-21.5487
0
LINE
8
BLACK
6
CONTINUOUS
10
23.1222
20
-21.5487
11
23.1222
21
-21.5535
0
LINE
8
BLACK
6
CONTINUOUS
10
23.1222
20
-21.5535
11
23.1198
21
-21.5608
0
LINE
8
BLACK
6
CONTINUOUS
10
23.1198
20
-21.5608
11
23.0905
21
-21.5901
0
LINE
8
BLACK
6
CONTINUOUS
10
23.0905
20
-21.5901
11
23.1222
21
-21.5901
0
LINE
8
BLACK
6
CONTINUOUS
10
25.0419
20
-21.5901
11
25.0127
21
-21.5901
0
LINE
8
BLACK
6
CONTINUOUS
10
25.0273
20
-21.5901
11
25.0273
21
-21.5389
0
LINE
8
BLACK
6
CONTINUOUS
10
25.0273
20
-21.5389
11
25.0225
21
-21.5462
0
LINE
8
BLACK
6
CONTINUOUS
10
25.0225
20
-21.5462
11
25.0176
21
-21.5511
0
LINE
8
BLACK
6
CONTINUOUS
10
25.0176
20
-21.5511
11
25.0127
21
-21.5535
0
LINE
8
BLACK
6
CONTINUOUS
10
25.059
20
-21.5389
11
25.0907
21
-21.5389
0
LINE
8
BLACK
6
CONTINUOUS
10
25.0907
20
-21.5389
11
25.0736
21
-21.5584
0
LINE
8
BLACK
6
CONTINUOUS
10
25.0736
20
-21.5584
11
25.0809
21
-21.5584
0
LINE
8
BLACK
6
CONTINUOUS
10
25.0809
20
-21.5584
11
25.0858
21
-21.5608
0
LINE
8
BLACK
6
CONTINUOUS
10
25.0858
20
-21.5608
11
25.0883
21
-21.5633
0
LINE
8
BLACK
6
CONTINUOUS
10
25.0883
20
-21.5633
11
25.0907
21
-21.5681
0
LINE
8
BLACK
6
CONTINUOUS
10
25.0907
20
-21.5681
11
25.0907
21
-21.5803
0
LINE
8
BLACK
6
CONTINUOUS
10
25.0907
20
-21.5803
11
25.0883
21
-21.5852
0
LINE
8
BLACK
6
CONTINUOUS
10
25.0883
20
-21.5852
11
25.0858
21
-21.5876
0
LINE
8
BLACK
6
CONTINUOUS
10
25.0858
20
-21.5876
11
25.0809
21
-21.5901
0
LINE
8
BLACK
6
CONTINUOUS
10
25.0809
20
-21.5901
11
25.0663
21
-21.5901
0
LINE
8
BLACK
6
CONTINUOUS
10
25.0663
20
-21.5901
11
25.0614
21
-21.5876
0
LINE
8
BLACK
6
CONTINUOUS
10
25.0614
20
-21.5876
11
25.059
21
-21.5852
0
LINE
8
BLACK
6
CONTINUOUS
10
27.0105
20
-21.5901
11
26.9812
21
-21.5901
0
LINE
8
BLACK
6
CONTINUOUS
10
26.9958
20
-21.5901
11
26.9958
21
-21.5389
0
LINE
8
BLACK
6
CONTINUOUS
10
26.9958
20
-21.5389
11
26.991
21
-21.5462
0
LINE
8
BLACK
6
CONTINUOUS
10
26.991
20
-21.5462
11
26.9861
21
-21.5511
0
LINE
8
BLACK
6
CONTINUOUS
10
26.9861
20
-21.5511
11
26.9812
21
-21.5535
0
LINE
8
BLACK
6
CONTINUOUS
10
27.0543
20
-21.556
11
27.0543
21
-21.5901
0
LINE
8
BLACK
6
CONTINUOUS
10
27.0421
20
-21.5365
11
27.0299
21
-21.573
0
LINE
8
BLACK
6
CONTINUOUS
10
27.0299
20
-21.573
11
27.0616
21
-21.573
0
LINE
8
BLACK
6
CONTINUOUS
10
28.979
20
-21.5901
11
28.9497
21
-21.5901
0
LINE
8
BLACK
6
CONTINUOUS
10
28.9643
20
-21.5901
11
28.9643
21
-21.5389
0
LINE
8
BLACK
6
CONTINUOUS
10
28.9643
20
-21.5389
11
28.9595
21
-21.5462
0
LINE
8
BLACK
6
CONTINUOUS
10
28.9595
20
-21.5462
11
28.9546
21
-21.5511
0
LINE
8
BLACK
6
CONTINUOUS
10
28.9546
20
-21.5511
11
28.9497
21
-21.5535
0
LINE
8
BLACK
6
CONTINUOUS
10
29.0253
20
-21.5389
11
29.0009
21
-21.5389
0
LINE
8
BLACK
6
CONTINUOUS
10
29.0009
20
-21.5389
11
28.9985
21
-21.5633
0
LINE
8
BLACK
6
CONTINUOUS
10
28.9985
20
-21.5633
11
29.0009
21
-21.5608
0
LINE
8
BLACK
6
CONTINUOUS
10
29.0009
20
-21.5608
11
29.0058
21
-21.5584
0
LINE
8
BLACK
6
CONTINUOUS
10
29.0058
20
-21.5584
11
29.018
21
-21.5584
0
LINE
8
BLACK
6
CONTINUOUS
10
29.018
20
-21.5584
11
29.0228
21
-21.5608
0
LINE
8
BLACK
6
CONTINUOUS
10
29.0228
20
-21.5608
11
29.0253
21
-21.5633
0
LINE
8
BLACK
6
CONTINUOUS
10
29.0253
20
-21.5633
11
29.0277
21
-21.5681
0
LINE
8
BLACK
6
CONTINUOUS
10
29.0277
20
-21.5681
11
29.0277
21
-21.5803
0
LINE
8
BLACK
6
CONTINUOUS
10
29.0277
20
-21.5803
11
29.0253
21
-21.5852
0
LINE
8
BLACK
6
CONTINUOUS
10
29.0253
20
-21.5852
11
29.0228
21
-21.5876
0
LINE
8
BLACK
6
CONTINUOUS
10
29.0228
20
-21.5876
11
29.018
21
-21.5901
0
LINE
8
BLACK
6
CONTINUOUS
10
29.018
20
-21.5901
11
29.0058
21
-21.5901
0
LINE
8
BLACK
6
CONTINUOUS
10
29.0058
20
-21.5901
11
29.0009
21
-21.5876
0
LINE
8
BLACK
6
CONTINUOUS
10
29.0009
20
-21.5876
11
28.9985
21
-21.5852
0
LINE
8
BLACK
6
CONTINUOUS
10
30.9475
20
-21.5901
11
30.9182
21
-21.5901
0
LINE
8
BLACK
6
CONTINUOUS
10
30.9328
20
-21.5901
11
30.9328
21
-21.5389
0
LINE
8
BLACK
6
CONTINUOUS
10
30.9328
20
-21.5389
11
30.928
21
-21.5462
0
LINE
8
BLACK
6
CONTINUOUS
10
30.928
20
-21.5462
11
30.9231
21
-21.5511
0
LINE
8
BLACK
6
CONTINUOUS
10
30.9231
20
-21.5511
11
30.9182
21
-21.5535
0
LINE
8
BLACK
6
CONTINUOUS
10
30.9913
20
-21.5389
11
30.9816
21
-21.5389
0
LINE
8
BLACK
6
CONTINUOUS
10
30.9816
20
-21.5389
11
30.9767
21
-21.5413
0
LINE
8
BLACK
6
CONTINUOUS
10
30.9767
20
-21.5413
11
30.9743
21
-21.5438
0
LINE
8
BLACK
6
CONTINUOUS
10
30.9743
20
-21.5438
11
30.9694
21
-21.5511
0
LINE
8
BLACK
6
CONTINUOUS
10
30.9694
20
-21.5511
11
30.967
21
-21.5608
0
LINE
8
BLACK
6
CONTINUOUS
10
30.967
20
-21.5608
11
30.967
21
-21.5803
0
LINE
8
BLACK
6
CONTINUOUS
10
30.967
20
-21.5803
11
30.9694
21
-21.5852
0
LINE
8
BLACK
6
CONTINUOUS
10
30.9694
20
-21.5852
11
30.9718
21
-21.5876
0
LINE
8
BLACK
6
CONTINUOUS
10
30.9718
20
-21.5876
11
30.9767
21
-21.5901
0
LINE
8
BLACK
6
CONTINUOUS
10
30.9767
20
-21.5901
11
30.9865
21
-21.5901
0
LINE
8
BLACK
6
CONTINUOUS
10
30.9865
20
-21.5901
11
30.9913
21
-21.5876
0
LINE
8
BLACK
6
CONTINUOUS
10
30.9913
20
-21.5876
11
30.9938
21
-21.5852
0
LINE
8
BLACK
6
CONTINUOUS
10
30.9938
20
-21.5852
11
30.9962
21
-21.5803
0
LINE
8
BLACK
6
CONTINUOUS
10
30.9962
20
-21.5803
11
30.9962
21
-21.5681
0
LINE
8
BLACK
6
CONTINUOUS
10
30.9962
20
-21.5681
11
30.9938
21
-21.5633
0
LINE
8
BLACK
6
CONTINUOUS
10
30.9938
20
-21.5633
11
30.9913
21
-21.5608
0
LINE
8
BLACK
6
CONTINUOUS
10
30.9913
20
-21.5608
11
30.9865
21
-21.5584
0
LINE
8
BLACK
6
CONTINUOUS
10
30.9865
20
-21.5584
11
30.9767
21
-21.5584
0
LINE
8
BLACK
6
CONTINUOUS
10
30.9767
20
-21.5584
11
30.9718
21
-21.5608
0
LINE
8
BLACK
6
CONTINUOUS
10
30.9718
20
-21.5608
11
30.9694
21
-21.5633
0
LINE
8
BLACK
6
CONTINUOUS
10
30.9694
20
-21.5633
11
30.967
21
-21.5681
0
LINE
8
BLACK
6
CONTINUOUS
10
32.916
20
-21.5901
11
32.8867
21
-21.5901
0
LINE
8
BLACK
6
CONTINUOUS
10
32.9013
20
-21.5901
11
32.9013
21
-21.5389
0
LINE
8
BLACK
6
CONTINUOUS
10
32.9013
20
-21.5389
11
32.8965
21
-21.5462
0
LINE
8
BLACK
6
CONTINUOUS
10
32.8965
20
-21.5462
11
32.8916
21
-21.5511
0
LINE
8
BLACK
6
CONTINUOUS
10
32.8916
20
-21.5511
11
32.8867
21
-21.5535
0
LINE
8
BLACK
6
CONTINUOUS
10
32.933
20
-21.5389
11
32.9671
21
-21.5389
0
LINE
8
BLACK
6
CONTINUOUS
10
32.9671
20
-21.5389
11
32.9452
21
-21.5901
0
LINE
8
BLACK
6
CONTINUOUS
10
0.393701
20
-2.3622
11
0.472441
21
-2.3622
0
LINE
8
BLACK
6
CONTINUOUS
10
0.393701
20
-4.33071
11
0.472441
21
-4.33071
0
LINE
8
BLACK
6
CONTINUOUS
10
0.393701
20
-6.29921
11
0.472441
21
-6.29921
0
LINE
8
BLACK
6
CONTINUOUS
10
0.393701
20
-8.26772
11
0.472441
21
-8.26772
0
LINE
8
BLACK
6
CONTINUOUS
10
0.393701
20
-10.2362
11
0.472441
21
-10.2362
0
LINE
8
BLACK
6
CONTINUOUS
10
0.393701
20
-12.2047
11
0.472441
21
-12.2047
0
LINE
8
BLACK
6
CONTINUOUS
10
0.393701
20
-14.1732
11
0.472441
21
-14.1732
0
LINE
8
BLACK
6
CONTINUOUS
10
0.393701
20
-16.1417
11
0.472441
21
-16.1417
0
LINE
8
BLACK
6
CONTINUOUS
10
0.393701
20
-18.1102
11
0.472441
21
-18.1102
0
LINE
8
BLACK
6
CONTINUOUS
10
0.393701
20
-20.0787
11
0.472441
21
-20.0787
0
LINE
8
BLACK
6
CONTINUOUS
10
0.420885
20
-1.38648
11
0.445257
21
-1.38648
0
LINE
8
BLACK
6
CONTINUOUS
10
0.41601
20
-1.40111
11
0.433071
21
-1.34993
0
LINE
8
BLACK
6
CONTINUOUS
10
0.433071
20
-1.34993
11
0.450131
21
-1.40111
0
LINE
8
BLACK
6
CONTINUOUS
10
0.436727
20
-3.3428
11
0.444038
21
-3.34524
0
LINE
8
BLACK
6
CONTINUOUS
10
0.444038
20
-3.34524
11
0.446475
21
-3.34768
0
LINE
8
BLACK
6
CONTINUOUS
10
0.446475
20
-3.34768
11
0.448913
21
-3.35255
0
LINE
8
BLACK
6
CONTINUOUS
10
0.448913
20
-3.35255
11
0.448913
21
-3.35986
0
LINE
8
BLACK
6
CONTINUOUS
10
0.448913
20
-3.35986
11
0.446475
21
-3.36474
0
LINE
8
BLACK
6
CONTINUOUS
10
0.446475
20
-3.36474
11
0.444038
21
-3.36717
0
LINE
8
BLACK
6
CONTINUOUS
10
0.444038
20
-3.36717
11
0.439164
21
-3.36961
0
LINE
8
BLACK
6
CONTINUOUS
10
0.439164
20
-3.36961
11
0.419666
21
-3.36961
0
LINE
8
BLACK
6
CONTINUOUS
10
0.419666
20
-3.36961
11
0.419666
21
-3.31843
0
LINE
8
BLACK
6
CONTINUOUS
10
0.419666
20
-3.31843
11
0.436727
21
-3.31843
0
LINE
8
BLACK
6
CONTINUOUS
10
0.436727
20
-3.31843
11
0.441601
21
-3.32087
0
LINE
8
BLACK
6
CONTINUOUS
10
0.441601
20
-3.32087
11
0.444038
21
-3.3233
0
LINE
8
BLACK
6
CONTINUOUS
10
0.444038
20
-3.3233
11
0.446475
21
-3.32818
0
LINE
8
BLACK
6
CONTINUOUS
10
0.446475
20
-3.32818
11
0.446475
21
-3.33305
0
LINE
8
BLACK
6
CONTINUOUS
10
0.446475
20
-3.33305
11
0.444038
21
-3.33793
0
LINE
8
BLACK
6
CONTINUOUS
10
0.444038
20
-3.33793
11
0.441601
21
-3.34036
0
LINE
8
BLACK
6
CONTINUOUS
10
0.441601
20
-3.34036
11
0.436727
21
-3.3428
0
LINE
8
BLACK
6
CONTINUOUS
10
0.436727
20
-3.3428
11
0.419666
21
-3.3428
0
LINE
8
BLACK
6
CONTINUOUS
10
0.448913
20
-5.33324
11
0.446475
21
-5.33568
0
LINE
8
BLACK
6
CONTINUOUS
10
0.446475
20
-5.33568
11
0.439164
21
-5.33811
0
LINE
8
BLACK
6
CONTINUOUS
10
0.439164
20
-5.33811
11
0.434289
21
-5.33811
0
LINE
8
BLACK
6
CONTINUOUS
10
0.434289
20
-5.33811
11
0.426978
21
-5.33568
0
LINE
8
BLACK
6
CONTINUOUS
10
0.426978
20
-5.33568
11
0.422103
21
-5.3308
0
LINE
8
BLACK
6
CONTINUOUS
10
0.422103
20
-5.3308
11
0.419666
21
-5.32593
0
LINE
8
BLACK
6
CONTINUOUS
10
0.419666
20
-5.32593
11
0.417229
21
-5.31618
0
LINE
8
BLACK
6
CONTINUOUS
10
0.417229
20
-5.31618
11
0.417229
21
-5.30887
0
LINE
8
BLACK
6
CONTINUOUS
10
0.417229
20
-5.30887
11
0.419666
21
-5.29912
0
LINE
8
BLACK
6
CONTINUOUS
10
0.419666
20
-5.29912
11
0.422103
21
-5.29424
0
LINE
8
BLACK
6
CONTINUOUS
10
0.422103
20
-5.29424
11
0.426978
21
-5.28937
0
LINE
8
BLACK
6
CONTINUOUS
10
0.426978
20
-5.28937
11
0.434289
21
-5.28693
0
LINE
8
BLACK
6
CONTINUOUS
10
0.434289
20
-5.28693
11
0.439164
21
-5.28693
0
LINE
8
BLACK
6
CONTINUOUS
10
0.439164
20
-5.28693
11
0.446475
21
-5.28937
0
LINE
8
BLACK
6
CONTINUOUS
10
0.446475
20
-5.28937
11
0.448913
21
-5.29181
0
LINE
8
BLACK
6
CONTINUOUS
10
0.419666
20
-7.30662
11
0.419666
21
-7.25544
0
LINE
8
BLACK
6
CONTINUOUS
10
0.419666
20
-7.25544
11
0.431852
21
-7.25544
0
LINE
8
BLACK
6
CONTINUOUS
10
0.431852
20
-7.25544
11
0.439164
21
-7.25787
0
LINE
8
BLACK
6
CONTINUOUS
10
0.439164
20
-7.25787
11
0.444038
21
-7.26275
0
LINE
8
BLACK
6
CONTINUOUS
10
0.444038
20
-7.26275
11
0.446475
21
-7.26762
0
LINE
8
BLACK
6
CONTINUOUS
10
0.446475
20
-7.26762
11
0.448913
21
-7.27737
0
LINE
8
BLACK
6
CONTINUOUS
10
0.448913
20
-7.27737
11
0.448913
21
-7.28468
0
LINE
8
BLACK
6
CONTINUOUS
10
0.448913
20
-7.28468
11
0.446475
21
-7.29443
0
LINE
8
BLACK
6
CONTINUOUS
10
0.446475
20
-7.29443
11
0.444038
21
-7.29931
0
LINE
8
BLACK
6
CONTINUOUS
10
0.444038
20
-7.29931
11
0.439164
21
-7.30418
0
LINE
8
BLACK
6
CONTINUOUS
10
0.439164
20
-7.30418
11
0.431852
21
-7.30662
0
LINE
8
BLACK
6
CONTINUOUS
10
0.431852
20
-7.30662
11
0.419666
21
-7.30662
0
LINE
8
BLACK
6
CONTINUOUS
10
0.422103
20
-9.24831
11
0.439164
21
-9.24831
0
LINE
8
BLACK
6
CONTINUOUS
10
0.446475
20
-9.27512
11
0.422103
21
-9.27512
0
LINE
8
BLACK
6
CONTINUOUS
10
0.422103
20
-9.27512
11
0.422103
21
-9.22394
0
LINE
8
BLACK
6
CONTINUOUS
10
0.422103
20
-9.22394
11
0.446475
21
-9.22394
0
LINE
8
BLACK
6
CONTINUOUS
10
0.440382
20
-11.2168
11
0.423322
21
-11.2168
0
LINE
8
BLACK
6
CONTINUOUS
10
0.423322
20
-11.2436
11
0.423322
21
-11.1924
0
LINE
8
BLACK
6
CONTINUOUS
10
0.423322
20
-11.1924
11
0.447694
21
-11.1924
0
LINE
8
BLACK
6
CONTINUOUS
10
0.446475
20
-13.1634
11
0.441601
21
-13.1609
0
LINE
8
BLACK
6
CONTINUOUS
10
0.441601
20
-13.1609
11
0.434289
21
-13.1609
0
LINE
8
BLACK
6
CONTINUOUS
10
0.434289
20
-13.1609
11
0.426978
21
-13.1634
0
LINE
8
BLACK
6
CONTINUOUS
10
0.426978
20
-13.1634
11
0.422103
21
-13.1683
0
LINE
8
BLACK
6
CONTINUOUS
10
0.422103
20
-13.1683
11
0.419666
21
-13.1731
0
LINE
8
BLACK
6
CONTINUOUS
10
0.419666
20
-13.1731
11
0.417229
21
-13.1829
0
LINE
8
BLACK
6
CONTINUOUS
10
0.417229
20
-13.1829
11
0.417229
21
-13.1902
0
LINE
8
BLACK
6
CONTINUOUS
10
0.417229
20
-13.1902
11
0.419666
21
-13.1999
0
LINE
8
BLACK
6
CONTINUOUS
10
0.419666
20
-13.1999
11
0.422103
21
-13.2048
0
LINE
8
BLACK
6
CONTINUOUS
10
0.422103
20
-13.2048
11
0.426978
21
-13.2097
0
LINE
8
BLACK
6
CONTINUOUS
10
0.426978
20
-13.2097
11
0.434289
21
-13.2121
0
LINE
8
BLACK
6
CONTINUOUS
10
0.434289
20
-13.2121
11
0.439164
21
-13.2121
0
LINE
8
BLACK
6
CONTINUOUS
10
0.439164
20
-13.2121
11
0.446475
21
-13.2097
0
LINE
8
BLACK
6
CONTINUOUS
10
0.446475
20
-13.2097
11
0.448913
21
-13.2073
0
LINE
8
BLACK
6
CONTINUOUS
10
0.448913
20
-13.2073
11
0.448913
21
-13.1902
0
LINE
8
BLACK
6
CONTINUOUS
10
0.448913
20
-13.1902
11
0.439164
21
-13.1902
0
LINE
8
BLACK
6
CONTINUOUS
10
0.418448
20
-15.1806
11
0.418448
21
-15.1295
0
LINE
8
BLACK
6
CONTINUOUS
10
0.418448
20
-15.1538
11
0.447694
21
-15.1538
0
LINE
8
BLACK
6
CONTINUOUS
10
0.447694
20
-15.1806
11
0.447694
21
-15.1295
0
LINE
8
BLACK
6
CONTINUOUS
10
0.433071
20
-17.1491
11
0.433071
21
-17.098
0
LINE
8
BLACK
6
CONTINUOUS
10
0.440382
20
-19.0665
11
0.440382
21
-19.103
0
LINE
8
BLACK
6
CONTINUOUS
10
0.440382
20
-19.103
11
0.437945
21
-19.1103
0
LINE
8
BLACK
6
CONTINUOUS
10
0.437945
20
-19.1103
11
0.433071
21
-19.1152
0
LINE
8
BLACK
6
CONTINUOUS
10
0.433071
20
-19.1152
11
0.425759
21
-19.1176
0
LINE
8
BLACK
6
CONTINUOUS
10
0.425759
20
-19.1176
11
0.420885
21
-19.1176
0
LINE
8
BLACK
6
CONTINUOUS
10
0.419666
20
-21.0861
11
0.419666
21
-21.035
0
LINE
8
BLACK
6
CONTINUOUS
10
0.448913
20
-21.0861
11
0.426978
21
-21.0569
0
LINE
8
BLACK
6
CONTINUOUS
10
0.448913
20
-21.035
11
0.419666
21
-21.0642
0
LINE
8
BLACK
6
CONTINUOUS
10
33.6063
20
-2.3622
11
33.5276
21
-2.3622
0
LINE
8
BLACK
6
CONTINUOUS
10
33.6063
20
-4.33071
11
33.5276
21
-4.33071
0
LINE
8
BLACK
6
CONTINUOUS
10
33.6063
20
-6.29921
11
33.5276
21
-6.29921
0
LINE
8
BLACK
6
CONTINUOUS
10
33.6063
20
-8.26772
11
33.5276
21
-8.26772
0
LINE
8
BLACK
6
CONTINUOUS
10
33.6063
20
-10.2362
11
33.5276
21
-10.2362
0
LINE
8
BLACK
6
CONTINUOUS
10
33.6063
20
-12.2047
11
33.5276
21
-12.2047
0
LINE
8
BLACK
6
CONTINUOUS
10
33.6063
20
-14.1732
11
33.5276
21
-14.1732
0
LINE
8
BLACK
6
CONTINUOUS
10
33.6063
20
-16.1417
11
33.5276
21
-16.1417
0
LINE
8
BLACK
6
CONTINUOUS
10
33.6063
20
-18.1102
11
33.5276
21
-18.1102
0
LINE
8
BLACK
6
CONTINUOUS
10
33.6063
20
-20.0787
11
33.5276
21
-20.0787
0
LINE
8
BLACK
6
CONTINUOUS
10
33.5547
20
-1.38648
11
33.5791
21
-1.38648
0
LINE
8
BLACK
6
CONTINUOUS
10
33.5499
20
-1.40111
11
33.5669
21
-1.34993
0
LINE
8
BLACK
6
CONTINUOUS
10
33.5669
20
-1.34993
11
33.584
21
-1.40111
0
LINE
8
BLACK
6
CONTINUOUS
10
33.5706
20
-3.3428
11
33.5779
21
-3.34524
0
LINE
8
BLACK
6
CONTINUOUS
10
33.5779
20
-3.34524
11
33.5803
21
-3.34768
0
LINE
8
BLACK
6
CONTINUOUS
10
33.5803
20
-3.34768
11
33.5828
21
-3.35255
0
LINE
8
BLACK
6
CONTINUOUS
10
33.5828
20
-3.35255
11
33.5828
21
-3.35986
0
LINE
8
BLACK
6
CONTINUOUS
10
33.5828
20
-3.35986
11
33.5803
21
-3.36474
0
LINE
8
BLACK
6
CONTINUOUS
10
33.5803
20
-3.36474
11
33.5779
21
-3.36717
0
LINE
8
BLACK
6
CONTINUOUS
10
33.5779
20
-3.36717
11
33.573
21
-3.36961
0
LINE
8
BLACK
6
CONTINUOUS
10
33.573
20
-3.36961
11
33.5535
21
-3.36961
0
LINE
8
BLACK
6
CONTINUOUS
10
33.5535
20
-3.36961
11
33.5535
21
-3.31843
0
LINE
8
BLACK
6
CONTINUOUS
10
33.5535
20
-3.31843
11
33.5706
21
-3.31843
0
LINE
8
BLACK
6
CONTINUOUS
10
33.5706
20
-3.31843
11
33.5755
21
-3.32087
0
LINE
8
BLACK
6
CONTINUOUS
10
33.5755
20
-3.32087
11
33.5779
21
-3.3233
0
LINE
8
BLACK
6
CONTINUOUS
10
33.5779
20
-3.3233
11
33.5803
21
-3.32818
0
LINE
8
BLACK
6
CONTINUOUS
10
33.5803
20
-3.32818
11
33.5803
21
-3.33305
0
LINE
8
BLACK
6
CONTINUOUS
10
33.5803
20
-3.33305
11
33.5779
21
-3.33793
0
LINE
8
BLACK
6
CONTINUOUS
10
33.5779
20
-3.33793
11
33.5755
21
-3.34036
0
LINE
8
BLACK
6
CONTINUOUS
10
33.5755
20
-3.34036
11
33.5706
21
-3.3428
0
LINE
8
BLACK
6
CONTINUOUS
10
33.5706
20
-3.3428
11
33.5535
21
-3.3428
0
LINE
8
BLACK
6
CONTINUOUS
10
33.5828
20
-5.33324
11
33.5803
21
-5.33568
0
LINE
8
BLACK
6
CONTINUOUS
10
33.5803
20
-5.33568
11
33.573
21
-5.33811
0
LINE
8
BLACK
6
CONTINUOUS
10
33.573
20
-5.33811
11
33.5681
21
-5.33811
0
LINE
8
BLACK
6
CONTINUOUS
10
33.5681
20
-5.33811
11
33.5608
21
-5.33568
0
LINE
8
BLACK
6
CONTINUOUS
10
33.5608
20
-5.33568
11
33.556
21
-5.3308
0
LINE
8
BLACK
6
CONTINUOUS
10
33.556
20
-5.3308
11
33.5535
21
-5.32593
0
LINE
8
BLACK
6
CONTINUOUS
10
33.5535
20
-5.32593
11
33.5511
21
-5.31618
0
LINE
8
BLACK
6
CONTINUOUS
10
33.5511
20
-5.31618
11
33.5511
21
-5.30887
0
LINE
8
BLACK
6
CONTINUOUS
10
33.5511
20
-5.30887
11
33.5535
21
-5.29912
0
LINE
8
BLACK
6
CONTINUOUS
10
33.5535
20
-5.29912
11
33.556
21
-5.29424
0
LINE
8
BLACK
6
CONTINUOUS
10
33.556
20
-5.29424
11
33.5608
21
-5.28937
0
LINE
8
BLACK
6
CONTINUOUS
10
33.5608
20
-5.28937
11
33.5681
21
-5.28693
0
LINE
8
BLACK
6
CONTINUOUS
10
33.5681
20
-5.28693
11
33.573
21
-5.28693
0
LINE
8
BLACK
6
CONTINUOUS
10
33.573
20
-5.28693
11
33.5803
21
-5.28937
0
LINE
8
BLACK
6
CONTINUOUS
10
33.5803
20
-5.28937
11
33.5828
21
-5.29181
0
LINE
8
BLACK
6
CONTINUOUS
10
33.5535
20
-7.30662
11
33.5535
21
-7.25544
0
LINE
8
BLACK
6
CONTINUOUS
10
33.5535
20
-7.25544
11
33.5657
21
-7.25544
0
LINE
8
BLACK
6
CONTINUOUS
10
33.5657
20
-7.25544
11
33.573
21
-7.25787
0
LINE
8
BLACK
6
CONTINUOUS
10
33.573
20
-7.25787
11
33.5779
21
-7.26275
0
LINE
8
BLACK
6
CONTINUOUS
10
33.5779
20
-7.26275
11
33.5803
21
-7.26762
0
LINE
8
BLACK
6
CONTINUOUS
10
33.5803
20
-7.26762
11
33.5828
21
-7.27737
0
LINE
8
BLACK
6
CONTINUOUS
10
33.5828
20
-7.27737
11
33.5828
21
-7.28468
0
LINE
8
BLACK
6
CONTINUOUS
10
33.5828
20
-7.28468
11
33.5803
21
-7.29443
0
LINE
8
BLACK
6
CONTINUOUS
10
33.5803
20
-7.29443
11
33.5779
21
-7.29931
0
LINE
8
BLACK
6
CONTINUOUS
10
33.5779
20
-7.29931
11
33.573
21
-7.30418
0
LINE
8
BLACK
6
CONTINUOUS
10
33.573
20
-7.30418
11
33.5657
21
-7.30662
0
LINE
8
BLACK
6
CONTINUOUS
10
33.5657
20
-7.30662
11
33.5535
21
-7.30662
0
LINE
8
BLACK
6
CONTINUOUS
10
33.556
20
-9.24831
11
33.573
21
-9.24831
0
LINE
8
BLACK
6
CONTINUOUS
10
33.5803
20
-9.27512
11
33.556
21
-9.27512
0
LINE
8
BLACK
6
CONTINUOUS
10
33.556
20
-9.27512
11
33.556
21
-9.22394
0
LINE
8
BLACK
6
CONTINUOUS
10
33.556
20
-9.22394
11
33.5803
21
-9.22394
0
LINE
8
BLACK
6
CONTINUOUS
10
33.5742
20
-11.2168
11
33.5572
21
-11.2168
0
LINE
8
BLACK
6
CONTINUOUS
10
33.5572
20
-11.2436
11
33.5572
21
-11.1924
0
LINE
8
BLACK
6
CONTINUOUS
10
33.5572
20
-11.1924
11
33.5816
21
-11.1924
0
LINE
8
BLACK
6
CONTINUOUS
10
33.5803
20
-13.1634
11
33.5755
21
-13.1609
0
LINE
8
BLACK
6
CONTINUOUS
10
33.5755
20
-13.1609
11
33.5681
21
-13.1609
0
LINE
8
BLACK
6
CONTINUOUS
10
33.5681
20
-13.1609
11
33.5608
21
-13.1634
0
LINE
8
BLACK
6
CONTINUOUS
10
33.5608
20
-13.1634
11
33.556
21
-13.1683
0
LINE
8
BLACK
6
CONTINUOUS
10
33.556
20
-13.1683
11
33.5535
21
-13.1731
0
LINE
8
BLACK
6
CONTINUOUS
10
33.5535
20
-13.1731
11
33.5511
21
-13.1829
0
LINE
8
BLACK
6
CONTINUOUS
10
33.5511
20
-13.1829
11
33.5511
21
-13.1902
0
LINE
8
BLACK
6
CONTINUOUS
10
33.5511
20
-13.1902
11
33.5535
21
-13.1999
0
LINE
8
BLACK
6
CONTINUOUS
10
33.5535
20
-13.1999
11
33.556
21
-13.2048
0
LINE
8
BLACK
6
CONTINUOUS
10
33.556
20
-13.2048
11
33.5608
21
-13.2097
0
LINE
8
BLACK
6
CONTINUOUS
10
33.5608
20
-13.2097
11
33.5681
21
-13.2121
0
LINE
8
BLACK
6
CONTINUOUS
10
33.5681
20
-13.2121
11
33.573
21
-13.2121
0
LINE
8
BLACK
6
CONTINUOUS
10
33.573
20
-13.2121
11
33.5803
21
-13.2097
0
LINE
8
BLACK
6
CONTINUOUS
10
33.5803
20
-13.2097
11
33.5828
21
-13.2073
0
LINE
8
BLACK
6
CONTINUOUS
10
33.5828
20
-13.2073
11
33.5828
21
-13.1902
0
LINE
8
BLACK
6
CONTINUOUS
10
33.5828
20
-13.1902
11
33.573
21
-13.1902
0
LINE
8
BLACK
6
CONTINUOUS
10
33.5523
20
-15.1806
11
33.5523
21
-15.1295
0
LINE
8
BLACK
6
CONTINUOUS
10
33.5523
20
-15.1538
11
33.5816
21
-15.1538
0
LINE
8
BLACK
6
CONTINUOUS
10
33.5816
20
-15.1806
11
33.5816
21
-15.1295
0
LINE
8
BLACK
6
CONTINUOUS
10
33.5669
20
-17.1491
11
33.5669
21
-17.098
0
LINE
8
BLACK
6
CONTINUOUS
10
33.5742
20
-19.0665
11
33.5742
21
-19.103
0
LINE
8
BLACK
6
CONTINUOUS
10
33.5742
20
-19.103
11
33.5718
21
-19.1103
0
LINE
8
BLACK
6
CONTINUOUS
10
33.5718
20
-19.1103
11
33.5669
21
-19.1152
0
LINE
8
BLACK
6
CONTINUOUS
10
33.5669
20
-19.1152
11
33.5596
21
-19.1176
0
LINE
8
BLACK
6
CONTINUOUS
10
33.5596
20
-19.1176
11
33.5547
21
-19.1176
0
LINE
8
BLACK
6
CONTINUOUS
10
33.5535
20
-21.0861
11
33.5535
21
-21.035
0
LINE
8
BLACK
6
CONTINUOUS
10
33.5828
20
-21.0861
11
33.5608
21
-21.0569
0
LINE
8
BLACK
6
CONTINUOUS
10
33.5828
20
-21.035
11
33.5535
21
-21.0642
0
LINE
8
BLACK
6
CONTINUOUS
10
30.1981
20
-21.3614
11
30.1981
21
-21.3023
0
LINE
8
BLACK
6
CONTINUOUS
10
30.1981
20
-21.3023
11
30.2122
21
-21.3023
0
LINE
8
BLACK
6
CONTINUOUS
10
30.2122
20
-21.3023
11
30.2206
21
-21.3051
0
LINE
8
BLACK
6
CONTINUOUS
10
30.2206
20
-21.3051
11
30.2262
21
-21.3107
0
LINE
8
BLACK
6
CONTINUOUS
10
30.2262
20
-21.3107
11
30.229
21
-21.3164
0
LINE
8
BLACK
6
CONTINUOUS
10
30.229
20
-21.3164
11
30.2319
21
-21.3276
0
LINE
8
BLACK
6
CONTINUOUS
10
30.2319
20
-21.3276
11
30.2319
21
-21.3361
0
LINE
8
BLACK
6
CONTINUOUS
10
30.2319
20
-21.3361
11
30.229
21
-21.3473
0
LINE
8
BLACK
6
CONTINUOUS
10
30.229
20
-21.3473
11
30.2262
21
-21.3529
0
LINE
8
BLACK
6
CONTINUOUS
10
30.2262
20
-21.3529
11
30.2206
21
-21.3585
0
LINE
8
BLACK
6
CONTINUOUS
10
30.2206
20
-21.3585
11
30.2122
21
-21.3614
0
LINE
8
BLACK
6
CONTINUOUS
10
30.2122
20
-21.3614
11
30.1981
21
-21.3614
0
LINE
8
BLACK
6
CONTINUOUS
10
30.2825
20
-21.3614
11
30.2825
21
-21.3304
0
LINE
8
BLACK
6
CONTINUOUS
10
30.2825
20
-21.3304
11
30.2797
21
-21.3248
0
LINE
8
BLACK
6
CONTINUOUS
10
30.2797
20
-21.3248
11
30.274
21
-21.322
0
LINE
8
BLACK
6
CONTINUOUS
10
30.274
20
-21.322
11
30.2628
21
-21.322
0
LINE
8
BLACK
6
CONTINUOUS
10
30.2628
20
-21.322
11
30.2572
21
-21.3248
0
LINE
8
BLACK
6
CONTINUOUS
10
30.2825
20
-21.3585
11
30.2769
21
-21.3614
0
LINE
8
BLACK
6
CONTINUOUS
10
30.2769
20
-21.3614
11
30.2628
21
-21.3614
0
LINE
8
BLACK
6
CONTINUOUS
10
30.2628
20
-21.3614
11
30.2572
21
-21.3585
0
LINE
8
BLACK
6
CONTINUOUS
10
30.2572
20
-21.3585
11
30.2544
21
-21.3529
0
LINE
8
BLACK
6
CONTINUOUS
10
30.2544
20
-21.3529
11
30.2544
21
-21.3473
0
LINE
8
BLACK
6
CONTINUOUS
10
30.2544
20
-21.3473
11
30.2572
21
-21.3417
0
LINE
8
BLACK
6
CONTINUOUS
10
30.2572
20
-21.3417
11
30.2628
21
-21.3389
0
LINE
8
BLACK
6
CONTINUOUS
10
30.2628
20
-21.3389
11
30.2769
21
-21.3389
0
LINE
8
BLACK
6
CONTINUOUS
10
30.2769
20
-21.3389
11
30.2825
21
-21.3361
0
LINE
8
BLACK
6
CONTINUOUS
10
30.3022
20
-21.322
11
30.3247
21
-21.322
0
LINE
8
BLACK
6
CONTINUOUS
10
30.3106
20
-21.3023
11
30.3106
21
-21.3529
0
LINE
8
BLACK
6
CONTINUOUS
10
30.3106
20
-21.3529
11
30.3134
21
-21.3585
0
LINE
8
BLACK
6
CONTINUOUS
10
30.3134
20
-21.3585
11
30.319
21
-21.3614
0
LINE
8
BLACK
6
CONTINUOUS
10
30.319
20
-21.3614
11
30.3247
21
-21.3614
0
LINE
8
BLACK
6
CONTINUOUS
10
30.3668
20
-21.3585
11
30.3612
21
-21.3614
0
LINE
8
BLACK
6
CONTINUOUS
10
30.3612
20
-21.3614
11
30.35
21
-21.3614
0
LINE
8
BLACK
6
CONTINUOUS
10
30.35
20
-21.3614
11
30.3443
21
-21.3585
0
LINE
8
BLACK
6
CONTINUOUS
10
30.3443
20
-21.3585
11
30.3415
21
-21.3529
0
LINE
8
BLACK
6
CONTINUOUS
10
30.3415
20
-21.3529
11
30.3415
21
-21.3304
0
LINE
8
BLACK
6
CONTINUOUS
10
30.3415
20
-21.3304
11
30.3443
21
-21.3248
0
LINE
8
BLACK
6
CONTINUOUS
10
30.3443
20
-21.3248
11
30.35
21
-21.322
0
LINE
8
BLACK
6
CONTINUOUS
10
30.35
20
-21.322
11
30.3612
21
-21.322
0
LINE
8
BLACK
6
CONTINUOUS
10
30.3612
20
-21.322
11
30.3668
21
-21.3248
0
LINE
8
BLACK
6
CONTINUOUS
10
30.3668
20
-21.3248
11
30.3697
21
-21.3304
0
LINE
8
BLACK
6
CONTINUOUS
10
30.3697
20
-21.3304
11
30.3697
21
-21.3361
0
LINE
8
BLACK
6
CONTINUOUS
10
30.3697
20
-21.3361
11
30.3415
21
-21.3417
0
LINE
8
BLACK
6
CONTINUOUS
10
30.395
20
-21.3557
11
30.3978
21
-21.3585
0
LINE
8
BLACK
6
CONTINUOUS
10
30.3978
20
-21.3585
11
30.395
21
-21.3614
0
LINE
8
BLACK
6
CONTINUOUS
10
30.395
20
-21.3614
11
30.3922
21
-21.3585
0
LINE
8
BLACK
6
CONTINUOUS
10
30.3922
20
-21.3585
11
30.395
21
-21.3557
0
LINE
8
BLACK
6
CONTINUOUS
10
30.395
20
-21.3557
11
30.395
21
-21.3614
0
LINE
8
BLACK
6
CONTINUOUS
10
30.395
20
-21.3248
11
30.3978
21
-21.3276
0
LINE
8
BLACK
6
CONTINUOUS
10
30.3978
20
-21.3276
11
30.395
21
-21.3304
0
LINE
8
BLACK
6
CONTINUOUS
10
30.395
20
-21.3304
11
30.3922
21
-21.3276
0
LINE
8
BLACK
6
CONTINUOUS
10
30.3922
20
-21.3276
11
30.395
21
-21.3248
0
LINE
8
BLACK
6
CONTINUOUS
10
30.395
20
-21.3248
11
30.395
21
-21.3304
0
LINE
8
BLACK
6
CONTINUOUS
10
29.2756
20
-21.3898
11
33.5276
21
-21.3898
0
LINE
8
BLACK
6
CONTINUOUS
10
29.332
20
-21.4716
11
29.332
21
-21.4125
0
LINE
8
BLACK
6
CONTINUOUS
10
29.3657
20
-21.4716
11
29.3404
21
-21.4379
0
LINE
8
BLACK
6
CONTINUOUS
10
29.3657
20
-21.4125
11
29.332
21
-21.4463
0
LINE
8
BLACK
6
CONTINUOUS
10
29.391
20
-21.4716
11
29.391
21
-21.4322
0
LINE
8
BLACK
6
CONTINUOUS
10
29.391
20
-21.4125
11
29.3882
21
-21.4154
0
LINE
8
BLACK
6
CONTINUOUS
10
29.3882
20
-21.4154
11
29.391
21
-21.4182
0
LINE
8
BLACK
6
CONTINUOUS
10
29.391
20
-21.4182
11
29.3938
21
-21.4154
0
LINE
8
BLACK
6
CONTINUOUS
10
29.3938
20
-21.4154
11
29.391
21
-21.4125
0
LINE
8
BLACK
6
CONTINUOUS
10
29.391
20
-21.4125
11
29.391
21
-21.4182
0
LINE
8
BLACK
6
CONTINUOUS
10
29.4529
20
-21.466
11
29.4501
21
-21.4688
0
LINE
8
BLACK
6
CONTINUOUS
10
29.4501
20
-21.4688
11
29.4416
21
-21.4716
0
LINE
8
BLACK
6
CONTINUOUS
10
29.4416
20
-21.4716
11
29.436
21
-21.4716
0
LINE
8
BLACK
6
CONTINUOUS
10
29.436
20
-21.4716
11
29.4276
21
-21.4688
0
LINE
8
BLACK
6
CONTINUOUS
10
29.4276
20
-21.4688
11
29.422
21
-21.4632
0
LINE
8
BLACK
6
CONTINUOUS
10
29.422
20
-21.4632
11
29.4192
21
-21.4575
0
LINE
8
BLACK
6
CONTINUOUS
10
29.4192
20
-21.4575
11
29.4163
21
-21.4463
0
LINE
8
BLACK
6
CONTINUOUS
10
29.4163
20
-21.4463
11
29.4163
21
-21.4379
0
LINE
8
BLACK
6
CONTINUOUS
10
29.4163
20
-21.4379
11
29.4192
21
-21.4266
0
LINE
8
BLACK
6
CONTINUOUS
10
29.4192
20
-21.4266
11
29.422
21
-21.421
0
LINE
8
BLACK
6
CONTINUOUS
10
29.422
20
-21.421
11
29.4276
21
-21.4154
0
LINE
8
BLACK
6
CONTINUOUS
10
29.4276
20
-21.4154
11
29.436
21
-21.4125
0
LINE
8
BLACK
6
CONTINUOUS
10
29.436
20
-21.4125
11
29.4416
21
-21.4125
0
LINE
8
BLACK
6
CONTINUOUS
10
29.4416
20
-21.4125
11
29.4501
21
-21.4154
0
LINE
8
BLACK
6
CONTINUOUS
10
29.4501
20
-21.4154
11
29.4529
21
-21.4182
0
LINE
8
BLACK
6
CONTINUOUS
10
29.5035
20
-21.4716
11
29.5035
21
-21.4407
0
LINE
8
BLACK
6
CONTINUOUS
10
29.5035
20
-21.4407
11
29.5007
21
-21.435
0
LINE
8
BLACK
6
CONTINUOUS
10
29.5007
20
-21.435
11
29.4951
21
-21.4322
0
LINE
8
BLACK
6
CONTINUOUS
10
29.4951
20
-21.4322
11
29.4838
21
-21.4322
0
LINE
8
BLACK
6
CONTINUOUS
10
29.4838
20
-21.4322
11
29.4782
21
-21.435
0
LINE
8
BLACK
6
CONTINUOUS
10
29.5035
20
-21.4688
11
29.4979
21
-21.4716
0
LINE
8
BLACK
6
CONTINUOUS
10
29.4979
20
-21.4716
11
29.4838
21
-21.4716
0
LINE
8
BLACK
6
CONTINUOUS
10
29.4838
20
-21.4716
11
29.4782
21
-21.4688
0
LINE
8
BLACK
6
CONTINUOUS
10
29.4782
20
-21.4688
11
29.4754
21
-21.4632
0
LINE
8
BLACK
6
CONTINUOUS
10
29.4754
20
-21.4632
11
29.4754
21
-21.4575
0
LINE
8
BLACK
6
CONTINUOUS
10
29.4754
20
-21.4575
11
29.4782
21
-21.4519
0
LINE
8
BLACK
6
CONTINUOUS
10
29.4782
20
-21.4519
11
29.4838
21
-21.4491
0
LINE
8
BLACK
6
CONTINUOUS
10
29.4838
20
-21.4491
11
29.4979
21
-21.4491
0
LINE
8
BLACK
6
CONTINUOUS
10
29.4979
20
-21.4491
11
29.5035
21
-21.4463
0
LINE
8
BLACK
6
CONTINUOUS
10
29.5569
20
-21.4716
11
29.5569
21
-21.4125
0
LINE
8
BLACK
6
CONTINUOUS
10
29.5569
20
-21.4688
11
29.5513
21
-21.4716
0
LINE
8
BLACK
6
CONTINUOUS
10
29.5513
20
-21.4716
11
29.5401
21
-21.4716
0
LINE
8
BLACK
6
CONTINUOUS
10
29.5401
20
-21.4716
11
29.5344
21
-21.4688
0
LINE
8
BLACK
6
CONTINUOUS
10
29.5344
20
-21.4688
11
29.5316
21
-21.466
0
LINE
8
BLACK
6
CONTINUOUS
10
29.5316
20
-21.466
11
29.5288
21
-21.4603
0
LINE
8
BLACK
6
CONTINUOUS
10
29.5288
20
-21.4603
11
29.5288
21
-21.4435
0
LINE
8
BLACK
6
CONTINUOUS
10
29.5288
20
-21.4435
11
29.5316
21
-21.4379
0
LINE
8
BLACK
6
CONTINUOUS
10
29.5316
20
-21.4379
11
29.5344
21
-21.435
0
LINE
8
BLACK
6
CONTINUOUS
10
29.5344
20
-21.435
11
29.5401
21
-21.4322
0
LINE
8
BLACK
6
CONTINUOUS
10
29.5401
20
-21.4322
11
29.5513
21
-21.4322
0
LINE
8
BLACK
6
CONTINUOUS
10
29.5513
20
-21.4322
11
29.5569
21
-21.435
0
LINE
8
BLACK
6
CONTINUOUS
10
29.6301
20
-21.4407
11
29.6497
21
-21.4407
0
LINE
8
BLACK
6
CONTINUOUS
10
29.6582
20
-21.4716
11
29.6301
21
-21.4716
0
LINE
8
BLACK
6
CONTINUOUS
10
29.6301
20
-21.4716
11
29.6301
21
-21.4125
0
LINE
8
BLACK
6
CONTINUOUS
10
29.6301
20
-21.4125
11
29.6582
21
-21.4125
0
LINE
8
BLACK
6
CONTINUOUS
10
29.6835
20
-21.466
11
29.6863
21
-21.4688
0
LINE
8
BLACK
6
CONTINUOUS
10
29.6863
20
-21.4688
11
29.6835
21
-21.4716
0
LINE
8
BLACK
6
CONTINUOUS
10
29.6835
20
-21.4716
11
29.6807
21
-21.4688
0
LINE
8
BLACK
6
CONTINUOUS
10
29.6807
20
-21.4688
11
29.6835
21
-21.466
0
LINE
8
BLACK
6
CONTINUOUS
10
29.6835
20
-21.466
11
29.6835
21
-21.4716
0
LINE
8
BLACK
6
CONTINUOUS
10
29.7116
20
-21.4716
11
29.7116
21
-21.4125
0
LINE
8
BLACK
6
CONTINUOUS
10
29.7116
20
-21.4125
11
29.7257
21
-21.4125
0
LINE
8
BLACK
6
CONTINUOUS
10
29.7257
20
-21.4125
11
29.7341
21
-21.4154
0
LINE
8
BLACK
6
CONTINUOUS
10
29.7341
20
-21.4154
11
29.7397
21
-21.421
0
LINE
8
BLACK
6
CONTINUOUS
10
29.7397
20
-21.421
11
29.7425
21
-21.4266
0
LINE
8
BLACK
6
CONTINUOUS
10
29.7425
20
-21.4266
11
29.7454
21
-21.4379
0
LINE
8
BLACK
6
CONTINUOUS
10
29.7454
20
-21.4379
11
29.7454
21
-21.4463
0
LINE
8
BLACK
6
CONTINUOUS
10
29.7454
20
-21.4463
11
29.7425
21
-21.4575
0
LINE
8
BLACK
6
CONTINUOUS
10
29.7425
20
-21.4575
11
29.7397
21
-21.4632
0
LINE
8
BLACK
6
CONTINUOUS
10
29.7397
20
-21.4632
11
29.7341
21
-21.4688
0
LINE
8
BLACK
6
CONTINUOUS
10
29.7341
20
-21.4688
11
29.7257
21
-21.4716
0
LINE
8
BLACK
6
CONTINUOUS
10
29.7257
20
-21.4716
11
29.7116
21
-21.4716
0
LINE
8
BLACK
6
CONTINUOUS
10
29.7707
20
-21.466
11
29.7735
21
-21.4688
0
LINE
8
BLACK
6
CONTINUOUS
10
29.7735
20
-21.4688
11
29.7707
21
-21.4716
0
LINE
8
BLACK
6
CONTINUOUS
10
29.7707
20
-21.4716
11
29.7679
21
-21.4688
0
LINE
8
BLACK
6
CONTINUOUS
10
29.7679
20
-21.4688
11
29.7707
21
-21.466
0
LINE
8
BLACK
6
CONTINUOUS
10
29.7707
20
-21.466
11
29.7707
21
-21.4716
0
LINE
8
BLACK
6
CONTINUOUS
10
29.796
20
-21.4547
11
29.8241
21
-21.4547
0
LINE
8
BLACK
6
CONTINUOUS
10
29.7904
20
-21.4716
11
29.81
21
-21.4125
0
LINE
8
BLACK
6
CONTINUOUS
10
29.81
20
-21.4125
11
29.8297
21
-21.4716
0
LINE
8
BLACK
6
CONTINUOUS
10
29.8494
20
-21.466
11
29.8522
21
-21.4688
0
LINE
8
BLACK
6
CONTINUOUS
10
29.8522
20
-21.4688
11
29.8494
21
-21.4716
0
LINE
8
BLACK
6
CONTINUOUS
10
29.8494
20
-21.4716
11
29.8466
21
-21.4688
0
LINE
8
BLACK
6
CONTINUOUS
10
29.8466
20
-21.4688
11
29.8494
21
-21.466
0
LINE
8
BLACK
6
CONTINUOUS
10
29.8494
20
-21.466
11
29.8494
21
-21.4716
0
LINE
8
BLACK
6
CONTINUOUS
10
29.9675
20
-21.4716
11
29.9675
21
-21.4125
0
LINE
8
BLACK
6
CONTINUOUS
10
29.9731
20
-21.4491
11
29.99
21
-21.4716
0
LINE
8
BLACK
6
CONTINUOUS
10
29.99
20
-21.4322
11
29.9675
21
-21.4547
0
LINE
8
BLACK
6
CONTINUOUS
10
30.0153
20
-21.4716
11
30.0153
21
-21.4322
0
LINE
8
BLACK
6
CONTINUOUS
10
30.0153
20
-21.4125
11
30.0125
21
-21.4154
0
LINE
8
BLACK
6
CONTINUOUS
10
30.0125
20
-21.4154
11
30.0153
21
-21.4182
0
LINE
8
BLACK
6
CONTINUOUS
10
30.0153
20
-21.4182
11
30.0181
21
-21.4154
0
LINE
8
BLACK
6
CONTINUOUS
10
30.0181
20
-21.4154
11
30.0153
21
-21.4125
0
LINE
8
BLACK
6
CONTINUOUS
10
30.0153
20
-21.4125
11
30.0153
21
-21.4182
0
LINE
8
BLACK
6
CONTINUOUS
10
30.0688
20
-21.4688
11
30.0631
21
-21.4716
0
LINE
8
BLACK
6
CONTINUOUS
10
30.0631
20
-21.4716
11
30.0519
21
-21.4716
0
LINE
8
BLACK
6
CONTINUOUS
10
30.0519
20
-21.4716
11
30.0463
21
-21.4688
0
LINE
8
BLACK
6
CONTINUOUS
10
30.0463
20
-21.4688
11
30.0434
21
-21.466
0
LINE
8
BLACK
6
CONTINUOUS
10
30.0434
20
-21.466
11
30.0406
21
-21.4603
0
LINE
8
BLACK
6
CONTINUOUS
10
30.0406
20
-21.4603
11
30.0406
21
-21.4435
0
LINE
8
BLACK
6
CONTINUOUS
10
30.0406
20
-21.4435
11
30.0434
21
-21.4379
0
LINE
8
BLACK
6
CONTINUOUS
10
30.0434
20
-21.4379
11
30.0463
21
-21.435
0
LINE
8
BLACK
6
CONTINUOUS
10
30.0463
20
-21.435
11
30.0519
21
-21.4322
0
LINE
8
BLACK
6
CONTINUOUS
10
30.0519
20
-21.4322
11
30.0631
21
-21.4322
0
LINE
8
BLACK
6
CONTINUOUS
10
30.0631
20
-21.4322
11
30.0688
21
-21.435
0
LINE
8
BLACK
6
CONTINUOUS
10
30.1194
20
-21.4716
11
30.1194
21
-21.4407
0
LINE
8
BLACK
6
CONTINUOUS
10
30.1194
20
-21.4407
11
30.1166
21
-21.435
0
LINE
8
BLACK
6
CONTINUOUS
10
30.1166
20
-21.435
11
30.1109
21
-21.4322
0
LINE
8
BLACK
6
CONTINUOUS
10
30.1109
20
-21.4322
11
30.0997
21
-21.4322
0
LINE
8
BLACK
6
CONTINUOUS
10
30.0997
20
-21.4322
11
30.0941
21
-21.435
0
LINE
8
BLACK
6
CONTINUOUS
10
30.1194
20
-21.4688
11
30.1138
21
-21.4716
0
LINE
8
BLACK
6
CONTINUOUS
10
30.1138
20
-21.4716
11
30.0997
21
-21.4716
0
LINE
8
BLACK
6
CONTINUOUS
10
30.0997
20
-21.4716
11
30.0941
21
-21.4688
0
LINE
8
BLACK
6
CONTINUOUS
10
30.0941
20
-21.4688
11
30.0913
21
-21.4632
0
LINE
8
BLACK
6
CONTINUOUS
10
30.0913
20
-21.4632
11
30.0913
21
-21.4575
0
LINE
8
BLACK
6
CONTINUOUS
10
30.0913
20
-21.4575
11
30.0941
21
-21.4519
0
LINE
8
BLACK
6
CONTINUOUS
10
30.0941
20
-21.4519
11
30.0997
21
-21.4491
0
LINE
8
BLACK
6
CONTINUOUS
10
30.0997
20
-21.4491
11
30.1138
21
-21.4491
0
LINE
8
BLACK
6
CONTINUOUS
10
30.1138
20
-21.4491
11
30.1194
21
-21.4463
0
LINE
8
BLACK
6
CONTINUOUS
10
30.1728
20
-21.4716
11
30.1728
21
-21.4125
0
LINE
8
BLACK
6
CONTINUOUS
10
30.1728
20
-21.4688
11
30.1672
21
-21.4716
0
LINE
8
BLACK
6
CONTINUOUS
10
30.1672
20
-21.4716
11
30.1559
21
-21.4716
0
LINE
8
BLACK
6
CONTINUOUS
10
30.1559
20
-21.4716
11
30.1503
21
-21.4688
0
LINE
8
BLACK
6
CONTINUOUS
10
30.1503
20
-21.4688
11
30.1475
21
-21.466
0
LINE
8
BLACK
6
CONTINUOUS
10
30.1475
20
-21.466
11
30.1447
21
-21.4603
0
LINE
8
BLACK
6
CONTINUOUS
10
30.1447
20
-21.4603
11
30.1447
21
-21.4435
0
LINE
8
BLACK
6
CONTINUOUS
10
30.1447
20
-21.4435
11
30.1475
21
-21.4379
0
LINE
8
BLACK
6
CONTINUOUS
10
30.1475
20
-21.4379
11
30.1503
21
-21.435
0
LINE
8
BLACK
6
CONTINUOUS
10
30.1503
20
-21.435
11
30.1559
21
-21.4322
0
LINE
8
BLACK
6
CONTINUOUS
10
30.1559
20
-21.4322
11
30.1672
21
-21.4322
0
LINE
8
BLACK
6
CONTINUOUS
10
30.1672
20
-21.4322
11
30.1728
21
-21.435
0
LINE
8
BLACK
6
CONTINUOUS
10
30.2628
20
-21.4941
11
30.26
21
-21.4913
0
LINE
8
BLACK
6
CONTINUOUS
10
30.26
20
-21.4913
11
30.2544
21
-21.4828
0
LINE
8
BLACK
6
CONTINUOUS
10
30.2544
20
-21.4828
11
30.2515
21
-21.4772
0
LINE
8
BLACK
6
CONTINUOUS
10
30.2515
20
-21.4772
11
30.2487
21
-21.4688
0
LINE
8
BLACK
6
CONTINUOUS
10
30.2487
20
-21.4688
11
30.2459
21
-21.4547
0
LINE
8
BLACK
6
CONTINUOUS
10
30.2459
20
-21.4547
11
30.2459
21
-21.4435
0
LINE
8
BLACK
6
CONTINUOUS
10
30.2459
20
-21.4435
11
30.2487
21
-21.4294
0
LINE
8
BLACK
6
CONTINUOUS
10
30.2487
20
-21.4294
11
30.2515
21
-21.421
0
LINE
8
BLACK
6
CONTINUOUS
10
30.2515
20
-21.421
11
30.2544
21
-21.4154
0
LINE
8
BLACK
6
CONTINUOUS
10
30.2544
20
-21.4154
11
30.26
21
-21.4069
0
LINE
8
BLACK
6
CONTINUOUS
10
30.26
20
-21.4069
11
30.2628
21
-21.4041
0
LINE
8
BLACK
6
CONTINUOUS
10
30.3134
20
-21.4125
11
30.2853
21
-21.4125
0
LINE
8
BLACK
6
CONTINUOUS
10
30.2853
20
-21.4125
11
30.2825
21
-21.4407
0
LINE
8
BLACK
6
CONTINUOUS
10
30.2825
20
-21.4407
11
30.2853
21
-21.4379
0
LINE
8
BLACK
6
CONTINUOUS
10
30.2853
20
-21.4379
11
30.2909
21
-21.435
0
LINE
8
BLACK
6
CONTINUOUS
10
30.2909
20
-21.435
11
30.305
21
-21.435
0
LINE
8
BLACK
6
CONTINUOUS
10
30.305
20
-21.435
11
30.3106
21
-21.4379
0
LINE
8
BLACK
6
CONTINUOUS
10
30.3106
20
-21.4379
11
30.3134
21
-21.4407
0
LINE
8
BLACK
6
CONTINUOUS
10
30.3134
20
-21.4407
11
30.3162
21
-21.4463
0
LINE
8
BLACK
6
CONTINUOUS
10
30.3162
20
-21.4463
11
30.3162
21
-21.4603
0
LINE
8
BLACK
6
CONTINUOUS
10
30.3162
20
-21.4603
11
30.3134
21
-21.466
0
LINE
8
BLACK
6
CONTINUOUS
10
30.3134
20
-21.466
11
30.3106
21
-21.4688
0
LINE
8
BLACK
6
CONTINUOUS
10
30.3106
20
-21.4688
11
30.305
21
-21.4716
0
LINE
8
BLACK
6
CONTINUOUS
10
30.305
20
-21.4716
11
30.2909
21
-21.4716
0
LINE
8
BLACK
6
CONTINUOUS
10
30.2909
20
-21.4716
11
30.2853
21
-21.4688
0
LINE
8
BLACK
6
CONTINUOUS
10
30.2853
20
-21.4688
11
30.2825
21
-21.466
0
LINE
8
BLACK
6
CONTINUOUS
10
30.3415
20
-21.466
11
30.3443
21
-21.4688
0
LINE
8
BLACK
6
CONTINUOUS
10
30.3443
20
-21.4688
11
30.3415
21
-21.4716
0
LINE
8
BLACK
6
CONTINUOUS
10
30.3415
20
-21.4716
11
30.3387
21
-21.4688
0
LINE
8
BLACK
6
CONTINUOUS
10
30.3387
20
-21.4688
11
30.3415
21
-21.466
0
LINE
8
BLACK
6
CONTINUOUS
10
30.3415
20
-21.466
11
30.3415
21
-21.4716
0
LINE
8
BLACK
6
CONTINUOUS
10
30.4006
20
-21.4716
11
30.3668
21
-21.4716
0
LINE
8
BLACK
6
CONTINUOUS
10
30.3837
20
-21.4716
11
30.3837
21
-21.4125
0
LINE
8
BLACK
6
CONTINUOUS
10
30.3837
20
-21.4125
11
30.3781
21
-21.421
0
LINE
8
BLACK
6
CONTINUOUS
10
30.3781
20
-21.421
11
30.3725
21
-21.4266
0
LINE
8
BLACK
6
CONTINUOUS
10
30.3725
20
-21.4266
11
30.3668
21
-21.4294
0
LINE
8
BLACK
6
CONTINUOUS
10
30.4259
20
-21.466
11
30.4287
21
-21.4688
0
LINE
8
BLACK
6
CONTINUOUS
10
30.4287
20
-21.4688
11
30.4259
21
-21.4716
0
LINE
8
BLACK
6
CONTINUOUS
10
30.4259
20
-21.4716
11
30.4231
21
-21.4688
0
LINE
8
BLACK
6
CONTINUOUS
10
30.4231
20
-21.4688
11
30.4259
21
-21.466
0
LINE
8
BLACK
6
CONTINUOUS
10
30.4259
20
-21.466
11
30.4259
21
-21.4716
0
LINE
8
BLACK
6
CONTINUOUS
10
30.4821
20
-21.4125
11
30.454
21
-21.4125
0
LINE
8
BLACK
6
CONTINUOUS
10
30.454
20
-21.4125
11
30.4512
21
-21.4407
0
LINE
8
BLACK
6
CONTINUOUS
10
30.4512
20
-21.4407
11
30.454
21
-21.4379
0
LINE
8
BLACK
6
CONTINUOUS
10
30.454
20
-21.4379
11
30.4596
21
-21.435
0
LINE
8
BLACK
6
CONTINUOUS
10
30.4596
20
-21.435
11
30.4737
21
-21.435
0
LINE
8
BLACK
6
CONTINUOUS
10
30.4737
20
-21.435
11
30.4793
21
-21.4379
0
LINE
8
BLACK
6
CONTINUOUS
10
30.4793
20
-21.4379
11
30.4821
21
-21.4407
0
LINE
8
BLACK
6
CONTINUOUS
10
30.4821
20
-21.4407
11
30.485
21
-21.4463
0
LINE
8
BLACK
6
CONTINUOUS
10
30.485
20
-21.4463
11
30.485
21
-21.4603
0
LINE
8
BLACK
6
CONTINUOUS
10
30.485
20
-21.4603
11
30.4821
21
-21.466
0
LINE
8
BLACK
6
CONTINUOUS
10
30.4821
20
-21.466
11
30.4793
21
-21.4688
0
LINE
8
BLACK
6
CONTINUOUS
10
30.4793
20
-21.4688
11
30.4737
21
-21.4716
0
LINE
8
BLACK
6
CONTINUOUS
10
30.4737
20
-21.4716
11
30.4596
21
-21.4716
0
LINE
8
BLACK
6
CONTINUOUS
10
30.4596
20
-21.4716
11
30.454
21
-21.4688
0
LINE
8
BLACK
6
CONTINUOUS
10
30.454
20
-21.4688
11
30.4512
21
-21.466
0
LINE
8
BLACK
6
CONTINUOUS
10
30.5103
20
-21.4491
11
30.5553
21
-21.4491
0
LINE
8
BLACK
6
CONTINUOUS
10
30.5946
20
-21.4125
11
30.6003
21
-21.4125
0
LINE
8
BLACK
6
CONTINUOUS
10
30.6003
20
-21.4125
11
30.6059
21
-21.4154
0
LINE
8
BLACK
6
CONTINUOUS
10
30.6059
20
-21.4154
11
30.6087
21
-21.4182
0
LINE
8
BLACK
6
CONTINUOUS
10
30.6087
20
-21.4182
11
30.6115
21
-21.4238
0
LINE
8
BLACK
6
CONTINUOUS
10
30.6115
20
-21.4238
11
30.6143
21
-21.435
0
LINE
8
BLACK
6
CONTINUOUS
10
30.6143
20
-21.435
11
30.6143
21
-21.4491
0
LINE
8
BLACK
6
CONTINUOUS
10
30.6143
20
-21.4491
11
30.6115
21
-21.4603
0
LINE
8
BLACK
6
CONTINUOUS
10
30.6115
20
-21.4603
11
30.6087
21
-21.466
0
LINE
8
BLACK
6
CONTINUOUS
10
30.6087
20
-21.466
11
30.6059
21
-21.4688
0
LINE
8
BLACK
6
CONTINUOUS
10
30.6059
20
-21.4688
11
30.6003
21
-21.4716
0
LINE
8
BLACK
6
CONTINUOUS
10
30.6003
20
-21.4716
11
30.5946
21
-21.4716
0
LINE
8
BLACK
6
CONTINUOUS
10
30.5946
20
-21.4716
11
30.589
21
-21.4688
0
LINE
8
BLACK
6
CONTINUOUS
10
30.589
20
-21.4688
11
30.5862
21
-21.466
0
LINE
8
BLACK
6
CONTINUOUS
10
30.5862
20
-21.466
11
30.5834
21
-21.4603
0
LINE
8
BLACK
6
CONTINUOUS
10
30.5834
20
-21.4603
11
30.5806
21
-21.4491
0
LINE
8
BLACK
6
CONTINUOUS
10
30.5806
20
-21.4491
11
30.5806
21
-21.435
0
LINE
8
BLACK
6
CONTINUOUS
10
30.5806
20
-21.435
11
30.5834
21
-21.4238
0
LINE
8
BLACK
6
CONTINUOUS
10
30.5834
20
-21.4238
11
30.5862
21
-21.4182
0
LINE
8
BLACK
6
CONTINUOUS
10
30.5862
20
-21.4182
11
30.589
21
-21.4154
0
LINE
8
BLACK
6
CONTINUOUS
10
30.589
20
-21.4154
11
30.5946
21
-21.4125
0
LINE
8
BLACK
6
CONTINUOUS
10
30.6396
20
-21.4491
11
30.6846
21
-21.4491
0
LINE
8
BLACK
6
CONTINUOUS
10
30.7437
20
-21.4716
11
30.7099
21
-21.4716
0
LINE
8
BLACK
6
CONTINUOUS
10
30.7268
20
-21.4716
11
30.7268
21
-21.4125
0
LINE
8
BLACK
6
CONTINUOUS
10
30.7268
20
-21.4125
11
30.7212
21
-21.421
0
LINE
8
BLACK
6
CONTINUOUS
10
30.7212
20
-21.421
11
30.7156
21
-21.4266
0
LINE
8
BLACK
6
CONTINUOUS
10
30.7156
20
-21.4266
11
30.7099
21
-21.4294
0
LINE
8
BLACK
6
CONTINUOUS
10
30.7802
20
-21.4125
11
30.7859
21
-21.4125
0
LINE
8
BLACK
6
CONTINUOUS
10
30.7859
20
-21.4125
11
30.7915
21
-21.4154
0
LINE
8
BLACK
6
CONTINUOUS
10
30.7915
20
-21.4154
11
30.7943
21
-21.4182
0
LINE
8
BLACK
6
CONTINUOUS
10
30.7943
20
-21.4182
11
30.7971
21
-21.4238
0
LINE
8
BLACK
6
CONTINUOUS
10
30.7971
20
-21.4238
11
30.7999
21
-21.435
0
LINE
8
BLACK
6
CONTINUOUS
10
30.7999
20
-21.435
11
30.7999
21
-21.4491
0
LINE
8
BLACK
6
CONTINUOUS
10
30.7999
20
-21.4491
11
30.7971
21
-21.4603
0
LINE
8
BLACK
6
CONTINUOUS
10
30.7971
20
-21.4603
11
30.7943
21
-21.466
0
LINE
8
BLACK
6
CONTINUOUS
10
30.7943
20
-21.466
11
30.7915
21
-21.4688
0
LINE
8
BLACK
6
CONTINUOUS
10
30.7915
20
-21.4688
11
30.7859
21
-21.4716
0
LINE
8
BLACK
6
CONTINUOUS
10
30.7859
20
-21.4716
11
30.7802
21
-21.4716
0
LINE
8
BLACK
6
CONTINUOUS
10
30.7802
20
-21.4716
11
30.7746
21
-21.4688
0
LINE
8
BLACK
6
CONTINUOUS
10
30.7746
20
-21.4688
11
30.7718
21
-21.466
0
LINE
8
BLACK
6
CONTINUOUS
10
30.7718
20
-21.466
11
30.769
21
-21.4603
0
LINE
8
BLACK
6
CONTINUOUS
10
30.769
20
-21.4603
11
30.7662
21
-21.4491
0
LINE
8
BLACK
6
CONTINUOUS
10
30.7662
20
-21.4491
11
30.7662
21
-21.435
0
LINE
8
BLACK
6
CONTINUOUS
10
30.7662
20
-21.435
11
30.769
21
-21.4238
0
LINE
8
BLACK
6
CONTINUOUS
10
30.769
20
-21.4238
11
30.7718
21
-21.4182
0
LINE
8
BLACK
6
CONTINUOUS
10
30.7718
20
-21.4182
11
30.7746
21
-21.4154
0
LINE
8
BLACK
6
CONTINUOUS
10
30.7746
20
-21.4154
11
30.7802
21
-21.4125
0
LINE
8
BLACK
6
CONTINUOUS
10
30.8112
20
-21.4772
11
30.8562
21
-21.4772
0
LINE
8
BLACK
6
CONTINUOUS
10
30.9012
20
-21.4716
11
30.8674
21
-21.4716
0
LINE
8
BLACK
6
CONTINUOUS
10
30.8843
20
-21.4716
11
30.8843
21
-21.4125
0
LINE
8
BLACK
6
CONTINUOUS
10
30.8843
20
-21.4125
11
30.8787
21
-21.421
0
LINE
8
BLACK
6
CONTINUOUS
10
30.8787
20
-21.421
11
30.873
21
-21.4266
0
LINE
8
BLACK
6
CONTINUOUS
10
30.873
20
-21.4266
11
30.8674
21
-21.4294
0
LINE
8
BLACK
6
CONTINUOUS
10
30.9518
20
-21.4322
11
30.9518
21
-21.4716
0
LINE
8
BLACK
6
CONTINUOUS
10
30.9377
20
-21.4097
11
30.9237
21
-21.4519
0
LINE
8
BLACK
6
CONTINUOUS
10
30.9237
20
-21.4519
11
30.9602
21
-21.4519
0
LINE
8
BLACK
6
CONTINUOUS
10
30.9771
20
-21.4941
11
30.9799
21
-21.4913
0
LINE
8
BLACK
6
CONTINUOUS
10
30.9799
20
-21.4913
11
30.9855
21
-21.4828
0
LINE
8
BLACK
6
CONTINUOUS
10
30.9855
20
-21.4828
11
30.9883
21
-21.4772
0
LINE
8
BLACK
6
CONTINUOUS
10
30.9883
20
-21.4772
11
30.9911
21
-21.4688
0
LINE
8
BLACK
6
CONTINUOUS
10
30.9911
20
-21.4688
11
30.994
21
-21.4547
0
LINE
8
BLACK
6
CONTINUOUS
10
30.994
20
-21.4547
11
30.994
21
-21.4435
0
LINE
8
BLACK
6
CONTINUOUS
10
30.994
20
-21.4435
11
30.9911
21
-21.4294
0
LINE
8
BLACK
6
CONTINUOUS
10
30.9911
20
-21.4294
11
30.9883
21
-21.421
0
LINE
8
BLACK
6
CONTINUOUS
10
30.9883
20
-21.421
11
30.9855
21
-21.4154
0
LINE
8
BLACK
6
CONTINUOUS
10
30.9855
20
-21.4154
11
30.9799
21
-21.4069
0
LINE
8
BLACK
6
CONTINUOUS
10
30.9799
20
-21.4069
11
30.9771
21
-21.4041
0
LINE
8
BLACK
6
CONTINUOUS
10
29.2756
20
-21.2717
11
33.5276
21
-21.2717
0
LINE
8
BLACK
6
CONTINUOUS
10
32.7169
20
-21.3614
11
32.6972
21
-21.3332
0
LINE
8
BLACK
6
CONTINUOUS
10
32.6832
20
-21.3614
11
32.6832
21
-21.3023
0
LINE
8
BLACK
6
CONTINUOUS
10
32.6832
20
-21.3023
11
32.7057
21
-21.3023
0
LINE
8
BLACK
6
CONTINUOUS
10
32.7057
20
-21.3023
11
32.7113
21
-21.3051
0
LINE
8
BLACK
6
CONTINUOUS
10
32.7113
20
-21.3051
11
32.7141
21
-21.3079
0
LINE
8
BLACK
6
CONTINUOUS
10
32.7141
20
-21.3079
11
32.7169
21
-21.3136
0
LINE
8
BLACK
6
CONTINUOUS
10
32.7169
20
-21.3136
11
32.7169
21
-21.322
0
LINE
8
BLACK
6
CONTINUOUS
10
32.7169
20
-21.322
11
32.7141
21
-21.3276
0
LINE
8
BLACK
6
CONTINUOUS
10
32.7141
20
-21.3276
11
32.7113
21
-21.3304
0
LINE
8
BLACK
6
CONTINUOUS
10
32.7113
20
-21.3304
11
32.7057
21
-21.3332
0
LINE
8
BLACK
6
CONTINUOUS
10
32.7057
20
-21.3332
11
32.6832
21
-21.3332
0
LINE
8
BLACK
6
CONTINUOUS
10
32.7647
20
-21.3585
11
32.7591
21
-21.3614
0
LINE
8
BLACK
6
CONTINUOUS
10
32.7591
20
-21.3614
11
32.7478
21
-21.3614
0
LINE
8
BLACK
6
CONTINUOUS
10
32.7478
20
-21.3614
11
32.7422
21
-21.3585
0
LINE
8
BLACK
6
CONTINUOUS
10
32.7422
20
-21.3585
11
32.7394
21
-21.3529
0
LINE
8
BLACK
6
CONTINUOUS
10
32.7394
20
-21.3529
11
32.7394
21
-21.3304
0
LINE
8
BLACK
6
CONTINUOUS
10
32.7394
20
-21.3304
11
32.7422
21
-21.3248
0
LINE
8
BLACK
6
CONTINUOUS
10
32.7422
20
-21.3248
11
32.7478
21
-21.322
0
LINE
8
BLACK
6
CONTINUOUS
10
32.7478
20
-21.322
11
32.7591
21
-21.322
0
LINE
8
BLACK
6
CONTINUOUS
10
32.7591
20
-21.322
11
32.7647
21
-21.3248
0
LINE
8
BLACK
6
CONTINUOUS
10
32.7647
20
-21.3248
11
32.7675
21
-21.3304
0
LINE
8
BLACK
6
CONTINUOUS
10
32.7675
20
-21.3304
11
32.7675
21
-21.3361
0
LINE
8
BLACK
6
CONTINUOUS
10
32.7675
20
-21.3361
11
32.7394
21
-21.3417
0
LINE
8
BLACK
6
CONTINUOUS
10
32.7872
20
-21.322
11
32.8013
21
-21.3614
0
LINE
8
BLACK
6
CONTINUOUS
10
32.8013
20
-21.3614
11
32.8153
21
-21.322
0
LINE
8
BLACK
6
CONTINUOUS
10
32.8378
20
-21.3557
11
32.8406
21
-21.3585
0
LINE
8
BLACK
6
CONTINUOUS
10
32.8406
20
-21.3585
11
32.8378
21
-21.3614
0
LINE
8
BLACK
6
CONTINUOUS
10
32.8378
20
-21.3614
11
32.835
21
-21.3585
0
LINE
8
BLACK
6
CONTINUOUS
10
32.835
20
-21.3585
11
32.8378
21
-21.3557
0
LINE
8
BLACK
6
CONTINUOUS
10
32.8378
20
-21.3557
11
32.8378
21
-21.3614
0
LINE
8
BLACK
6
CONTINUOUS
10
32.8378
20
-21.3248
11
32.8406
21
-21.3276
0
LINE
8
BLACK
6
CONTINUOUS
10
32.8406
20
-21.3276
11
32.8378
21
-21.3304
0
LINE
8
BLACK
6
CONTINUOUS
10
32.8378
20
-21.3304
11
32.835
21
-21.3276
0
LINE
8
BLACK
6
CONTINUOUS
10
32.835
20
-21.3276
11
32.8378
21
-21.3248
0
LINE
8
BLACK
6
CONTINUOUS
10
32.8378
20
-21.3248
11
32.8378
21
-21.3304
0
LINE
8
BLACK
6
CONTINUOUS
10
29.3292
20
-21.3585
11
29.3376
21
-21.3614
0
LINE
8
BLACK
6
CONTINUOUS
10
29.3376
20
-21.3614
11
29.3517
21
-21.3614
0
LINE
8
BLACK
6
CONTINUOUS
10
29.3517
20
-21.3614
11
29.3573
21
-21.3585
0
LINE
8
BLACK
6
CONTINUOUS
10
29.3573
20
-21.3585
11
29.3601
21
-21.3557
0
LINE
8
BLACK
6
CONTINUOUS
10
29.3601
20
-21.3557
11
29.3629
21
-21.3501
0
LINE
8
BLACK
6
CONTINUOUS
10
29.3629
20
-21.3501
11
29.3629
21
-21.3445
0
LINE
8
BLACK
6
CONTINUOUS
10
29.3629
20
-21.3445
11
29.3601
21
-21.3389
0
LINE
8
BLACK
6
CONTINUOUS
10
29.3601
20
-21.3389
11
29.3573
21
-21.3361
0
LINE
8
BLACK
6
CONTINUOUS
10
29.3573
20
-21.3361
11
29.3517
21
-21.3332
0
LINE
8
BLACK
6
CONTINUOUS
10
29.3517
20
-21.3332
11
29.3404
21
-21.3304
0
LINE
8
BLACK
6
CONTINUOUS
10
29.3404
20
-21.3304
11
29.3348
21
-21.3276
0
LINE
8
BLACK
6
CONTINUOUS
10
29.3348
20
-21.3276
11
29.332
21
-21.3248
0
LINE
8
BLACK
6
CONTINUOUS
10
29.332
20
-21.3248
11
29.3292
21
-21.3192
0
LINE
8
BLACK
6
CONTINUOUS
10
29.3292
20
-21.3192
11
29.3292
21
-21.3136
0
LINE
8
BLACK
6
CONTINUOUS
10
29.3292
20
-21.3136
11
29.332
21
-21.3079
0
LINE
8
BLACK
6
CONTINUOUS
10
29.332
20
-21.3079
11
29.3348
21
-21.3051
0
LINE
8
BLACK
6
CONTINUOUS
10
29.3348
20
-21.3051
11
29.3404
21
-21.3023
0
LINE
8
BLACK
6
CONTINUOUS
10
29.3404
20
-21.3023
11
29.3545
21
-21.3023
0
LINE
8
BLACK
6
CONTINUOUS
10
29.3545
20
-21.3023
11
29.3629
21
-21.3051
0
LINE
8
BLACK
6
CONTINUOUS
10
29.3882
20
-21.3614
11
29.3882
21
-21.322
0
LINE
8
BLACK
6
CONTINUOUS
10
29.3882
20
-21.3023
11
29.3854
21
-21.3051
0
LINE
8
BLACK
6
CONTINUOUS
10
29.3854
20
-21.3051
11
29.3882
21
-21.3079
0
LINE
8
BLACK
6
CONTINUOUS
10
29.3882
20
-21.3079
11
29.391
21
-21.3051
0
LINE
8
BLACK
6
CONTINUOUS
10
29.391
20
-21.3051
11
29.3882
21
-21.3023
0
LINE
8
BLACK
6
CONTINUOUS
10
29.3882
20
-21.3023
11
29.3882
21
-21.3079
0
LINE
8
BLACK
6
CONTINUOUS
10
29.4107
20
-21.322
11
29.4416
21
-21.322
0
LINE
8
BLACK
6
CONTINUOUS
10
29.4416
20
-21.322
11
29.4107
21
-21.3614
0
LINE
8
BLACK
6
CONTINUOUS
10
29.4107
20
-21.3614
11
29.4416
21
-21.3614
0
LINE
8
BLACK
6
CONTINUOUS
10
29.4866
20
-21.3585
11
29.481
21
-21.3614
0
LINE
8
BLACK
6
CONTINUOUS
10
29.481
20
-21.3614
11
29.4698
21
-21.3614
0
LINE
8
BLACK
6
CONTINUOUS
10
29.4698
20
-21.3614
11
29.4641
21
-21.3585
0
LINE
8
BLACK
6
CONTINUOUS
10
29.4641
20
-21.3585
11
29.4613
21
-21.3529
0
LINE
8
BLACK
6
CONTINUOUS
10
29.4613
20
-21.3529
11
29.4613
21
-21.3304
0
LINE
8
BLACK
6
CONTINUOUS
10
29.4613
20
-21.3304
11
29.4641
21
-21.3248
0
LINE
8
BLACK
6
CONTINUOUS
10
29.4641
20
-21.3248
11
29.4698
21
-21.322
0
LINE
8
BLACK
6
CONTINUOUS
10
29.4698
20
-21.322
11
29.481
21
-21.322
0
LINE
8
BLACK
6
CONTINUOUS
10
29.481
20
-21.322
11
29.4866
21
-21.3248
0
LINE
8
BLACK
6
CONTINUOUS
10
29.4866
20
-21.3248
11
29.4895
21
-21.3304
0
LINE
8
BLACK
6
CONTINUOUS
10
29.4895
20
-21.3304
11
29.4895
21
-21.3361
0
LINE
8
BLACK
6
CONTINUOUS
10
29.4895
20
-21.3361
11
29.4613
21
-21.3417
0
LINE
8
BLACK
6
CONTINUOUS
10
29.5148
20
-21.3557
11
29.5176
21
-21.3585
0
LINE
8
BLACK
6
CONTINUOUS
10
29.5176
20
-21.3585
11
29.5148
21
-21.3614
0
LINE
8
BLACK
6
CONTINUOUS
10
29.5148
20
-21.3614
11
29.512
21
-21.3585
0
LINE
8
BLACK
6
CONTINUOUS
10
29.512
20
-21.3585
11
29.5148
21
-21.3557
0
LINE
8
BLACK
6
CONTINUOUS
10
29.5148
20
-21.3557
11
29.5148
21
-21.3614
0
LINE
8
BLACK
6
CONTINUOUS
10
29.5148
20
-21.3248
11
29.5176
21
-21.3276
0
LINE
8
BLACK
6
CONTINUOUS
10
29.5176
20
-21.3276
11
29.5148
21
-21.3304
0
LINE
8
BLACK
6
CONTINUOUS
10
29.5148
20
-21.3304
11
29.512
21
-21.3276
0
LINE
8
BLACK
6
CONTINUOUS
10
29.512
20
-21.3276
11
29.5148
21
-21.3248
0
LINE
8
BLACK
6
CONTINUOUS
10
29.5148
20
-21.3248
11
29.5148
21
-21.3304
0
LINE
8
BLACK
6
CONTINUOUS
10
29.5879
20
-21.3614
11
29.5879
21
-21.3023
0
LINE
8
BLACK
6
CONTINUOUS
10
29.5879
20
-21.3023
11
29.6019
21
-21.3023
0
LINE
8
BLACK
6
CONTINUOUS
10
29.6019
20
-21.3023
11
29.6104
21
-21.3051
0
LINE
8
BLACK
6
CONTINUOUS
10
29.6104
20
-21.3051
11
29.616
21
-21.3107
0
LINE
8
BLACK
6
CONTINUOUS
10
29.616
20
-21.3107
11
29.6188
21
-21.3164
0
LINE
8
BLACK
6
CONTINUOUS
10
29.6188
20
-21.3164
11
29.6216
21
-21.3276
0
LINE
8
BLACK
6
CONTINUOUS
10
29.6216
20
-21.3276
11
29.6216
21
-21.3361
0
LINE
8
BLACK
6
CONTINUOUS
10
29.6216
20
-21.3361
11
29.6188
21
-21.3473
0
LINE
8
BLACK
6
CONTINUOUS
10
29.6188
20
-21.3473
11
29.616
21
-21.3529
0
LINE
8
BLACK
6
CONTINUOUS
10
29.616
20
-21.3529
11
29.6104
21
-21.3585
0
LINE
8
BLACK
6
CONTINUOUS
10
29.6104
20
-21.3585
11
29.6019
21
-21.3614
0
LINE
8
BLACK
6
CONTINUOUS
10
29.6019
20
-21.3614
11
29.5879
21
-21.3614
0
LINE
8
BLACK
6
CONTINUOUS
10
32.6784
20
-21.4716
11
32.6784
21
-21.4125
0
LINE
8
BLACK
6
CONTINUOUS
10
32.7319
20
-21.4716
11
32.7319
21
-21.4125
0
LINE
8
BLACK
6
CONTINUOUS
10
32.7319
20
-21.4688
11
32.7262
21
-21.4716
0
LINE
8
BLACK
6
CONTINUOUS
10
32.7262
20
-21.4716
11
32.715
21
-21.4716
0
LINE
8
BLACK
6
CONTINUOUS
10
32.715
20
-21.4716
11
32.7094
21
-21.4688
0
LINE
8
BLACK
6
CONTINUOUS
10
32.7094
20
-21.4688
11
32.7066
21
-21.466
0
LINE
8
BLACK
6
CONTINUOUS
10
32.7066
20
-21.466
11
32.7037
21
-21.4603
0
LINE
8
BLACK
6
CONTINUOUS
10
32.7037
20
-21.4603
11
32.7037
21
-21.4435
0
LINE
8
BLACK
6
CONTINUOUS
10
32.7037
20
-21.4435
11
32.7066
21
-21.4379
0
LINE
8
BLACK
6
CONTINUOUS
10
32.7066
20
-21.4379
11
32.7094
21
-21.435
0
LINE
8
BLACK
6
CONTINUOUS
10
32.7094
20
-21.435
11
32.715
21
-21.4322
0
LINE
8
BLACK
6
CONTINUOUS
10
32.715
20
-21.4322
11
32.7262
21
-21.4322
0
LINE
8
BLACK
6
CONTINUOUS
10
32.7262
20
-21.4322
11
32.7319
21
-21.435
0
LINE
8
BLACK
6
CONTINUOUS
10
32.76
20
-21.466
11
32.7628
21
-21.4688
0
LINE
8
BLACK
6
CONTINUOUS
10
32.7628
20
-21.4688
11
32.76
21
-21.4716
0
LINE
8
BLACK
6
CONTINUOUS
10
32.76
20
-21.4716
11
32.7572
21
-21.4688
0
LINE
8
BLACK
6
CONTINUOUS
10
32.7572
20
-21.4688
11
32.76
21
-21.466
0
LINE
8
BLACK
6
CONTINUOUS
10
32.76
20
-21.466
11
32.76
21
-21.4716
0
LINE
8
BLACK
6
CONTINUOUS
10
32.76
20
-21.435
11
32.7628
21
-21.4379
0
LINE
8
BLACK
6
CONTINUOUS
10
32.7628
20
-21.4379
11
32.76
21
-21.4407
0
LINE
8
BLACK
6
CONTINUOUS
10
32.76
20
-21.4407
11
32.7572
21
-21.4379
0
LINE
8
BLACK
6
CONTINUOUS
10
32.7572
20
-21.4379
11
32.76
21
-21.435
0
LINE
8
BLACK
6
CONTINUOUS
10
32.76
20
-21.435
11
32.76
21
-21.4407
0
LINE
8
BLACK
6
CONTINUOUS
10
32.864
20
-21.4716
11
32.8303
21
-21.4716
0
LINE
8
BLACK
6
CONTINUOUS
10
32.8472
20
-21.4716
11
32.8472
21
-21.4125
0
LINE
8
BLACK
6
CONTINUOUS
10
32.8472
20
-21.4125
11
32.8415
21
-21.421
0
LINE
8
BLACK
6
CONTINUOUS
10
32.8415
20
-21.421
11
32.8359
21
-21.4266
0
LINE
8
BLACK
6
CONTINUOUS
10
32.8359
20
-21.4266
11
32.8303
21
-21.4294
0
LINE
8
BLACK
6
CONTINUOUS
10
32.9315
20
-21.4097
11
32.8809
21
-21.4857
0
LINE
8
BLACK
6
CONTINUOUS
10
32.9821
20
-21.4716
11
32.9484
21
-21.4716
0
LINE
8
BLACK
6
CONTINUOUS
10
32.9653
20
-21.4716
11
32.9653
21
-21.4125
0
LINE
8
BLACK
6
CONTINUOUS
10
32.9653
20
-21.4125
11
32.9596
21
-21.421
0
LINE
8
BLACK
6
CONTINUOUS
10
32.9596
20
-21.421
11
32.954
21
-21.4266
0
LINE
8
BLACK
6
CONTINUOUS
10
32.954
20
-21.4266
11
32.9484
21
-21.4294
0
LINE
8
BLACK
6
CONTINUOUS
10
29.2756
20
-21.1142
11
33.5276
21
-21.1142
0
LINE
8
BLACK
6
CONTINUOUS
10
29.343
20
-21.1419
11
29.388
21
-21.1419
0
LINE
8
BLACK
6
CONTINUOUS
10
29.3557
20
-21.2207
11
29.3655
21
-21.1419
0
LINE
8
BLACK
6
CONTINUOUS
10
29.4044
20
-21.2207
11
29.411
21
-21.1682
0
LINE
8
BLACK
6
CONTINUOUS
10
29.4142
20
-21.1419
11
29.41
21
-21.1457
0
LINE
8
BLACK
6
CONTINUOUS
10
29.41
20
-21.1457
11
29.4133
21
-21.1494
0
LINE
8
BLACK
6
CONTINUOUS
10
29.4133
20
-21.1494
11
29.4175
21
-21.1457
0
LINE
8
BLACK
6
CONTINUOUS
10
29.4175
20
-21.1457
11
29.4142
21
-21.1419
0
LINE
8
BLACK
6
CONTINUOUS
10
29.4142
20
-21.1419
11
29.4133
21
-21.1494
0
LINE
8
BLACK
6
CONTINUOUS
10
29.4372
20
-21.1682
11
29.4672
21
-21.1682
0
LINE
8
BLACK
6
CONTINUOUS
10
29.4517
20
-21.1419
11
29.4433
21
-21.2094
0
LINE
8
BLACK
6
CONTINUOUS
10
29.4433
20
-21.2094
11
29.4461
21
-21.2169
0
LINE
8
BLACK
6
CONTINUOUS
10
29.4461
20
-21.2169
11
29.4531
21
-21.2207
0
LINE
8
BLACK
6
CONTINUOUS
10
29.4531
20
-21.2207
11
29.4606
21
-21.2207
0
LINE
8
BLACK
6
CONTINUOUS
10
29.4981
20
-21.2207
11
29.4911
21
-21.2169
0
LINE
8
BLACK
6
CONTINUOUS
10
29.4911
20
-21.2169
11
29.4883
21
-21.2094
0
LINE
8
BLACK
6
CONTINUOUS
10
29.4883
20
-21.2094
11
29.4967
21
-21.1419
0
LINE
8
BLACK
6
CONTINUOUS
10
29.5586
20
-21.2169
11
29.5506
21
-21.2207
0
LINE
8
BLACK
6
CONTINUOUS
10
29.5506
20
-21.2207
11
29.5356
21
-21.2207
0
LINE
8
BLACK
6
CONTINUOUS
10
29.5356
20
-21.2207
11
29.5286
21
-21.2169
0
LINE
8
BLACK
6
CONTINUOUS
10
29.5286
20
-21.2169
11
29.5258
21
-21.2094
0
LINE
8
BLACK
6
CONTINUOUS
10
29.5258
20
-21.2094
11
29.5295
21
-21.1794
0
LINE
8
BLACK
6
CONTINUOUS
10
29.5295
20
-21.1794
11
29.5342
21
-21.1719
0
LINE
8
BLACK
6
CONTINUOUS
10
29.5342
20
-21.1719
11
29.5422
21
-21.1682
0
LINE
8
BLACK
6
CONTINUOUS
10
29.5422
20
-21.1682
11
29.5572
21
-21.1682
0
LINE
8
BLACK
6
CONTINUOUS
10
29.5572
20
-21.1682
11
29.5642
21
-21.1719
0
LINE
8
BLACK
6
CONTINUOUS
10
29.5642
20
-21.1719
11
29.567
21
-21.1794
0
LINE
8
BLACK
6
CONTINUOUS
10
29.567
20
-21.1794
11
29.5661
21
-21.1869
0
LINE
8
BLACK
6
CONTINUOUS
10
29.5661
20
-21.1869
11
29.5277
21
-21.1944
0
LINE
8
BLACK
6
CONTINUOUS
10
29.5966
20
-21.2132
11
29.5998
21
-21.2169
0
LINE
8
BLACK
6
CONTINUOUS
10
29.5998
20
-21.2169
11
29.5956
21
-21.2207
0
LINE
8
BLACK
6
CONTINUOUS
10
29.5956
20
-21.2207
11
29.5924
21
-21.2169
0
LINE
8
BLACK
6
CONTINUOUS
10
29.5924
20
-21.2169
11
29.5966
21
-21.2132
0
LINE
8
BLACK
6
CONTINUOUS
10
29.5966
20
-21.2132
11
29.5956
21
-21.2207
0
LINE
8
BLACK
6
CONTINUOUS
10
29.6017
20
-21.1719
11
29.605
21
-21.1757
0
LINE
8
BLACK
6
CONTINUOUS
10
29.605
20
-21.1757
11
29.6008
21
-21.1794
0
LINE
8
BLACK
6
CONTINUOUS
10
29.6008
20
-21.1794
11
29.5975
21
-21.1757
0
LINE
8
BLACK
6
CONTINUOUS
10
29.5975
20
-21.1757
11
29.6017
21
-21.1719
0
LINE
8
BLACK
6
CONTINUOUS
10
29.6017
20
-21.1719
11
29.6008
21
-21.1794
0
LINE
8
BLACK
6
CONTINUOUS
10
29.3517
20
-21.0391
11
29.332
21
-21.0391
0
LINE
8
BLACK
6
CONTINUOUS
10
29.332
20
-21.07
11
29.332
21
-21.011
0
LINE
8
BLACK
6
CONTINUOUS
10
29.332
20
-21.011
11
29.3601
21
-21.011
0
LINE
8
BLACK
6
CONTINUOUS
10
29.3826
20
-21.07
11
29.3826
21
-21.0307
0
LINE
8
BLACK
6
CONTINUOUS
10
29.3826
20
-21.011
11
29.3798
21
-21.0138
0
LINE
8
BLACK
6
CONTINUOUS
10
29.3798
20
-21.0138
11
29.3826
21
-21.0166
0
LINE
8
BLACK
6
CONTINUOUS
10
29.3826
20
-21.0166
11
29.3854
21
-21.0138
0
LINE
8
BLACK
6
CONTINUOUS
10
29.3854
20
-21.0138
11
29.3826
21
-21.011
0
LINE
8
BLACK
6
CONTINUOUS
10
29.3826
20
-21.011
11
29.3826
21
-21.0166
0
LINE
8
BLACK
6
CONTINUOUS
10
29.4192
20
-21.07
11
29.4135
21
-21.0672
0
LINE
8
BLACK
6
CONTINUOUS
10
29.4135
20
-21.0672
11
29.4107
21
-21.0616
0
LINE
8
BLACK
6
CONTINUOUS
10
29.4107
20
-21.0616
11
29.4107
21
-21.011
0
LINE
8
BLACK
6
CONTINUOUS
10
29.4641
20
-21.0672
11
29.4585
21
-21.07
0
LINE
8
BLACK
6
CONTINUOUS
10
29.4585
20
-21.07
11
29.4473
21
-21.07
0
LINE
8
BLACK
6
CONTINUOUS
10
29.4473
20
-21.07
11
29.4416
21
-21.0672
0
LINE
8
BLACK
6
CONTINUOUS
10
29.4416
20
-21.0672
11
29.4388
21
-21.0616
0
LINE
8
BLACK
6
CONTINUOUS
10
29.4388
20
-21.0616
11
29.4388
21
-21.0391
0
LINE
8
BLACK
6
CONTINUOUS
10
29.4388
20
-21.0391
11
29.4416
21
-21.0335
0
LINE
8
BLACK
6
CONTINUOUS
10
29.4416
20
-21.0335
11
29.4473
21
-21.0307
0
LINE
8
BLACK
6
CONTINUOUS
10
29.4473
20
-21.0307
11
29.4585
21
-21.0307
0
LINE
8
BLACK
6
CONTINUOUS
10
29.4585
20
-21.0307
11
29.4641
21
-21.0335
0
LINE
8
BLACK
6
CONTINUOUS
10
29.4641
20
-21.0335
11
29.467
21
-21.0391
0
LINE
8
BLACK
6
CONTINUOUS
10
29.467
20
-21.0391
11
29.467
21
-21.0447
0
LINE
8
BLACK
6
CONTINUOUS
10
29.467
20
-21.0447
11
29.4388
21
-21.0503
0
LINE
8
BLACK
6
CONTINUOUS
10
29.4923
20
-21.0644
11
29.4951
21
-21.0672
0
LINE
8
BLACK
6
CONTINUOUS
10
29.4951
20
-21.0672
11
29.4923
21
-21.07
0
LINE
8
BLACK
6
CONTINUOUS
10
29.4923
20
-21.07
11
29.4895
21
-21.0672
0
LINE
8
BLACK
6
CONTINUOUS
10
29.4895
20
-21.0672
11
29.4923
21
-21.0644
0
LINE
8
BLACK
6
CONTINUOUS
10
29.4923
20
-21.0644
11
29.4923
21
-21.07
0
LINE
8
BLACK
6
CONTINUOUS
10
29.4923
20
-21.0335
11
29.4951
21
-21.0363
0
LINE
8
BLACK
6
CONTINUOUS
10
29.4951
20
-21.0363
11
29.4923
21
-21.0391
0
LINE
8
BLACK
6
CONTINUOUS
10
29.4923
20
-21.0391
11
29.4895
21
-21.0363
0
LINE
8
BLACK
6
CONTINUOUS
10
29.4895
20
-21.0363
11
29.4923
21
-21.0335
0
LINE
8
BLACK
6
CONTINUOUS
10
29.4923
20
-21.0335
11
29.4923
21
-21.0391
0
LINE
8
BLACK
6
CONTINUOUS
10
29.5654
20
-21.07
11
29.5654
21
-21.011
0
LINE
8
BLACK
6
CONTINUOUS
10
29.5991
20
-21.07
11
29.5738
21
-21.0363
0
LINE
8
BLACK
6
CONTINUOUS
10
29.5991
20
-21.011
11
29.5654
21
-21.0447
0
LINE
8
BLACK
6
CONTINUOUS
10
29.6469
20
-21.0672
11
29.6413
21
-21.07
0
LINE
8
BLACK
6
CONTINUOUS
10
29.6413
20
-21.07
11
29.6301
21
-21.07
0
LINE
8
BLACK
6
CONTINUOUS
10
29.6301
20
-21.07
11
29.6244
21
-21.0672
0
LINE
8
BLACK
6
CONTINUOUS
10
29.6244
20
-21.0672
11
29.6216
21
-21.0616
0
LINE
8
BLACK
6
CONTINUOUS
10
29.6216
20
-21.0616
11
29.6216
21
-21.0391
0
LINE
8
BLACK
6
CONTINUOUS
10
29.6216
20
-21.0391
11
29.6244
21
-21.0335
0
LINE
8
BLACK
6
CONTINUOUS
10
29.6244
20
-21.0335
11
29.6301
21
-21.0307
0
LINE
8
BLACK
6
CONTINUOUS
10
29.6301
20
-21.0307
11
29.6413
21
-21.0307
0
LINE
8
BLACK
6
CONTINUOUS
10
29.6413
20
-21.0307
11
29.6469
21
-21.0335
0
LINE
8
BLACK
6
CONTINUOUS
10
29.6469
20
-21.0335
11
29.6497
21
-21.0391
0
LINE
8
BLACK
6
CONTINUOUS
10
29.6497
20
-21.0391
11
29.6497
21
-21.0447
0
LINE
8
BLACK
6
CONTINUOUS
10
29.6497
20
-21.0447
11
29.6216
21
-21.0503
0
LINE
8
BLACK
6
CONTINUOUS
10
29.6694
20
-21.0307
11
29.6835
21
-21.07
0
LINE
8
BLACK
6
CONTINUOUS
10
29.6976
20
-21.0307
11
29.6835
21
-21.07
0
LINE
8
BLACK
6
CONTINUOUS
10
29.6835
20
-21.07
11
29.6779
21
-21.0841
0
LINE
8
BLACK
6
CONTINUOUS
10
29.6779
20
-21.0841
11
29.6751
21
-21.0869
0
LINE
8
BLACK
6
CONTINUOUS
10
29.6751
20
-21.0869
11
29.6694
21
-21.0897
0
LINE
8
BLACK
6
CONTINUOUS
10
29.7201
20
-21.07
11
29.7201
21
-21.011
0
LINE
8
BLACK
6
CONTINUOUS
10
29.7201
20
-21.0335
11
29.7257
21
-21.0307
0
LINE
8
BLACK
6
CONTINUOUS
10
29.7257
20
-21.0307
11
29.7369
21
-21.0307
0
LINE
8
BLACK
6
CONTINUOUS
10
29.7369
20
-21.0307
11
29.7425
21
-21.0335
0
LINE
8
BLACK
6
CONTINUOUS
10
29.7425
20
-21.0335
11
29.7454
21
-21.0363
0
LINE
8
BLACK
6
CONTINUOUS
10
29.7454
20
-21.0363
11
29.7482
21
-21.0419
0
LINE
8
BLACK
6
CONTINUOUS
10
29.7482
20
-21.0419
11
29.7482
21
-21.0588
0
LINE
8
BLACK
6
CONTINUOUS
10
29.7482
20
-21.0588
11
29.7454
21
-21.0644
0
LINE
8
BLACK
6
CONTINUOUS
10
29.7454
20
-21.0644
11
29.7425
21
-21.0672
0
LINE
8
BLACK
6
CONTINUOUS
10
29.7425
20
-21.0672
11
29.7369
21
-21.07
0
LINE
8
BLACK
6
CONTINUOUS
10
29.7369
20
-21.07
11
29.7257
21
-21.07
0
LINE
8
BLACK
6
CONTINUOUS
10
29.7257
20
-21.07
11
29.7201
21
-21.0672
0
LINE
8
BLACK
6
CONTINUOUS
10
29.7819
20
-21.07
11
29.7763
21
-21.0672
0
LINE
8
BLACK
6
CONTINUOUS
10
29.7763
20
-21.0672
11
29.7735
21
-21.0644
0
LINE
8
BLACK
6
CONTINUOUS
10
29.7735
20
-21.0644
11
29.7707
21
-21.0588
0
LINE
8
BLACK
6
CONTINUOUS
10
29.7707
20
-21.0588
11
29.7707
21
-21.0419
0
LINE
8
BLACK
6
CONTINUOUS
10
29.7707
20
-21.0419
11
29.7735
21
-21.0363
0
LINE
8
BLACK
6
CONTINUOUS
10
29.7735
20
-21.0363
11
29.7763
21
-21.0335
0
LINE
8
BLACK
6
CONTINUOUS
10
29.7763
20
-21.0335
11
29.7819
21
-21.0307
0
LINE
8
BLACK
6
CONTINUOUS
10
29.7819
20
-21.0307
11
29.7904
21
-21.0307
0
LINE
8
BLACK
6
CONTINUOUS
10
29.7904
20
-21.0307
11
29.796
21
-21.0335
0
LINE
8
BLACK
6
CONTINUOUS
10
29.796
20
-21.0335
11
29.7988
21
-21.0363
0
LINE
8
BLACK
6
CONTINUOUS
10
29.7988
20
-21.0363
11
29.8016
21
-21.0419
0
LINE
8
BLACK
6
CONTINUOUS
10
29.8016
20
-21.0419
11
29.8016
21
-21.0588
0
LINE
8
BLACK
6
CONTINUOUS
10
29.8016
20
-21.0588
11
29.7988
21
-21.0644
0
LINE
8
BLACK
6
CONTINUOUS
10
29.7988
20
-21.0644
11
29.796
21
-21.0672
0
LINE
8
BLACK
6
CONTINUOUS
10
29.796
20
-21.0672
11
29.7904
21
-21.07
0
LINE
8
BLACK
6
CONTINUOUS
10
29.7904
20
-21.07
11
29.7819
21
-21.07
0
LINE
8
BLACK
6
CONTINUOUS
10
29.8522
20
-21.07
11
29.8522
21
-21.0391
0
LINE
8
BLACK
6
CONTINUOUS
10
29.8522
20
-21.0391
11
29.8494
21
-21.0335
0
LINE
8
BLACK
6
CONTINUOUS
10
29.8494
20
-21.0335
11
29.8438
21
-21.0307
0
LINE
8
BLACK
6
CONTINUOUS
10
29.8438
20
-21.0307
11
29.8325
21
-21.0307
0
LINE
8
BLACK
6
CONTINUOUS
10
29.8325
20
-21.0307
11
29.8269
21
-21.0335
0
LINE
8
BLACK
6
CONTINUOUS
10
29.8522
20
-21.0672
11
29.8466
21
-21.07
0
LINE
8
BLACK
6
CONTINUOUS
10
29.8466
20
-21.07
11
29.8325
21
-21.07
0
LINE
8
BLACK
6
CONTINUOUS
10
29.8325
20
-21.07
11
29.8269
21
-21.0672
0
LINE
8
BLACK
6
CONTINUOUS
10
29.8269
20
-21.0672
11
29.8241
21
-21.0616
0
LINE
8
BLACK
6
CONTINUOUS
10
29.8241
20
-21.0616
11
29.8241
21
-21.056
0
LINE
8
BLACK
6
CONTINUOUS
10
29.8241
20
-21.056
11
29.8269
21
-21.0503
0
LINE
8
BLACK
6
CONTINUOUS
10
29.8269
20
-21.0503
11
29.8325
21
-21.0475
0
LINE
8
BLACK
6
CONTINUOUS
10
29.8325
20
-21.0475
11
29.8466
21
-21.0475
0
LINE
8
BLACK
6
CONTINUOUS
10
29.8466
20
-21.0475
11
29.8522
21
-21.0447
0
LINE
8
BLACK
6
CONTINUOUS
10
29.8803
20
-21.07
11
29.8803
21
-21.0307
0
LINE
8
BLACK
6
CONTINUOUS
10
29.8803
20
-21.0419
11
29.8832
21
-21.0363
0
LINE
8
BLACK
6
CONTINUOUS
10
29.8832
20
-21.0363
11
29.886
21
-21.0335
0
LINE
8
BLACK
6
CONTINUOUS
10
29.886
20
-21.0335
11
29.8916
21
-21.0307
0
LINE
8
BLACK
6
CONTINUOUS
10
29.8916
20
-21.0307
11
29.8972
21
-21.0307
0
LINE
8
BLACK
6
CONTINUOUS
10
29.9422
20
-21.07
11
29.9422
21
-21.011
0
LINE
8
BLACK
6
CONTINUOUS
10
29.9422
20
-21.0672
11
29.9366
21
-21.07
0
LINE
8
BLACK
6
CONTINUOUS
10
29.9366
20
-21.07
11
29.9253
21
-21.07
0
LINE
8
BLACK
6
CONTINUOUS
10
29.9253
20
-21.07
11
29.9197
21
-21.0672
0
LINE
8
BLACK
6
CONTINUOUS
10
29.9197
20
-21.0672
11
29.9169
21
-21.0644
0
LINE
8
BLACK
6
CONTINUOUS
10
29.9169
20
-21.0644
11
29.9141
21
-21.0588
0
LINE
8
BLACK
6
CONTINUOUS
10
29.9141
20
-21.0588
11
29.9141
21
-21.0419
0
LINE
8
BLACK
6
CONTINUOUS
10
29.9141
20
-21.0419
11
29.9169
21
-21.0363
0
LINE
8
BLACK
6
CONTINUOUS
10
29.9169
20
-21.0363
11
29.9197
21
-21.0335
0
LINE
8
BLACK
6
CONTINUOUS
10
29.9197
20
-21.0335
11
29.9253
21
-21.0307
0
LINE
8
BLACK
6
CONTINUOUS
10
29.9253
20
-21.0307
11
29.9366
21
-21.0307
0
LINE
8
BLACK
6
CONTINUOUS
10
29.9366
20
-21.0307
11
29.9422
21
-21.0335
0
LINE
8
BLACK
6
CONTINUOUS
10
29.9703
20
-21.07
11
29.9703
21
-21.011
0
LINE
8
BLACK
6
CONTINUOUS
10
29.9703
20
-21.011
11
29.9928
21
-21.011
0
LINE
8
BLACK
6
CONTINUOUS
10
29.9928
20
-21.011
11
29.9985
21
-21.0138
0
LINE
8
BLACK
6
CONTINUOUS
10
29.9985
20
-21.0138
11
30.0013
21
-21.0166
0
LINE
8
BLACK
6
CONTINUOUS
10
30.0013
20
-21.0166
11
30.0041
21
-21.0222
0
LINE
8
BLACK
6
CONTINUOUS
10
30.0041
20
-21.0222
11
30.0041
21
-21.0307
0
LINE
8
BLACK
6
CONTINUOUS
10
30.0041
20
-21.0307
11
30.0013
21
-21.0363
0
LINE
8
BLACK
6
CONTINUOUS
10
30.0013
20
-21.0363
11
29.9985
21
-21.0391
0
LINE
8
BLACK
6
CONTINUOUS
10
29.9985
20
-21.0391
11
29.9928
21
-21.0419
0
LINE
8
BLACK
6
CONTINUOUS
10
29.9928
20
-21.0419
11
29.9703
21
-21.0419
0
LINE
8
BLACK
6
CONTINUOUS
10
30.0294
20
-21.07
11
30.0294
21
-21.0307
0
LINE
8
BLACK
6
CONTINUOUS
10
30.0294
20
-21.0419
11
30.0322
21
-21.0363
0
LINE
8
BLACK
6
CONTINUOUS
10
30.0322
20
-21.0363
11
30.035
21
-21.0335
0
LINE
8
BLACK
6
CONTINUOUS
10
30.035
20
-21.0335
11
30.0406
21
-21.0307
0
LINE
8
BLACK
6
CONTINUOUS
10
30.0406
20
-21.0307
11
30.0463
21
-21.0307
0
LINE
8
BLACK
6
CONTINUOUS
10
30.0744
20
-21.07
11
30.0688
21
-21.0672
0
LINE
8
BLACK
6
CONTINUOUS
10
30.0688
20
-21.0672
11
30.0659
21
-21.0644
0
LINE
8
BLACK
6
CONTINUOUS
10
30.0659
20
-21.0644
11
30.0631
21
-21.0588
0
LINE
8
BLACK
6
CONTINUOUS
10
30.0631
20
-21.0588
11
30.0631
21
-21.0419
0
LINE
8
BLACK
6
CONTINUOUS
10
30.0631
20
-21.0419
11
30.0659
21
-21.0363
0
LINE
8
BLACK
6
CONTINUOUS
10
30.0659
20
-21.0363
11
30.0688
21
-21.0335
0
LINE
8
BLACK
6
CONTINUOUS
10
30.0688
20
-21.0335
11
30.0744
21
-21.0307
0
LINE
8
BLACK
6
CONTINUOUS
10
30.0744
20
-21.0307
11
30.0828
21
-21.0307
0
LINE
8
BLACK
6
CONTINUOUS
10
30.0828
20
-21.0307
11
30.0884
21
-21.0335
0
LINE
8
BLACK
6
CONTINUOUS
10
30.0884
20
-21.0335
11
30.0913
21
-21.0363
0
LINE
8
BLACK
6
CONTINUOUS
10
30.0913
20
-21.0363
11
30.0941
21
-21.0419
0
LINE
8
BLACK
6
CONTINUOUS
10
30.0941
20
-21.0419
11
30.0941
21
-21.0588
0
LINE
8
BLACK
6
CONTINUOUS
10
30.0941
20
-21.0588
11
30.0913
21
-21.0644
0
LINE
8
BLACK
6
CONTINUOUS
10
30.0913
20
-21.0644
11
30.0884
21
-21.0672
0
LINE
8
BLACK
6
CONTINUOUS
10
30.0884
20
-21.0672
11
30.0828
21
-21.07
0
LINE
8
BLACK
6
CONTINUOUS
10
30.0828
20
-21.07
11
30.0744
21
-21.07
0
LINE
8
BLACK
6
CONTINUOUS
10
30.1194
20
-21.0307
11
30.1194
21
-21.0813
0
LINE
8
BLACK
6
CONTINUOUS
10
30.1194
20
-21.0813
11
30.1166
21
-21.0869
0
LINE
8
BLACK
6
CONTINUOUS
10
30.1166
20
-21.0869
11
30.1109
21
-21.0897
0
LINE
8
BLACK
6
CONTINUOUS
10
30.1109
20
-21.0897
11
30.1081
21
-21.0897
0
LINE
8
BLACK
6
CONTINUOUS
10
30.1194
20
-21.011
11
30.1166
21
-21.0138
0
LINE
8
BLACK
6
CONTINUOUS
10
30.1166
20
-21.0138
11
30.1194
21
-21.0166
0
LINE
8
BLACK
6
CONTINUOUS
10
30.1194
20
-21.0166
11
30.1222
21
-21.0138
0
LINE
8
BLACK
6
CONTINUOUS
10
30.1222
20
-21.0138
11
30.1194
21
-21.011
0
LINE
8
BLACK
6
CONTINUOUS
10
30.1194
20
-21.011
11
30.1194
21
-21.0166
0
LINE
8
BLACK
6
CONTINUOUS
10
30.17
20
-21.0672
11
30.1644
21
-21.07
0
LINE
8
BLACK
6
CONTINUOUS
10
30.1644
20
-21.07
11
30.1531
21
-21.07
0
LINE
8
BLACK
6
CONTINUOUS
10
30.1531
20
-21.07
11
30.1475
21
-21.0672
0
LINE
8
BLACK
6
CONTINUOUS
10
30.1475
20
-21.0672
11
30.1447
21
-21.0616
0
LINE
8
BLACK
6
CONTINUOUS
10
30.1447
20
-21.0616
11
30.1447
21
-21.0391
0
LINE
8
BLACK
6
CONTINUOUS
10
30.1447
20
-21.0391
11
30.1475
21
-21.0335
0
LINE
8
BLACK
6
CONTINUOUS
10
30.1475
20
-21.0335
11
30.1531
21
-21.0307
0
LINE
8
BLACK
6
CONTINUOUS
10
30.1531
20
-21.0307
11
30.1644
21
-21.0307
0
LINE
8
BLACK
6
CONTINUOUS
10
30.1644
20
-21.0307
11
30.17
21
-21.0335
0
LINE
8
BLACK
6
CONTINUOUS
10
30.17
20
-21.0335
11
30.1728
21
-21.0391
0
LINE
8
BLACK
6
CONTINUOUS
10
30.1728
20
-21.0391
11
30.1728
21
-21.0447
0
LINE
8
BLACK
6
CONTINUOUS
10
30.1728
20
-21.0447
11
30.1447
21
-21.0503
0
LINE
8
BLACK
6
CONTINUOUS
10
30.2234
20
-21.0672
11
30.2178
21
-21.07
0
LINE
8
BLACK
6
CONTINUOUS
10
30.2178
20
-21.07
11
30.2066
21
-21.07
0
LINE
8
BLACK
6
CONTINUOUS
10
30.2066
20
-21.07
11
30.2009
21
-21.0672
0
LINE
8
BLACK
6
CONTINUOUS
10
30.2009
20
-21.0672
11
30.1981
21
-21.0644
0
LINE
8
BLACK
6
CONTINUOUS
10
30.1981
20
-21.0644
11
30.1953
21
-21.0588
0
LINE
8
BLACK
6
CONTINUOUS
10
30.1953
20
-21.0588
11
30.1953
21
-21.0419
0
LINE
8
BLACK
6
CONTINUOUS
10
30.1953
20
-21.0419
11
30.1981
21
-21.0363
0
LINE
8
BLACK
6
CONTINUOUS
10
30.1981
20
-21.0363
11
30.2009
21
-21.0335
0
LINE
8
BLACK
6
CONTINUOUS
10
30.2009
20
-21.0335
11
30.2066
21
-21.0307
0
LINE
8
BLACK
6
CONTINUOUS
10
30.2066
20
-21.0307
11
30.2178
21
-21.0307
0
LINE
8
BLACK
6
CONTINUOUS
10
30.2178
20
-21.0307
11
30.2234
21
-21.0335
0
LINE
8
BLACK
6
CONTINUOUS
10
30.2403
20
-21.0307
11
30.2628
21
-21.0307
0
LINE
8
BLACK
6
CONTINUOUS
10
30.2487
20
-21.011
11
30.2487
21
-21.0616
0
LINE
8
BLACK
6
CONTINUOUS
10
30.2487
20
-21.0616
11
30.2515
21
-21.0672
0
LINE
8
BLACK
6
CONTINUOUS
10
30.2515
20
-21.0672
11
30.2572
21
-21.07
0
LINE
8
BLACK
6
CONTINUOUS
10
30.2572
20
-21.07
11
30.2628
21
-21.07
0
LINE
8
BLACK
6
CONTINUOUS
10
30.2825
20
-21.0644
11
30.2853
21
-21.0672
0
LINE
8
BLACK
6
CONTINUOUS
10
30.2853
20
-21.0672
11
30.2825
21
-21.07
0
LINE
8
BLACK
6
CONTINUOUS
10
30.2825
20
-21.07
11
30.2797
21
-21.0672
0
LINE
8
BLACK
6
CONTINUOUS
10
30.2797
20
-21.0672
11
30.2825
21
-21.0644
0
LINE
8
BLACK
6
CONTINUOUS
10
30.2825
20
-21.0644
11
30.2825
21
-21.07
0
LINE
8
BLACK
6
CONTINUOUS
10
30.3106
20
-21.07
11
30.3106
21
-21.011
0
LINE
8
BLACK
6
CONTINUOUS
10
30.3162
20
-21.0475
11
30.3331
21
-21.07
0
LINE
8
BLACK
6
CONTINUOUS
10
30.3331
20
-21.0307
11
30.3106
21
-21.0531
0
LINE
8
BLACK
6
CONTINUOUS
10
30.3584
20
-21.07
11
30.3584
21
-21.0307
0
LINE
8
BLACK
6
CONTINUOUS
10
30.3584
20
-21.011
11
30.3556
21
-21.0138
0
LINE
8
BLACK
6
CONTINUOUS
10
30.3556
20
-21.0138
11
30.3584
21
-21.0166
0
LINE
8
BLACK
6
CONTINUOUS
10
30.3584
20
-21.0166
11
30.3612
21
-21.0138
0
LINE
8
BLACK
6
CONTINUOUS
10
30.3612
20
-21.0138
11
30.3584
21
-21.011
0
LINE
8
BLACK
6
CONTINUOUS
10
30.3584
20
-21.011
11
30.3584
21
-21.0166
0
LINE
8
BLACK
6
CONTINUOUS
10
30.4118
20
-21.0672
11
30.4062
21
-21.07
0
LINE
8
BLACK
6
CONTINUOUS
10
30.4062
20
-21.07
11
30.395
21
-21.07
0
LINE
8
BLACK
6
CONTINUOUS
10
30.395
20
-21.07
11
30.3893
21
-21.0672
0
LINE
8
BLACK
6
CONTINUOUS
10
30.3893
20
-21.0672
11
30.3865
21
-21.0644
0
LINE
8
BLACK
6
CONTINUOUS
10
30.3865
20
-21.0644
11
30.3837
21
-21.0588
0
LINE
8
BLACK
6
CONTINUOUS
10
30.3837
20
-21.0588
11
30.3837
21
-21.0419
0
LINE
8
BLACK
6
CONTINUOUS
10
30.3837
20
-21.0419
11
30.3865
21
-21.0363
0
LINE
8
BLACK
6
CONTINUOUS
10
30.3865
20
-21.0363
11
30.3893
21
-21.0335
0
LINE
8
BLACK
6
CONTINUOUS
10
30.3893
20
-21.0335
11
30.395
21
-21.0307
0
LINE
8
BLACK
6
CONTINUOUS
10
30.395
20
-21.0307
11
30.4062
21
-21.0307
0
LINE
8
BLACK
6
CONTINUOUS
10
30.4062
20
-21.0307
11
30.4118
21
-21.0335
0
LINE
8
BLACK
6
CONTINUOUS
10
30.4625
20
-21.07
11
30.4625
21
-21.0391
0
LINE
8
BLACK
6
CONTINUOUS
10
30.4625
20
-21.0391
11
30.4596
21
-21.0335
0
LINE
8
BLACK
6
CONTINUOUS
10
30.4596
20
-21.0335
11
30.454
21
-21.0307
0
LINE
8
BLACK
6
CONTINUOUS
10
30.454
20
-21.0307
11
30.4428
21
-21.0307
0
LINE
8
BLACK
6
CONTINUOUS
10
30.4428
20
-21.0307
11
30.4371
21
-21.0335
0
LINE
8
BLACK
6
CONTINUOUS
10
30.4625
20
-21.0672
11
30.4568
21
-21.07
0
LINE
8
BLACK
6
CONTINUOUS
10
30.4568
20
-21.07
11
30.4428
21
-21.07
0
LINE
8
BLACK
6
CONTINUOUS
10
30.4428
20
-21.07
11
30.4371
21
-21.0672
0
LINE
8
BLACK
6
CONTINUOUS
10
30.4371
20
-21.0672
11
30.4343
21
-21.0616
0
LINE
8
BLACK
6
CONTINUOUS
10
30.4343
20
-21.0616
11
30.4343
21
-21.056
0
LINE
8
BLACK
6
CONTINUOUS
10
30.4343
20
-21.056
11
30.4371
21
-21.0503
0
LINE
8
BLACK
6
CONTINUOUS
10
30.4371
20
-21.0503
11
30.4428
21
-21.0475
0
LINE
8
BLACK
6
CONTINUOUS
10
30.4428
20
-21.0475
11
30.4568
21
-21.0475
0
LINE
8
BLACK
6
CONTINUOUS
10
30.4568
20
-21.0475
11
30.4625
21
-21.0447
0
LINE
8
BLACK
6
CONTINUOUS
10
30.5159
20
-21.07
11
30.5159
21
-21.011
0
LINE
8
BLACK
6
CONTINUOUS
10
30.5159
20
-21.0672
11
30.5103
21
-21.07
0
LINE
8
BLACK
6
CONTINUOUS
10
30.5103
20
-21.07
11
30.499
21
-21.07
0
LINE
8
BLACK
6
CONTINUOUS
10
30.499
20
-21.07
11
30.4934
21
-21.0672
0
LINE
8
BLACK
6
CONTINUOUS
10
30.4934
20
-21.0672
11
30.4906
21
-21.0644
0
LINE
8
BLACK
6
CONTINUOUS
10
30.4906
20
-21.0644
11
30.4878
21
-21.0588
0
LINE
8
BLACK
6
CONTINUOUS
10
30.4878
20
-21.0588
11
30.4878
21
-21.0419
0
LINE
8
BLACK
6
CONTINUOUS
10
30.4878
20
-21.0419
11
30.4906
21
-21.0363
0
LINE
8
BLACK
6
CONTINUOUS
10
30.4906
20
-21.0363
11
30.4934
21
-21.0335
0
LINE
8
BLACK
6
CONTINUOUS
10
30.4934
20
-21.0335
11
30.499
21
-21.0307
0
LINE
8
BLACK
6
CONTINUOUS
10
30.499
20
-21.0307
11
30.5103
21
-21.0307
0
LINE
8
BLACK
6
CONTINUOUS
10
30.5103
20
-21.0307
11
30.5159
21
-21.0335
0
LINE
8
BLACK
6
CONTINUOUS
10
30.5299
20
-21.0756
11
30.5749
21
-21.0756
0
LINE
8
BLACK
6
CONTINUOUS
10
30.589
20
-21.0307
11
30.589
21
-21.0897
0
LINE
8
BLACK
6
CONTINUOUS
10
30.589
20
-21.0335
11
30.5946
21
-21.0307
0
LINE
8
BLACK
6
CONTINUOUS
10
30.5946
20
-21.0307
11
30.6059
21
-21.0307
0
LINE
8
BLACK
6
CONTINUOUS
10
30.6059
20
-21.0307
11
30.6115
21
-21.0335
0
LINE
8
BLACK
6
CONTINUOUS
10
30.6115
20
-21.0335
11
30.6143
21
-21.0363
0
LINE
8
BLACK
6
CONTINUOUS
10
30.6143
20
-21.0363
11
30.6171
21
-21.0419
0
LINE
8
BLACK
6
CONTINUOUS
10
30.6171
20
-21.0419
11
30.6171
21
-21.0588
0
LINE
8
BLACK
6
CONTINUOUS
10
30.6171
20
-21.0588
11
30.6143
21
-21.0644
0
LINE
8
BLACK
6
CONTINUOUS
10
30.6143
20
-21.0644
11
30.6115
21
-21.0672
0
LINE
8
BLACK
6
CONTINUOUS
10
30.6115
20
-21.0672
11
30.6059
21
-21.07
0
LINE
8
BLACK
6
CONTINUOUS
10
30.6059
20
-21.07
11
30.5946
21
-21.07
0
LINE
8
BLACK
6
CONTINUOUS
10
30.5946
20
-21.07
11
30.589
21
-21.0672
0
LINE
8
BLACK
6
CONTINUOUS
10
30.6677
20
-21.0672
11
30.6621
21
-21.07
0
LINE
8
BLACK
6
CONTINUOUS
10
30.6621
20
-21.07
11
30.6509
21
-21.07
0
LINE
8
BLACK
6
CONTINUOUS
10
30.6509
20
-21.07
11
30.6452
21
-21.0672
0
LINE
8
BLACK
6
CONTINUOUS
10
30.6452
20
-21.0672
11
30.6424
21
-21.0644
0
LINE
8
BLACK
6
CONTINUOUS
10
30.6424
20
-21.0644
11
30.6396
21
-21.0588
0
LINE
8
BLACK
6
CONTINUOUS
10
30.6396
20
-21.0588
11
30.6396
21
-21.0419
0
LINE
8
BLACK
6
CONTINUOUS
10
30.6396
20
-21.0419
11
30.6424
21
-21.0363
0
LINE
8
BLACK
6
CONTINUOUS
10
30.6424
20
-21.0363
11
30.6452
21
-21.0335
0
LINE
8
BLACK
6
CONTINUOUS
10
30.6452
20
-21.0335
11
30.6509
21
-21.0307
0
LINE
8
BLACK
6
CONTINUOUS
10
30.6509
20
-21.0307
11
30.6621
21
-21.0307
0
LINE
8
BLACK
6
CONTINUOUS
10
30.6621
20
-21.0307
11
30.6677
21
-21.0335
0
LINE
8
BLACK
6
CONTINUOUS
10
30.6931
20
-21.07
11
30.6931
21
-21.011
0
LINE
8
BLACK
6
CONTINUOUS
10
30.6931
20
-21.0335
11
30.6987
21
-21.0307
0
LINE
8
BLACK
6
CONTINUOUS
10
30.6987
20
-21.0307
11
30.7099
21
-21.0307
0
LINE
8
BLACK
6
CONTINUOUS
10
30.7099
20
-21.0307
11
30.7156
21
-21.0335
0
LINE
8
BLACK
6
CONTINUOUS
10
30.7156
20
-21.0335
11
30.7184
21
-21.0363
0
LINE
8
BLACK
6
CONTINUOUS
10
30.7184
20
-21.0363
11
30.7212
21
-21.0419
0
LINE
8
BLACK
6
CONTINUOUS
10
30.7212
20
-21.0419
11
30.7212
21
-21.0588
0
LINE
8
BLACK
6
CONTINUOUS
10
30.7212
20
-21.0588
11
30.7184
21
-21.0644
0
LINE
8
BLACK
6
CONTINUOUS
10
30.7184
20
-21.0644
11
30.7156
21
-21.0672
0
LINE
8
BLACK
6
CONTINUOUS
10
30.7156
20
-21.0672
11
30.7099
21
-21.07
0
LINE
8
BLACK
6
CONTINUOUS
10
30.7099
20
-21.07
11
30.6987
21
-21.07
0
LINE
8
BLACK
6
CONTINUOUS
10
30.6987
20
-21.07
11
30.6931
21
-21.0672
0
LINE
8
BLACK
6
CONTINUOUS
10
29.2756
20
-20.878
11
33.5276
21
-20.878
0
LINE
8
BLACK
6
CONTINUOUS
10
29.3292
20
-20.9609
11
29.3376
21
-20.9637
0
LINE
8
BLACK
6
CONTINUOUS
10
29.3376
20
-20.9637
11
29.3517
21
-20.9637
0
LINE
8
BLACK
6
CONTINUOUS
10
29.3517
20
-20.9637
11
29.3573
21
-20.9609
0
LINE
8
BLACK
6
CONTINUOUS
10
29.3573
20
-20.9609
11
29.3601
21
-20.9581
0
LINE
8
BLACK
6
CONTINUOUS
10
29.3601
20
-20.9581
11
29.3629
21
-20.9525
0
LINE
8
BLACK
6
CONTINUOUS
10
29.3629
20
-20.9525
11
29.3629
21
-20.9469
0
LINE
8
BLACK
6
CONTINUOUS
10
29.3629
20
-20.9469
11
29.3601
21
-20.9412
0
LINE
8
BLACK
6
CONTINUOUS
10
29.3601
20
-20.9412
11
29.3573
21
-20.9384
0
LINE
8
BLACK
6
CONTINUOUS
10
29.3573
20
-20.9384
11
29.3517
21
-20.9356
0
LINE
8
BLACK
6
CONTINUOUS
10
29.3517
20
-20.9356
11
29.3404
21
-20.9328
0
LINE
8
BLACK
6
CONTINUOUS
10
29.3404
20
-20.9328
11
29.3348
21
-20.93
0
LINE
8
BLACK
6
CONTINUOUS
10
29.3348
20
-20.93
11
29.332
21
-20.9272
0
LINE
8
BLACK
6
CONTINUOUS
10
29.332
20
-20.9272
11
29.3292
21
-20.9215
0
LINE
8
BLACK
6
CONTINUOUS
10
29.3292
20
-20.9215
11
29.3292
21
-20.9159
0
LINE
8
BLACK
6
CONTINUOUS
10
29.3292
20
-20.9159
11
29.332
21
-20.9103
0
LINE
8
BLACK
6
CONTINUOUS
10
29.332
20
-20.9103
11
29.3348
21
-20.9075
0
LINE
8
BLACK
6
CONTINUOUS
10
29.3348
20
-20.9075
11
29.3404
21
-20.9047
0
LINE
8
BLACK
6
CONTINUOUS
10
29.3404
20
-20.9047
11
29.3545
21
-20.9047
0
LINE
8
BLACK
6
CONTINUOUS
10
29.3545
20
-20.9047
11
29.3629
21
-20.9075
0
LINE
8
BLACK
6
CONTINUOUS
10
29.3882
20
-20.9637
11
29.3882
21
-20.9047
0
LINE
8
BLACK
6
CONTINUOUS
10
29.4135
20
-20.9637
11
29.4135
21
-20.9328
0
LINE
8
BLACK
6
CONTINUOUS
10
29.4135
20
-20.9328
11
29.4107
21
-20.9272
0
LINE
8
BLACK
6
CONTINUOUS
10
29.4107
20
-20.9272
11
29.4051
21
-20.9244
0
LINE
8
BLACK
6
CONTINUOUS
10
29.4051
20
-20.9244
11
29.3967
21
-20.9244
0
LINE
8
BLACK
6
CONTINUOUS
10
29.3967
20
-20.9244
11
29.391
21
-20.9272
0
LINE
8
BLACK
6
CONTINUOUS
10
29.391
20
-20.9272
11
29.3882
21
-20.93
0
LINE
8
BLACK
6
CONTINUOUS
10
29.4641
20
-20.9609
11
29.4585
21
-20.9637
0
LINE
8
BLACK
6
CONTINUOUS
10
29.4585
20
-20.9637
11
29.4473
21
-20.9637
0
LINE
8
BLACK
6
CONTINUOUS
10
29.4473
20
-20.9637
11
29.4416
21
-20.9609
0
LINE
8
BLACK
6
CONTINUOUS
10
29.4416
20
-20.9609
11
29.4388
21
-20.9553
0
LINE
8
BLACK
6
CONTINUOUS
10
29.4388
20
-20.9553
11
29.4388
21
-20.9328
0
LINE
8
BLACK
6
CONTINUOUS
10
29.4388
20
-20.9328
11
29.4416
21
-20.9272
0
LINE
8
BLACK
6
CONTINUOUS
10
29.4416
20
-20.9272
11
29.4473
21
-20.9244
0
LINE
8
BLACK
6
CONTINUOUS
10
29.4473
20
-20.9244
11
29.4585
21
-20.9244
0
LINE
8
BLACK
6
CONTINUOUS
10
29.4585
20
-20.9244
11
29.4641
21
-20.9272
0
LINE
8
BLACK
6
CONTINUOUS
10
29.4641
20
-20.9272
11
29.467
21
-20.9328
0
LINE
8
BLACK
6
CONTINUOUS
10
29.467
20
-20.9328
11
29.467
21
-20.9384
0
LINE
8
BLACK
6
CONTINUOUS
10
29.467
20
-20.9384
11
29.4388
21
-20.944
0
LINE
8
BLACK
6
CONTINUOUS
10
29.5148
20
-20.9609
11
29.5091
21
-20.9637
0
LINE
8
BLACK
6
CONTINUOUS
10
29.5091
20
-20.9637
11
29.4979
21
-20.9637
0
LINE
8
BLACK
6
CONTINUOUS
10
29.4979
20
-20.9637
11
29.4923
21
-20.9609
0
LINE
8
BLACK
6
CONTINUOUS
10
29.4923
20
-20.9609
11
29.4895
21
-20.9553
0
LINE
8
BLACK
6
CONTINUOUS
10
29.4895
20
-20.9553
11
29.4895
21
-20.9328
0
LINE
8
BLACK
6
CONTINUOUS
10
29.4895
20
-20.9328
11
29.4923
21
-20.9272
0
LINE
8
BLACK
6
CONTINUOUS
10
29.4923
20
-20.9272
11
29.4979
21
-20.9244
0
LINE
8
BLACK
6
CONTINUOUS
10
29.4979
20
-20.9244
11
29.5091
21
-20.9244
0
LINE
8
BLACK
6
CONTINUOUS
10
29.5091
20
-20.9244
11
29.5148
21
-20.9272
0
LINE
8
BLACK
6
CONTINUOUS
10
29.5148
20
-20.9272
11
29.5176
21
-20.9328
0
LINE
8
BLACK
6
CONTINUOUS
10
29.5176
20
-20.9328
11
29.5176
21
-20.9384
0
LINE
8
BLACK
6
CONTINUOUS
10
29.5176
20
-20.9384
11
29.4895
21
-20.944
0
LINE
8
BLACK
6
CONTINUOUS
10
29.5344
20
-20.9244
11
29.5569
21
-20.9244
0
LINE
8
BLACK
6
CONTINUOUS
10
29.5429
20
-20.9047
11
29.5429
21
-20.9553
0
LINE
8
BLACK
6
CONTINUOUS
10
29.5429
20
-20.9553
11
29.5457
21
-20.9609
0
LINE
8
BLACK
6
CONTINUOUS
10
29.5457
20
-20.9609
11
29.5513
21
-20.9637
0
LINE
8
BLACK
6
CONTINUOUS
10
29.5513
20
-20.9637
11
29.5569
21
-20.9637
0
LINE
8
BLACK
6
CONTINUOUS
10
29.5766
20
-20.9581
11
29.5794
21
-20.9609
0
LINE
8
BLACK
6
CONTINUOUS
10
29.5794
20
-20.9609
11
29.5766
21
-20.9637
0
LINE
8
BLACK
6
CONTINUOUS
10
29.5766
20
-20.9637
11
29.5738
21
-20.9609
0
LINE
8
BLACK
6
CONTINUOUS
10
29.5738
20
-20.9609
11
29.5766
21
-20.9581
0
LINE
8
BLACK
6
CONTINUOUS
10
29.5766
20
-20.9581
11
29.5766
21
-20.9637
0
LINE
8
BLACK
6
CONTINUOUS
10
29.5766
20
-20.9272
11
29.5794
21
-20.93
0
LINE
8
BLACK
6
CONTINUOUS
10
29.5794
20
-20.93
11
29.5766
21
-20.9328
0
LINE
8
BLACK
6
CONTINUOUS
10
29.5766
20
-20.9328
11
29.5738
21
-20.93
0
LINE
8
BLACK
6
CONTINUOUS
10
29.5738
20
-20.93
11
29.5766
21
-20.9272
0
LINE
8
BLACK
6
CONTINUOUS
10
29.5766
20
-20.9272
11
29.5766
21
-20.9328
0
LINE
8
BLACK
6
CONTINUOUS
10
30.063
20
-21.2717
11
30.063
21
-21.3898
0
LINE
8
BLACK
6
CONTINUOUS
10
32.5827
20
-21.2717
11
32.5827
21
-21.5276
0
LINE
8
BLACK
6
CONTINUOUS
10
13.3125
20
-0.561516
11
13.3125
21
-0.561516
0
LINE
8
BLACK
6
CONTINUOUS
10
13.3125
20
-0.561516
11
13.3127
21
-0.56153
0
LINE
8
BLACK
6
CONTINUOUS
10
13.3127
20
-0.56153
11
13.3129
21
-0.561586
0
LINE
8
BLACK
6
CONTINUOUS
10
13.3129
20
-0.561586
11
13.313
21
-0.561678
0
LINE
8
BLACK
6
CONTINUOUS
10
13.313
20
-0.561678
11
13.3132
21
-0.561801
0
LINE
8
BLACK
6
CONTINUOUS
10
13.3132
20
-0.561801
11
13.3133
21
-0.561951
0
LINE
8
BLACK
6
CONTINUOUS
10
13.3133
20
-0.561951
11
13.3134
21
-0.562122
0
LINE
8
BLACK
6
CONTINUOUS
10
13.3134
20
-0.562122
11
13.3135
21
-0.562307
0
LINE
8
BLACK
6
CONTINUOUS
10
13.3135
20
-0.562307
11
13.3135
21
-0.5625
0
LINE
8
BLACK
6
CONTINUOUS
10
13.3135
20
-0.5625
11
13.3135
21
-0.562548
0
LINE
8
BLACK
6
CONTINUOUS
10
13.3135
20
-0.562548
11
13.3135
21
-6.0937
0
LINE
8
BLACK
6
CONTINUOUS
10
13.3135
20
-6.0937
11
13.3135
21
-6.09375
0
LINE
8
BLACK
6
CONTINUOUS
10
13.3135
20
-6.09375
11
13.3135
21
-6.0938
0
LINE
8
BLACK
6
CONTINUOUS
10
13.3135
20
-6.0938
11
13.3135
21
-6.0938
0
LINE
8
BLACK
6
CONTINUOUS
10
13.3135
20
-6.0938
11
13.3135
21
-6.09394
0
LINE
8
BLACK
6
CONTINUOUS
10
13.3135
20
-6.09394
11
13.3134
21
-6.09413
0
LINE
8
BLACK
6
CONTINUOUS
10
13.3134
20
-6.09413
11
13.3133
21
-6.0943
0
LINE
8
BLACK
6
CONTINUOUS
10
13.3133
20
-6.0943
11
13.3132
21
-6.09445
0
LINE
8
BLACK
6
CONTINUOUS
10
13.3132
20
-6.09445
11
13.313
21
-6.09457
0
LINE
8
BLACK
6
CONTINUOUS
10
13.313
20
-6.09457
11
13.3129
21
-6.09466
0
LINE
8
BLACK
6
CONTINUOUS
10
13.3129
20
-6.09466
11
13.3127
21
-6.09472
0
LINE
8
BLACK
6
CONTINUOUS
10
13.3127
20
-6.09472
11
13.3125
21
-6.09474
0
LINE
8
BLACK
6
CONTINUOUS
10
13.3125
20
-6.09474
11
13.3125
21
-6.09473
0
LINE
8
BLACK
6
CONTINUOUS
10
13.3125
20
-6.09473
11
0.562548
21
-6.09473
0
LINE
8
BLACK
6
CONTINUOUS
10
0.562548
20
-6.09473
11
0.5625
21
-6.09474
0
LINE
8
BLACK
6
CONTINUOUS
10
0.5625
20
-6.09474
11
0.562307
21
-6.09472
0
LINE
8
BLACK
6
CONTINUOUS
10
0.562307
20
-6.09472
11
0.562122
21
-6.09466
0
LINE
8
BLACK
6
CONTINUOUS
10
0.562122
20
-6.09466
11
0.561951
21
-6.09457
0
LINE
8
BLACK
6
CONTINUOUS
10
0.561951
20
-6.09457
11
0.561801
21
-6.09445
0
LINE
8
BLACK
6
CONTINUOUS
10
0.561801
20
-6.09445
11
0.561678
21
-6.0943
0
LINE
8
BLACK
6
CONTINUOUS
10
0.561678
20
-6.0943
11
0.561586
21
-6.09413
0
LINE
8
BLACK
6
CONTINUOUS
10
0.561586
20
-6.09413
11
0.56153
21
-6.09394
0
LINE
8
BLACK
6
CONTINUOUS
10
0.56153
20
-6.09394
11
0.561511
21
-6.09375
0
LINE
8
BLACK
6
CONTINUOUS
10
0.561511
20
-6.09375
11
0.561516
21
-6.0937
0
LINE
8
BLACK
6
CONTINUOUS
10
0.561516
20
-6.0937
11
0.561516
21
-0.562548
0
LINE
8
BLACK
6
CONTINUOUS
10
0.561516
20
-0.562548
11
0.561511
21
-0.5625
0
LINE
8
BLACK
6
CONTINUOUS
10
0.561511
20
-0.5625
11
0.56153
21
-0.562307
0
LINE
8
BLACK
6
CONTINUOUS
10
0.56153
20
-0.562307
11
0.561586
21
-0.562122
0
LINE
8
BLACK
6
CONTINUOUS
10
0.561586
20
-0.562122
11
0.561678
21
-0.561951
0
LINE
8
BLACK
6
CONTINUOUS
10
0.561678
20
-0.561951
11
0.561801
21
-0.561801
0
LINE
8
BLACK
6
CONTINUOUS
10
0.561801
20
-0.561801
11
0.561951
21
-0.561678
0
LINE
8
BLACK
6
CONTINUOUS
10
0.561951
20
-0.561678
11
0.562122
21
-0.561586
0
LINE
8
BLACK
6
CONTINUOUS
10
0.562122
20
-0.561586
11
0.562307
21
-0.56153
0
LINE
8
BLACK
6
CONTINUOUS
10
0.562307
20
-0.56153
11
0.562452
21
-0.561516
0
LINE
8
BLACK
6
CONTINUOUS
10
0.562452
20
-0.561516
11
0.562452
21
-0.561516
0
LINE
8
BLACK
6
CONTINUOUS
10
0.562452
20
-0.561516
11
0.5625
21
-0.561511
0
LINE
8
BLACK
6
CONTINUOUS
10
0.5625
20
-0.561511
11
0.562548
21
-0.561516
0
LINE
8
BLACK
6
CONTINUOUS
10
0.562548
20
-0.561516
11
13.3125
21
-0.561516
0
LINE
8
BLACK
6
CONTINUOUS
10
13.3125
20
-0.561516
11
13.3125
21
-0.561511
0
LINE
8
BLACK
6
CONTINUOUS
10
13.3125
20
-0.561511
11
13.3125
21
-0.561516
0
LINE
8
BLACK
6
CONTINUOUS
10
0.563484
20
-0.563484
11
0.563484
21
-6.09277
0
LINE
8
BLACK
6
CONTINUOUS
10
0.563484
20
-6.09277
11
13.3115
21
-6.09277
0
LINE
8
BLACK
6
CONTINUOUS
10
13.3115
20
-6.09277
11
13.3115
21
-0.563484
0
LINE
8
BLACK
6
CONTINUOUS
10
13.3115
20
-0.563484
11
0.563484
21
-0.563484
  0
ENDSEC
  0
EOF
