0
SECTION
2
HEADER
9
$INSUNITS
70
4
9
$INSBASE
10
0.0
20
0.0
30
0.0
9
$EXTMIN
10
0
20
0
9
$EXTMAX
10
313.75
20
128.5
0
ENDSEC
0
SECTION
2
TABLES
0
TABLE
2
LTYPE
70
1
0
LTYPE
2
CONTINUOUS
70
64
3
Solid line
72
65
73
0
40
0.0
0
ENDTAB
0
TABLE
2
LAYER
70
1
0
LAYER
2
Layer1
70
64
62
7
6
CONTINUOUS
0
ENDTAB
0
TABLE
2
STYLE
70
0
0
ENDTAB
0
TABLE
2
VIEW
70
0
0
ENDTAB
0
ENDSEC
0
SECTION
2
BLOCKS
0
ENDSEC
0
SECTION
2
ENTITIES
0
POLYLINE
5
1711
8
Layer1
66
1
10
0.0
20
0.0
30
0.0
70
1
0
VERTEX
5
1712
8
Layer1
10
0.0000
20
0.0000
30
0.0
0
VERTEX
5
1713
8
Layer1
10
313.7500
20
0.0000
30
0.0
0
VERTEX
5
1714
8
Layer1
10
313.7500
20
128.5000
30
0.0
0
VERTEX
5
1715
8
Layer1
10
0.0000
20
128.5000
30
0.0
0
VERTEX
5
1716
8
Layer1
10
0.0000
20
0.0000
30
0.0
0
SEQEND
5
1717
8
Layer1
0
POLYLINE
5
1718
8
Layer1
66
1
10
0.0
20
0.0
30
0.0
70
1
0
VERTEX
5
1719
8
Layer1
10
19.0000
20
110.5000
30
0.0
0
VERTEX
5
171a
8
Layer1
10
19.8000
20
110.5000
30
0.0
0
VERTEX
5
171b
8
Layer1
10
19.8000
20
114.0000
30
0.0
0
VERTEX
5
171c
8
Layer1
10
19.0000
20
114.0000
30
0.0
0
VERTEX
5
171d
8
Layer1
10
19.0000
20
119.0000
30
0.0
0
VERTEX
5
171e
8
Layer1
10
19.8000
20
119.0000
30
0.0
0
VERTEX
5
171f
8
Layer1
10
19.8000
20
122.5000
30
0.0
0
VERTEX
5
1720
8
Layer1
10
19.0000
20
122.5000
30
0.0
0
VERTEX
5
1721
8
Layer1
10
19.0000
20
123.5000
30
0.0
0
VERTEX
5
1722
8
Layer1
10
5.0000
20
123.5000
30
0.0
0
VERTEX
5
1723
8
Layer1
10
5.0000
20
122.5000
30
0.0
0
VERTEX
5
1724
8
Layer1
10
4.2000
20
122.5000
30
0.0
0
VERTEX
5
1725
8
Layer1
10
4.2000
20
119.0000
30
0.0
0
VERTEX
5
1726
8
Layer1
10
5.0000
20
119.0000
30
0.0
0
VERTEX
5
1727
8
Layer1
10
5.0000
20
114.0000
30
0.0
0
VERTEX
5
1728
8
Layer1
10
4.2000
20
114.0000
30
0.0
0
VERTEX
5
1729
8
Layer1
10
4.2000
20
110.5000
30
0.0
0
VERTEX
5
172a
8
Layer1
10
5.0000
20
110.5000
30
0.0
0
VERTEX
5
172b
8
Layer1
10
5.0000
20
109.5000
30
0.0
0
VERTEX
5
172c
8
Layer1
10
19.0000
20
109.5000
30
0.0
0
VERTEX
5
172d
8
Layer1
10
19.0000
20
110.5000
30
0.0
0
SEQEND
5
172e
8
Layer1
0
POLYLINE
5
172f
8
Layer1
66
1
10
0.0
20
0.0
30
0.0
70
1
0
VERTEX
5
1730
8
Layer1
10
47.5000
20
110.5000
30
0.0
0
VERTEX
5
1731
8
Layer1
10
48.3000
20
110.5000
30
0.0
0
VERTEX
5
1732
8
Layer1
10
48.3000
20
114.0000
30
0.0
0
VERTEX
5
1733
8
Layer1
10
47.5000
20
114.0000
30
0.0
0
VERTEX
5
1734
8
Layer1
10
47.5000
20
119.0000
30
0.0
0
VERTEX
5
1735
8
Layer1
10
48.3000
20
119.0000
30
0.0
0
VERTEX
5
1736
8
Layer1
10
48.3000
20
122.5000
30
0.0
0
VERTEX
5
1737
8
Layer1
10
47.5000
20
122.5000
30
0.0
0
VERTEX
5
1738
8
Layer1
10
47.5000
20
123.5000
30
0.0
0
VERTEX
5
1739
8
Layer1
10
33.5000
20
123.5000
30
0.0
0
VERTEX
5
173a
8
Layer1
10
33.5000
20
122.5000
30
0.0
0
VERTEX
5
173b
8
Layer1
10
32.7000
20
122.5000
30
0.0
0
VERTEX
5
173c
8
Layer1
10
32.7000
20
119.0000
30
0.0
0
VERTEX
5
173d
8
Layer1
10
33.5000
20
119.0000
30
0.0
0
VERTEX
5
173e
8
Layer1
10
33.5000
20
114.0000
30
0.0
0
VERTEX
5
173f
8
Layer1
10
32.7000
20
114.0000
30
0.0
0
VERTEX
5
1740
8
Layer1
10
32.7000
20
110.5000
30
0.0
0
VERTEX
5
1741
8
Layer1
10
33.5000
20
110.5000
30
0.0
0
VERTEX
5
1742
8
Layer1
10
33.5000
20
109.5000
30
0.0
0
VERTEX
5
1743
8
Layer1
10
47.5000
20
109.5000
30
0.0
0
VERTEX
5
1744
8
Layer1
10
47.5000
20
110.5000
30
0.0
0
SEQEND
5
1745
8
Layer1
0
POLYLINE
5
1746
8
Layer1
66
1
10
0.0
20
0.0
30
0.0
70
1
0
VERTEX
5
1747
8
Layer1
10
66.5000
20
110.5000
30
0.0
0
VERTEX
5
1748
8
Layer1
10
67.3000
20
110.5000
30
0.0
0
VERTEX
5
1749
8
Layer1
10
67.3000
20
114.0000
30
0.0
0
VERTEX
5
174a
8
Layer1
10
66.5000
20
114.0000
30
0.0
0
VERTEX
5
174b
8
Layer1
10
66.5000
20
119.0000
30
0.0
0
VERTEX
5
174c
8
Layer1
10
67.3000
20
119.0000
30
0.0
0
VERTEX
5
174d
8
Layer1
10
67.3000
20
122.5000
30
0.0
0
VERTEX
5
174e
8
Layer1
10
66.5000
20
122.5000
30
0.0
0
VERTEX
5
174f
8
Layer1
10
66.5000
20
123.5000
30
0.0
0
VERTEX
5
1750
8
Layer1
10
52.5000
20
123.5000
30
0.0
0
VERTEX
5
1751
8
Layer1
10
52.5000
20
122.5000
30
0.0
0
VERTEX
5
1752
8
Layer1
10
51.7000
20
122.5000
30
0.0
0
VERTEX
5
1753
8
Layer1
10
51.7000
20
119.0000
30
0.0
0
VERTEX
5
1754
8
Layer1
10
52.5000
20
119.0000
30
0.0
0
VERTEX
5
1755
8
Layer1
10
52.5000
20
114.0000
30
0.0
0
VERTEX
5
1756
8
Layer1
10
51.7000
20
114.0000
30
0.0
0
VERTEX
5
1757
8
Layer1
10
51.7000
20
110.5000
30
0.0
0
VERTEX
5
1758
8
Layer1
10
52.5000
20
110.5000
30
0.0
0
VERTEX
5
1759
8
Layer1
10
52.5000
20
109.5000
30
0.0
0
VERTEX
5
175a
8
Layer1
10
66.5000
20
109.5000
30
0.0
0
VERTEX
5
175b
8
Layer1
10
66.5000
20
110.5000
30
0.0
0
SEQEND
5
175c
8
Layer1
0
POLYLINE
5
175d
8
Layer1
66
1
10
0.0
20
0.0
30
0.0
70
1
0
VERTEX
5
175e
8
Layer1
10
85.5000
20
110.5000
30
0.0
0
VERTEX
5
175f
8
Layer1
10
86.3000
20
110.5000
30
0.0
0
VERTEX
5
1760
8
Layer1
10
86.3000
20
114.0000
30
0.0
0
VERTEX
5
1761
8
Layer1
10
85.5000
20
114.0000
30
0.0
0
VERTEX
5
1762
8
Layer1
10
85.5000
20
119.0000
30
0.0
0
VERTEX
5
1763
8
Layer1
10
86.3000
20
119.0000
30
0.0
0
VERTEX
5
1764
8
Layer1
10
86.3000
20
122.5000
30
0.0
0
VERTEX
5
1765
8
Layer1
10
85.5000
20
122.5000
30
0.0
0
VERTEX
5
1766
8
Layer1
10
85.5000
20
123.5000
30
0.0
0
VERTEX
5
1767
8
Layer1
10
71.5000
20
123.5000
30
0.0
0
VERTEX
5
1768
8
Layer1
10
71.5000
20
122.5000
30
0.0
0
VERTEX
5
1769
8
Layer1
10
70.7000
20
122.5000
30
0.0
0
VERTEX
5
176a
8
Layer1
10
70.7000
20
119.0000
30
0.0
0
VERTEX
5
176b
8
Layer1
10
71.5000
20
119.0000
30
0.0
0
VERTEX
5
176c
8
Layer1
10
71.5000
20
114.0000
30
0.0
0
VERTEX
5
176d
8
Layer1
10
70.7000
20
114.0000
30
0.0
0
VERTEX
5
176e
8
Layer1
10
70.7000
20
110.5000
30
0.0
0
VERTEX
5
176f
8
Layer1
10
71.5000
20
110.5000
30
0.0
0
VERTEX
5
1770
8
Layer1
10
71.5000
20
109.5000
30
0.0
0
VERTEX
5
1771
8
Layer1
10
85.5000
20
109.5000
30
0.0
0
VERTEX
5
1772
8
Layer1
10
85.5000
20
110.5000
30
0.0
0
SEQEND
5
1773
8
Layer1
0
POLYLINE
5
1774
8
Layer1
66
1
10
0.0
20
0.0
30
0.0
70
1
0
VERTEX
5
1775
8
Layer1
10
104.5000
20
110.5000
30
0.0
0
VERTEX
5
1776
8
Layer1
10
105.3000
20
110.5000
30
0.0
0
VERTEX
5
1777
8
Layer1
10
105.3000
20
114.0000
30
0.0
0
VERTEX
5
1778
8
Layer1
10
104.5000
20
114.0000
30
0.0
0
VERTEX
5
1779
8
Layer1
10
104.5000
20
119.0000
30
0.0
0
VERTEX
5
177a
8
Layer1
10
105.3000
20
119.0000
30
0.0
0
VERTEX
5
177b
8
Layer1
10
105.3000
20
122.5000
30
0.0
0
VERTEX
5
177c
8
Layer1
10
104.5000
20
122.5000
30
0.0
0
VERTEX
5
177d
8
Layer1
10
104.5000
20
123.5000
30
0.0
0
VERTEX
5
177e
8
Layer1
10
90.5000
20
123.5000
30
0.0
0
VERTEX
5
177f
8
Layer1
10
90.5000
20
122.5000
30
0.0
0
VERTEX
5
1780
8
Layer1
10
89.7000
20
122.5000
30
0.0
0
VERTEX
5
1781
8
Layer1
10
89.7000
20
119.0000
30
0.0
0
VERTEX
5
1782
8
Layer1
10
90.5000
20
119.0000
30
0.0
0
VERTEX
5
1783
8
Layer1
10
90.5000
20
114.0000
30
0.0
0
VERTEX
5
1784
8
Layer1
10
89.7000
20
114.0000
30
0.0
0
VERTEX
5
1785
8
Layer1
10
89.7000
20
110.5000
30
0.0
0
VERTEX
5
1786
8
Layer1
10
90.5000
20
110.5000
30
0.0
0
VERTEX
5
1787
8
Layer1
10
90.5000
20
109.5000
30
0.0
0
VERTEX
5
1788
8
Layer1
10
104.5000
20
109.5000
30
0.0
0
VERTEX
5
1789
8
Layer1
10
104.5000
20
110.5000
30
0.0
0
SEQEND
5
178a
8
Layer1
0
POLYLINE
5
178b
8
Layer1
66
1
10
0.0
20
0.0
30
0.0
70
1
0
VERTEX
5
178c
8
Layer1
10
137.7500
20
110.5000
30
0.0
0
VERTEX
5
178d
8
Layer1
10
138.5500
20
110.5000
30
0.0
0
VERTEX
5
178e
8
Layer1
10
138.5500
20
114.0000
30
0.0
0
VERTEX
5
178f
8
Layer1
10
137.7500
20
114.0000
30
0.0
0
VERTEX
5
1790
8
Layer1
10
137.7500
20
119.0000
30
0.0
0
VERTEX
5
1791
8
Layer1
10
138.5500
20
119.0000
30
0.0
0
VERTEX
5
1792
8
Layer1
10
138.5500
20
122.5000
30
0.0
0
VERTEX
5
1793
8
Layer1
10
137.7500
20
122.5000
30
0.0
0
VERTEX
5
1794
8
Layer1
10
137.7500
20
123.5000
30
0.0
0
VERTEX
5
1795
8
Layer1
10
123.7500
20
123.5000
30
0.0
0
VERTEX
5
1796
8
Layer1
10
123.7500
20
122.5000
30
0.0
0
VERTEX
5
1797
8
Layer1
10
122.9500
20
122.5000
30
0.0
0
VERTEX
5
1798
8
Layer1
10
122.9500
20
119.0000
30
0.0
0
VERTEX
5
1799
8
Layer1
10
123.7500
20
119.0000
30
0.0
0
VERTEX
5
179a
8
Layer1
10
123.7500
20
114.0000
30
0.0
0
VERTEX
5
179b
8
Layer1
10
122.9500
20
114.0000
30
0.0
0
VERTEX
5
179c
8
Layer1
10
122.9500
20
110.5000
30
0.0
0
VERTEX
5
179d
8
Layer1
10
123.7500
20
110.5000
30
0.0
0
VERTEX
5
179e
8
Layer1
10
123.7500
20
109.5000
30
0.0
0
VERTEX
5
179f
8
Layer1
10
137.7500
20
109.5000
30
0.0
0
VERTEX
5
17a0
8
Layer1
10
137.7500
20
110.5000
30
0.0
0
SEQEND
5
17a1
8
Layer1
0
POLYLINE
5
17a2
8
Layer1
66
1
10
0.0
20
0.0
30
0.0
70
1
0
VERTEX
5
17a3
8
Layer1
10
156.7500
20
110.5000
30
0.0
0
VERTEX
5
17a4
8
Layer1
10
157.5500
20
110.5000
30
0.0
0
VERTEX
5
17a5
8
Layer1
10
157.5500
20
114.0000
30
0.0
0
VERTEX
5
17a6
8
Layer1
10
156.7500
20
114.0000
30
0.0
0
VERTEX
5
17a7
8
Layer1
10
156.7500
20
119.0000
30
0.0
0
VERTEX
5
17a8
8
Layer1
10
157.5500
20
119.0000
30
0.0
0
VERTEX
5
17a9
8
Layer1
10
157.5500
20
122.5000
30
0.0
0
VERTEX
5
17aa
8
Layer1
10
156.7500
20
122.5000
30
0.0
0
VERTEX
5
17ab
8
Layer1
10
156.7500
20
123.5000
30
0.0
0
VERTEX
5
17ac
8
Layer1
10
142.7500
20
123.5000
30
0.0
0
VERTEX
5
17ad
8
Layer1
10
142.7500
20
122.5000
30
0.0
0
VERTEX
5
17ae
8
Layer1
10
141.9500
20
122.5000
30
0.0
0
VERTEX
5
17af
8
Layer1
10
141.9500
20
119.0000
30
0.0
0
VERTEX
5
17b0
8
Layer1
10
142.7500
20
119.0000
30
0.0
0
VERTEX
5
17b1
8
Layer1
10
142.7500
20
114.0000
30
0.0
0
VERTEX
5
17b2
8
Layer1
10
141.9500
20
114.0000
30
0.0
0
VERTEX
5
17b3
8
Layer1
10
141.9500
20
110.5000
30
0.0
0
VERTEX
5
17b4
8
Layer1
10
142.7500
20
110.5000
30
0.0
0
VERTEX
5
17b5
8
Layer1
10
142.7500
20
109.5000
30
0.0
0
VERTEX
5
17b6
8
Layer1
10
156.7500
20
109.5000
30
0.0
0
VERTEX
5
17b7
8
Layer1
10
156.7500
20
110.5000
30
0.0
0
SEQEND
5
17b8
8
Layer1
0
POLYLINE
5
17b9
8
Layer1
66
1
10
0.0
20
0.0
30
0.0
70
1
0
VERTEX
5
17ba
8
Layer1
10
175.7500
20
110.5000
30
0.0
0
VERTEX
5
17bb
8
Layer1
10
176.5500
20
110.5000
30
0.0
0
VERTEX
5
17bc
8
Layer1
10
176.5500
20
114.0000
30
0.0
0
VERTEX
5
17bd
8
Layer1
10
175.7500
20
114.0000
30
0.0
0
VERTEX
5
17be
8
Layer1
10
175.7500
20
119.0000
30
0.0
0
VERTEX
5
17bf
8
Layer1
10
176.5500
20
119.0000
30
0.0
0
VERTEX
5
17c0
8
Layer1
10
176.5500
20
122.5000
30
0.0
0
VERTEX
5
17c1
8
Layer1
10
175.7500
20
122.5000
30
0.0
0
VERTEX
5
17c2
8
Layer1
10
175.7500
20
123.5000
30
0.0
0
VERTEX
5
17c3
8
Layer1
10
161.7500
20
123.5000
30
0.0
0
VERTEX
5
17c4
8
Layer1
10
161.7500
20
122.5000
30
0.0
0
VERTEX
5
17c5
8
Layer1
10
160.9500
20
122.5000
30
0.0
0
VERTEX
5
17c6
8
Layer1
10
160.9500
20
119.0000
30
0.0
0
VERTEX
5
17c7
8
Layer1
10
161.7500
20
119.0000
30
0.0
0
VERTEX
5
17c8
8
Layer1
10
161.7500
20
114.0000
30
0.0
0
VERTEX
5
17c9
8
Layer1
10
160.9500
20
114.0000
30
0.0
0
VERTEX
5
17ca
8
Layer1
10
160.9500
20
110.5000
30
0.0
0
VERTEX
5
17cb
8
Layer1
10
161.7500
20
110.5000
30
0.0
0
VERTEX
5
17cc
8
Layer1
10
161.7500
20
109.5000
30
0.0
0
VERTEX
5
17cd
8
Layer1
10
175.7500
20
109.5000
30
0.0
0
VERTEX
5
17ce
8
Layer1
10
175.7500
20
110.5000
30
0.0
0
SEQEND
5
17cf
8
Layer1
0
POLYLINE
5
17d0
8
Layer1
66
1
10
0.0
20
0.0
30
0.0
70
1
0
VERTEX
5
17d1
8
Layer1
10
194.7500
20
110.5000
30
0.0
0
VERTEX
5
17d2
8
Layer1
10
195.5500
20
110.5000
30
0.0
0
VERTEX
5
17d3
8
Layer1
10
195.5500
20
114.0000
30
0.0
0
VERTEX
5
17d4
8
Layer1
10
194.7500
20
114.0000
30
0.0
0
VERTEX
5
17d5
8
Layer1
10
194.7500
20
119.0000
30
0.0
0
VERTEX
5
17d6
8
Layer1
10
195.5500
20
119.0000
30
0.0
0
VERTEX
5
17d7
8
Layer1
10
195.5500
20
122.5000
30
0.0
0
VERTEX
5
17d8
8
Layer1
10
194.7500
20
122.5000
30
0.0
0
VERTEX
5
17d9
8
Layer1
10
194.7500
20
123.5000
30
0.0
0
VERTEX
5
17da
8
Layer1
10
180.7500
20
123.5000
30
0.0
0
VERTEX
5
17db
8
Layer1
10
180.7500
20
122.5000
30
0.0
0
VERTEX
5
17dc
8
Layer1
10
179.9500
20
122.5000
30
0.0
0
VERTEX
5
17dd
8
Layer1
10
179.9500
20
119.0000
30
0.0
0
VERTEX
5
17de
8
Layer1
10
180.7500
20
119.0000
30
0.0
0
VERTEX
5
17df
8
Layer1
10
180.7500
20
114.0000
30
0.0
0
VERTEX
5
17e0
8
Layer1
10
179.9500
20
114.0000
30
0.0
0
VERTEX
5
17e1
8
Layer1
10
179.9500
20
110.5000
30
0.0
0
VERTEX
5
17e2
8
Layer1
10
180.7500
20
110.5000
30
0.0
0
VERTEX
5
17e3
8
Layer1
10
180.7500
20
109.5000
30
0.0
0
VERTEX
5
17e4
8
Layer1
10
194.7500
20
109.5000
30
0.0
0
VERTEX
5
17e5
8
Layer1
10
194.7500
20
110.5000
30
0.0
0
SEQEND
5
17e6
8
Layer1
0
POLYLINE
5
17e7
8
Layer1
66
1
10
0.0
20
0.0
30
0.0
70
1
0
VERTEX
5
17e8
8
Layer1
10
228.0000
20
110.5000
30
0.0
0
VERTEX
5
17e9
8
Layer1
10
228.8000
20
110.5000
30
0.0
0
VERTEX
5
17ea
8
Layer1
10
228.8000
20
114.0000
30
0.0
0
VERTEX
5
17eb
8
Layer1
10
228.0000
20
114.0000
30
0.0
0
VERTEX
5
17ec
8
Layer1
10
228.0000
20
119.0000
30
0.0
0
VERTEX
5
17ed
8
Layer1
10
228.8000
20
119.0000
30
0.0
0
VERTEX
5
17ee
8
Layer1
10
228.8000
20
122.5000
30
0.0
0
VERTEX
5
17ef
8
Layer1
10
228.0000
20
122.5000
30
0.0
0
VERTEX
5
17f0
8
Layer1
10
228.0000
20
123.5000
30
0.0
0
VERTEX
5
17f1
8
Layer1
10
214.0000
20
123.5000
30
0.0
0
VERTEX
5
17f2
8
Layer1
10
214.0000
20
122.5000
30
0.0
0
VERTEX
5
17f3
8
Layer1
10
213.2000
20
122.5000
30
0.0
0
VERTEX
5
17f4
8
Layer1
10
213.2000
20
119.0000
30
0.0
0
VERTEX
5
17f5
8
Layer1
10
214.0000
20
119.0000
30
0.0
0
VERTEX
5
17f6
8
Layer1
10
214.0000
20
114.0000
30
0.0
0
VERTEX
5
17f7
8
Layer1
10
213.2000
20
114.0000
30
0.0
0
VERTEX
5
17f8
8
Layer1
10
213.2000
20
110.5000
30
0.0
0
VERTEX
5
17f9
8
Layer1
10
214.0000
20
110.5000
30
0.0
0
VERTEX
5
17fa
8
Layer1
10
214.0000
20
109.5000
30
0.0
0
VERTEX
5
17fb
8
Layer1
10
228.0000
20
109.5000
30
0.0
0
VERTEX
5
17fc
8
Layer1
10
228.0000
20
110.5000
30
0.0
0
SEQEND
5
17fd
8
Layer1
0
POLYLINE
5
17fe
8
Layer1
66
1
10
0.0
20
0.0
30
0.0
70
1
0
VERTEX
5
17ff
8
Layer1
10
247.0000
20
110.5000
30
0.0
0
VERTEX
5
1800
8
Layer1
10
247.8000
20
110.5000
30
0.0
0
VERTEX
5
1801
8
Layer1
10
247.8000
20
114.0000
30
0.0
0
VERTEX
5
1802
8
Layer1
10
247.0000
20
114.0000
30
0.0
0
VERTEX
5
1803
8
Layer1
10
247.0000
20
119.0000
30
0.0
0
VERTEX
5
1804
8
Layer1
10
247.8000
20
119.0000
30
0.0
0
VERTEX
5
1805
8
Layer1
10
247.8000
20
122.5000
30
0.0
0
VERTEX
5
1806
8
Layer1
10
247.0000
20
122.5000
30
0.0
0
VERTEX
5
1807
8
Layer1
10
247.0000
20
123.5000
30
0.0
0
VERTEX
5
1808
8
Layer1
10
233.0000
20
123.5000
30
0.0
0
VERTEX
5
1809
8
Layer1
10
233.0000
20
122.5000
30
0.0
0
VERTEX
5
180a
8
Layer1
10
232.2000
20
122.5000
30
0.0
0
VERTEX
5
180b
8
Layer1
10
232.2000
20
119.0000
30
0.0
0
VERTEX
5
180c
8
Layer1
10
233.0000
20
119.0000
30
0.0
0
VERTEX
5
180d
8
Layer1
10
233.0000
20
114.0000
30
0.0
0
VERTEX
5
180e
8
Layer1
10
232.2000
20
114.0000
30
0.0
0
VERTEX
5
180f
8
Layer1
10
232.2000
20
110.5000
30
0.0
0
VERTEX
5
1810
8
Layer1
10
233.0000
20
110.5000
30
0.0
0
VERTEX
5
1811
8
Layer1
10
233.0000
20
109.5000
30
0.0
0
VERTEX
5
1812
8
Layer1
10
247.0000
20
109.5000
30
0.0
0
VERTEX
5
1813
8
Layer1
10
247.0000
20
110.5000
30
0.0
0
SEQEND
5
1814
8
Layer1
0
POLYLINE
5
1815
8
Layer1
66
1
10
0.0
20
0.0
30
0.0
70
1
0
VERTEX
5
1816
8
Layer1
10
266.0000
20
110.5000
30
0.0
0
VERTEX
5
1817
8
Layer1
10
266.8000
20
110.5000
30
0.0
0
VERTEX
5
1818
8
Layer1
10
266.8000
20
114.0000
30
0.0
0
VERTEX
5
1819
8
Layer1
10
266.0000
20
114.0000
30
0.0
0
VERTEX
5
181a
8
Layer1
10
266.0000
20
119.0000
30
0.0
0
VERTEX
5
181b
8
Layer1
10
266.8000
20
119.0000
30
0.0
0
VERTEX
5
181c
8
Layer1
10
266.8000
20
122.5000
30
0.0
0
VERTEX
5
181d
8
Layer1
10
266.0000
20
122.5000
30
0.0
0
VERTEX
5
181e
8
Layer1
10
266.0000
20
123.5000
30
0.0
0
VERTEX
5
181f
8
Layer1
10
252.0000
20
123.5000
30
0.0
0
VERTEX
5
1820
8
Layer1
10
252.0000
20
122.5000
30
0.0
0
VERTEX
5
1821
8
Layer1
10
251.2000
20
122.5000
30
0.0
0
VERTEX
5
1822
8
Layer1
10
251.2000
20
119.0000
30
0.0
0
VERTEX
5
1823
8
Layer1
10
252.0000
20
119.0000
30
0.0
0
VERTEX
5
1824
8
Layer1
10
252.0000
20
114.0000
30
0.0
0
VERTEX
5
1825
8
Layer1
10
251.2000
20
114.0000
30
0.0
0
VERTEX
5
1826
8
Layer1
10
251.2000
20
110.5000
30
0.0
0
VERTEX
5
1827
8
Layer1
10
252.0000
20
110.5000
30
0.0
0
VERTEX
5
1828
8
Layer1
10
252.0000
20
109.5000
30
0.0
0
VERTEX
5
1829
8
Layer1
10
266.0000
20
109.5000
30
0.0
0
VERTEX
5
182a
8
Layer1
10
266.0000
20
110.5000
30
0.0
0
SEQEND
5
182b
8
Layer1
0
POLYLINE
5
182c
8
Layer1
66
1
10
0.0
20
0.0
30
0.0
70
1
0
VERTEX
5
182d
8
Layer1
10
285.0000
20
110.5000
30
0.0
0
VERTEX
5
182e
8
Layer1
10
285.8000
20
110.5000
30
0.0
0
VERTEX
5
182f
8
Layer1
10
285.8000
20
114.0000
30
0.0
0
VERTEX
5
1830
8
Layer1
10
285.0000
20
114.0000
30
0.0
0
VERTEX
5
1831
8
Layer1
10
285.0000
20
119.0000
30
0.0
0
VERTEX
5
1832
8
Layer1
10
285.8000
20
119.0000
30
0.0
0
VERTEX
5
1833
8
Layer1
10
285.8000
20
122.5000
30
0.0
0
VERTEX
5
1834
8
Layer1
10
285.0000
20
122.5000
30
0.0
0
VERTEX
5
1835
8
Layer1
10
285.0000
20
123.5000
30
0.0
0
VERTEX
5
1836
8
Layer1
10
271.0000
20
123.5000
30
0.0
0
VERTEX
5
1837
8
Layer1
10
271.0000
20
122.5000
30
0.0
0
VERTEX
5
1838
8
Layer1
10
270.2000
20
122.5000
30
0.0
0
VERTEX
5
1839
8
Layer1
10
270.2000
20
119.0000
30
0.0
0
VERTEX
5
183a
8
Layer1
10
271.0000
20
119.0000
30
0.0
0
VERTEX
5
183b
8
Layer1
10
271.0000
20
114.0000
30
0.0
0
VERTEX
5
183c
8
Layer1
10
270.2000
20
114.0000
30
0.0
0
VERTEX
5
183d
8
Layer1
10
270.2000
20
110.5000
30
0.0
0
VERTEX
5
183e
8
Layer1
10
271.0000
20
110.5000
30
0.0
0
VERTEX
5
183f
8
Layer1
10
271.0000
20
109.5000
30
0.0
0
VERTEX
5
1840
8
Layer1
10
285.0000
20
109.5000
30
0.0
0
VERTEX
5
1841
8
Layer1
10
285.0000
20
110.5000
30
0.0
0
SEQEND
5
1842
8
Layer1
0
POLYLINE
5
1843
8
Layer1
66
1
10
0.0
20
0.0
30
0.0
70
1
0
VERTEX
5
1844
8
Layer1
10
308.7500
20
110.5000
30
0.0
0
VERTEX
5
1845
8
Layer1
10
309.5500
20
110.5000
30
0.0
0
VERTEX
5
1846
8
Layer1
10
309.5500
20
114.0000
30
0.0
0
VERTEX
5
1847
8
Layer1
10
308.7500
20
114.0000
30
0.0
0
VERTEX
5
1848
8
Layer1
10
308.7500
20
119.0000
30
0.0
0
VERTEX
5
1849
8
Layer1
10
309.5500
20
119.0000
30
0.0
0
VERTEX
5
184a
8
Layer1
10
309.5500
20
122.5000
30
0.0
0
VERTEX
5
184b
8
Layer1
10
308.7500
20
122.5000
30
0.0
0
VERTEX
5
184c
8
Layer1
10
308.7500
20
123.5000
30
0.0
0
VERTEX
5
184d
8
Layer1
10
294.7500
20
123.5000
30
0.0
0
VERTEX
5
184e
8
Layer1
10
294.7500
20
122.5000
30
0.0
0
VERTEX
5
184f
8
Layer1
10
293.9500
20
122.5000
30
0.0
0
VERTEX
5
1850
8
Layer1
10
293.9500
20
119.0000
30
0.0
0
VERTEX
5
1851
8
Layer1
10
294.7500
20
119.0000
30
0.0
0
VERTEX
5
1852
8
Layer1
10
294.7500
20
114.0000
30
0.0
0
VERTEX
5
1853
8
Layer1
10
293.9500
20
114.0000
30
0.0
0
VERTEX
5
1854
8
Layer1
10
293.9500
20
110.5000
30
0.0
0
VERTEX
5
1855
8
Layer1
10
294.7500
20
110.5000
30
0.0
0
VERTEX
5
1856
8
Layer1
10
294.7500
20
109.5000
30
0.0
0
VERTEX
5
1857
8
Layer1
10
308.7500
20
109.5000
30
0.0
0
VERTEX
5
1858
8
Layer1
10
308.7500
20
110.5000
30
0.0
0
SEQEND
5
1859
8
Layer1
0
POLYLINE
5
185a
8
Layer1
66
1
10
0.0
20
0.0
30
0.0
70
1
0
VERTEX
5
185b
8
Layer1
10
19.0000
20
86.7500
30
0.0
0
VERTEX
5
185c
8
Layer1
10
19.8000
20
86.7500
30
0.0
0
VERTEX
5
185d
8
Layer1
10
19.8000
20
90.2500
30
0.0
0
VERTEX
5
185e
8
Layer1
10
19.0000
20
90.2500
30
0.0
0
VERTEX
5
185f
8
Layer1
10
19.0000
20
95.2500
30
0.0
0
VERTEX
5
1860
8
Layer1
10
19.8000
20
95.2500
30
0.0
0
VERTEX
5
1861
8
Layer1
10
19.8000
20
98.7500
30
0.0
0
VERTEX
5
1862
8
Layer1
10
19.0000
20
98.7500
30
0.0
0
VERTEX
5
1863
8
Layer1
10
19.0000
20
99.7500
30
0.0
0
VERTEX
5
1864
8
Layer1
10
5.0000
20
99.7500
30
0.0
0
VERTEX
5
1865
8
Layer1
10
5.0000
20
98.7500
30
0.0
0
VERTEX
5
1866
8
Layer1
10
4.2000
20
98.7500
30
0.0
0
VERTEX
5
1867
8
Layer1
10
4.2000
20
95.2500
30
0.0
0
VERTEX
5
1868
8
Layer1
10
5.0000
20
95.2500
30
0.0
0
VERTEX
5
1869
8
Layer1
10
5.0000
20
90.2500
30
0.0
0
VERTEX
5
186a
8
Layer1
10
4.2000
20
90.2500
30
0.0
0
VERTEX
5
186b
8
Layer1
10
4.2000
20
86.7500
30
0.0
0
VERTEX
5
186c
8
Layer1
10
5.0000
20
86.7500
30
0.0
0
VERTEX
5
186d
8
Layer1
10
5.0000
20
85.7500
30
0.0
0
VERTEX
5
186e
8
Layer1
10
19.0000
20
85.7500
30
0.0
0
VERTEX
5
186f
8
Layer1
10
19.0000
20
86.7500
30
0.0
0
SEQEND
5
1870
8
Layer1
0
POLYLINE
5
1871
8
Layer1
66
1
10
0.0
20
0.0
30
0.0
70
1
0
VERTEX
5
1872
8
Layer1
10
38.0000
20
86.7500
30
0.0
0
VERTEX
5
1873
8
Layer1
10
38.8000
20
86.7500
30
0.0
0
VERTEX
5
1874
8
Layer1
10
38.8000
20
90.2500
30
0.0
0
VERTEX
5
1875
8
Layer1
10
38.0000
20
90.2500
30
0.0
0
VERTEX
5
1876
8
Layer1
10
38.0000
20
95.2500
30
0.0
0
VERTEX
5
1877
8
Layer1
10
38.8000
20
95.2500
30
0.0
0
VERTEX
5
1878
8
Layer1
10
38.8000
20
98.7500
30
0.0
0
VERTEX
5
1879
8
Layer1
10
38.0000
20
98.7500
30
0.0
0
VERTEX
5
187a
8
Layer1
10
38.0000
20
99.7500
30
0.0
0
VERTEX
5
187b
8
Layer1
10
24.0000
20
99.7500
30
0.0
0
VERTEX
5
187c
8
Layer1
10
24.0000
20
98.7500
30
0.0
0
VERTEX
5
187d
8
Layer1
10
23.2000
20
98.7500
30
0.0
0
VERTEX
5
187e
8
Layer1
10
23.2000
20
95.2500
30
0.0
0
VERTEX
5
187f
8
Layer1
10
24.0000
20
95.2500
30
0.0
0
VERTEX
5
1880
8
Layer1
10
24.0000
20
90.2500
30
0.0
0
VERTEX
5
1881
8
Layer1
10
23.2000
20
90.2500
30
0.0
0
VERTEX
5
1882
8
Layer1
10
23.2000
20
86.7500
30
0.0
0
VERTEX
5
1883
8
Layer1
10
24.0000
20
86.7500
30
0.0
0
VERTEX
5
1884
8
Layer1
10
24.0000
20
85.7500
30
0.0
0
VERTEX
5
1885
8
Layer1
10
38.0000
20
85.7500
30
0.0
0
VERTEX
5
1886
8
Layer1
10
38.0000
20
86.7500
30
0.0
0
SEQEND
5
1887
8
Layer1
0
POLYLINE
5
1888
8
Layer1
66
1
10
0.0
20
0.0
30
0.0
70
1
0
VERTEX
5
1889
8
Layer1
10
57.0000
20
86.7500
30
0.0
0
VERTEX
5
188a
8
Layer1
10
57.8000
20
86.7500
30
0.0
0
VERTEX
5
188b
8
Layer1
10
57.8000
20
90.2500
30
0.0
0
VERTEX
5
188c
8
Layer1
10
57.0000
20
90.2500
30
0.0
0
VERTEX
5
188d
8
Layer1
10
57.0000
20
95.2500
30
0.0
0
VERTEX
5
188e
8
Layer1
10
57.8000
20
95.2500
30
0.0
0
VERTEX
5
188f
8
Layer1
10
57.8000
20
98.7500
30
0.0
0
VERTEX
5
1890
8
Layer1
10
57.0000
20
98.7500
30
0.0
0
VERTEX
5
1891
8
Layer1
10
57.0000
20
99.7500
30
0.0
0
VERTEX
5
1892
8
Layer1
10
43.0000
20
99.7500
30
0.0
0
VERTEX
5
1893
8
Layer1
10
43.0000
20
98.7500
30
0.0
0
VERTEX
5
1894
8
Layer1
10
42.2000
20
98.7500
30
0.0
0
VERTEX
5
1895
8
Layer1
10
42.2000
20
95.2500
30
0.0
0
VERTEX
5
1896
8
Layer1
10
43.0000
20
95.2500
30
0.0
0
VERTEX
5
1897
8
Layer1
10
43.0000
20
90.2500
30
0.0
0
VERTEX
5
1898
8
Layer1
10
42.2000
20
90.2500
30
0.0
0
VERTEX
5
1899
8
Layer1
10
42.2000
20
86.7500
30
0.0
0
VERTEX
5
189a
8
Layer1
10
43.0000
20
86.7500
30
0.0
0
VERTEX
5
189b
8
Layer1
10
43.0000
20
85.7500
30
0.0
0
VERTEX
5
189c
8
Layer1
10
57.0000
20
85.7500
30
0.0
0
VERTEX
5
189d
8
Layer1
10
57.0000
20
86.7500
30
0.0
0
SEQEND
5
189e
8
Layer1
0
POLYLINE
5
189f
8
Layer1
66
1
10
0.0
20
0.0
30
0.0
70
1
0
VERTEX
5
18a0
8
Layer1
10
76.0000
20
86.7500
30
0.0
0
VERTEX
5
18a1
8
Layer1
10
76.8000
20
86.7500
30
0.0
0
VERTEX
5
18a2
8
Layer1
10
76.8000
20
90.2500
30
0.0
0
VERTEX
5
18a3
8
Layer1
10
76.0000
20
90.2500
30
0.0
0
VERTEX
5
18a4
8
Layer1
10
76.0000
20
95.2500
30
0.0
0
VERTEX
5
18a5
8
Layer1
10
76.8000
20
95.2500
30
0.0
0
VERTEX
5
18a6
8
Layer1
10
76.8000
20
98.7500
30
0.0
0
VERTEX
5
18a7
8
Layer1
10
76.0000
20
98.7500
30
0.0
0
VERTEX
5
18a8
8
Layer1
10
76.0000
20
99.7500
30
0.0
0
VERTEX
5
18a9
8
Layer1
10
62.0000
20
99.7500
30
0.0
0
VERTEX
5
18aa
8
Layer1
10
62.0000
20
98.7500
30
0.0
0
VERTEX
5
18ab
8
Layer1
10
61.2000
20
98.7500
30
0.0
0
VERTEX
5
18ac
8
Layer1
10
61.2000
20
95.2500
30
0.0
0
VERTEX
5
18ad
8
Layer1
10
62.0000
20
95.2500
30
0.0
0
VERTEX
5
18ae
8
Layer1
10
62.0000
20
90.2500
30
0.0
0
VERTEX
5
18af
8
Layer1
10
61.2000
20
90.2500
30
0.0
0
VERTEX
5
18b0
8
Layer1
10
61.2000
20
86.7500
30
0.0
0
VERTEX
5
18b1
8
Layer1
10
62.0000
20
86.7500
30
0.0
0
VERTEX
5
18b2
8
Layer1
10
62.0000
20
85.7500
30
0.0
0
VERTEX
5
18b3
8
Layer1
10
76.0000
20
85.7500
30
0.0
0
VERTEX
5
18b4
8
Layer1
10
76.0000
20
86.7500
30
0.0
0
SEQEND
5
18b5
8
Layer1
0
POLYLINE
5
18b6
8
Layer1
66
1
10
0.0
20
0.0
30
0.0
70
1
0
VERTEX
5
18b7
8
Layer1
10
95.0000
20
86.7500
30
0.0
0
VERTEX
5
18b8
8
Layer1
10
95.8000
20
86.7500
30
0.0
0
VERTEX
5
18b9
8
Layer1
10
95.8000
20
90.2500
30
0.0
0
VERTEX
5
18ba
8
Layer1
10
95.0000
20
90.2500
30
0.0
0
VERTEX
5
18bb
8
Layer1
10
95.0000
20
95.2500
30
0.0
0
VERTEX
5
18bc
8
Layer1
10
95.8000
20
95.2500
30
0.0
0
VERTEX
5
18bd
8
Layer1
10
95.8000
20
98.7500
30
0.0
0
VERTEX
5
18be
8
Layer1
10
95.0000
20
98.7500
30
0.0
0
VERTEX
5
18bf
8
Layer1
10
95.0000
20
99.7500
30
0.0
0
VERTEX
5
18c0
8
Layer1
10
81.0000
20
99.7500
30
0.0
0
VERTEX
5
18c1
8
Layer1
10
81.0000
20
98.7500
30
0.0
0
VERTEX
5
18c2
8
Layer1
10
80.2000
20
98.7500
30
0.0
0
VERTEX
5
18c3
8
Layer1
10
80.2000
20
95.2500
30
0.0
0
VERTEX
5
18c4
8
Layer1
10
81.0000
20
95.2500
30
0.0
0
VERTEX
5
18c5
8
Layer1
10
81.0000
20
90.2500
30
0.0
0
VERTEX
5
18c6
8
Layer1
10
80.2000
20
90.2500
30
0.0
0
VERTEX
5
18c7
8
Layer1
10
80.2000
20
86.7500
30
0.0
0
VERTEX
5
18c8
8
Layer1
10
81.0000
20
86.7500
30
0.0
0
VERTEX
5
18c9
8
Layer1
10
81.0000
20
85.7500
30
0.0
0
VERTEX
5
18ca
8
Layer1
10
95.0000
20
85.7500
30
0.0
0
VERTEX
5
18cb
8
Layer1
10
95.0000
20
86.7500
30
0.0
0
SEQEND
5
18cc
8
Layer1
0
POLYLINE
5
18cd
8
Layer1
66
1
10
0.0
20
0.0
30
0.0
70
1
0
VERTEX
5
18ce
8
Layer1
10
114.0000
20
86.7500
30
0.0
0
VERTEX
5
18cf
8
Layer1
10
114.8000
20
86.7500
30
0.0
0
VERTEX
5
18d0
8
Layer1
10
114.8000
20
90.2500
30
0.0
0
VERTEX
5
18d1
8
Layer1
10
114.0000
20
90.2500
30
0.0
0
VERTEX
5
18d2
8
Layer1
10
114.0000
20
95.2500
30
0.0
0
VERTEX
5
18d3
8
Layer1
10
114.8000
20
95.2500
30
0.0
0
VERTEX
5
18d4
8
Layer1
10
114.8000
20
98.7500
30
0.0
0
VERTEX
5
18d5
8
Layer1
10
114.0000
20
98.7500
30
0.0
0
VERTEX
5
18d6
8
Layer1
10
114.0000
20
99.7500
30
0.0
0
VERTEX
5
18d7
8
Layer1
10
100.0000
20
99.7500
30
0.0
0
VERTEX
5
18d8
8
Layer1
10
100.0000
20
98.7500
30
0.0
0
VERTEX
5
18d9
8
Layer1
10
99.2000
20
98.7500
30
0.0
0
VERTEX
5
18da
8
Layer1
10
99.2000
20
95.2500
30
0.0
0
VERTEX
5
18db
8
Layer1
10
100.0000
20
95.2500
30
0.0
0
VERTEX
5
18dc
8
Layer1
10
100.0000
20
90.2500
30
0.0
0
VERTEX
5
18dd
8
Layer1
10
99.2000
20
90.2500
30
0.0
0
VERTEX
5
18de
8
Layer1
10
99.2000
20
86.7500
30
0.0
0
VERTEX
5
18df
8
Layer1
10
100.0000
20
86.7500
30
0.0
0
VERTEX
5
18e0
8
Layer1
10
100.0000
20
85.7500
30
0.0
0
VERTEX
5
18e1
8
Layer1
10
114.0000
20
85.7500
30
0.0
0
VERTEX
5
18e2
8
Layer1
10
114.0000
20
86.7500
30
0.0
0
SEQEND
5
18e3
8
Layer1
0
POLYLINE
5
18e4
8
Layer1
66
1
10
0.0
20
0.0
30
0.0
70
1
0
VERTEX
5
18e5
8
Layer1
10
133.0000
20
86.7500
30
0.0
0
VERTEX
5
18e6
8
Layer1
10
133.8000
20
86.7500
30
0.0
0
VERTEX
5
18e7
8
Layer1
10
133.8000
20
90.2500
30
0.0
0
VERTEX
5
18e8
8
Layer1
10
133.0000
20
90.2500
30
0.0
0
VERTEX
5
18e9
8
Layer1
10
133.0000
20
95.2500
30
0.0
0
VERTEX
5
18ea
8
Layer1
10
133.8000
20
95.2500
30
0.0
0
VERTEX
5
18eb
8
Layer1
10
133.8000
20
98.7500
30
0.0
0
VERTEX
5
18ec
8
Layer1
10
133.0000
20
98.7500
30
0.0
0
VERTEX
5
18ed
8
Layer1
10
133.0000
20
99.7500
30
0.0
0
VERTEX
5
18ee
8
Layer1
10
119.0000
20
99.7500
30
0.0
0
VERTEX
5
18ef
8
Layer1
10
119.0000
20
98.7500
30
0.0
0
VERTEX
5
18f0
8
Layer1
10
118.2000
20
98.7500
30
0.0
0
VERTEX
5
18f1
8
Layer1
10
118.2000
20
95.2500
30
0.0
0
VERTEX
5
18f2
8
Layer1
10
119.0000
20
95.2500
30
0.0
0
VERTEX
5
18f3
8
Layer1
10
119.0000
20
90.2500
30
0.0
0
VERTEX
5
18f4
8
Layer1
10
118.2000
20
90.2500
30
0.0
0
VERTEX
5
18f5
8
Layer1
10
118.2000
20
86.7500
30
0.0
0
VERTEX
5
18f6
8
Layer1
10
119.0000
20
86.7500
30
0.0
0
VERTEX
5
18f7
8
Layer1
10
119.0000
20
85.7500
30
0.0
0
VERTEX
5
18f8
8
Layer1
10
133.0000
20
85.7500
30
0.0
0
VERTEX
5
18f9
8
Layer1
10
133.0000
20
86.7500
30
0.0
0
SEQEND
5
18fa
8
Layer1
0
POLYLINE
5
18fb
8
Layer1
66
1
10
0.0
20
0.0
30
0.0
70
1
0
VERTEX
5
18fc
8
Layer1
10
152.0000
20
86.7500
30
0.0
0
VERTEX
5
18fd
8
Layer1
10
152.8000
20
86.7500
30
0.0
0
VERTEX
5
18fe
8
Layer1
10
152.8000
20
90.2500
30
0.0
0
VERTEX
5
18ff
8
Layer1
10
152.0000
20
90.2500
30
0.0
0
VERTEX
5
1900
8
Layer1
10
152.0000
20
95.2500
30
0.0
0
VERTEX
5
1901
8
Layer1
10
152.8000
20
95.2500
30
0.0
0
VERTEX
5
1902
8
Layer1
10
152.8000
20
98.7500
30
0.0
0
VERTEX
5
1903
8
Layer1
10
152.0000
20
98.7500
30
0.0
0
VERTEX
5
1904
8
Layer1
10
152.0000
20
99.7500
30
0.0
0
VERTEX
5
1905
8
Layer1
10
138.0000
20
99.7500
30
0.0
0
VERTEX
5
1906
8
Layer1
10
138.0000
20
98.7500
30
0.0
0
VERTEX
5
1907
8
Layer1
10
137.2000
20
98.7500
30
0.0
0
VERTEX
5
1908
8
Layer1
10
137.2000
20
95.2500
30
0.0
0
VERTEX
5
1909
8
Layer1
10
138.0000
20
95.2500
30
0.0
0
VERTEX
5
190a
8
Layer1
10
138.0000
20
90.2500
30
0.0
0
VERTEX
5
190b
8
Layer1
10
137.2000
20
90.2500
30
0.0
0
VERTEX
5
190c
8
Layer1
10
137.2000
20
86.7500
30
0.0
0
VERTEX
5
190d
8
Layer1
10
138.0000
20
86.7500
30
0.0
0
VERTEX
5
190e
8
Layer1
10
138.0000
20
85.7500
30
0.0
0
VERTEX
5
190f
8
Layer1
10
152.0000
20
85.7500
30
0.0
0
VERTEX
5
1910
8
Layer1
10
152.0000
20
86.7500
30
0.0
0
SEQEND
5
1911
8
Layer1
0
POLYLINE
5
1912
8
Layer1
66
1
10
0.0
20
0.0
30
0.0
70
1
0
VERTEX
5
1913
8
Layer1
10
171.0000
20
86.7500
30
0.0
0
VERTEX
5
1914
8
Layer1
10
171.8000
20
86.7500
30
0.0
0
VERTEX
5
1915
8
Layer1
10
171.8000
20
90.2500
30
0.0
0
VERTEX
5
1916
8
Layer1
10
171.0000
20
90.2500
30
0.0
0
VERTEX
5
1917
8
Layer1
10
171.0000
20
95.2500
30
0.0
0
VERTEX
5
1918
8
Layer1
10
171.8000
20
95.2500
30
0.0
0
VERTEX
5
1919
8
Layer1
10
171.8000
20
98.7500
30
0.0
0
VERTEX
5
191a
8
Layer1
10
171.0000
20
98.7500
30
0.0
0
VERTEX
5
191b
8
Layer1
10
171.0000
20
99.7500
30
0.0
0
VERTEX
5
191c
8
Layer1
10
157.0000
20
99.7500
30
0.0
0
VERTEX
5
191d
8
Layer1
10
157.0000
20
98.7500
30
0.0
0
VERTEX
5
191e
8
Layer1
10
156.2000
20
98.7500
30
0.0
0
VERTEX
5
191f
8
Layer1
10
156.2000
20
95.2500
30
0.0
0
VERTEX
5
1920
8
Layer1
10
157.0000
20
95.2500
30
0.0
0
VERTEX
5
1921
8
Layer1
10
157.0000
20
90.2500
30
0.0
0
VERTEX
5
1922
8
Layer1
10
156.2000
20
90.2500
30
0.0
0
VERTEX
5
1923
8
Layer1
10
156.2000
20
86.7500
30
0.0
0
VERTEX
5
1924
8
Layer1
10
157.0000
20
86.7500
30
0.0
0
VERTEX
5
1925
8
Layer1
10
157.0000
20
85.7500
30
0.0
0
VERTEX
5
1926
8
Layer1
10
171.0000
20
85.7500
30
0.0
0
VERTEX
5
1927
8
Layer1
10
171.0000
20
86.7500
30
0.0
0
SEQEND
5
1928
8
Layer1
0
POLYLINE
5
1929
8
Layer1
66
1
10
0.0
20
0.0
30
0.0
70
1
0
VERTEX
5
192a
8
Layer1
10
190.0000
20
86.7500
30
0.0
0
VERTEX
5
192b
8
Layer1
10
190.8000
20
86.7500
30
0.0
0
VERTEX
5
192c
8
Layer1
10
190.8000
20
90.2500
30
0.0
0
VERTEX
5
192d
8
Layer1
10
190.0000
20
90.2500
30
0.0
0
VERTEX
5
192e
8
Layer1
10
190.0000
20
95.2500
30
0.0
0
VERTEX
5
192f
8
Layer1
10
190.8000
20
95.2500
30
0.0
0
VERTEX
5
1930
8
Layer1
10
190.8000
20
98.7500
30
0.0
0
VERTEX
5
1931
8
Layer1
10
190.0000
20
98.7500
30
0.0
0
VERTEX
5
1932
8
Layer1
10
190.0000
20
99.7500
30
0.0
0
VERTEX
5
1933
8
Layer1
10
176.0000
20
99.7500
30
0.0
0
VERTEX
5
1934
8
Layer1
10
176.0000
20
98.7500
30
0.0
0
VERTEX
5
1935
8
Layer1
10
175.2000
20
98.7500
30
0.0
0
VERTEX
5
1936
8
Layer1
10
175.2000
20
95.2500
30
0.0
0
VERTEX
5
1937
8
Layer1
10
176.0000
20
95.2500
30
0.0
0
VERTEX
5
1938
8
Layer1
10
176.0000
20
90.2500
30
0.0
0
VERTEX
5
1939
8
Layer1
10
175.2000
20
90.2500
30
0.0
0
VERTEX
5
193a
8
Layer1
10
175.2000
20
86.7500
30
0.0
0
VERTEX
5
193b
8
Layer1
10
176.0000
20
86.7500
30
0.0
0
VERTEX
5
193c
8
Layer1
10
176.0000
20
85.7500
30
0.0
0
VERTEX
5
193d
8
Layer1
10
190.0000
20
85.7500
30
0.0
0
VERTEX
5
193e
8
Layer1
10
190.0000
20
86.7500
30
0.0
0
SEQEND
5
193f
8
Layer1
0
POLYLINE
5
1940
8
Layer1
66
1
10
0.0
20
0.0
30
0.0
70
1
0
VERTEX
5
1941
8
Layer1
10
209.0000
20
86.7500
30
0.0
0
VERTEX
5
1942
8
Layer1
10
209.8000
20
86.7500
30
0.0
0
VERTEX
5
1943
8
Layer1
10
209.8000
20
90.2500
30
0.0
0
VERTEX
5
1944
8
Layer1
10
209.0000
20
90.2500
30
0.0
0
VERTEX
5
1945
8
Layer1
10
209.0000
20
95.2500
30
0.0
0
VERTEX
5
1946
8
Layer1
10
209.8000
20
95.2500
30
0.0
0
VERTEX
5
1947
8
Layer1
10
209.8000
20
98.7500
30
0.0
0
VERTEX
5
1948
8
Layer1
10
209.0000
20
98.7500
30
0.0
0
VERTEX
5
1949
8
Layer1
10
209.0000
20
99.7500
30
0.0
0
VERTEX
5
194a
8
Layer1
10
195.0000
20
99.7500
30
0.0
0
VERTEX
5
194b
8
Layer1
10
195.0000
20
98.7500
30
0.0
0
VERTEX
5
194c
8
Layer1
10
194.2000
20
98.7500
30
0.0
0
VERTEX
5
194d
8
Layer1
10
194.2000
20
95.2500
30
0.0
0
VERTEX
5
194e
8
Layer1
10
195.0000
20
95.2500
30
0.0
0
VERTEX
5
194f
8
Layer1
10
195.0000
20
90.2500
30
0.0
0
VERTEX
5
1950
8
Layer1
10
194.2000
20
90.2500
30
0.0
0
VERTEX
5
1951
8
Layer1
10
194.2000
20
86.7500
30
0.0
0
VERTEX
5
1952
8
Layer1
10
195.0000
20
86.7500
30
0.0
0
VERTEX
5
1953
8
Layer1
10
195.0000
20
85.7500
30
0.0
0
VERTEX
5
1954
8
Layer1
10
209.0000
20
85.7500
30
0.0
0
VERTEX
5
1955
8
Layer1
10
209.0000
20
86.7500
30
0.0
0
SEQEND
5
1956
8
Layer1
0
POLYLINE
5
1957
8
Layer1
66
1
10
0.0
20
0.0
30
0.0
70
1
0
VERTEX
5
1958
8
Layer1
10
228.0000
20
86.7500
30
0.0
0
VERTEX
5
1959
8
Layer1
10
228.8000
20
86.7500
30
0.0
0
VERTEX
5
195a
8
Layer1
10
228.8000
20
90.2500
30
0.0
0
VERTEX
5
195b
8
Layer1
10
228.0000
20
90.2500
30
0.0
0
VERTEX
5
195c
8
Layer1
10
228.0000
20
95.2500
30
0.0
0
VERTEX
5
195d
8
Layer1
10
228.8000
20
95.2500
30
0.0
0
VERTEX
5
195e
8
Layer1
10
228.8000
20
98.7500
30
0.0
0
VERTEX
5
195f
8
Layer1
10
228.0000
20
98.7500
30
0.0
0
VERTEX
5
1960
8
Layer1
10
228.0000
20
99.7500
30
0.0
0
VERTEX
5
1961
8
Layer1
10
214.0000
20
99.7500
30
0.0
0
VERTEX
5
1962
8
Layer1
10
214.0000
20
98.7500
30
0.0
0
VERTEX
5
1963
8
Layer1
10
213.2000
20
98.7500
30
0.0
0
VERTEX
5
1964
8
Layer1
10
213.2000
20
95.2500
30
0.0
0
VERTEX
5
1965
8
Layer1
10
214.0000
20
95.2500
30
0.0
0
VERTEX
5
1966
8
Layer1
10
214.0000
20
90.2500
30
0.0
0
VERTEX
5
1967
8
Layer1
10
213.2000
20
90.2500
30
0.0
0
VERTEX
5
1968
8
Layer1
10
213.2000
20
86.7500
30
0.0
0
VERTEX
5
1969
8
Layer1
10
214.0000
20
86.7500
30
0.0
0
VERTEX
5
196a
8
Layer1
10
214.0000
20
85.7500
30
0.0
0
VERTEX
5
196b
8
Layer1
10
228.0000
20
85.7500
30
0.0
0
VERTEX
5
196c
8
Layer1
10
228.0000
20
86.7500
30
0.0
0
SEQEND
5
196d
8
Layer1
0
POLYLINE
5
196e
8
Layer1
66
1
10
0.0
20
0.0
30
0.0
70
1
0
VERTEX
5
196f
8
Layer1
10
247.0000
20
86.7500
30
0.0
0
VERTEX
5
1970
8
Layer1
10
247.8000
20
86.7500
30
0.0
0
VERTEX
5
1971
8
Layer1
10
247.8000
20
90.2500
30
0.0
0
VERTEX
5
1972
8
Layer1
10
247.0000
20
90.2500
30
0.0
0
VERTEX
5
1973
8
Layer1
10
247.0000
20
95.2500
30
0.0
0
VERTEX
5
1974
8
Layer1
10
247.8000
20
95.2500
30
0.0
0
VERTEX
5
1975
8
Layer1
10
247.8000
20
98.7500
30
0.0
0
VERTEX
5
1976
8
Layer1
10
247.0000
20
98.7500
30
0.0
0
VERTEX
5
1977
8
Layer1
10
247.0000
20
99.7500
30
0.0
0
VERTEX
5
1978
8
Layer1
10
233.0000
20
99.7500
30
0.0
0
VERTEX
5
1979
8
Layer1
10
233.0000
20
98.7500
30
0.0
0
VERTEX
5
197a
8
Layer1
10
232.2000
20
98.7500
30
0.0
0
VERTEX
5
197b
8
Layer1
10
232.2000
20
95.2500
30
0.0
0
VERTEX
5
197c
8
Layer1
10
233.0000
20
95.2500
30
0.0
0
VERTEX
5
197d
8
Layer1
10
233.0000
20
90.2500
30
0.0
0
VERTEX
5
197e
8
Layer1
10
232.2000
20
90.2500
30
0.0
0
VERTEX
5
197f
8
Layer1
10
232.2000
20
86.7500
30
0.0
0
VERTEX
5
1980
8
Layer1
10
233.0000
20
86.7500
30
0.0
0
VERTEX
5
1981
8
Layer1
10
233.0000
20
85.7500
30
0.0
0
VERTEX
5
1982
8
Layer1
10
247.0000
20
85.7500
30
0.0
0
VERTEX
5
1983
8
Layer1
10
247.0000
20
86.7500
30
0.0
0
SEQEND
5
1984
8
Layer1
0
POLYLINE
5
1985
8
Layer1
66
1
10
0.0
20
0.0
30
0.0
70
1
0
VERTEX
5
1986
8
Layer1
10
258.1000
20
85.9800
30
0.0
0
VERTEX
5
1987
8
Layer1
10
259.9250
20
85.9800
30
0.0
0
VERTEX
5
1988
8
Layer1
10
259.9250
20
86.7800
30
0.0
0
VERTEX
5
1989
8
Layer1
10
260.7000
20
86.7800
30
0.0
0
VERTEX
5
198a
8
Layer1
10
260.7000
20
86.7500
30
0.0
0
VERTEX
5
198b
8
Layer1
10
261.5000
20
86.7500
30
0.0
0
VERTEX
5
198c
8
Layer1
10
261.5000
20
85.7500
30
0.0
0
VERTEX
5
198d
8
Layer1
10
275.5000
20
85.7500
30
0.0
0
VERTEX
5
198e
8
Layer1
10
275.5000
20
86.7500
30
0.0
0
VERTEX
5
198f
8
Layer1
10
276.3000
20
86.7500
30
0.0
0
VERTEX
5
1990
8
Layer1
10
276.3000
20
86.7800
30
0.0
0
VERTEX
5
1991
8
Layer1
10
277.0750
20
86.7800
30
0.0
0
VERTEX
5
1992
8
Layer1
10
277.0750
20
85.9800
30
0.0
0
VERTEX
5
1993
8
Layer1
10
278.9000
20
85.9800
30
0.0
0
VERTEX
5
1994
8
Layer1
10
278.9000
20
84.7800
30
0.0
0
VERTEX
5
1995
8
Layer1
10
281.9000
20
84.7800
30
0.0
0
VERTEX
5
1996
8
Layer1
10
281.9000
20
85.9800
30
0.0
0
VERTEX
5
1997
8
Layer1
10
283.7250
20
85.9800
30
0.0
0
VERTEX
5
1998
8
Layer1
10
283.7250
20
92.2500
30
0.0
0
VERTEX
5
1999
8
Layer1
10
284.6000
20
92.2500
30
0.0
0
VERTEX
5
199a
8
Layer1
10
284.6000
20
95.0500
30
0.0
0
VERTEX
5
199b
8
Layer1
10
283.7250
20
95.0500
30
0.0
0
VERTEX
5
199c
8
Layer1
10
283.7250
20
98.2800
30
0.0
0
VERTEX
5
199d
8
Layer1
10
277.0750
20
98.2800
30
0.0
0
VERTEX
5
199e
8
Layer1
10
277.0750
20
97.4800
30
0.0
0
VERTEX
5
199f
8
Layer1
10
276.3000
20
97.4800
30
0.0
0
VERTEX
5
19a0
8
Layer1
10
276.3000
20
98.7500
30
0.0
0
VERTEX
5
19a1
8
Layer1
10
275.5000
20
98.7500
30
0.0
0
VERTEX
5
19a2
8
Layer1
10
275.5000
20
99.7500
30
0.0
0
VERTEX
5
19a3
8
Layer1
10
261.5000
20
99.7500
30
0.0
0
VERTEX
5
19a4
8
Layer1
10
261.5000
20
98.7500
30
0.0
0
VERTEX
5
19a5
8
Layer1
10
260.7000
20
98.7500
30
0.0
0
VERTEX
5
19a6
8
Layer1
10
260.7000
20
97.4800
30
0.0
0
VERTEX
5
19a7
8
Layer1
10
259.9250
20
97.4800
30
0.0
0
VERTEX
5
19a8
8
Layer1
10
259.9250
20
98.2800
30
0.0
0
VERTEX
5
19a9
8
Layer1
10
253.2750
20
98.2800
30
0.0
0
VERTEX
5
19aa
8
Layer1
10
253.2750
20
95.0500
30
0.0
0
VERTEX
5
19ab
8
Layer1
10
252.4000
20
95.0500
30
0.0
0
VERTEX
5
19ac
8
Layer1
10
252.4000
20
92.2500
30
0.0
0
VERTEX
5
19ad
8
Layer1
10
253.2750
20
92.2500
30
0.0
0
VERTEX
5
19ae
8
Layer1
10
253.2750
20
85.9800
30
0.0
0
VERTEX
5
19af
8
Layer1
10
255.1000
20
85.9800
30
0.0
0
VERTEX
5
19b0
8
Layer1
10
255.1000
20
84.7800
30
0.0
0
VERTEX
5
19b1
8
Layer1
10
258.1000
20
84.7800
30
0.0
0
VERTEX
5
19b2
8
Layer1
10
258.1000
20
85.9800
30
0.0
0
SEQEND
5
19b3
8
Layer1
0
POLYLINE
5
19b4
8
Layer1
66
1
10
0.0
20
0.0
30
0.0
70
1
0
VERTEX
5
19b5
8
Layer1
10
23.7500
20
67.7500
30
0.0
0
VERTEX
5
19b6
8
Layer1
10
24.5500
20
67.7500
30
0.0
0
VERTEX
5
19b7
8
Layer1
10
24.5500
20
71.2500
30
0.0
0
VERTEX
5
19b8
8
Layer1
10
23.7500
20
71.2500
30
0.0
0
VERTEX
5
19b9
8
Layer1
10
23.7500
20
76.2500
30
0.0
0
VERTEX
5
19ba
8
Layer1
10
24.5500
20
76.2500
30
0.0
0
VERTEX
5
19bb
8
Layer1
10
24.5500
20
79.7500
30
0.0
0
VERTEX
5
19bc
8
Layer1
10
23.7500
20
79.7500
30
0.0
0
VERTEX
5
19bd
8
Layer1
10
23.7500
20
80.7500
30
0.0
0
VERTEX
5
19be
8
Layer1
10
9.7500
20
80.7500
30
0.0
0
VERTEX
5
19bf
8
Layer1
10
9.7500
20
79.7500
30
0.0
0
VERTEX
5
19c0
8
Layer1
10
8.9500
20
79.7500
30
0.0
0
VERTEX
5
19c1
8
Layer1
10
8.9500
20
76.2500
30
0.0
0
VERTEX
5
19c2
8
Layer1
10
9.7500
20
76.2500
30
0.0
0
VERTEX
5
19c3
8
Layer1
10
9.7500
20
71.2500
30
0.0
0
VERTEX
5
19c4
8
Layer1
10
8.9500
20
71.2500
30
0.0
0
VERTEX
5
19c5
8
Layer1
10
8.9500
20
67.7500
30
0.0
0
VERTEX
5
19c6
8
Layer1
10
9.7500
20
67.7500
30
0.0
0
VERTEX
5
19c7
8
Layer1
10
9.7500
20
66.7500
30
0.0
0
VERTEX
5
19c8
8
Layer1
10
23.7500
20
66.7500
30
0.0
0
VERTEX
5
19c9
8
Layer1
10
23.7500
20
67.7500
30
0.0
0
SEQEND
5
19ca
8
Layer1
0
POLYLINE
5
19cb
8
Layer1
66
1
10
0.0
20
0.0
30
0.0
70
1
0
VERTEX
5
19cc
8
Layer1
10
47.5000
20
67.7500
30
0.0
0
VERTEX
5
19cd
8
Layer1
10
48.3000
20
67.7500
30
0.0
0
VERTEX
5
19ce
8
Layer1
10
48.3000
20
71.2500
30
0.0
0
VERTEX
5
19cf
8
Layer1
10
47.5000
20
71.2500
30
0.0
0
VERTEX
5
19d0
8
Layer1
10
47.5000
20
76.2500
30
0.0
0
VERTEX
5
19d1
8
Layer1
10
48.3000
20
76.2500
30
0.0
0
VERTEX
5
19d2
8
Layer1
10
48.3000
20
79.7500
30
0.0
0
VERTEX
5
19d3
8
Layer1
10
47.5000
20
79.7500
30
0.0
0
VERTEX
5
19d4
8
Layer1
10
47.5000
20
80.7500
30
0.0
0
VERTEX
5
19d5
8
Layer1
10
33.5000
20
80.7500
30
0.0
0
VERTEX
5
19d6
8
Layer1
10
33.5000
20
79.7500
30
0.0
0
VERTEX
5
19d7
8
Layer1
10
32.7000
20
79.7500
30
0.0
0
VERTEX
5
19d8
8
Layer1
10
32.7000
20
76.2500
30
0.0
0
VERTEX
5
19d9
8
Layer1
10
33.5000
20
76.2500
30
0.0
0
VERTEX
5
19da
8
Layer1
10
33.5000
20
71.2500
30
0.0
0
VERTEX
5
19db
8
Layer1
10
32.7000
20
71.2500
30
0.0
0
VERTEX
5
19dc
8
Layer1
10
32.7000
20
67.7500
30
0.0
0
VERTEX
5
19dd
8
Layer1
10
33.5000
20
67.7500
30
0.0
0
VERTEX
5
19de
8
Layer1
10
33.5000
20
66.7500
30
0.0
0
VERTEX
5
19df
8
Layer1
10
47.5000
20
66.7500
30
0.0
0
VERTEX
5
19e0
8
Layer1
10
47.5000
20
67.7500
30
0.0
0
SEQEND
5
19e1
8
Layer1
0
POLYLINE
5
19e2
8
Layer1
66
1
10
0.0
20
0.0
30
0.0
70
1
0
VERTEX
5
19e3
8
Layer1
10
66.5000
20
67.7500
30
0.0
0
VERTEX
5
19e4
8
Layer1
10
67.3000
20
67.7500
30
0.0
0
VERTEX
5
19e5
8
Layer1
10
67.3000
20
71.2500
30
0.0
0
VERTEX
5
19e6
8
Layer1
10
66.5000
20
71.2500
30
0.0
0
VERTEX
5
19e7
8
Layer1
10
66.5000
20
76.2500
30
0.0
0
VERTEX
5
19e8
8
Layer1
10
67.3000
20
76.2500
30
0.0
0
VERTEX
5
19e9
8
Layer1
10
67.3000
20
79.7500
30
0.0
0
VERTEX
5
19ea
8
Layer1
10
66.5000
20
79.7500
30
0.0
0
VERTEX
5
19eb
8
Layer1
10
66.5000
20
80.7500
30
0.0
0
VERTEX
5
19ec
8
Layer1
10
52.5000
20
80.7500
30
0.0
0
VERTEX
5
19ed
8
Layer1
10
52.5000
20
79.7500
30
0.0
0
VERTEX
5
19ee
8
Layer1
10
51.7000
20
79.7500
30
0.0
0
VERTEX
5
19ef
8
Layer1
10
51.7000
20
76.2500
30
0.0
0
VERTEX
5
19f0
8
Layer1
10
52.5000
20
76.2500
30
0.0
0
VERTEX
5
19f1
8
Layer1
10
52.5000
20
71.2500
30
0.0
0
VERTEX
5
19f2
8
Layer1
10
51.7000
20
71.2500
30
0.0
0
VERTEX
5
19f3
8
Layer1
10
51.7000
20
67.7500
30
0.0
0
VERTEX
5
19f4
8
Layer1
10
52.5000
20
67.7500
30
0.0
0
VERTEX
5
19f5
8
Layer1
10
52.5000
20
66.7500
30
0.0
0
VERTEX
5
19f6
8
Layer1
10
66.5000
20
66.7500
30
0.0
0
VERTEX
5
19f7
8
Layer1
10
66.5000
20
67.7500
30
0.0
0
SEQEND
5
19f8
8
Layer1
0
POLYLINE
5
19f9
8
Layer1
66
1
10
0.0
20
0.0
30
0.0
70
1
0
VERTEX
5
19fa
8
Layer1
10
85.5000
20
67.7500
30
0.0
0
VERTEX
5
19fb
8
Layer1
10
86.3000
20
67.7500
30
0.0
0
VERTEX
5
19fc
8
Layer1
10
86.3000
20
71.2500
30
0.0
0
VERTEX
5
19fd
8
Layer1
10
85.5000
20
71.2500
30
0.0
0
VERTEX
5
19fe
8
Layer1
10
85.5000
20
76.2500
30
0.0
0
VERTEX
5
19ff
8
Layer1
10
86.3000
20
76.2500
30
0.0
0
VERTEX
5
1a00
8
Layer1
10
86.3000
20
79.7500
30
0.0
0
VERTEX
5
1a01
8
Layer1
10
85.5000
20
79.7500
30
0.0
0
VERTEX
5
1a02
8
Layer1
10
85.5000
20
80.7500
30
0.0
0
VERTEX
5
1a03
8
Layer1
10
71.5000
20
80.7500
30
0.0
0
VERTEX
5
1a04
8
Layer1
10
71.5000
20
79.7500
30
0.0
0
VERTEX
5
1a05
8
Layer1
10
70.7000
20
79.7500
30
0.0
0
VERTEX
5
1a06
8
Layer1
10
70.7000
20
76.2500
30
0.0
0
VERTEX
5
1a07
8
Layer1
10
71.5000
20
76.2500
30
0.0
0
VERTEX
5
1a08
8
Layer1
10
71.5000
20
71.2500
30
0.0
0
VERTEX
5
1a09
8
Layer1
10
70.7000
20
71.2500
30
0.0
0
VERTEX
5
1a0a
8
Layer1
10
70.7000
20
67.7500
30
0.0
0
VERTEX
5
1a0b
8
Layer1
10
71.5000
20
67.7500
30
0.0
0
VERTEX
5
1a0c
8
Layer1
10
71.5000
20
66.7500
30
0.0
0
VERTEX
5
1a0d
8
Layer1
10
85.5000
20
66.7500
30
0.0
0
VERTEX
5
1a0e
8
Layer1
10
85.5000
20
67.7500
30
0.0
0
SEQEND
5
1a0f
8
Layer1
0
POLYLINE
5
1a10
8
Layer1
66
1
10
0.0
20
0.0
30
0.0
70
1
0
VERTEX
5
1a11
8
Layer1
10
104.5000
20
67.7500
30
0.0
0
VERTEX
5
1a12
8
Layer1
10
105.3000
20
67.7500
30
0.0
0
VERTEX
5
1a13
8
Layer1
10
105.3000
20
71.2500
30
0.0
0
VERTEX
5
1a14
8
Layer1
10
104.5000
20
71.2500
30
0.0
0
VERTEX
5
1a15
8
Layer1
10
104.5000
20
76.2500
30
0.0
0
VERTEX
5
1a16
8
Layer1
10
105.3000
20
76.2500
30
0.0
0
VERTEX
5
1a17
8
Layer1
10
105.3000
20
79.7500
30
0.0
0
VERTEX
5
1a18
8
Layer1
10
104.5000
20
79.7500
30
0.0
0
VERTEX
5
1a19
8
Layer1
10
104.5000
20
80.7500
30
0.0
0
VERTEX
5
1a1a
8
Layer1
10
90.5000
20
80.7500
30
0.0
0
VERTEX
5
1a1b
8
Layer1
10
90.5000
20
79.7500
30
0.0
0
VERTEX
5
1a1c
8
Layer1
10
89.7000
20
79.7500
30
0.0
0
VERTEX
5
1a1d
8
Layer1
10
89.7000
20
76.2500
30
0.0
0
VERTEX
5
1a1e
8
Layer1
10
90.5000
20
76.2500
30
0.0
0
VERTEX
5
1a1f
8
Layer1
10
90.5000
20
71.2500
30
0.0
0
VERTEX
5
1a20
8
Layer1
10
89.7000
20
71.2500
30
0.0
0
VERTEX
5
1a21
8
Layer1
10
89.7000
20
67.7500
30
0.0
0
VERTEX
5
1a22
8
Layer1
10
90.5000
20
67.7500
30
0.0
0
VERTEX
5
1a23
8
Layer1
10
90.5000
20
66.7500
30
0.0
0
VERTEX
5
1a24
8
Layer1
10
104.5000
20
66.7500
30
0.0
0
VERTEX
5
1a25
8
Layer1
10
104.5000
20
67.7500
30
0.0
0
SEQEND
5
1a26
8
Layer1
0
POLYLINE
5
1a27
8
Layer1
66
1
10
0.0
20
0.0
30
0.0
70
1
0
VERTEX
5
1a28
8
Layer1
10
123.5000
20
67.7500
30
0.0
0
VERTEX
5
1a29
8
Layer1
10
124.3000
20
67.7500
30
0.0
0
VERTEX
5
1a2a
8
Layer1
10
124.3000
20
71.2500
30
0.0
0
VERTEX
5
1a2b
8
Layer1
10
123.5000
20
71.2500
30
0.0
0
VERTEX
5
1a2c
8
Layer1
10
123.5000
20
76.2500
30
0.0
0
VERTEX
5
1a2d
8
Layer1
10
124.3000
20
76.2500
30
0.0
0
VERTEX
5
1a2e
8
Layer1
10
124.3000
20
79.7500
30
0.0
0
VERTEX
5
1a2f
8
Layer1
10
123.5000
20
79.7500
30
0.0
0
VERTEX
5
1a30
8
Layer1
10
123.5000
20
80.7500
30
0.0
0
VERTEX
5
1a31
8
Layer1
10
109.5000
20
80.7500
30
0.0
0
VERTEX
5
1a32
8
Layer1
10
109.5000
20
79.7500
30
0.0
0
VERTEX
5
1a33
8
Layer1
10
108.7000
20
79.7500
30
0.0
0
VERTEX
5
1a34
8
Layer1
10
108.7000
20
76.2500
30
0.0
0
VERTEX
5
1a35
8
Layer1
10
109.5000
20
76.2500
30
0.0
0
VERTEX
5
1a36
8
Layer1
10
109.5000
20
71.2500
30
0.0
0
VERTEX
5
1a37
8
Layer1
10
108.7000
20
71.2500
30
0.0
0
VERTEX
5
1a38
8
Layer1
10
108.7000
20
67.7500
30
0.0
0
VERTEX
5
1a39
8
Layer1
10
109.5000
20
67.7500
30
0.0
0
VERTEX
5
1a3a
8
Layer1
10
109.5000
20
66.7500
30
0.0
0
VERTEX
5
1a3b
8
Layer1
10
123.5000
20
66.7500
30
0.0
0
VERTEX
5
1a3c
8
Layer1
10
123.5000
20
67.7500
30
0.0
0
SEQEND
5
1a3d
8
Layer1
0
POLYLINE
5
1a3e
8
Layer1
66
1
10
0.0
20
0.0
30
0.0
70
1
0
VERTEX
5
1a3f
8
Layer1
10
142.5000
20
67.7500
30
0.0
0
VERTEX
5
1a40
8
Layer1
10
143.3000
20
67.7500
30
0.0
0
VERTEX
5
1a41
8
Layer1
10
143.3000
20
71.2500
30
0.0
0
VERTEX
5
1a42
8
Layer1
10
142.5000
20
71.2500
30
0.0
0
VERTEX
5
1a43
8
Layer1
10
142.5000
20
76.2500
30
0.0
0
VERTEX
5
1a44
8
Layer1
10
143.3000
20
76.2500
30
0.0
0
VERTEX
5
1a45
8
Layer1
10
143.3000
20
79.7500
30
0.0
0
VERTEX
5
1a46
8
Layer1
10
142.5000
20
79.7500
30
0.0
0
VERTEX
5
1a47
8
Layer1
10
142.5000
20
80.7500
30
0.0
0
VERTEX
5
1a48
8
Layer1
10
128.5000
20
80.7500
30
0.0
0
VERTEX
5
1a49
8
Layer1
10
128.5000
20
79.7500
30
0.0
0
VERTEX
5
1a4a
8
Layer1
10
127.7000
20
79.7500
30
0.0
0
VERTEX
5
1a4b
8
Layer1
10
127.7000
20
76.2500
30
0.0
0
VERTEX
5
1a4c
8
Layer1
10
128.5000
20
76.2500
30
0.0
0
VERTEX
5
1a4d
8
Layer1
10
128.5000
20
71.2500
30
0.0
0
VERTEX
5
1a4e
8
Layer1
10
127.7000
20
71.2500
30
0.0
0
VERTEX
5
1a4f
8
Layer1
10
127.7000
20
67.7500
30
0.0
0
VERTEX
5
1a50
8
Layer1
10
128.5000
20
67.7500
30
0.0
0
VERTEX
5
1a51
8
Layer1
10
128.5000
20
66.7500
30
0.0
0
VERTEX
5
1a52
8
Layer1
10
142.5000
20
66.7500
30
0.0
0
VERTEX
5
1a53
8
Layer1
10
142.5000
20
67.7500
30
0.0
0
SEQEND
5
1a54
8
Layer1
0
POLYLINE
5
1a55
8
Layer1
66
1
10
0.0
20
0.0
30
0.0
70
1
0
VERTEX
5
1a56
8
Layer1
10
161.5000
20
67.7500
30
0.0
0
VERTEX
5
1a57
8
Layer1
10
162.3000
20
67.7500
30
0.0
0
VERTEX
5
1a58
8
Layer1
10
162.3000
20
71.2500
30
0.0
0
VERTEX
5
1a59
8
Layer1
10
161.5000
20
71.2500
30
0.0
0
VERTEX
5
1a5a
8
Layer1
10
161.5000
20
76.2500
30
0.0
0
VERTEX
5
1a5b
8
Layer1
10
162.3000
20
76.2500
30
0.0
0
VERTEX
5
1a5c
8
Layer1
10
162.3000
20
79.7500
30
0.0
0
VERTEX
5
1a5d
8
Layer1
10
161.5000
20
79.7500
30
0.0
0
VERTEX
5
1a5e
8
Layer1
10
161.5000
20
80.7500
30
0.0
0
VERTEX
5
1a5f
8
Layer1
10
147.5000
20
80.7500
30
0.0
0
VERTEX
5
1a60
8
Layer1
10
147.5000
20
79.7500
30
0.0
0
VERTEX
5
1a61
8
Layer1
10
146.7000
20
79.7500
30
0.0
0
VERTEX
5
1a62
8
Layer1
10
146.7000
20
76.2500
30
0.0
0
VERTEX
5
1a63
8
Layer1
10
147.5000
20
76.2500
30
0.0
0
VERTEX
5
1a64
8
Layer1
10
147.5000
20
71.2500
30
0.0
0
VERTEX
5
1a65
8
Layer1
10
146.7000
20
71.2500
30
0.0
0
VERTEX
5
1a66
8
Layer1
10
146.7000
20
67.7500
30
0.0
0
VERTEX
5
1a67
8
Layer1
10
147.5000
20
67.7500
30
0.0
0
VERTEX
5
1a68
8
Layer1
10
147.5000
20
66.7500
30
0.0
0
VERTEX
5
1a69
8
Layer1
10
161.5000
20
66.7500
30
0.0
0
VERTEX
5
1a6a
8
Layer1
10
161.5000
20
67.7500
30
0.0
0
SEQEND
5
1a6b
8
Layer1
0
POLYLINE
5
1a6c
8
Layer1
66
1
10
0.0
20
0.0
30
0.0
70
1
0
VERTEX
5
1a6d
8
Layer1
10
180.5000
20
67.7500
30
0.0
0
VERTEX
5
1a6e
8
Layer1
10
181.3000
20
67.7500
30
0.0
0
VERTEX
5
1a6f
8
Layer1
10
181.3000
20
71.2500
30
0.0
0
VERTEX
5
1a70
8
Layer1
10
180.5000
20
71.2500
30
0.0
0
VERTEX
5
1a71
8
Layer1
10
180.5000
20
76.2500
30
0.0
0
VERTEX
5
1a72
8
Layer1
10
181.3000
20
76.2500
30
0.0
0
VERTEX
5
1a73
8
Layer1
10
181.3000
20
79.7500
30
0.0
0
VERTEX
5
1a74
8
Layer1
10
180.5000
20
79.7500
30
0.0
0
VERTEX
5
1a75
8
Layer1
10
180.5000
20
80.7500
30
0.0
0
VERTEX
5
1a76
8
Layer1
10
166.5000
20
80.7500
30
0.0
0
VERTEX
5
1a77
8
Layer1
10
166.5000
20
79.7500
30
0.0
0
VERTEX
5
1a78
8
Layer1
10
165.7000
20
79.7500
30
0.0
0
VERTEX
5
1a79
8
Layer1
10
165.7000
20
76.2500
30
0.0
0
VERTEX
5
1a7a
8
Layer1
10
166.5000
20
76.2500
30
0.0
0
VERTEX
5
1a7b
8
Layer1
10
166.5000
20
71.2500
30
0.0
0
VERTEX
5
1a7c
8
Layer1
10
165.7000
20
71.2500
30
0.0
0
VERTEX
5
1a7d
8
Layer1
10
165.7000
20
67.7500
30
0.0
0
VERTEX
5
1a7e
8
Layer1
10
166.5000
20
67.7500
30
0.0
0
VERTEX
5
1a7f
8
Layer1
10
166.5000
20
66.7500
30
0.0
0
VERTEX
5
1a80
8
Layer1
10
180.5000
20
66.7500
30
0.0
0
VERTEX
5
1a81
8
Layer1
10
180.5000
20
67.7500
30
0.0
0
SEQEND
5
1a82
8
Layer1
0
POLYLINE
5
1a83
8
Layer1
66
1
10
0.0
20
0.0
30
0.0
70
1
0
VERTEX
5
1a84
8
Layer1
10
199.5000
20
67.7500
30
0.0
0
VERTEX
5
1a85
8
Layer1
10
200.3000
20
67.7500
30
0.0
0
VERTEX
5
1a86
8
Layer1
10
200.3000
20
71.2500
30
0.0
0
VERTEX
5
1a87
8
Layer1
10
199.5000
20
71.2500
30
0.0
0
VERTEX
5
1a88
8
Layer1
10
199.5000
20
76.2500
30
0.0
0
VERTEX
5
1a89
8
Layer1
10
200.3000
20
76.2500
30
0.0
0
VERTEX
5
1a8a
8
Layer1
10
200.3000
20
79.7500
30
0.0
0
VERTEX
5
1a8b
8
Layer1
10
199.5000
20
79.7500
30
0.0
0
VERTEX
5
1a8c
8
Layer1
10
199.5000
20
80.7500
30
0.0
0
VERTEX
5
1a8d
8
Layer1
10
185.5000
20
80.7500
30
0.0
0
VERTEX
5
1a8e
8
Layer1
10
185.5000
20
79.7500
30
0.0
0
VERTEX
5
1a8f
8
Layer1
10
184.7000
20
79.7500
30
0.0
0
VERTEX
5
1a90
8
Layer1
10
184.7000
20
76.2500
30
0.0
0
VERTEX
5
1a91
8
Layer1
10
185.5000
20
76.2500
30
0.0
0
VERTEX
5
1a92
8
Layer1
10
185.5000
20
71.2500
30
0.0
0
VERTEX
5
1a93
8
Layer1
10
184.7000
20
71.2500
30
0.0
0
VERTEX
5
1a94
8
Layer1
10
184.7000
20
67.7500
30
0.0
0
VERTEX
5
1a95
8
Layer1
10
185.5000
20
67.7500
30
0.0
0
VERTEX
5
1a96
8
Layer1
10
185.5000
20
66.7500
30
0.0
0
VERTEX
5
1a97
8
Layer1
10
199.5000
20
66.7500
30
0.0
0
VERTEX
5
1a98
8
Layer1
10
199.5000
20
67.7500
30
0.0
0
SEQEND
5
1a99
8
Layer1
0
POLYLINE
5
1a9a
8
Layer1
66
1
10
0.0
20
0.0
30
0.0
70
1
0
VERTEX
5
1a9b
8
Layer1
10
218.5000
20
67.7500
30
0.0
0
VERTEX
5
1a9c
8
Layer1
10
219.3000
20
67.7500
30
0.0
0
VERTEX
5
1a9d
8
Layer1
10
219.3000
20
71.2500
30
0.0
0
VERTEX
5
1a9e
8
Layer1
10
218.5000
20
71.2500
30
0.0
0
VERTEX
5
1a9f
8
Layer1
10
218.5000
20
76.2500
30
0.0
0
VERTEX
5
1aa0
8
Layer1
10
219.3000
20
76.2500
30
0.0
0
VERTEX
5
1aa1
8
Layer1
10
219.3000
20
79.7500
30
0.0
0
VERTEX
5
1aa2
8
Layer1
10
218.5000
20
79.7500
30
0.0
0
VERTEX
5
1aa3
8
Layer1
10
218.5000
20
80.7500
30
0.0
0
VERTEX
5
1aa4
8
Layer1
10
204.5000
20
80.7500
30
0.0
0
VERTEX
5
1aa5
8
Layer1
10
204.5000
20
79.7500
30
0.0
0
VERTEX
5
1aa6
8
Layer1
10
203.7000
20
79.7500
30
0.0
0
VERTEX
5
1aa7
8
Layer1
10
203.7000
20
76.2500
30
0.0
0
VERTEX
5
1aa8
8
Layer1
10
204.5000
20
76.2500
30
0.0
0
VERTEX
5
1aa9
8
Layer1
10
204.5000
20
71.2500
30
0.0
0
VERTEX
5
1aaa
8
Layer1
10
203.7000
20
71.2500
30
0.0
0
VERTEX
5
1aab
8
Layer1
10
203.7000
20
67.7500
30
0.0
0
VERTEX
5
1aac
8
Layer1
10
204.5000
20
67.7500
30
0.0
0
VERTEX
5
1aad
8
Layer1
10
204.5000
20
66.7500
30
0.0
0
VERTEX
5
1aae
8
Layer1
10
218.5000
20
66.7500
30
0.0
0
VERTEX
5
1aaf
8
Layer1
10
218.5000
20
67.7500
30
0.0
0
SEQEND
5
1ab0
8
Layer1
0
POLYLINE
5
1ab1
8
Layer1
66
1
10
0.0
20
0.0
30
0.0
70
1
0
VERTEX
5
1ab2
8
Layer1
10
237.5000
20
67.7500
30
0.0
0
VERTEX
5
1ab3
8
Layer1
10
238.3000
20
67.7500
30
0.0
0
VERTEX
5
1ab4
8
Layer1
10
238.3000
20
71.2500
30
0.0
0
VERTEX
5
1ab5
8
Layer1
10
237.5000
20
71.2500
30
0.0
0
VERTEX
5
1ab6
8
Layer1
10
237.5000
20
76.2500
30
0.0
0
VERTEX
5
1ab7
8
Layer1
10
238.3000
20
76.2500
30
0.0
0
VERTEX
5
1ab8
8
Layer1
10
238.3000
20
79.7500
30
0.0
0
VERTEX
5
1ab9
8
Layer1
10
237.5000
20
79.7500
30
0.0
0
VERTEX
5
1aba
8
Layer1
10
237.5000
20
80.7500
30
0.0
0
VERTEX
5
1abb
8
Layer1
10
223.5000
20
80.7500
30
0.0
0
VERTEX
5
1abc
8
Layer1
10
223.5000
20
79.7500
30
0.0
0
VERTEX
5
1abd
8
Layer1
10
222.7000
20
79.7500
30
0.0
0
VERTEX
5
1abe
8
Layer1
10
222.7000
20
76.2500
30
0.0
0
VERTEX
5
1abf
8
Layer1
10
223.5000
20
76.2500
30
0.0
0
VERTEX
5
1ac0
8
Layer1
10
223.5000
20
71.2500
30
0.0
0
VERTEX
5
1ac1
8
Layer1
10
222.7000
20
71.2500
30
0.0
0
VERTEX
5
1ac2
8
Layer1
10
222.7000
20
67.7500
30
0.0
0
VERTEX
5
1ac3
8
Layer1
10
223.5000
20
67.7500
30
0.0
0
VERTEX
5
1ac4
8
Layer1
10
223.5000
20
66.7500
30
0.0
0
VERTEX
5
1ac5
8
Layer1
10
237.5000
20
66.7500
30
0.0
0
VERTEX
5
1ac6
8
Layer1
10
237.5000
20
67.7500
30
0.0
0
SEQEND
5
1ac7
8
Layer1
0
POLYLINE
5
1ac8
8
Layer1
66
1
10
0.0
20
0.0
30
0.0
70
1
0
VERTEX
5
1ac9
8
Layer1
10
256.5000
20
67.7500
30
0.0
0
VERTEX
5
1aca
8
Layer1
10
257.3000
20
67.7500
30
0.0
0
VERTEX
5
1acb
8
Layer1
10
257.3000
20
71.2500
30
0.0
0
VERTEX
5
1acc
8
Layer1
10
256.5000
20
71.2500
30
0.0
0
VERTEX
5
1acd
8
Layer1
10
256.5000
20
76.2500
30
0.0
0
VERTEX
5
1ace
8
Layer1
10
257.3000
20
76.2500
30
0.0
0
VERTEX
5
1acf
8
Layer1
10
257.3000
20
79.7500
30
0.0
0
VERTEX
5
1ad0
8
Layer1
10
256.5000
20
79.7500
30
0.0
0
VERTEX
5
1ad1
8
Layer1
10
256.5000
20
80.7500
30
0.0
0
VERTEX
5
1ad2
8
Layer1
10
242.5000
20
80.7500
30
0.0
0
VERTEX
5
1ad3
8
Layer1
10
242.5000
20
79.7500
30
0.0
0
VERTEX
5
1ad4
8
Layer1
10
241.7000
20
79.7500
30
0.0
0
VERTEX
5
1ad5
8
Layer1
10
241.7000
20
76.2500
30
0.0
0
VERTEX
5
1ad6
8
Layer1
10
242.5000
20
76.2500
30
0.0
0
VERTEX
5
1ad7
8
Layer1
10
242.5000
20
71.2500
30
0.0
0
VERTEX
5
1ad8
8
Layer1
10
241.7000
20
71.2500
30
0.0
0
VERTEX
5
1ad9
8
Layer1
10
241.7000
20
67.7500
30
0.0
0
VERTEX
5
1ada
8
Layer1
10
242.5000
20
67.7500
30
0.0
0
VERTEX
5
1adb
8
Layer1
10
242.5000
20
66.7500
30
0.0
0
VERTEX
5
1adc
8
Layer1
10
256.5000
20
66.7500
30
0.0
0
VERTEX
5
1add
8
Layer1
10
256.5000
20
67.7500
30
0.0
0
SEQEND
5
1ade
8
Layer1
0
POLYLINE
5
1adf
8
Layer1
66
1
10
0.0
20
0.0
30
0.0
70
1
0
VERTEX
5
1ae0
8
Layer1
10
280.2500
20
67.7500
30
0.0
0
VERTEX
5
1ae1
8
Layer1
10
281.0500
20
67.7500
30
0.0
0
VERTEX
5
1ae2
8
Layer1
10
281.0500
20
71.2500
30
0.0
0
VERTEX
5
1ae3
8
Layer1
10
280.2500
20
71.2500
30
0.0
0
VERTEX
5
1ae4
8
Layer1
10
280.2500
20
76.2500
30
0.0
0
VERTEX
5
1ae5
8
Layer1
10
281.0500
20
76.2500
30
0.0
0
VERTEX
5
1ae6
8
Layer1
10
281.0500
20
79.7500
30
0.0
0
VERTEX
5
1ae7
8
Layer1
10
280.2500
20
79.7500
30
0.0
0
VERTEX
5
1ae8
8
Layer1
10
280.2500
20
80.7500
30
0.0
0
VERTEX
5
1ae9
8
Layer1
10
266.2500
20
80.7500
30
0.0
0
VERTEX
5
1aea
8
Layer1
10
266.2500
20
79.7500
30
0.0
0
VERTEX
5
1aeb
8
Layer1
10
265.4500
20
79.7500
30
0.0
0
VERTEX
5
1aec
8
Layer1
10
265.4500
20
76.2500
30
0.0
0
VERTEX
5
1aed
8
Layer1
10
266.2500
20
76.2500
30
0.0
0
VERTEX
5
1aee
8
Layer1
10
266.2500
20
71.2500
30
0.0
0
VERTEX
5
1aef
8
Layer1
10
265.4500
20
71.2500
30
0.0
0
VERTEX
5
1af0
8
Layer1
10
265.4500
20
67.7500
30
0.0
0
VERTEX
5
1af1
8
Layer1
10
266.2500
20
67.7500
30
0.0
0
VERTEX
5
1af2
8
Layer1
10
266.2500
20
66.7500
30
0.0
0
VERTEX
5
1af3
8
Layer1
10
280.2500
20
66.7500
30
0.0
0
VERTEX
5
1af4
8
Layer1
10
280.2500
20
67.7500
30
0.0
0
SEQEND
5
1af5
8
Layer1
0
POLYLINE
5
1af6
8
Layer1
66
1
10
0.0
20
0.0
30
0.0
70
1
0
VERTEX
5
1af7
8
Layer1
10
26.1250
20
48.7500
30
0.0
0
VERTEX
5
1af8
8
Layer1
10
26.9250
20
48.7500
30
0.0
0
VERTEX
5
1af9
8
Layer1
10
26.9250
20
52.2500
30
0.0
0
VERTEX
5
1afa
8
Layer1
10
26.1250
20
52.2500
30
0.0
0
VERTEX
5
1afb
8
Layer1
10
26.1250
20
57.2500
30
0.0
0
VERTEX
5
1afc
8
Layer1
10
26.9250
20
57.2500
30
0.0
0
VERTEX
5
1afd
8
Layer1
10
26.9250
20
60.7500
30
0.0
0
VERTEX
5
1afe
8
Layer1
10
26.1250
20
60.7500
30
0.0
0
VERTEX
5
1aff
8
Layer1
10
26.1250
20
61.7500
30
0.0
0
VERTEX
5
1b00
8
Layer1
10
12.1250
20
61.7500
30
0.0
0
VERTEX
5
1b01
8
Layer1
10
12.1250
20
60.7500
30
0.0
0
VERTEX
5
1b02
8
Layer1
10
11.3250
20
60.7500
30
0.0
0
VERTEX
5
1b03
8
Layer1
10
11.3250
20
57.2500
30
0.0
0
VERTEX
5
1b04
8
Layer1
10
12.1250
20
57.2500
30
0.0
0
VERTEX
5
1b05
8
Layer1
10
12.1250
20
52.2500
30
0.0
0
VERTEX
5
1b06
8
Layer1
10
11.3250
20
52.2500
30
0.0
0
VERTEX
5
1b07
8
Layer1
10
11.3250
20
48.7500
30
0.0
0
VERTEX
5
1b08
8
Layer1
10
12.1250
20
48.7500
30
0.0
0
VERTEX
5
1b09
8
Layer1
10
12.1250
20
47.7500
30
0.0
0
VERTEX
5
1b0a
8
Layer1
10
26.1250
20
47.7500
30
0.0
0
VERTEX
5
1b0b
8
Layer1
10
26.1250
20
48.7500
30
0.0
0
SEQEND
5
1b0c
8
Layer1
0
POLYLINE
5
1b0d
8
Layer1
66
1
10
0.0
20
0.0
30
0.0
70
1
0
VERTEX
5
1b0e
8
Layer1
10
52.2500
20
48.7500
30
0.0
0
VERTEX
5
1b0f
8
Layer1
10
53.0500
20
48.7500
30
0.0
0
VERTEX
5
1b10
8
Layer1
10
53.0500
20
52.2500
30
0.0
0
VERTEX
5
1b11
8
Layer1
10
52.2500
20
52.2500
30
0.0
0
VERTEX
5
1b12
8
Layer1
10
52.2500
20
57.2500
30
0.0
0
VERTEX
5
1b13
8
Layer1
10
53.0500
20
57.2500
30
0.0
0
VERTEX
5
1b14
8
Layer1
10
53.0500
20
60.7500
30
0.0
0
VERTEX
5
1b15
8
Layer1
10
52.2500
20
60.7500
30
0.0
0
VERTEX
5
1b16
8
Layer1
10
52.2500
20
61.7500
30
0.0
0
VERTEX
5
1b17
8
Layer1
10
38.2500
20
61.7500
30
0.0
0
VERTEX
5
1b18
8
Layer1
10
38.2500
20
60.7500
30
0.0
0
VERTEX
5
1b19
8
Layer1
10
37.4500
20
60.7500
30
0.0
0
VERTEX
5
1b1a
8
Layer1
10
37.4500
20
57.2500
30
0.0
0
VERTEX
5
1b1b
8
Layer1
10
38.2500
20
57.2500
30
0.0
0
VERTEX
5
1b1c
8
Layer1
10
38.2500
20
52.2500
30
0.0
0
VERTEX
5
1b1d
8
Layer1
10
37.4500
20
52.2500
30
0.0
0
VERTEX
5
1b1e
8
Layer1
10
37.4500
20
48.7500
30
0.0
0
VERTEX
5
1b1f
8
Layer1
10
38.2500
20
48.7500
30
0.0
0
VERTEX
5
1b20
8
Layer1
10
38.2500
20
47.7500
30
0.0
0
VERTEX
5
1b21
8
Layer1
10
52.2500
20
47.7500
30
0.0
0
VERTEX
5
1b22
8
Layer1
10
52.2500
20
48.7500
30
0.0
0
SEQEND
5
1b23
8
Layer1
0
POLYLINE
5
1b24
8
Layer1
66
1
10
0.0
20
0.0
30
0.0
70
1
0
VERTEX
5
1b25
8
Layer1
10
71.2500
20
48.7500
30
0.0
0
VERTEX
5
1b26
8
Layer1
10
72.0500
20
48.7500
30
0.0
0
VERTEX
5
1b27
8
Layer1
10
72.0500
20
52.2500
30
0.0
0
VERTEX
5
1b28
8
Layer1
10
71.2500
20
52.2500
30
0.0
0
VERTEX
5
1b29
8
Layer1
10
71.2500
20
57.2500
30
0.0
0
VERTEX
5
1b2a
8
Layer1
10
72.0500
20
57.2500
30
0.0
0
VERTEX
5
1b2b
8
Layer1
10
72.0500
20
60.7500
30
0.0
0
VERTEX
5
1b2c
8
Layer1
10
71.2500
20
60.7500
30
0.0
0
VERTEX
5
1b2d
8
Layer1
10
71.2500
20
61.7500
30
0.0
0
VERTEX
5
1b2e
8
Layer1
10
57.2500
20
61.7500
30
0.0
0
VERTEX
5
1b2f
8
Layer1
10
57.2500
20
60.7500
30
0.0
0
VERTEX
5
1b30
8
Layer1
10
56.4500
20
60.7500
30
0.0
0
VERTEX
5
1b31
8
Layer1
10
56.4500
20
57.2500
30
0.0
0
VERTEX
5
1b32
8
Layer1
10
57.2500
20
57.2500
30
0.0
0
VERTEX
5
1b33
8
Layer1
10
57.2500
20
52.2500
30
0.0
0
VERTEX
5
1b34
8
Layer1
10
56.4500
20
52.2500
30
0.0
0
VERTEX
5
1b35
8
Layer1
10
56.4500
20
48.7500
30
0.0
0
VERTEX
5
1b36
8
Layer1
10
57.2500
20
48.7500
30
0.0
0
VERTEX
5
1b37
8
Layer1
10
57.2500
20
47.7500
30
0.0
0
VERTEX
5
1b38
8
Layer1
10
71.2500
20
47.7500
30
0.0
0
VERTEX
5
1b39
8
Layer1
10
71.2500
20
48.7500
30
0.0
0
SEQEND
5
1b3a
8
Layer1
0
POLYLINE
5
1b3b
8
Layer1
66
1
10
0.0
20
0.0
30
0.0
70
1
0
VERTEX
5
1b3c
8
Layer1
10
90.2500
20
48.7500
30
0.0
0
VERTEX
5
1b3d
8
Layer1
10
91.0500
20
48.7500
30
0.0
0
VERTEX
5
1b3e
8
Layer1
10
91.0500
20
52.2500
30
0.0
0
VERTEX
5
1b3f
8
Layer1
10
90.2500
20
52.2500
30
0.0
0
VERTEX
5
1b40
8
Layer1
10
90.2500
20
57.2500
30
0.0
0
VERTEX
5
1b41
8
Layer1
10
91.0500
20
57.2500
30
0.0
0
VERTEX
5
1b42
8
Layer1
10
91.0500
20
60.7500
30
0.0
0
VERTEX
5
1b43
8
Layer1
10
90.2500
20
60.7500
30
0.0
0
VERTEX
5
1b44
8
Layer1
10
90.2500
20
61.7500
30
0.0
0
VERTEX
5
1b45
8
Layer1
10
76.2500
20
61.7500
30
0.0
0
VERTEX
5
1b46
8
Layer1
10
76.2500
20
60.7500
30
0.0
0
VERTEX
5
1b47
8
Layer1
10
75.4500
20
60.7500
30
0.0
0
VERTEX
5
1b48
8
Layer1
10
75.4500
20
57.2500
30
0.0
0
VERTEX
5
1b49
8
Layer1
10
76.2500
20
57.2500
30
0.0
0
VERTEX
5
1b4a
8
Layer1
10
76.2500
20
52.2500
30
0.0
0
VERTEX
5
1b4b
8
Layer1
10
75.4500
20
52.2500
30
0.0
0
VERTEX
5
1b4c
8
Layer1
10
75.4500
20
48.7500
30
0.0
0
VERTEX
5
1b4d
8
Layer1
10
76.2500
20
48.7500
30
0.0
0
VERTEX
5
1b4e
8
Layer1
10
76.2500
20
47.7500
30
0.0
0
VERTEX
5
1b4f
8
Layer1
10
90.2500
20
47.7500
30
0.0
0
VERTEX
5
1b50
8
Layer1
10
90.2500
20
48.7500
30
0.0
0
SEQEND
5
1b51
8
Layer1
0
POLYLINE
5
1b52
8
Layer1
66
1
10
0.0
20
0.0
30
0.0
70
1
0
VERTEX
5
1b53
8
Layer1
10
109.2500
20
48.7500
30
0.0
0
VERTEX
5
1b54
8
Layer1
10
110.0500
20
48.7500
30
0.0
0
VERTEX
5
1b55
8
Layer1
10
110.0500
20
52.2500
30
0.0
0
VERTEX
5
1b56
8
Layer1
10
109.2500
20
52.2500
30
0.0
0
VERTEX
5
1b57
8
Layer1
10
109.2500
20
57.2500
30
0.0
0
VERTEX
5
1b58
8
Layer1
10
110.0500
20
57.2500
30
0.0
0
VERTEX
5
1b59
8
Layer1
10
110.0500
20
60.7500
30
0.0
0
VERTEX
5
1b5a
8
Layer1
10
109.2500
20
60.7500
30
0.0
0
VERTEX
5
1b5b
8
Layer1
10
109.2500
20
61.7500
30
0.0
0
VERTEX
5
1b5c
8
Layer1
10
95.2500
20
61.7500
30
0.0
0
VERTEX
5
1b5d
8
Layer1
10
95.2500
20
60.7500
30
0.0
0
VERTEX
5
1b5e
8
Layer1
10
94.4500
20
60.7500
30
0.0
0
VERTEX
5
1b5f
8
Layer1
10
94.4500
20
57.2500
30
0.0
0
VERTEX
5
1b60
8
Layer1
10
95.2500
20
57.2500
30
0.0
0
VERTEX
5
1b61
8
Layer1
10
95.2500
20
52.2500
30
0.0
0
VERTEX
5
1b62
8
Layer1
10
94.4500
20
52.2500
30
0.0
0
VERTEX
5
1b63
8
Layer1
10
94.4500
20
48.7500
30
0.0
0
VERTEX
5
1b64
8
Layer1
10
95.2500
20
48.7500
30
0.0
0
VERTEX
5
1b65
8
Layer1
10
95.2500
20
47.7500
30
0.0
0
VERTEX
5
1b66
8
Layer1
10
109.2500
20
47.7500
30
0.0
0
VERTEX
5
1b67
8
Layer1
10
109.2500
20
48.7500
30
0.0
0
SEQEND
5
1b68
8
Layer1
0
POLYLINE
5
1b69
8
Layer1
66
1
10
0.0
20
0.0
30
0.0
70
1
0
VERTEX
5
1b6a
8
Layer1
10
128.2500
20
48.7500
30
0.0
0
VERTEX
5
1b6b
8
Layer1
10
129.0500
20
48.7500
30
0.0
0
VERTEX
5
1b6c
8
Layer1
10
129.0500
20
52.2500
30
0.0
0
VERTEX
5
1b6d
8
Layer1
10
128.2500
20
52.2500
30
0.0
0
VERTEX
5
1b6e
8
Layer1
10
128.2500
20
57.2500
30
0.0
0
VERTEX
5
1b6f
8
Layer1
10
129.0500
20
57.2500
30
0.0
0
VERTEX
5
1b70
8
Layer1
10
129.0500
20
60.7500
30
0.0
0
VERTEX
5
1b71
8
Layer1
10
128.2500
20
60.7500
30
0.0
0
VERTEX
5
1b72
8
Layer1
10
128.2500
20
61.7500
30
0.0
0
VERTEX
5
1b73
8
Layer1
10
114.2500
20
61.7500
30
0.0
0
VERTEX
5
1b74
8
Layer1
10
114.2500
20
60.7500
30
0.0
0
VERTEX
5
1b75
8
Layer1
10
113.4500
20
60.7500
30
0.0
0
VERTEX
5
1b76
8
Layer1
10
113.4500
20
57.2500
30
0.0
0
VERTEX
5
1b77
8
Layer1
10
114.2500
20
57.2500
30
0.0
0
VERTEX
5
1b78
8
Layer1
10
114.2500
20
52.2500
30
0.0
0
VERTEX
5
1b79
8
Layer1
10
113.4500
20
52.2500
30
0.0
0
VERTEX
5
1b7a
8
Layer1
10
113.4500
20
48.7500
30
0.0
0
VERTEX
5
1b7b
8
Layer1
10
114.2500
20
48.7500
30
0.0
0
VERTEX
5
1b7c
8
Layer1
10
114.2500
20
47.7500
30
0.0
0
VERTEX
5
1b7d
8
Layer1
10
128.2500
20
47.7500
30
0.0
0
VERTEX
5
1b7e
8
Layer1
10
128.2500
20
48.7500
30
0.0
0
SEQEND
5
1b7f
8
Layer1
0
POLYLINE
5
1b80
8
Layer1
66
1
10
0.0
20
0.0
30
0.0
70
1
0
VERTEX
5
1b81
8
Layer1
10
147.2500
20
48.7500
30
0.0
0
VERTEX
5
1b82
8
Layer1
10
148.0500
20
48.7500
30
0.0
0
VERTEX
5
1b83
8
Layer1
10
148.0500
20
52.2500
30
0.0
0
VERTEX
5
1b84
8
Layer1
10
147.2500
20
52.2500
30
0.0
0
VERTEX
5
1b85
8
Layer1
10
147.2500
20
57.2500
30
0.0
0
VERTEX
5
1b86
8
Layer1
10
148.0500
20
57.2500
30
0.0
0
VERTEX
5
1b87
8
Layer1
10
148.0500
20
60.7500
30
0.0
0
VERTEX
5
1b88
8
Layer1
10
147.2500
20
60.7500
30
0.0
0
VERTEX
5
1b89
8
Layer1
10
147.2500
20
61.7500
30
0.0
0
VERTEX
5
1b8a
8
Layer1
10
133.2500
20
61.7500
30
0.0
0
VERTEX
5
1b8b
8
Layer1
10
133.2500
20
60.7500
30
0.0
0
VERTEX
5
1b8c
8
Layer1
10
132.4500
20
60.7500
30
0.0
0
VERTEX
5
1b8d
8
Layer1
10
132.4500
20
57.2500
30
0.0
0
VERTEX
5
1b8e
8
Layer1
10
133.2500
20
57.2500
30
0.0
0
VERTEX
5
1b8f
8
Layer1
10
133.2500
20
52.2500
30
0.0
0
VERTEX
5
1b90
8
Layer1
10
132.4500
20
52.2500
30
0.0
0
VERTEX
5
1b91
8
Layer1
10
132.4500
20
48.7500
30
0.0
0
VERTEX
5
1b92
8
Layer1
10
133.2500
20
48.7500
30
0.0
0
VERTEX
5
1b93
8
Layer1
10
133.2500
20
47.7500
30
0.0
0
VERTEX
5
1b94
8
Layer1
10
147.2500
20
47.7500
30
0.0
0
VERTEX
5
1b95
8
Layer1
10
147.2500
20
48.7500
30
0.0
0
SEQEND
5
1b96
8
Layer1
0
POLYLINE
5
1b97
8
Layer1
66
1
10
0.0
20
0.0
30
0.0
70
1
0
VERTEX
5
1b98
8
Layer1
10
166.2500
20
48.7500
30
0.0
0
VERTEX
5
1b99
8
Layer1
10
167.0500
20
48.7500
30
0.0
0
VERTEX
5
1b9a
8
Layer1
10
167.0500
20
52.2500
30
0.0
0
VERTEX
5
1b9b
8
Layer1
10
166.2500
20
52.2500
30
0.0
0
VERTEX
5
1b9c
8
Layer1
10
166.2500
20
57.2500
30
0.0
0
VERTEX
5
1b9d
8
Layer1
10
167.0500
20
57.2500
30
0.0
0
VERTEX
5
1b9e
8
Layer1
10
167.0500
20
60.7500
30
0.0
0
VERTEX
5
1b9f
8
Layer1
10
166.2500
20
60.7500
30
0.0
0
VERTEX
5
1ba0
8
Layer1
10
166.2500
20
61.7500
30
0.0
0
VERTEX
5
1ba1
8
Layer1
10
152.2500
20
61.7500
30
0.0
0
VERTEX
5
1ba2
8
Layer1
10
152.2500
20
60.7500
30
0.0
0
VERTEX
5
1ba3
8
Layer1
10
151.4500
20
60.7500
30
0.0
0
VERTEX
5
1ba4
8
Layer1
10
151.4500
20
57.2500
30
0.0
0
VERTEX
5
1ba5
8
Layer1
10
152.2500
20
57.2500
30
0.0
0
VERTEX
5
1ba6
8
Layer1
10
152.2500
20
52.2500
30
0.0
0
VERTEX
5
1ba7
8
Layer1
10
151.4500
20
52.2500
30
0.0
0
VERTEX
5
1ba8
8
Layer1
10
151.4500
20
48.7500
30
0.0
0
VERTEX
5
1ba9
8
Layer1
10
152.2500
20
48.7500
30
0.0
0
VERTEX
5
1baa
8
Layer1
10
152.2500
20
47.7500
30
0.0
0
VERTEX
5
1bab
8
Layer1
10
166.2500
20
47.7500
30
0.0
0
VERTEX
5
1bac
8
Layer1
10
166.2500
20
48.7500
30
0.0
0
SEQEND
5
1bad
8
Layer1
0
POLYLINE
5
1bae
8
Layer1
66
1
10
0.0
20
0.0
30
0.0
70
1
0
VERTEX
5
1baf
8
Layer1
10
185.2500
20
48.7500
30
0.0
0
VERTEX
5
1bb0
8
Layer1
10
186.0500
20
48.7500
30
0.0
0
VERTEX
5
1bb1
8
Layer1
10
186.0500
20
52.2500
30
0.0
0
VERTEX
5
1bb2
8
Layer1
10
185.2500
20
52.2500
30
0.0
0
VERTEX
5
1bb3
8
Layer1
10
185.2500
20
57.2500
30
0.0
0
VERTEX
5
1bb4
8
Layer1
10
186.0500
20
57.2500
30
0.0
0
VERTEX
5
1bb5
8
Layer1
10
186.0500
20
60.7500
30
0.0
0
VERTEX
5
1bb6
8
Layer1
10
185.2500
20
60.7500
30
0.0
0
VERTEX
5
1bb7
8
Layer1
10
185.2500
20
61.7500
30
0.0
0
VERTEX
5
1bb8
8
Layer1
10
171.2500
20
61.7500
30
0.0
0
VERTEX
5
1bb9
8
Layer1
10
171.2500
20
60.7500
30
0.0
0
VERTEX
5
1bba
8
Layer1
10
170.4500
20
60.7500
30
0.0
0
VERTEX
5
1bbb
8
Layer1
10
170.4500
20
57.2500
30
0.0
0
VERTEX
5
1bbc
8
Layer1
10
171.2500
20
57.2500
30
0.0
0
VERTEX
5
1bbd
8
Layer1
10
171.2500
20
52.2500
30
0.0
0
VERTEX
5
1bbe
8
Layer1
10
170.4500
20
52.2500
30
0.0
0
VERTEX
5
1bbf
8
Layer1
10
170.4500
20
48.7500
30
0.0
0
VERTEX
5
1bc0
8
Layer1
10
171.2500
20
48.7500
30
0.0
0
VERTEX
5
1bc1
8
Layer1
10
171.2500
20
47.7500
30
0.0
0
VERTEX
5
1bc2
8
Layer1
10
185.2500
20
47.7500
30
0.0
0
VERTEX
5
1bc3
8
Layer1
10
185.2500
20
48.7500
30
0.0
0
SEQEND
5
1bc4
8
Layer1
0
POLYLINE
5
1bc5
8
Layer1
66
1
10
0.0
20
0.0
30
0.0
70
1
0
VERTEX
5
1bc6
8
Layer1
10
204.2500
20
48.7500
30
0.0
0
VERTEX
5
1bc7
8
Layer1
10
205.0500
20
48.7500
30
0.0
0
VERTEX
5
1bc8
8
Layer1
10
205.0500
20
52.2500
30
0.0
0
VERTEX
5
1bc9
8
Layer1
10
204.2500
20
52.2500
30
0.0
0
VERTEX
5
1bca
8
Layer1
10
204.2500
20
57.2500
30
0.0
0
VERTEX
5
1bcb
8
Layer1
10
205.0500
20
57.2500
30
0.0
0
VERTEX
5
1bcc
8
Layer1
10
205.0500
20
60.7500
30
0.0
0
VERTEX
5
1bcd
8
Layer1
10
204.2500
20
60.7500
30
0.0
0
VERTEX
5
1bce
8
Layer1
10
204.2500
20
61.7500
30
0.0
0
VERTEX
5
1bcf
8
Layer1
10
190.2500
20
61.7500
30
0.0
0
VERTEX
5
1bd0
8
Layer1
10
190.2500
20
60.7500
30
0.0
0
VERTEX
5
1bd1
8
Layer1
10
189.4500
20
60.7500
30
0.0
0
VERTEX
5
1bd2
8
Layer1
10
189.4500
20
57.2500
30
0.0
0
VERTEX
5
1bd3
8
Layer1
10
190.2500
20
57.2500
30
0.0
0
VERTEX
5
1bd4
8
Layer1
10
190.2500
20
52.2500
30
0.0
0
VERTEX
5
1bd5
8
Layer1
10
189.4500
20
52.2500
30
0.0
0
VERTEX
5
1bd6
8
Layer1
10
189.4500
20
48.7500
30
0.0
0
VERTEX
5
1bd7
8
Layer1
10
190.2500
20
48.7500
30
0.0
0
VERTEX
5
1bd8
8
Layer1
10
190.2500
20
47.7500
30
0.0
0
VERTEX
5
1bd9
8
Layer1
10
204.2500
20
47.7500
30
0.0
0
VERTEX
5
1bda
8
Layer1
10
204.2500
20
48.7500
30
0.0
0
SEQEND
5
1bdb
8
Layer1
0
POLYLINE
5
1bdc
8
Layer1
66
1
10
0.0
20
0.0
30
0.0
70
1
0
VERTEX
5
1bdd
8
Layer1
10
223.2500
20
48.7500
30
0.0
0
VERTEX
5
1bde
8
Layer1
10
224.0500
20
48.7500
30
0.0
0
VERTEX
5
1bdf
8
Layer1
10
224.0500
20
52.2500
30
0.0
0
VERTEX
5
1be0
8
Layer1
10
223.2500
20
52.2500
30
0.0
0
VERTEX
5
1be1
8
Layer1
10
223.2500
20
57.2500
30
0.0
0
VERTEX
5
1be2
8
Layer1
10
224.0500
20
57.2500
30
0.0
0
VERTEX
5
1be3
8
Layer1
10
224.0500
20
60.7500
30
0.0
0
VERTEX
5
1be4
8
Layer1
10
223.2500
20
60.7500
30
0.0
0
VERTEX
5
1be5
8
Layer1
10
223.2500
20
61.7500
30
0.0
0
VERTEX
5
1be6
8
Layer1
10
209.2500
20
61.7500
30
0.0
0
VERTEX
5
1be7
8
Layer1
10
209.2500
20
60.7500
30
0.0
0
VERTEX
5
1be8
8
Layer1
10
208.4500
20
60.7500
30
0.0
0
VERTEX
5
1be9
8
Layer1
10
208.4500
20
57.2500
30
0.0
0
VERTEX
5
1bea
8
Layer1
10
209.2500
20
57.2500
30
0.0
0
VERTEX
5
1beb
8
Layer1
10
209.2500
20
52.2500
30
0.0
0
VERTEX
5
1bec
8
Layer1
10
208.4500
20
52.2500
30
0.0
0
VERTEX
5
1bed
8
Layer1
10
208.4500
20
48.7500
30
0.0
0
VERTEX
5
1bee
8
Layer1
10
209.2500
20
48.7500
30
0.0
0
VERTEX
5
1bef
8
Layer1
10
209.2500
20
47.7500
30
0.0
0
VERTEX
5
1bf0
8
Layer1
10
223.2500
20
47.7500
30
0.0
0
VERTEX
5
1bf1
8
Layer1
10
223.2500
20
48.7500
30
0.0
0
SEQEND
5
1bf2
8
Layer1
0
POLYLINE
5
1bf3
8
Layer1
66
1
10
0.0
20
0.0
30
0.0
70
1
0
VERTEX
5
1bf4
8
Layer1
10
242.2500
20
48.7500
30
0.0
0
VERTEX
5
1bf5
8
Layer1
10
243.0500
20
48.7500
30
0.0
0
VERTEX
5
1bf6
8
Layer1
10
243.0500
20
52.2500
30
0.0
0
VERTEX
5
1bf7
8
Layer1
10
242.2500
20
52.2500
30
0.0
0
VERTEX
5
1bf8
8
Layer1
10
242.2500
20
57.2500
30
0.0
0
VERTEX
5
1bf9
8
Layer1
10
243.0500
20
57.2500
30
0.0
0
VERTEX
5
1bfa
8
Layer1
10
243.0500
20
60.7500
30
0.0
0
VERTEX
5
1bfb
8
Layer1
10
242.2500
20
60.7500
30
0.0
0
VERTEX
5
1bfc
8
Layer1
10
242.2500
20
61.7500
30
0.0
0
VERTEX
5
1bfd
8
Layer1
10
228.2500
20
61.7500
30
0.0
0
VERTEX
5
1bfe
8
Layer1
10
228.2500
20
60.7500
30
0.0
0
VERTEX
5
1bff
8
Layer1
10
227.4500
20
60.7500
30
0.0
0
VERTEX
5
1c00
8
Layer1
10
227.4500
20
57.2500
30
0.0
0
VERTEX
5
1c01
8
Layer1
10
228.2500
20
57.2500
30
0.0
0
VERTEX
5
1c02
8
Layer1
10
228.2500
20
52.2500
30
0.0
0
VERTEX
5
1c03
8
Layer1
10
227.4500
20
52.2500
30
0.0
0
VERTEX
5
1c04
8
Layer1
10
227.4500
20
48.7500
30
0.0
0
VERTEX
5
1c05
8
Layer1
10
228.2500
20
48.7500
30
0.0
0
VERTEX
5
1c06
8
Layer1
10
228.2500
20
47.7500
30
0.0
0
VERTEX
5
1c07
8
Layer1
10
242.2500
20
47.7500
30
0.0
0
VERTEX
5
1c08
8
Layer1
10
242.2500
20
48.7500
30
0.0
0
SEQEND
5
1c09
8
Layer1
0
POLYLINE
5
1c0a
8
Layer1
66
1
10
0.0
20
0.0
30
0.0
70
1
0
VERTEX
5
1c0b
8
Layer1
10
255.7250
20
47.9800
30
0.0
0
VERTEX
5
1c0c
8
Layer1
10
257.5500
20
47.9800
30
0.0
0
VERTEX
5
1c0d
8
Layer1
10
257.5500
20
48.7800
30
0.0
0
VERTEX
5
1c0e
8
Layer1
10
258.3250
20
48.7800
30
0.0
0
VERTEX
5
1c0f
8
Layer1
10
258.3250
20
48.7500
30
0.0
0
VERTEX
5
1c10
8
Layer1
10
259.1250
20
48.7500
30
0.0
0
VERTEX
5
1c11
8
Layer1
10
259.1250
20
47.7500
30
0.0
0
VERTEX
5
1c12
8
Layer1
10
273.1250
20
47.7500
30
0.0
0
VERTEX
5
1c13
8
Layer1
10
273.1250
20
48.7500
30
0.0
0
VERTEX
5
1c14
8
Layer1
10
273.9250
20
48.7500
30
0.0
0
VERTEX
5
1c15
8
Layer1
10
273.9250
20
48.7800
30
0.0
0
VERTEX
5
1c16
8
Layer1
10
274.7000
20
48.7800
30
0.0
0
VERTEX
5
1c17
8
Layer1
10
274.7000
20
47.9800
30
0.0
0
VERTEX
5
1c18
8
Layer1
10
276.5250
20
47.9800
30
0.0
0
VERTEX
5
1c19
8
Layer1
10
276.5250
20
46.7800
30
0.0
0
VERTEX
5
1c1a
8
Layer1
10
279.5250
20
46.7800
30
0.0
0
VERTEX
5
1c1b
8
Layer1
10
279.5250
20
47.9800
30
0.0
0
VERTEX
5
1c1c
8
Layer1
10
281.3500
20
47.9800
30
0.0
0
VERTEX
5
1c1d
8
Layer1
10
281.3500
20
54.2500
30
0.0
0
VERTEX
5
1c1e
8
Layer1
10
282.2250
20
54.2500
30
0.0
0
VERTEX
5
1c1f
8
Layer1
10
282.2250
20
57.0500
30
0.0
0
VERTEX
5
1c20
8
Layer1
10
281.3500
20
57.0500
30
0.0
0
VERTEX
5
1c21
8
Layer1
10
281.3500
20
60.2800
30
0.0
0
VERTEX
5
1c22
8
Layer1
10
274.7000
20
60.2800
30
0.0
0
VERTEX
5
1c23
8
Layer1
10
274.7000
20
59.4800
30
0.0
0
VERTEX
5
1c24
8
Layer1
10
273.9250
20
59.4800
30
0.0
0
VERTEX
5
1c25
8
Layer1
10
273.9250
20
60.7500
30
0.0
0
VERTEX
5
1c26
8
Layer1
10
273.1250
20
60.7500
30
0.0
0
VERTEX
5
1c27
8
Layer1
10
273.1250
20
61.7500
30
0.0
0
VERTEX
5
1c28
8
Layer1
10
259.1250
20
61.7500
30
0.0
0
VERTEX
5
1c29
8
Layer1
10
259.1250
20
60.7500
30
0.0
0
VERTEX
5
1c2a
8
Layer1
10
258.3250
20
60.7500
30
0.0
0
VERTEX
5
1c2b
8
Layer1
10
258.3250
20
59.4800
30
0.0
0
VERTEX
5
1c2c
8
Layer1
10
257.5500
20
59.4800
30
0.0
0
VERTEX
5
1c2d
8
Layer1
10
257.5500
20
60.2800
30
0.0
0
VERTEX
5
1c2e
8
Layer1
10
250.9000
20
60.2800
30
0.0
0
VERTEX
5
1c2f
8
Layer1
10
250.9000
20
57.0500
30
0.0
0
VERTEX
5
1c30
8
Layer1
10
250.0250
20
57.0500
30
0.0
0
VERTEX
5
1c31
8
Layer1
10
250.0250
20
54.2500
30
0.0
0
VERTEX
5
1c32
8
Layer1
10
250.9000
20
54.2500
30
0.0
0
VERTEX
5
1c33
8
Layer1
10
250.9000
20
47.9800
30
0.0
0
VERTEX
5
1c34
8
Layer1
10
252.7250
20
47.9800
30
0.0
0
VERTEX
5
1c35
8
Layer1
10
252.7250
20
46.7800
30
0.0
0
VERTEX
5
1c36
8
Layer1
10
255.7250
20
46.7800
30
0.0
0
VERTEX
5
1c37
8
Layer1
10
255.7250
20
47.9800
30
0.0
0
SEQEND
5
1c38
8
Layer1
0
POLYLINE
5
1c39
8
Layer1
66
1
10
0.0
20
0.0
30
0.0
70
1
0
VERTEX
5
1c3a
8
Layer1
10
13.4750
20
28.9800
30
0.0
0
VERTEX
5
1c3b
8
Layer1
10
15.3000
20
28.9800
30
0.0
0
VERTEX
5
1c3c
8
Layer1
10
15.3000
20
29.7800
30
0.0
0
VERTEX
5
1c3d
8
Layer1
10
16.0750
20
29.7800
30
0.0
0
VERTEX
5
1c3e
8
Layer1
10
16.0750
20
29.7500
30
0.0
0
VERTEX
5
1c3f
8
Layer1
10
16.8750
20
29.7500
30
0.0
0
VERTEX
5
1c40
8
Layer1
10
16.8750
20
28.7500
30
0.0
0
VERTEX
5
1c41
8
Layer1
10
30.8750
20
28.7500
30
0.0
0
VERTEX
5
1c42
8
Layer1
10
30.8750
20
29.7500
30
0.0
0
VERTEX
5
1c43
8
Layer1
10
31.6750
20
29.7500
30
0.0
0
VERTEX
5
1c44
8
Layer1
10
31.6750
20
29.7800
30
0.0
0
VERTEX
5
1c45
8
Layer1
10
32.4500
20
29.7800
30
0.0
0
VERTEX
5
1c46
8
Layer1
10
32.4500
20
28.9800
30
0.0
0
VERTEX
5
1c47
8
Layer1
10
34.2750
20
28.9800
30
0.0
0
VERTEX
5
1c48
8
Layer1
10
34.2750
20
27.7800
30
0.0
0
VERTEX
5
1c49
8
Layer1
10
37.2750
20
27.7800
30
0.0
0
VERTEX
5
1c4a
8
Layer1
10
37.2750
20
28.9800
30
0.0
0
VERTEX
5
1c4b
8
Layer1
10
39.1000
20
28.9800
30
0.0
0
VERTEX
5
1c4c
8
Layer1
10
39.1000
20
35.2500
30
0.0
0
VERTEX
5
1c4d
8
Layer1
10
39.9750
20
35.2500
30
0.0
0
VERTEX
5
1c4e
8
Layer1
10
39.9750
20
38.0500
30
0.0
0
VERTEX
5
1c4f
8
Layer1
10
39.1000
20
38.0500
30
0.0
0
VERTEX
5
1c50
8
Layer1
10
39.1000
20
41.2800
30
0.0
0
VERTEX
5
1c51
8
Layer1
10
32.4500
20
41.2800
30
0.0
0
VERTEX
5
1c52
8
Layer1
10
32.4500
20
40.4800
30
0.0
0
VERTEX
5
1c53
8
Layer1
10
31.6750
20
40.4800
30
0.0
0
VERTEX
5
1c54
8
Layer1
10
31.6750
20
41.7500
30
0.0
0
VERTEX
5
1c55
8
Layer1
10
30.8750
20
41.7500
30
0.0
0
VERTEX
5
1c56
8
Layer1
10
30.8750
20
42.7500
30
0.0
0
VERTEX
5
1c57
8
Layer1
10
16.8750
20
42.7500
30
0.0
0
VERTEX
5
1c58
8
Layer1
10
16.8750
20
41.7500
30
0.0
0
VERTEX
5
1c59
8
Layer1
10
16.0750
20
41.7500
30
0.0
0
VERTEX
5
1c5a
8
Layer1
10
16.0750
20
40.4800
30
0.0
0
VERTEX
5
1c5b
8
Layer1
10
15.3000
20
40.4800
30
0.0
0
VERTEX
5
1c5c
8
Layer1
10
15.3000
20
41.2800
30
0.0
0
VERTEX
5
1c5d
8
Layer1
10
8.6500
20
41.2800
30
0.0
0
VERTEX
5
1c5e
8
Layer1
10
8.6500
20
38.0500
30
0.0
0
VERTEX
5
1c5f
8
Layer1
10
7.7750
20
38.0500
30
0.0
0
VERTEX
5
1c60
8
Layer1
10
7.7750
20
35.2500
30
0.0
0
VERTEX
5
1c61
8
Layer1
10
8.6500
20
35.2500
30
0.0
0
VERTEX
5
1c62
8
Layer1
10
8.6500
20
28.9800
30
0.0
0
VERTEX
5
1c63
8
Layer1
10
10.4750
20
28.9800
30
0.0
0
VERTEX
5
1c64
8
Layer1
10
10.4750
20
27.7800
30
0.0
0
VERTEX
5
1c65
8
Layer1
10
13.4750
20
27.7800
30
0.0
0
VERTEX
5
1c66
8
Layer1
10
13.4750
20
28.9800
30
0.0
0
SEQEND
5
1c67
8
Layer1
0
POLYLINE
5
1c68
8
Layer1
66
1
10
0.0
20
0.0
30
0.0
70
1
0
VERTEX
5
1c69
8
Layer1
10
61.7500
20
29.7500
30
0.0
0
VERTEX
5
1c6a
8
Layer1
10
62.5500
20
29.7500
30
0.0
0
VERTEX
5
1c6b
8
Layer1
10
62.5500
20
33.2500
30
0.0
0
VERTEX
5
1c6c
8
Layer1
10
61.7500
20
33.2500
30
0.0
0
VERTEX
5
1c6d
8
Layer1
10
61.7500
20
38.2500
30
0.0
0
VERTEX
5
1c6e
8
Layer1
10
62.5500
20
38.2500
30
0.0
0
VERTEX
5
1c6f
8
Layer1
10
62.5500
20
41.7500
30
0.0
0
VERTEX
5
1c70
8
Layer1
10
61.7500
20
41.7500
30
0.0
0
VERTEX
5
1c71
8
Layer1
10
61.7500
20
42.7500
30
0.0
0
VERTEX
5
1c72
8
Layer1
10
47.7500
20
42.7500
30
0.0
0
VERTEX
5
1c73
8
Layer1
10
47.7500
20
41.7500
30
0.0
0
VERTEX
5
1c74
8
Layer1
10
46.9500
20
41.7500
30
0.0
0
VERTEX
5
1c75
8
Layer1
10
46.9500
20
38.2500
30
0.0
0
VERTEX
5
1c76
8
Layer1
10
47.7500
20
38.2500
30
0.0
0
VERTEX
5
1c77
8
Layer1
10
47.7500
20
33.2500
30
0.0
0
VERTEX
5
1c78
8
Layer1
10
46.9500
20
33.2500
30
0.0
0
VERTEX
5
1c79
8
Layer1
10
46.9500
20
29.7500
30
0.0
0
VERTEX
5
1c7a
8
Layer1
10
47.7500
20
29.7500
30
0.0
0
VERTEX
5
1c7b
8
Layer1
10
47.7500
20
28.7500
30
0.0
0
VERTEX
5
1c7c
8
Layer1
10
61.7500
20
28.7500
30
0.0
0
VERTEX
5
1c7d
8
Layer1
10
61.7500
20
29.7500
30
0.0
0
SEQEND
5
1c7e
8
Layer1
0
POLYLINE
5
1c7f
8
Layer1
66
1
10
0.0
20
0.0
30
0.0
70
1
0
VERTEX
5
1c80
8
Layer1
10
80.7500
20
29.7500
30
0.0
0
VERTEX
5
1c81
8
Layer1
10
81.5500
20
29.7500
30
0.0
0
VERTEX
5
1c82
8
Layer1
10
81.5500
20
33.2500
30
0.0
0
VERTEX
5
1c83
8
Layer1
10
80.7500
20
33.2500
30
0.0
0
VERTEX
5
1c84
8
Layer1
10
80.7500
20
38.2500
30
0.0
0
VERTEX
5
1c85
8
Layer1
10
81.5500
20
38.2500
30
0.0
0
VERTEX
5
1c86
8
Layer1
10
81.5500
20
41.7500
30
0.0
0
VERTEX
5
1c87
8
Layer1
10
80.7500
20
41.7500
30
0.0
0
VERTEX
5
1c88
8
Layer1
10
80.7500
20
42.7500
30
0.0
0
VERTEX
5
1c89
8
Layer1
10
66.7500
20
42.7500
30
0.0
0
VERTEX
5
1c8a
8
Layer1
10
66.7500
20
41.7500
30
0.0
0
VERTEX
5
1c8b
8
Layer1
10
65.9500
20
41.7500
30
0.0
0
VERTEX
5
1c8c
8
Layer1
10
65.9500
20
38.2500
30
0.0
0
VERTEX
5
1c8d
8
Layer1
10
66.7500
20
38.2500
30
0.0
0
VERTEX
5
1c8e
8
Layer1
10
66.7500
20
33.2500
30
0.0
0
VERTEX
5
1c8f
8
Layer1
10
65.9500
20
33.2500
30
0.0
0
VERTEX
5
1c90
8
Layer1
10
65.9500
20
29.7500
30
0.0
0
VERTEX
5
1c91
8
Layer1
10
66.7500
20
29.7500
30
0.0
0
VERTEX
5
1c92
8
Layer1
10
66.7500
20
28.7500
30
0.0
0
VERTEX
5
1c93
8
Layer1
10
80.7500
20
28.7500
30
0.0
0
VERTEX
5
1c94
8
Layer1
10
80.7500
20
29.7500
30
0.0
0
SEQEND
5
1c95
8
Layer1
0
POLYLINE
5
1c96
8
Layer1
66
1
10
0.0
20
0.0
30
0.0
70
1
0
VERTEX
5
1c97
8
Layer1
10
99.7500
20
29.7500
30
0.0
0
VERTEX
5
1c98
8
Layer1
10
100.5500
20
29.7500
30
0.0
0
VERTEX
5
1c99
8
Layer1
10
100.5500
20
33.2500
30
0.0
0
VERTEX
5
1c9a
8
Layer1
10
99.7500
20
33.2500
30
0.0
0
VERTEX
5
1c9b
8
Layer1
10
99.7500
20
38.2500
30
0.0
0
VERTEX
5
1c9c
8
Layer1
10
100.5500
20
38.2500
30
0.0
0
VERTEX
5
1c9d
8
Layer1
10
100.5500
20
41.7500
30
0.0
0
VERTEX
5
1c9e
8
Layer1
10
99.7500
20
41.7500
30
0.0
0
VERTEX
5
1c9f
8
Layer1
10
99.7500
20
42.7500
30
0.0
0
VERTEX
5
1ca0
8
Layer1
10
85.7500
20
42.7500
30
0.0
0
VERTEX
5
1ca1
8
Layer1
10
85.7500
20
41.7500
30
0.0
0
VERTEX
5
1ca2
8
Layer1
10
84.9500
20
41.7500
30
0.0
0
VERTEX
5
1ca3
8
Layer1
10
84.9500
20
38.2500
30
0.0
0
VERTEX
5
1ca4
8
Layer1
10
85.7500
20
38.2500
30
0.0
0
VERTEX
5
1ca5
8
Layer1
10
85.7500
20
33.2500
30
0.0
0
VERTEX
5
1ca6
8
Layer1
10
84.9500
20
33.2500
30
0.0
0
VERTEX
5
1ca7
8
Layer1
10
84.9500
20
29.7500
30
0.0
0
VERTEX
5
1ca8
8
Layer1
10
85.7500
20
29.7500
30
0.0
0
VERTEX
5
1ca9
8
Layer1
10
85.7500
20
28.7500
30
0.0
0
VERTEX
5
1caa
8
Layer1
10
99.7500
20
28.7500
30
0.0
0
VERTEX
5
1cab
8
Layer1
10
99.7500
20
29.7500
30
0.0
0
SEQEND
5
1cac
8
Layer1
0
POLYLINE
5
1cad
8
Layer1
66
1
10
0.0
20
0.0
30
0.0
70
1
0
VERTEX
5
1cae
8
Layer1
10
118.7500
20
29.7500
30
0.0
0
VERTEX
5
1caf
8
Layer1
10
119.5500
20
29.7500
30
0.0
0
VERTEX
5
1cb0
8
Layer1
10
119.5500
20
33.2500
30
0.0
0
VERTEX
5
1cb1
8
Layer1
10
118.7500
20
33.2500
30
0.0
0
VERTEX
5
1cb2
8
Layer1
10
118.7500
20
38.2500
30
0.0
0
VERTEX
5
1cb3
8
Layer1
10
119.5500
20
38.2500
30
0.0
0
VERTEX
5
1cb4
8
Layer1
10
119.5500
20
41.7500
30
0.0
0
VERTEX
5
1cb5
8
Layer1
10
118.7500
20
41.7500
30
0.0
0
VERTEX
5
1cb6
8
Layer1
10
118.7500
20
42.7500
30
0.0
0
VERTEX
5
1cb7
8
Layer1
10
104.7500
20
42.7500
30
0.0
0
VERTEX
5
1cb8
8
Layer1
10
104.7500
20
41.7500
30
0.0
0
VERTEX
5
1cb9
8
Layer1
10
103.9500
20
41.7500
30
0.0
0
VERTEX
5
1cba
8
Layer1
10
103.9500
20
38.2500
30
0.0
0
VERTEX
5
1cbb
8
Layer1
10
104.7500
20
38.2500
30
0.0
0
VERTEX
5
1cbc
8
Layer1
10
104.7500
20
33.2500
30
0.0
0
VERTEX
5
1cbd
8
Layer1
10
103.9500
20
33.2500
30
0.0
0
VERTEX
5
1cbe
8
Layer1
10
103.9500
20
29.7500
30
0.0
0
VERTEX
5
1cbf
8
Layer1
10
104.7500
20
29.7500
30
0.0
0
VERTEX
5
1cc0
8
Layer1
10
104.7500
20
28.7500
30
0.0
0
VERTEX
5
1cc1
8
Layer1
10
118.7500
20
28.7500
30
0.0
0
VERTEX
5
1cc2
8
Layer1
10
118.7500
20
29.7500
30
0.0
0
SEQEND
5
1cc3
8
Layer1
0
POLYLINE
5
1cc4
8
Layer1
66
1
10
0.0
20
0.0
30
0.0
70
1
0
VERTEX
5
1cc5
8
Layer1
10
137.7500
20
29.7500
30
0.0
0
VERTEX
5
1cc6
8
Layer1
10
138.5500
20
29.7500
30
0.0
0
VERTEX
5
1cc7
8
Layer1
10
138.5500
20
33.2500
30
0.0
0
VERTEX
5
1cc8
8
Layer1
10
137.7500
20
33.2500
30
0.0
0
VERTEX
5
1cc9
8
Layer1
10
137.7500
20
38.2500
30
0.0
0
VERTEX
5
1cca
8
Layer1
10
138.5500
20
38.2500
30
0.0
0
VERTEX
5
1ccb
8
Layer1
10
138.5500
20
41.7500
30
0.0
0
VERTEX
5
1ccc
8
Layer1
10
137.7500
20
41.7500
30
0.0
0
VERTEX
5
1ccd
8
Layer1
10
137.7500
20
42.7500
30
0.0
0
VERTEX
5
1cce
8
Layer1
10
123.7500
20
42.7500
30
0.0
0
VERTEX
5
1ccf
8
Layer1
10
123.7500
20
41.7500
30
0.0
0
VERTEX
5
1cd0
8
Layer1
10
122.9500
20
41.7500
30
0.0
0
VERTEX
5
1cd1
8
Layer1
10
122.9500
20
38.2500
30
0.0
0
VERTEX
5
1cd2
8
Layer1
10
123.7500
20
38.2500
30
0.0
0
VERTEX
5
1cd3
8
Layer1
10
123.7500
20
33.2500
30
0.0
0
VERTEX
5
1cd4
8
Layer1
10
122.9500
20
33.2500
30
0.0
0
VERTEX
5
1cd5
8
Layer1
10
122.9500
20
29.7500
30
0.0
0
VERTEX
5
1cd6
8
Layer1
10
123.7500
20
29.7500
30
0.0
0
VERTEX
5
1cd7
8
Layer1
10
123.7500
20
28.7500
30
0.0
0
VERTEX
5
1cd8
8
Layer1
10
137.7500
20
28.7500
30
0.0
0
VERTEX
5
1cd9
8
Layer1
10
137.7500
20
29.7500
30
0.0
0
SEQEND
5
1cda
8
Layer1
0
POLYLINE
5
1cdb
8
Layer1
66
1
10
0.0
20
0.0
30
0.0
70
1
0
VERTEX
5
1cdc
8
Layer1
10
156.7500
20
29.7500
30
0.0
0
VERTEX
5
1cdd
8
Layer1
10
157.5500
20
29.7500
30
0.0
0
VERTEX
5
1cde
8
Layer1
10
157.5500
20
33.2500
30
0.0
0
VERTEX
5
1cdf
8
Layer1
10
156.7500
20
33.2500
30
0.0
0
VERTEX
5
1ce0
8
Layer1
10
156.7500
20
38.2500
30
0.0
0
VERTEX
5
1ce1
8
Layer1
10
157.5500
20
38.2500
30
0.0
0
VERTEX
5
1ce2
8
Layer1
10
157.5500
20
41.7500
30
0.0
0
VERTEX
5
1ce3
8
Layer1
10
156.7500
20
41.7500
30
0.0
0
VERTEX
5
1ce4
8
Layer1
10
156.7500
20
42.7500
30
0.0
0
VERTEX
5
1ce5
8
Layer1
10
142.7500
20
42.7500
30
0.0
0
VERTEX
5
1ce6
8
Layer1
10
142.7500
20
41.7500
30
0.0
0
VERTEX
5
1ce7
8
Layer1
10
141.9500
20
41.7500
30
0.0
0
VERTEX
5
1ce8
8
Layer1
10
141.9500
20
38.2500
30
0.0
0
VERTEX
5
1ce9
8
Layer1
10
142.7500
20
38.2500
30
0.0
0
VERTEX
5
1cea
8
Layer1
10
142.7500
20
33.2500
30
0.0
0
VERTEX
5
1ceb
8
Layer1
10
141.9500
20
33.2500
30
0.0
0
VERTEX
5
1cec
8
Layer1
10
141.9500
20
29.7500
30
0.0
0
VERTEX
5
1ced
8
Layer1
10
142.7500
20
29.7500
30
0.0
0
VERTEX
5
1cee
8
Layer1
10
142.7500
20
28.7500
30
0.0
0
VERTEX
5
1cef
8
Layer1
10
156.7500
20
28.7500
30
0.0
0
VERTEX
5
1cf0
8
Layer1
10
156.7500
20
29.7500
30
0.0
0
SEQEND
5
1cf1
8
Layer1
0
POLYLINE
5
1cf2
8
Layer1
66
1
10
0.0
20
0.0
30
0.0
70
1
0
VERTEX
5
1cf3
8
Layer1
10
175.7500
20
29.7500
30
0.0
0
VERTEX
5
1cf4
8
Layer1
10
176.5500
20
29.7500
30
0.0
0
VERTEX
5
1cf5
8
Layer1
10
176.5500
20
33.2500
30
0.0
0
VERTEX
5
1cf6
8
Layer1
10
175.7500
20
33.2500
30
0.0
0
VERTEX
5
1cf7
8
Layer1
10
175.7500
20
38.2500
30
0.0
0
VERTEX
5
1cf8
8
Layer1
10
176.5500
20
38.2500
30
0.0
0
VERTEX
5
1cf9
8
Layer1
10
176.5500
20
41.7500
30
0.0
0
VERTEX
5
1cfa
8
Layer1
10
175.7500
20
41.7500
30
0.0
0
VERTEX
5
1cfb
8
Layer1
10
175.7500
20
42.7500
30
0.0
0
VERTEX
5
1cfc
8
Layer1
10
161.7500
20
42.7500
30
0.0
0
VERTEX
5
1cfd
8
Layer1
10
161.7500
20
41.7500
30
0.0
0
VERTEX
5
1cfe
8
Layer1
10
160.9500
20
41.7500
30
0.0
0
VERTEX
5
1cff
8
Layer1
10
160.9500
20
38.2500
30
0.0
0
VERTEX
5
1d00
8
Layer1
10
161.7500
20
38.2500
30
0.0
0
VERTEX
5
1d01
8
Layer1
10
161.7500
20
33.2500
30
0.0
0
VERTEX
5
1d02
8
Layer1
10
160.9500
20
33.2500
30
0.0
0
VERTEX
5
1d03
8
Layer1
10
160.9500
20
29.7500
30
0.0
0
VERTEX
5
1d04
8
Layer1
10
161.7500
20
29.7500
30
0.0
0
VERTEX
5
1d05
8
Layer1
10
161.7500
20
28.7500
30
0.0
0
VERTEX
5
1d06
8
Layer1
10
175.7500
20
28.7500
30
0.0
0
VERTEX
5
1d07
8
Layer1
10
175.7500
20
29.7500
30
0.0
0
SEQEND
5
1d08
8
Layer1
0
POLYLINE
5
1d09
8
Layer1
66
1
10
0.0
20
0.0
30
0.0
70
1
0
VERTEX
5
1d0a
8
Layer1
10
194.7500
20
29.7500
30
0.0
0
VERTEX
5
1d0b
8
Layer1
10
195.5500
20
29.7500
30
0.0
0
VERTEX
5
1d0c
8
Layer1
10
195.5500
20
33.2500
30
0.0
0
VERTEX
5
1d0d
8
Layer1
10
194.7500
20
33.2500
30
0.0
0
VERTEX
5
1d0e
8
Layer1
10
194.7500
20
38.2500
30
0.0
0
VERTEX
5
1d0f
8
Layer1
10
195.5500
20
38.2500
30
0.0
0
VERTEX
5
1d10
8
Layer1
10
195.5500
20
41.7500
30
0.0
0
VERTEX
5
1d11
8
Layer1
10
194.7500
20
41.7500
30
0.0
0
VERTEX
5
1d12
8
Layer1
10
194.7500
20
42.7500
30
0.0
0
VERTEX
5
1d13
8
Layer1
10
180.7500
20
42.7500
30
0.0
0
VERTEX
5
1d14
8
Layer1
10
180.7500
20
41.7500
30
0.0
0
VERTEX
5
1d15
8
Layer1
10
179.9500
20
41.7500
30
0.0
0
VERTEX
5
1d16
8
Layer1
10
179.9500
20
38.2500
30
0.0
0
VERTEX
5
1d17
8
Layer1
10
180.7500
20
38.2500
30
0.0
0
VERTEX
5
1d18
8
Layer1
10
180.7500
20
33.2500
30
0.0
0
VERTEX
5
1d19
8
Layer1
10
179.9500
20
33.2500
30
0.0
0
VERTEX
5
1d1a
8
Layer1
10
179.9500
20
29.7500
30
0.0
0
VERTEX
5
1d1b
8
Layer1
10
180.7500
20
29.7500
30
0.0
0
VERTEX
5
1d1c
8
Layer1
10
180.7500
20
28.7500
30
0.0
0
VERTEX
5
1d1d
8
Layer1
10
194.7500
20
28.7500
30
0.0
0
VERTEX
5
1d1e
8
Layer1
10
194.7500
20
29.7500
30
0.0
0
SEQEND
5
1d1f
8
Layer1
0
POLYLINE
5
1d20
8
Layer1
66
1
10
0.0
20
0.0
30
0.0
70
1
0
VERTEX
5
1d21
8
Layer1
10
213.7500
20
29.7500
30
0.0
0
VERTEX
5
1d22
8
Layer1
10
214.5500
20
29.7500
30
0.0
0
VERTEX
5
1d23
8
Layer1
10
214.5500
20
33.2500
30
0.0
0
VERTEX
5
1d24
8
Layer1
10
213.7500
20
33.2500
30
0.0
0
VERTEX
5
1d25
8
Layer1
10
213.7500
20
38.2500
30
0.0
0
VERTEX
5
1d26
8
Layer1
10
214.5500
20
38.2500
30
0.0
0
VERTEX
5
1d27
8
Layer1
10
214.5500
20
41.7500
30
0.0
0
VERTEX
5
1d28
8
Layer1
10
213.7500
20
41.7500
30
0.0
0
VERTEX
5
1d29
8
Layer1
10
213.7500
20
42.7500
30
0.0
0
VERTEX
5
1d2a
8
Layer1
10
199.7500
20
42.7500
30
0.0
0
VERTEX
5
1d2b
8
Layer1
10
199.7500
20
41.7500
30
0.0
0
VERTEX
5
1d2c
8
Layer1
10
198.9500
20
41.7500
30
0.0
0
VERTEX
5
1d2d
8
Layer1
10
198.9500
20
38.2500
30
0.0
0
VERTEX
5
1d2e
8
Layer1
10
199.7500
20
38.2500
30
0.0
0
VERTEX
5
1d2f
8
Layer1
10
199.7500
20
33.2500
30
0.0
0
VERTEX
5
1d30
8
Layer1
10
198.9500
20
33.2500
30
0.0
0
VERTEX
5
1d31
8
Layer1
10
198.9500
20
29.7500
30
0.0
0
VERTEX
5
1d32
8
Layer1
10
199.7500
20
29.7500
30
0.0
0
VERTEX
5
1d33
8
Layer1
10
199.7500
20
28.7500
30
0.0
0
VERTEX
5
1d34
8
Layer1
10
213.7500
20
28.7500
30
0.0
0
VERTEX
5
1d35
8
Layer1
10
213.7500
20
29.7500
30
0.0
0
SEQEND
5
1d36
8
Layer1
0
POLYLINE
5
1d37
8
Layer1
66
1
10
0.0
20
0.0
30
0.0
70
1
0
VERTEX
5
1d38
8
Layer1
10
232.7500
20
29.7500
30
0.0
0
VERTEX
5
1d39
8
Layer1
10
233.5500
20
29.7500
30
0.0
0
VERTEX
5
1d3a
8
Layer1
10
233.5500
20
33.2500
30
0.0
0
VERTEX
5
1d3b
8
Layer1
10
232.7500
20
33.2500
30
0.0
0
VERTEX
5
1d3c
8
Layer1
10
232.7500
20
38.2500
30
0.0
0
VERTEX
5
1d3d
8
Layer1
10
233.5500
20
38.2500
30
0.0
0
VERTEX
5
1d3e
8
Layer1
10
233.5500
20
41.7500
30
0.0
0
VERTEX
5
1d3f
8
Layer1
10
232.7500
20
41.7500
30
0.0
0
VERTEX
5
1d40
8
Layer1
10
232.7500
20
42.7500
30
0.0
0
VERTEX
5
1d41
8
Layer1
10
218.7500
20
42.7500
30
0.0
0
VERTEX
5
1d42
8
Layer1
10
218.7500
20
41.7500
30
0.0
0
VERTEX
5
1d43
8
Layer1
10
217.9500
20
41.7500
30
0.0
0
VERTEX
5
1d44
8
Layer1
10
217.9500
20
38.2500
30
0.0
0
VERTEX
5
1d45
8
Layer1
10
218.7500
20
38.2500
30
0.0
0
VERTEX
5
1d46
8
Layer1
10
218.7500
20
33.2500
30
0.0
0
VERTEX
5
1d47
8
Layer1
10
217.9500
20
33.2500
30
0.0
0
VERTEX
5
1d48
8
Layer1
10
217.9500
20
29.7500
30
0.0
0
VERTEX
5
1d49
8
Layer1
10
218.7500
20
29.7500
30
0.0
0
VERTEX
5
1d4a
8
Layer1
10
218.7500
20
28.7500
30
0.0
0
VERTEX
5
1d4b
8
Layer1
10
232.7500
20
28.7500
30
0.0
0
VERTEX
5
1d4c
8
Layer1
10
232.7500
20
29.7500
30
0.0
0
SEQEND
5
1d4d
8
Layer1
0
POLYLINE
5
1d4e
8
Layer1
66
1
10
0.0
20
0.0
30
0.0
70
1
0
VERTEX
5
1d4f
8
Layer1
10
258.8750
20
29.7500
30
0.0
0
VERTEX
5
1d50
8
Layer1
10
259.6750
20
29.7500
30
0.0
0
VERTEX
5
1d51
8
Layer1
10
259.6750
20
33.2500
30
0.0
0
VERTEX
5
1d52
8
Layer1
10
258.8750
20
33.2500
30
0.0
0
VERTEX
5
1d53
8
Layer1
10
258.8750
20
38.2500
30
0.0
0
VERTEX
5
1d54
8
Layer1
10
259.6750
20
38.2500
30
0.0
0
VERTEX
5
1d55
8
Layer1
10
259.6750
20
41.7500
30
0.0
0
VERTEX
5
1d56
8
Layer1
10
258.8750
20
41.7500
30
0.0
0
VERTEX
5
1d57
8
Layer1
10
258.8750
20
42.7500
30
0.0
0
VERTEX
5
1d58
8
Layer1
10
244.8750
20
42.7500
30
0.0
0
VERTEX
5
1d59
8
Layer1
10
244.8750
20
41.7500
30
0.0
0
VERTEX
5
1d5a
8
Layer1
10
244.0750
20
41.7500
30
0.0
0
VERTEX
5
1d5b
8
Layer1
10
244.0750
20
38.2500
30
0.0
0
VERTEX
5
1d5c
8
Layer1
10
244.8750
20
38.2500
30
0.0
0
VERTEX
5
1d5d
8
Layer1
10
244.8750
20
33.2500
30
0.0
0
VERTEX
5
1d5e
8
Layer1
10
244.0750
20
33.2500
30
0.0
0
VERTEX
5
1d5f
8
Layer1
10
244.0750
20
29.7500
30
0.0
0
VERTEX
5
1d60
8
Layer1
10
244.8750
20
29.7500
30
0.0
0
VERTEX
5
1d61
8
Layer1
10
244.8750
20
28.7500
30
0.0
0
VERTEX
5
1d62
8
Layer1
10
258.8750
20
28.7500
30
0.0
0
VERTEX
5
1d63
8
Layer1
10
258.8750
20
29.7500
30
0.0
0
SEQEND
5
1d64
8
Layer1
0
POLYLINE
5
1d65
8
Layer1
66
1
10
0.0
20
0.0
30
0.0
70
1
0
VERTEX
5
1d66
8
Layer1
10
289.7500
20
25.0000
30
0.0
0
VERTEX
5
1d67
8
Layer1
10
290.5500
20
25.0000
30
0.0
0
VERTEX
5
1d68
8
Layer1
10
290.5500
20
28.5000
30
0.0
0
VERTEX
5
1d69
8
Layer1
10
289.7500
20
28.5000
30
0.0
0
VERTEX
5
1d6a
8
Layer1
10
289.7500
20
33.5000
30
0.0
0
VERTEX
5
1d6b
8
Layer1
10
290.5500
20
33.5000
30
0.0
0
VERTEX
5
1d6c
8
Layer1
10
290.5500
20
37.0000
30
0.0
0
VERTEX
5
1d6d
8
Layer1
10
289.7500
20
37.0000
30
0.0
0
VERTEX
5
1d6e
8
Layer1
10
289.7500
20
38.0000
30
0.0
0
VERTEX
5
1d6f
8
Layer1
10
275.7500
20
38.0000
30
0.0
0
VERTEX
5
1d70
8
Layer1
10
275.7500
20
37.0000
30
0.0
0
VERTEX
5
1d71
8
Layer1
10
274.9500
20
37.0000
30
0.0
0
VERTEX
5
1d72
8
Layer1
10
274.9500
20
33.5000
30
0.0
0
VERTEX
5
1d73
8
Layer1
10
275.7500
20
33.5000
30
0.0
0
VERTEX
5
1d74
8
Layer1
10
275.7500
20
28.5000
30
0.0
0
VERTEX
5
1d75
8
Layer1
10
274.9500
20
28.5000
30
0.0
0
VERTEX
5
1d76
8
Layer1
10
274.9500
20
25.0000
30
0.0
0
VERTEX
5
1d77
8
Layer1
10
275.7500
20
25.0000
30
0.0
0
VERTEX
5
1d78
8
Layer1
10
275.7500
20
24.0000
30
0.0
0
VERTEX
5
1d79
8
Layer1
10
289.7500
20
24.0000
30
0.0
0
VERTEX
5
1d7a
8
Layer1
10
289.7500
20
25.0000
30
0.0
0
SEQEND
5
1d7b
8
Layer1
0
POLYLINE
5
1d7c
8
Layer1
66
1
10
0.0
20
0.0
30
0.0
70
1
0
VERTEX
5
1d7d
8
Layer1
10
19.0000
20
10.7500
30
0.0
0
VERTEX
5
1d7e
8
Layer1
10
19.8000
20
10.7500
30
0.0
0
VERTEX
5
1d7f
8
Layer1
10
19.8000
20
14.2500
30
0.0
0
VERTEX
5
1d80
8
Layer1
10
19.0000
20
14.2500
30
0.0
0
VERTEX
5
1d81
8
Layer1
10
19.0000
20
19.2500
30
0.0
0
VERTEX
5
1d82
8
Layer1
10
19.8000
20
19.2500
30
0.0
0
VERTEX
5
1d83
8
Layer1
10
19.8000
20
22.7500
30
0.0
0
VERTEX
5
1d84
8
Layer1
10
19.0000
20
22.7500
30
0.0
0
VERTEX
5
1d85
8
Layer1
10
19.0000
20
23.7500
30
0.0
0
VERTEX
5
1d86
8
Layer1
10
5.0000
20
23.7500
30
0.0
0
VERTEX
5
1d87
8
Layer1
10
5.0000
20
22.7500
30
0.0
0
VERTEX
5
1d88
8
Layer1
10
4.2000
20
22.7500
30
0.0
0
VERTEX
5
1d89
8
Layer1
10
4.2000
20
19.2500
30
0.0
0
VERTEX
5
1d8a
8
Layer1
10
5.0000
20
19.2500
30
0.0
0
VERTEX
5
1d8b
8
Layer1
10
5.0000
20
14.2500
30
0.0
0
VERTEX
5
1d8c
8
Layer1
10
4.2000
20
14.2500
30
0.0
0
VERTEX
5
1d8d
8
Layer1
10
4.2000
20
10.7500
30
0.0
0
VERTEX
5
1d8e
8
Layer1
10
5.0000
20
10.7500
30
0.0
0
VERTEX
5
1d8f
8
Layer1
10
5.0000
20
9.7500
30
0.0
0
VERTEX
5
1d90
8
Layer1
10
19.0000
20
9.7500
30
0.0
0
VERTEX
5
1d91
8
Layer1
10
19.0000
20
10.7500
30
0.0
0
SEQEND
5
1d92
8
Layer1
0
POLYLINE
5
1d93
8
Layer1
66
1
10
0.0
20
0.0
30
0.0
70
1
0
VERTEX
5
1d94
8
Layer1
10
38.0000
20
10.7500
30
0.0
0
VERTEX
5
1d95
8
Layer1
10
38.8000
20
10.7500
30
0.0
0
VERTEX
5
1d96
8
Layer1
10
38.8000
20
14.2500
30
0.0
0
VERTEX
5
1d97
8
Layer1
10
38.0000
20
14.2500
30
0.0
0
VERTEX
5
1d98
8
Layer1
10
38.0000
20
19.2500
30
0.0
0
VERTEX
5
1d99
8
Layer1
10
38.8000
20
19.2500
30
0.0
0
VERTEX
5
1d9a
8
Layer1
10
38.8000
20
22.7500
30
0.0
0
VERTEX
5
1d9b
8
Layer1
10
38.0000
20
22.7500
30
0.0
0
VERTEX
5
1d9c
8
Layer1
10
38.0000
20
23.7500
30
0.0
0
VERTEX
5
1d9d
8
Layer1
10
24.0000
20
23.7500
30
0.0
0
VERTEX
5
1d9e
8
Layer1
10
24.0000
20
22.7500
30
0.0
0
VERTEX
5
1d9f
8
Layer1
10
23.2000
20
22.7500
30
0.0
0
VERTEX
5
1da0
8
Layer1
10
23.2000
20
19.2500
30
0.0
0
VERTEX
5
1da1
8
Layer1
10
24.0000
20
19.2500
30
0.0
0
VERTEX
5
1da2
8
Layer1
10
24.0000
20
14.2500
30
0.0
0
VERTEX
5
1da3
8
Layer1
10
23.2000
20
14.2500
30
0.0
0
VERTEX
5
1da4
8
Layer1
10
23.2000
20
10.7500
30
0.0
0
VERTEX
5
1da5
8
Layer1
10
24.0000
20
10.7500
30
0.0
0
VERTEX
5
1da6
8
Layer1
10
24.0000
20
9.7500
30
0.0
0
VERTEX
5
1da7
8
Layer1
10
38.0000
20
9.7500
30
0.0
0
VERTEX
5
1da8
8
Layer1
10
38.0000
20
10.7500
30
0.0
0
SEQEND
5
1da9
8
Layer1
0
POLYLINE
5
1daa
8
Layer1
66
1
10
0.0
20
0.0
30
0.0
70
1
0
VERTEX
5
1dab
8
Layer1
10
57.0000
20
10.7500
30
0.0
0
VERTEX
5
1dac
8
Layer1
10
57.8000
20
10.7500
30
0.0
0
VERTEX
5
1dad
8
Layer1
10
57.8000
20
14.2500
30
0.0
0
VERTEX
5
1dae
8
Layer1
10
57.0000
20
14.2500
30
0.0
0
VERTEX
5
1daf
8
Layer1
10
57.0000
20
19.2500
30
0.0
0
VERTEX
5
1db0
8
Layer1
10
57.8000
20
19.2500
30
0.0
0
VERTEX
5
1db1
8
Layer1
10
57.8000
20
22.7500
30
0.0
0
VERTEX
5
1db2
8
Layer1
10
57.0000
20
22.7500
30
0.0
0
VERTEX
5
1db3
8
Layer1
10
57.0000
20
23.7500
30
0.0
0
VERTEX
5
1db4
8
Layer1
10
43.0000
20
23.7500
30
0.0
0
VERTEX
5
1db5
8
Layer1
10
43.0000
20
22.7500
30
0.0
0
VERTEX
5
1db6
8
Layer1
10
42.2000
20
22.7500
30
0.0
0
VERTEX
5
1db7
8
Layer1
10
42.2000
20
19.2500
30
0.0
0
VERTEX
5
1db8
8
Layer1
10
43.0000
20
19.2500
30
0.0
0
VERTEX
5
1db9
8
Layer1
10
43.0000
20
14.2500
30
0.0
0
VERTEX
5
1dba
8
Layer1
10
42.2000
20
14.2500
30
0.0
0
VERTEX
5
1dbb
8
Layer1
10
42.2000
20
10.7500
30
0.0
0
VERTEX
5
1dbc
8
Layer1
10
43.0000
20
10.7500
30
0.0
0
VERTEX
5
1dbd
8
Layer1
10
43.0000
20
9.7500
30
0.0
0
VERTEX
5
1dbe
8
Layer1
10
57.0000
20
9.7500
30
0.0
0
VERTEX
5
1dbf
8
Layer1
10
57.0000
20
10.7500
30
0.0
0
SEQEND
5
1dc0
8
Layer1
0
POLYLINE
5
1dc1
8
Layer1
66
1
10
0.0
20
0.0
30
0.0
70
1
0
VERTEX
5
1dc2
8
Layer1
10
78.3750
20
10.7500
30
0.0
0
VERTEX
5
1dc3
8
Layer1
10
79.1750
20
10.7500
30
0.0
0
VERTEX
5
1dc4
8
Layer1
10
79.1750
20
14.2500
30
0.0
0
VERTEX
5
1dc5
8
Layer1
10
78.3750
20
14.2500
30
0.0
0
VERTEX
5
1dc6
8
Layer1
10
78.3750
20
19.2500
30
0.0
0
VERTEX
5
1dc7
8
Layer1
10
79.1750
20
19.2500
30
0.0
0
VERTEX
5
1dc8
8
Layer1
10
79.1750
20
22.7500
30
0.0
0
VERTEX
5
1dc9
8
Layer1
10
78.3750
20
22.7500
30
0.0
0
VERTEX
5
1dca
8
Layer1
10
78.3750
20
23.7500
30
0.0
0
VERTEX
5
1dcb
8
Layer1
10
64.3750
20
23.7500
30
0.0
0
VERTEX
5
1dcc
8
Layer1
10
64.3750
20
22.7500
30
0.0
0
VERTEX
5
1dcd
8
Layer1
10
63.5750
20
22.7500
30
0.0
0
VERTEX
5
1dce
8
Layer1
10
63.5750
20
19.2500
30
0.0
0
VERTEX
5
1dcf
8
Layer1
10
64.3750
20
19.2500
30
0.0
0
VERTEX
5
1dd0
8
Layer1
10
64.3750
20
14.2500
30
0.0
0
VERTEX
5
1dd1
8
Layer1
10
63.5750
20
14.2500
30
0.0
0
VERTEX
5
1dd2
8
Layer1
10
63.5750
20
10.7500
30
0.0
0
VERTEX
5
1dd3
8
Layer1
10
64.3750
20
10.7500
30
0.0
0
VERTEX
5
1dd4
8
Layer1
10
64.3750
20
9.7500
30
0.0
0
VERTEX
5
1dd5
8
Layer1
10
78.3750
20
9.7500
30
0.0
0
VERTEX
5
1dd6
8
Layer1
10
78.3750
20
10.7500
30
0.0
0
SEQEND
5
1dd7
8
Layer1
0
POLYLINE
5
1dd8
8
Layer1
66
1
10
0.0
20
0.0
30
0.0
70
1
0
VERTEX
5
1dd9
8
Layer1
10
94.1250
20
9.9800
30
0.0
0
VERTEX
5
1dda
8
Layer1
10
95.9500
20
9.9800
30
0.0
0
VERTEX
5
1ddb
8
Layer1
10
95.9500
20
14.4500
30
0.0
0
VERTEX
5
1ddc
8
Layer1
10
135.6250
20
14.4500
30
0.0
0
VERTEX
5
1ddd
8
Layer1
10
135.6250
20
14.2500
30
0.0
0
VERTEX
5
1dde
8
Layer1
10
134.8250
20
14.2500
30
0.0
0
VERTEX
5
1ddf
8
Layer1
10
134.8250
20
10.7500
30
0.0
0
VERTEX
5
1de0
8
Layer1
10
135.6250
20
10.7500
30
0.0
0
VERTEX
5
1de1
8
Layer1
10
135.6250
20
9.7500
30
0.0
0
VERTEX
5
1de2
8
Layer1
10
149.6250
20
9.7500
30
0.0
0
VERTEX
5
1de3
8
Layer1
10
149.6250
20
10.7500
30
0.0
0
VERTEX
5
1de4
8
Layer1
10
150.4250
20
10.7500
30
0.0
0
VERTEX
5
1de5
8
Layer1
10
150.4250
20
14.2500
30
0.0
0
VERTEX
5
1de6
8
Layer1
10
149.6250
20
14.2500
30
0.0
0
VERTEX
5
1de7
8
Layer1
10
149.6250
20
14.4500
30
0.0
0
VERTEX
5
1de8
8
Layer1
10
189.3000
20
14.4500
30
0.0
0
VERTEX
5
1de9
8
Layer1
10
189.3000
20
9.9800
30
0.0
0
VERTEX
5
1dea
8
Layer1
10
191.1250
20
9.9800
30
0.0
0
VERTEX
5
1deb
8
Layer1
10
191.1250
20
8.7800
30
0.0
0
VERTEX
5
1dec
8
Layer1
10
194.1250
20
8.7800
30
0.0
0
VERTEX
5
1ded
8
Layer1
10
194.1250
20
9.9800
30
0.0
0
VERTEX
5
1dee
8
Layer1
10
195.9500
20
9.9800
30
0.0
0
VERTEX
5
1def
8
Layer1
10
195.9500
20
16.2500
30
0.0
0
VERTEX
5
1df0
8
Layer1
10
196.8500
20
16.2500
30
0.0
0
VERTEX
5
1df1
8
Layer1
10
196.8500
20
19.0500
30
0.0
0
VERTEX
5
1df2
8
Layer1
10
195.9500
20
19.0500
30
0.0
0
VERTEX
5
1df3
8
Layer1
10
195.9500
20
22.2800
30
0.0
0
VERTEX
5
1df4
8
Layer1
10
189.3000
20
22.2800
30
0.0
0
VERTEX
5
1df5
8
Layer1
10
189.3000
20
19.0500
30
0.0
0
VERTEX
5
1df6
8
Layer1
10
149.6250
20
19.0500
30
0.0
0
VERTEX
5
1df7
8
Layer1
10
149.6250
20
19.2500
30
0.0
0
VERTEX
5
1df8
8
Layer1
10
150.4250
20
19.2500
30
0.0
0
VERTEX
5
1df9
8
Layer1
10
150.4250
20
22.7500
30
0.0
0
VERTEX
5
1dfa
8
Layer1
10
149.6250
20
22.7500
30
0.0
0
VERTEX
5
1dfb
8
Layer1
10
149.6250
20
23.7500
30
0.0
0
VERTEX
5
1dfc
8
Layer1
10
135.6250
20
23.7500
30
0.0
0
VERTEX
5
1dfd
8
Layer1
10
135.6250
20
22.7500
30
0.0
0
VERTEX
5
1dfe
8
Layer1
10
134.8250
20
22.7500
30
0.0
0
VERTEX
5
1dff
8
Layer1
10
134.8250
20
19.2500
30
0.0
0
VERTEX
5
1e00
8
Layer1
10
135.6250
20
19.2500
30
0.0
0
VERTEX
5
1e01
8
Layer1
10
135.6250
20
19.0500
30
0.0
0
VERTEX
5
1e02
8
Layer1
10
95.9500
20
19.0500
30
0.0
0
VERTEX
5
1e03
8
Layer1
10
95.9500
20
22.2800
30
0.0
0
VERTEX
5
1e04
8
Layer1
10
89.3000
20
22.2800
30
0.0
0
VERTEX
5
1e05
8
Layer1
10
89.3000
20
19.0500
30
0.0
0
VERTEX
5
1e06
8
Layer1
10
88.4000
20
19.0500
30
0.0
0
VERTEX
5
1e07
8
Layer1
10
88.4000
20
16.2500
30
0.0
0
VERTEX
5
1e08
8
Layer1
10
89.3000
20
16.2500
30
0.0
0
VERTEX
5
1e09
8
Layer1
10
89.3000
20
9.9800
30
0.0
0
VERTEX
5
1e0a
8
Layer1
10
91.1250
20
9.9800
30
0.0
0
VERTEX
5
1e0b
8
Layer1
10
91.1250
20
8.7800
30
0.0
0
VERTEX
5
1e0c
8
Layer1
10
94.1250
20
8.7800
30
0.0
0
VERTEX
5
1e0d
8
Layer1
10
94.1250
20
9.9800
30
0.0
0
SEQEND
5
1e0e
8
Layer1
0
POLYLINE
5
1e0f
8
Layer1
66
1
10
0.0
20
0.0
30
0.0
70
1
0
VERTEX
5
1e10
8
Layer1
10
220.8750
20
10.7500
30
0.0
0
VERTEX
5
1e11
8
Layer1
10
221.6750
20
10.7500
30
0.0
0
VERTEX
5
1e12
8
Layer1
10
221.6750
20
14.2500
30
0.0
0
VERTEX
5
1e13
8
Layer1
10
220.8750
20
14.2500
30
0.0
0
VERTEX
5
1e14
8
Layer1
10
220.8750
20
19.2500
30
0.0
0
VERTEX
5
1e15
8
Layer1
10
221.6750
20
19.2500
30
0.0
0
VERTEX
5
1e16
8
Layer1
10
221.6750
20
22.7500
30
0.0
0
VERTEX
5
1e17
8
Layer1
10
220.8750
20
22.7500
30
0.0
0
VERTEX
5
1e18
8
Layer1
10
220.8750
20
23.7500
30
0.0
0
VERTEX
5
1e19
8
Layer1
10
206.8750
20
23.7500
30
0.0
0
VERTEX
5
1e1a
8
Layer1
10
206.8750
20
22.7500
30
0.0
0
VERTEX
5
1e1b
8
Layer1
10
206.0750
20
22.7500
30
0.0
0
VERTEX
5
1e1c
8
Layer1
10
206.0750
20
19.2500
30
0.0
0
VERTEX
5
1e1d
8
Layer1
10
206.8750
20
19.2500
30
0.0
0
VERTEX
5
1e1e
8
Layer1
10
206.8750
20
14.2500
30
0.0
0
VERTEX
5
1e1f
8
Layer1
10
206.0750
20
14.2500
30
0.0
0
VERTEX
5
1e20
8
Layer1
10
206.0750
20
10.7500
30
0.0
0
VERTEX
5
1e21
8
Layer1
10
206.8750
20
10.7500
30
0.0
0
VERTEX
5
1e22
8
Layer1
10
206.8750
20
9.7500
30
0.0
0
VERTEX
5
1e23
8
Layer1
10
220.8750
20
9.7500
30
0.0
0
VERTEX
5
1e24
8
Layer1
10
220.8750
20
10.7500
30
0.0
0
SEQEND
5
1e25
8
Layer1
0
POLYLINE
5
1e26
8
Layer1
66
1
10
0.0
20
0.0
30
0.0
70
1
0
VERTEX
5
1e27
8
Layer1
10
244.6250
20
10.7500
30
0.0
0
VERTEX
5
1e28
8
Layer1
10
245.4250
20
10.7500
30
0.0
0
VERTEX
5
1e29
8
Layer1
10
245.4250
20
14.2500
30
0.0
0
VERTEX
5
1e2a
8
Layer1
10
244.6250
20
14.2500
30
0.0
0
VERTEX
5
1e2b
8
Layer1
10
244.6250
20
19.2500
30
0.0
0
VERTEX
5
1e2c
8
Layer1
10
245.4250
20
19.2500
30
0.0
0
VERTEX
5
1e2d
8
Layer1
10
245.4250
20
22.7500
30
0.0
0
VERTEX
5
1e2e
8
Layer1
10
244.6250
20
22.7500
30
0.0
0
VERTEX
5
1e2f
8
Layer1
10
244.6250
20
23.7500
30
0.0
0
VERTEX
5
1e30
8
Layer1
10
230.6250
20
23.7500
30
0.0
0
VERTEX
5
1e31
8
Layer1
10
230.6250
20
22.7500
30
0.0
0
VERTEX
5
1e32
8
Layer1
10
229.8250
20
22.7500
30
0.0
0
VERTEX
5
1e33
8
Layer1
10
229.8250
20
19.2500
30
0.0
0
VERTEX
5
1e34
8
Layer1
10
230.6250
20
19.2500
30
0.0
0
VERTEX
5
1e35
8
Layer1
10
230.6250
20
14.2500
30
0.0
0
VERTEX
5
1e36
8
Layer1
10
229.8250
20
14.2500
30
0.0
0
VERTEX
5
1e37
8
Layer1
10
229.8250
20
10.7500
30
0.0
0
VERTEX
5
1e38
8
Layer1
10
230.6250
20
10.7500
30
0.0
0
VERTEX
5
1e39
8
Layer1
10
230.6250
20
9.7500
30
0.0
0
VERTEX
5
1e3a
8
Layer1
10
244.6250
20
9.7500
30
0.0
0
VERTEX
5
1e3b
8
Layer1
10
244.6250
20
10.7500
30
0.0
0
SEQEND
5
1e3c
8
Layer1
0
POLYLINE
5
1e3d
8
Layer1
66
1
10
0.0
20
0.0
30
0.0
70
1
0
VERTEX
5
1e3e
8
Layer1
10
270.7500
20
6.0000
30
0.0
0
VERTEX
5
1e3f
8
Layer1
10
271.5500
20
6.0000
30
0.0
0
VERTEX
5
1e40
8
Layer1
10
271.5500
20
9.5000
30
0.0
0
VERTEX
5
1e41
8
Layer1
10
270.7500
20
9.5000
30
0.0
0
VERTEX
5
1e42
8
Layer1
10
270.7500
20
14.5000
30
0.0
0
VERTEX
5
1e43
8
Layer1
10
271.5500
20
14.5000
30
0.0
0
VERTEX
5
1e44
8
Layer1
10
271.5500
20
18.0000
30
0.0
0
VERTEX
5
1e45
8
Layer1
10
270.7500
20
18.0000
30
0.0
0
VERTEX
5
1e46
8
Layer1
10
270.7500
20
19.0000
30
0.0
0
VERTEX
5
1e47
8
Layer1
10
256.7500
20
19.0000
30
0.0
0
VERTEX
5
1e48
8
Layer1
10
256.7500
20
18.0000
30
0.0
0
VERTEX
5
1e49
8
Layer1
10
255.9500
20
18.0000
30
0.0
0
VERTEX
5
1e4a
8
Layer1
10
255.9500
20
14.5000
30
0.0
0
VERTEX
5
1e4b
8
Layer1
10
256.7500
20
14.5000
30
0.0
0
VERTEX
5
1e4c
8
Layer1
10
256.7500
20
9.5000
30
0.0
0
VERTEX
5
1e4d
8
Layer1
10
255.9500
20
9.5000
30
0.0
0
VERTEX
5
1e4e
8
Layer1
10
255.9500
20
6.0000
30
0.0
0
VERTEX
5
1e4f
8
Layer1
10
256.7500
20
6.0000
30
0.0
0
VERTEX
5
1e50
8
Layer1
10
256.7500
20
5.0000
30
0.0
0
VERTEX
5
1e51
8
Layer1
10
270.7500
20
5.0000
30
0.0
0
VERTEX
5
1e52
8
Layer1
10
270.7500
20
6.0000
30
0.0
0
SEQEND
5
1e53
8
Layer1
0
POLYLINE
5
1e54
8
Layer1
66
1
10
0.0
20
0.0
30
0.0
70
1
0
VERTEX
5
1e55
8
Layer1
10
289.7500
20
6.0000
30
0.0
0
VERTEX
5
1e56
8
Layer1
10
290.5500
20
6.0000
30
0.0
0
VERTEX
5
1e57
8
Layer1
10
290.5500
20
9.5000
30
0.0
0
VERTEX
5
1e58
8
Layer1
10
289.7500
20
9.5000
30
0.0
0
VERTEX
5
1e59
8
Layer1
10
289.7500
20
14.5000
30
0.0
0
VERTEX
5
1e5a
8
Layer1
10
290.5500
20
14.5000
30
0.0
0
VERTEX
5
1e5b
8
Layer1
10
290.5500
20
18.0000
30
0.0
0
VERTEX
5
1e5c
8
Layer1
10
289.7500
20
18.0000
30
0.0
0
VERTEX
5
1e5d
8
Layer1
10
289.7500
20
19.0000
30
0.0
0
VERTEX
5
1e5e
8
Layer1
10
275.7500
20
19.0000
30
0.0
0
VERTEX
5
1e5f
8
Layer1
10
275.7500
20
18.0000
30
0.0
0
VERTEX
5
1e60
8
Layer1
10
274.9500
20
18.0000
30
0.0
0
VERTEX
5
1e61
8
Layer1
10
274.9500
20
14.5000
30
0.0
0
VERTEX
5
1e62
8
Layer1
10
275.7500
20
14.5000
30
0.0
0
VERTEX
5
1e63
8
Layer1
10
275.7500
20
9.5000
30
0.0
0
VERTEX
5
1e64
8
Layer1
10
274.9500
20
9.5000
30
0.0
0
VERTEX
5
1e65
8
Layer1
10
274.9500
20
6.0000
30
0.0
0
VERTEX
5
1e66
8
Layer1
10
275.7500
20
6.0000
30
0.0
0
VERTEX
5
1e67
8
Layer1
10
275.7500
20
5.0000
30
0.0
0
VERTEX
5
1e68
8
Layer1
10
289.7500
20
5.0000
30
0.0
0
VERTEX
5
1e69
8
Layer1
10
289.7500
20
6.0000
30
0.0
0
SEQEND
5
1e6a
8
Layer1
0
POLYLINE
5
1e6b
8
Layer1
66
1
10
0.0
20
0.0
30
0.0
70
1
0
VERTEX
5
1e6c
8
Layer1
10
308.7500
20
6.0000
30
0.0
0
VERTEX
5
1e6d
8
Layer1
10
309.5500
20
6.0000
30
0.0
0
VERTEX
5
1e6e
8
Layer1
10
309.5500
20
9.5000
30
0.0
0
VERTEX
5
1e6f
8
Layer1
10
308.7500
20
9.5000
30
0.0
0
VERTEX
5
1e70
8
Layer1
10
308.7500
20
14.5000
30
0.0
0
VERTEX
5
1e71
8
Layer1
10
309.5500
20
14.5000
30
0.0
0
VERTEX
5
1e72
8
Layer1
10
309.5500
20
18.0000
30
0.0
0
VERTEX
5
1e73
8
Layer1
10
308.7500
20
18.0000
30
0.0
0
VERTEX
5
1e74
8
Layer1
10
308.7500
20
19.0000
30
0.0
0
VERTEX
5
1e75
8
Layer1
10
294.7500
20
19.0000
30
0.0
0
VERTEX
5
1e76
8
Layer1
10
294.7500
20
18.0000
30
0.0
0
VERTEX
5
1e77
8
Layer1
10
293.9500
20
18.0000
30
0.0
0
VERTEX
5
1e78
8
Layer1
10
293.9500
20
14.5000
30
0.0
0
VERTEX
5
1e79
8
Layer1
10
294.7500
20
14.5000
30
0.0
0
VERTEX
5
1e7a
8
Layer1
10
294.7500
20
9.5000
30
0.0
0
VERTEX
5
1e7b
8
Layer1
10
293.9500
20
9.5000
30
0.0
0
VERTEX
5
1e7c
8
Layer1
10
293.9500
20
6.0000
30
0.0
0
VERTEX
5
1e7d
8
Layer1
10
294.7500
20
6.0000
30
0.0
0
VERTEX
5
1e7e
8
Layer1
10
294.7500
20
5.0000
30
0.0
0
VERTEX
5
1e7f
8
Layer1
10
308.7500
20
5.0000
30
0.0
0
VERTEX
5
1e80
8
Layer1
10
308.7500
20
6.0000
30
0.0
0
SEQEND
5
1e81
8
Layer1
0
ENDSEC
0
EOF
