0
SECTION
2
HEADER
9
$INSUNITS
70
4
9
$INSBASE
10
0.0
20
0.0
30
0.0
9
$EXTMIN
10
0
20
0
9
$EXTMAX
10
313.75
20
128.5
0
ENDSEC
0
SECTION
2
TABLES
0
TABLE
2
LTYPE
70
1
0
LTYPE
2
CONTINUOUS
70
64
3
Solid line
72
65
73
0
40
0.0
0
ENDTAB
0
TABLE
2
LAYER
70
1
0
LAYER
2
Layer1
70
64
62
7
6
CONTINUOUS
0
ENDTAB
0
TABLE
2
STYLE
70
0
0
ENDTAB
0
TABLE
2
VIEW
70
0
0
ENDTAB
0
ENDSEC
0
SECTION
2
BLOCKS
0
ENDSEC
0
SECTION
2
ENTITIES
0
POLYLINE
5
f4f
8
Layer1
66
1
10
0.0
20
0.0
30
0.0
70
1
0
VERTEX
5
f50
8
Layer1
10
0.0000
20
0.0000
30
0.0
0
VERTEX
5
f51
8
Layer1
10
313.7500
20
0.0000
30
0.0
0
VERTEX
5
f52
8
Layer1
10
313.7500
20
128.5000
30
0.0
0
VERTEX
5
f53
8
Layer1
10
0.0000
20
128.5000
30
0.0
0
VERTEX
5
f54
8
Layer1
10
0.0000
20
0.0000
30
0.0
0
SEQEND
5
f55
8
Layer1
0
POLYLINE
5
f56
8
Layer1
66
1
10
0.0
20
0.0
30
0.0
70
1
0
VERTEX
5
f57
8
Layer1
10
19.0000
20
123.5000
30
0.0
0
VERTEX
5
f58
8
Layer1
10
5.0000
20
123.5000
30
0.0
0
VERTEX
5
f59
8
Layer1
10
5.0000
20
109.5000
30
0.0
0
VERTEX
5
f5a
8
Layer1
10
19.0000
20
109.5000
30
0.0
0
VERTEX
5
f5b
8
Layer1
10
19.0000
20
123.5000
30
0.0
0
SEQEND
5
f5c
8
Layer1
0
POLYLINE
5
f5d
8
Layer1
66
1
10
0.0
20
0.0
30
0.0
70
1
0
VERTEX
5
f5e
8
Layer1
10
47.5000
20
123.5000
30
0.0
0
VERTEX
5
f5f
8
Layer1
10
33.5000
20
123.5000
30
0.0
0
VERTEX
5
f60
8
Layer1
10
33.5000
20
109.5000
30
0.0
0
VERTEX
5
f61
8
Layer1
10
47.5000
20
109.5000
30
0.0
0
VERTEX
5
f62
8
Layer1
10
47.5000
20
123.5000
30
0.0
0
SEQEND
5
f63
8
Layer1
0
POLYLINE
5
f64
8
Layer1
66
1
10
0.0
20
0.0
30
0.0
70
1
0
VERTEX
5
f65
8
Layer1
10
66.5000
20
123.5000
30
0.0
0
VERTEX
5
f66
8
Layer1
10
52.5000
20
123.5000
30
0.0
0
VERTEX
5
f67
8
Layer1
10
52.5000
20
109.5000
30
0.0
0
VERTEX
5
f68
8
Layer1
10
66.5000
20
109.5000
30
0.0
0
VERTEX
5
f69
8
Layer1
10
66.5000
20
123.5000
30
0.0
0
SEQEND
5
f6a
8
Layer1
0
POLYLINE
5
f6b
8
Layer1
66
1
10
0.0
20
0.0
30
0.0
70
1
0
VERTEX
5
f6c
8
Layer1
10
85.5000
20
123.5000
30
0.0
0
VERTEX
5
f6d
8
Layer1
10
71.5000
20
123.5000
30
0.0
0
VERTEX
5
f6e
8
Layer1
10
71.5000
20
109.5000
30
0.0
0
VERTEX
5
f6f
8
Layer1
10
85.5000
20
109.5000
30
0.0
0
VERTEX
5
f70
8
Layer1
10
85.5000
20
123.5000
30
0.0
0
SEQEND
5
f71
8
Layer1
0
POLYLINE
5
f72
8
Layer1
66
1
10
0.0
20
0.0
30
0.0
70
1
0
VERTEX
5
f73
8
Layer1
10
104.5000
20
123.5000
30
0.0
0
VERTEX
5
f74
8
Layer1
10
90.5000
20
123.5000
30
0.0
0
VERTEX
5
f75
8
Layer1
10
90.5000
20
109.5000
30
0.0
0
VERTEX
5
f76
8
Layer1
10
104.5000
20
109.5000
30
0.0
0
VERTEX
5
f77
8
Layer1
10
104.5000
20
123.5000
30
0.0
0
SEQEND
5
f78
8
Layer1
0
POLYLINE
5
f79
8
Layer1
66
1
10
0.0
20
0.0
30
0.0
70
1
0
VERTEX
5
f7a
8
Layer1
10
137.7500
20
123.5000
30
0.0
0
VERTEX
5
f7b
8
Layer1
10
123.7500
20
123.5000
30
0.0
0
VERTEX
5
f7c
8
Layer1
10
123.7500
20
109.5000
30
0.0
0
VERTEX
5
f7d
8
Layer1
10
137.7500
20
109.5000
30
0.0
0
VERTEX
5
f7e
8
Layer1
10
137.7500
20
123.5000
30
0.0
0
SEQEND
5
f7f
8
Layer1
0
POLYLINE
5
f80
8
Layer1
66
1
10
0.0
20
0.0
30
0.0
70
1
0
VERTEX
5
f81
8
Layer1
10
156.7500
20
123.5000
30
0.0
0
VERTEX
5
f82
8
Layer1
10
142.7500
20
123.5000
30
0.0
0
VERTEX
5
f83
8
Layer1
10
142.7500
20
109.5000
30
0.0
0
VERTEX
5
f84
8
Layer1
10
156.7500
20
109.5000
30
0.0
0
VERTEX
5
f85
8
Layer1
10
156.7500
20
123.5000
30
0.0
0
SEQEND
5
f86
8
Layer1
0
POLYLINE
5
f87
8
Layer1
66
1
10
0.0
20
0.0
30
0.0
70
1
0
VERTEX
5
f88
8
Layer1
10
175.7500
20
123.5000
30
0.0
0
VERTEX
5
f89
8
Layer1
10
161.7500
20
123.5000
30
0.0
0
VERTEX
5
f8a
8
Layer1
10
161.7500
20
109.5000
30
0.0
0
VERTEX
5
f8b
8
Layer1
10
175.7500
20
109.5000
30
0.0
0
VERTEX
5
f8c
8
Layer1
10
175.7500
20
123.5000
30
0.0
0
SEQEND
5
f8d
8
Layer1
0
POLYLINE
5
f8e
8
Layer1
66
1
10
0.0
20
0.0
30
0.0
70
1
0
VERTEX
5
f8f
8
Layer1
10
194.7500
20
123.5000
30
0.0
0
VERTEX
5
f90
8
Layer1
10
180.7500
20
123.5000
30
0.0
0
VERTEX
5
f91
8
Layer1
10
180.7500
20
109.5000
30
0.0
0
VERTEX
5
f92
8
Layer1
10
194.7500
20
109.5000
30
0.0
0
VERTEX
5
f93
8
Layer1
10
194.7500
20
123.5000
30
0.0
0
SEQEND
5
f94
8
Layer1
0
POLYLINE
5
f95
8
Layer1
66
1
10
0.0
20
0.0
30
0.0
70
1
0
VERTEX
5
f96
8
Layer1
10
228.0000
20
123.5000
30
0.0
0
VERTEX
5
f97
8
Layer1
10
214.0000
20
123.5000
30
0.0
0
VERTEX
5
f98
8
Layer1
10
214.0000
20
109.5000
30
0.0
0
VERTEX
5
f99
8
Layer1
10
228.0000
20
109.5000
30
0.0
0
VERTEX
5
f9a
8
Layer1
10
228.0000
20
123.5000
30
0.0
0
SEQEND
5
f9b
8
Layer1
0
POLYLINE
5
f9c
8
Layer1
66
1
10
0.0
20
0.0
30
0.0
70
1
0
VERTEX
5
f9d
8
Layer1
10
247.0000
20
123.5000
30
0.0
0
VERTEX
5
f9e
8
Layer1
10
233.0000
20
123.5000
30
0.0
0
VERTEX
5
f9f
8
Layer1
10
233.0000
20
109.5000
30
0.0
0
VERTEX
5
fa0
8
Layer1
10
247.0000
20
109.5000
30
0.0
0
VERTEX
5
fa1
8
Layer1
10
247.0000
20
123.5000
30
0.0
0
SEQEND
5
fa2
8
Layer1
0
POLYLINE
5
fa3
8
Layer1
66
1
10
0.0
20
0.0
30
0.0
70
1
0
VERTEX
5
fa4
8
Layer1
10
266.0000
20
123.5000
30
0.0
0
VERTEX
5
fa5
8
Layer1
10
252.0000
20
123.5000
30
0.0
0
VERTEX
5
fa6
8
Layer1
10
252.0000
20
109.5000
30
0.0
0
VERTEX
5
fa7
8
Layer1
10
266.0000
20
109.5000
30
0.0
0
VERTEX
5
fa8
8
Layer1
10
266.0000
20
123.5000
30
0.0
0
SEQEND
5
fa9
8
Layer1
0
POLYLINE
5
faa
8
Layer1
66
1
10
0.0
20
0.0
30
0.0
70
1
0
VERTEX
5
fab
8
Layer1
10
285.0000
20
123.5000
30
0.0
0
VERTEX
5
fac
8
Layer1
10
271.0000
20
123.5000
30
0.0
0
VERTEX
5
fad
8
Layer1
10
271.0000
20
109.5000
30
0.0
0
VERTEX
5
fae
8
Layer1
10
285.0000
20
109.5000
30
0.0
0
VERTEX
5
faf
8
Layer1
10
285.0000
20
123.5000
30
0.0
0
SEQEND
5
fb0
8
Layer1
0
POLYLINE
5
fb1
8
Layer1
66
1
10
0.0
20
0.0
30
0.0
70
1
0
VERTEX
5
fb2
8
Layer1
10
308.7500
20
123.5000
30
0.0
0
VERTEX
5
fb3
8
Layer1
10
294.7500
20
123.5000
30
0.0
0
VERTEX
5
fb4
8
Layer1
10
294.7500
20
109.5000
30
0.0
0
VERTEX
5
fb5
8
Layer1
10
308.7500
20
109.5000
30
0.0
0
VERTEX
5
fb6
8
Layer1
10
308.7500
20
123.5000
30
0.0
0
SEQEND
5
fb7
8
Layer1
0
POLYLINE
5
fb8
8
Layer1
66
1
10
0.0
20
0.0
30
0.0
70
1
0
VERTEX
5
fb9
8
Layer1
10
19.0000
20
99.7500
30
0.0
0
VERTEX
5
fba
8
Layer1
10
5.0000
20
99.7500
30
0.0
0
VERTEX
5
fbb
8
Layer1
10
5.0000
20
85.7500
30
0.0
0
VERTEX
5
fbc
8
Layer1
10
19.0000
20
85.7500
30
0.0
0
VERTEX
5
fbd
8
Layer1
10
19.0000
20
99.7500
30
0.0
0
SEQEND
5
fbe
8
Layer1
0
POLYLINE
5
fbf
8
Layer1
66
1
10
0.0
20
0.0
30
0.0
70
1
0
VERTEX
5
fc0
8
Layer1
10
38.0000
20
99.7500
30
0.0
0
VERTEX
5
fc1
8
Layer1
10
24.0000
20
99.7500
30
0.0
0
VERTEX
5
fc2
8
Layer1
10
24.0000
20
85.7500
30
0.0
0
VERTEX
5
fc3
8
Layer1
10
38.0000
20
85.7500
30
0.0
0
VERTEX
5
fc4
8
Layer1
10
38.0000
20
99.7500
30
0.0
0
SEQEND
5
fc5
8
Layer1
0
POLYLINE
5
fc6
8
Layer1
66
1
10
0.0
20
0.0
30
0.0
70
1
0
VERTEX
5
fc7
8
Layer1
10
57.0000
20
99.7500
30
0.0
0
VERTEX
5
fc8
8
Layer1
10
43.0000
20
99.7500
30
0.0
0
VERTEX
5
fc9
8
Layer1
10
43.0000
20
85.7500
30
0.0
0
VERTEX
5
fca
8
Layer1
10
57.0000
20
85.7500
30
0.0
0
VERTEX
5
fcb
8
Layer1
10
57.0000
20
99.7500
30
0.0
0
SEQEND
5
fcc
8
Layer1
0
POLYLINE
5
fcd
8
Layer1
66
1
10
0.0
20
0.0
30
0.0
70
1
0
VERTEX
5
fce
8
Layer1
10
76.0000
20
99.7500
30
0.0
0
VERTEX
5
fcf
8
Layer1
10
62.0000
20
99.7500
30
0.0
0
VERTEX
5
fd0
8
Layer1
10
62.0000
20
85.7500
30
0.0
0
VERTEX
5
fd1
8
Layer1
10
76.0000
20
85.7500
30
0.0
0
VERTEX
5
fd2
8
Layer1
10
76.0000
20
99.7500
30
0.0
0
SEQEND
5
fd3
8
Layer1
0
POLYLINE
5
fd4
8
Layer1
66
1
10
0.0
20
0.0
30
0.0
70
1
0
VERTEX
5
fd5
8
Layer1
10
95.0000
20
99.7500
30
0.0
0
VERTEX
5
fd6
8
Layer1
10
81.0000
20
99.7500
30
0.0
0
VERTEX
5
fd7
8
Layer1
10
81.0000
20
85.7500
30
0.0
0
VERTEX
5
fd8
8
Layer1
10
95.0000
20
85.7500
30
0.0
0
VERTEX
5
fd9
8
Layer1
10
95.0000
20
99.7500
30
0.0
0
SEQEND
5
fda
8
Layer1
0
POLYLINE
5
fdb
8
Layer1
66
1
10
0.0
20
0.0
30
0.0
70
1
0
VERTEX
5
fdc
8
Layer1
10
114.0000
20
99.7500
30
0.0
0
VERTEX
5
fdd
8
Layer1
10
100.0000
20
99.7500
30
0.0
0
VERTEX
5
fde
8
Layer1
10
100.0000
20
85.7500
30
0.0
0
VERTEX
5
fdf
8
Layer1
10
114.0000
20
85.7500
30
0.0
0
VERTEX
5
fe0
8
Layer1
10
114.0000
20
99.7500
30
0.0
0
SEQEND
5
fe1
8
Layer1
0
POLYLINE
5
fe2
8
Layer1
66
1
10
0.0
20
0.0
30
0.0
70
1
0
VERTEX
5
fe3
8
Layer1
10
133.0000
20
99.7500
30
0.0
0
VERTEX
5
fe4
8
Layer1
10
119.0000
20
99.7500
30
0.0
0
VERTEX
5
fe5
8
Layer1
10
119.0000
20
85.7500
30
0.0
0
VERTEX
5
fe6
8
Layer1
10
133.0000
20
85.7500
30
0.0
0
VERTEX
5
fe7
8
Layer1
10
133.0000
20
99.7500
30
0.0
0
SEQEND
5
fe8
8
Layer1
0
POLYLINE
5
fe9
8
Layer1
66
1
10
0.0
20
0.0
30
0.0
70
1
0
VERTEX
5
fea
8
Layer1
10
152.0000
20
99.7500
30
0.0
0
VERTEX
5
feb
8
Layer1
10
138.0000
20
99.7500
30
0.0
0
VERTEX
5
fec
8
Layer1
10
138.0000
20
85.7500
30
0.0
0
VERTEX
5
fed
8
Layer1
10
152.0000
20
85.7500
30
0.0
0
VERTEX
5
fee
8
Layer1
10
152.0000
20
99.7500
30
0.0
0
SEQEND
5
fef
8
Layer1
0
POLYLINE
5
ff0
8
Layer1
66
1
10
0.0
20
0.0
30
0.0
70
1
0
VERTEX
5
ff1
8
Layer1
10
171.0000
20
99.7500
30
0.0
0
VERTEX
5
ff2
8
Layer1
10
157.0000
20
99.7500
30
0.0
0
VERTEX
5
ff3
8
Layer1
10
157.0000
20
85.7500
30
0.0
0
VERTEX
5
ff4
8
Layer1
10
171.0000
20
85.7500
30
0.0
0
VERTEX
5
ff5
8
Layer1
10
171.0000
20
99.7500
30
0.0
0
SEQEND
5
ff6
8
Layer1
0
POLYLINE
5
ff7
8
Layer1
66
1
10
0.0
20
0.0
30
0.0
70
1
0
VERTEX
5
ff8
8
Layer1
10
190.0000
20
99.7500
30
0.0
0
VERTEX
5
ff9
8
Layer1
10
176.0000
20
99.7500
30
0.0
0
VERTEX
5
ffa
8
Layer1
10
176.0000
20
85.7500
30
0.0
0
VERTEX
5
ffb
8
Layer1
10
190.0000
20
85.7500
30
0.0
0
VERTEX
5
ffc
8
Layer1
10
190.0000
20
99.7500
30
0.0
0
SEQEND
5
ffd
8
Layer1
0
POLYLINE
5
ffe
8
Layer1
66
1
10
0.0
20
0.0
30
0.0
70
1
0
VERTEX
5
fff
8
Layer1
10
209.0000
20
99.7500
30
0.0
0
VERTEX
5
1000
8
Layer1
10
195.0000
20
99.7500
30
0.0
0
VERTEX
5
1001
8
Layer1
10
195.0000
20
85.7500
30
0.0
0
VERTEX
5
1002
8
Layer1
10
209.0000
20
85.7500
30
0.0
0
VERTEX
5
1003
8
Layer1
10
209.0000
20
99.7500
30
0.0
0
SEQEND
5
1004
8
Layer1
0
POLYLINE
5
1005
8
Layer1
66
1
10
0.0
20
0.0
30
0.0
70
1
0
VERTEX
5
1006
8
Layer1
10
228.0000
20
99.7500
30
0.0
0
VERTEX
5
1007
8
Layer1
10
214.0000
20
99.7500
30
0.0
0
VERTEX
5
1008
8
Layer1
10
214.0000
20
85.7500
30
0.0
0
VERTEX
5
1009
8
Layer1
10
228.0000
20
85.7500
30
0.0
0
VERTEX
5
100a
8
Layer1
10
228.0000
20
99.7500
30
0.0
0
SEQEND
5
100b
8
Layer1
0
POLYLINE
5
100c
8
Layer1
66
1
10
0.0
20
0.0
30
0.0
70
1
0
VERTEX
5
100d
8
Layer1
10
247.0000
20
99.7500
30
0.0
0
VERTEX
5
100e
8
Layer1
10
233.0000
20
99.7500
30
0.0
0
VERTEX
5
100f
8
Layer1
10
233.0000
20
85.7500
30
0.0
0
VERTEX
5
1010
8
Layer1
10
247.0000
20
85.7500
30
0.0
0
VERTEX
5
1011
8
Layer1
10
247.0000
20
99.7500
30
0.0
0
SEQEND
5
1012
8
Layer1
0
POLYLINE
5
1013
8
Layer1
66
1
10
0.0
20
0.0
30
0.0
70
1
0
VERTEX
5
1014
8
Layer1
10
258.1000
20
85.9800
30
0.0
0
VERTEX
5
1015
8
Layer1
10
259.9250
20
85.9800
30
0.0
0
VERTEX
5
1016
8
Layer1
10
259.9250
20
92.2500
30
0.0
0
VERTEX
5
1017
8
Layer1
10
261.5000
20
92.2500
30
0.0
0
VERTEX
5
1018
8
Layer1
10
261.5000
20
85.7500
30
0.0
0
VERTEX
5
1019
8
Layer1
10
275.5000
20
85.7500
30
0.0
0
VERTEX
5
101a
8
Layer1
10
275.5000
20
92.2500
30
0.0
0
VERTEX
5
101b
8
Layer1
10
277.0750
20
92.2500
30
0.0
0
VERTEX
5
101c
8
Layer1
10
277.0750
20
85.9800
30
0.0
0
VERTEX
5
101d
8
Layer1
10
278.9000
20
85.9800
30
0.0
0
VERTEX
5
101e
8
Layer1
10
278.9000
20
84.7800
30
0.0
0
VERTEX
5
101f
8
Layer1
10
281.9000
20
84.7800
30
0.0
0
VERTEX
5
1020
8
Layer1
10
281.9000
20
85.9800
30
0.0
0
VERTEX
5
1021
8
Layer1
10
283.7250
20
85.9800
30
0.0
0
VERTEX
5
1022
8
Layer1
10
283.7250
20
92.2500
30
0.0
0
VERTEX
5
1023
8
Layer1
10
284.6000
20
92.2500
30
0.0
0
VERTEX
5
1024
8
Layer1
10
284.6000
20
95.0500
30
0.0
0
VERTEX
5
1025
8
Layer1
10
283.7250
20
95.0500
30
0.0
0
VERTEX
5
1026
8
Layer1
10
283.7250
20
98.2800
30
0.0
0
VERTEX
5
1027
8
Layer1
10
277.0750
20
98.2800
30
0.0
0
VERTEX
5
1028
8
Layer1
10
277.0750
20
95.0500
30
0.0
0
VERTEX
5
1029
8
Layer1
10
275.5000
20
95.0500
30
0.0
0
VERTEX
5
102a
8
Layer1
10
275.5000
20
99.7500
30
0.0
0
VERTEX
5
102b
8
Layer1
10
261.5000
20
99.7500
30
0.0
0
VERTEX
5
102c
8
Layer1
10
261.5000
20
95.0500
30
0.0
0
VERTEX
5
102d
8
Layer1
10
259.9250
20
95.0500
30
0.0
0
VERTEX
5
102e
8
Layer1
10
259.9250
20
98.2800
30
0.0
0
VERTEX
5
102f
8
Layer1
10
253.2750
20
98.2800
30
0.0
0
VERTEX
5
1030
8
Layer1
10
253.2750
20
95.0500
30
0.0
0
VERTEX
5
1031
8
Layer1
10
252.4000
20
95.0500
30
0.0
0
VERTEX
5
1032
8
Layer1
10
252.4000
20
92.2500
30
0.0
0
VERTEX
5
1033
8
Layer1
10
253.2750
20
92.2500
30
0.0
0
VERTEX
5
1034
8
Layer1
10
253.2750
20
85.9800
30
0.0
0
VERTEX
5
1035
8
Layer1
10
255.1000
20
85.9800
30
0.0
0
VERTEX
5
1036
8
Layer1
10
255.1000
20
84.7800
30
0.0
0
VERTEX
5
1037
8
Layer1
10
258.1000
20
84.7800
30
0.0
0
VERTEX
5
1038
8
Layer1
10
258.1000
20
85.9800
30
0.0
0
SEQEND
5
1039
8
Layer1
0
POLYLINE
5
103a
8
Layer1
66
1
10
0.0
20
0.0
30
0.0
70
1
0
VERTEX
5
103b
8
Layer1
10
23.7500
20
80.7500
30
0.0
0
VERTEX
5
103c
8
Layer1
10
9.7500
20
80.7500
30
0.0
0
VERTEX
5
103d
8
Layer1
10
9.7500
20
66.7500
30
0.0
0
VERTEX
5
103e
8
Layer1
10
23.7500
20
66.7500
30
0.0
0
VERTEX
5
103f
8
Layer1
10
23.7500
20
80.7500
30
0.0
0
SEQEND
5
1040
8
Layer1
0
POLYLINE
5
1041
8
Layer1
66
1
10
0.0
20
0.0
30
0.0
70
1
0
VERTEX
5
1042
8
Layer1
10
47.5000
20
80.7500
30
0.0
0
VERTEX
5
1043
8
Layer1
10
33.5000
20
80.7500
30
0.0
0
VERTEX
5
1044
8
Layer1
10
33.5000
20
66.7500
30
0.0
0
VERTEX
5
1045
8
Layer1
10
47.5000
20
66.7500
30
0.0
0
VERTEX
5
1046
8
Layer1
10
47.5000
20
80.7500
30
0.0
0
SEQEND
5
1047
8
Layer1
0
POLYLINE
5
1048
8
Layer1
66
1
10
0.0
20
0.0
30
0.0
70
1
0
VERTEX
5
1049
8
Layer1
10
66.5000
20
80.7500
30
0.0
0
VERTEX
5
104a
8
Layer1
10
52.5000
20
80.7500
30
0.0
0
VERTEX
5
104b
8
Layer1
10
52.5000
20
66.7500
30
0.0
0
VERTEX
5
104c
8
Layer1
10
66.5000
20
66.7500
30
0.0
0
VERTEX
5
104d
8
Layer1
10
66.5000
20
80.7500
30
0.0
0
SEQEND
5
104e
8
Layer1
0
POLYLINE
5
104f
8
Layer1
66
1
10
0.0
20
0.0
30
0.0
70
1
0
VERTEX
5
1050
8
Layer1
10
85.5000
20
80.7500
30
0.0
0
VERTEX
5
1051
8
Layer1
10
71.5000
20
80.7500
30
0.0
0
VERTEX
5
1052
8
Layer1
10
71.5000
20
66.7500
30
0.0
0
VERTEX
5
1053
8
Layer1
10
85.5000
20
66.7500
30
0.0
0
VERTEX
5
1054
8
Layer1
10
85.5000
20
80.7500
30
0.0
0
SEQEND
5
1055
8
Layer1
0
POLYLINE
5
1056
8
Layer1
66
1
10
0.0
20
0.0
30
0.0
70
1
0
VERTEX
5
1057
8
Layer1
10
104.5000
20
80.7500
30
0.0
0
VERTEX
5
1058
8
Layer1
10
90.5000
20
80.7500
30
0.0
0
VERTEX
5
1059
8
Layer1
10
90.5000
20
66.7500
30
0.0
0
VERTEX
5
105a
8
Layer1
10
104.5000
20
66.7500
30
0.0
0
VERTEX
5
105b
8
Layer1
10
104.5000
20
80.7500
30
0.0
0
SEQEND
5
105c
8
Layer1
0
POLYLINE
5
105d
8
Layer1
66
1
10
0.0
20
0.0
30
0.0
70
1
0
VERTEX
5
105e
8
Layer1
10
123.5000
20
80.7500
30
0.0
0
VERTEX
5
105f
8
Layer1
10
109.5000
20
80.7500
30
0.0
0
VERTEX
5
1060
8
Layer1
10
109.5000
20
66.7500
30
0.0
0
VERTEX
5
1061
8
Layer1
10
123.5000
20
66.7500
30
0.0
0
VERTEX
5
1062
8
Layer1
10
123.5000
20
80.7500
30
0.0
0
SEQEND
5
1063
8
Layer1
0
POLYLINE
5
1064
8
Layer1
66
1
10
0.0
20
0.0
30
0.0
70
1
0
VERTEX
5
1065
8
Layer1
10
142.5000
20
80.7500
30
0.0
0
VERTEX
5
1066
8
Layer1
10
128.5000
20
80.7500
30
0.0
0
VERTEX
5
1067
8
Layer1
10
128.5000
20
66.7500
30
0.0
0
VERTEX
5
1068
8
Layer1
10
142.5000
20
66.7500
30
0.0
0
VERTEX
5
1069
8
Layer1
10
142.5000
20
80.7500
30
0.0
0
SEQEND
5
106a
8
Layer1
0
POLYLINE
5
106b
8
Layer1
66
1
10
0.0
20
0.0
30
0.0
70
1
0
VERTEX
5
106c
8
Layer1
10
161.5000
20
80.7500
30
0.0
0
VERTEX
5
106d
8
Layer1
10
147.5000
20
80.7500
30
0.0
0
VERTEX
5
106e
8
Layer1
10
147.5000
20
66.7500
30
0.0
0
VERTEX
5
106f
8
Layer1
10
161.5000
20
66.7500
30
0.0
0
VERTEX
5
1070
8
Layer1
10
161.5000
20
80.7500
30
0.0
0
SEQEND
5
1071
8
Layer1
0
POLYLINE
5
1072
8
Layer1
66
1
10
0.0
20
0.0
30
0.0
70
1
0
VERTEX
5
1073
8
Layer1
10
180.5000
20
80.7500
30
0.0
0
VERTEX
5
1074
8
Layer1
10
166.5000
20
80.7500
30
0.0
0
VERTEX
5
1075
8
Layer1
10
166.5000
20
66.7500
30
0.0
0
VERTEX
5
1076
8
Layer1
10
180.5000
20
66.7500
30
0.0
0
VERTEX
5
1077
8
Layer1
10
180.5000
20
80.7500
30
0.0
0
SEQEND
5
1078
8
Layer1
0
POLYLINE
5
1079
8
Layer1
66
1
10
0.0
20
0.0
30
0.0
70
1
0
VERTEX
5
107a
8
Layer1
10
199.5000
20
80.7500
30
0.0
0
VERTEX
5
107b
8
Layer1
10
185.5000
20
80.7500
30
0.0
0
VERTEX
5
107c
8
Layer1
10
185.5000
20
66.7500
30
0.0
0
VERTEX
5
107d
8
Layer1
10
199.5000
20
66.7500
30
0.0
0
VERTEX
5
107e
8
Layer1
10
199.5000
20
80.7500
30
0.0
0
SEQEND
5
107f
8
Layer1
0
POLYLINE
5
1080
8
Layer1
66
1
10
0.0
20
0.0
30
0.0
70
1
0
VERTEX
5
1081
8
Layer1
10
218.5000
20
80.7500
30
0.0
0
VERTEX
5
1082
8
Layer1
10
204.5000
20
80.7500
30
0.0
0
VERTEX
5
1083
8
Layer1
10
204.5000
20
66.7500
30
0.0
0
VERTEX
5
1084
8
Layer1
10
218.5000
20
66.7500
30
0.0
0
VERTEX
5
1085
8
Layer1
10
218.5000
20
80.7500
30
0.0
0
SEQEND
5
1086
8
Layer1
0
POLYLINE
5
1087
8
Layer1
66
1
10
0.0
20
0.0
30
0.0
70
1
0
VERTEX
5
1088
8
Layer1
10
237.5000
20
80.7500
30
0.0
0
VERTEX
5
1089
8
Layer1
10
223.5000
20
80.7500
30
0.0
0
VERTEX
5
108a
8
Layer1
10
223.5000
20
66.7500
30
0.0
0
VERTEX
5
108b
8
Layer1
10
237.5000
20
66.7500
30
0.0
0
VERTEX
5
108c
8
Layer1
10
237.5000
20
80.7500
30
0.0
0
SEQEND
5
108d
8
Layer1
0
POLYLINE
5
108e
8
Layer1
66
1
10
0.0
20
0.0
30
0.0
70
1
0
VERTEX
5
108f
8
Layer1
10
256.5000
20
80.7500
30
0.0
0
VERTEX
5
1090
8
Layer1
10
242.5000
20
80.7500
30
0.0
0
VERTEX
5
1091
8
Layer1
10
242.5000
20
66.7500
30
0.0
0
VERTEX
5
1092
8
Layer1
10
256.5000
20
66.7500
30
0.0
0
VERTEX
5
1093
8
Layer1
10
256.5000
20
80.7500
30
0.0
0
SEQEND
5
1094
8
Layer1
0
POLYLINE
5
1095
8
Layer1
66
1
10
0.0
20
0.0
30
0.0
70
1
0
VERTEX
5
1096
8
Layer1
10
280.2500
20
80.7500
30
0.0
0
VERTEX
5
1097
8
Layer1
10
266.2500
20
80.7500
30
0.0
0
VERTEX
5
1098
8
Layer1
10
266.2500
20
66.7500
30
0.0
0
VERTEX
5
1099
8
Layer1
10
280.2500
20
66.7500
30
0.0
0
VERTEX
5
109a
8
Layer1
10
280.2500
20
80.7500
30
0.0
0
SEQEND
5
109b
8
Layer1
0
POLYLINE
5
109c
8
Layer1
66
1
10
0.0
20
0.0
30
0.0
70
1
0
VERTEX
5
109d
8
Layer1
10
26.1250
20
61.7500
30
0.0
0
VERTEX
5
109e
8
Layer1
10
12.1250
20
61.7500
30
0.0
0
VERTEX
5
109f
8
Layer1
10
12.1250
20
47.7500
30
0.0
0
VERTEX
5
10a0
8
Layer1
10
26.1250
20
47.7500
30
0.0
0
VERTEX
5
10a1
8
Layer1
10
26.1250
20
61.7500
30
0.0
0
SEQEND
5
10a2
8
Layer1
0
POLYLINE
5
10a3
8
Layer1
66
1
10
0.0
20
0.0
30
0.0
70
1
0
VERTEX
5
10a4
8
Layer1
10
52.2500
20
61.7500
30
0.0
0
VERTEX
5
10a5
8
Layer1
10
38.2500
20
61.7500
30
0.0
0
VERTEX
5
10a6
8
Layer1
10
38.2500
20
47.7500
30
0.0
0
VERTEX
5
10a7
8
Layer1
10
52.2500
20
47.7500
30
0.0
0
VERTEX
5
10a8
8
Layer1
10
52.2500
20
61.7500
30
0.0
0
SEQEND
5
10a9
8
Layer1
0
POLYLINE
5
10aa
8
Layer1
66
1
10
0.0
20
0.0
30
0.0
70
1
0
VERTEX
5
10ab
8
Layer1
10
71.2500
20
61.7500
30
0.0
0
VERTEX
5
10ac
8
Layer1
10
57.2500
20
61.7500
30
0.0
0
VERTEX
5
10ad
8
Layer1
10
57.2500
20
47.7500
30
0.0
0
VERTEX
5
10ae
8
Layer1
10
71.2500
20
47.7500
30
0.0
0
VERTEX
5
10af
8
Layer1
10
71.2500
20
61.7500
30
0.0
0
SEQEND
5
10b0
8
Layer1
0
POLYLINE
5
10b1
8
Layer1
66
1
10
0.0
20
0.0
30
0.0
70
1
0
VERTEX
5
10b2
8
Layer1
10
90.2500
20
61.7500
30
0.0
0
VERTEX
5
10b3
8
Layer1
10
76.2500
20
61.7500
30
0.0
0
VERTEX
5
10b4
8
Layer1
10
76.2500
20
47.7500
30
0.0
0
VERTEX
5
10b5
8
Layer1
10
90.2500
20
47.7500
30
0.0
0
VERTEX
5
10b6
8
Layer1
10
90.2500
20
61.7500
30
0.0
0
SEQEND
5
10b7
8
Layer1
0
POLYLINE
5
10b8
8
Layer1
66
1
10
0.0
20
0.0
30
0.0
70
1
0
VERTEX
5
10b9
8
Layer1
10
109.2500
20
61.7500
30
0.0
0
VERTEX
5
10ba
8
Layer1
10
95.2500
20
61.7500
30
0.0
0
VERTEX
5
10bb
8
Layer1
10
95.2500
20
47.7500
30
0.0
0
VERTEX
5
10bc
8
Layer1
10
109.2500
20
47.7500
30
0.0
0
VERTEX
5
10bd
8
Layer1
10
109.2500
20
61.7500
30
0.0
0
SEQEND
5
10be
8
Layer1
0
POLYLINE
5
10bf
8
Layer1
66
1
10
0.0
20
0.0
30
0.0
70
1
0
VERTEX
5
10c0
8
Layer1
10
128.2500
20
61.7500
30
0.0
0
VERTEX
5
10c1
8
Layer1
10
114.2500
20
61.7500
30
0.0
0
VERTEX
5
10c2
8
Layer1
10
114.2500
20
47.7500
30
0.0
0
VERTEX
5
10c3
8
Layer1
10
128.2500
20
47.7500
30
0.0
0
VERTEX
5
10c4
8
Layer1
10
128.2500
20
61.7500
30
0.0
0
SEQEND
5
10c5
8
Layer1
0
POLYLINE
5
10c6
8
Layer1
66
1
10
0.0
20
0.0
30
0.0
70
1
0
VERTEX
5
10c7
8
Layer1
10
147.2500
20
61.7500
30
0.0
0
VERTEX
5
10c8
8
Layer1
10
133.2500
20
61.7500
30
0.0
0
VERTEX
5
10c9
8
Layer1
10
133.2500
20
47.7500
30
0.0
0
VERTEX
5
10ca
8
Layer1
10
147.2500
20
47.7500
30
0.0
0
VERTEX
5
10cb
8
Layer1
10
147.2500
20
61.7500
30
0.0
0
SEQEND
5
10cc
8
Layer1
0
POLYLINE
5
10cd
8
Layer1
66
1
10
0.0
20
0.0
30
0.0
70
1
0
VERTEX
5
10ce
8
Layer1
10
166.2500
20
61.7500
30
0.0
0
VERTEX
5
10cf
8
Layer1
10
152.2500
20
61.7500
30
0.0
0
VERTEX
5
10d0
8
Layer1
10
152.2500
20
47.7500
30
0.0
0
VERTEX
5
10d1
8
Layer1
10
166.2500
20
47.7500
30
0.0
0
VERTEX
5
10d2
8
Layer1
10
166.2500
20
61.7500
30
0.0
0
SEQEND
5
10d3
8
Layer1
0
POLYLINE
5
10d4
8
Layer1
66
1
10
0.0
20
0.0
30
0.0
70
1
0
VERTEX
5
10d5
8
Layer1
10
185.2500
20
61.7500
30
0.0
0
VERTEX
5
10d6
8
Layer1
10
171.2500
20
61.7500
30
0.0
0
VERTEX
5
10d7
8
Layer1
10
171.2500
20
47.7500
30
0.0
0
VERTEX
5
10d8
8
Layer1
10
185.2500
20
47.7500
30
0.0
0
VERTEX
5
10d9
8
Layer1
10
185.2500
20
61.7500
30
0.0
0
SEQEND
5
10da
8
Layer1
0
POLYLINE
5
10db
8
Layer1
66
1
10
0.0
20
0.0
30
0.0
70
1
0
VERTEX
5
10dc
8
Layer1
10
204.2500
20
61.7500
30
0.0
0
VERTEX
5
10dd
8
Layer1
10
190.2500
20
61.7500
30
0.0
0
VERTEX
5
10de
8
Layer1
10
190.2500
20
47.7500
30
0.0
0
VERTEX
5
10df
8
Layer1
10
204.2500
20
47.7500
30
0.0
0
VERTEX
5
10e0
8
Layer1
10
204.2500
20
61.7500
30
0.0
0
SEQEND
5
10e1
8
Layer1
0
POLYLINE
5
10e2
8
Layer1
66
1
10
0.0
20
0.0
30
0.0
70
1
0
VERTEX
5
10e3
8
Layer1
10
223.2500
20
61.7500
30
0.0
0
VERTEX
5
10e4
8
Layer1
10
209.2500
20
61.7500
30
0.0
0
VERTEX
5
10e5
8
Layer1
10
209.2500
20
47.7500
30
0.0
0
VERTEX
5
10e6
8
Layer1
10
223.2500
20
47.7500
30
0.0
0
VERTEX
5
10e7
8
Layer1
10
223.2500
20
61.7500
30
0.0
0
SEQEND
5
10e8
8
Layer1
0
POLYLINE
5
10e9
8
Layer1
66
1
10
0.0
20
0.0
30
0.0
70
1
0
VERTEX
5
10ea
8
Layer1
10
242.2500
20
61.7500
30
0.0
0
VERTEX
5
10eb
8
Layer1
10
228.2500
20
61.7500
30
0.0
0
VERTEX
5
10ec
8
Layer1
10
228.2500
20
47.7500
30
0.0
0
VERTEX
5
10ed
8
Layer1
10
242.2500
20
47.7500
30
0.0
0
VERTEX
5
10ee
8
Layer1
10
242.2500
20
61.7500
30
0.0
0
SEQEND
5
10ef
8
Layer1
0
POLYLINE
5
10f0
8
Layer1
66
1
10
0.0
20
0.0
30
0.0
70
1
0
VERTEX
5
10f1
8
Layer1
10
255.7250
20
47.9800
30
0.0
0
VERTEX
5
10f2
8
Layer1
10
257.5500
20
47.9800
30
0.0
0
VERTEX
5
10f3
8
Layer1
10
257.5500
20
54.2500
30
0.0
0
VERTEX
5
10f4
8
Layer1
10
259.1250
20
54.2500
30
0.0
0
VERTEX
5
10f5
8
Layer1
10
259.1250
20
47.7500
30
0.0
0
VERTEX
5
10f6
8
Layer1
10
273.1250
20
47.7500
30
0.0
0
VERTEX
5
10f7
8
Layer1
10
273.1250
20
54.2500
30
0.0
0
VERTEX
5
10f8
8
Layer1
10
274.7000
20
54.2500
30
0.0
0
VERTEX
5
10f9
8
Layer1
10
274.7000
20
47.9800
30
0.0
0
VERTEX
5
10fa
8
Layer1
10
276.5250
20
47.9800
30
0.0
0
VERTEX
5
10fb
8
Layer1
10
276.5250
20
46.7800
30
0.0
0
VERTEX
5
10fc
8
Layer1
10
279.5250
20
46.7800
30
0.0
0
VERTEX
5
10fd
8
Layer1
10
279.5250
20
47.9800
30
0.0
0
VERTEX
5
10fe
8
Layer1
10
281.3500
20
47.9800
30
0.0
0
VERTEX
5
10ff
8
Layer1
10
281.3500
20
54.2500
30
0.0
0
VERTEX
5
1100
8
Layer1
10
282.2250
20
54.2500
30
0.0
0
VERTEX
5
1101
8
Layer1
10
282.2250
20
57.0500
30
0.0
0
VERTEX
5
1102
8
Layer1
10
281.3500
20
57.0500
30
0.0
0
VERTEX
5
1103
8
Layer1
10
281.3500
20
60.2800
30
0.0
0
VERTEX
5
1104
8
Layer1
10
274.7000
20
60.2800
30
0.0
0
VERTEX
5
1105
8
Layer1
10
274.7000
20
57.0500
30
0.0
0
VERTEX
5
1106
8
Layer1
10
273.1250
20
57.0500
30
0.0
0
VERTEX
5
1107
8
Layer1
10
273.1250
20
61.7500
30
0.0
0
VERTEX
5
1108
8
Layer1
10
259.1250
20
61.7500
30
0.0
0
VERTEX
5
1109
8
Layer1
10
259.1250
20
57.0500
30
0.0
0
VERTEX
5
110a
8
Layer1
10
257.5500
20
57.0500
30
0.0
0
VERTEX
5
110b
8
Layer1
10
257.5500
20
60.2800
30
0.0
0
VERTEX
5
110c
8
Layer1
10
250.9000
20
60.2800
30
0.0
0
VERTEX
5
110d
8
Layer1
10
250.9000
20
57.0500
30
0.0
0
VERTEX
5
110e
8
Layer1
10
250.0250
20
57.0500
30
0.0
0
VERTEX
5
110f
8
Layer1
10
250.0250
20
54.2500
30
0.0
0
VERTEX
5
1110
8
Layer1
10
250.9000
20
54.2500
30
0.0
0
VERTEX
5
1111
8
Layer1
10
250.9000
20
47.9800
30
0.0
0
VERTEX
5
1112
8
Layer1
10
252.7250
20
47.9800
30
0.0
0
VERTEX
5
1113
8
Layer1
10
252.7250
20
46.7800
30
0.0
0
VERTEX
5
1114
8
Layer1
10
255.7250
20
46.7800
30
0.0
0
VERTEX
5
1115
8
Layer1
10
255.7250
20
47.9800
30
0.0
0
SEQEND
5
1116
8
Layer1
0
POLYLINE
5
1117
8
Layer1
66
1
10
0.0
20
0.0
30
0.0
70
1
0
VERTEX
5
1118
8
Layer1
10
13.4750
20
28.9800
30
0.0
0
VERTEX
5
1119
8
Layer1
10
15.3000
20
28.9800
30
0.0
0
VERTEX
5
111a
8
Layer1
10
15.3000
20
35.2500
30
0.0
0
VERTEX
5
111b
8
Layer1
10
16.8750
20
35.2500
30
0.0
0
VERTEX
5
111c
8
Layer1
10
16.8750
20
28.7500
30
0.0
0
VERTEX
5
111d
8
Layer1
10
30.8750
20
28.7500
30
0.0
0
VERTEX
5
111e
8
Layer1
10
30.8750
20
35.2500
30
0.0
0
VERTEX
5
111f
8
Layer1
10
32.4500
20
35.2500
30
0.0
0
VERTEX
5
1120
8
Layer1
10
32.4500
20
28.9800
30
0.0
0
VERTEX
5
1121
8
Layer1
10
34.2750
20
28.9800
30
0.0
0
VERTEX
5
1122
8
Layer1
10
34.2750
20
27.7800
30
0.0
0
VERTEX
5
1123
8
Layer1
10
37.2750
20
27.7800
30
0.0
0
VERTEX
5
1124
8
Layer1
10
37.2750
20
28.9800
30
0.0
0
VERTEX
5
1125
8
Layer1
10
39.1000
20
28.9800
30
0.0
0
VERTEX
5
1126
8
Layer1
10
39.1000
20
35.2500
30
0.0
0
VERTEX
5
1127
8
Layer1
10
39.9750
20
35.2500
30
0.0
0
VERTEX
5
1128
8
Layer1
10
39.9750
20
38.0500
30
0.0
0
VERTEX
5
1129
8
Layer1
10
39.1000
20
38.0500
30
0.0
0
VERTEX
5
112a
8
Layer1
10
39.1000
20
41.2800
30
0.0
0
VERTEX
5
112b
8
Layer1
10
32.4500
20
41.2800
30
0.0
0
VERTEX
5
112c
8
Layer1
10
32.4500
20
38.0500
30
0.0
0
VERTEX
5
112d
8
Layer1
10
30.8750
20
38.0500
30
0.0
0
VERTEX
5
112e
8
Layer1
10
30.8750
20
42.7500
30
0.0
0
VERTEX
5
112f
8
Layer1
10
16.8750
20
42.7500
30
0.0
0
VERTEX
5
1130
8
Layer1
10
16.8750
20
38.0500
30
0.0
0
VERTEX
5
1131
8
Layer1
10
15.3000
20
38.0500
30
0.0
0
VERTEX
5
1132
8
Layer1
10
15.3000
20
41.2800
30
0.0
0
VERTEX
5
1133
8
Layer1
10
8.6500
20
41.2800
30
0.0
0
VERTEX
5
1134
8
Layer1
10
8.6500
20
38.0500
30
0.0
0
VERTEX
5
1135
8
Layer1
10
7.7750
20
38.0500
30
0.0
0
VERTEX
5
1136
8
Layer1
10
7.7750
20
35.2500
30
0.0
0
VERTEX
5
1137
8
Layer1
10
8.6500
20
35.2500
30
0.0
0
VERTEX
5
1138
8
Layer1
10
8.6500
20
28.9800
30
0.0
0
VERTEX
5
1139
8
Layer1
10
10.4750
20
28.9800
30
0.0
0
VERTEX
5
113a
8
Layer1
10
10.4750
20
27.7800
30
0.0
0
VERTEX
5
113b
8
Layer1
10
13.4750
20
27.7800
30
0.0
0
VERTEX
5
113c
8
Layer1
10
13.4750
20
28.9800
30
0.0
0
SEQEND
5
113d
8
Layer1
0
POLYLINE
5
113e
8
Layer1
66
1
10
0.0
20
0.0
30
0.0
70
1
0
VERTEX
5
113f
8
Layer1
10
61.7500
20
42.7500
30
0.0
0
VERTEX
5
1140
8
Layer1
10
47.7500
20
42.7500
30
0.0
0
VERTEX
5
1141
8
Layer1
10
47.7500
20
28.7500
30
0.0
0
VERTEX
5
1142
8
Layer1
10
61.7500
20
28.7500
30
0.0
0
VERTEX
5
1143
8
Layer1
10
61.7500
20
42.7500
30
0.0
0
SEQEND
5
1144
8
Layer1
0
POLYLINE
5
1145
8
Layer1
66
1
10
0.0
20
0.0
30
0.0
70
1
0
VERTEX
5
1146
8
Layer1
10
80.7500
20
42.7500
30
0.0
0
VERTEX
5
1147
8
Layer1
10
66.7500
20
42.7500
30
0.0
0
VERTEX
5
1148
8
Layer1
10
66.7500
20
28.7500
30
0.0
0
VERTEX
5
1149
8
Layer1
10
80.7500
20
28.7500
30
0.0
0
VERTEX
5
114a
8
Layer1
10
80.7500
20
42.7500
30
0.0
0
SEQEND
5
114b
8
Layer1
0
POLYLINE
5
114c
8
Layer1
66
1
10
0.0
20
0.0
30
0.0
70
1
0
VERTEX
5
114d
8
Layer1
10
99.7500
20
42.7500
30
0.0
0
VERTEX
5
114e
8
Layer1
10
85.7500
20
42.7500
30
0.0
0
VERTEX
5
114f
8
Layer1
10
85.7500
20
28.7500
30
0.0
0
VERTEX
5
1150
8
Layer1
10
99.7500
20
28.7500
30
0.0
0
VERTEX
5
1151
8
Layer1
10
99.7500
20
42.7500
30
0.0
0
SEQEND
5
1152
8
Layer1
0
POLYLINE
5
1153
8
Layer1
66
1
10
0.0
20
0.0
30
0.0
70
1
0
VERTEX
5
1154
8
Layer1
10
118.7500
20
42.7500
30
0.0
0
VERTEX
5
1155
8
Layer1
10
104.7500
20
42.7500
30
0.0
0
VERTEX
5
1156
8
Layer1
10
104.7500
20
28.7500
30
0.0
0
VERTEX
5
1157
8
Layer1
10
118.7500
20
28.7500
30
0.0
0
VERTEX
5
1158
8
Layer1
10
118.7500
20
42.7500
30
0.0
0
SEQEND
5
1159
8
Layer1
0
POLYLINE
5
115a
8
Layer1
66
1
10
0.0
20
0.0
30
0.0
70
1
0
VERTEX
5
115b
8
Layer1
10
137.7500
20
42.7500
30
0.0
0
VERTEX
5
115c
8
Layer1
10
123.7500
20
42.7500
30
0.0
0
VERTEX
5
115d
8
Layer1
10
123.7500
20
28.7500
30
0.0
0
VERTEX
5
115e
8
Layer1
10
137.7500
20
28.7500
30
0.0
0
VERTEX
5
115f
8
Layer1
10
137.7500
20
42.7500
30
0.0
0
SEQEND
5
1160
8
Layer1
0
POLYLINE
5
1161
8
Layer1
66
1
10
0.0
20
0.0
30
0.0
70
1
0
VERTEX
5
1162
8
Layer1
10
156.7500
20
42.7500
30
0.0
0
VERTEX
5
1163
8
Layer1
10
142.7500
20
42.7500
30
0.0
0
VERTEX
5
1164
8
Layer1
10
142.7500
20
28.7500
30
0.0
0
VERTEX
5
1165
8
Layer1
10
156.7500
20
28.7500
30
0.0
0
VERTEX
5
1166
8
Layer1
10
156.7500
20
42.7500
30
0.0
0
SEQEND
5
1167
8
Layer1
0
POLYLINE
5
1168
8
Layer1
66
1
10
0.0
20
0.0
30
0.0
70
1
0
VERTEX
5
1169
8
Layer1
10
175.7500
20
42.7500
30
0.0
0
VERTEX
5
116a
8
Layer1
10
161.7500
20
42.7500
30
0.0
0
VERTEX
5
116b
8
Layer1
10
161.7500
20
28.7500
30
0.0
0
VERTEX
5
116c
8
Layer1
10
175.7500
20
28.7500
30
0.0
0
VERTEX
5
116d
8
Layer1
10
175.7500
20
42.7500
30
0.0
0
SEQEND
5
116e
8
Layer1
0
POLYLINE
5
116f
8
Layer1
66
1
10
0.0
20
0.0
30
0.0
70
1
0
VERTEX
5
1170
8
Layer1
10
194.7500
20
42.7500
30
0.0
0
VERTEX
5
1171
8
Layer1
10
180.7500
20
42.7500
30
0.0
0
VERTEX
5
1172
8
Layer1
10
180.7500
20
28.7500
30
0.0
0
VERTEX
5
1173
8
Layer1
10
194.7500
20
28.7500
30
0.0
0
VERTEX
5
1174
8
Layer1
10
194.7500
20
42.7500
30
0.0
0
SEQEND
5
1175
8
Layer1
0
POLYLINE
5
1176
8
Layer1
66
1
10
0.0
20
0.0
30
0.0
70
1
0
VERTEX
5
1177
8
Layer1
10
213.7500
20
42.7500
30
0.0
0
VERTEX
5
1178
8
Layer1
10
199.7500
20
42.7500
30
0.0
0
VERTEX
5
1179
8
Layer1
10
199.7500
20
28.7500
30
0.0
0
VERTEX
5
117a
8
Layer1
10
213.7500
20
28.7500
30
0.0
0
VERTEX
5
117b
8
Layer1
10
213.7500
20
42.7500
30
0.0
0
SEQEND
5
117c
8
Layer1
0
POLYLINE
5
117d
8
Layer1
66
1
10
0.0
20
0.0
30
0.0
70
1
0
VERTEX
5
117e
8
Layer1
10
232.7500
20
42.7500
30
0.0
0
VERTEX
5
117f
8
Layer1
10
218.7500
20
42.7500
30
0.0
0
VERTEX
5
1180
8
Layer1
10
218.7500
20
28.7500
30
0.0
0
VERTEX
5
1181
8
Layer1
10
232.7500
20
28.7500
30
0.0
0
VERTEX
5
1182
8
Layer1
10
232.7500
20
42.7500
30
0.0
0
SEQEND
5
1183
8
Layer1
0
POLYLINE
5
1184
8
Layer1
66
1
10
0.0
20
0.0
30
0.0
70
1
0
VERTEX
5
1185
8
Layer1
10
258.8750
20
42.7500
30
0.0
0
VERTEX
5
1186
8
Layer1
10
244.8750
20
42.7500
30
0.0
0
VERTEX
5
1187
8
Layer1
10
244.8750
20
28.7500
30
0.0
0
VERTEX
5
1188
8
Layer1
10
258.8750
20
28.7500
30
0.0
0
VERTEX
5
1189
8
Layer1
10
258.8750
20
42.7500
30
0.0
0
SEQEND
5
118a
8
Layer1
0
POLYLINE
5
118b
8
Layer1
66
1
10
0.0
20
0.0
30
0.0
70
1
0
VERTEX
5
118c
8
Layer1
10
289.7500
20
38.0000
30
0.0
0
VERTEX
5
118d
8
Layer1
10
275.7500
20
38.0000
30
0.0
0
VERTEX
5
118e
8
Layer1
10
275.7500
20
24.0000
30
0.0
0
VERTEX
5
118f
8
Layer1
10
289.7500
20
24.0000
30
0.0
0
VERTEX
5
1190
8
Layer1
10
289.7500
20
38.0000
30
0.0
0
SEQEND
5
1191
8
Layer1
0
POLYLINE
5
1192
8
Layer1
66
1
10
0.0
20
0.0
30
0.0
70
1
0
VERTEX
5
1193
8
Layer1
10
19.0000
20
23.7500
30
0.0
0
VERTEX
5
1194
8
Layer1
10
5.0000
20
23.7500
30
0.0
0
VERTEX
5
1195
8
Layer1
10
5.0000
20
9.7500
30
0.0
0
VERTEX
5
1196
8
Layer1
10
19.0000
20
9.7500
30
0.0
0
VERTEX
5
1197
8
Layer1
10
19.0000
20
23.7500
30
0.0
0
SEQEND
5
1198
8
Layer1
0
POLYLINE
5
1199
8
Layer1
66
1
10
0.0
20
0.0
30
0.0
70
1
0
VERTEX
5
119a
8
Layer1
10
38.0000
20
23.7500
30
0.0
0
VERTEX
5
119b
8
Layer1
10
24.0000
20
23.7500
30
0.0
0
VERTEX
5
119c
8
Layer1
10
24.0000
20
9.7500
30
0.0
0
VERTEX
5
119d
8
Layer1
10
38.0000
20
9.7500
30
0.0
0
VERTEX
5
119e
8
Layer1
10
38.0000
20
23.7500
30
0.0
0
SEQEND
5
119f
8
Layer1
0
POLYLINE
5
11a0
8
Layer1
66
1
10
0.0
20
0.0
30
0.0
70
1
0
VERTEX
5
11a1
8
Layer1
10
57.0000
20
23.7500
30
0.0
0
VERTEX
5
11a2
8
Layer1
10
43.0000
20
23.7500
30
0.0
0
VERTEX
5
11a3
8
Layer1
10
43.0000
20
9.7500
30
0.0
0
VERTEX
5
11a4
8
Layer1
10
57.0000
20
9.7500
30
0.0
0
VERTEX
5
11a5
8
Layer1
10
57.0000
20
23.7500
30
0.0
0
SEQEND
5
11a6
8
Layer1
0
POLYLINE
5
11a7
8
Layer1
66
1
10
0.0
20
0.0
30
0.0
70
1
0
VERTEX
5
11a8
8
Layer1
10
78.3750
20
23.7500
30
0.0
0
VERTEX
5
11a9
8
Layer1
10
64.3750
20
23.7500
30
0.0
0
VERTEX
5
11aa
8
Layer1
10
64.3750
20
9.7500
30
0.0
0
VERTEX
5
11ab
8
Layer1
10
78.3750
20
9.7500
30
0.0
0
VERTEX
5
11ac
8
Layer1
10
78.3750
20
23.7500
30
0.0
0
SEQEND
5
11ad
8
Layer1
0
POLYLINE
5
11ae
8
Layer1
66
1
10
0.0
20
0.0
30
0.0
70
1
0
VERTEX
5
11af
8
Layer1
10
94.1250
20
9.9800
30
0.0
0
VERTEX
5
11b0
8
Layer1
10
95.9500
20
9.9800
30
0.0
0
VERTEX
5
11b1
8
Layer1
10
95.9500
20
14.4500
30
0.0
0
VERTEX
5
11b2
8
Layer1
10
135.6250
20
14.4500
30
0.0
0
VERTEX
5
11b3
8
Layer1
10
135.6250
20
9.7500
30
0.0
0
VERTEX
5
11b4
8
Layer1
10
149.6250
20
9.7500
30
0.0
0
VERTEX
5
11b5
8
Layer1
10
149.6250
20
14.4500
30
0.0
0
VERTEX
5
11b6
8
Layer1
10
189.3000
20
14.4500
30
0.0
0
VERTEX
5
11b7
8
Layer1
10
189.3000
20
9.9800
30
0.0
0
VERTEX
5
11b8
8
Layer1
10
191.1250
20
9.9800
30
0.0
0
VERTEX
5
11b9
8
Layer1
10
191.1250
20
8.7800
30
0.0
0
VERTEX
5
11ba
8
Layer1
10
194.1250
20
8.7800
30
0.0
0
VERTEX
5
11bb
8
Layer1
10
194.1250
20
9.9800
30
0.0
0
VERTEX
5
11bc
8
Layer1
10
195.9500
20
9.9800
30
0.0
0
VERTEX
5
11bd
8
Layer1
10
195.9500
20
16.2500
30
0.0
0
VERTEX
5
11be
8
Layer1
10
196.8500
20
16.2500
30
0.0
0
VERTEX
5
11bf
8
Layer1
10
196.8500
20
19.0500
30
0.0
0
VERTEX
5
11c0
8
Layer1
10
195.9500
20
19.0500
30
0.0
0
VERTEX
5
11c1
8
Layer1
10
195.9500
20
22.2800
30
0.0
0
VERTEX
5
11c2
8
Layer1
10
189.3000
20
22.2800
30
0.0
0
VERTEX
5
11c3
8
Layer1
10
189.3000
20
19.0500
30
0.0
0
VERTEX
5
11c4
8
Layer1
10
149.6250
20
19.0500
30
0.0
0
VERTEX
5
11c5
8
Layer1
10
149.6250
20
23.7500
30
0.0
0
VERTEX
5
11c6
8
Layer1
10
135.6250
20
23.7500
30
0.0
0
VERTEX
5
11c7
8
Layer1
10
135.6250
20
19.0500
30
0.0
0
VERTEX
5
11c8
8
Layer1
10
95.9500
20
19.0500
30
0.0
0
VERTEX
5
11c9
8
Layer1
10
95.9500
20
22.2800
30
0.0
0
VERTEX
5
11ca
8
Layer1
10
89.3000
20
22.2800
30
0.0
0
VERTEX
5
11cb
8
Layer1
10
89.3000
20
19.0500
30
0.0
0
VERTEX
5
11cc
8
Layer1
10
88.4000
20
19.0500
30
0.0
0
VERTEX
5
11cd
8
Layer1
10
88.4000
20
16.2500
30
0.0
0
VERTEX
5
11ce
8
Layer1
10
89.3000
20
16.2500
30
0.0
0
VERTEX
5
11cf
8
Layer1
10
89.3000
20
9.9800
30
0.0
0
VERTEX
5
11d0
8
Layer1
10
91.1250
20
9.9800
30
0.0
0
VERTEX
5
11d1
8
Layer1
10
91.1250
20
8.7800
30
0.0
0
VERTEX
5
11d2
8
Layer1
10
94.1250
20
8.7800
30
0.0
0
VERTEX
5
11d3
8
Layer1
10
94.1250
20
9.9800
30
0.0
0
SEQEND
5
11d4
8
Layer1
0
POLYLINE
5
11d5
8
Layer1
66
1
10
0.0
20
0.0
30
0.0
70
1
0
VERTEX
5
11d6
8
Layer1
10
220.8750
20
23.7500
30
0.0
0
VERTEX
5
11d7
8
Layer1
10
206.8750
20
23.7500
30
0.0
0
VERTEX
5
11d8
8
Layer1
10
206.8750
20
9.7500
30
0.0
0
VERTEX
5
11d9
8
Layer1
10
220.8750
20
9.7500
30
0.0
0
VERTEX
5
11da
8
Layer1
10
220.8750
20
23.7500
30
0.0
0
SEQEND
5
11db
8
Layer1
0
POLYLINE
5
11dc
8
Layer1
66
1
10
0.0
20
0.0
30
0.0
70
1
0
VERTEX
5
11dd
8
Layer1
10
244.6250
20
23.7500
30
0.0
0
VERTEX
5
11de
8
Layer1
10
230.6250
20
23.7500
30
0.0
0
VERTEX
5
11df
8
Layer1
10
230.6250
20
9.7500
30
0.0
0
VERTEX
5
11e0
8
Layer1
10
244.6250
20
9.7500
30
0.0
0
VERTEX
5
11e1
8
Layer1
10
244.6250
20
23.7500
30
0.0
0
SEQEND
5
11e2
8
Layer1
0
POLYLINE
5
11e3
8
Layer1
66
1
10
0.0
20
0.0
30
0.0
70
1
0
VERTEX
5
11e4
8
Layer1
10
270.7500
20
19.0000
30
0.0
0
VERTEX
5
11e5
8
Layer1
10
256.7500
20
19.0000
30
0.0
0
VERTEX
5
11e6
8
Layer1
10
256.7500
20
5.0000
30
0.0
0
VERTEX
5
11e7
8
Layer1
10
270.7500
20
5.0000
30
0.0
0
VERTEX
5
11e8
8
Layer1
10
270.7500
20
19.0000
30
0.0
0
SEQEND
5
11e9
8
Layer1
0
POLYLINE
5
11ea
8
Layer1
66
1
10
0.0
20
0.0
30
0.0
70
1
0
VERTEX
5
11eb
8
Layer1
10
289.7500
20
19.0000
30
0.0
0
VERTEX
5
11ec
8
Layer1
10
275.7500
20
19.0000
30
0.0
0
VERTEX
5
11ed
8
Layer1
10
275.7500
20
5.0000
30
0.0
0
VERTEX
5
11ee
8
Layer1
10
289.7500
20
5.0000
30
0.0
0
VERTEX
5
11ef
8
Layer1
10
289.7500
20
19.0000
30
0.0
0
SEQEND
5
11f0
8
Layer1
0
POLYLINE
5
11f1
8
Layer1
66
1
10
0.0
20
0.0
30
0.0
70
1
0
VERTEX
5
11f2
8
Layer1
10
308.7500
20
19.0000
30
0.0
0
VERTEX
5
11f3
8
Layer1
10
294.7500
20
19.0000
30
0.0
0
VERTEX
5
11f4
8
Layer1
10
294.7500
20
5.0000
30
0.0
0
VERTEX
5
11f5
8
Layer1
10
308.7500
20
5.0000
30
0.0
0
VERTEX
5
11f6
8
Layer1
10
308.7500
20
19.0000
30
0.0
0
SEQEND
5
11f7
8
Layer1
0
ENDSEC
0
EOF
